<svg version="1.1" xmlns="http://www.w3.org/2000/svg" xmlns:xlink="http://www.w3.org/1999/xlink" width="40.58398" height="38.34554" viewBox="0,0,40.58398,38.34554"><g transform="translate(-219.70801,-160.82723)"><g data-paper-data="{&quot;isPaintingLayer&quot;:true}" fill-rule="nonzero" stroke="none" stroke-linecap="butt" stroke-linejoin="miter" stroke-miterlimit="10" stroke-dasharray="" stroke-dashoffset="0" style="mix-blend-mode: normal"><path d="M219.70801,199.17277v-38.34554h40.58398v38.34554z" fill="#000000" stroke-width="0"/><g fill="#009dff" stroke-width="1"><path d="M250.12755,189.02452h-0.62733v-2.24678h-3.88837v2.24678h-0.62838v-2.24678h-4.07183v2.24678h-0.62943v-2.24678h-4.33225v2.24678h-0.62733v-2.24678h-3.60265v-0.62627h3.60265v-4.07077h-3.60265v-0.62838h3.60265v-3.71019h-3.60265v-0.62627h3.60265v-2.50614h0.62733v2.50614h4.33225v-2.50614h0.62943v2.50614h4.07183v-2.50614h0.62838v2.50614h3.88943v-2.50614h0.62627v2.50614h4.15196v0.62627h-4.15196v3.71019h4.15196v0.62838h-4.15196v4.07077h4.15196v0.62627h-4.15196zM244.98452,186.15147v-4.07077h-4.07183v4.07077zM235.94997,186.15147h4.33225v-4.07077h-4.33225zM235.94997,177.74213v3.71019h4.33225v-3.71019c0,0.00105 -4.33225,0.00105 -4.33225,0zM240.91164,177.74213v3.71019h4.07183v-3.71019c0,0.00105 -4.07183,0.00105 -4.07183,0zM249.50128,177.74213h-3.88837v3.71019h3.88837zM249.50128,182.08069h-3.88837v4.07077h3.88837z"/><path d="M227.43625,165.49714l4.35333,0.00421l0.63576,0.00211v2.581c0,0.68848 0.56301,1.25149 1.25255,1.25149h1.46341c0.69164,0 1.25255,-0.56196 1.25255,-1.25149v-2.57679l1.66901,0.00211v2.57468c0,0.68848 0.56407,1.25149 1.25571,1.25149h1.46341c0.69059,0 1.25255,-0.56196 1.25255,-1.25149v-2.57363l1.77339,0.00421v2.57046c0,0.68848 0.56301,1.25149 1.2536,1.25149h1.46446c0.68848,0 1.25255,-0.56196 1.25255,-1.25149v-2.56624h1.8261v2.56624c0,0.68848 0.56196,1.25149 1.25255,1.25149h1.46341c0.69164,0 1.2536,-0.56196 1.2536,-1.25149v-2.56097l4.65593,0.00421v27.57392h-2.20355h-26.42153l-2.20039,-0.00633zM229.605,190.9086h26.42153v-17.61681h-26.42153z"/><path d="M252.32056,168.4482h-1.46341c-0.17186,0 -0.31208,-0.14022 -0.31208,-0.31314v-4.38602c0,-0.17397 0.14023,-0.31314 0.31208,-0.31314h1.46341c0.17397,0 0.31419,0.13917 0.31419,0.31314v4.38602c0,0.17291 -0.14022,0.31314 -0.31419,0.31314z"/><path d="M246.52596,168.4482h-1.46446c-0.17291,0 -0.31314,-0.14022 -0.31314,-0.31314v-4.38602c0.00105,-0.17397 0.14128,-0.31314 0.31419,-0.31314h1.46446c0.17186,0 0.31208,0.13917 0.31208,0.31314v4.38602c-0.00105,0.17291 -0.14128,0.31314 -0.31314,0.31314z"/><path d="M240.78197,168.4482h-1.46341c-0.17502,0 -0.31524,-0.14022 -0.31524,-0.31314v-4.38602c0.00105,-0.17397 0.14022,-0.31314 0.31524,-0.31314h1.46341c0.17291,0 0.31314,0.13917 0.31314,0.31314v4.38602c0,0.17291 -0.14022,0.31314 -0.31314,0.31314z"/><path d="M235.14129,168.4482h-1.46341c-0.17291,0 -0.31208,-0.14022 -0.31208,-0.31314v-4.38602c0,-0.17397 0.13917,-0.31314 0.31208,-0.31314h1.46341c0.17291,0 0.31314,0.13917 0.31314,0.31314v4.38602c-0.00105,0.17291 -0.14022,0.31314 -0.31314,0.31314z"/></g></g></g></svg>