<svg version="1.1" xmlns="http://www.w3.org/2000/svg" xmlns:xlink="http://www.w3.org/1999/xlink" width="482.85714" height="361.02129" viewBox="0,0,482.85714,361.02129"><g transform="translate(1.42857,0.51063)"><g data-paper-data="{&quot;isPaintingLayer&quot;:true}" fill-rule="nonzero" stroke-linecap="butt" stroke-linejoin="miter" stroke-miterlimit="10" stroke-dasharray="" stroke-dashoffset="0" style="mix-blend-mode: normal"><path d="M-1.42857,360.51066v-361.02129h482.85714v361.02129z" fill="#000000" stroke="#ff0000" stroke-width="0"/><text transform="translate(183.63002,42.62651) scale(0.5,0.5)" font-size="40" xml:space="preserve" fill="#ffffff" fill-rule="nonzero" stroke="none" stroke-width="1" stroke-linecap="butt" stroke-linejoin="miter" stroke-miterlimit="10" stroke-dasharray="" stroke-dashoffset="0" font-family="Sans Serif" font-weight="normal" text-anchor="start" style="mix-blend-mode: normal"><tspan x="0" dy="0">Welcome to</tspan></text><text transform="translate(95.43005,67.05186) scale(0.5,0.5)" font-size="40" xml:space="preserve" fill="#ffffff" fill-rule="nonzero" stroke="none" stroke-width="1" stroke-linecap="butt" stroke-linejoin="miter" stroke-miterlimit="10" stroke-dasharray="" stroke-dashoffset="0" font-family="Sans Serif" font-weight="normal" text-anchor="start" style="mix-blend-mode: normal"><tspan x="0" dy="0">Räuber und Gerdam Autospiel</tspan></text><path d="M325.51553,305.64135h115.99171v-18l30,30l-30,30v-18h-115.99171z" fill="#000000" stroke="#ffffff" stroke-width="3.5"/><text transform="translate(328.65103,324.03382) scale(0.5,0.5)" font-size="40" xml:space="preserve" fill="#ffffff" fill-rule="nonzero" stroke="none" stroke-width="1" stroke-linecap="butt" stroke-linejoin="miter" stroke-miterlimit="10" stroke-dasharray="" stroke-dashoffset="0" font-family="Sans Serif" font-weight="normal" text-anchor="start" style="mix-blend-mode: normal"><tspan x="0" dy="0">Next</tspan></text><g data-paper-data="{&quot;isHelperItem&quot;:true}" fill="#000000" stroke="#000000"><path d="" stroke-width="0"/><g data-paper-data="{&quot;isSelectionBound&quot;:true,&quot;isHelperItem&quot;:true}" stroke-width="0.68213"><path d=""/><path d=""/><path d=""/></g></g><text transform="translate(240,129.97948) scale(0.5,0.5)" font-size="40" xml:space="preserve" fill="#ffffff" fill-rule="nonzero" stroke="none" stroke-width="1" stroke-linecap="butt" stroke-linejoin="miter" stroke-miterlimit="10" stroke-dasharray="" stroke-dashoffset="0" font-family="Sans Serif" font-weight="normal" text-anchor="middle" style="mix-blend-mode: normal"><tspan x="0" dy="0">You choose for every Round two Cars</tspan><tspan x="0" dy="48px"> </tspan><tspan x="0" dy="48px">one car, if you are going to be the thief</tspan><tspan x="0" dy="48px">one car, if you are going to be the police</tspan></text><g stroke="none"><path d="M36.02447,245.30858c0,-4.89927 3.08059,-10.4055 10.11855,-10.4055c22.2979,0 143.45913,0 180,0c6.59795,0 10.43701,4.84952 10.43701,9.31855c0,5.64107 0,24.49801 0,24.49801l-200.55556,-0.13692c0,0 0,-17.49764 0,-23.27413z" fill="#0084ff" stroke-width="0"/><text transform="translate(112.36226,257.81135) scale(0.5,0.5)" font-size="40" xml:space="preserve" fill="#ffffff" fill-rule="nonzero" stroke="none" stroke-width="1" stroke-linecap="butt" stroke-linejoin="miter" stroke-miterlimit="10" stroke-dasharray="" stroke-dashoffset="0" font-family="Sans Serif" font-weight="normal" text-anchor="start" style="mix-blend-mode: normal"><tspan x="0" dy="0">Thief</tspan></text><path d="M243.41997,245.30858c0,-4.89927 3.08059,-10.4055 10.11855,-10.4055c22.2979,0 143.45913,0 180,0c6.59795,0 10.43701,4.84952 10.43701,9.31855c0,5.64107 0,24.49801 0,24.49801l-200.55556,-0.13692c0,0 0,-17.49764 0,-23.27413z" fill="#0084ff" stroke-width="0"/><text transform="translate(315.42776,257.5801) scale(0.5,0.5)" font-size="40" xml:space="preserve" fill="#ffffff" fill-rule="nonzero" stroke="none" stroke-width="1" stroke-linecap="butt" stroke-linejoin="miter" stroke-miterlimit="10" stroke-dasharray="" stroke-dashoffset="0" font-family="Sans Serif" font-weight="normal" text-anchor="start" style="mix-blend-mode: normal"><tspan x="0" dy="0">Police</tspan></text></g></g></g></svg>