<svg version="1.1" xmlns="http://www.w3.org/2000/svg" xmlns:xlink="http://www.w3.org/1999/xlink" width="72.13499" height="35.3651" viewBox="0,0,72.13499,35.3651"><g transform="translate(-203.9325,-162.31746)"><g data-paper-data="{&quot;isPaintingLayer&quot;:true}" fill-rule="nonzero" stroke-linejoin="miter" stroke-miterlimit="10" stroke-dasharray="" stroke-dashoffset="0" style="mix-blend-mode: normal"><path d="M204.95308,172.17643c0,0 0.6661,-1.81885 1.00284,-2.4728c0.34176,-0.66368 1.55828,-1.48052 1.55828,-1.48052c0,0 3.1038,-1.11053 4.71815,-1.52045c1.47691,-0.37501 4.59237,-0.84366 4.59237,-0.84366c0,0 2.40893,0.24243 3.47387,0.47541c1.03544,0.22652 2.82978,0.90365 2.82978,0.90365c0,0 28.18986,0.2567 32.01991,0.25017c0.51588,-0.00088 1.99939,-0.42677 2.60238,-0.67025c0.99701,-0.40258 1.76876,-0.48435 3.25533,-0.72353c1.46207,-0.23522 4.54108,0.54188 4.54108,0.54188l6.81806,2.55787l3.03207,5.5688c0,0 0.42028,3.73889 0.42028,5.5688c0,1.84743 -0.42028,5.46373 -0.42028,5.46373l-3.3889,6.07165l-6.58418,3.04986c0,0 -2.82972,0.6159 -4.41439,0.36185c-1.49763,-0.2401 -3.17228,-0.8613 -3.17228,-0.8613c0,0 -1.74827,-0.51746 -2.35593,-0.51761c-3.40443,-0.00074 -32.53868,0.22617 -32.53868,0.22617c0,0 -2.05561,0.73048 -2.98487,0.91273c-0.87864,0.17231 -3.14783,0.26937 -3.14783,0.26937c0,0 -3.12764,-0.28917 -4.59727,-0.75105c-1.58607,-0.49848 -4.71327,-1.55469 -4.71327,-1.55469c0,0 -1.04384,-0.77635 -1.45463,-1.46951c-0.40287,-0.6798 -0.98683,-2.65018 -0.98683,-2.65018l-0.86393,-1.3309l-0.01167,-14.11463z" fill="#21be00" stroke="#000000" stroke-width="0.5" stroke-linecap="round"/><path d="M224.77391,185.66753l-2.45196,4.67053l-12.65238,-1.38637l-0.70047,-1.40096l-1.48852,-1.13828l-0.08756,-11.82057l1.3134,-1.13827l0.61291,-1.22584l12.84209,-1.37176l2.61246,4.42223z" fill="#191919" stroke="#000000" stroke-width="0.5" stroke-linecap="round"/><path d="M226.6007,170.70551l-0.55537,-0.62543c0,0 16.99533,-1.26421 22.46429,-1.43949c5.45846,-0.17496 10.50571,0.07606 10.50571,0.07606l-10.00245,2.26091c0,0 -4.5063,0.60086 -6.87942,0.72376c-2.66513,0.13802 -8.33722,0.06429 -8.33722,0.06429z" fill="#3a4758" stroke="#000000" stroke-width="0.5" stroke-linecap="round"/><path d="M233.98214,189.50754c0,0 5.67209,-0.07374 8.33722,0.06429c2.37312,0.12289 6.87942,0.72376 6.87942,0.72376l10.00246,2.26091c0,0 -5.04725,0.25102 -10.50571,0.07606c-5.46896,-0.17528 -22.55184,-1.35868 -22.55184,-1.35868l0.64294,-0.70625z" data-paper-data="{&quot;index&quot;:null}" fill="#3a4758" stroke="#000000" stroke-width="0.5" stroke-linecap="round"/><path d="M261.57023,169.10795c0,0 3.63367,0.76453 7.96588,2.39428c4.31498,2.46016 5.09804,3.17452 5.09804,3.17452" fill="none" stroke="#000000" stroke-width="0.25" stroke-linecap="round"/><path d="M274.45902,186.07265c0,0 -1.04574,1.10838 -5.36073,3.56854c-4.3322,1.62975 -7.96588,2.39428 -7.96588,2.39428" data-paper-data="{&quot;index&quot;:null}" fill="none" stroke="#000000" stroke-width="0.25" stroke-linecap="round"/><path d="M270.16984,169.02664l1.7637,0.66295l1.92632,3.23971l-0.06255,0.55038c0,0 -1.12112,-1.25613 -1.65214,-1.96147c-0.55985,-0.74363 -1.97534,-2.49157 -1.97534,-2.49157z" fill="#808080" stroke="#000000" stroke-width="0.25" stroke-linecap="round"/><path d="M271.7887,189.51637c0.53103,-0.70533 1.65214,-1.96147 1.65214,-1.96147l0.06255,0.55038l-1.92631,3.23971l-1.7637,0.66295c0,0 1.41549,-1.74794 1.97534,-2.49157z" data-paper-data="{&quot;index&quot;:null}" fill="#808080" stroke="#000000" stroke-width="0.25" stroke-linecap="round"/><path d="M224.79331,175.29862l-2.07425,-3.65315l27.19528,5.35067l-25.13702,-0.90372z" fill="none" stroke="#000000" stroke-width="0.25" stroke-linecap="round"/><path d="M270.67801,186.9717l-5.77894,-0.65669" fill="none" stroke="#000000" stroke-width="0.25" stroke-linecap="round"/><path d="M270.67801,173.37806l-5.77894,0.65669" data-paper-data="{&quot;index&quot;:null}" fill="none" stroke="#000000" stroke-width="0.25" stroke-linecap="round"/><path d="M274.35367,180.55431c0,0 -0.14424,0.20025 -0.27277,0.24157c-0.16941,0.05446 -0.45647,0.02361 -0.45647,0.02361c0,0 -0.02364,-0.20435 -0.01846,-0.29751c0.0058,-0.10443 0.01846,-0.26598 0.01846,-0.26598c0,0 0.32391,0.00345 0.48616,0.08757c0.12775,0.06624 0.24306,0.21074 0.24306,0.21074z" fill="#000000" stroke="#8a7100" stroke-width="0.25" stroke-linecap="round"/><path d="M226.59577,170.67316l-2.189,-2.36411l2.80192,-0.26268" fill="none" stroke="#000000" stroke-width="0.5" stroke-linecap="round"/><path d="M227.39301,193.16805l-2.80192,-0.26268l2.189,-2.36411" data-paper-data="{&quot;index&quot;:null}" fill="none" stroke="#000000" stroke-width="0.5" stroke-linecap="round"/><path d="M210.51516,186.01284v-10.56897l14.23776,0.53047l-0.12346,8.66403z" fill="#3a4758" stroke="#000000" stroke-width="0.5" stroke-linecap="butt"/><path d="M208.8784,173.72093l1.53566,1.61648" fill="none" stroke="#000000" stroke-width="0.5" stroke-linecap="round"/><path d="M210.41405,186.00623l-1.21236,1.21236" fill="none" stroke="#000000" stroke-width="0.5" stroke-linecap="round"/><path d="M222.20115,175.0333l-2.0316,-3.28182" fill="none" stroke="#000000" stroke-width="0.5" stroke-linecap="round"/><path d="M219.84226,175.14602l-1.96153,-3.16865" fill="none" stroke="#000000" stroke-width="0.5" stroke-linecap="round"/><path d="M215.71889,172.30102l1.61121,2.60276" fill="none" stroke="#000000" stroke-width="0.5" stroke-linecap="round"/><path d="M213.44554,172.44551l1.47109,2.3764" fill="none" stroke="#000000" stroke-width="0.5" stroke-linecap="round"/><path d="M211.22158,172.81972l1.05071,1.69732" fill="none" stroke="#000000" stroke-width="0.5" stroke-linecap="round"/><path d="M220.08951,189.30711l2.17172,-3.50818" data-paper-data="{&quot;index&quot;:null}" fill="none" stroke="#000000" stroke-width="0.5" stroke-linecap="round"/><path d="M219.69217,186.00958l-2.03159,3.28183" data-paper-data="{&quot;index&quot;:null}" fill="none" stroke="#000000" stroke-width="0.5" stroke-linecap="round"/><path d="M217.25007,186.20871l-1.75133,2.82911" data-paper-data="{&quot;index&quot;:null}" fill="none" stroke="#000000" stroke-width="0.5" stroke-linecap="round"/><path d="M214.90664,186.30674l-1.47109,2.3764" data-paper-data="{&quot;index&quot;:null}" fill="none" stroke="#000000" stroke-width="0.25" stroke-linecap="round"/><path d="M212.12218,186.68168l-1.05071,1.69732" data-paper-data="{&quot;index&quot;:null}" fill="none" stroke="#000000" stroke-width="0.5" stroke-linecap="round"/><path d="M251.29081,167.22672l0.67823,-1.03996l-0.62101,-0.10303l-0.66372,-2.48896c0,0 1.00009,0.04928 1.3915,0.43449c0.4863,0.47861 1.19326,2.0524 1.19326,2.0524l-0.39249,0.1829l-0.6159,0.97607z" fill="#21be00" stroke="#000000" stroke-width="0.25" stroke-linecap="round"/><path d="M251.81479,193.90342l0.6159,0.97607l0.3925,0.18291c0,0 -0.70695,1.57378 -1.19326,2.0524c-0.3914,0.38522 -1.3915,0.43449 -1.3915,0.43449l0.66372,-2.48897l0.62101,-0.10302l-0.67823,-1.03996z" data-paper-data="{&quot;index&quot;:null}" fill="#21be00" stroke="#000000" stroke-width="0.25" stroke-linecap="round"/><path d="M270.65962,191.27577l0.27941,-0.08597l0.53731,-0.47283l0.27941,-0.06448" fill="none" stroke="#ffffff" stroke-width="0.125" stroke-linecap="round"/><path d="M271.33168,190.44741l0.57223,-0.0988" fill="none" stroke="#ffffff" stroke-width="0.125" stroke-linecap="round"/><path d="M272.00481,189.55488l0.44241,-0.06091" fill="none" stroke="#ffffff" stroke-width="0.125" stroke-linecap="round"/><path d="M272.60482,189.17454l-0.25433,-0.05673" fill="none" stroke="#ffffff" stroke-width="0.125" stroke-linecap="round"/><path d="M272.12431,171.50876c-0.55985,-0.74363 -1.97534,-2.49157 -1.97534,-2.49157l1.7637,0.66295l1.92631,3.23971l-0.06255,0.55038c0,0 -1.12111,-1.25613 -1.65214,-1.96147z" data-paper-data="{&quot;index&quot;:null}" fill="#808080" stroke="#000000" stroke-width="0.25" stroke-linecap="round"/><path d="M272.09134,170.37263l-0.27941,-0.06447l-0.53731,-0.47283l-0.27941,-0.08597" data-paper-data="{&quot;index&quot;:null}" fill="none" stroke="#ffffff" stroke-width="0.125" stroke-linecap="round"/><path d="M272.23952,170.67652l-0.57224,-0.0988" data-paper-data="{&quot;index&quot;:null}" fill="none" stroke="#ffffff" stroke-width="0.125" stroke-linecap="round"/><path d="M272.78281,171.53115l-0.44241,-0.06091" data-paper-data="{&quot;index&quot;:null}" fill="none" stroke="#ffffff" stroke-width="0.125" stroke-linecap="round"/><path d="M272.94043,171.85058l-0.25433,0.05673" data-paper-data="{&quot;index&quot;:null}" fill="none" stroke="#ffffff" stroke-width="0.125" stroke-linecap="round"/><path d="M224.89223,184.57648l25.13702,-0.90372l-26.95274,5.43151l1.75087,-3.32978z" data-paper-data="{&quot;index&quot;:null}" fill="none" stroke="#000000" stroke-width="0.25" stroke-linecap="round"/><path d="M230.43353,167.33489l-1.28467,2.33576" fill="none" stroke="#000000" stroke-width="0.25" stroke-linecap="round"/><path d="M231.32576,193.96794l-1.28467,-2.33576" data-paper-data="{&quot;index&quot;:null}" fill="none" stroke="#000000" stroke-width="0.25" stroke-linecap="round"/><path d="M254.13623,192.8088l0.5605,0.84075" fill="none" stroke="#000000" stroke-width="0.25" stroke-linecap="round"/><path d="M253.97607,168.32008l0.53285,-0.84076" data-paper-data="{&quot;index&quot;:null}" fill="none" stroke="#000000" stroke-width="0.25" stroke-linecap="round"/><path d="M250.64722,171.72299l10.78292,-2.46467l2.25928,5.03203c0,0 0.39499,4.4029 0.39499,6.46581c0,1.89339 -0.39499,5.44676 -0.39499,5.44676l-2.56737,5.7509l-10.49853,-2.38567c0,0 0.40275,-5.85653 0.40668,-8.81207c0.00397,-2.99238 -0.38299,-9.03307 -0.38299,-9.03307z" fill="#3a485a" stroke="#000000" stroke-width="0.5" stroke-linecap="round"/><path d="M231.4597,162.31746" fill="none" stroke="#000000" stroke-width="0.25" stroke-linecap="round"/><path d="M205.08854,172.06332l3.43972,0.95548" fill="none" stroke="#000000" stroke-width="0.25" stroke-linecap="round"/><path d="M205.37518,188.78416l3.53527,-0.85993" fill="none" stroke="#000000" stroke-width="0.25" stroke-linecap="round"/></g></g></svg>