<svg version="1.1" xmlns="http://www.w3.org/2000/svg" xmlns:xlink="http://www.w3.org/1999/xlink" width="72.60756" height="35.33095" viewBox="0,0,72.60756,35.33095"><g transform="translate(-203.69623,-162.33453)"><g data-paper-data="{&quot;isPaintingLayer&quot;:true}" fill-rule="nonzero" stroke="#000000" stroke-linecap="round" stroke-linejoin="miter" stroke-miterlimit="10" stroke-dasharray="" stroke-dashoffset="0" style="mix-blend-mode: normal"><path d="M205.03752,186.8296c0,0 -1.19789,-3.09612 -1.08361,-6.70943c0.11527,-3.48855 1.42987,-7.37611 1.42987,-7.37611c0,0 0.51685,-3.83738 0.68192,-4.74727c0.07041,-0.38813 0.22032,-1.05539 0.63413,-1.63712c0.43452,-0.61085 1.26813,-1.25922 1.26813,-1.25922c0,0 4.51602,-0.63716 7.39546,-0.63716c3.00266,0 9.04203,0.76899 9.04203,0.76899l31.04705,0.21421c0,0 5.36011,-0.92643 7.2756,-0.9575c1.6539,-0.02683 6.54097,0.65003 6.54097,0.65003c0,0 2.1331,0.92838 2.93484,1.38623c0.804,0.6761 1.19154,1.61285 1.19154,1.61285l1.22998,4.34482c0,0 1.42836,2.53794 1.42836,7.53613c0,4.94691 -1.50772,7.30543 -1.50772,7.30543l-1.22637,4.16304c0,0 -0.30652,1.03905 -0.91317,1.49915c-0.70568,0.5352 -3.47703,1.65273 -3.47703,1.65273c0,0 -4.12483,0.89107 -5.99621,0.90848c-1.91702,0.01784 -7.41278,-0.6709 -7.41278,-0.6709l-30.88832,-0.09338c0,0 -5.86008,0.76899 -8.95135,0.76899c-2.80616,0 -8.08318,-0.76899 -8.08318,-0.76899c0,0 -0.81662,-0.55788 -1.01559,-1.11483c-0.19344,-0.54148 -0.50888,-1.17903 -0.58341,-1.58756c-0.15343,-0.84103 -0.96112,-5.25158 -0.96112,-5.25158z" fill="#b0b0b0" stroke-width="0.5"/><path d="M243.87489,172.14188c0,0 0.7428,-1.4721 2.28972,-1.98449c1.7913,-0.59334 7.83284,-1.98369 7.83284,-1.98369c0,0 2.21744,0.28303 3.11998,3.02392c0.75051,2.27923 0.99075,6.87872 0.97406,8.71183c-0.01616,1.77602 -0.27765,6.8347 -0.94082,9.13664c-0.85485,2.96725 -2.93196,3.01765 -2.93196,3.01765c0,0 -6.38701,-1.75951 -8.01858,-2.31484c-1.79982,-0.61259 -2.32524,-1.66719 -2.32524,-1.66719z" fill="#4c5e73" stroke-width="0.5"/><path d="M252.16756,192.76174c0,0 -10.52335,0.66476 -13.74064,0.69961c-5.23155,0.05666 -14.66081,-0.392 -14.66081,-0.392c0,0 -1.26966,-0.05377 -1.73759,-0.18479c-0.35476,-0.09933 -1.26514,-0.478 -1.26514,-0.478l-0.55694,-0.77365c0,0 1.13606,-0.39779 2.54958,-0.86269c1.43186,-0.47092 3.07736,-0.93379 5.11036,-1.19869c2.86778,-0.37366 4.95246,-0.38379 7.86755,-0.23139c2.87752,0.01908 7.58431,1.03182 7.58431,1.03182c0,0 7.08696,1.71733 8.49549,2.10589c1.55113,0.4279 0.35384,0.2839 0.35384,0.2839z" fill="#4c5e73" stroke-width="0.5"/><path d="M251.62917,167.30492c-1.40854,0.38857 -8.49549,2.10589 -8.49549,2.10589c0,0 -4.70678,1.01274 -7.58431,1.03182c-2.9151,0.1524 -4.99978,0.14229 -7.86755,-0.23138c-2.033,-0.26489 -3.67851,-0.72777 -5.11036,-1.19869c-1.41352,-0.46489 -2.54958,-0.86269 -2.54958,-0.86269l0.55694,-0.77365c0,0 0.91038,-0.37867 1.26514,-0.478c0.46793,-0.13102 1.73759,-0.18479 1.73759,-0.18479c0,0 9.42926,-0.44866 14.66081,-0.392c3.21729,0.03485 13.74064,0.69961 13.74064,0.69961c0,0 1.1973,-0.14399 -0.35384,0.2839z" data-paper-data="{&quot;index&quot;:null}" fill="#4c5e73" stroke-width="0.5"/><path d="M222.26858,173.03716l-0.31297,13.99567c0,0 0.06619,0.60475 -0.54786,0.93125c-1.58467,0.8426 -5.04262,2.00828 -6.12715,2.30673c-1.42503,0.39215 -1.81448,-0.35426 -1.81448,-0.35426c0,0 -1.60262,-2.31713 -1.93489,-10.14972c0.72348,-7.85216 2.05225,-10.26704 2.05225,-10.26704c0,0 0.34148,-0.61981 1.46668,-0.35082c1.14566,0.27388 4.66633,1.68875 6.39443,2.73146c0.68458,0.41307 0.82399,1.15673 0.82399,1.15673z" fill="#4c5e73" stroke-width="0.5"/><path d="M208.21322,191.92148c0,0 -1.28178,-1.30383 -2.09252,-2.81718c-0.86733,-1.61898 -1.34698,-3.05513 -1.34698,-3.05513" fill="none" stroke-width="0.5"/><path d="M205.19318,173.1301c0,0 0.47965,-1.43615 1.34698,-3.05512c0.81075,-1.51335 2.09252,-2.81718 2.09252,-2.81718" data-paper-data="{&quot;index&quot;:null}" fill="none" stroke-width="0.5"/><path d="M255.93791,168.63079c0,0 0.37559,-0.66704 0.64839,-0.9517c0.22199,-0.23165 0.86763,-0.63023 0.86763,-0.63023c0,0 0.53074,-0.12401 1.11752,-0.0515c1.70292,0.21043 11.1268,1.06035 11.1268,1.06035c0,0 0.9428,0.30405 1.10179,0.90397c0.59812,2.25672 1.75024,8.01566 1.77475,11.1968c0.02201,2.85519 -1.37979,8.6159 -2.00242,11.12246c-0.23943,0.96388 -0.90253,0.93366 -0.90253,0.93366c0,0 -9.21092,0.63698 -10.91385,0.84741c-0.58677,0.07252 -1.11752,-0.0515 -1.11752,-0.0515c0,0 -0.64563,-0.39858 -0.86763,-0.63023c-0.2728,-0.28465 -0.64839,-0.9517 -0.64839,-0.9517" fill="none" stroke-width="0.25"/><path d="M271.69392,192.57912c0,0 -1.09889,0.57357 -1.63305,0.77388c-0.38471,0.14427 -1.14104,0.32472 -1.48044,0.34535c-0.22258,0.01353 -0.12243,-0.1134 -0.12243,-0.1134c0,0 2.10905,-0.82142 3.03713,-1.95924c0.88466,-1.08459 2.53038,-4.59258 2.53038,-4.59258c0,0 -0.74002,2.40263 -1.08709,3.33638c-0.14803,0.39827 -0.37008,0.98687 -0.62244,1.39282c-0.23809,0.383 -0.62206,0.81676 -0.62206,0.81676z" fill="#ffffff" stroke-width="0.25"/><path d="M271.84773,167.54438c0,0 0.38394,0.43376 0.62206,0.81676c0.25236,0.40595 0.47442,0.99456 0.62244,1.39282c0.34706,0.93375 1.08709,3.33638 1.08709,3.33638c0,0 -1.64572,-3.508 -2.53038,-4.59258c-0.92808,-1.13781 -3.03713,-1.95924 -3.03713,-1.95924c0,0 -0.10015,-0.12692 0.12243,-0.11338c0.3394,0.02064 1.09573,0.20109 1.48044,0.34535c0.53416,0.20031 1.63305,0.77388 1.63305,0.77388z" data-paper-data="{&quot;index&quot;:null}" fill="#ffffff" stroke-width="0.25"/><path d="M252.19053,192.59365l-0.36912,1.15349c0,0 0.31174,0.67288 0.10337,0.93449c-0.19171,0.2407 -0.56175,1.16548 -1.09855,1.63137c-0.78695,0.68301 -1.63479,1.09454 -1.63479,1.09454l-0.67671,-0.09228c0,0 -0.44282,-0.27354 -0.29807,-0.63288c0.24038,-0.59674 1.09782,-2.47385 1.09782,-2.47385c0,0 0.31198,-0.53222 0.53857,-0.64952c0.26471,-0.13701 0.90707,-0.12265 0.90707,-0.12265l0.2307,-1.15349z" fill="#b0b0b0" stroke-width="0.5"/><path d="M250.47817,167.71711l-0.2307,-1.15349c0,0 -0.64236,0.01437 -0.90707,-0.12265c-0.22659,-0.11729 -0.53857,-0.64952 -0.53857,-0.64952c0,0 -0.85743,-1.87713 -1.09782,-2.47385c-0.14475,-0.35934 0.29807,-0.63288 0.29807,-0.63288l0.67671,-0.09228c0,0 0.84784,0.41154 1.63479,1.09454c0.53679,0.46589 0.90683,1.39067 1.09855,1.63137c0.20836,0.26161 -0.10338,0.93449 -0.10338,0.93449l0.36912,1.15349z" data-paper-data="{&quot;index&quot;:null}" fill="#b0b0b0" stroke-width="0.5"/><path d="M275.82146,176.87181c0,0 -2.84927,-0.94371 -4.08169,-1.38738c-1.32428,-0.47675 -4.32596,-2.40631 -4.32596,-2.40631" fill="none" stroke-width="0.5"/><path d="M267.31127,186.91998c0,0 3.00169,-1.92958 4.32596,-2.40631c1.23242,-0.44367 4.08169,-1.38738 4.08169,-1.38738" data-paper-data="{&quot;index&quot;:null}" fill="none" stroke-width="0.5"/><path d="M261.93939,191.12031c0,0 -3.22578,1.11197 -4.87692,1.3992c-1.29607,0.22548 -4.98017,0.68758 -4.98017,0.68758" fill="none" stroke-width="0.5"/><path d="M251.57895,166.79219c0,0 3.6841,0.4621 4.98017,0.68756c1.65114,0.28724 4.87692,1.3992 4.87692,1.3992" data-paper-data="{&quot;index&quot;:null}" fill="none" stroke-width="0.5"/><path d="M207.65946,168.49362h3.05546c0,0 1.12028,0.26939 1.56884,0.48558c0.62434,0.3009 1.097,0.74481 1.097,0.74481" fill="none" stroke-width="0.25"/><path d="M213.22697,189.71783c0,0 -0.47268,0.44391 -1.097,0.74481c-0.44857,0.21618 -1.56884,0.48558 -1.56884,0.48558h-3.05546" data-paper-data="{&quot;index&quot;:null}" fill="none" stroke-width="0.25"/><path d="M221.81539,192.8027c0,0 -1.88663,0.4039 -3.77743,0.17802c-1.31856,-0.11156 -3.14057,-0.67636 -3.69618,-1.03146c-1.26414,-0.80791 -1.61019,-3.63529 -1.61019,-3.63529" fill="none" stroke-width="0.5"/><path d="M212.9737,171.29787c0,0 0.32678,-2.66996 1.52053,-3.43289c0.52468,-0.33533 2.24524,-0.86868 3.4904,-0.97404c1.78552,-0.21332 3.5671,0.1681 3.5671,0.1681" data-paper-data="{&quot;index&quot;:null}" fill="none" stroke-width="0.5"/><path d="M222.72146,165.2126l-0.3076,1.64052" fill="none" stroke-width="0.25"/><path d="M223.13158,194.84444l-0.51266,-1.84558" fill="none" stroke-width="0.25"/><path d="M227.73605,165.2249l-0.64674,0.02366c0,0 -0.75471,-0.43887 -1.19682,-0.40108c-0.66958,-0.03988 -0.57236,-0.06349 -0.98222,-0.03071c-0.531,0.04247 -1.15721,0.31348 -1.15721,0.31348l-0.74853,-0.11387c0,0 0.62547,-0.33278 1.28984,-0.4852c0.64246,-0.14739 1.31759,-0.11487 1.71456,-0.09737c0.76766,0.03383 1.72712,0.79108 1.72712,0.79108z" fill="#b0b0b0" stroke-width="0.25"/><path d="M240.40347,165.33396l-0.64674,0.02366c0,0 -0.75471,-0.43887 -1.19682,-0.40108c-0.66958,-0.03988 -0.57236,-0.06349 -0.98222,-0.03071c-0.531,0.04247 -1.1572,0.31348 -1.1572,0.31348l-0.74854,-0.11386c0,0 0.62547,-0.33278 1.28984,-0.4852c0.64246,-0.14739 1.31759,-0.11487 1.71456,-0.09737c0.76766,0.03383 1.72712,0.79108 1.72712,0.79108z" fill="#b0b0b0" stroke-width="0.25"/><path d="M227.04707,195.67862c-0.39697,0.0175 -1.0721,0.05002 -1.71456,-0.09737c-0.66437,-0.1524 -1.28984,-0.4852 -1.28984,-0.4852l0.74853,-0.11386c0,0 0.62621,0.27101 1.15721,0.31348c0.40986,0.03279 0.31264,0.00916 0.98222,-0.03071c0.44211,0.03779 1.19682,-0.40107 1.19682,-0.40107l0.64674,0.02366c0,0 -0.95946,0.75725 -1.72712,0.79108z" data-paper-data="{&quot;index&quot;:null}" fill="#afafaf" stroke-width="0.25"/><path d="M239.4838,195.68491c-0.39697,0.0175 -1.0721,0.05002 -1.71456,-0.09737c-0.66437,-0.1524 -1.28984,-0.4852 -1.28984,-0.4852l0.74854,-0.11387c0,0 0.62621,0.27101 1.1572,0.31348c0.40986,0.03279 0.31264,0.00917 0.98222,-0.03071c0.44211,0.03779 1.19682,-0.40107 1.19682,-0.40107l0.64674,0.02366c0,0 -0.95946,0.75725 -1.72712,0.79108z" data-paper-data="{&quot;index&quot;:null}" fill="#afafaf" stroke-width="0.25"/><path d="M235.72384,194.79318l-0.34605,-1.38419" fill="none" stroke-width="0.25"/><path d="M235.03176,165.49455l-0.34605,1.03814" fill="none" stroke-width="0.25"/><path d="M205.7216,190.13309c0,0 1.16647,2.10017 1.60692,2.71004c0.32055,0.44385 0.44629,0.57356 0.44629,0.57356c0,0 0.32195,0.29698 0.6757,0.50251c0.38505,0.22371 0.80776,0.3604 0.89401,0.43734c0.16773,0.14966 0.04517,0.22132 0.04517,0.22132l-1.56106,-0.65365c0,0 -0.33998,-0.26599 -0.59643,-0.57978c-0.20907,-0.25581 -0.36242,-0.5305 -0.50937,-0.8244c-0.3482,-0.6964 -1.00123,-2.38695 -1.00123,-2.38695z" fill="#650000" stroke-width="0.25"/><path d="M206.80672,167.28953c0.14694,-0.2939 0.30029,-0.56859 0.50937,-0.8244c0.25648,-0.3138 0.59643,-0.57978 0.59643,-0.57978l1.56106,-0.65365c0,0 0.12256,0.07166 -0.04517,0.22132c-0.08625,0.07695 -0.50898,0.21363 -0.89402,0.43734c-0.35375,0.20553 -0.6757,0.50251 -0.6757,0.50251c0,0 -0.12573,0.12971 -0.44628,0.57356c-0.44046,0.60986 -1.60693,2.71004 -1.60693,2.71004c0,0 0.65303,-1.69054 1.00123,-2.38695z" data-paper-data="{&quot;index&quot;:null}" fill="#670000" stroke-width="0.25"/></g></g></svg>