<svg version="1.1" xmlns="http://www.w3.org/2000/svg" xmlns:xlink="http://www.w3.org/1999/xlink" width="72.86131" height="34.64677" viewBox="0,0,72.86131,34.64677"><g transform="translate(-203.56934,-162.67661)"><g data-paper-data="{&quot;isPaintingLayer&quot;:true}" fill-rule="nonzero" stroke="#000000" stroke-linecap="round" stroke-linejoin="miter" stroke-miterlimit="10" stroke-dasharray="" stroke-dashoffset="0" style="mix-blend-mode: normal"><path d="M206.55998,186.69539c0,0 -1.17435,-3.03527 -1.06231,-6.57758c0.113,-3.41999 1.40176,-7.23116 1.40176,-7.23116c0,0 0.50669,-3.76196 0.66852,-4.65398c0.06903,-0.3805 0.21599,-1.03464 0.62166,-1.60494c0.42597,-0.59885 1.24321,-1.23448 1.24321,-1.23448c0,0 4.42728,-0.62464 7.25012,-0.62464c2.94366,0 8.86434,0.75388 8.86434,0.75388l30.43691,0.21001c0,0 5.25477,-0.90822 7.13262,-0.93869c1.6214,-0.02631 6.41244,0.63726 6.41244,0.63726c0,0 2.09119,0.91014 2.87717,1.35898c0.7882,0.66281 1.16812,1.58115 1.16812,1.58115l1.2058,4.25943c0,0 1.40029,2.48807 1.40029,7.38804c0,4.8497 -1.47809,7.16186 -1.47809,7.16186l-1.20227,4.08123c0,0 -0.3005,1.01863 -0.89523,1.46969c-0.69181,0.52468 -3.4087,1.62025 -3.4087,1.62025c0,0 -4.04377,0.87355 -5.87837,0.89063c-1.87934,0.01748 -7.26711,-0.65772 -7.26711,-0.65772l-30.28131,-0.09154c0,0 -5.74492,0.75388 -8.77544,0.75388c-2.75101,0 -7.92433,-0.75388 -7.92433,-0.75388c0,0 -0.80058,-0.54691 -0.99563,-1.09292c-0.18964,-0.53084 -0.49889,-1.15586 -0.57195,-1.55637c-0.15042,-0.82449 -0.94224,-5.14838 -0.94224,-5.14838z" fill="#3f6e59" stroke-width="0.5"/><path d="M244.55874,172.2963c0,0 0.7282,-1.44316 2.24472,-1.94549c1.75609,-0.58168 7.67892,-1.9447 7.67892,-1.9447c0,0 2.17386,0.27747 3.05866,2.9645c0.73577,2.23444 0.97128,6.74355 0.95492,8.54062c-0.01584,1.74112 -0.27219,6.70039 -0.92234,8.95709c-0.83804,2.90893 -2.87434,2.95834 -2.87434,2.95834c0,0 -6.26149,-1.72493 -7.86101,-2.26935c-1.76445,-0.60056 -2.27954,-1.63443 -2.27954,-1.63443z" fill="#4c5e73" stroke-width="0.5"/><path d="M252.76383,192.51095c0,0 -10.31655,0.6517 -13.47061,0.68586c-5.12874,0.05555 -14.37271,-0.3843 -14.37271,-0.3843c0,0 -1.24471,-0.05272 -1.70345,-0.18116c-0.34779,-0.09738 -1.24027,-0.46861 -1.24027,-0.46861l-0.54599,-0.75845c0,0 1.11373,-0.38997 2.49948,-0.84574c1.40372,-0.46166 3.01689,-0.91544 5.00994,-1.17513c2.81142,-0.36633 4.85513,-0.37625 7.71294,-0.22684c2.82098,0.0187 7.43526,1.01154 7.43526,1.01154c0,0 6.94768,1.68357 8.32854,2.0645c1.52064,0.41949 0.34688,0.27833 0.34688,0.27833z" fill="#4c5e73" stroke-width="0.5"/><path d="M252.23602,167.55441c-1.38086,0.38093 -8.32854,2.0645 -8.32854,2.0645c0,0 -4.61428,0.99285 -7.43526,1.01154c-2.85781,0.1494 -4.90152,0.13949 -7.71294,-0.22684c-1.99305,-0.25969 -3.60622,-0.71347 -5.00994,-1.17513c-1.38574,-0.45576 -2.49948,-0.84574 -2.49948,-0.84574l0.54599,-0.75845c0,0 0.89249,-0.37123 1.24027,-0.46861c0.45875,-0.12845 1.70345,-0.18116 1.70345,-0.18116c0,0 9.24396,-0.43984 14.37271,-0.3843c3.15407,0.03416 13.47061,0.68586 13.47061,0.68586c0,0 1.17377,-0.14116 -0.34688,0.27833z" data-paper-data="{&quot;index&quot;:null}" fill="#4c5e73" stroke-width="0.5"/><path d="M223.45242,173.174l-0.30682,13.72063c0,0 0.06489,0.59287 -0.5371,0.91296c-1.55352,0.82603 -4.94353,1.96881 -6.00674,2.2614c-1.39703,0.38444 -1.77882,-0.34729 -1.77882,-0.34729c0,0 -1.57112,-2.2716 -1.89686,-9.95025c0.70926,-7.69785 2.01192,-10.06527 2.01192,-10.06527c0,0 0.33477,-0.60763 1.43785,-0.34392c1.12315,0.26851 4.57463,1.65556 6.26877,2.67778c0.67112,0.40495 0.80781,1.13399 0.80781,1.13399z" fill="#4c5e73" stroke-width="0.5"/><path d="M209.67327,191.6872c0,0 -1.25659,-1.27821 -2.0514,-2.76181c-0.85029,-1.58716 -1.32051,-2.9951 -1.32051,-2.9951" fill="none" stroke-width="0.5"/><path d="M206.71258,173.2651c0,0 0.47022,-1.40792 1.32051,-2.99508c0.79481,-1.48361 2.0514,-2.76181 2.0514,-2.76181" data-paper-data="{&quot;index&quot;:null}" fill="none" stroke-width="0.5"/><path d="M256.46008,168.85421c0,0 0.36821,-0.65393 0.63565,-0.933c0.21764,-0.2271 0.85057,-0.61785 0.85057,-0.61785c0,0 0.52031,-0.12158 1.09556,-0.05049c1.66947,0.2063 10.90814,1.03951 10.90814,1.03951c0,0 0.92427,0.29808 1.08014,0.88621c0.58636,2.21238 1.71585,7.85814 1.73988,10.97676c0.02158,2.79908 -1.35267,8.44658 -1.96307,10.90388c-0.23473,0.94494 -0.88479,0.91531 -0.88479,0.91531c0,0 -9.02991,0.62446 -10.69937,0.83076c-0.57525,0.07109 -1.09556,-0.05049 -1.09556,-0.05049c0,0 -0.63294,-0.39075 -0.85057,-0.61785c-0.26743,-0.27906 -0.63565,-0.933 -0.63565,-0.933" fill="none" stroke-width="0.25"/><path d="M271.90647,192.33191c0,0 -1.07729,0.5623 -1.60095,0.75868c-0.37715,0.14143 -1.11862,0.31834 -1.45135,0.33856c-0.21822,0.01326 -0.12003,-0.11117 -0.12003,-0.11117c0,0 2.06761,-0.80528 2.97744,-1.92073c0.86727,-1.06327 2.48065,-4.50233 2.48065,-4.50233c0,0 -0.72548,2.35541 -1.06572,3.27082c-0.14513,0.39044 -0.3628,0.96748 -0.61021,1.36545c-0.23342,0.37547 -0.60983,0.80071 -0.60983,0.80071z" fill="#ffffff" stroke-width="0.25"/><path d="M272.05725,167.78915c0,0 0.3764,0.42524 0.60983,0.80071c0.2474,0.39797 0.46509,0.97501 0.61021,1.36545c0.34024,0.91541 1.06572,3.27082 1.06572,3.27082c0,0 -1.61337,-3.43906 -2.48066,-4.50233c-0.90984,-1.11545 -2.97744,-1.92073 -2.97744,-1.92073c0,0 -0.09818,-0.12442 0.12003,-0.11116c0.33274,0.02023 1.0742,0.19713 1.45135,0.33856c0.52366,0.19638 1.60095,0.75868 1.60095,0.75868z" data-paper-data="{&quot;index&quot;:null}" fill="#ffffff" stroke-width="0.25"/><path d="M252.78634,192.34616l-0.36186,1.13082c0,0 0.30561,0.65966 0.10134,0.91613c-0.18794,0.23597 -0.55071,1.14258 -1.07696,1.59931c-0.77148,0.66958 -1.60266,1.07303 -1.60266,1.07303l-0.66341,-0.09047c0,0 -0.43412,-0.26816 -0.29222,-0.62044c0.23566,-0.58502 1.07624,-2.42524 1.07624,-2.42524c0,0 0.30585,-0.52176 0.52799,-0.63675c0.25951,-0.13432 0.88924,-0.12024 0.88924,-0.12024l0.22616,-1.13082z" fill="#333333" stroke-width="0.5"/><path d="M251.10765,167.95849l-0.22616,-1.13082c0,0 -0.62973,0.01408 -0.88924,-0.12024c-0.22214,-0.11499 -0.52799,-0.63675 -0.52799,-0.63675c0,0 -0.84058,-1.84023 -1.07624,-2.42524c-0.14192,-0.35227 0.29222,-0.62044 0.29222,-0.62044l0.66341,-0.09047c0,0 0.83118,0.40345 1.60266,1.07303c0.52624,0.45673 0.88902,1.36334 1.07696,1.59931c0.20428,0.25647 -0.10135,0.91613 -0.10135,0.91613l0.36186,1.13082z" data-paper-data="{&quot;index&quot;:null}" fill="#333333" stroke-width="0.5"/><path d="M275.95288,176.93329c0,0 -2.79328,-0.92517 -4.00148,-1.36012c-1.29826,-0.46737 -4.24095,-2.35903 -4.24095,-2.35903" fill="none" stroke-width="0.5"/><path d="M267.60994,186.78399c0,0 2.9427,-1.89165 4.24095,-2.35903c1.2082,-0.43495 4.00148,-1.36012 4.00148,-1.36012" data-paper-data="{&quot;index&quot;:null}" fill="none" stroke-width="0.5"/><path d="M262.34362,190.90177c0,0 -3.16239,1.09011 -4.78108,1.3717c-1.2706,0.22105 -4.88229,0.67406 -4.88229,0.67406" fill="none" stroke-width="0.5"/><path d="M252.18679,167.05175c0,0 3.6117,0.45301 4.88229,0.67405c1.61869,0.28159 4.78108,1.3717 4.78108,1.3717" data-paper-data="{&quot;index&quot;:null}" fill="none" stroke-width="0.5"/><path d="M209.1304,168.71974h2.99542c0,0 1.09826,0.2641 1.53801,0.47604c0.61206,0.29499 1.07545,0.73018 1.07545,0.73018" fill="none" stroke-width="0.25"/><path d="M214.58849,189.52686c0,0 -0.46338,0.43519 -1.07545,0.73018c-0.43975,0.21194 -1.53801,0.47604 -1.53801,0.47604h-2.99542" data-paper-data="{&quot;index&quot;:null}" fill="none" stroke-width="0.25"/><path d="M223.00814,192.55111c0,0 -1.84956,0.39597 -3.7032,0.17452c-1.29266,-0.10937 -3.07886,-0.66307 -3.62355,-1.01119c-1.2393,-0.79204 -1.57855,-3.56385 -1.57855,-3.56385" fill="none" stroke-width="0.5"/><path d="M214.3402,171.46888c0,0 0.32036,-2.61749 1.49065,-3.36543c0.51437,-0.32873 2.20112,-0.85161 3.4218,-0.95489c1.75043,-0.20912 3.497,0.16479 3.497,0.16479" data-paper-data="{&quot;index&quot;:null}" fill="none" stroke-width="0.5"/><path d="M223.8964,165.50319l-0.30156,1.60828" fill="none" stroke-width="0.25"/><path d="M224.29846,194.55272l-0.50258,-1.80931" fill="none" stroke-width="0.25"/><path d="M228.81245,165.51526l-0.63404,0.02319c0,0 -0.73988,-0.43025 -1.1733,-0.3932c-0.65642,-0.0391 -0.56112,-0.06224 -0.96292,-0.03011c-0.52056,0.04163 -1.13447,0.30732 -1.13447,0.30732l-0.73382,-0.11163c0,0 0.61318,-0.32625 1.26449,-0.47566c0.62984,-0.14449 1.2917,-0.11261 1.68087,-0.09546c0.75258,0.03316 1.69318,0.77553 1.69318,0.77553z" fill="#3e6e59" stroke-width="0.25"/><path d="M241.23093,165.62217l-0.63404,0.02319c0,0 -0.73988,-0.43025 -1.1733,-0.3932c-0.65642,-0.0391 -0.56112,-0.06224 -0.96292,-0.03011c-0.52056,0.04163 -1.13445,0.30732 -1.13445,0.30732l-0.73383,-0.11163c0,0 0.61318,-0.32625 1.26449,-0.47566c0.62984,-0.14449 1.2917,-0.11261 1.68087,-0.09546c0.75258,0.03316 1.69318,0.77553 1.69318,0.77553z" fill="#3e6e59" stroke-width="0.25"/><path d="M228.13702,195.3705c-0.38917,0.01715 -1.05103,0.04903 -1.68087,-0.09546c-0.65132,-0.14941 -1.26449,-0.47566 -1.26449,-0.47566l0.73382,-0.11163c0,0 0.6139,0.26569 1.13447,0.30732c0.4018,0.03214 0.3065,0.00898 0.96292,-0.03011c0.43342,0.03705 1.1733,-0.39319 1.1733,-0.39319l0.63404,0.02319c0,0 -0.9406,0.74237 -1.69318,0.77553z" data-paper-data="{&quot;index&quot;:null}" fill="#3f6e59" stroke-width="0.25"/><path d="M240.32933,195.37667c-0.38917,0.01715 -1.05103,0.04903 -1.68087,-0.09546c-0.65132,-0.14941 -1.26449,-0.47566 -1.26449,-0.47566l0.73383,-0.11163c0,0 0.6139,0.26569 1.13445,0.30732c0.4018,0.03214 0.3065,0.00899 0.96292,-0.03011c0.43342,0.03705 1.1733,-0.39319 1.1733,-0.39319l0.63404,0.02319c0,0 -0.9406,0.74237 -1.69318,0.77553z" data-paper-data="{&quot;index&quot;:null}" fill="#3f6e59" stroke-width="0.25"/><path d="M236.30402,193.14549l0.33925,1.35698" fill="none" stroke-width="0.25"/><path d="M235.96477,165.77961l-0.33925,1.01774" fill="none" stroke-width="0.25"/><path d="M207.23061,189.93395c0,0 1.14355,2.0589 1.57534,2.65678c0.31425,0.43513 0.43752,0.56229 0.43752,0.56229c0,0 0.31562,0.29114 0.66243,0.49264c0.37747,0.21932 0.79189,0.35331 0.87644,0.42876c0.16443,0.14671 0.04428,0.21696 0.04428,0.21696l-1.53038,-0.6408c0,0 -0.33329,-0.26076 -0.58472,-0.56839c-0.20497,-0.25079 -0.3553,-0.52008 -0.49936,-0.8082c-0.34136,-0.68272 -0.98155,-2.34004 -0.98155,-2.34004z" fill="#650000" stroke-width="0.25"/><path d="M208.29441,167.53932c0.14406,-0.28812 0.29439,-0.55741 0.49936,-0.8082c0.25143,-0.30763 0.58472,-0.56839 0.58472,-0.56839l1.53038,-0.6408c0,0 0.12015,0.07025 -0.04428,0.21696c-0.08455,0.07544 -0.49897,0.20944 -0.87645,0.42876c-0.3468,0.20149 -0.66243,0.49264 -0.66243,0.49264c0,0 -0.12326,0.12716 -0.43751,0.56229c-0.4318,0.59788 -1.57535,2.65678 -1.57535,2.65678c0,0 0.6402,-1.65732 0.98155,-2.34004z" data-paper-data="{&quot;index&quot;:null}" fill="#670000" stroke-width="0.25"/><path d="M266.75032,172.15158c0,0 -1.76473,-0.86941 -2.24843,-1.23642c-0.23061,-0.17497 -0.55859,-0.57615 -0.68409,-0.77783c-0.1007,-0.16181 -0.02269,-0.14687 -0.02269,-0.14687c0,0 0.62735,-0.01118 1.01261,0.07452c0.39033,0.08684 0.86204,0.30744 0.86204,0.30744c0,0 0.38154,0.32204 0.6388,0.67924c0.25935,0.3601 0.39463,0.75593 0.43705,0.89357c0.07937,0.25753 0.00471,0.20636 0.00471,0.20636z" fill="#333333" stroke-width="0.5"/><path d="M266.53685,187.94566c-0.04241,0.13763 -0.1777,0.53347 -0.43705,0.89357c-0.25727,0.3572 -0.6388,0.67923 -0.6388,0.67923c0,0 -0.4717,0.2206 -0.86204,0.30744c-0.38527,0.0857 -1.01261,0.07452 -1.01261,0.07452c0,0 -0.07801,0.01495 0.02269,-0.14687c0.1255,-0.20169 0.45349,-0.60287 0.68409,-0.77783c0.48369,-0.36701 2.24843,-1.23642 2.24843,-1.23642c0,0 0.07466,-0.05117 -0.0047,0.20637z" data-paper-data="{&quot;index&quot;:null}" fill="#333333" stroke-width="0.5"/><path d="M205.03897,170.80246l2.11034,-1.11071l1.90054,-0.54301c0,0 1.28184,-0.23656 1.67674,-0.10565c0.35851,0.11886 0.33488,0.85846 0.33488,0.85846l-0.85153,0.6911c0,0 -0.7287,0.34181 -1.17244,0.48299c-0.34649,0.11024 -1.09834,0.81283 -1.09834,0.81283c0,0 -1.41555,5.17707 -1.43209,7.78829c-0.01637,2.58413 1.33335,7.7986 1.33335,7.7986c0,0 0.73051,0.82325 1.16736,1.05428c0.41797,0.22105 1.31321,0.47602 1.31321,0.47602c0,0 0.83205,0.30556 0.81291,0.69706c-0.02468,0.50492 -0.51672,0.95666 -0.51672,0.95666l-1.83884,-0.08639l-1.62903,-0.56769l-2.19672,-1.61669c0,0 -1.18746,-5.70975 -1.13131,-8.62354c0.0589,-3.05661 1.21769,-8.96262 1.21769,-8.96262z" fill="#333333" stroke-width="0.5"/></g></g></svg>