<svg version="1.1" xmlns="http://www.w3.org/2000/svg" xmlns:xlink="http://www.w3.org/1999/xlink" width="36.3078" height="40.45804" viewBox="0,0,36.3078,40.45804"><g transform="translate(-221.38453,-157.23427)"><g data-paper-data="{&quot;isPaintingLayer&quot;:true}" fill-rule="nonzero" stroke-linecap="butt" stroke-linejoin="miter" stroke-miterlimit="10" stroke-dasharray="" stroke-dashoffset="0" style="mix-blend-mode: normal"><path d="M222.30771,197.69231v-35.38462h35.38462v35.38462z" fill="#2fc4ff" stroke="none" stroke-width="0"/><g><path d="M250.06016,196.47232c-1.84936,1.11688 -7.28287,-4.6561 -7.28287,-4.6561c0,0 -6.33139,4.7765 -7.96613,3.36223c-1.63615,-1.41421 2.17721,-8.36787 2.17721,-8.36787c0,0 -6.49819,-4.54584 -5.65838,-6.53733c0.83981,-1.99301 8.63041,-0.51494 8.63041,-0.51494c0,0 2.31355,-7.5846 4.46751,-7.40327c2.15689,0.18274 3.15916,8.0502 3.15916,8.0502c0,0 7.9284,-0.1436 8.41867,1.96249c0.4946,2.10468 -6.67806,5.49012 -6.67806,5.49012c0,0 2.58622,7.4976 0.73248,8.61448z" fill="#ffff00" stroke="#000000" stroke-width="1.28786"/><path d="M246.45859,190.97061c-0.93121,0.56134 -3.66249,-2.34109 -3.66249,-2.34109c0,0 -3.1809,2.40055 -4.0019,1.68981c-0.82094,-0.71074 1.09368,-4.2035 1.09368,-4.2035c0,0 -3.26357,-2.28602 -2.84296,-3.28536c0.42213,-1.00087 4.33551,-0.2582 4.33551,-0.2582c0,0 1.16333,-3.8119 2.24682,-3.71904c1.08207,0.09134 1.58394,4.04397 1.58394,4.04397c0,0 3.98597,-0.07113 4.23251,0.98628c0.24953,1.05888 -3.3535,2.75883 -3.3535,2.75883c0,0 1.29674,3.76696 0.36841,4.3283z" fill-opacity="0.55686" fill="#ffffff" stroke="none" stroke-width="2.57572"/></g><text transform="translate(221.62725,178.35052) scale(0.48543,0.48543)" font-size="40" xml:space="preserve" fill="#ffb566" fill-rule="nonzero" stroke="none" stroke-width="1" stroke-linecap="butt" stroke-linejoin="miter" stroke-miterlimit="10" stroke-dasharray="" stroke-dashoffset="0" font-family="Sans Serif" font-weight="normal" text-anchor="start" style="mix-blend-mode: normal"><tspan x="0" dy="0">100</tspan></text></g></g></svg>