<svg version="1.1" xmlns="http://www.w3.org/2000/svg" xmlns:xlink="http://www.w3.org/1999/xlink" width="72.22036" height="38.78414" viewBox="0,0,72.22036,38.78414"><g transform="translate(-203.82701,-160.60792)"><g data-paper-data="{&quot;isPaintingLayer&quot;:true}" fill-rule="nonzero" stroke-width="0.25" stroke-linecap="round" stroke-linejoin="miter" stroke-miterlimit="10" stroke-dasharray="" stroke-dashoffset="0" style="mix-blend-mode: normal"><path d="M207.30314,194.89661c0,0 -1.33568,-1.12879 -1.77871,-2.98258c-0.43994,-1.84092 -1.14156,-4.38042 -1.44852,-6.81288c-0.24049,-1.90565 -0.14349,-3.7456 -0.12391,-5.13254c0.02807,-1.98732 -0.021,-4.37177 0.40504,-6.54265c0.35352,-1.80128 1.14937,-3.41711 1.54049,-4.88615c0.33156,-1.24535 1.82841,-3.57113 1.82841,-3.57113c0,0 2.06816,-0.48793 3.6293,-0.68804c2.00274,-0.25671 3.71709,-0.22032 4.96786,0.00655c1.56037,0.28304 3.6728,0.7077 3.6728,0.7077c0,0 12.07328,-0.48947 18.00034,-0.48947c5.7845,0 17.14477,0.48947 17.14477,0.48947c0,0 3.20247,-0.4564 6.15852,-0.83332c2.38205,-0.30373 4.72901,-0.12505 6.1739,0.07117c2.24523,0.3049 4.93185,1.25163 4.93185,1.25163c0,0 2.48404,1.99968 2.99029,4.64893c0.49731,1.99487 0.51219,4.25491 0.52682,5.87421c0.02086,2.30782 0.04121,5.23117 0.02907,7.95497c-0.00704,1.58144 -0.37488,4.06624 -0.82961,5.784c-0.7476,2.82414 -2.99844,5.08893 -2.99844,5.08893c0,0 -2.62086,0.67935 -4.60876,0.90586c-1.42016,0.15112 -4.41201,0.16297 -6.83961,-0.02721c-3.07422,-0.24084 -5.93922,-0.40665 -5.93922,-0.40665c0,0 -11.13798,0.45026 -16.83799,0.43019c-5.88022,-0.0207 -17.91956,-0.55255 -17.91956,-0.55255c0,0 -2.12389,0.22815 -3.65365,0.47304c-1.20879,0.19351 -2.77569,0.25594 -5.0838,0.00467c-1.85081,-0.20148 -3.93769,-0.76617 -3.93769,-0.76617z" fill="#56c0e0" stroke="#000000"/><path d="M273.9196,173.08371c0,0 -0.52821,-0.4287 -0.73191,-0.81912c-0.18995,-0.36406 -0.55057,-1.25259 -0.55057,-1.25259l-1.57845,-4.14342c0,0 0.15958,-0.2656 0.3981,-0.24969c0.25378,0.01692 0.68708,0.05238 0.68708,0.05238c0,0 1.02269,2.002 1.37485,2.92432c0.33781,0.88476 0.69686,2.50159 0.69686,2.50159z" data-paper-data="{&quot;index&quot;:null}" fill="#455050" stroke="#000000"/><path d="M272.12399,168.64763l-0.45933,-1.16139" fill="none" stroke="#ffffff"/><path d="M272.64859,170.05174l0.42019,1.11963" fill="none" stroke="#ffffff"/><path d="M272.04571,167.22786l0.6081,1.34409" fill="none" stroke="#ffffff"/><path d="M273.67688,171.51065l-0.49588,-1.55809" fill="none" stroke="#ffffff"/><path d="M274.01824,188.30541c0,0 -0.35905,1.61684 -0.69686,2.50159c-0.35216,0.92232 -1.37485,2.92432 -1.37485,2.92432c0,0 -0.4333,0.03547 -0.68708,0.05238c-0.23852,0.0159 -0.3981,-0.24969 -0.3981,-0.24969l1.57845,-4.14342c0,0 0.36064,-0.88853 0.55057,-1.25259c0.2037,-0.39044 0.73191,-0.81912 0.73191,-0.81912z" data-paper-data="{&quot;index&quot;:null}" fill="#455050" stroke="#000000"/><path d="M271.46736,192.91634l0.45933,-1.16139" data-paper-data="{&quot;index&quot;:null}" fill="none" stroke="#ffffff"/><path d="M272.45129,190.35084l0.42019,-1.11963" data-paper-data="{&quot;index&quot;:null}" fill="none" stroke="#ffffff"/><path d="M272.4565,191.83064l-0.6081,1.34409" data-paper-data="{&quot;index&quot;:null}" fill="none" stroke="#ffffff"/><path d="M273.47958,188.89193l-0.49588,1.5581" data-paper-data="{&quot;index&quot;:null}" fill="none" stroke="#ffffff"/><path d="M273.85061,173.08902c0,0 0.29692,1.45905 0.44973,3.10746c0.12712,1.37117 0.11652,2.85435 0.10297,3.91306c-0.01321,1.03257 -0.02962,2.57031 -0.18365,3.91098c-0.20112,1.75064 -0.54993,3.20875 -0.54993,3.20875" fill="none" stroke="#000000"/><path d="M270.94766,192.7612l-11.3758,0.26906c0,0 -0.60869,-0.00231 -0.76346,-0.19103c-0.13735,-0.16747 -0.38883,-0.39192 -0.38883,-0.39192" fill="none" stroke="#000000"/><path d="M258.71493,167.82678c0,0 0.25149,-0.22446 0.38884,-0.39193c0.15476,-0.18872 0.76345,-0.19102 0.76345,-0.19102l11.3758,0.26906" data-paper-data="{&quot;index&quot;:null}" fill="none" stroke="#000000"/><path d="M248.65535,171.08817c0,0 3.86289,-1.07275 5.5186,-1.71445c1.4747,-0.57156 3.93564,-1.94981 3.93564,-1.94981c0,0 0.52052,0.20236 0.87233,0.9359c0.45857,0.95616 0.72069,2.47801 1.01006,4.03701c0.45913,2.47356 0.2303,5.36419 0.2045,7.7389c-0.02297,2.11231 -0.11211,5.2898 -0.63019,7.95434c-0.34704,1.7849 -0.60747,3.08149 -0.95161,3.88806c-0.22178,0.51981 -0.54033,0.81839 -0.54033,0.81839c0,0 -2.13188,-1.38139 -3.73204,-1.90815c-1.58083,-0.52039 -5.62647,-1.81776 -5.62647,-1.81776c0,0 0.45454,-5.63869 0.49285,-8.93179c0.03591,-3.08636 -0.55334,-9.05064 -0.55334,-9.05064z" fill="#203756" stroke="#000000"/><path d="M231.95952,169.42361c0,0 -3.6943,-0.0838 -5.41936,-0.38237c-1.69435,-0.29326 -4.41775,-0.82965 -4.41775,-0.82965c0,0 -0.10043,-0.20081 0.35765,-0.34854c0.98698,-0.31831 3.1294,-0.74955 4.33465,-0.92508c2.03064,-0.37509 5.48304,-0.71353 5.48304,-0.71353c0,0 6.06421,-0.06622 9.5985,-0.10404c4.75173,-0.04536 14.47282,0.63958 14.47282,0.63958c0,0 -0.9693,0.65784 -1.98563,1.0748c-1.41456,0.58034 -5.77977,1.72977 -5.77977,1.72977z" fill="#203756" stroke="#000000"/><path d="M248.57901,190.51017c0,0 4.3652,1.14944 5.77977,1.72977c1.01633,0.41696 1.98563,1.0748 1.98563,1.0748c0,0 -9.72108,0.68493 -14.47282,0.63958c-3.53429,-0.03782 -9.5985,-0.10404 -9.5985,-0.10404c0,0 -3.4524,-0.33845 -5.48304,-0.71353c-1.20525,-0.17552 -3.34768,-0.60677 -4.33465,-0.92508c-0.45808,-0.14773 -0.35765,-0.34854 -0.35765,-0.34854c0,0 2.7234,-0.5364 4.41775,-0.82965c1.72506,-0.29857 5.41936,-0.38237 5.41936,-0.38237z" data-paper-data="{&quot;index&quot;:null}" fill="#203756" stroke="#000000"/><path d="M253.32669,166.6067l-0.24663,-1.4798" fill="none" stroke="#000000"/><path d="M253.28558,193.61294l-0.16443,1.60311" fill="none" stroke="#000000"/><path d="M217.91545,190.28341c0,0 -7.43268,-0.59057 -8.71365,-0.73485c-0.36237,-0.04081 -0.69734,-0.32518 -0.69734,-0.32518c0,0 -0.53722,-2.67453 -0.5232,-4.76906c0.01211,-1.81278 -0.17627,-5.64664 0.00956,-8.80072c0.17416,-2.95598 0.72365,-4.96956 0.72365,-4.96956c0,0 0.28287,-0.2884 0.73472,-0.33059c1.38353,-0.1292 8.59406,-0.54052 8.59406,-0.54052c0,0 -1.06457,6.90302 -1.0858,10.30347c-0.02137,3.42291 0.95802,10.16701 0.95802,10.16701z" fill="#203756" stroke="#000000"/><path d="M218.05826,169.81292c0,0 0.36067,0.00353 0.53607,0.04215c0.16903,0.03721 0.34611,0.41317 0.34611,0.41317c0,0 -0.26984,2.36749 -0.38147,4.74602c-0.10368,2.2092 -0.05002,4.41753 -0.04279,5.01022c0.01027,0.84238 -0.00515,1.8367 0.07873,2.95951c0.23898,3.19908 0.3645,6.4457 0.3645,6.4457c0,0 -0.19777,0.63616 -0.44238,0.68063c-0.19731,0.03587 -0.45878,0.1731 -0.45878,0.1731" fill="none" stroke="#000000"/><path d="M205.74718,169.65771l2.42664,0.08788c0,0 0.35092,0.2102 0.42126,0.2946c0.06646,0.07976 0.19391,0.36876 0.19391,0.36876" fill="none" stroke="#000000"/><path d="M208.51994,189.47799c0,0 -0.12744,0.28901 -0.19391,0.36876c-0.07033,0.0844 -0.42126,0.2946 -0.42126,0.2946l-2.42664,0.08788" data-paper-data="{&quot;index&quot;:null}" fill="none" stroke="#000000"/><path d="M250.89899,163.9759l0.30143,1.49349c0,0 -0.46767,0.0921 -0.68859,0.08383c-0.20494,-0.00768 -0.59253,-0.13179 -0.59253,-0.13179c0,0 -0.11098,-0.67661 -0.26448,-0.9636c-0.16126,-0.30148 -0.68094,-0.80393 -0.68094,-0.80393c0,0 0.60219,0.21282 0.95817,0.25675c0.34716,0.04283 0.96694,0.06525 0.96694,0.06525z" fill="#000000" stroke="#000000"/><path d="M248.55623,163.30161l-0.68298,-2.50427c0,0 0.80461,-0.11759 1.22237,-0.06538c0.38977,0.04872 1.13013,0.5207 1.13013,0.5207c0,0 0.58295,0.93847 0.76025,1.33106c0.17685,0.39158 0.30217,1.24908 0.30217,1.24908c0,0 -0.89299,0.19559 -1.35256,0.09218c-0.5394,-0.12138 -1.37937,-0.62339 -1.37937,-0.62339z" fill="#56c0e0" stroke="#000000"/><path d="M250.25591,196.14319c-0.35598,0.04392 -0.95817,0.25675 -0.95817,0.25675c0,0 0.51968,-0.50246 0.68094,-0.80393c0.15351,-0.28699 0.26448,-0.9636 0.26448,-0.9636c0,0 0.39051,-0.12423 0.59611,-0.13193c0.2204,-0.00825 0.685,0.08397 0.685,0.08397l-0.30143,1.49349c0,0 -0.61978,0.02241 -0.96694,0.06525z" data-paper-data="{&quot;index&quot;:null}" fill="#000000" stroke="#000000"/><path d="M250.20466,196.07404c0.45958,-0.10341 1.35255,0.09218 1.35255,0.09218c0,0 -0.12533,0.85751 -0.30216,1.24908c-0.1773,0.39259 -0.76025,1.33106 -0.76025,1.33106c0,0 -0.74036,0.47197 -1.13013,0.5207c-0.41775,0.05222 -1.22237,-0.06538 -1.22237,-0.06538l0.68298,-2.50427c0,0 0.83996,-0.50201 1.37937,-0.62339z" data-paper-data="{&quot;index&quot;:null}" fill="#56c0e0" stroke="#000000"/><path d="M273.26862,185.70442l-11.92056,1.4798" fill="none" stroke="#000000"/><path d="M273.18641,174.27712l-11.59172,-1.80865" fill="none" stroke="#000000"/><path d="M272.87739,179.95903l0.32455,-0.00504c0,0 0.1343,0.10554 0.12594,0.1664c-0.00835,0.06086 -0.11625,0.14118 -0.11625,0.14118h-0.32939z" fill="#000000" stroke="#252525"/><path d="M225.24804,195.14286l-0.50591,-1.40076c0,0 0.0578,-0.32681 0.1532,-0.44946c0.07824,-0.1006 0.41912,-0.31572 0.41912,-0.31572" fill="none" stroke="#000000"/><path d="M225.40351,167.06102c0,0 -0.34089,-0.21513 -0.41912,-0.31572c-0.0954,-0.12266 -0.1532,-0.44947 -0.1532,-0.44947l0.50591,-1.40074" data-paper-data="{&quot;index&quot;:null}" fill="none" stroke="#000000"/><path d="M226.82548,166.04383l0.39461,-0.43846l1.65518,-0.14251l0.53711,0.24116" fill="none" stroke="#000000"/><path d="M238.37884,164.71749l0.36172,1.29345" fill="none" stroke="#000000"/><path d="M239.90248,165.5944l0.39461,-0.42749h1.19481l0.76729,0.3398" fill="none" stroke="#000000"/><path d="M229.27145,194.3713l-0.53711,0.24116l-1.65518,-0.14251l-0.39461,-0.43846" data-paper-data="{&quot;index&quot;:null}" fill="none" stroke="#000000"/><path d="M238.59964,194.06439l-0.36172,1.29345" data-paper-data="{&quot;index&quot;:null}" fill="none" stroke="#000000"/><path d="M242.11826,194.56862l-0.76729,0.3398h-1.19481l-0.39461,-0.42749" data-paper-data="{&quot;index&quot;:null}" fill="none" stroke="#000000"/><path d="M221.71746,166.77589l-11.69742,1.40932" fill="none" stroke="#000000"/><path d="M222.28119,193.41217l-12.54301,-1.55026" fill="none" stroke="#000000"/></g></g></svg>