<svg version="1.1" xmlns="http://www.w3.org/2000/svg" xmlns:xlink="http://www.w3.org/1999/xlink" width="160.72972" height="97.58141" viewBox="0,0,160.72972,97.58141"><g transform="translate(-159.65033,-130.15886)"><g data-paper-data="{&quot;isPaintingLayer&quot;:true}" fill-rule="nonzero" stroke-linejoin="miter" stroke-miterlimit="10" stroke-dasharray="" stroke-dashoffset="0" style="mix-blend-mode: normal"><path d="M159.65033,227.74027v-95.48052h160.69945v95.48052z" fill="#59ad0d" stroke="none" stroke-width="0" stroke-linecap="butt"/><text transform="translate(160.19697,146.78761) scale(0.38227,0.38227)" font-size="40" xml:space="preserve" fill="#ffffff" fill-rule="nonzero" stroke="none" stroke-width="1" stroke-linecap="butt" stroke-linejoin="miter" stroke-miterlimit="10" stroke-dasharray="" stroke-dashoffset="0" font-family="Sans Serif" font-weight="normal" text-anchor="start" style="mix-blend-mode: normal"><tspan x="0" dy="0">Lamborghini Huracan</tspan></text><g><path d="M170.17472,160.08091c0,0 0.63394,-1.73106 0.95443,-2.35344c0.32527,-0.63165 1.48307,-1.40906 1.48307,-1.40906c0,0 2.95398,-1.05693 4.49041,-1.44706c1.40562,-0.35691 4.3707,-0.80294 4.3707,-0.80294c0,0 2.29265,0.23073 3.30619,0.45246c0.98546,0.21559 2.69319,0.86003 2.69319,0.86003c0,0 26.82916,0.24431 30.47435,0.23809c0.49098,-0.00084 1.90288,-0.40617 2.47677,-0.6379c0.94889,-0.38315 1.68338,-0.46097 3.0982,-0.6886c1.3915,-0.22387 4.32189,0.51573 4.32189,0.51573l6.48896,2.43441l2.88571,5.3c0,0 0.4,3.55842 0.4,5.3c0,1.75825 -0.4,5.2 -0.4,5.2l-3.22532,5.77857l-6.26637,2.90265c0,0 -2.69313,0.58617 -4.20131,0.34438c-1.42534,-0.22851 -3.01916,-0.81973 -3.01916,-0.81973c0,0 -1.66388,-0.49249 -2.24221,-0.49262c-3.2401,-0.00071 -30.96807,0.21525 -30.96807,0.21525c0,0 -1.95639,0.69522 -2.8408,0.86867c-0.83623,0.164 -2.99589,0.25637 -2.99589,0.25637c0,0 -2.97667,-0.27521 -4.37536,-0.7148c-1.50952,-0.47442 -4.48576,-1.47965 -4.48576,-1.47965c0,0 -0.99346,-0.73887 -1.38442,-1.39858c-0.38342,-0.64699 -0.93919,-2.52226 -0.93919,-2.52226l-0.82223,-1.26666l-0.01111,-13.43333z" fill="#f8f8f8" stroke="#000000" stroke-width="0.5" stroke-linecap="round"/><path d="M189.03883,172.92081l-2.33361,4.44509l-12.04166,-1.31945l-0.66666,-1.33333l-1.41667,-1.08334l-0.08333,-11.25l1.25,-1.08333l0.58333,-1.16667l12.22222,-1.30555l2.48636,4.20877z" fill="#191919" stroke="#000000" stroke-width="0.5" stroke-linecap="round"/><path d="M190.77744,158.681l-0.52857,-0.59524c0,0 16.17498,-1.20319 21.37996,-1.37001c5.19499,-0.16651 9.99861,0.07239 9.99861,0.07239l-9.51964,2.15178c0,0 -4.28878,0.57186 -6.54735,0.68882c-2.53649,0.13136 -7.93479,0.06118 -7.93479,0.06118z" fill="#3a4758" stroke="#000000" stroke-width="0.5" stroke-linecap="round"/><path d="M197.80259,176.57548c0,0 5.3983,-0.07018 7.93479,0.06118c2.25857,0.11696 6.54735,0.68882 6.54735,0.68882l9.51965,2.15178c0,0 -4.80362,0.2389 -9.99861,0.07239c-5.20498,-0.16682 -21.46329,-1.29309 -21.46329,-1.29309l0.61191,-0.67216z" data-paper-data="{&quot;index&quot;:null}" fill="#3a4758" stroke="#000000" stroke-width="0.5" stroke-linecap="round"/><path d="M224.05903,157.16054c0,0 3.45828,0.72763 7.58137,2.27871c4.1067,2.34141 4.85197,3.02129 4.85197,3.02129" fill="none" stroke="#000000" stroke-width="0.25" stroke-linecap="round"/><path d="M236.32569,173.30637c0,0 -0.99527,1.05488 -5.10197,3.39629c-4.12309,1.55108 -7.58137,2.27871 -7.58137,2.27871" data-paper-data="{&quot;index&quot;:null}" fill="none" stroke="#000000" stroke-width="0.25" stroke-linecap="round"/><path d="M232.24355,157.08316l1.67857,0.63095l1.83334,3.08334l-0.05953,0.52381c0,0 -1.067,-1.1955 -1.57239,-1.86679c-0.53283,-0.70774 -1.87999,-2.37131 -1.87999,-2.37131z" fill="#808080" stroke="#000000" stroke-width="0.25" stroke-linecap="round"/><path d="M233.78426,176.58388c0.5054,-0.67129 1.57239,-1.86679 1.57239,-1.86679l0.05953,0.52381l-1.83333,3.08333l-1.67857,0.63095c0,0 1.34716,-1.66357 1.87999,-2.37131z" data-paper-data="{&quot;index&quot;:null}" fill="#808080" stroke="#000000" stroke-width="0.25" stroke-linecap="round"/><path d="M189.05729,163.05241l-1.97413,-3.47682l25.88259,5.0924l-23.92368,-0.8601z" fill="none" stroke="#000000" stroke-width="0.25" stroke-linecap="round"/><path d="M232.72718,174.16203l-5.5,-0.625" fill="none" stroke="#000000" stroke-width="0.25" stroke-linecap="round"/><path d="M227.22718,161.84953l5.5,-0.625" data-paper-data="{&quot;index&quot;:null}" fill="none" stroke="#000000" stroke-width="0.25" stroke-linecap="round"/><path d="M236.22542,168.0544c0,0 -0.13728,0.19059 -0.2596,0.22991c-0.16123,0.05183 -0.43443,0.02247 -0.43443,0.02247c0,0 -0.0225,-0.19449 -0.01757,-0.28315c0.00552,-0.09939 0.01757,-0.25314 0.01757,-0.25314c0,0 0.30828,0.00329 0.46269,0.08335c0.12158,0.06304 0.23133,0.20057 0.23133,0.20057z" fill="#000000" stroke="#8a7100" stroke-width="0.25" stroke-linecap="round"/><path d="M190.77275,158.6502l-2.08334,-2.25l2.66667,-0.25" fill="none" stroke="#000000" stroke-width="0.5" stroke-linecap="round"/><path d="M191.5315,180.0593l-2.66667,-0.25l2.08334,-2.25" data-paper-data="{&quot;index&quot;:null}" fill="none" stroke="#000000" stroke-width="0.5" stroke-linecap="round"/><path d="M175.46833,173.24946v-10.05882l13.55052,0.50486l-0.1175,8.24583z" fill="#3a4758" stroke="#000000" stroke-width="0.5" stroke-linecap="butt"/><path d="M173.91058,161.55085l1.46153,1.53846" fill="none" stroke="#000000" stroke-width="0.5" stroke-linecap="round"/><path d="M175.3721,173.24317l-1.15384,1.15384" fill="none" stroke="#000000" stroke-width="0.5" stroke-linecap="round"/><path d="M184.65671,159.67647l1.93354,3.12341" fill="none" stroke="#000000" stroke-width="0.5" stroke-linecap="round"/><path d="M182.47837,159.89146l1.86685,3.01571" fill="none" stroke="#000000" stroke-width="0.5" stroke-linecap="round"/><path d="M180.42088,160.19949l1.53344,2.47712" fill="none" stroke="#000000" stroke-width="0.5" stroke-linecap="round"/><path d="M178.25726,160.337l1.40008,2.26169" fill="none" stroke="#000000" stroke-width="0.5" stroke-linecap="round"/><path d="M177.14064,162.30855l-0.99999,-1.61539" fill="none" stroke="#000000" stroke-width="0.5" stroke-linecap="round"/><path d="M186.64743,173.04588l-2.06689,3.33884" data-paper-data="{&quot;index&quot;:null}" fill="none" stroke="#000000" stroke-width="0.5" stroke-linecap="round"/><path d="M184.20237,173.24636l-1.93353,3.12342" data-paper-data="{&quot;index&quot;:null}" fill="none" stroke="#000000" stroke-width="0.5" stroke-linecap="round"/><path d="M180.21135,176.12842l1.6668,-2.69255" data-paper-data="{&quot;index&quot;:null}" fill="none" stroke="#000000" stroke-width="0.5" stroke-linecap="round"/><path d="M179.64784,173.52917l-1.40008,2.26169" data-paper-data="{&quot;index&quot;:null}" fill="none" stroke="#000000" stroke-width="0.25" stroke-linecap="round"/><path d="M175.99779,175.5014l0.99999,-1.61539" data-paper-data="{&quot;index&quot;:null}" fill="none" stroke="#000000" stroke-width="0.5" stroke-linecap="round"/><path d="M214.27578,155.37012l0.64549,-0.98976l-0.59103,-0.09806l-0.63169,-2.36882c0,0 0.95182,0.0469 1.32433,0.41352c0.46283,0.45551 1.13566,1.95333 1.13566,1.95333l-0.37355,0.17407l-0.58617,0.92896z" fill="#f8f8f8" stroke="#000000" stroke-width="0.25" stroke-linecap="round"/><path d="M214.77447,180.75917l0.58617,0.92896l0.37356,0.17408c0,0 -0.67283,1.49782 -1.13566,1.95333c-0.37251,0.36662 -1.32433,0.41352 -1.32433,0.41352l0.63169,-2.36883l0.59103,-0.09805l-0.64549,-0.98976z" data-paper-data="{&quot;index&quot;:null}" fill="#f8f8f8" stroke="#000000" stroke-width="0.25" stroke-linecap="round"/><path d="M232.70968,178.25836l0.26592,-0.08182l0.51137,-0.45001l0.26592,-0.06137" fill="none" stroke="#ffffff" stroke-width="0.125" stroke-linecap="round"/><path d="M233.3493,177.46998l0.54461,-0.09403" fill="none" stroke="#ffffff" stroke-width="0.125" stroke-linecap="round"/><path d="M233.98994,176.62053l0.42105,-0.05797" fill="none" stroke="#ffffff" stroke-width="0.125" stroke-linecap="round"/><path d="M234.31894,176.20455l0.24205,0.05399" fill="none" stroke="#ffffff" stroke-width="0.125" stroke-linecap="round"/><path d="M234.10367,159.44548c-0.53283,-0.70774 -1.87999,-2.37131 -1.87999,-2.37131l1.67857,0.63095l1.83333,3.08333l-0.05953,0.52381c0,0 -1.06699,-1.1955 -1.57239,-1.86679z" data-paper-data="{&quot;index&quot;:null}" fill="#808080" stroke="#000000" stroke-width="0.25" stroke-linecap="round"/><path d="M234.07229,158.36419l-0.26592,-0.06136l-0.51137,-0.45001l-0.26592,-0.08182" data-paper-data="{&quot;index&quot;:null}" fill="none" stroke="#ffffff" stroke-width="0.125" stroke-linecap="round"/><path d="M233.6687,158.55936l0.54462,0.09403" data-paper-data="{&quot;index&quot;:null}" fill="none" stroke="#ffffff" stroke-width="0.125" stroke-linecap="round"/><path d="M234.30934,159.40881l0.42105,0.05797" data-paper-data="{&quot;index&quot;:null}" fill="none" stroke="#ffffff" stroke-width="0.125" stroke-linecap="round"/><path d="M234.8804,159.7708l-0.24205,0.05399" data-paper-data="{&quot;index&quot;:null}" fill="none" stroke="#ffffff" stroke-width="0.125" stroke-linecap="round"/><path d="M189.15143,171.88243l23.92368,-0.8601l-25.65176,5.16934l1.66636,-3.16905z" data-paper-data="{&quot;index&quot;:null}" fill="none" stroke="#000000" stroke-width="0.25" stroke-linecap="round"/><path d="M193.2026,157.6961l1.22266,-2.22302" fill="none" stroke="#000000" stroke-width="0.25" stroke-linecap="round"/><path d="M194.05176,178.59755l1.22266,2.22302" data-paper-data="{&quot;index&quot;:null}" fill="none" stroke="#000000" stroke-width="0.25" stroke-linecap="round"/><path d="M217.51731,180.51756l-0.53345,-0.80017" fill="none" stroke="#000000" stroke-width="0.25" stroke-linecap="round"/><path d="M216.83143,156.41071l0.50713,-0.80018" data-paper-data="{&quot;index&quot;:null}" fill="none" stroke="#000000" stroke-width="0.25" stroke-linecap="round"/><path d="M213.66326,159.64936l10.26244,-2.3457l2.15023,4.78914c0,0 0.37592,4.19037 0.37592,6.15371c0,1.802 -0.37592,5.18385 -0.37592,5.18385l-2.44344,5.47331l-9.99178,-2.27052c0,0 0.38331,-5.57384 0.38705,-8.38672c0.00378,-2.84794 -0.3645,-8.59706 -0.3645,-8.59706z" fill="#3a485a" stroke="#000000" stroke-width="0.5" stroke-linecap="round"/><path d="M195.4019,150.69783" fill="none" stroke="#000000" stroke-width="0.25" stroke-linecap="round"/><path d="M173.57734,160.88262l-3.27369,-0.90936" fill="none" stroke="#000000" stroke-width="0.25" stroke-linecap="round"/><path d="M170.57646,175.88701l3.36462,-0.81842" fill="none" stroke="#000000" stroke-width="0.25" stroke-linecap="round"/></g><g><path d="M189.73939,202.18274c0,0 0.63394,-1.73106 0.95443,-2.35344c0.32527,-0.63165 1.48307,-1.40906 1.48307,-1.40906c0,0 2.95398,-1.05693 4.49041,-1.44706c1.40562,-0.35691 4.3707,-0.80294 4.3707,-0.80294c0,0 2.29265,0.23073 3.30619,0.45246c0.98546,0.21559 2.69319,0.86003 2.69319,0.86003c0,0 26.82916,0.24431 30.47435,0.23809c0.49098,-0.00084 1.90288,-0.40617 2.47677,-0.6379c0.94889,-0.38315 1.68338,-0.46097 3.0982,-0.6886c1.3915,-0.22387 4.32189,0.51573 4.32189,0.51573l6.48896,2.43441l2.88571,5.3c0,0 0.4,3.55842 0.4,5.3c0,1.75825 -0.4,5.2 -0.4,5.2l-3.22532,5.77857l-6.26637,2.90265c0,0 -2.69313,0.58617 -4.20131,0.34438c-1.42534,-0.22851 -3.01916,-0.81973 -3.01916,-0.81973c0,0 -1.66388,-0.49249 -2.24221,-0.49262c-3.2401,-0.00071 -30.96807,0.21525 -30.96807,0.21525c0,0 -1.95639,0.69522 -2.8408,0.86867c-0.83623,0.164 -2.99589,0.25637 -2.99589,0.25637c0,0 -2.97667,-0.27521 -4.37536,-0.7148c-1.50952,-0.47442 -4.48576,-1.47965 -4.48576,-1.47965c0,0 -0.99346,-0.73887 -1.38442,-1.39858c-0.38342,-0.64699 -0.93919,-2.52226 -0.93919,-2.52226l-0.82223,-1.26666l-0.01111,-13.43333z" fill="#f3df00" stroke="#000000" stroke-width="0.5" stroke-linecap="round"/><path d="M208.6035,215.02264l-2.33361,4.44509l-12.04166,-1.31945l-0.66666,-1.33333l-1.41667,-1.08334l-0.08333,-11.25l1.25,-1.08333l0.58333,-1.16667l12.22222,-1.30555l2.48636,4.20877z" fill="#191919" stroke="#000000" stroke-width="0.5" stroke-linecap="round"/><path d="M210.34211,200.78282l-0.52857,-0.59524c0,0 16.17498,-1.20319 21.37996,-1.37001c5.19499,-0.16651 9.99861,0.07239 9.99861,0.07239l-9.51964,2.15178c0,0 -4.28878,0.57186 -6.54735,0.68882c-2.53649,0.13136 -7.93479,0.06118 -7.93479,0.06118z" fill="#3a4758" stroke="#000000" stroke-width="0.5" stroke-linecap="round"/><path d="M217.36726,218.6773c0,0 5.3983,-0.07018 7.93479,0.06118c2.25857,0.11696 6.54735,0.68882 6.54735,0.68882l9.51965,2.15178c0,0 -4.80362,0.2389 -9.99861,0.07239c-5.20498,-0.16682 -21.46329,-1.29309 -21.46329,-1.29309l0.61191,-0.67216z" data-paper-data="{&quot;index&quot;:null}" fill="#3a4758" stroke="#000000" stroke-width="0.5" stroke-linecap="round"/><path d="M243.6237,199.26237c0,0 3.45828,0.72763 7.58137,2.27871c4.1067,2.34141 4.85197,3.02129 4.85197,3.02129" fill="none" stroke="#000000" stroke-width="0.25" stroke-linecap="round"/><path d="M255.89036,215.4082c0,0 -0.99527,1.05488 -5.10197,3.39629c-4.12309,1.55108 -7.58137,2.27871 -7.58137,2.27871" data-paper-data="{&quot;index&quot;:null}" fill="none" stroke="#000000" stroke-width="0.25" stroke-linecap="round"/><path d="M251.80822,199.18499l1.67857,0.63095l1.83334,3.08334l-0.05953,0.52381c0,0 -1.067,-1.1955 -1.57239,-1.86679c-0.53283,-0.70774 -1.87999,-2.37131 -1.87999,-2.37131z" fill="#808080" stroke="#000000" stroke-width="0.25" stroke-linecap="round"/><path d="M253.34893,218.6857c0.5054,-0.67129 1.57239,-1.86679 1.57239,-1.86679l0.05953,0.52381l-1.83333,3.08333l-1.67857,0.63095c0,0 1.34716,-1.66357 1.87999,-2.37131z" data-paper-data="{&quot;index&quot;:null}" fill="#808080" stroke="#000000" stroke-width="0.25" stroke-linecap="round"/><path d="M208.62196,205.15423l-1.97413,-3.47682l25.88259,5.0924l-23.92368,-0.8601z" fill="none" stroke="#000000" stroke-width="0.25" stroke-linecap="round"/><path d="M252.29185,216.26386l-5.5,-0.625" fill="none" stroke="#000000" stroke-width="0.25" stroke-linecap="round"/><path d="M252.29185,203.32636l-5.5,0.625" data-paper-data="{&quot;index&quot;:null}" fill="none" stroke="#000000" stroke-width="0.25" stroke-linecap="round"/><path d="M255.79009,210.15623c0,0 -0.13728,0.19059 -0.2596,0.22991c-0.16123,0.05183 -0.43443,0.02247 -0.43443,0.02247c0,0 -0.0225,-0.19449 -0.01757,-0.28315c0.00552,-0.09939 0.01757,-0.25314 0.01757,-0.25314c0,0 0.30828,0.00329 0.46269,0.08335c0.12158,0.06304 0.23133,0.20057 0.23133,0.20057z" fill="#000000" stroke="#8a7100" stroke-width="0.25" stroke-linecap="round"/><path d="M210.33742,200.75203l-2.08334,-2.25l2.66667,-0.25" fill="none" stroke="#000000" stroke-width="0.5" stroke-linecap="round"/><path d="M211.09617,222.16112l-2.66667,-0.25l2.08334,-2.25" data-paper-data="{&quot;index&quot;:null}" fill="none" stroke="#000000" stroke-width="0.5" stroke-linecap="round"/><path d="M195.033,215.35128v-10.05882l13.55052,0.50486l-0.1175,8.24583z" fill="#3a4758" stroke="#000000" stroke-width="0.5" stroke-linecap="butt"/><path d="M193.47525,203.65268l1.46153,1.53846" fill="none" stroke="#000000" stroke-width="0.5" stroke-linecap="round"/><path d="M194.93677,215.34499l-1.15384,1.15384" fill="none" stroke="#000000" stroke-width="0.5" stroke-linecap="round"/><path d="M206.15492,204.90171l-1.93354,-3.12341" fill="none" stroke="#000000" stroke-width="0.5" stroke-linecap="round"/><path d="M202.04304,201.99328l1.86685,3.01571" fill="none" stroke="#000000" stroke-width="0.5" stroke-linecap="round"/><path d="M199.98555,202.30132l1.53344,2.47712" fill="none" stroke="#000000" stroke-width="0.5" stroke-linecap="round"/><path d="M197.82193,202.43883l1.40008,2.26169" fill="none" stroke="#000000" stroke-width="0.5" stroke-linecap="round"/><path d="M195.70532,202.79498l0.99999,1.61539" fill="none" stroke="#000000" stroke-width="0.5" stroke-linecap="round"/><path d="M204.14521,218.48654l2.06689,-3.33884" data-paper-data="{&quot;index&quot;:null}" fill="none" stroke="#000000" stroke-width="0.5" stroke-linecap="round"/><path d="M203.76704,215.34818l-1.93353,3.12342" data-paper-data="{&quot;index&quot;:null}" fill="none" stroke="#000000" stroke-width="0.5" stroke-linecap="round"/><path d="M199.77602,218.23024l1.6668,-2.69255" data-paper-data="{&quot;index&quot;:null}" fill="none" stroke="#000000" stroke-width="0.5" stroke-linecap="round"/><path d="M199.21251,215.63099l-1.40008,2.26169" data-paper-data="{&quot;index&quot;:null}" fill="none" stroke="#000000" stroke-width="0.25" stroke-linecap="round"/><path d="M196.56245,215.98783l-0.99999,1.61539" data-paper-data="{&quot;index&quot;:null}" fill="none" stroke="#000000" stroke-width="0.5" stroke-linecap="round"/><path d="M233.84045,197.47195l0.64549,-0.98976l-0.59103,-0.09806l-0.63169,-2.36882c0,0 0.95182,0.0469 1.32433,0.41352c0.46283,0.45551 1.13566,1.95333 1.13566,1.95333l-0.37355,0.17407l-0.58617,0.92896z" fill="#f3df00" stroke="#000000" stroke-width="0.25" stroke-linecap="round"/><path d="M234.33914,222.86099l0.58617,0.92896l0.37356,0.17408c0,0 -0.67283,1.49782 -1.13566,1.95333c-0.37251,0.36662 -1.32433,0.41352 -1.32433,0.41352l0.63169,-2.36883l0.59103,-0.09805l-0.64549,-0.98976z" data-paper-data="{&quot;index&quot;:null}" fill="#f3df00" stroke="#000000" stroke-width="0.25" stroke-linecap="round"/><path d="M252.27435,220.36018l0.26592,-0.08182l0.51137,-0.45001l0.26592,-0.06137" fill="none" stroke="#ffffff" stroke-width="0.125" stroke-linecap="round"/><path d="M253.45858,219.47777l-0.54461,0.09403" fill="none" stroke="#ffffff" stroke-width="0.125" stroke-linecap="round"/><path d="M253.55461,218.72235l0.42105,-0.05797" fill="none" stroke="#ffffff" stroke-width="0.125" stroke-linecap="round"/><path d="M253.88361,218.30638l0.24205,0.05399" fill="none" stroke="#ffffff" stroke-width="0.125" stroke-linecap="round"/><path d="M253.66834,201.5473c-0.53283,-0.70774 -1.87999,-2.37131 -1.87999,-2.37131l1.67857,0.63095l1.83333,3.08333l-0.05953,0.52381c0,0 -1.06699,-1.1955 -1.57239,-1.86679z" data-paper-data="{&quot;index&quot;:null}" fill="#808080" stroke="#000000" stroke-width="0.25" stroke-linecap="round"/><path d="M253.63696,200.46601l-0.26592,-0.06136l-0.51137,-0.45001l-0.26592,-0.08182" data-paper-data="{&quot;index&quot;:null}" fill="none" stroke="#ffffff" stroke-width="0.125" stroke-linecap="round"/><path d="M253.23337,200.66119l0.54462,0.09403" data-paper-data="{&quot;index&quot;:null}" fill="none" stroke="#ffffff" stroke-width="0.125" stroke-linecap="round"/><path d="M254.29506,201.56861l-0.42105,-0.05797" data-paper-data="{&quot;index&quot;:null}" fill="none" stroke="#ffffff" stroke-width="0.125" stroke-linecap="round"/><path d="M254.44507,201.87262l-0.24205,0.05399" data-paper-data="{&quot;index&quot;:null}" fill="none" stroke="#ffffff" stroke-width="0.125" stroke-linecap="round"/><path d="M208.7161,213.98425l23.92368,-0.8601l-25.65176,5.16934l1.66636,-3.16905z" data-paper-data="{&quot;index&quot;:null}" fill="none" stroke="#000000" stroke-width="0.25" stroke-linecap="round"/><path d="M213.98993,197.5749l-1.22266,2.22302" fill="none" stroke="#000000" stroke-width="0.25" stroke-linecap="round"/><path d="M213.61643,220.69938l1.22266,2.22302" data-paper-data="{&quot;index&quot;:null}" fill="none" stroke="#000000" stroke-width="0.25" stroke-linecap="round"/><path d="M237.08198,222.61938l-0.53345,-0.80017" fill="none" stroke="#000000" stroke-width="0.25" stroke-linecap="round"/><path d="M236.3961,198.51254l0.50713,-0.80018" data-paper-data="{&quot;index&quot;:null}" fill="none" stroke="#000000" stroke-width="0.25" stroke-linecap="round"/><path d="M233.22793,201.75118l10.26244,-2.3457l2.15023,4.78914c0,0 0.37592,4.19037 0.37592,6.15371c0,1.802 -0.37592,5.18385 -0.37592,5.18385l-2.44344,5.47331l-9.99178,-2.27052c0,0 0.38331,-5.57384 0.38705,-8.38672c0.00378,-2.84794 -0.3645,-8.59706 -0.3645,-8.59706z" fill="#3a485a" stroke="#000000" stroke-width="0.5" stroke-linecap="round"/><path d="M214.96657,192.79965" fill="none" stroke="#000000" stroke-width="0.25" stroke-linecap="round"/><path d="M189.86832,202.07509l3.27369,0.90936" fill="none" stroke="#000000" stroke-width="0.25" stroke-linecap="round"/><path d="M190.14113,217.98883l3.36462,-0.81842" fill="none" stroke="#000000" stroke-width="0.25" stroke-linecap="round"/></g><g><path d="M249.38306,170.46142c0,0 0.63394,-1.73106 0.95443,-2.35344c0.32527,-0.63165 1.48307,-1.40906 1.48307,-1.40906c0,0 2.95398,-1.05693 4.49041,-1.44706c1.40562,-0.35691 4.3707,-0.80294 4.3707,-0.80294c0,0 2.29265,0.23073 3.30619,0.45246c0.98546,0.21559 2.69319,0.86003 2.69319,0.86003c0,0 26.82916,0.24431 30.47435,0.23809c0.49098,-0.00084 1.90288,-0.40617 2.47677,-0.6379c0.94889,-0.38315 1.68338,-0.46097 3.0982,-0.6886c1.3915,-0.22387 4.32189,0.51573 4.32189,0.51573l6.48896,2.43441l2.88571,5.3c0,0 0.4,3.55842 0.4,5.3c0,1.75825 -0.4,5.2 -0.4,5.2l-3.22532,5.77857l-6.26637,2.90265c0,0 -2.69313,0.58617 -4.20131,0.34438c-1.42534,-0.22851 -3.01916,-0.81973 -3.01916,-0.81973c0,0 -1.66388,-0.49249 -2.24221,-0.49262c-3.2401,-0.00071 -30.96807,0.21525 -30.96807,0.21525c0,0 -1.95639,0.69522 -2.8408,0.86867c-0.83623,0.164 -2.99589,0.25637 -2.99589,0.25637c0,0 -2.97667,-0.27521 -4.37536,-0.7148c-1.50952,-0.47442 -4.48576,-1.47965 -4.48576,-1.47965c0,0 -0.99346,-0.73887 -1.38442,-1.39858c-0.38342,-0.64699 -0.93919,-2.52226 -0.93919,-2.52226l-0.82223,-1.26666l-0.01111,-13.43333z" fill="#bf0000" stroke="#000000" stroke-width="0.5" stroke-linecap="round"/><path d="M268.24717,183.30132l-2.33361,4.44509l-12.04166,-1.31945l-0.66666,-1.33333l-1.41667,-1.08334l-0.08333,-11.25l1.25,-1.08333l0.58333,-1.16667l12.22222,-1.30555l2.48636,4.20877z" fill="#191919" stroke="#000000" stroke-width="0.5" stroke-linecap="round"/><path d="M269.98578,169.0615l-0.52857,-0.59524c0,0 16.17498,-1.20319 21.37996,-1.37001c5.19499,-0.16651 9.99861,0.07239 9.99861,0.07239l-9.51964,2.15178c0,0 -4.28878,0.57186 -6.54735,0.68882c-2.53649,0.13136 -7.93479,0.06118 -7.93479,0.06118z" fill="#3a4758" stroke="#000000" stroke-width="0.5" stroke-linecap="round"/><path d="M277.01093,186.95598c0,0 5.3983,-0.07018 7.93479,0.06118c2.25857,0.11696 6.54735,0.68882 6.54735,0.68882l9.51965,2.15178c0,0 -4.80362,0.2389 -9.99861,0.07239c-5.20498,-0.16682 -21.46329,-1.29309 -21.46329,-1.29309l0.61191,-0.67216z" data-paper-data="{&quot;index&quot;:null}" fill="#3a4758" stroke="#000000" stroke-width="0.5" stroke-linecap="round"/><path d="M303.26737,167.54105c0,0 3.45828,0.72763 7.58137,2.27871c4.1067,2.34141 4.85197,3.02129 4.85197,3.02129" fill="none" stroke="#000000" stroke-width="0.25" stroke-linecap="round"/><path d="M315.53403,183.68688c0,0 -0.99527,1.05488 -5.10197,3.39629c-4.12309,1.55108 -7.58137,2.27871 -7.58137,2.27871" data-paper-data="{&quot;index&quot;:null}" fill="none" stroke="#000000" stroke-width="0.25" stroke-linecap="round"/><path d="M311.45189,167.46367l1.67857,0.63095l1.83334,3.08334l-0.05953,0.52381c0,0 -1.067,-1.1955 -1.57239,-1.86679c-0.53283,-0.70774 -1.87999,-2.37131 -1.87999,-2.37131z" fill="#808080" stroke="#000000" stroke-width="0.25" stroke-linecap="round"/><path d="M312.9926,186.96438c0.5054,-0.67129 1.57239,-1.86679 1.57239,-1.86679l0.05953,0.52381l-1.83333,3.08333l-1.67857,0.63095c0,0 1.34716,-1.66357 1.87999,-2.37131z" data-paper-data="{&quot;index&quot;:null}" fill="#808080" stroke="#000000" stroke-width="0.25" stroke-linecap="round"/><path d="M268.26563,173.43291l-1.97413,-3.47682l25.88259,5.0924l-23.92368,-0.8601z" fill="none" stroke="#000000" stroke-width="0.25" stroke-linecap="round"/><path d="M306.43552,183.91754l5.5,0.625" fill="none" stroke="#000000" stroke-width="0.25" stroke-linecap="round"/><path d="M306.43552,172.23004l5.5,-0.625" data-paper-data="{&quot;index&quot;:null}" fill="none" stroke="#000000" stroke-width="0.25" stroke-linecap="round"/><path d="M315.43376,178.43491c0,0 -0.13728,0.19059 -0.2596,0.22991c-0.16123,0.05183 -0.43443,0.02247 -0.43443,0.02247c0,0 -0.0225,-0.19449 -0.01757,-0.28315c0.00552,-0.09939 0.01757,-0.25314 0.01757,-0.25314c0,0 0.30828,0.00329 0.46269,0.08335c0.12158,0.06304 0.23133,0.20057 0.23133,0.20057z" fill="#000000" stroke="#8a7100" stroke-width="0.25" stroke-linecap="round"/><path d="M269.98109,169.03071l-2.08334,-2.25l2.66667,-0.25" fill="none" stroke="#000000" stroke-width="0.5" stroke-linecap="round"/><path d="M270.73984,190.4398l-2.66667,-0.25l2.08334,-2.25" data-paper-data="{&quot;index&quot;:null}" fill="none" stroke="#000000" stroke-width="0.5" stroke-linecap="round"/><path d="M254.67667,183.62996v-10.05882l13.55052,0.50486l-0.1175,8.24583z" fill="#3a4758" stroke="#000000" stroke-width="0.5" stroke-linecap="butt"/><path d="M253.11892,171.93136l1.46153,1.53846" fill="none" stroke="#000000" stroke-width="0.5" stroke-linecap="round"/><path d="M254.58044,183.62367l-1.15384,1.15384" fill="none" stroke="#000000" stroke-width="0.5" stroke-linecap="round"/><path d="M263.86505,170.05698l1.93354,3.12341" fill="none" stroke="#000000" stroke-width="0.5" stroke-linecap="round"/><path d="M261.68671,170.27196l1.86685,3.01571" fill="none" stroke="#000000" stroke-width="0.5" stroke-linecap="round"/><path d="M259.62922,170.58l1.53344,2.47712" fill="none" stroke="#000000" stroke-width="0.5" stroke-linecap="round"/><path d="M257.4656,170.71751l1.40008,2.26169" fill="none" stroke="#000000" stroke-width="0.5" stroke-linecap="round"/><path d="M256.34898,172.68905l-0.99999,-1.61539" fill="none" stroke="#000000" stroke-width="0.5" stroke-linecap="round"/><path d="M265.85577,183.42638l-2.06689,3.33884" data-paper-data="{&quot;index&quot;:null}" fill="none" stroke="#000000" stroke-width="0.5" stroke-linecap="round"/><path d="M263.41071,183.62686l-1.93353,3.12342" data-paper-data="{&quot;index&quot;:null}" fill="none" stroke="#000000" stroke-width="0.5" stroke-linecap="round"/><path d="M259.41969,186.50892l1.6668,-2.69255" data-paper-data="{&quot;index&quot;:null}" fill="none" stroke="#000000" stroke-width="0.5" stroke-linecap="round"/><path d="M258.85618,183.90967l-1.40008,2.26169" data-paper-data="{&quot;index&quot;:null}" fill="none" stroke="#000000" stroke-width="0.25" stroke-linecap="round"/><path d="M255.20613,185.8819l0.99999,-1.61539" data-paper-data="{&quot;index&quot;:null}" fill="none" stroke="#000000" stroke-width="0.5" stroke-linecap="round"/><path d="M293.48412,165.75063l0.64549,-0.98976l-0.59103,-0.09806l-0.63169,-2.36882c0,0 0.95182,0.0469 1.32433,0.41352c0.46283,0.45551 1.13566,1.95333 1.13566,1.95333l-0.37355,0.17407l-0.58617,0.92896z" fill="#bf0000" stroke="#000000" stroke-width="0.25" stroke-linecap="round"/><path d="M293.98281,191.13967l0.58617,0.92896l0.37356,0.17408c0,0 -0.67283,1.49782 -1.13566,1.95333c-0.37251,0.36662 -1.32433,0.41352 -1.32433,0.41352l0.63169,-2.36883l0.59103,-0.09805l-0.64549,-0.98976z" data-paper-data="{&quot;index&quot;:null}" fill="#bf0000" stroke="#000000" stroke-width="0.25" stroke-linecap="round"/><path d="M311.91802,188.63886l0.26592,-0.08182l0.51137,-0.45001l0.26592,-0.06137" fill="none" stroke="#ffffff" stroke-width="0.125" stroke-linecap="round"/><path d="M312.55764,187.85048l0.54461,-0.09403" fill="none" stroke="#ffffff" stroke-width="0.125" stroke-linecap="round"/><path d="M313.19828,187.00103l0.42105,-0.05797" fill="none" stroke="#ffffff" stroke-width="0.125" stroke-linecap="round"/><path d="M313.52728,186.58506l0.24205,0.05399" fill="none" stroke="#ffffff" stroke-width="0.125" stroke-linecap="round"/><path d="M313.31201,169.82598c-0.53283,-0.70774 -1.87999,-2.37131 -1.87999,-2.37131l1.67857,0.63095l1.83333,3.08333l-0.05953,0.52381c0,0 -1.06699,-1.1955 -1.57239,-1.86679z" data-paper-data="{&quot;index&quot;:null}" fill="#808080" stroke="#000000" stroke-width="0.25" stroke-linecap="round"/><path d="M313.28063,168.74469l-0.26592,-0.06136l-0.51137,-0.45001l-0.26592,-0.08182" data-paper-data="{&quot;index&quot;:null}" fill="none" stroke="#ffffff" stroke-width="0.125" stroke-linecap="round"/><path d="M312.87704,168.93987l0.54462,0.09403" data-paper-data="{&quot;index&quot;:null}" fill="none" stroke="#ffffff" stroke-width="0.125" stroke-linecap="round"/><path d="M313.93873,169.84729l-0.42105,-0.05797" data-paper-data="{&quot;index&quot;:null}" fill="none" stroke="#ffffff" stroke-width="0.125" stroke-linecap="round"/><path d="M314.08874,170.1513l-0.24205,0.05399" data-paper-data="{&quot;index&quot;:null}" fill="none" stroke="#ffffff" stroke-width="0.125" stroke-linecap="round"/><path d="M268.35977,182.26293l23.92368,-0.8601l-25.65176,5.16934l1.66636,-3.16905z" data-paper-data="{&quot;index&quot;:null}" fill="none" stroke="#000000" stroke-width="0.25" stroke-linecap="round"/><path d="M273.6336,165.85358l-1.22266,2.22302" fill="none" stroke="#000000" stroke-width="0.25" stroke-linecap="round"/><path d="M273.2601,188.97806l1.22266,2.22302" data-paper-data="{&quot;index&quot;:null}" fill="none" stroke="#000000" stroke-width="0.25" stroke-linecap="round"/><path d="M296.72565,190.89806l-0.53345,-0.80017" fill="none" stroke="#000000" stroke-width="0.25" stroke-linecap="round"/><path d="M296.03977,166.79122l0.50713,-0.80018" data-paper-data="{&quot;index&quot;:null}" fill="none" stroke="#000000" stroke-width="0.25" stroke-linecap="round"/><path d="M292.8716,170.02986l10.26244,-2.3457l2.15023,4.78914c0,0 0.37592,4.19037 0.37592,6.15371c0,1.802 -0.37592,5.18385 -0.37592,5.18385l-2.44344,5.47331l-9.99178,-2.27052c0,0 0.38331,-5.57384 0.38705,-8.38672c0.00378,-2.84794 -0.3645,-8.59706 -0.3645,-8.59706z" fill="#3a485a" stroke="#000000" stroke-width="0.5" stroke-linecap="round"/><path d="M274.61024,161.07833" fill="none" stroke="#000000" stroke-width="0.25" stroke-linecap="round"/><path d="M249.51199,170.35377l3.27369,0.90936" fill="none" stroke="#000000" stroke-width="0.25" stroke-linecap="round"/><path d="M249.7848,186.26751l3.36462,-0.81842" fill="none" stroke="#000000" stroke-width="0.25" stroke-linecap="round"/></g></g></g></svg>