<svg version="1.1" xmlns="http://www.w3.org/2000/svg" xmlns:xlink="http://www.w3.org/1999/xlink" width="72.52878" height="38.94928" viewBox="0,0,72.52878,38.94928"><g transform="translate(-203.67279,-160.52536)"><g data-paper-data="{&quot;isPaintingLayer&quot;:true}" fill-rule="nonzero" stroke-width="0.25" stroke-linecap="round" stroke-linejoin="miter" stroke-miterlimit="10" stroke-dasharray="" stroke-dashoffset="0" style="mix-blend-mode: normal"><path d="M207.16329,194.96045c0,0 -1.3414,-1.13362 -1.78634,-2.99537c-0.44183,-1.84881 -1.14644,-4.39919 -1.45473,-6.84208c-0.24152,-1.91382 -0.1441,-3.76166 -0.12444,-5.15453c0.0282,-1.99584 -0.02109,-4.39051 0.40678,-6.57069c0.35503,-1.80901 1.15429,-3.43175 1.54708,-4.90709c0.33298,-1.25068 1.83625,-3.58643 1.83625,-3.58643c0,0 2.07703,-0.49002 3.64486,-0.69099c2.01132,-0.25781 3.73302,-0.22127 4.98914,0.00658c1.56705,0.28425 3.68854,0.71074 3.68854,0.71074c0,0 12.12501,-0.49156 18.07748,-0.49156c5.80928,0 17.21824,0.49156 17.21824,0.49156c0,0 3.21619,-0.45835 6.18491,-0.83689c2.39227,-0.30503 4.74927,-0.12559 6.20035,0.07147c2.25484,0.3062 4.95298,1.25699 4.95298,1.25699c0,0 2.49469,2.00824 3.0031,4.66886c0.49944,2.00342 0.51438,4.27315 0.52908,5.89938c0.02095,2.31771 0.04138,5.25359 0.0292,7.98906c-0.00707,1.58823 -0.37649,4.08366 -0.83316,5.80878c-0.75081,2.83624 -3.01129,5.11074 -3.01129,5.11074c0,0 -2.6321,0.68227 -4.62851,0.90974c-1.42625,0.15177 -4.43092,0.16367 -6.86892,-0.02732c-3.0874,-0.24187 -5.96467,-0.4084 -5.96467,-0.4084c0,0 -11.18572,0.45219 -16.91015,0.43204c-5.90543,-0.02078 -17.99635,-0.55492 -17.99635,-0.55492c0,0 -2.13299,0.22913 -3.66931,0.47507c-1.21398,0.19434 -2.78758,0.25703 -5.10559,0.00469c-1.85874,-0.20234 -3.95457,-0.76945 -3.95457,-0.76945z" fill="#ffffff" stroke="#000000"/><path d="M274.06523,173.05407c0,0 -0.53047,-0.43053 -0.73505,-0.82264c-0.19076,-0.36562 -0.55293,-1.25796 -0.55293,-1.25796l-1.58521,-4.16118c0,0 0.16026,-0.26673 0.39981,-0.25076c0.25487,0.01699 0.69002,0.05261 0.69002,0.05261c0,0 1.02707,2.01058 1.38074,2.93685c0.33926,0.88855 0.69985,2.51231 0.69985,2.51231z" data-paper-data="{&quot;index&quot;:null}" fill="#455050" stroke="#000000"/><path d="M272.26193,168.59899l-0.4613,-1.16637" fill="none" stroke="#ffffff"/><path d="M272.78878,170.00911l0.42199,1.12443" fill="none" stroke="#ffffff"/><path d="M272.79401,168.52299l-0.6107,-1.34985" fill="none" stroke="#ffffff"/><path d="M273.82146,171.47428l-0.498,-1.56476" fill="none" stroke="#ffffff"/><path d="M274.16429,188.341c0,0 -0.36059,1.62376 -0.69985,2.51231c-0.35367,0.92627 -1.38074,2.93685 -1.38074,2.93685c0,0 -0.43515,0.03562 -0.69002,0.05261c-0.23955,0.01597 -0.39981,-0.25076 -0.39981,-0.25076l1.58521,-4.16118c0,0 0.36218,-0.89234 0.55293,-1.25796c0.20457,-0.39212 0.73505,-0.82264 0.73505,-0.82264z" data-paper-data="{&quot;index&quot;:null}" fill="#455050" stroke="#000000"/><path d="M271.60249,192.9717l0.46131,-1.16637" data-paper-data="{&quot;index&quot;:null}" fill="none" stroke="#ffffff"/><path d="M272.59063,190.39521l0.42199,-1.12443" data-paper-data="{&quot;index&quot;:null}" fill="none" stroke="#ffffff"/><path d="M272.59585,191.88134l-0.6107,1.34985" data-paper-data="{&quot;index&quot;:null}" fill="none" stroke="#ffffff"/><path d="M273.62332,188.93003l-0.498,1.56477" data-paper-data="{&quot;index&quot;:null}" fill="none" stroke="#ffffff"/><path d="M273.99593,173.0594c0,0 0.29819,1.46531 0.45166,3.12077c0.12766,1.37704 0.11702,2.86659 0.10341,3.92982c-0.01327,1.037 -0.02975,2.58133 -0.18443,3.92774c-0.20198,1.75814 -0.55229,3.22251 -0.55229,3.22251" fill="none" stroke="#000000"/><path d="M271.08055,192.81589l-11.42455,0.27021c0,0 -0.6113,-0.00232 -0.76673,-0.19185c-0.13793,-0.16819 -0.3905,-0.3936 -0.3905,-0.3936" fill="none" stroke="#000000"/><path d="M258.7954,167.77462c0,0 0.25257,-0.22542 0.39051,-0.39361c0.15543,-0.18953 0.76672,-0.19184 0.76672,-0.19184l11.42455,0.27021" data-paper-data="{&quot;index&quot;:null}" fill="none" stroke="#000000"/><path d="M248.69271,171.04998c0,0 3.87944,-1.07734 5.54224,-1.7218c1.48102,-0.57401 3.95251,-1.95816 3.95251,-1.95816c0,0 0.52275,0.20322 0.87607,0.93991c0.46053,0.96025 0.72378,2.48863 1.01439,4.05431c0.4611,2.48417 0.2313,5.38717 0.20537,7.77206c-0.02306,2.12136 -0.11259,5.31247 -0.63288,7.98842c-0.34853,1.79254 -0.61008,3.0947 -0.95569,3.90472c-0.22273,0.52204 -0.54264,0.8219 -0.54264,0.8219c0,0 -2.14101,-1.38731 -3.74804,-1.91633c-1.5876,-0.52263 -5.65059,-1.82555 -5.65059,-1.82555c0,0 0.45649,-5.66286 0.49496,-8.97007c0.03606,-3.09958 -0.55571,-9.08942 -0.55571,-9.08942z" fill="#203756" stroke="#000000"/><path d="M231.92533,169.37828c0,0 -3.71013,-0.08415 -5.44259,-0.38401c-1.70161,-0.29451 -4.43668,-0.8332 -4.43668,-0.8332c0,0 -0.10086,-0.20167 0.35918,-0.35003c0.9912,-0.31968 3.14281,-0.75277 4.35323,-0.92904c2.03934,-0.3767 5.50654,-0.71659 5.50654,-0.71659c0,0 6.09019,-0.0665 9.63963,-0.10449c4.7721,-0.04556 14.53484,0.64232 14.53484,0.64232c0,0 -0.97345,0.66065 -1.99413,1.0794c-1.42062,0.58282 -5.80453,1.73719 -5.80453,1.73719z" fill="#203756" stroke="#000000"/><path d="M248.61604,190.55521c0,0 4.38391,1.15436 5.80453,1.73719c1.02068,0.41874 1.99413,1.0794 1.99413,1.0794c0,0 -9.76274,0.68787 -14.53484,0.64232c-3.54944,-0.03799 -9.63963,-0.10449 -9.63963,-0.10449c0,0 -3.4672,-0.3399 -5.50654,-0.71659c-1.21042,-0.17628 -3.36203,-0.60938 -4.35323,-0.92904c-0.46004,-0.14836 -0.35918,-0.35003 -0.35918,-0.35003c0,0 2.73506,-0.53869 4.43668,-0.8332c1.73245,-0.29985 5.44259,-0.38401 5.44259,-0.38401z" data-paper-data="{&quot;index&quot;:null}" fill="#203756" stroke="#000000"/><path d="M253.38407,166.54931l-0.24769,-1.48614" fill="none" stroke="#000000"/><path d="M253.34278,193.67128l-0.16513,1.60998" fill="none" stroke="#000000"/><path d="M217.82108,190.32748c0,0 -7.46453,-0.59309 -8.75099,-0.738c-0.36393,-0.04099 -0.70033,-0.32657 -0.70033,-0.32657c0,0 -0.53951,-2.68599 -0.52545,-4.78949c0.01217,-1.82055 -0.17702,-5.67084 0.0096,-8.83844c0.17491,-2.96864 0.72675,-4.99086 0.72675,-4.99086c0,0 0.28408,-0.28964 0.73786,-0.332c1.38946,-0.12975 8.63089,-0.54284 8.63089,-0.54284c0,0 -1.06914,6.9326 -1.09046,10.34763c-0.02146,3.43757 0.96212,10.21058 0.96212,10.21058z" fill="#203756" stroke="#000000"/><path d="M217.96451,169.76927c0,0 0.36222,0.00355 0.53837,0.04232c0.16974,0.03737 0.3476,0.41494 0.3476,0.41494c0,0 -0.27101,2.37763 -0.38311,4.76635c-0.10413,2.21867 -0.05023,4.43646 -0.04297,5.03168c0.01031,0.84598 -0.00517,1.84457 0.07906,2.97219c0.24,3.21279 0.36607,6.47332 0.36607,6.47332c0,0 -0.19861,0.63888 -0.44427,0.68354c-0.19815,0.03602 -0.46074,0.17385 -0.46074,0.17385" fill="none" stroke="#000000"/><path d="M205.60067,169.61339l2.43703,0.08826c0,0 0.35243,0.2111 0.42307,0.29586c0.06675,0.0801 0.19474,0.37034 0.19474,0.37034" fill="none" stroke="#000000"/><path d="M208.38531,189.51861c0,0 -0.12798,0.29024 -0.19473,0.37034c-0.07063,0.08476 -0.42307,0.29586 -0.42307,0.29586l-2.43703,0.08826" data-paper-data="{&quot;index&quot;:null}" fill="none" stroke="#000000"/><path d="M250.94596,163.90723l0.30273,1.4999c0,0 -0.46968,0.09249 -0.69154,0.08419c-0.20581,-0.00771 -0.59507,-0.13235 -0.59507,-0.13235c0,0 -0.11145,-0.67951 -0.26561,-0.96773c-0.16195,-0.30277 -0.68386,-0.80738 -0.68386,-0.80738c0,0 0.60477,0.21374 0.96227,0.25785c0.34865,0.04302 0.97108,0.06553 0.97108,0.06553z" fill="#000000" stroke="#000000"/><path d="M248.59317,163.23006l-0.68591,-2.51501c0,0 0.80806,-0.11809 1.22761,-0.06566c0.39144,0.04893 1.13497,0.52293 1.13497,0.52293c0,0 0.58545,0.9425 0.76351,1.33677c0.17761,0.39325 0.30347,1.25444 0.30347,1.25444c0,0 -0.89681,0.19643 -1.35836,0.09258c-0.54172,-0.12189 -1.38527,-0.62606 -1.38527,-0.62606z" fill="#ffffff" stroke="#000000"/><path d="M250.30013,196.21238c-0.35751,0.04411 -0.96227,0.25785 -0.96227,0.25785c0,0 0.52191,-0.50461 0.68386,-0.80738c0.15416,-0.28822 0.26561,-0.96773 0.26561,-0.96773c0,0 0.39218,-0.12477 0.59866,-0.13249c0.22134,-0.00828 0.68794,0.08433 0.68794,0.08433l-0.30273,1.4999c0,0 -0.62244,0.02251 -0.97108,0.06553z" data-paper-data="{&quot;index&quot;:null}" fill="#000000" stroke="#000000"/><path d="M250.24866,196.14292c0.46155,-0.10385 1.35834,0.09258 1.35834,0.09258c0,0 -0.12587,0.86119 -0.30346,1.25444c-0.17806,0.39427 -0.76351,1.33677 -0.76351,1.33677c0,0 -0.74353,0.47399 -1.13497,0.52293c-0.41953,0.05244 -1.22761,-0.06566 -1.22761,-0.06566l0.68591,-2.51501c0,0 0.84356,-0.50416 1.38529,-0.62606z" data-paper-data="{&quot;index&quot;:null}" fill="#ffffff" stroke="#000000"/><path d="M273.41145,185.72887l-11.97164,1.48614" fill="none" stroke="#000000"/><path d="M261.6875,172.43621l11.6414,1.8164" fill="none" stroke="#000000"/><path d="M273.01855,179.95886l0.32594,-0.00506c0,0 0.13487,0.10599 0.12648,0.16711c-0.00839,0.06112 -0.11675,0.14178 -0.11675,0.14178h-0.3308z" fill="#000000" stroke="#252525"/><path d="M225.18509,195.20774l-0.50808,-1.40675c0,0 0.05805,-0.32821 0.15385,-0.45139c0.07858,-0.10103 0.42092,-0.31707 0.42092,-0.31707" fill="none" stroke="#000000"/><path d="M225.34122,167.00557c0,0 -0.34235,-0.21606 -0.42092,-0.31707c-0.0958,-0.12319 -0.15385,-0.4514 -0.15385,-0.4514l0.50808,-1.40675" data-paper-data="{&quot;index&quot;:null}" fill="none" stroke="#000000"/><path d="M226.76929,165.98402l0.39631,-0.44034l1.66227,-0.14311l0.53941,0.24219" fill="none" stroke="#000000"/><path d="M238.73544,165.95099l-0.36327,-1.29899" fill="none" stroke="#000000"/><path d="M239.90233,165.53267l0.39631,-0.42932h1.19993l0.77058,0.34126" fill="none" stroke="#000000"/><path d="M229.22575,194.4329l-0.53941,0.24219l-1.66227,-0.14311l-0.39631,-0.44034" data-paper-data="{&quot;index&quot;:null}" fill="none" stroke="#000000"/><path d="M238.23064,195.42365l0.36327,-1.29899" data-paper-data="{&quot;index&quot;:null}" fill="none" stroke="#000000"/><path d="M242.12761,194.63106l-0.77058,0.34126h-1.19993l-0.39631,-0.42932" data-paper-data="{&quot;index&quot;:null}" fill="none" stroke="#000000"/><path d="M221.63939,166.71921l-11.74755,1.41537" fill="none" stroke="#000000"/><path d="M222.20553,193.46966l-12.59676,-1.5569" fill="none" stroke="#000000"/></g></g></svg>