<svg version="1.1" xmlns="http://www.w3.org/2000/svg" xmlns:xlink="http://www.w3.org/1999/xlink" width="160.69945" height="95.48052" viewBox="0,0,160.69945,95.48052"><g transform="translate(-159.65033,-132.25975)"><g data-paper-data="{&quot;isPaintingLayer&quot;:true}" fill-rule="nonzero" stroke-linejoin="miter" stroke-miterlimit="10" stroke-dasharray="" stroke-dashoffset="0" style="mix-blend-mode: normal"><path d="M159.65033,227.74027v-95.48052h160.69945v95.48052z" fill="#59ad0d" stroke="none" stroke-width="0" stroke-linecap="butt"/><g><path d="M197.19719,170.45982c0,0 0.8135,-2.22137 1.22476,-3.02003c0.4174,-0.81056 1.90314,-1.80816 1.90314,-1.80816c0,0 3.79067,-1.3563 5.76228,-1.85693c1.80375,-0.458 5.60866,-1.03037 5.60866,-1.03037c0,0 2.94202,0.29608 4.24264,0.58061c1.26458,0.27665 3.45601,1.10363 3.45601,1.10363c0,0 34.42826,0.31351 39.10592,0.30553c0.63005,-0.00108 2.44185,-0.52121 3.17829,-0.81858c1.21765,-0.49167 2.16018,-0.59154 3.97574,-0.88364c1.78563,-0.28728 5.54602,0.66181 5.54602,0.66181l8.3269,3.12393l3.70306,6.80117c0,0 0.5133,4.56631 0.5133,6.80117c0,2.25626 -0.5133,6.67285 -0.5133,6.67285l-4.13886,7.41529l-8.04126,3.7248c0,0 -3.45593,0.7522 -5.39129,0.44192c-1.82905,-0.29323 -3.87431,-1.05191 -3.87431,-1.05191c0,0 -2.13516,-0.63198 -2.87729,-0.63215c-4.15783,-0.00091 -39.73948,0.27622 -39.73948,0.27622c0,0 -2.51052,0.89213 -3.64543,1.11471c-1.07308,0.21045 -3.84445,0.32898 -3.84445,0.32898c0,0 -3.81978,-0.35316 -5.61464,-0.91726c-1.93708,-0.60879 -5.75631,-1.89875 -5.75631,-1.89875c0,0 -1.27485,-0.94815 -1.77654,-1.79471c-0.49202,-0.83024 -1.20521,-3.23667 -1.20521,-3.23667l-1.05512,-1.62543l-0.01426,-17.23819z" fill="#e46d00" stroke="#000000" stroke-width="0.5" stroke-linecap="round"/><path d="M221.40438,186.9365l-2.99458,5.70412l-15.45234,-1.69317l-0.85549,-1.71098l-1.81793,-1.39019l-0.10693,-14.43645l1.60405,-1.39017l0.74855,-1.49712l15.68405,-1.67533l3.1906,5.40086z" fill="#191919" stroke="#000000" stroke-width="0.5" stroke-linecap="round"/><path d="M223.63544,168.66339l-0.67828,-0.76384c0,0 20.75639,-1.54398 27.43563,-1.75805c6.66642,-0.21367 12.83062,0.09289 12.83062,0.09289l-12.21599,2.76125c0,0 -5.50354,0.73383 -8.40182,0.88392c-3.25493,0.16857 -10.18224,0.07851 -10.18224,0.07851z" fill="#3a4758" stroke="#000000" stroke-width="0.5" stroke-linecap="round"/><path d="M232.65039,191.62631c0,0 6.92732,-0.09006 10.18224,0.07851c2.89829,0.15009 8.40182,0.88392 8.40182,0.88392l12.216,2.76125c0,0 -6.1642,0.30657 -12.83062,0.09289c-6.67924,-0.21407 -27.54256,-1.65935 -27.54256,-1.65935l0.78523,-0.86254z" data-paper-data="{&quot;index&quot;:null}" fill="#3a4758" stroke="#000000" stroke-width="0.5" stroke-linecap="round"/><path d="M266.34372,166.71228c0,0 4.4378,0.93372 9.72872,2.92413c5.26988,3.00459 6.22624,3.87704 6.22624,3.87704" fill="none" stroke="#000000" stroke-width="0.25" stroke-linecap="round"/><path d="M282.08479,187.43127c0,0 -1.27717,1.35366 -6.54705,4.35826c-5.29092,1.99041 -9.72872,2.92413 -9.72872,2.92413" data-paper-data="{&quot;index&quot;:null}" fill="none" stroke="#000000" stroke-width="0.25" stroke-linecap="round"/><path d="M276.84643,166.61299l2.15401,0.80966l2.35262,3.95667l-0.07639,0.67217c0,0 -1.36922,-1.53411 -2.01775,-2.39554c-0.68375,-0.9082 -2.41248,-3.04296 -2.41248,-3.04296z" fill="#808080" stroke="#000000" stroke-width="0.25" stroke-linecap="round"/><path d="M278.82353,191.63709c0.64855,-0.86143 2.01775,-2.39554 2.01775,-2.39554l0.07639,0.67217l-2.3526,3.95665l-2.15401,0.80966c0,0 1.72873,-2.13476 2.41248,-3.04296z" data-paper-data="{&quot;index&quot;:null}" fill="#808080" stroke="#000000" stroke-width="0.25" stroke-linecap="round"/><path d="M221.42807,174.27296l-2.53328,-4.4616l33.21359,6.53477l-30.69983,-1.10372z" fill="none" stroke="#000000" stroke-width="0.25" stroke-linecap="round"/><path d="M270.40922,187.72726l7.05782,0.80203" fill="none" stroke="#000000" stroke-width="0.25" stroke-linecap="round"/><path d="M270.40922,172.72939l7.05782,-0.80203" data-paper-data="{&quot;index&quot;:null}" fill="none" stroke="#000000" stroke-width="0.25" stroke-linecap="round"/><path d="M281.95612,180.69173c0,0 -0.17616,0.24457 -0.33313,0.29503c-0.2069,0.06651 -0.55748,0.02883 -0.55748,0.02883c0,0 -0.02887,-0.24958 -0.02255,-0.36335c0.00708,-0.12754 0.02255,-0.32484 0.02255,-0.32484c0,0 0.3956,0.00422 0.59374,0.10696c0.15602,0.0809 0.29685,0.25738 0.29685,0.25738z" fill="#000000" stroke="#8a7100" stroke-width="0.25" stroke-linecap="round"/><path d="M223.62942,168.62388l-2.67343,-2.88729l3.42198,-0.32081" fill="none" stroke="#000000" stroke-width="0.5" stroke-linecap="round"/><path d="M224.60308,196.09689l-3.42198,-0.32081l2.67343,-2.88729" data-paper-data="{&quot;index&quot;:null}" fill="none" stroke="#000000" stroke-width="0.5" stroke-linecap="round"/><path d="M203.99017,187.35822v-12.90788l17.38857,0.64786l-0.15078,10.58138z" fill="#3a4758" stroke="#000000" stroke-width="0.5" stroke-linecap="butt"/><path d="M203.8667,174.32032l-1.87549,-1.97421" fill="none" stroke="#000000" stroke-width="0.5" stroke-linecap="round"/><path d="M203.86668,187.35015l-1.48065,1.48065" fill="none" stroke="#000000" stroke-width="0.5" stroke-linecap="round"/><path d="M218.26227,173.94891l-2.4812,-4.00809" fill="none" stroke="#000000" stroke-width="0.5" stroke-linecap="round"/><path d="M215.38135,174.08658l-2.39562,-3.86988" fill="none" stroke="#000000" stroke-width="0.5" stroke-linecap="round"/><path d="M210.34548,170.61199l1.96777,3.17874" fill="none" stroke="#000000" stroke-width="0.5" stroke-linecap="round"/><path d="M207.56904,170.78845l1.79664,2.90229" fill="none" stroke="#000000" stroke-width="0.5" stroke-linecap="round"/><path d="M206.13614,173.31841l-1.28323,-2.07293" fill="none" stroke="#000000" stroke-width="0.5" stroke-linecap="round"/><path d="M218.33564,187.09698l-2.65232,4.28453" data-paper-data="{&quot;index&quot;:null}" fill="none" stroke="#000000" stroke-width="0.5" stroke-linecap="round"/><path d="M215.19804,187.35425l-2.48118,4.0081" data-paper-data="{&quot;index&quot;:null}" fill="none" stroke="#000000" stroke-width="0.5" stroke-linecap="round"/><path d="M212.21551,187.59743l-2.13891,3.45519" data-paper-data="{&quot;index&quot;:null}" fill="none" stroke="#000000" stroke-width="0.5" stroke-linecap="round"/><path d="M209.35349,187.71716l-1.79664,2.90229" data-paper-data="{&quot;index&quot;:null}" fill="none" stroke="#000000" stroke-width="0.25" stroke-linecap="round"/><path d="M204.66959,190.248l1.28323,-2.07293" data-paper-data="{&quot;index&quot;:null}" fill="none" stroke="#000000" stroke-width="0.5" stroke-linecap="round"/><path d="M253.78946,164.41474l0.82832,-1.2701l-0.75843,-0.12583l-0.81061,-3.03977c0,0 1.22141,0.06018 1.69943,0.53065c0.59392,0.58453 1.45732,2.50659 1.45732,2.50659l-0.47935,0.22337l-0.7522,1.19208z" fill="#e46d00" stroke="#000000" stroke-width="0.25" stroke-linecap="round"/><path d="M254.4294,196.99499l0.7522,1.19208l0.47937,0.22339c0,0 -0.8634,1.92206 -1.45732,2.50659c-0.47802,0.47046 -1.69943,0.53065 -1.69943,0.53065l0.81061,-3.03978l0.75843,-0.12582l-0.82832,-1.2701z" data-paper-data="{&quot;index&quot;:null}" fill="#e46d00" stroke="#000000" stroke-width="0.25" stroke-linecap="round"/><path d="M277.44458,193.78585l0.34124,-0.10499l0.65621,-0.57747l0.34124,-0.07875" fill="none" stroke="#ffffff" stroke-width="0.125" stroke-linecap="round"/><path d="M278.26537,192.77417l0.69887,-0.12066" fill="none" stroke="#ffffff" stroke-width="0.125" stroke-linecap="round"/><path d="M279.62777,191.60973l-0.54031,0.07439" fill="none" stroke="#ffffff" stroke-width="0.125" stroke-linecap="round"/><path d="M279.50965,191.15033l0.31061,0.06928" fill="none" stroke="#ffffff" stroke-width="0.125" stroke-linecap="round"/><path d="M279.23341,169.6444c-0.68375,-0.9082 -2.41248,-3.04296 -2.41248,-3.04296l2.15401,0.80966l2.3526,3.95665l-0.07639,0.67217c0,0 -1.3692,-1.53411 -2.01775,-2.39554z" data-paper-data="{&quot;index&quot;:null}" fill="#808080" stroke="#000000" stroke-width="0.25" stroke-linecap="round"/><path d="M279.19314,168.25684l-0.34124,-0.07874l-0.65621,-0.57747l-0.34124,-0.10499" data-paper-data="{&quot;index&quot;:null}" fill="none" stroke="#ffffff" stroke-width="0.125" stroke-linecap="round"/><path d="M278.67524,168.50731l0.69888,0.12066" data-paper-data="{&quot;index&quot;:null}" fill="none" stroke="#ffffff" stroke-width="0.125" stroke-linecap="round"/><path d="M279.49733,169.59735l0.54031,0.07439" data-paper-data="{&quot;index&quot;:null}" fill="none" stroke="#ffffff" stroke-width="0.125" stroke-linecap="round"/><path d="M280.23014,170.06186l-0.31061,0.06928" data-paper-data="{&quot;index&quot;:null}" fill="none" stroke="#ffffff" stroke-width="0.125" stroke-linecap="round"/><path d="M221.54888,185.604l30.69983,-1.10372l-32.91737,6.63351l2.13834,-4.06665z" data-paper-data="{&quot;index&quot;:null}" fill="none" stroke="#000000" stroke-width="0.25" stroke-linecap="round"/><path d="M228.31647,164.54685l-1.56897,2.85267" fill="none" stroke="#000000" stroke-width="0.25" stroke-linecap="round"/><path d="M229.40614,197.07379l-1.56897,-2.85267" data-paper-data="{&quot;index&quot;:null}" fill="none" stroke="#000000" stroke-width="0.25" stroke-linecap="round"/><path d="M257.94912,196.68494l-0.68454,-1.02681" fill="none" stroke="#000000" stroke-width="0.25" stroke-linecap="round"/><path d="M257.06897,165.75007l0.65077,-1.02682" data-paper-data="{&quot;index&quot;:null}" fill="none" stroke="#000000" stroke-width="0.25" stroke-linecap="round"/><path d="M253.00345,169.90603l13.16918,-3.0101l2.75926,6.14562c0,0 0.4824,5.37725 0.4824,7.89669c0,2.3124 -0.4824,6.65213 -0.4824,6.65213l-3.13552,7.02357l-12.82186,-2.91362c0,0 0.49188,-7.15258 0.49668,-10.76218c0.00485,-3.65459 -0.46774,-11.03209 -0.46774,-11.03209z" fill="#3a485a" stroke="#000000" stroke-width="0.5" stroke-linecap="round"/><path d="M229.56973,158.41906" fill="none" stroke="#000000" stroke-width="0.25" stroke-linecap="round"/><path d="M197.36264,170.32168l4.20093,1.16693" fill="none" stroke="#000000" stroke-width="0.25" stroke-linecap="round"/><path d="M197.71272,190.74283l4.31762,-1.05023" fill="none" stroke="#000000" stroke-width="0.25" stroke-linecap="round"/></g></g></g></svg>