<svg version="1.1" xmlns="http://www.w3.org/2000/svg" xmlns:xlink="http://www.w3.org/1999/xlink" width="71.84515" height="35.22256" viewBox="0,0,71.84515,35.22256"><g transform="translate(-204.07743,-162.38874)"><g data-paper-data="{&quot;isPaintingLayer&quot;:true}" fill-rule="nonzero" stroke-linejoin="miter" stroke-miterlimit="10" stroke-dasharray="" stroke-dashoffset="0" style="mix-blend-mode: normal"><path d="M205.09489,172.20782c0,0 0.6634,-1.8115 0.99878,-2.46279c0.34038,-0.661 1.55199,-1.47453 1.55199,-1.47453c0,0 3.09124,-1.10604 4.69906,-1.5143c1.47093,-0.37349 4.57379,-0.84025 4.57379,-0.84025c0,0 2.39918,0.24145 3.45982,0.47348c1.03125,0.2256 2.81833,0.9 2.81833,0.9c0,0 28.07579,0.25566 31.89035,0.24916c0.5138,-0.00088 1.9913,-0.42504 2.59185,-0.66754c0.99298,-0.40095 1.7616,-0.48239 3.24216,-0.7206c1.45616,-0.23427 4.52271,0.5397 4.52271,0.5397l6.79048,2.54752l3.0198,5.54626c0,0 0.41859,3.72376 0.41859,5.54626c0,1.83995 -0.41859,5.44162 -0.41859,5.44162l-3.37518,6.04707l-6.55754,3.03752c0,0 -2.81826,0.61341 -4.39652,0.36038c-1.49157,-0.23913 -3.15945,-0.85782 -3.15945,-0.85782c0,0 -1.74119,-0.51537 -2.34639,-0.51551c-3.39065,-0.00074 -32.40701,0.22525 -32.40701,0.22525c0,0 -2.0473,0.72752 -2.9728,0.90903c-0.87508,0.17162 -3.1351,0.26828 -3.1351,0.26828c0,0 -3.11498,-0.288 -4.57866,-0.74801c-1.57966,-0.49646 -4.69419,-1.54841 -4.69419,-1.54841c0,0 -1.03962,-0.7732 -1.44874,-1.46356c-0.40124,-0.67705 -0.98283,-2.63946 -0.98283,-2.63946l-0.86044,-1.32552l-0.01163,-14.05751z" fill="#e46d00" stroke="#000000" stroke-width="0.5" stroke-linecap="round"/><path d="M224.83553,185.64433l-2.44204,4.65163l-12.60118,-1.38076l-0.69764,-1.39528l-1.4825,-1.13368l-0.0872,-11.77273l1.30808,-1.13367l0.61043,-1.22088l12.79013,-1.36621l2.60189,4.40433z" fill="#191919" stroke="#000000" stroke-width="0.5" stroke-linecap="round"/><path d="M226.65493,170.74285l-0.55313,-0.6229c0,0 16.92656,-1.2591 22.37339,-1.43367c5.43638,-0.17425 10.4632,0.07575 10.4632,0.07575l-9.96198,2.25176c0,0 -4.48806,0.59843 -6.85157,0.72082c-2.65435,0.13747 -8.30348,0.06402 -8.30348,0.06402z" fill="#3a4758" stroke="#000000" stroke-width="0.5" stroke-linecap="round"/><path d="M234.0065,189.46881c0,0 5.64914,-0.07344 8.30348,0.06402c2.36352,0.1224 6.85157,0.72082 6.85157,0.72082l9.96198,2.25176c0,0 -5.02682,0.25 -10.4632,0.07575c-5.44683,-0.17457 -22.46059,-1.35318 -22.46059,-1.35318l0.64034,-0.70339z" data-paper-data="{&quot;index&quot;:null}" fill="#3a4758" stroke="#000000" stroke-width="0.5" stroke-linecap="round"/><path d="M261.48296,169.15175c0,0 3.61897,0.76144 7.93364,2.38459c4.29752,2.4502 5.07742,3.16167 5.07742,3.16167" fill="none" stroke="#000000" stroke-width="0.25" stroke-linecap="round"/><path d="M274.31959,186.04781c0,0 -1.04152,1.10389 -5.33903,3.5541c-4.31467,1.62315 -7.93364,2.38459 -7.93364,2.38459" data-paper-data="{&quot;index&quot;:null}" fill="none" stroke="#000000" stroke-width="0.25" stroke-linecap="round"/><path d="M270.04778,169.07078l1.75657,0.66027l1.91853,3.22661l-0.0623,0.54815c0,0 -1.11658,-1.25105 -1.64545,-1.95353c-0.55759,-0.74062 -1.96735,-2.48149 -1.96735,-2.48149z" fill="#808080" stroke="#000000" stroke-width="0.25" stroke-linecap="round"/><path d="M271.66008,189.4776c0.52888,-0.70248 1.64545,-1.95353 1.64545,-1.95353l0.0623,0.54815l-1.91851,3.2266l-1.75657,0.66027c0,0 1.40976,-1.74087 1.96735,-2.48149z" data-paper-data="{&quot;index&quot;:null}" fill="#808080" stroke="#000000" stroke-width="0.25" stroke-linecap="round"/><path d="M224.85485,175.31738l-2.06586,-3.63838l27.08524,5.32902l-25.0353,-0.90007z" fill="none" stroke="#000000" stroke-width="0.25" stroke-linecap="round"/><path d="M264.79832,186.28918l5.75556,0.65404" fill="none" stroke="#000000" stroke-width="0.25" stroke-linecap="round"/><path d="M270.55388,173.40458l-5.75556,0.65404" data-paper-data="{&quot;index&quot;:null}" fill="none" stroke="#000000" stroke-width="0.25" stroke-linecap="round"/><path d="M274.21466,180.5518c0,0 -0.14366,0.19944 -0.27166,0.24059c-0.16872,0.05424 -0.45462,0.02351 -0.45462,0.02351c0,0 -0.02354,-0.20353 -0.01839,-0.29631c0.00577,-0.10401 0.01839,-0.2649 0.01839,-0.2649c0,0 0.32261,0.00344 0.48419,0.08722c0.12723,0.06597 0.24208,0.20989 0.24208,0.20989z" fill="#000000" stroke="#8a7100" stroke-width="0.25" stroke-linecap="round"/><path d="M226.65002,170.71063l-2.18015,-2.35455l2.79058,-0.26162" fill="none" stroke="#000000" stroke-width="0.5" stroke-linecap="round"/><path d="M227.44402,193.11451l-2.79058,-0.26162l2.18015,-2.35455" data-paper-data="{&quot;index&quot;:null}" fill="none" stroke="#000000" stroke-width="0.5" stroke-linecap="round"/><path d="M210.63447,185.98824v-10.5262l14.18015,0.52832l-0.12296,8.62897z" fill="#3a4758" stroke="#000000" stroke-width="0.5" stroke-linecap="butt"/><path d="M210.53378,175.356l-1.52944,-1.60994" fill="none" stroke="#000000" stroke-width="0.5" stroke-linecap="round"/><path d="M210.53377,185.98166l-1.20745,1.20745" fill="none" stroke="#000000" stroke-width="0.5" stroke-linecap="round"/><path d="M220.24979,171.78458l2.02339,3.26854" fill="none" stroke="#000000" stroke-width="0.5" stroke-linecap="round"/><path d="M217.97023,172.00956l1.9536,3.15584" fill="none" stroke="#000000" stroke-width="0.5" stroke-linecap="round"/><path d="M217.42183,174.92413l-1.60469,-2.59222" fill="none" stroke="#000000" stroke-width="0.5" stroke-linecap="round"/><path d="M213.55299,172.47581l1.46514,2.36678" fill="none" stroke="#000000" stroke-width="0.5" stroke-linecap="round"/><path d="M212.38448,174.53896l-1.04646,-1.69045" fill="none" stroke="#000000" stroke-width="0.5" stroke-linecap="round"/><path d="M220.17008,189.26918l2.16293,-3.49398" data-paper-data="{&quot;index&quot;:null}" fill="none" stroke="#000000" stroke-width="0.5" stroke-linecap="round"/><path d="M219.77434,185.985l-2.02337,3.26855" data-paper-data="{&quot;index&quot;:null}" fill="none" stroke="#000000" stroke-width="0.5" stroke-linecap="round"/><path d="M215.59787,189.00097l1.74425,-2.81766" data-paper-data="{&quot;index&quot;:null}" fill="none" stroke="#000000" stroke-width="0.5" stroke-linecap="round"/><path d="M215.00819,186.28095l-1.46514,2.36678" data-paper-data="{&quot;index&quot;:null}" fill="none" stroke="#000000" stroke-width="0.25" stroke-linecap="round"/><path d="M211.18853,188.34481l1.04646,-1.69045" data-paper-data="{&quot;index&quot;:null}" fill="none" stroke="#000000" stroke-width="0.5" stroke-linecap="round"/><path d="M251.24513,167.27814l0.67548,-1.03575l-0.61849,-0.10261l-0.66104,-2.47889c0,0 0.99604,0.04908 1.38586,0.43274c0.48433,0.47668 1.18842,2.04409 1.18842,2.04409l-0.3909,0.18216l-0.61341,0.97213z" fill="#e46d00" stroke="#000000" stroke-width="0.25" stroke-linecap="round"/><path d="M251.76699,193.84689l0.61341,0.97213l0.39092,0.18217c0,0 -0.70409,1.56741 -1.18842,2.04409c-0.38982,0.38365 -1.38586,0.43274 -1.38586,0.43274l0.66104,-2.4789l0.61849,-0.1026l-0.67548,-1.03575z" data-paper-data="{&quot;index&quot;:null}" fill="#e46d00" stroke="#000000" stroke-width="0.25" stroke-linecap="round"/><path d="M270.53556,191.22988l0.27828,-0.08562l0.53513,-0.47092l0.27828,-0.06422" fill="none" stroke="#ffffff" stroke-width="0.125" stroke-linecap="round"/><path d="M271.2049,190.40487l0.56992,-0.0984" fill="none" stroke="#ffffff" stroke-width="0.125" stroke-linecap="round"/><path d="M271.87531,189.51595l0.44062,-0.06066" fill="none" stroke="#ffffff" stroke-width="0.125" stroke-linecap="round"/><path d="M272.2196,189.08065l0.2533,0.0565" fill="none" stroke="#ffffff" stroke-width="0.125" stroke-linecap="round"/><path d="M271.99433,171.54285c-0.55759,-0.74062 -1.96735,-2.48149 -1.96735,-2.48149l1.75657,0.66027l1.91851,3.2266l-0.0623,0.54815c0,0 -1.11656,-1.25105 -1.64545,-1.95353z" data-paper-data="{&quot;index&quot;:null}" fill="#808080" stroke="#000000" stroke-width="0.25" stroke-linecap="round"/><path d="M271.96149,170.41132l-0.27828,-0.06421l-0.53513,-0.47092l-0.27828,-0.08562" data-paper-data="{&quot;index&quot;:null}" fill="none" stroke="#ffffff" stroke-width="0.125" stroke-linecap="round"/><path d="M271.53915,170.61557l0.56993,0.0984" data-paper-data="{&quot;index&quot;:null}" fill="none" stroke="#ffffff" stroke-width="0.125" stroke-linecap="round"/><path d="M272.65016,171.56515l-0.44062,-0.06066" data-paper-data="{&quot;index&quot;:null}" fill="none" stroke="#ffffff" stroke-width="0.125" stroke-linecap="round"/><path d="M272.80715,171.88329l-0.2533,0.0565" data-paper-data="{&quot;index&quot;:null}" fill="none" stroke="#ffffff" stroke-width="0.125" stroke-linecap="round"/><path d="M224.95337,184.55769l25.0353,-0.90007l-26.84368,5.40954l1.74379,-3.3163z" data-paper-data="{&quot;index&quot;:null}" fill="none" stroke="#000000" stroke-width="0.25" stroke-linecap="round"/><path d="M230.47224,167.38587l-1.27947,2.32631" fill="none" stroke="#000000" stroke-width="0.25" stroke-linecap="round"/><path d="M230.08138,191.58484l1.27947,2.32631" data-paper-data="{&quot;index&quot;:null}" fill="none" stroke="#000000" stroke-width="0.25" stroke-linecap="round"/><path d="M254.63727,193.59405l-0.55823,-0.83735" fill="none" stroke="#000000" stroke-width="0.25" stroke-linecap="round"/><path d="M253.91952,168.36708l0.53069,-0.83736" data-paper-data="{&quot;index&quot;:null}" fill="none" stroke="#000000" stroke-width="0.25" stroke-linecap="round"/><path d="M250.60415,171.75621l10.73929,-2.4547l2.25014,5.01167c0,0 0.39339,4.38508 0.39339,6.43965c0,1.88573 -0.39339,5.42472 -0.39339,5.42472l-2.55697,5.72763l-10.45606,-2.37602c0,0 0.40112,-5.83283 0.40504,-8.77641c0.00396,-2.98027 -0.38144,-8.99652 -0.38144,-8.99652z" fill="#3a485a" stroke="#000000" stroke-width="0.5" stroke-linecap="round"/><path d="M231.49426,162.38874" fill="none" stroke="#000000" stroke-width="0.25" stroke-linecap="round"/><path d="M205.22981,172.09517l3.4258,0.95162" fill="none" stroke="#000000" stroke-width="0.25" stroke-linecap="round"/><path d="M209.03626,187.89189l-3.52096,0.85645" fill="none" stroke="#000000" stroke-width="0.25" stroke-linecap="round"/></g></g></svg>