<svg version="1.1" xmlns="http://www.w3.org/2000/svg" xmlns:xlink="http://www.w3.org/1999/xlink" width="72.00586" height="35.3016" viewBox="0,0,72.00586,35.3016"><g transform="translate(-203.99708,-162.34922)"><g data-paper-data="{&quot;isPaintingLayer&quot;:true}" fill-rule="nonzero" stroke-linejoin="miter" stroke-miterlimit="10" stroke-dasharray="" stroke-dashoffset="0" style="mix-blend-mode: normal"><path d="M205.01626,172.19042c0,0 0.66489,-1.81558 1.00103,-2.46834c0.34115,-0.66249 1.55548,-1.47785 1.55548,-1.47785c0,0 3.0982,-1.10854 4.70965,-1.51771c1.47425,-0.37433 4.58409,-0.84215 4.58409,-0.84215c0,0 2.40458,0.24199 3.46761,0.47455c1.03357,0.22611 2.82468,0.90202 2.82468,0.90202c0,0 28.13903,0.25624 31.96219,0.24972c0.51495,-0.00088 1.99578,-0.426 2.59769,-0.66904c0.99521,-0.40185 1.76557,-0.48348 3.24947,-0.72222c1.45944,-0.2348 4.53289,0.54091 4.53289,0.54091l6.80577,2.55326l3.0266,5.55876c0,0 0.41953,3.73215 0.41953,5.55876c0,1.84409 -0.41953,5.45388 -0.41953,5.45388l-3.38279,6.06069l-6.57231,3.04437c0,0 -2.82461,0.61479 -4.40643,0.36119c-1.49493,-0.23966 -3.16656,-0.85975 -3.16656,-0.85975c0,0 -1.74512,-0.51653 -2.35168,-0.51667c-3.39829,-0.00074 -32.48001,0.22576 -32.48001,0.22576c0,0 -2.05191,0.72916 -2.9795,0.91108c-0.87705,0.17201 -3.14216,0.26888 -3.14216,0.26888c0,0 -3.122,-0.28865 -4.58898,-0.7497c-1.58322,-0.49758 -4.70477,-1.55189 -4.70477,-1.55189c0,0 -1.04196,-0.77495 -1.45201,-1.46686c-0.40214,-0.67857 -0.98505,-2.64541 -0.98505,-2.64541l-0.86237,-1.3285l-0.01166,-14.08918z" fill="#f8f8f8" stroke="#000000" stroke-width="0.5" stroke-linecap="round"/><path d="M224.80137,185.65719l-2.44754,4.66211l-12.62956,-1.38387l-0.69921,-1.39842l-1.48584,-1.13624l-0.0874,-11.79925l1.31103,-1.13622l0.61181,-1.22363l12.81894,-1.36929l2.60775,4.41425z" fill="#191919" stroke="#000000" stroke-width="0.5" stroke-linecap="round"/><path d="M226.62486,170.72215l-0.55437,-0.6243c0,0 16.96469,-1.26193 22.42379,-1.4369c5.44862,-0.17464 10.48677,0.07592 10.48677,0.07592l-9.98442,2.25683c0,0 -4.49817,0.59978 -6.86701,0.72245c-2.66033,0.13778 -8.32218,0.06417 -8.32218,0.06417z" fill="#3a4758" stroke="#000000" stroke-width="0.5" stroke-linecap="round"/><path d="M233.993,189.49029c0,0 5.66186,-0.07361 8.32218,0.06417c2.36884,0.12267 6.86701,0.72245 6.86701,0.72245l9.98442,2.25683c0,0 -5.03815,0.25057 -10.48677,0.07592c-5.4591,-0.17496 -22.51118,-1.35623 -22.51118,-1.35623l0.64179,-0.70497z" data-paper-data="{&quot;index&quot;:null}" fill="#3a4758" stroke="#000000" stroke-width="0.5" stroke-linecap="round"/><path d="M261.53135,169.12746c0,0 3.62712,0.76315 7.95151,2.38996c4.3072,2.45572 5.08885,3.1688 5.08885,3.1688" fill="none" stroke="#000000" stroke-width="0.25" stroke-linecap="round"/><path d="M274.39689,186.06158c0,0 -1.04386,1.10638 -5.35106,3.56211c-4.32439,1.62681 -7.95151,2.38996 -7.95151,2.38996" data-paper-data="{&quot;index&quot;:null}" fill="none" stroke="#000000" stroke-width="0.25" stroke-linecap="round"/><path d="M270.11546,169.04631l1.76052,0.66175l1.92285,3.23388l-0.06244,0.54938c0,0 -1.1191,-1.25386 -1.64915,-1.95793c-0.55884,-0.74229 -1.97178,-2.48708 -1.97178,-2.48708z" fill="#808080" stroke="#000000" stroke-width="0.25" stroke-linecap="round"/><path d="M271.73139,189.4991c0.53008,-0.70407 1.64915,-1.95793 1.64915,-1.95793l0.06244,0.54938l-1.92284,3.23386l-1.76052,0.66175c0,0 1.41293,-1.74479 1.97178,-2.48708z" data-paper-data="{&quot;index&quot;:null}" fill="#808080" stroke="#000000" stroke-width="0.25" stroke-linecap="round"/><path d="M224.82073,175.30699l-2.07051,-3.64657l27.14625,5.34102l-25.09169,-0.9021z" fill="none" stroke="#000000" stroke-width="0.25" stroke-linecap="round"/><path d="M264.85418,186.3035l5.76852,0.65552" fill="none" stroke="#000000" stroke-width="0.25" stroke-linecap="round"/><path d="M264.85418,174.04539l5.76852,-0.65552" data-paper-data="{&quot;index&quot;:null}" fill="none" stroke="#000000" stroke-width="0.25" stroke-linecap="round"/><path d="M274.29173,180.5532c0,0 -0.14398,0.19989 -0.27227,0.24113c-0.1691,0.05436 -0.45564,0.02356 -0.45564,0.02356c0,0 -0.0236,-0.20399 -0.01843,-0.29697c0.00579,-0.10424 0.01843,-0.2655 0.01843,-0.2655c0,0 0.32333,0.00345 0.48528,0.08742c0.12752,0.06612 0.24262,0.21036 0.24262,0.21036z" fill="#000000" stroke="#8a7100" stroke-width="0.25" stroke-linecap="round"/><path d="M226.61994,170.68986l-2.18506,-2.35985l2.79686,-0.26221" fill="none" stroke="#000000" stroke-width="0.5" stroke-linecap="round"/><path d="M227.41574,193.1442l-2.79686,-0.26221l2.18506,-2.35985" data-paper-data="{&quot;index&quot;:null}" fill="none" stroke="#000000" stroke-width="0.5" stroke-linecap="round"/><path d="M210.56832,186.00188v-10.54991l14.21209,0.52951l-0.12324,8.64841z" fill="#3a4758" stroke="#000000" stroke-width="0.5" stroke-linecap="butt"/><path d="M210.46741,175.34569l-1.53288,-1.61357" fill="none" stroke="#000000" stroke-width="0.5" stroke-linecap="round"/><path d="M210.46739,185.99528l-1.21017,1.21017" fill="none" stroke="#000000" stroke-width="0.5" stroke-linecap="round"/><path d="M220.2053,171.76623l2.02794,3.27591" fill="none" stroke="#000000" stroke-width="0.5" stroke-linecap="round"/><path d="M217.92061,171.99171l1.958,3.16294" fill="none" stroke="#000000" stroke-width="0.5" stroke-linecap="round"/><path d="M215.76267,172.31479l1.6083,2.59806" fill="none" stroke="#000000" stroke-width="0.5" stroke-linecap="round"/><path d="M213.49342,172.45901l1.46844,2.37211" fill="none" stroke="#000000" stroke-width="0.5" stroke-linecap="round"/><path d="M212.32227,174.52681l-1.04881,-1.69425" fill="none" stroke="#000000" stroke-width="0.5" stroke-linecap="round"/><path d="M222.29321,185.78836l-2.1678,3.50185" data-paper-data="{&quot;index&quot;:null}" fill="none" stroke="#000000" stroke-width="0.5" stroke-linecap="round"/><path d="M219.72878,185.99863l-2.02793,3.27591" data-paper-data="{&quot;index&quot;:null}" fill="none" stroke="#000000" stroke-width="0.5" stroke-linecap="round"/><path d="M217.29109,186.19739l-1.74818,2.82401" data-paper-data="{&quot;index&quot;:null}" fill="none" stroke="#000000" stroke-width="0.5" stroke-linecap="round"/><path d="M214.95189,186.29525l-1.46844,2.37211" data-paper-data="{&quot;index&quot;:null}" fill="none" stroke="#000000" stroke-width="0.25" stroke-linecap="round"/><path d="M211.12363,188.36376l1.04881,-1.69425" data-paper-data="{&quot;index&quot;:null}" fill="none" stroke="#000000" stroke-width="0.5" stroke-linecap="round"/><path d="M251.27046,167.24963l0.67701,-1.03808l-0.61988,-0.10284l-0.66253,-2.48448c0,0 0.99829,0.04919 1.38898,0.43371c0.48542,0.47775 1.1911,2.0487 1.1911,2.0487l-0.39178,0.18257l-0.61479,0.97432z" fill="#f8f8f8" stroke="#000000" stroke-width="0.25" stroke-linecap="round"/><path d="M251.79349,193.87824l0.61479,0.97432l0.3918,0.18258c0,0 -0.70568,1.57094 -1.1911,2.0487c-0.3907,0.38452 -1.38898,0.43371 -1.38898,0.43371l0.66253,-2.48448l0.61988,-0.10284l-0.67701,-1.03808z" data-paper-data="{&quot;index&quot;:null}" fill="#f8f8f8" stroke="#000000" stroke-width="0.25" stroke-linecap="round"/><path d="M270.60434,191.25533l0.2789,-0.08581l0.53634,-0.47198l0.2789,-0.06436" fill="none" stroke="#ffffff" stroke-width="0.125" stroke-linecap="round"/><path d="M271.27519,190.42846l0.5712,-0.09862" fill="none" stroke="#ffffff" stroke-width="0.125" stroke-linecap="round"/><path d="M272.38871,189.47674l-0.44161,0.0608" fill="none" stroke="#ffffff" stroke-width="0.125" stroke-linecap="round"/><path d="M272.29217,189.10126l0.25387,0.05662" fill="none" stroke="#ffffff" stroke-width="0.125" stroke-linecap="round"/><path d="M272.06639,171.52395c-0.55884,-0.74229 -1.97178,-2.48708 -1.97178,-2.48708l1.76052,0.66175l1.92284,3.23386l-0.06244,0.54938c0,0 -1.11908,-1.25386 -1.64915,-1.95793z" data-paper-data="{&quot;index&quot;:null}" fill="#808080" stroke="#000000" stroke-width="0.25" stroke-linecap="round"/><path d="M272.03348,170.38987l-0.2789,-0.06436l-0.53634,-0.47198l-0.2789,-0.08581" data-paper-data="{&quot;index&quot;:null}" fill="none" stroke="#ffffff" stroke-width="0.125" stroke-linecap="round"/><path d="M271.61019,170.59458l0.57121,0.09862" data-paper-data="{&quot;index&quot;:null}" fill="none" stroke="#ffffff" stroke-width="0.125" stroke-linecap="round"/><path d="M272.7237,171.5463l-0.44161,-0.0608" data-paper-data="{&quot;index&quot;:null}" fill="none" stroke="#ffffff" stroke-width="0.125" stroke-linecap="round"/><path d="M272.88105,171.86515l-0.25387,0.05662" data-paper-data="{&quot;index&quot;:null}" fill="none" stroke="#ffffff" stroke-width="0.125" stroke-linecap="round"/><path d="M224.91947,184.56811l25.09169,-0.9021l-26.90414,5.42172l1.74772,-3.32377z" data-paper-data="{&quot;index&quot;:null}" fill="none" stroke="#000000" stroke-width="0.25" stroke-linecap="round"/><path d="M230.45078,167.35761l-1.28236,2.33155" fill="none" stroke="#000000" stroke-width="0.25" stroke-linecap="round"/><path d="M231.34139,193.94264l-1.28236,-2.33155" data-paper-data="{&quot;index&quot;:null}" fill="none" stroke="#000000" stroke-width="0.25" stroke-linecap="round"/><path d="M254.67024,193.62482l-0.55949,-0.83924" fill="none" stroke="#000000" stroke-width="0.25" stroke-linecap="round"/><path d="M253.95088,168.34103l0.53189,-0.83924" data-paper-data="{&quot;index&quot;:null}" fill="none" stroke="#000000" stroke-width="0.25" stroke-linecap="round"/><path d="M250.62803,171.73779l10.76348,-2.46023l2.25521,5.02296c0,0 0.39428,4.39495 0.39428,6.45415c0,1.88998 -0.39428,5.43694 -0.39428,5.43694l-2.56273,5.74053l-10.47961,-2.38137c0,0 0.40203,-5.84597 0.40595,-8.79618c0.00396,-2.98698 -0.38229,-9.01679 -0.38229,-9.01679z" fill="#3a485a" stroke="#000000" stroke-width="0.5" stroke-linecap="round"/><path d="M231.4751,162.34922" fill="none" stroke="#000000" stroke-width="0.25" stroke-linecap="round"/><path d="M205.15149,172.07751l3.43352,0.95376" fill="none" stroke="#000000" stroke-width="0.25" stroke-linecap="round"/><path d="M208.96651,187.90982l-3.52889,0.85838" fill="none" stroke="#000000" stroke-width="0.25" stroke-linecap="round"/></g></g></svg>