<svg version="1.1" xmlns="http://www.w3.org/2000/svg" xmlns:xlink="http://www.w3.org/1999/xlink" width="24.84275" height="20.3863" viewBox="0,0,24.84275,20.3863"><g transform="translate(-229.54637,-165.88145)"><g data-paper-data="{&quot;isPaintingLayer&quot;:true}" fill-rule="nonzero" stroke="none" stroke-width="0.59874" stroke-linecap="butt" stroke-linejoin="miter" stroke-miterlimit="10" stroke-dasharray="" stroke-dashoffset="0" style="mix-blend-mode: normal"><path d="M253.51666,171.00349l-14.30139,14.37973c-0.56719,0.57047 -1.32255,0.88453 -2.12733,0.88453c0,0 0,0 -0.00021,0c-0.50293,0 -1.00107,-0.12665 -1.44054,-0.36676c-0.04031,-0.02126 -0.08493,-0.04835 -0.12955,-0.0754l-0.02854,-0.01736c-0.02229,-0.01322 -0.04462,-0.02705 -0.0665,-0.04155c-0.187,-0.12126 -0.36407,-0.2663 -0.51843,-0.42605l-4.51603,-4.67553c-1.15063,-1.19135 -1.11757,-3.09675 0.07399,-4.24783c0.5628,-0.54362 1.30374,-0.84302 2.0862,-0.84302c0.82255,0 1.58972,0.32587 2.16122,0.91718l2.40233,2.48705l12.14518,-12.21126c0.56798,-0.57129 1.32462,-0.88577 2.13023,-0.88577c0.79898,0 1.55128,0.31013 2.1176,0.8738c1.1744,1.16799 1.17958,3.07405 0.01177,4.24824z" fill="#284a00"/><path d="M253.07678,170.56671l-14.30139,14.37973c-0.76513,0.76944 -1.92445,0.90579 -2.83148,0.41072c-0.03969,-0.02126 -0.07792,-0.04524 -0.11674,-0.06857c-0.02005,-0.01263 -0.0401,-0.02398 -0.05973,-0.03679c-0.14832,-0.09649 -0.28925,-0.2093 -0.41756,-0.34216l-4.51583,-4.67512c-0.91469,-0.94713 -0.88867,-2.45648 0.05867,-3.37137c0.94675,-0.91448 2.45586,-0.88826 3.37075,0.05887l2.84204,2.94202l12.59124,-12.65984c0.92853,-0.93371 2.43788,-0.93785 3.37096,-0.00949c0.93391,0.92874 0.93785,2.43808 0.00908,3.372z" fill="#3cf300"/></g></g></svg>