<svg version="1.1" xmlns="http://www.w3.org/2000/svg" xmlns:xlink="http://www.w3.org/1999/xlink" width="75.79418" height="36.86952" viewBox="0,0,75.79418,36.86952"><defs><radialGradient cx="236.86271" cy="172.88398" r="6.34038" gradientUnits="userSpaceOnUse" id="color-1"><stop offset="0" stop-color="#00bfba"/><stop offset="1" stop-color="#2100bf"/></radialGradient></defs><g transform="translate(-202.10291,-161.56524)"><g data-paper-data="{&quot;isPaintingLayer&quot;:true}" fill-rule="nonzero" stroke-linejoin="miter" stroke-miterlimit="10" stroke-dasharray="" stroke-dashoffset="0" style="mix-blend-mode: normal"><path d="M203.49243,187.13144c0,0 -1.25082,-3.23294 -1.1315,-7.00594c0.12036,-3.64271 1.49306,-7.70208 1.49306,-7.70208c0,0 0.53969,-4.00696 0.71206,-4.95707c0.07352,-0.40528 0.23005,-1.10203 0.66215,-1.70947c0.45372,-0.63785 1.32417,-1.31488 1.32417,-1.31488c0,0 4.7156,-0.66532 7.72229,-0.66532c3.13535,0 9.44163,0.80297 9.44163,0.80297l32.41908,0.22369c0,0 5.59698,-0.96737 7.59712,-0.99982c1.72699,-0.02802 6.83004,0.67876 6.83004,0.67876c0,0 2.22737,0.96941 3.06454,1.44749c0.83954,0.70598 1.2442,1.68412 1.2442,1.68412l1.28434,4.53682c0,0 1.49149,2.6501 1.49149,7.86916c0,5.16554 -1.57435,7.62827 -1.57435,7.62827l-1.28057,4.34702c0,0 -0.32007,1.08498 -0.95352,1.5654c-0.73686,0.55886 -3.63069,1.72576 -3.63069,1.72576c0,0 -4.30712,0.93045 -6.2612,0.94863c-2.00173,0.01862 -7.74037,-0.70056 -7.74037,-0.70056l-32.25335,-0.09751c0,0 -6.11906,0.80297 -9.34693,0.80297c-2.93018,0 -8.44039,-0.80297 -8.44039,-0.80297c0,0 -0.85271,-0.58253 -1.06047,-1.16409c-0.20198,-0.56541 -0.53137,-1.23114 -0.6092,-1.65772c-0.1602,-0.87819 -1.00359,-5.48366 -1.00359,-5.48366z" fill="#517fcd" stroke="#000000" stroke-width="0.5" stroke-linecap="round"/><path d="M243.96581,171.79462c0,0 0.77563,-1.53715 2.39091,-2.07219c1.87046,-0.61956 8.179,-2.07135 8.179,-2.07135c0,0 2.31543,0.29553 3.25786,3.15756c0.78368,2.37996 1.03453,7.18271 1.01711,9.09683c-0.01687,1.85451 -0.28991,7.13674 -0.9824,9.54041c-0.89263,3.09838 -3.06152,3.151 -3.06152,3.151c0,0 -6.66927,-1.83727 -8.37294,-2.41715c-1.87936,-0.63967 -2.428,-1.74087 -2.428,-1.74087z" fill="#4c5e73" stroke="#000000" stroke-width="0.5" stroke-linecap="round"/><path d="M208.4692,194.9959l-1.33873,-0.5228c0,0 -0.53733,-0.43139 -1.27278,-1.41079c-0.8179,-1.14932 -1.68096,-3.25361 -1.41866,-3.12979c0.34279,0.16183 1.84334,3.54767 3.08103,3.71044c3.18283,0.41857 9.19158,0.67459 15.29188,0.59907c4.53115,-0.05609 8.15208,0.09529 12.08894,0.0484c8.33474,-0.09926 15.41486,-0.30191 15.41486,-0.30191c0,0 7.5601,-0.97241 10.82922,-2.05535c4.64109,-1.53744 14.30464,-6.70647 14.30464,-6.70647c0,0 -1.69679,4.52112 -2.51996,5.73488c-0.91567,1.35014 -4.30291,3.05164 -4.30291,3.05164c0,0 -2.64479,0.14285 -5.16748,0.23002c-3.32315,0.11484 -13.04026,0.39915 -13.04026,0.39915c0,0 -9.61662,0.15795 -15.43034,0.20087c-2.06793,0.01527 -6.13241,-0.16967 -10.33921,-0.01602c-3.65474,0.13348 -7.2417,0.60841 -9.89535,0.61781c-5.60037,0.01982 -6.28487,-0.44914 -6.28487,-0.44914z" data-paper-data="{&quot;index&quot;:null}" fill="#ffffff" stroke="none" stroke-width="0" stroke-linecap="round"/><path d="M252.70526,193.32573c0,0 -10.9884,0.69414 -14.34786,0.73052c-5.46274,0.05916 -15.30871,-0.40933 -15.30871,-0.40933c0,0 -1.32577,-0.05615 -1.81439,-0.19295c-0.37044,-0.10372 -1.32104,-0.49913 -1.32104,-0.49913l-0.58154,-0.80784c0,0 1.18626,-0.41537 2.66225,-0.90081c1.49513,-0.49173 3.21336,-0.97506 5.3362,-1.25166c2.9945,-0.39017 5.17133,-0.40076 8.21525,-0.24162c3.00469,0.01992 7.91947,1.07741 7.91947,1.07741c0,0 7.40014,1.79322 8.87092,2.19895c1.61968,0.44681 0.36948,0.29646 0.36948,0.29646z" fill="#4c5e73" stroke="#000000" stroke-width="0.5" stroke-linecap="round"/><path d="M252.14308,166.7439c-1.47078,0.40574 -8.87092,2.19895 -8.87092,2.19895c0,0 -4.91479,1.0575 -7.91947,1.07741c-3.04392,0.15913 -5.22072,0.14857 -8.21525,-0.2416c-2.12285,-0.2766 -3.84106,-0.75993 -5.3362,-1.25166c-1.47599,-0.48544 -2.66225,-0.90081 -2.66225,-0.90081l0.58154,-0.80784c0,0 0.95061,-0.39542 1.32104,-0.49913c0.48862,-0.13681 1.81439,-0.19295 1.81439,-0.19295c0,0 9.84597,-0.46849 15.30871,-0.40933c3.35947,0.03638 14.34787,0.73052 14.34787,0.73052c0,0 1.2502,-0.15035 -0.36948,0.29646z" data-paper-data="{&quot;index&quot;:null}" fill="#4c5e73" stroke="#000000" stroke-width="0.5" stroke-linecap="round"/><path d="M208.4692,164.95966c0,0 0.6845,-0.46895 6.28487,-0.44913c2.65367,0.00939 6.24062,0.48433 9.89535,0.61781c4.20678,0.15363 8.27128,-0.0313 10.33921,-0.01602c5.81372,0.04292 15.43034,0.20086 15.43034,0.20086c0,0 9.71711,0.28431 13.04026,0.39915c2.52269,0.08718 5.16748,0.23002 5.16748,0.23002c0,0 3.38723,1.7015 4.30291,3.05164c0.82316,1.21375 2.51996,5.73488 2.51996,5.73488c0,0 -9.66354,-5.16902 -14.30464,-6.70647c-3.26911,-1.08295 -10.82922,-2.05537 -10.82922,-2.05537c0,0 -7.08012,-0.20265 -15.41486,-0.30191c-3.93685,-0.04689 -7.55778,0.10449 -12.08894,0.0484c-6.10031,-0.07553 -12.10905,0.18049 -15.29188,0.59907c-1.23769,0.16278 -2.73824,3.54862 -3.08103,3.71044c-0.2623,0.12383 0.60074,-1.98046 1.41866,-3.12978c0.73544,-0.9794 1.27278,-1.41079 1.27278,-1.41079l1.33873,-0.5228z" fill="#ffffff" stroke="none" stroke-width="0" stroke-linecap="round"/><path d="M221.48498,172.72947l-0.32681,14.61417c0,0 0.06912,0.63147 -0.57207,0.97241c-1.6547,0.87983 -5.26546,2.09704 -6.39792,2.40867c-1.48801,0.40948 -1.89467,-0.36991 -1.89467,-0.36991c0,0 -1.67344,-2.41953 -2.0204,-10.59826c0.75544,-8.19916 2.14295,-10.72077 2.14295,-10.72077c0,0 0.35656,-0.6472 1.53148,-0.36632c1.1963,0.28599 4.87255,1.76337 6.67701,2.85216c0.71483,0.43132 0.86042,1.20785 0.86042,1.20785z" fill="#4c5e73" stroke="#000000" stroke-width="0.5" stroke-linecap="round"/><path d="M206.80848,192.44833c0,0 -1.33842,-1.36145 -2.185,-2.94168c-0.90566,-1.69053 -1.4065,-3.19015 -1.4065,-3.19015" fill="none" stroke="#000000" stroke-width="0.5" stroke-linecap="round"/><path d="M203.65496,172.82652c0,0 0.50085,-1.49962 1.4065,-3.19013c0.84657,-1.58023 2.185,-2.94168 2.185,-2.94168" data-paper-data="{&quot;index&quot;:null}" fill="none" stroke="#000000" stroke-width="0.5" stroke-linecap="round"/><path d="M256.40669,168.32108c0,0 0.52067,-0.88924 0.80552,-1.18646c0.23181,-0.24188 0.90596,-0.65808 0.90596,-0.65808c0,0 0.55419,-0.12949 1.16691,-0.05377c1.77819,0.21973 11.61853,1.10721 11.61853,1.10721c0,0 0.98447,0.31749 1.15048,0.94393c0.62455,2.35645 1.82758,8.3699 1.85319,11.69161c0.02298,2.98136 -1.44076,8.99666 -2.09091,11.61398c-0.25001,1.00647 -0.94241,0.97492 -0.94241,0.97492c0,0 -9.61798,0.66513 -11.39616,0.88486c-0.61271,0.07573 -1.16691,-0.05377 -1.16691,-0.05377c0,0 -0.67417,-0.41619 -0.90596,-0.65808c-0.28485,-0.29724 -0.67705,-0.99376 -0.67705,-0.99376" fill="none" stroke="#000000" stroke-width="0.25" stroke-linecap="round"/><path d="M273.09454,193.13503c0,0 -1.14745,0.59892 -1.70521,0.80808c-0.40171,0.15065 -1.19147,0.33907 -1.54587,0.36062c-0.23243,0.01413 -0.12784,-0.1184 -0.12784,-0.1184c0,0 2.20225,-0.85773 3.17134,-2.04582c0.92376,-1.13252 2.6422,-4.79554 2.6422,-4.79554c0,0 -0.77273,2.50881 -1.13512,3.48382c-0.15457,0.41587 -0.38643,1.03048 -0.64995,1.45437c-0.24861,0.39992 -0.64954,0.85285 -0.64954,0.85285z" fill="#ffffff" stroke="#000000" stroke-width="0.25" stroke-linecap="round"/><path d="M273.25515,166.99394c0,0 0.40091,0.45294 0.64954,0.85285c0.26351,0.42389 0.49538,1.03851 0.64995,1.45437c0.3624,0.97502 1.13512,3.48382 1.13512,3.48382c0,0 -1.71845,-3.66303 -2.64221,-4.79554c-0.96909,-1.1881 -3.17134,-2.04582 -3.17134,-2.04582c0,0 -0.10458,-0.13253 0.12784,-0.11839c0.3544,0.02154 1.14415,0.20997 1.54587,0.36062c0.55776,0.20916 1.70521,0.80808 1.70521,0.80808z" data-paper-data="{&quot;index&quot;:null}" fill="#ffffff" stroke="#000000" stroke-width="0.25" stroke-linecap="round"/><path d="M252.72924,193.1502l-0.38543,1.20446c0,0 0.32551,0.70262 0.10794,0.97579c-0.20019,0.25133 -0.58658,1.217 -1.14709,1.70347c-0.82173,0.71319 -1.70704,1.14291 -1.70704,1.14291l-0.70662,-0.09637c0,0 -0.46239,-0.28564 -0.31125,-0.66085c0.251,-0.62311 1.14633,-2.58318 1.14633,-2.58318c0,0 0.32577,-0.55574 0.56237,-0.67822c0.27641,-0.14307 0.94715,-0.12806 0.94715,-0.12806l0.2409,-1.20446z" fill="#517fcd" stroke="#000000" stroke-width="0.5" stroke-linecap="round"/><path d="M250.94121,167.17431l-0.2409,-1.20446c0,0 -0.67074,0.01501 -0.94715,-0.12806c-0.2366,-0.12248 -0.56237,-0.67822 -0.56237,-0.67822c0,0 -0.89532,-1.96008 -1.14633,-2.58318c-0.15116,-0.37521 0.31125,-0.66085 0.31125,-0.66085l0.70662,-0.09637c0,0 0.88531,0.42973 1.70704,1.14291c0.56051,0.48648 0.94691,1.45213 1.14709,1.70347c0.21758,0.27317 -0.10795,0.97579 -0.10795,0.97579l0.38543,1.20446z" data-paper-data="{&quot;index&quot;:null}" fill="#517fcd" stroke="#000000" stroke-width="0.5" stroke-linecap="round"/><path d="M277.40449,176.73358c0,0 -2.9752,-0.98541 -4.26207,-1.44869c-1.38281,-0.49781 -4.51715,-2.51266 -4.51715,-2.51266" fill="none" stroke="#000000" stroke-width="0.5" stroke-linecap="round"/><path d="M268.51821,187.22581c0,0 3.13434,-2.01484 4.51715,-2.51266c1.28688,-0.46328 4.26207,-1.44869 4.26207,-1.44869" data-paper-data="{&quot;index&quot;:null}" fill="none" stroke="#000000" stroke-width="0.5" stroke-linecap="round"/><path d="M262.90893,191.61176c0,0 -3.36833,1.1611 -5.09245,1.46103c-1.35335,0.23544 -5.20025,0.71796 -5.20025,0.71796" fill="none" stroke="#000000" stroke-width="0.5" stroke-linecap="round"/><path d="M251.98359,166.20852c0,0 3.8469,0.48252 5.20025,0.71795c1.72411,0.29993 5.09245,1.46103 5.09245,1.46103" data-paper-data="{&quot;index&quot;:null}" fill="none" stroke="#000000" stroke-width="0.5" stroke-linecap="round"/><path d="M206.23024,167.98514h3.19049c0,0 1.16979,0.28129 1.63817,0.50704c0.65193,0.3142 1.14548,0.77773 1.14548,0.77773" fill="none" stroke="#000000" stroke-width="0.25" stroke-linecap="round"/><path d="M212.0438,190.1473c0,0 -0.49356,0.46352 -1.14548,0.77773c-0.4684,0.22574 -1.63817,0.50704 -1.63817,0.50704h-3.19049" data-paper-data="{&quot;index&quot;:null}" fill="none" stroke="#000000" stroke-width="0.25" stroke-linecap="round"/><path d="M221.01177,193.36849c0,0 -1.97,0.42175 -3.94436,0.18589c-1.37684,-0.11649 -3.27936,-0.70625 -3.85953,-1.07704c-1.32001,-0.84362 -1.68134,-3.79594 -1.68134,-3.79594" fill="none" stroke="#000000" stroke-width="0.5" stroke-linecap="round"/><path d="M211.77933,170.91331c0,0 0.34122,-2.78795 1.58772,-3.58459c0.54787,-0.35014 2.34446,-0.90707 3.64465,-1.01708c1.86443,-0.22274 3.72474,0.17552 3.72474,0.17552" data-paper-data="{&quot;index&quot;:null}" fill="none" stroke="#000000" stroke-width="0.5" stroke-linecap="round"/><path d="M221.95785,164.55911l-0.32119,1.71302" fill="none" stroke="#000000" stroke-width="0.25" stroke-linecap="round"/><path d="M222.38611,195.50047l-0.53531,-1.92714" fill="none" stroke="#000000" stroke-width="0.25" stroke-linecap="round"/><path d="M227.19407,164.57196l-0.67533,0.0247c0,0 -0.78807,-0.45826 -1.24971,-0.41881c-0.69917,-0.04164 -0.59766,-0.06629 -1.02563,-0.03207c-0.55445,0.04434 -1.20834,0.32733 -1.20834,0.32733l-0.78161,-0.1189c0,0 0.65311,-0.34749 1.34685,-0.50663c0.67085,-0.1539 1.37581,-0.11995 1.79034,-0.10167c0.80158,0.03533 1.80344,0.82604 1.80344,0.82604z" fill="#5285cc" stroke="#000000" stroke-width="0.25" stroke-linecap="round"/><path d="M240.42128,164.68585l-0.67533,0.0247c0,0 -0.78807,-0.45826 -1.24971,-0.41881c-0.69917,-0.04164 -0.59766,-0.06629 -1.02563,-0.03207c-0.55445,0.04434 -1.20834,0.32733 -1.20834,0.32733l-0.78162,-0.11889c0,0 0.65311,-0.34749 1.34685,-0.50663c0.67085,-0.1539 1.37581,-0.11995 1.79034,-0.10167c0.80158,0.03533 1.80344,0.82604 1.80344,0.82604z" fill="#5285cc" stroke="#000000" stroke-width="0.25" stroke-linecap="round"/><path d="M226.47465,196.37151c-0.41452,0.01827 -1.11948,0.05222 -1.79034,-0.10167c-0.69374,-0.15914 -1.34685,-0.50663 -1.34685,-0.50663l0.78161,-0.11889c0,0 0.65388,0.28299 1.20834,0.32733c0.42797,0.03424 0.32647,0.00957 1.02563,-0.03207c0.46165,0.03945 1.24971,-0.41879 1.24971,-0.41879l0.67533,0.0247c0,0 -1.00186,0.79071 -1.80344,0.82604z" data-paper-data="{&quot;index&quot;:null}" fill="#5281cc" stroke="#000000" stroke-width="0.25" stroke-linecap="round"/><path d="M239.46097,196.37808c-0.41452,0.01827 -1.11948,0.05222 -1.79034,-0.10167c-0.69374,-0.15914 -1.34685,-0.50663 -1.34685,-0.50663l0.78162,-0.1189c0,0 0.65388,0.28299 1.20834,0.32733c0.42797,0.03424 0.32647,0.00958 1.02563,-0.03207c0.46165,0.03945 1.24971,-0.41879 1.24971,-0.41879l0.67533,0.0247c0,0 -1.00186,0.79071 -1.80344,0.82604z" data-paper-data="{&quot;index&quot;:null}" fill="#5281cc" stroke="#000000" stroke-width="0.25" stroke-linecap="round"/><path d="M235.17353,194.00158l0.36134,1.44536" fill="none" stroke="#000000" stroke-width="0.25" stroke-linecap="round"/><path d="M234.81218,164.85353l-0.36134,1.08402" fill="none" stroke="#000000" stroke-width="0.25" stroke-linecap="round"/><path d="M204.20674,190.5809c0,0 1.21802,2.19298 1.67793,2.8298c0.33472,0.46347 0.46602,0.59891 0.46602,0.59891c0,0 0.33617,0.3101 0.70557,0.52472c0.40206,0.2336 0.84347,0.37632 0.93352,0.45668c0.17514,0.15627 0.04717,0.23109 0.04717,0.23109l-1.63004,-0.68254c0,0 -0.355,-0.27774 -0.62279,-0.60541c-0.21832,-0.26712 -0.37843,-0.55395 -0.53187,-0.86084c-0.36358,-0.72718 -1.04547,-2.49243 -1.04547,-2.49243z" fill="#650000" stroke="#000000" stroke-width="0.25" stroke-linecap="round"/><path d="M205.33981,166.72783c0.15344,-0.30689 0.31355,-0.59371 0.53187,-0.86084c0.26781,-0.32766 0.62279,-0.60541 0.62279,-0.60541l1.63004,-0.68254c0,0 0.12797,0.07482 -0.04717,0.23109c-0.09006,0.08035 -0.53146,0.22308 -0.93353,0.45668c-0.36938,0.21462 -0.70557,0.52472 -0.70557,0.52472c0,0 -0.13129,0.13544 -0.466,0.59891c-0.45992,0.63681 -1.67794,2.8298 -1.67794,2.8298c0,0 0.68189,-1.76525 1.04547,-2.49243z" data-paper-data="{&quot;index&quot;:null}" fill="#670000" stroke="#000000" stroke-width="0.25" stroke-linecap="round"/><text transform="translate(271.31865,183.7046) rotate(-89.56978) scale(0.053,0.04679) skewX(-0.10943)" font-size="40" xml:space="preserve" data-paper-data="{&quot;index&quot;:null}" fill="#ffffff" fill-rule="nonzero" stroke="none" stroke-width="1" stroke-linecap="butt" stroke-linejoin="miter" stroke-miterlimit="10" stroke-dasharray="" stroke-dashoffset="0" font-family="Sans Serif" font-weight="normal" text-anchor="start" style="mix-blend-mode: normal"><tspan x="0" dy="0">POLIZIA</tspan></text><path d="M234.48261,186.47535v-12.88777c0,0 0.21161,-0.26477 0.53912,-0.30024c0.94671,-0.10253 2.86176,-0.0611 3.43298,-0.0611c0.32857,0 0.58305,0.36134 0.58305,0.36134v12.88777c0,0 -0.1714,0.30111 -0.52284,0.30111c-0.54962,0 -2.4349,0.09252 -3.43811,0.00407c-0.42598,-0.03755 -0.59421,-0.30519 -0.59421,-0.30519z" fill="#0010ca" stroke="#000000" stroke-width="0.5" stroke-linecap="butt"/><path d="M236.08285,185.28796v-9.99706c0,0 0.03243,-0.25175 0.25669,-0.32533c0.27816,-0.09127 0.66045,-0.04526 0.81111,-0.04526c0.21725,0 0.43778,0.3706 0.43778,0.3706v9.99706c0,0 -0.19632,0.15596 -0.39692,0.20532c-0.24648,0.06065 -0.51828,0.01704 -0.67088,0.01704c-0.19866,0 -0.43778,-0.22236 -0.43778,-0.22236z" fill="#ffffff" stroke="#000000" stroke-width="0.5" stroke-linecap="butt"/><path d="M234.63055,176.80575h1.223" fill="none" stroke="#000000" stroke-width="0.5" stroke-linecap="round"/><path d="M237.6695,176.84282h1.0377" fill="none" stroke="#000000" stroke-width="0.5" stroke-linecap="round"/><path d="M237.81774,183.81017h1.07476" fill="none" stroke="#000000" stroke-width="0.5" stroke-linecap="round"/><path d="M235.92765,183.81018l-1.18593,0.00001" fill="none" stroke="#000000" stroke-width="0.5" stroke-linecap="round"/><path d="M243.04259,172.88398c0,3.50169 -2.76682,6.34038 -6.17986,6.34038c-3.41304,0 -6.17986,-2.83869 -6.17986,-6.34038c0,-3.50169 2.76682,-6.34038 6.17986,-6.34038c3.41304,0 6.17986,2.83869 6.17986,6.34038z" fill="url(#color-1)" stroke="none" stroke-width="0" stroke-linecap="butt"/></g></g></svg>