<svg version="1.1" xmlns="http://www.w3.org/2000/svg" xmlns:xlink="http://www.w3.org/1999/xlink" width="72.57462" height="38.97382" viewBox="0,0,72.57462,38.97382"><g transform="translate(-203.64989,-160.51308)"><g data-paper-data="{&quot;isPaintingLayer&quot;:true}" fill-rule="nonzero" stroke-width="0.25" stroke-linecap="round" stroke-linejoin="miter" stroke-miterlimit="10" stroke-dasharray="" stroke-dashoffset="0" style="mix-blend-mode: normal"><path d="M207.14251,194.96994c0,0 -1.34226,-1.13434 -1.78747,-2.99726c-0.44211,-1.84998 -1.14717,-4.40198 -1.45565,-6.84641c-0.24167,-1.91503 -0.1442,-3.76404 -0.12452,-5.1578c0.02821,-1.9971 -0.0211,-4.39329 0.40703,-6.57485c0.35526,-1.81015 1.15503,-3.43393 1.54807,-4.9102c0.3332,-1.25148 1.83741,-3.58871 1.83741,-3.58871c0,0 2.07834,-0.49033 3.64717,-0.69142c2.0126,-0.25797 3.73539,-0.2214 4.99231,0.00658c1.56805,0.28443 3.69088,0.71119 3.69088,0.71119c0,0 12.1327,-0.49188 18.08894,-0.49188c5.81297,0 17.22916,0.49188 17.22916,0.49188c0,0 3.21824,-0.45865 6.18883,-0.83742c2.39378,-0.30523 4.75229,-0.12567 6.20428,0.07152c2.25628,0.3064 4.95613,1.25779 4.95613,1.25779c0,0 2.49627,2.00952 3.00501,4.67181c0.49976,2.00469 0.51471,4.27586 0.52941,5.90312c0.02096,2.31918 0.04141,5.25692 0.02922,7.99413c-0.00708,1.58923 -0.37673,4.08625 -0.83369,5.81247c-0.75128,2.83804 -3.0132,5.11398 -3.0132,5.11398c0,0 -2.63376,0.6827 -4.63144,0.91032c-1.42715,0.15186 -4.43373,0.16377 -6.87327,-0.02734c-3.08935,-0.24202 -5.96845,-0.40866 -5.96845,-0.40866c0,0 -11.19281,0.45248 -16.92087,0.43231c-5.90917,-0.0208 -18.00776,-0.55527 -18.00776,-0.55527c0,0 -2.13434,0.22928 -3.67163,0.47537c-1.21474,0.19446 -2.78935,0.2572 -5.10882,0.0047c-1.85992,-0.20247 -3.95708,-0.76994 -3.95708,-0.76994z" fill="#1b2e14" stroke="#000000"/><path d="M274.08687,173.04967c0,0 -0.53081,-0.43081 -0.73552,-0.82316c-0.19088,-0.36585 -0.55328,-1.25875 -0.55328,-1.25875l-1.58622,-4.16382c0,0 0.16037,-0.2669 0.40006,-0.25092c0.25503,0.01701 0.69046,0.05264 0.69046,0.05264c0,0 1.02772,2.01186 1.38161,2.93872c0.33948,0.88911 0.70029,2.5139 0.70029,2.5139z" data-paper-data="{&quot;index&quot;:null}" fill="#455050" stroke="#000000"/><path d="M272.28243,168.59176l-0.46159,-1.16711" fill="none" stroke="#ffffff"/><path d="M272.80961,170.00278l0.42226,1.12514" fill="none" stroke="#ffffff"/><path d="M272.20376,167.165l0.61109,1.35071" fill="none" stroke="#ffffff"/><path d="M273.84296,171.46887l-0.49832,-1.56576" fill="none" stroke="#ffffff"/><path d="M274.186,188.34629c0,0 -0.36082,1.62479 -0.70029,2.5139c-0.35389,0.92686 -1.38161,2.93872 -1.38161,2.93872c0,0 -0.43543,0.03564 -0.69046,0.05264c-0.23969,0.01598 -0.40006,-0.25092 -0.40006,-0.25092l1.58622,-4.16382c0,0 0.36241,-0.8929 0.55328,-1.25875c0.2047,-0.39236 0.73552,-0.82316 0.73552,-0.82316z" data-paper-data="{&quot;index&quot;:null}" fill="#455050" stroke="#000000"/><path d="M271.62257,192.97992l0.4616,-1.16711" data-paper-data="{&quot;index&quot;:null}" fill="none" stroke="#ffffff"/><path d="M272.61134,190.40179l0.42226,-1.12514" data-paper-data="{&quot;index&quot;:null}" fill="none" stroke="#ffffff"/><path d="M272.61658,191.88887l-0.61109,1.35071" data-paper-data="{&quot;index&quot;:null}" fill="none" stroke="#ffffff"/><path d="M273.64469,188.9357l-0.49832,1.56577" data-paper-data="{&quot;index&quot;:null}" fill="none" stroke="#ffffff"/><path d="M274.01754,173.055c0,0 0.29838,1.46624 0.45194,3.12275c0.12774,1.37791 0.11709,2.8684 0.10348,3.93232c-0.01328,1.03766 -0.02977,2.58296 -0.18455,3.93024c-0.20211,1.75925 -0.55264,3.22455 -0.55264,3.22455" fill="none" stroke="#000000"/><path d="M271.10031,192.82401l-11.4318,0.27038c0,0 -0.61168,-0.00232 -0.76721,-0.19197c-0.13802,-0.16829 -0.39075,-0.39385 -0.39075,-0.39385" fill="none" stroke="#000000"/><path d="M258.80737,167.76687c0,0 0.25273,-0.22556 0.39075,-0.39386c0.15552,-0.18965 0.76721,-0.19196 0.76721,-0.19196l11.4318,0.27038" data-paper-data="{&quot;index&quot;:null}" fill="none" stroke="#000000"/><path d="M248.69827,171.0443c0,0 3.8819,-1.07803 5.54576,-1.72289c1.48196,-0.57437 3.95502,-1.95941 3.95502,-1.95941c0,0 0.52308,0.20335 0.87662,0.94051c0.46083,0.96086 0.72424,2.49021 1.01503,4.05688c0.46139,2.48574 0.23144,5.39059 0.20551,7.77699c-0.02308,2.12271 -0.11266,5.31584 -0.63329,7.99349c-0.34875,1.79369 -0.61046,3.09666 -0.9563,3.9072c-0.22287,0.52237 -0.54298,0.82242 -0.54298,0.82242c0,0 -2.14237,-1.38819 -3.75041,-1.91754c-1.58861,-0.52295 -5.65417,-1.82671 -5.65417,-1.82671c0,0 0.45678,-5.66645 0.49528,-8.97576c0.03609,-3.10155 -0.55607,-9.09519 -0.55607,-9.09519z" fill="#203756" stroke="#000000"/><path d="M231.92026,169.37155c0,0 -3.71249,-0.08421 -5.44603,-0.38425c-1.70269,-0.2947 -4.43949,-0.83373 -4.43949,-0.83373c0,0 -0.10092,-0.2018 0.35941,-0.35025c0.99183,-0.31988 3.14481,-0.75324 4.35599,-0.92963c2.04064,-0.37693 5.51003,-0.71705 5.51003,-0.71705c0,0 6.09405,-0.06654 9.64575,-0.10455c4.77512,-0.04559 14.54406,0.64273 14.54406,0.64273c0,0 -0.97407,0.66107 -1.9954,1.08009c-1.42152,0.58319 -5.80822,1.73829 -5.80822,1.73829z" fill="#203756" stroke="#000000"/><path d="M248.62155,190.56191c0,0 4.38669,1.15509 5.80822,1.73829c1.02133,0.41901 1.9954,1.08009 1.9954,1.08009c0,0 -9.76893,0.68831 -14.54406,0.64273c-3.55168,-0.03801 -9.64575,-0.10455 -9.64575,-0.10455c0,0 -3.46939,-0.34011 -5.51003,-0.71705c-1.21118,-0.17638 -3.36416,-0.60976 -4.35599,-0.92963c-0.46033,-0.14846 -0.35941,-0.35025 -0.35941,-0.35025c0,0 2.7368,-0.53904 4.43949,-0.83373c1.73355,-0.30004 5.44603,-0.38425 5.44603,-0.38425z" data-paper-data="{&quot;index&quot;:null}" fill="#203756" stroke="#000000"/><path d="M253.3926,166.54078l-0.24785,-1.48708" fill="none" stroke="#000000"/><path d="M253.35129,193.67995l-0.16524,1.611" fill="none" stroke="#000000"/><path d="M217.80706,190.33402c0,0 -7.46926,-0.59347 -8.75654,-0.73847c-0.36416,-0.04101 -0.70078,-0.32678 -0.70078,-0.32678c0,0 -0.53986,-2.68769 -0.52578,-4.79253c0.01217,-1.8217 -0.17713,-5.67443 0.00961,-8.84404c0.17502,-2.97053 0.72721,-4.99402 0.72721,-4.99402c0,0 0.28426,-0.28982 0.73833,-0.33221c1.39034,-0.12983 8.63636,-0.54318 8.63636,-0.54318c0,0 -1.06981,6.937 -1.09115,10.35418c-0.02147,3.43975 0.96273,10.21706 0.96273,10.21706z" fill="#203756" stroke="#000000"/><path d="M217.95058,169.76278c0,0 0.36245,0.00355 0.53871,0.04235c0.16986,0.0374 0.34782,0.41521 0.34782,0.41521c0,0 -0.27117,2.37914 -0.38335,4.76938c-0.10419,2.22008 -0.05027,4.43928 -0.043,5.03488c0.01032,0.84653 -0.00518,1.84574 0.07911,2.97408c0.24015,3.21483 0.36629,6.47742 0.36629,6.47742c0,0 -0.19874,0.63929 -0.44456,0.68398c-0.19828,0.03605 -0.46104,0.17396 -0.46104,0.17396" fill="none" stroke="#000000"/><path d="M205.5789,169.60681l2.43858,0.08831c0,0 0.35265,0.21124 0.42333,0.29605c0.06679,0.08016 0.19487,0.37058 0.19487,0.37058" fill="none" stroke="#000000"/><path d="M208.36531,189.52464c0,0 -0.12807,0.29043 -0.19486,0.37058c-0.07067,0.08481 -0.42333,0.29605 -0.42333,0.29605l-2.43858,0.08831" data-paper-data="{&quot;index&quot;:null}" fill="none" stroke="#000000"/><path d="M250.95296,163.89703l0.30291,1.50085c0,0 -0.46998,0.09256 -0.69198,0.08425c-0.20594,-0.00771 -0.59545,-0.13244 -0.59545,-0.13244c0,0 -0.11152,-0.67994 -0.26578,-0.96835c-0.16205,-0.30296 -0.68429,-0.80789 -0.68429,-0.80789c0,0 0.60515,0.21387 0.96289,0.25801c0.34887,0.04304 0.97169,0.06557 0.97169,0.06557z" fill="#000000" stroke="#000000"/><path d="M248.59867,163.21942l-0.68635,-2.5166c0,0 0.80857,-0.11817 1.22839,-0.0657c0.39169,0.04896 1.13569,0.52326 1.13569,0.52326c0,0 0.58582,0.94309 0.76399,1.33761c0.17772,0.3935 0.30366,1.25523 0.30366,1.25523c0,0 -0.89738,0.19655 -1.35922,0.09263c-0.54206,-0.12197 -1.38616,-0.62646 -1.38616,-0.62646z" fill="#1b2e14" stroke="#000000"/><path d="M250.3067,196.22266c-0.35773,0.04414 -0.96289,0.25801 -0.96289,0.25801c0,0 0.52224,-0.50493 0.68429,-0.80789c0.15426,-0.28841 0.26578,-0.96835 0.26578,-0.96835c0,0 0.39243,-0.12485 0.59904,-0.13257c0.22149,-0.00829 0.68838,0.08438 0.68838,0.08438l-0.30291,1.50085c0,0 -0.62283,0.02252 -0.97169,0.06557z" data-paper-data="{&quot;index&quot;:null}" fill="#000000" stroke="#000000"/><path d="M250.2552,196.15316c0.46184,-0.10392 1.35921,0.09263 1.35921,0.09263c0,0 -0.12595,0.86173 -0.30365,1.25523c-0.17817,0.39452 -0.76399,1.33761 -0.76399,1.33761c0,0 -0.744,0.4743 -1.13569,0.52326c-0.4198,0.05247 -1.22839,-0.0657 -1.22839,-0.0657l0.68635,-2.5166c0,0 0.84409,-0.50448 1.38616,-0.62646z" data-paper-data="{&quot;index&quot;:null}" fill="#1b2e14" stroke="#000000"/><path d="M273.43269,185.7325l-11.97924,1.48708" fill="none" stroke="#000000"/><path d="M273.35008,174.24896l-11.64878,-1.81755" fill="none" stroke="#000000"/><path d="M273.03953,179.95883l0.32615,-0.00506c0,0 0.13496,0.10606 0.12656,0.16721c-0.0084,0.06116 -0.11683,0.14187 -0.11683,0.14187h-0.33101z" fill="#000000" stroke="#252525"/><path d="M225.17574,195.21739l-0.5084,-1.40765c0,0 0.05809,-0.32842 0.15395,-0.45168c0.07862,-0.10109 0.42118,-0.31727 0.42118,-0.31727" fill="none" stroke="#000000"/><path d="M225.33198,166.99733c0,0 -0.34256,-0.21619 -0.42118,-0.31727c-0.09587,-0.12327 -0.15395,-0.45168 -0.15395,-0.45168l0.5084,-1.40764" data-paper-data="{&quot;index&quot;:null}" fill="none" stroke="#000000"/><path d="M226.76095,165.97513l0.39655,-0.44062l1.66333,-0.14321l0.53975,0.24235" fill="none" stroke="#000000"/><path d="M238.37118,164.64227l0.3635,1.29982" fill="none" stroke="#000000"/><path d="M239.90232,165.52349l0.39655,-0.4296h1.20069l0.77107,0.34148" fill="none" stroke="#000000"/><path d="M229.21896,194.44205l-0.53975,0.24235l-1.66333,-0.14321l-0.39655,-0.44062" data-paper-data="{&quot;index&quot;:null}" fill="none" stroke="#000000"/><path d="M238.59307,194.13362l-0.3635,1.29982" data-paper-data="{&quot;index&quot;:null}" fill="none" stroke="#000000"/><path d="M242.129,194.64034l-0.77107,0.34148h-1.20069l-0.39655,-0.4296" data-paper-data="{&quot;index&quot;:null}" fill="none" stroke="#000000"/><path d="M221.62778,166.7108l-11.75499,1.41626" fill="none" stroke="#000000"/><path d="M222.19429,193.47819l-12.60475,-1.55789" fill="none" stroke="#000000"/></g></g></svg>