<svg version="1.1" xmlns="http://www.w3.org/2000/svg" xmlns:xlink="http://www.w3.org/1999/xlink" width="72.29054" height="38.82171" viewBox="0,0,72.29054,38.82171"><g transform="translate(-203.79191,-160.58914)"><g data-paper-data="{&quot;isPaintingLayer&quot;:true}" fill-rule="nonzero" stroke-width="0.25" stroke-linecap="round" stroke-linejoin="miter" stroke-miterlimit="10" stroke-dasharray="" stroke-dashoffset="0" style="mix-blend-mode: normal"><path d="M207.27131,194.91114c0,0 -1.33698,-1.12988 -1.78045,-2.98549c-0.44037,-1.84271 -1.14266,-4.38469 -1.44993,-6.81953c-0.24072,-1.90751 -0.14363,-3.74926 -0.12403,-5.13754c0.0281,-1.98926 -0.02102,-4.37604 0.40543,-6.54903c0.35386,-1.80304 1.15048,-3.42044 1.54199,-4.89091c0.33189,-1.24656 1.8302,-3.57461 1.8302,-3.57461c0,0 2.07018,-0.4884 3.63284,-0.68871c2.00469,-0.25696 3.72072,-0.22054 4.9727,0.00656c1.56188,0.28331 3.67638,0.7084 3.67638,0.7084c0,0 12.08504,-0.48994 18.0179,-0.48994c5.79013,0 17.16148,0.48994 17.16148,0.48994c0,0 3.20559,-0.45684 6.16452,-0.83413c2.38438,-0.30403 4.73362,-0.12517 6.17992,0.07124c2.24741,0.30519 4.93666,1.25285 4.93666,1.25285c0,0 2.48647,2.00163 2.99321,4.65347c0.49779,1.99682 0.51268,4.25906 0.52733,5.87993c0.02088,2.31007 0.04124,5.23627 0.0291,7.96272c-0.00705,1.58299 -0.37525,4.0702 -0.83041,5.78963c-0.74833,2.82689 -3.00136,5.0939 -3.00136,5.0939c0,0 -2.62342,0.68002 -4.61326,0.90674c-1.42154,0.15127 -4.41631,0.16313 -6.84628,-0.02723c-3.07722,-0.24108 -5.94501,-0.40705 -5.94501,-0.40705c0,0 -11.14885,0.4507 -16.85441,0.43062c-5.88596,-0.02071 -17.93703,-0.55309 -17.93703,-0.55309c0,0 -2.12596,0.22838 -3.65722,0.4735c-1.20998,0.1937 -2.77839,0.25619 -5.08876,0.00468c-1.85261,-0.20167 -3.94153,-0.76691 -3.94153,-0.76691z" fill="#ffffff" stroke="#000000"/><path d="M273.95273,173.07697c0,0 -0.52872,-0.42912 -0.73263,-0.81992c-0.19013,-0.36441 -0.55111,-1.25381 -0.55111,-1.25381l-1.57998,-4.14747c0,0 0.15974,-0.26585 0.39849,-0.24994c0.25403,0.01694 0.68775,0.05243 0.68775,0.05243c0,0 1.02368,2.00395 1.37618,2.92717c0.33814,0.88562 0.69754,2.50403 0.69754,2.50403z" data-paper-data="{&quot;index&quot;:null}" fill="#455050" stroke="#000000"/><path d="M272.15538,168.63656l-0.45978,-1.16252" fill="none" stroke="#ffffff"/><path d="M272.68048,170.04204l0.4206,1.12072" fill="none" stroke="#ffffff"/><path d="M272.6857,168.56082l-0.60869,-1.3454" fill="none" stroke="#ffffff"/><path d="M273.70976,171.50238l-0.49636,-1.5596" fill="none" stroke="#ffffff"/><path d="M274.05147,188.3135c0,0 -0.3594,1.61841 -0.69754,2.50403c-0.35251,0.92322 -1.37618,2.92717 -1.37618,2.92717c0,0 -0.43372,0.0355 -0.68775,0.05243c-0.23876,0.01592 -0.39849,-0.24994 -0.39849,-0.24994l1.57998,-4.14747c0,0 0.36098,-0.8894 0.55111,-1.25381c0.2039,-0.39082 0.73263,-0.81992 0.73263,-0.81992z" data-paper-data="{&quot;index&quot;:null}" fill="#455050" stroke="#000000"/><path d="M271.4981,192.92894l0.45979,-1.16252" data-paper-data="{&quot;index&quot;:null}" fill="none" stroke="#ffffff"/><path d="M272.48299,190.36094l0.4206,-1.12072" data-paper-data="{&quot;index&quot;:null}" fill="none" stroke="#ffffff"/><path d="M272.4882,191.84217l-0.60869,1.3454" data-paper-data="{&quot;index&quot;:null}" fill="none" stroke="#ffffff"/><path d="M273.51228,188.9006l-0.49636,1.55962" data-paper-data="{&quot;index&quot;:null}" fill="none" stroke="#ffffff"/><path d="M273.88366,173.08228c0,0 0.29721,1.46048 0.45017,3.11049c0.12724,1.3725 0.11663,2.85714 0.10307,3.91687c-0.01322,1.03358 -0.02965,2.57282 -0.18383,3.9148c-0.20132,1.75234 -0.55047,3.21189 -0.55047,3.21189" fill="none" stroke="#000000"/><path d="M270.97789,192.77364l-11.38689,0.26932c0,0 -0.60928,-0.00231 -0.7642,-0.19122c-0.13748,-0.16763 -0.38921,-0.3923 -0.38921,-0.3923" fill="none" stroke="#000000"/><path d="M258.73324,167.81491c0,0 0.25174,-0.22468 0.38922,-0.39231c0.15492,-0.1889 0.76419,-0.19121 0.76419,-0.19121l11.38689,0.26932" data-paper-data="{&quot;index&quot;:null}" fill="none" stroke="#000000"/><path d="M248.66385,171.07948c0,0 3.86665,-1.07379 5.52397,-1.71612c1.47614,-0.57211 3.93948,-1.9517 3.93948,-1.9517c0,0 0.52103,0.20255 0.87318,0.93681c0.45902,0.95709 0.72139,2.48043 1.01105,4.04094c0.45958,2.47598 0.23053,5.36942 0.20469,7.74645c-0.02299,2.11437 -0.11222,5.29496 -0.6308,7.96209c-0.34738,1.78664 -0.60807,3.08449 -0.95254,3.89185c-0.22199,0.52032 -0.54085,0.81919 -0.54085,0.81919c0,0 -2.13396,-1.38274 -3.73568,-1.91001c-1.58237,-0.52091 -5.63196,-1.81953 -5.63196,-1.81953c0,0 0.45499,-5.64419 0.49333,-8.9405c0.03594,-3.08936 -0.55388,-9.05946 -0.55388,-9.05946z" fill="#203756" stroke="#000000"/><path d="M231.95173,169.41329c0,0 -3.69791,-0.08387 -5.42465,-0.38274c-1.696,-0.29354 -4.42206,-0.83046 -4.42206,-0.83046c0,0 -0.10053,-0.201 0.35799,-0.34888c0.98794,-0.31862 3.13245,-0.75029 4.33888,-0.92598c2.03262,-0.37546 5.48839,-0.71423 5.48839,-0.71423c0,0 6.07012,-0.06628 9.60786,-0.10414c4.75637,-0.04541 14.48693,0.6402 14.48693,0.6402c0,0 -0.97024,0.65848 -1.98756,1.07584c-1.41594,0.5809 -5.7854,1.73146 -5.7854,1.73146z" fill="#203756" stroke="#000000"/><path d="M248.58742,190.52042c0,0 4.36946,1.15055 5.7854,1.73146c1.01732,0.41736 1.98756,1.07584 1.98756,1.07584c0,0 -9.73056,0.6856 -14.48693,0.6402c-3.53774,-0.03786 -9.60786,-0.10414 -9.60786,-0.10414c0,0 -3.45577,-0.33878 -5.48839,-0.71423c-1.20643,-0.1757 -3.35095,-0.60737 -4.33888,-0.92598c-0.45852,-0.14788 -0.35799,-0.34888 -0.35799,-0.34888c0,0 2.72605,-0.53692 4.42206,-0.83046c1.72674,-0.29886 5.42465,-0.38274 5.42465,-0.38274z" data-paper-data="{&quot;index&quot;:null}" fill="#203756" stroke="#000000"/><path d="M253.33974,166.59364l-0.24687,-1.48124" fill="none" stroke="#000000"/><path d="M253.29859,193.62622l-0.16458,1.60468" fill="none" stroke="#000000"/><path d="M217.89398,190.29344c0,0 -7.43993,-0.59114 -8.72214,-0.73556c-0.36273,-0.04085 -0.69803,-0.3255 -0.69803,-0.3255c0,0 -0.53774,-2.67714 -0.52372,-4.77371c0.01213,-1.81455 -0.17643,-5.65214 0.00957,-8.8093c0.17433,-2.95886 0.72436,-4.97441 0.72436,-4.97441c0,0 0.28314,-0.28868 0.73543,-0.33091c1.38488,-0.12932 8.60244,-0.54105 8.60244,-0.54105c0,0 -1.06561,6.90975 -1.08686,10.31352c-0.02139,3.42624 0.95895,10.17692 0.95895,10.17692z" fill="#203756" stroke="#000000"/><path d="M218.03693,169.80299c0,0 0.36102,0.00354 0.53659,0.04218c0.16918,0.03724 0.34645,0.41357 0.34645,0.41357c0,0 -0.27011,2.36979 -0.38185,4.75064c-0.10379,2.21136 -0.05007,4.42184 -0.04282,5.0151c0.01028,0.8432 -0.00516,1.83849 0.0788,2.9624c0.23921,3.2022 0.36486,6.45198 0.36486,6.45198c0,0 -0.19796,0.63678 -0.44281,0.68129c-0.1975,0.0359 -0.45922,0.17328 -0.45922,0.17328" fill="none" stroke="#000000"/><path d="M205.71385,169.64763l2.429,0.08797c0,0 0.35127,0.2104 0.42167,0.29489c0.06653,0.07984 0.1941,0.36912 0.1941,0.36912" fill="none" stroke="#000000"/><path d="M208.48931,189.48723c0,0 -0.12756,0.28929 -0.19409,0.36912c-0.0704,0.08448 -0.42167,0.29489 -0.42167,0.29489l-2.429,0.08797" data-paper-data="{&quot;index&quot;:null}" fill="none" stroke="#000000"/><path d="M250.90967,163.96027l0.30173,1.49495c0,0 -0.46813,0.09219 -0.68926,0.08391c-0.20513,-0.00768 -0.59311,-0.13192 -0.59311,-0.13192c0,0 -0.11109,-0.67727 -0.26473,-0.96454c-0.16142,-0.30177 -0.6816,-0.80472 -0.6816,-0.80472c0,0 0.60278,0.21303 0.9591,0.257c0.3475,0.04288 0.96788,0.06531 0.96788,0.06531z" fill="#000000" stroke="#000000"/><path d="M248.56464,163.28533l-0.68365,-2.50672c0,0 0.8054,-0.11771 1.22356,-0.06544c0.39015,0.04877 1.13123,0.52121 1.13123,0.52121c0,0 0.58352,0.93939 0.76099,1.33236c0.17702,0.39196 0.30247,1.2503 0.30247,1.2503c0,0 -0.89386,0.19578 -1.35388,0.09227c-0.53993,-0.12149 -1.38071,-0.624 -1.38071,-0.624z" fill="#ffffff" stroke="#000000"/><path d="M250.26596,196.15894c-0.35633,0.04396 -0.9591,0.257 -0.9591,0.257c0,0 0.52019,-0.50295 0.6816,-0.80472c0.15366,-0.28727 0.26473,-0.96454 0.26473,-0.96454c0,0 0.39088,-0.12436 0.59669,-0.13205c0.22061,-0.00825 0.68567,0.08405 0.68567,0.08405l-0.30173,1.49495c0,0 -0.62039,0.02243 -0.96788,0.06531z" data-paper-data="{&quot;index&quot;:null}" fill="#000000" stroke="#000000"/><path d="M250.21466,196.08971c0.46003,-0.10351 1.35387,0.09227 1.35387,0.09227c0,0 -0.12545,0.85835 -0.30246,1.2503c-0.17748,0.39297 -0.76099,1.33236 -0.76099,1.33236c0,0 -0.74108,0.47243 -1.13123,0.52121c-0.41815,0.05227 -1.22356,-0.06544 -1.22356,-0.06544l0.68365,-2.50672c0,0 0.84078,-0.5025 1.38072,-0.624z" data-paper-data="{&quot;index&quot;:null}" fill="#ffffff" stroke="#000000"/><path d="M273.30111,185.70998l-11.93218,1.48124" fill="none" stroke="#000000"/><path d="M261.6158,172.46114l11.60302,1.81041" fill="none" stroke="#000000"/><path d="M272.9095,179.95899l0.32487,-0.00505c0,0 0.13443,0.10565 0.12607,0.16656c-0.00836,0.06092 -0.11636,0.14132 -0.11636,0.14132h-0.32971z" fill="#000000" stroke="#252525"/><path d="M225.23371,195.15762l-0.5064,-1.40212c0,0 0.05786,-0.32712 0.15335,-0.4499c0.07832,-0.1007 0.41953,-0.31603 0.41953,-0.31603" fill="none" stroke="#000000"/><path d="M225.38933,167.0484c0,0 -0.34122,-0.21534 -0.41953,-0.31603c-0.09549,-0.12278 -0.15335,-0.44991 -0.15335,-0.44991l0.5064,-1.40211" data-paper-data="{&quot;index&quot;:null}" fill="none" stroke="#000000"/><path d="M226.81269,166.03022l0.395,-0.43889l1.65679,-0.14264l0.53763,0.24139" fill="none" stroke="#000000"/><path d="M238.73939,165.9973l-0.36207,-1.29471" fill="none" stroke="#000000"/><path d="M239.90244,165.58035l0.395,-0.42791h1.19597l0.76804,0.34013" fill="none" stroke="#000000"/><path d="M229.26105,194.38532l-0.53763,0.24139l-1.65679,-0.14264l-0.395,-0.43889" data-paper-data="{&quot;index&quot;:null}" fill="none" stroke="#000000"/><path d="M238.23626,195.37281l0.36207,-1.29471" data-paper-data="{&quot;index&quot;:null}" fill="none" stroke="#000000"/><path d="M242.12038,194.58283l-0.76804,0.34013h-1.19597l-0.395,-0.42791" data-paper-data="{&quot;index&quot;:null}" fill="none" stroke="#000000"/><path d="M221.69969,166.76299l-11.70882,1.4107" fill="none" stroke="#000000"/><path d="M222.26397,193.42525l-12.55524,-1.55177" fill="none" stroke="#000000"/></g></g></svg>