<svg version="1.1" xmlns="http://www.w3.org/2000/svg" xmlns:xlink="http://www.w3.org/1999/xlink" width="160.69945" height="95.48052" viewBox="0,0,160.69945,95.48052"><g transform="translate(-159.65033,-132.25975)"><g data-paper-data="{&quot;isPaintingLayer&quot;:true}" fill-rule="nonzero" stroke-linejoin="miter" stroke-miterlimit="10" stroke-dasharray="" stroke-dashoffset="0" style="mix-blend-mode: normal"><path d="M159.65033,227.74027v-95.48052h160.69945v95.48052z" fill="#59ad0d" stroke="none" stroke-width="0" stroke-linecap="butt"/><path d="M197.5751,170.54346c0,0 0.80632,-2.20175 1.21395,-2.99337c0.41371,-0.8034 1.88633,-1.7922 1.88633,-1.7922c0,0 3.7572,-1.34432 5.7114,-1.84053c1.78782,-0.45396 5.55914,-1.02127 5.55914,-1.02127c0,0 2.91605,0.29347 4.20518,0.57549c1.25342,0.27421 3.4255,1.09388 3.4255,1.09388c0,0 34.1243,0.31074 38.76065,0.30283c0.62448,-0.00107 2.42029,-0.51661 3.15023,-0.81135c1.2069,-0.48733 2.14111,-0.58631 3.94063,-0.87584c1.76986,-0.28474 5.49706,0.65596 5.49706,0.65596l8.25338,3.09635l3.67037,6.74113c0,0 0.50876,4.52599 0.50876,6.74113c0,2.23634 -0.50876,6.61394 -0.50876,6.61394l-4.10232,7.34983l-7.97026,3.69191c0,0 -3.42542,0.74556 -5.34369,0.43802c-1.81291,-0.29064 -3.8401,-1.04262 -3.8401,-1.04262c0,0 -2.11631,-0.6264 -2.85189,-0.62657c-4.12112,-0.0009 -39.38862,0.27378 -39.38862,0.27378c0,0 -2.48835,0.88426 -3.61324,1.10487c-1.06361,0.20859 -3.8105,0.32608 -3.8105,0.32608c0,0 -3.78606,-0.35004 -5.56507,-0.90916c-1.91997,-0.60342 -5.70549,-1.88198 -5.70549,-1.88198c0,0 -1.26359,-0.93978 -1.76086,-1.77887c-0.48768,-0.82291 -1.19457,-3.20809 -1.19457,-3.20809l-1.0458,-1.61108l-0.01413,-17.086z" fill="#21be00" stroke="#000000" stroke-width="0.5" stroke-linecap="round"/><path d="M221.56856,186.87467l-2.96814,5.65376l-15.31592,-1.67822l-0.84793,-1.69588l-1.80188,-1.37791l-0.10599,-14.309l1.58989,-1.3779l0.74194,-1.4839l15.54557,-1.66054l3.16243,5.35318z" fill="#191919" stroke="#000000" stroke-width="0.5" stroke-linecap="round"/><path d="M223.77992,168.76289l-0.67229,-0.75709c0,0 20.57313,-1.53035 27.1934,-1.74253c6.60756,-0.21179 12.71734,0.09207 12.71734,0.09207l-12.10813,2.73687c0,0 -5.45495,0.72735 -8.32765,0.87612c-3.22619,0.16708 -10.09235,0.07782 -10.09235,0.07782z" fill="#3a4758" stroke="#000000" stroke-width="0.5" stroke-linecap="round"/><path d="M232.71528,191.52307c0,0 6.86616,-0.08926 10.09235,0.07782c2.8727,0.14876 8.32765,0.87612 8.32765,0.87612l12.10815,2.73687c0,0 -6.10978,0.30386 -12.71734,0.09207c-6.62027,-0.21218 -27.29939,-1.6447 -27.29939,-1.6447l0.77829,-0.85493z" data-paper-data="{&quot;index&quot;:null}" fill="#3a4758" stroke="#000000" stroke-width="0.5" stroke-linecap="round"/><path d="M266.11113,166.82901c0,0 4.39862,0.92548 9.64283,2.89832c5.22336,2.97806 6.17127,3.84281 6.17127,3.84281" fill="none" stroke="#000000" stroke-width="0.25" stroke-linecap="round"/><path d="M281.71323,187.36507c0,0 -1.26589,1.34171 -6.48925,4.31978c-5.2442,1.97284 -9.64283,2.89832 -9.64283,2.89832" data-paper-data="{&quot;index&quot;:null}" fill="none" stroke="#000000" stroke-width="0.25" stroke-linecap="round"/><path d="M276.52111,166.73059l2.13499,0.80251l2.33184,3.92173l-0.07572,0.66624c0,0 -1.35713,-1.52057 -1.99994,-2.37439c-0.67771,-0.90018 -2.39118,-3.01609 -2.39118,-3.01609z" fill="#808080" stroke="#000000" stroke-width="0.25" stroke-linecap="round"/><path d="M278.48076,191.53375c0.64282,-0.85382 1.99994,-2.37439 1.99994,-2.37439l0.07572,0.66624l-2.33183,3.92172l-2.13499,0.80251c0,0 1.71347,-2.11591 2.39118,-3.01609z" data-paper-data="{&quot;index&quot;:null}" fill="#808080" stroke="#000000" stroke-width="0.25" stroke-linecap="round"/><path d="M221.59204,174.32293l-2.51092,-4.4222l32.92035,6.47708l-30.42879,-1.09397z" fill="none" stroke="#000000" stroke-width="0.25" stroke-linecap="round"/><path d="M270.14074,187.65845l6.99551,0.79494" fill="none" stroke="#000000" stroke-width="0.25" stroke-linecap="round"/><path d="M270.14074,172.79299l6.99551,-0.79494" data-paper-data="{&quot;index&quot;:null}" fill="none" stroke="#000000" stroke-width="0.25" stroke-linecap="round"/><path d="M281.5857,180.68503c0,0 -0.17461,0.24241 -0.33019,0.29243c-0.20507,0.06592 -0.55256,0.02858 -0.55256,0.02858c0,0 -0.02862,-0.24737 -0.02235,-0.36014c0.00702,-0.12642 0.02235,-0.32197 0.02235,-0.32197c0,0 0.3921,0.00418 0.5885,0.10601c0.15464,0.08018 0.29423,0.25511 0.29423,0.25511z" fill="#000000" stroke="#8a7100" stroke-width="0.25" stroke-linecap="round"/><path d="M223.77395,168.72373l-2.64982,-2.8618l3.39177,-0.31798" fill="none" stroke="#000000" stroke-width="0.5" stroke-linecap="round"/><path d="M224.73902,195.95418l-3.39177,-0.31798l2.64982,-2.8618" data-paper-data="{&quot;index&quot;:null}" fill="none" stroke="#000000" stroke-width="0.5" stroke-linecap="round"/><path d="M204.3081,187.29267v-12.79392l17.23505,0.64214l-0.14945,10.48796z" fill="#3a4758" stroke="#000000" stroke-width="0.5" stroke-linecap="butt"/><path d="M204.18571,174.36988l-1.85894,-1.95678" fill="none" stroke="#000000" stroke-width="0.5" stroke-linecap="round"/><path d="M204.1857,187.28467l-1.46758,1.46758" fill="none" stroke="#000000" stroke-width="0.5" stroke-linecap="round"/><path d="M218.45419,174.00175l-2.45929,-3.9727" fill="none" stroke="#000000" stroke-width="0.5" stroke-linecap="round"/><path d="M215.59871,174.1382l-2.37447,-3.83571" fill="none" stroke="#000000" stroke-width="0.5" stroke-linecap="round"/><path d="M210.6073,170.69428l1.9504,3.15068" fill="none" stroke="#000000" stroke-width="0.5" stroke-linecap="round"/><path d="M207.85537,170.86919l1.78078,2.87667" fill="none" stroke="#000000" stroke-width="0.5" stroke-linecap="round"/><path d="M206.43513,173.37681l-1.2719,-2.05463" fill="none" stroke="#000000" stroke-width="0.5" stroke-linecap="round"/><path d="M218.52691,187.03373l-2.6289,4.24671" data-paper-data="{&quot;index&quot;:null}" fill="none" stroke="#000000" stroke-width="0.5" stroke-linecap="round"/><path d="M215.41702,187.28873l-2.45928,3.97271" data-paper-data="{&quot;index&quot;:null}" fill="none" stroke="#000000" stroke-width="0.5" stroke-linecap="round"/><path d="M212.46082,187.52977l-2.12002,3.42468" data-paper-data="{&quot;index&quot;:null}" fill="none" stroke="#000000" stroke-width="0.5" stroke-linecap="round"/><path d="M209.62406,187.64844l-1.78078,2.87667" data-paper-data="{&quot;index&quot;:null}" fill="none" stroke="#000000" stroke-width="0.25" stroke-linecap="round"/><path d="M204.98152,190.15694l1.2719,-2.05463" data-paper-data="{&quot;index&quot;:null}" fill="none" stroke="#000000" stroke-width="0.5" stroke-linecap="round"/><path d="M253.66771,164.55176l0.82101,-1.25889l-0.75174,-0.12472l-0.80345,-3.01293c0,0 1.21063,0.05965 1.68443,0.52596c0.58868,0.57937 1.44446,2.48446 1.44446,2.48446l-0.47512,0.2214l-0.74556,1.18155z" fill="#21be00" stroke="#000000" stroke-width="0.25" stroke-linecap="round"/><path d="M254.302,196.84435l0.74556,1.18155l0.47513,0.22141c0,0 -0.85578,1.90509 -1.44446,2.48446c-0.4738,0.46631 -1.68443,0.52596 -1.68443,0.52596l0.80345,-3.01294l0.75174,-0.12471l-0.82101,-1.25889z" data-paper-data="{&quot;index&quot;:null}" fill="#21be00" stroke="#000000" stroke-width="0.25" stroke-linecap="round"/><path d="M277.11399,193.66354l0.33823,-0.10407l0.65042,-0.57237l0.33823,-0.07806" fill="none" stroke="#ffffff" stroke-width="0.125" stroke-linecap="round"/><path d="M277.92753,192.66079l0.6927,-0.1196" fill="none" stroke="#ffffff" stroke-width="0.125" stroke-linecap="round"/><path d="M279.2779,191.50664l-0.53554,0.07373" fill="none" stroke="#ffffff" stroke-width="0.125" stroke-linecap="round"/><path d="M279.16082,191.05129l0.30787,0.06867" fill="none" stroke="#ffffff" stroke-width="0.125" stroke-linecap="round"/><path d="M278.88702,169.73524c-0.67771,-0.90018 -2.39118,-3.01609 -2.39118,-3.01609l2.13499,0.80251l2.33183,3.92172l-0.07572,0.66624c0,0 -1.35712,-1.52057 -1.99994,-2.37439z" data-paper-data="{&quot;index&quot;:null}" fill="#808080" stroke="#000000" stroke-width="0.25" stroke-linecap="round"/><path d="M278.84711,168.35993l-0.33823,-0.07804l-0.65042,-0.57237l-0.33823,-0.10407" data-paper-data="{&quot;index&quot;:null}" fill="none" stroke="#ffffff" stroke-width="0.125" stroke-linecap="round"/><path d="M278.33378,168.60819l0.69271,0.1196" data-paper-data="{&quot;index&quot;:null}" fill="none" stroke="#ffffff" stroke-width="0.125" stroke-linecap="round"/><path d="M279.14861,169.68861l0.53554,0.07373" data-paper-data="{&quot;index&quot;:null}" fill="none" stroke="#ffffff" stroke-width="0.125" stroke-linecap="round"/><path d="M279.87495,170.14902l-0.30787,0.06867" data-paper-data="{&quot;index&quot;:null}" fill="none" stroke="#ffffff" stroke-width="0.125" stroke-linecap="round"/><path d="M221.71178,185.55393l30.42879,-1.09397l-32.62675,6.57494l2.11946,-4.03075z" data-paper-data="{&quot;index&quot;:null}" fill="none" stroke="#000000" stroke-width="0.25" stroke-linecap="round"/><path d="M228.41962,164.6827l-1.55511,2.82748" fill="none" stroke="#000000" stroke-width="0.25" stroke-linecap="round"/><path d="M229.49968,196.92246l-1.55511,-2.82748" data-paper-data="{&quot;index&quot;:null}" fill="none" stroke="#000000" stroke-width="0.25" stroke-linecap="round"/><path d="M257.79065,196.53704l-0.6785,-1.01774" fill="none" stroke="#000000" stroke-width="0.25" stroke-linecap="round"/><path d="M256.91827,165.87529l0.64502,-1.01776" data-paper-data="{&quot;index&quot;:null}" fill="none" stroke="#000000" stroke-width="0.25" stroke-linecap="round"/><path d="M252.88864,169.99456l13.05291,-2.98352l2.7349,6.09136c0,0 0.47814,5.32978 0.47814,7.82697c0,2.29198 -0.47814,6.59339 -0.47814,6.59339l-3.10784,6.96156l-12.70865,-2.8879c0,0 0.48754,-7.08943 0.49229,-10.66716c0.00481,-3.62233 -0.46361,-10.93469 -0.46361,-10.93469z" fill="#3a485a" stroke="#000000" stroke-width="0.5" stroke-linecap="round"/><path d="M229.66182,158.60901" fill="none" stroke="#000000" stroke-width="0.25" stroke-linecap="round"/><path d="M197.73908,170.40654l4.16384,1.15662" fill="none" stroke="#000000" stroke-width="0.25" stroke-linecap="round"/><path d="M198.08607,190.6474l4.2795,-1.04096" fill="none" stroke="#000000" stroke-width="0.25" stroke-linecap="round"/></g></g></svg>