<svg version="1.1" xmlns="http://www.w3.org/2000/svg" xmlns:xlink="http://www.w3.org/1999/xlink" width="74.05598" height="38.38606" viewBox="0,0,74.05598,38.38606"><defs><linearGradient x1="269.95498" y1="191.1856" x2="274.9532" y2="191.1856" gradientUnits="userSpaceOnUse" id="color-1"><stop offset="0" stop-color="#000000"/><stop offset="1" stop-color="#ffffff"/></linearGradient><linearGradient x1="270.21255" y1="168.89875" x2="275.21077" y2="168.89875" gradientUnits="userSpaceOnUse" id="color-2"><stop offset="0" stop-color="#000000"/><stop offset="1" stop-color="#ffffff"/></linearGradient></defs><g transform="translate(-203.03432,-158.85537)"><g data-paper-data="{&quot;isPaintingLayer&quot;:true}" fill-rule="nonzero" stroke-linejoin="miter" stroke-miterlimit="10" stroke-dasharray="" stroke-dashoffset="0" style="mix-blend-mode: normal"><path d="M252.75297,164.37739c0,0 3.10277,-0.57946 4.77388,-0.67586c1.70158,-0.09817 5.34587,0.09203 5.34587,0.09203c0,0 3.14822,0.29987 4.86469,0.58723c2.10914,0.3531 6.85654,1.37508 6.85654,1.37508c0,0 1.13143,2.20566 1.48573,3.30076c0.28426,0.87864 0.6712,2.7646 0.6712,2.7646l0.08919,16.14455l-2.14071,6.51134c0,0 -5.54295,1.42804 -7.78177,1.79026c-1.43858,0.23274 -4.3472,0.17206 -4.3472,0.17206c0,0 -1.71982,-0.133 -3.34015,-0.29378c-0.99392,-0.09862 -1.86694,-0.20771 -2.52855,-0.30299c-1.33908,-0.19284 -3.68807,-0.7794 -3.68807,-0.7794l-21.45494,-0.36316c0,0 -3.69807,0.60824 -6.03523,0.97922c-3.07645,0.48833 -10.95669,1.10417 -10.95669,1.10417c0,0 -3.86732,-0.26795 -5.9199,-0.59782c-2.74069,-0.44047 -4.6881,-1.48556 -4.6881,-1.48556c0,0 -0.71319,-3.51612 -0.67278,-6.2838c0.04715,-3.22852 -0.17453,-11.139 0.13054,-16.96221c0.20411,-3.89607 0.98184,-6.85779 0.98184,-6.85779c0,0 3.71043,-1.10181 5.254,-1.4423c1.48699,-0.32801 4.91439,-0.69842 4.91439,-0.69842c0,0 7.88318,0.41 10.84051,0.91829c2.73363,0.46985 6.28521,1.35622 6.28521,1.35622z" fill="#ff0000" stroke="#000000" stroke-width="0.5" stroke-linecap="round"/><path d="M270.42476,188.53877l4.52844,-0.24701c0,0 -0.44877,1.93579 -0.71911,2.84643c-0.24943,0.84017 -0.84525,2.42303 -0.84525,2.42303l-3.43387,0.51822z" fill="url(#color-1)" stroke="#000000" stroke-width="0.5" stroke-linecap="round"/><path d="M265.0114,188.98162l4.3444,-0.38958l-0.44074,5.64889l-4.02958,0.58436z" fill="none" stroke="#000000" stroke-width="0.5" stroke-linecap="round"/><path d="M270.21255,166.0049l3.43387,0.51822c0,0 0.59583,1.58284 0.84525,2.42303c0.27034,0.91062 0.71912,2.84643 0.71912,2.84643l-4.52844,-0.24701z" data-paper-data="{&quot;index&quot;:null}" fill="url(#color-2)" stroke="#000000" stroke-width="0.5" stroke-linecap="round"/><path d="M265.14305,165.25904l4.02958,0.58436l0.44073,5.64889l-4.34439,-0.38958z" data-paper-data="{&quot;index&quot;:null}" fill="none" stroke="#000000" stroke-width="0.5" stroke-linecap="round"/><path d="M274.17846,180.32204v-0.60128h1.33794v0.60128z" fill="#ffd200" stroke="none" stroke-width="0" stroke-linecap="butt"/><path d="M264.32735,176.15486l-0.6151,-0.02085v-0.97306h0.6151l0.9939,0.53518z" fill="none" stroke="#000000" stroke-width="0.25" stroke-linecap="round"/><path d="M270.50276,158.85537v11.67662" fill="none" stroke="none" stroke-width="0" stroke-linecap="round"/><path d="M243.60854,172.01668l-0.35383,5.96403" fill="none" stroke="none" stroke-width="0" stroke-linecap="round"/><path d="M252.5429,165.96946c0,0 0.18964,-0.06581 0.06683,0.00347c-0.8022,0.45252 -9.34327,5.22938 -9.34327,5.22938c0,0 -1.07571,0.46935 -1.78276,0.4631c-2.05218,-0.01815 -9.63438,0.01262 -9.63438,0.01262l-9.03857,-3.56787l8.56286,-1.07036z" fill="#617298" stroke="#000000" stroke-width="0.5" stroke-linecap="round"/><path d="M252.06496,193.57788c0,0 0.08437,0.14704 -0.15567,0.13883c-1.69165,-0.05795 -20.89577,-0.98831 -20.89577,-0.98831l-7.71227,-1.54608l8.54924,-2.61643c0,0 7.31164,0.08556 9.5116,0.10445c0.81933,0.00703 2.16833,0.25234 2.16833,0.25234l8.53457,4.65521z" fill="#617298" stroke="#000000" stroke-width="0.5" stroke-linecap="round"/><path d="M228.30006,187.28706l-10.6302,3.07975c0,0 -3.57759,-1.87224 -5.68183,-4.81853c-1.2834,-1.79698 -1.51223,-4.54464 -1.51952,-5.90846c-0.0077,-1.44047 0.2141,-4.54443 1.58456,-6.45878c2.0388,-2.84793 5.50157,-4.36441 5.50157,-4.36441l10.86902,4.08341z" fill="#617298" stroke="#000000" stroke-width="0.5" stroke-linecap="round"/><path d="M265.93288,175.69612h-0.68809" fill="none" stroke="#000000" stroke-width="0.25" stroke-linecap="round"/><path d="M264.37194,184.67311l-0.61511,-0.02085v-0.97306h0.61511l0.9939,0.53518z" fill="none" stroke="#000000" stroke-width="0.25" stroke-linecap="round"/><path d="M265.2894,184.21439h0.68809" fill="none" stroke="#000000" stroke-width="0.25" stroke-linecap="round"/><path d="M258.84743,171.32983l16.34727,1.26497" fill="none" stroke="#000000" stroke-width="0.25" stroke-linecap="round"/><path d="M274.70816,187.4825l-16.34727,1.26497" data-paper-data="{&quot;index&quot;:null}" fill="none" stroke="#000000" stroke-width="0.25" stroke-linecap="round"/><path d="M210.84442,167.22283v4.16249" fill="none" stroke="#000000" stroke-width="0.5" stroke-linecap="round"/><path d="M211.91638,195.58267l-2.73535,-1.94643c0,0 -0.24137,-0.6588 -0.24729,-1.58222c-0.03332,-5.214 0.0955,-22.62125 0.11808,-25.3009c0.00565,-0.67002 0.36706,-1.34018 0.36706,-1.34018l2.4975,-1.70313" fill="none" stroke="#000000" stroke-width="0.5" stroke-linecap="round"/><path d="M231.538,164.84425v1.90286" fill="none" stroke="#000000" stroke-width="0.5" stroke-linecap="round"/><path d="M231.18121,194.69533v-1.78392" fill="none" stroke="#000000" stroke-width="0.5" stroke-linecap="round"/><path d="M249.65011,167.29977l-0.66897,-1.84689l-0.83426,-0.39351l-0.44598,-2.22992c0,0 0.02906,-0.12108 0.19807,-0.01967c0.32114,0.19267 1.58586,1.09003 1.58586,1.09003l0.80277,3.03269" fill="#ff0000" stroke="#000000" stroke-width="0.5" stroke-linecap="round"/><path d="M250.52547,192.86873l-0.80277,3.03268c0,0 -1.26472,0.89736 -1.58586,1.09003c-0.16901,0.1014 -0.19807,-0.01967 -0.19807,-0.01967l0.44598,-2.22991l0.83426,-0.39352l0.66897,-1.84689" data-paper-data="{&quot;index&quot;:null}" fill="#ff0000" stroke="#000000" stroke-width="0.5" stroke-linecap="round"/><path d="M221.11093,193.6547l-1.90285,0.26584l-3.33001,1.04238h-2.25964v-3.21108h2.14071l3.56787,0.87447l1.78392,0.19589" data-paper-data="{&quot;index&quot;:null}" fill="none" stroke="#000000" stroke-width="0.5" stroke-linecap="round"/><path d="M210.60656,188.51104v4.28144" fill="none" stroke="#000000" stroke-width="0.5" stroke-linecap="round"/><path d="M252.04468,193.52303l0.30581,0.15291" fill="none" stroke="#000000" stroke-width="0.5" stroke-linecap="round"/><path d="M221.07228,166.2476l-1.78392,0.19589l-3.56787,0.87447h-2.14071v-3.21108h2.25964l3.33001,1.04238l1.90285,0.26584" fill="none" stroke="#000000" stroke-width="0.5" stroke-linecap="round"/><path d="M254.37833,166.25538c0,0 1.50291,1.85983 1.90812,2.68714c0.44697,0.91256 0.66074,2.55761 0.66074,2.55761v17.01868c0,0 -0.49885,1.97089 -1.0016,2.6915c-0.56116,0.80435 -2.20947,1.91104 -2.20947,1.91104l-8.88397,-4.70957l-0.21407,-16.59054z" fill="#617298" stroke="#000000" stroke-width="0.5" stroke-linecap="round"/><path d="M226.9645,165.67918c0,0.70199 -0.80867,1.27105 -1.80623,1.27105c-0.99755,0 -1.80623,-0.56907 -1.80623,-1.27105c0,-0.70199 0.80867,-1.27105 1.80623,-1.27105c0.99755,0 1.80623,0.56907 1.80623,1.27105z" fill="#ff0000" stroke="#000000" stroke-width="0.25" stroke-linecap="butt"/><path d="M227.67808,193.63335c0,0.70199 -0.80867,1.27105 -1.80623,1.27105c-0.99755,0 -1.80623,-0.56907 -1.80623,-1.27105c0,-0.70199 0.80867,-1.27105 1.80623,-1.27105c0.99755,0 1.80623,0.56907 1.80623,1.27105z" fill="#ff0000" stroke="#000000" stroke-width="0.25" stroke-linecap="butt"/><path d="M231.97289,193.66353l1.07036,0.08233" fill="none" stroke="#000000" stroke-width="0.25" stroke-linecap="round"/><path d="M232.79624,165.75191h0.82335" fill="none" stroke="#000000" stroke-width="0.25" stroke-linecap="round"/></g></g></svg>