<svg version="1.1" xmlns="http://www.w3.org/2000/svg" xmlns:xlink="http://www.w3.org/1999/xlink" width="72.71652" height="34.57848" viewBox="0,0,72.71652,34.57848"><g transform="translate(-203.64174,-162.71076)"><g data-paper-data="{&quot;isPaintingLayer&quot;:true}" fill-rule="nonzero" stroke="#000000" stroke-linecap="round" stroke-linejoin="miter" stroke-miterlimit="10" stroke-dasharray="" stroke-dashoffset="0" style="mix-blend-mode: normal"><path d="M206.62689,186.682c0,0 -1.172,-3.0292 -1.06018,-6.56442c0.11277,-3.41315 1.39896,-7.21669 1.39896,-7.21669c0,0 0.50567,-3.75444 0.66719,-4.64466c0.06889,-0.37973 0.21556,-1.03257 0.62042,-1.60173c0.42512,-0.59765 1.24072,-1.23201 1.24072,-1.23201c0,0 4.41842,-0.62339 7.23562,-0.62339c2.93777,0 8.84661,0.75237 8.84661,0.75237l30.37601,0.20959c0,0 5.24426,-0.9064 7.11835,-0.93681c1.61815,-0.02626 6.39961,0.63598 6.39961,0.63598c0,0 2.087,0.90832 2.87142,1.35626c0.78662,0.66149 1.16579,1.57798 1.16579,1.57798l1.20339,4.25091c0,0 1.39749,2.48309 1.39749,7.37325c0,4.84 -1.47513,7.14753 -1.47513,7.14753l-1.19986,4.07307c0,0 -0.2999,1.0166 -0.89344,1.46675c-0.69042,0.52363 -3.40188,1.61701 -3.40188,1.61701c0,0 -4.03568,0.8718 -5.86661,0.88884c-1.87558,0.01745 -7.25257,-0.65641 -7.25257,-0.65641l-30.22072,-0.09136c0,0 -5.73342,0.75237 -8.75789,0.75237c-2.74551,0 -7.90848,-0.75237 -7.90848,-0.75237c0,0 -0.79897,-0.54581 -0.99364,-1.09073c-0.18926,-0.52978 -0.49789,-1.15355 -0.5708,-1.55325c-0.15012,-0.82284 -0.94035,-5.13808 -0.94035,-5.13808z" fill="#3f6e59" stroke-width="0.5"/><path d="M244.54962,172.31172c0,0 0.72675,-1.44027 2.24023,-1.9416c1.75258,-0.58051 7.66355,-1.94081 7.66355,-1.94081c0,0 2.16951,0.27691 3.05254,2.95856c0.7343,2.22997 0.96933,6.73005 0.95301,8.52354c-0.01581,1.73763 -0.27165,6.68698 -0.92049,8.93917c-0.83637,2.90311 -2.86858,2.95242 -2.86858,2.95242c0,0 -6.24896,-1.72148 -7.84528,-2.26481c-1.76092,-0.59936 -2.27498,-1.63116 -2.27498,-1.63116z" fill="#4c5e73" stroke-width="0.5"/><path d="M252.73829,192.48592c0,0 -10.29591,0.65039 -13.44365,0.68449c-5.11848,0.05544 -14.34395,-0.38353 -14.34395,-0.38353c0,0 -1.24222,-0.05261 -1.70004,-0.1808c-0.34709,-0.09718 -1.23779,-0.46767 -1.23779,-0.46767l-0.54489,-0.75693c0,0 1.1115,-0.38919 2.49448,-0.84404c1.40091,-0.46074 3.01085,-0.91361 4.99991,-1.17278c2.8058,-0.36559 4.84542,-0.37549 7.6975,-0.22639c2.81533,0.01866 7.42039,1.00952 7.42039,1.00952c0,0 6.93378,1.6802 8.31187,2.06037c1.5176,0.41865 0.34619,0.27777 0.34619,0.27777z" fill="#4c5e73" stroke-width="0.5"/><path d="M252.21153,167.57931c-1.3781,0.38017 -8.31187,2.06037 -8.31187,2.06037c0,0 -4.60505,0.99086 -7.42039,1.00952c-2.85209,0.1491 -4.89172,0.13921 -7.6975,-0.22638c-1.98906,-0.25917 -3.599,-0.71204 -4.99991,-1.17278c-1.38297,-0.45484 -2.49448,-0.84404 -2.49448,-0.84404l0.54489,-0.75693c0,0 0.8907,-0.37049 1.23779,-0.46767c0.45783,-0.1282 1.70004,-0.1808 1.70004,-0.1808c0,0 9.22546,-0.43896 14.34395,-0.38353c3.14776,0.03409 13.44366,0.68449 13.44366,0.68449c0,0 1.17142,-0.14088 -0.34619,0.27777z" data-paper-data="{&quot;index&quot;:null}" fill="#4c5e73" stroke-width="0.5"/><path d="M223.48553,173.18766l-0.30621,13.69317c0,0 0.06476,0.59168 -0.53602,0.91113c-1.55041,0.82438 -4.93363,1.96487 -5.99472,2.25687c-1.39423,0.38368 -1.77526,-0.3466 -1.77526,-0.3466c0,0 -1.56798,-2.26705 -1.89307,-9.93034c0.70784,-7.68244 2.0079,-10.04513 2.0079,-10.04513c0,0 0.3341,-0.60642 1.43497,-0.34324c1.1209,0.26797 4.56548,1.65225 6.25622,2.67243c0.66978,0.40414 0.80619,1.13172 0.80619,1.13172z" fill="#4c5e73" stroke-width="0.5"/><path d="M209.73396,191.66382c0,0 -1.25407,-1.27565 -2.04729,-2.75629c-0.84859,-1.58399 -1.31786,-2.9891 -1.31786,-2.9891" fill="none" stroke-width="0.5"/><path d="M206.77918,173.27858c0,0 0.46928,-1.40511 1.31786,-2.98909c0.79322,-1.48064 2.04729,-2.75629 2.04729,-2.75629" data-paper-data="{&quot;index&quot;:null}" fill="none" stroke-width="0.5"/><path d="M256.42714,168.87651c0,0 0.36748,-0.65262 0.63438,-0.93113c0.2172,-0.22664 0.84887,-0.61661 0.84887,-0.61661c0,0 0.51927,-0.12133 1.09337,-0.05039c1.66613,0.20588 10.88632,1.03743 10.88632,1.03743c0,0 0.92242,0.29748 1.07798,0.88444c0.58519,2.20795 1.71241,7.84241 1.7364,10.9548c0.02153,2.79348 -1.34996,8.42968 -1.95914,10.88206c-0.23426,0.94304 -0.88302,0.91348 -0.88302,0.91348c0,0 -9.01185,0.62321 -10.67796,0.82909c-0.5741,0.07095 -1.09337,-0.05039 -1.09337,-0.05039c0,0 -0.63168,-0.38997 -0.84887,-0.61661c-0.2669,-0.2785 -0.63438,-0.93113 -0.63438,-0.93113" fill="none" stroke-width="0.25"/><path d="M271.84263,192.30724c0,0 -1.07513,0.56117 -1.59775,0.75716c-0.37639,0.14115 -1.11638,0.31771 -1.44845,0.33789c-0.21778,0.01323 -0.11979,-0.11094 -0.11979,-0.11094c0,0 2.06347,-0.80367 2.97149,-1.91689c0.86554,-1.06114 2.47569,-4.49332 2.47569,-4.49332c0,0 -0.72403,2.3507 -1.06359,3.26427c-0.14484,0.38966 -0.36208,0.96554 -0.60899,1.36272c-0.23295,0.37472 -0.60861,0.79911 -0.60861,0.79911z" fill="#ffffff" stroke-width="0.25"/><path d="M271.99311,167.81359c0,0 0.37565,0.42439 0.60861,0.79911c0.24691,0.39718 0.46416,0.97306 0.60899,1.36272c0.33956,0.91357 1.06359,3.26427 1.06359,3.26427c0,0 -1.61014,-3.43218 -2.4757,-4.49332c-0.90802,-1.11322 -2.97149,-1.91689 -2.97149,-1.91689c0,0 -0.09799,-0.12417 0.11979,-0.11094c0.33207,0.02019 1.07205,0.19674 1.44845,0.33789c0.52261,0.19598 1.59775,0.75716 1.59775,0.75716z" data-paper-data="{&quot;index&quot;:null}" fill="#ffffff" stroke-width="0.25"/><path d="M252.76076,192.32146l-0.36114,1.12856c0,0 0.305,0.65834 0.10114,0.91429c-0.18756,0.2355 -0.54961,1.1403 -1.0748,1.59611c-0.76994,0.66824 -1.59945,1.07088 -1.59945,1.07088l-0.66208,-0.09029c0,0 -0.43325,-0.26763 -0.29163,-0.6192c0.23519,-0.58385 1.07409,-2.42039 1.07409,-2.42039c0,0 0.30523,-0.52072 0.52693,-0.63548c0.25899,-0.13405 0.88746,-0.12 0.88746,-0.12l0.22571,-1.12856z" fill="#333333" stroke-width="0.5"/><path d="M251.08542,167.98259l-0.22571,-1.12856c0,0 -0.62847,0.01405 -0.88746,-0.12c-0.2217,-0.11476 -0.52693,-0.63548 -0.52693,-0.63548c0,0 -0.8389,-1.83655 -1.07409,-2.42039c-0.14163,-0.35157 0.29163,-0.6192 0.29163,-0.6192l0.66208,-0.09029c0,0 0.82951,0.40264 1.59945,1.07088c0.52519,0.45582 0.88724,1.36061 1.0748,1.59611c0.20387,0.25596 -0.10115,0.91429 -0.10115,0.91429l0.36114,1.12856z" data-paper-data="{&quot;index&quot;:null}" fill="#333333" stroke-width="0.5"/><path d="M275.88094,176.93942c0,0 -2.78769,-0.92332 -3.99347,-1.35739c-1.29566,-0.46644 -4.23247,-2.35431 -4.23247,-2.35431" fill="none" stroke-width="0.5"/><path d="M267.5547,186.77042c0,0 2.93681,-1.88787 4.23247,-2.35431c1.20578,-0.43408 3.99347,-1.35739 3.99347,-1.35739" data-paper-data="{&quot;index&quot;:null}" fill="none" stroke-width="0.5"/><path d="M262.29892,190.87996c0,0 -3.15606,1.08793 -4.77151,1.36896c-1.26806,0.2206 -4.87252,0.67271 -4.87252,0.67271" fill="none" stroke-width="0.5"/><path d="M252.16241,167.07765c0,0 3.60447,0.45211 4.87252,0.6727c1.61545,0.28103 4.77151,1.36896 4.77151,1.36896" data-paper-data="{&quot;index&quot;:null}" fill="none" stroke-width="0.5"/><path d="M209.19216,168.74232h2.98943c0,0 1.09607,0.26357 1.53493,0.47509c0.61084,0.2944 1.0733,0.72872 1.0733,0.72872" fill="none" stroke-width="0.25"/><path d="M214.63934,189.5078c0,0 -0.46246,0.43432 -1.0733,0.72872c-0.43887,0.21151 -1.53493,0.47509 -1.53493,0.47509h-2.98943" data-paper-data="{&quot;index&quot;:null}" fill="none" stroke-width="0.25"/><path d="M223.04214,192.52599c0,0 -1.84586,0.39517 -3.69579,0.17417c-1.29007,-0.10915 -3.0727,-0.66174 -3.6163,-1.00916c-1.23682,-0.79045 -1.57539,-3.55672 -1.57539,-3.55672" fill="none" stroke-width="0.5"/><path d="M214.39154,171.48595c0,0 0.31972,-2.61225 1.48766,-3.35869c0.51334,-0.32807 2.19671,-0.84991 3.41495,-0.95298c1.74693,-0.2087 3.49,0.16446 3.49,0.16446" data-paper-data="{&quot;index&quot;:null}" fill="none" stroke-width="0.5"/><path d="M223.92862,165.5322l-0.30095,1.60506" fill="none" stroke-width="0.25"/><path d="M224.32988,194.5236l-0.50157,-1.80569" fill="none" stroke-width="0.25"/><path d="M228.83483,165.54424l-0.63277,0.02315c0,0 -0.7384,-0.42939 -1.17095,-0.39241c-0.6551,-0.03902 -0.55999,-0.06212 -0.96099,-0.03005c-0.51952,0.04155 -1.1322,0.30671 -1.1322,0.30671l-0.73236,-0.11141c0,0 0.61195,-0.3256 1.26196,-0.47471c0.62858,-0.1442 1.28911,-0.11238 1.67751,-0.09527c0.75107,0.0331 1.68979,0.77398 1.68979,0.77398z" fill="#3e6e59" stroke-width="0.25"/><path d="M241.22846,165.65094l-0.63277,0.02315c0,0 -0.7384,-0.42939 -1.17095,-0.39241c-0.6551,-0.03902 -0.55999,-0.06212 -0.96099,-0.03005c-0.51952,0.04155 -1.13218,0.30671 -1.13218,0.30671l-0.73236,-0.1114c0,0 0.61195,-0.3256 1.26196,-0.47471c0.62858,-0.1442 1.28911,-0.11238 1.67751,-0.09527c0.75107,0.0331 1.68979,0.77398 1.68979,0.77398z" fill="#3e6e59" stroke-width="0.25"/><path d="M228.16075,195.33975c-0.38839,0.01712 -1.04893,0.04893 -1.67751,-0.09527c-0.65001,-0.14911 -1.26196,-0.47471 -1.26196,-0.47471l0.73236,-0.1114c0,0 0.61267,0.26516 1.1322,0.30671c0.401,0.03207 0.30588,0.00897 0.96099,-0.03005c0.43255,0.03697 1.17095,-0.3924 1.17095,-0.3924l0.63277,0.02315c0,0 -0.93872,0.74089 -1.68979,0.77398z" data-paper-data="{&quot;index&quot;:null}" fill="#3f6e59" stroke-width="0.25"/><path d="M240.32867,195.34591c-0.38839,0.01712 -1.04893,0.04893 -1.67751,-0.09527c-0.65001,-0.14911 -1.26196,-0.47471 -1.26196,-0.47471l0.73236,-0.11141c0,0 0.61267,0.26516 1.13218,0.30671c0.401,0.03207 0.30588,0.00897 0.96099,-0.03005c0.43255,0.03697 1.17095,-0.3924 1.17095,-0.3924l0.63277,0.02315c0,0 -0.93872,0.74089 -1.68979,0.77398z" data-paper-data="{&quot;index&quot;:null}" fill="#3f6e59" stroke-width="0.25"/><path d="M236.31141,193.11918l0.33857,1.35427" fill="none" stroke-width="0.25"/><path d="M235.97285,165.80806l-0.33857,1.0157" fill="none" stroke-width="0.25"/><path d="M207.29618,189.91408c0,0 1.14126,2.05478 1.57219,2.65146c0.31362,0.43426 0.43664,0.56117 0.43664,0.56117c0,0 0.31498,0.29056 0.6611,0.49165c0.37672,0.21888 0.79031,0.35261 0.87469,0.4279c0.1641,0.14642 0.04419,0.21653 0.04419,0.21653l-1.52732,-0.63952c0,0 -0.33262,-0.26024 -0.58355,-0.56725c-0.20456,-0.25029 -0.35458,-0.51904 -0.49836,-0.80659c-0.34067,-0.68135 -0.97959,-2.33535 -0.97959,-2.33535z" fill="#650000" stroke-width="0.25"/><path d="M208.35785,167.56425c0.14377,-0.28755 0.2938,-0.5563 0.49836,-0.80659c0.25093,-0.30701 0.58355,-0.56725 0.58355,-0.56725l1.52732,-0.63952c0,0 0.11991,0.07011 -0.04419,0.21653c-0.08438,0.07529 -0.49797,0.20902 -0.87469,0.4279c-0.34611,0.20109 -0.6611,0.49165 -0.6611,0.49165c0,0 -0.12301,0.12691 -0.43663,0.56117c-0.43094,0.59668 -1.5722,2.65146 -1.5722,2.65146c0,0 0.63892,-1.654 0.97959,-2.33535z" data-paper-data="{&quot;index&quot;:null}" fill="#670000" stroke-width="0.25"/><path d="M266.6968,172.16729c0,0 -1.7612,-0.86767 -2.24393,-1.23395c-0.23015,-0.17462 -0.55747,-0.575 -0.68272,-0.77628c-0.1005,-0.16149 -0.02264,-0.14658 -0.02264,-0.14658c0,0 0.62609,-0.01116 1.01058,0.07437c0.38955,0.08666 0.86031,0.30682 0.86031,0.30682c0,0 0.38078,0.32139 0.63753,0.67788c0.25884,0.35938 0.39384,0.75442 0.43618,0.89178c0.07921,0.25702 0.0047,0.20595 0.0047,0.20595z" fill="#333333" stroke-width="0.5"/><path d="M266.48375,187.92976c-0.04232,0.13736 -0.17734,0.5324 -0.43618,0.89178c-0.25675,0.35648 -0.63753,0.67787 -0.63753,0.67787c0,0 -0.47076,0.22016 -0.86031,0.30682c-0.3845,0.08553 -1.01058,0.07437 -1.01058,0.07437c0,0 -0.07786,0.01492 0.02264,-0.14658c0.12525,-0.20129 0.45258,-0.60166 0.68272,-0.77628c0.48272,-0.36627 2.24393,-1.23395 2.24393,-1.23395c0,0 0.07451,-0.05107 -0.00469,0.20596z" data-paper-data="{&quot;index&quot;:null}" fill="#333333" stroke-width="0.5"/><path d="M205.10893,170.82087l2.10612,-1.10849l1.89673,-0.54193c0,0 1.27928,-0.23609 1.67338,-0.10544c0.35779,0.11862 0.33421,0.85674 0.33421,0.85674l-0.84983,0.68972c0,0 -0.72724,0.34112 -1.17009,0.48203c-0.34579,0.11002 -1.09614,0.8112 -1.09614,0.8112c0,0 -1.41272,5.16671 -1.42923,7.77271c-0.01633,2.57896 1.33068,7.783 1.33068,7.783c0,0 0.72905,0.82161 1.16503,1.05217c0.41713,0.2206 1.31058,0.47507 1.31058,0.47507c0,0 0.83038,0.30495 0.81128,0.69567c-0.02464,0.50391 -0.51569,0.95474 -0.51569,0.95474l-1.83516,-0.08621l-1.62577,-0.56655l-2.19233,-1.61346c0,0 -1.18509,-5.69833 -1.12904,-8.60628c0.05878,-3.05049 1.21525,-8.94468 1.21525,-8.94468z" fill="#333333" stroke-width="0.5"/></g></g></svg>