<svg version="1.1" xmlns="http://www.w3.org/2000/svg" xmlns:xlink="http://www.w3.org/1999/xlink" width="160.69945" height="97.46138" viewBox="0,0,160.69945,97.46138"><defs><radialGradient cx="245.55518" cy="177.39723" r="7.02153" gradientUnits="userSpaceOnUse" id="color-1"><stop offset="0" stop-color="#00b7ff"/><stop offset="1" stop-color="#004bb3"/></radialGradient></defs><g transform="translate(-159.65033,-130.27889)"><g data-paper-data="{&quot;isPaintingLayer&quot;:true}" fill-rule="nonzero" stroke-linejoin="miter" stroke-miterlimit="10" stroke-dasharray="" stroke-dashoffset="0" style="mix-blend-mode: normal"><path d="M159.65033,227.74027v-95.48052h160.69945v95.48052z" fill="#59ad0d" stroke="none" stroke-width="0" stroke-linecap="butt"/><text transform="translate(160.99216,146.7419) scale(0.37846,0.37846)" font-size="40" xml:space="preserve" fill="#ffffff" fill-rule="nonzero" stroke="none" stroke-width="1" stroke-linecap="butt" stroke-linejoin="miter" stroke-miterlimit="10" stroke-dasharray="" stroke-dashoffset="0" font-family="Sans Serif" font-weight="normal" text-anchor="start" style="mix-blend-mode: normal"><tspan x="0" dy="0">Lamborghini Huracan</tspan></text><g><path d="M196.69027,184.15286c0,0 0.28406,-2.44912 0.50658,-3.35857c0.22583,-0.92299 1.48887,-2.29543 1.48887,-2.29543c0,0 3.5117,-2.29665 5.38803,-3.28363c1.71659,-0.90294 5.43342,-2.40859 5.43342,-2.40859c0,0 3.0536,-0.41562 4.44092,-0.44365c1.34888,-0.02725 3.77095,0.27775 3.77095,0.27775c0,0 34.96742,-8.05732 39.70602,-9.2033c0.63825,-0.15436 2.34789,-1.12223 3.0219,-1.60274c1.11442,-0.79449 2.04533,-1.12498 3.81423,-1.86266c1.73975,-0.72552 5.78158,-0.67843 5.78158,-0.67843l9.19878,1.14033l5.40731,5.99181c0,0 1.631,4.50284 2.17466,6.76775c0.54886,2.28659 1.10305,6.88743 1.10305,6.88743l-2.39066,8.52182l-7.24328,5.731c0,0 -3.31942,1.603 -5.35627,1.75935c-1.92498,0.14776 -4.18229,-0.12359 -4.18229,-0.12359c0,0 -2.3176,-0.12108 -3.06976,0.05928c-4.21395,1.01051 -40.20658,9.94699 -40.20658,9.94699c0,0 -2.32725,1.51484 -3.42328,2.01649c-1.03632,0.47432 -3.81611,1.26861 -3.81611,1.26861c0,0 -3.95705,0.57129 -5.91326,0.43623c-2.11122,-0.14577 -6.29559,-0.52399 -6.29559,-0.52399c0,0 -1.52264,-0.65078 -2.23701,-1.38668c-0.7006,-0.72172 -2.00876,-2.987 -2.00876,-2.987l-1.46471,-1.39061l-4.20782,-17.46649z" fill="#73c5e6" stroke="#000000" stroke-width="0.5" stroke-linecap="round"/><path d="M225.23106,194.96241l-1.64726,6.50928l-16.07198,2.04301l-1.2832,-1.52588l-2.18055,-0.96665l-3.62019,-14.60454l1.28744,-1.79907l0.39443,-1.69934l15.48738,-5.51317l4.54731,4.69733z" fill="#191919" stroke="#000000" stroke-width="0.5" stroke-linecap="round"/><path d="M223.04698,175.90088l-0.87321,-0.60911c0,0 20.65987,-6.61396 27.37684,-8.4557c6.70407,-1.83822 13.02573,-3.02704 13.02573,-3.02704l-11.70853,5.77005c0,0 -5.39902,2.08249 -8.29976,2.93964c-3.25768,0.96263 -10.30005,2.5565 -10.30005,2.5565z" fill="#3a4758" stroke="#000000" stroke-width="0.5" stroke-linecap="round"/><path d="M237.76912,196.97955c0,0 6.99855,-1.77641 10.33824,-2.39738c2.97377,-0.55293 8.72981,-1.14803 8.72981,-1.14803l13.05195,-0.1733c0,0 -6.1725,1.8102 -12.98053,3.21533c-6.82112,1.40785 -28.31653,5.01837 -28.31653,5.01837l0.58596,-1.06515z" data-paper-data="{&quot;index&quot;:null}" fill="#3a4758" stroke="#000000" stroke-width="0.5" stroke-linecap="round"/><path d="M263.13731,162.01579l12.40556,-1.05154l5.4432,4.3345l-6.97814,0.16154l4.71451,-0.99406l-1.86817,-1.47779z" fill="#ffffff" stroke="none" stroke-width="0" stroke-linecap="round"/><path d="M265.85485,163.5343c0,0 4.72461,-0.13327 10.57085,0.59683c6.07164,1.76303 7.25309,2.41457 7.25309,2.41457" fill="none" stroke="#000000" stroke-width="0.25" stroke-linecap="round"/><path d="M282.07174,187.60014l0.99383,-2.16476l-4.65206,1.25423l6.29116,-3.02354l-2.88264,6.33298l-11.53122,4.69409z" data-paper-data="{&quot;index&quot;:null}" fill="#ffffff" stroke="none" stroke-width="0" stroke-linecap="round"/><path d="M286.84767,180.70266c0,0 -0.96505,1.68255 -5.57489,6.0095c-4.87786,3.30424 -9.1482,5.33006 -9.1482,5.33006" data-paper-data="{&quot;index&quot;:null}" fill="none" stroke="#000000" stroke-width="0.25" stroke-linecap="round"/><path d="M276.47461,160.87877l2.37993,0.29656l3.34675,3.43756l0.0861,0.69979c0,0 -1.76082,-1.22166 -2.62762,-1.93691c-0.91387,-0.75408 -3.18515,-2.49701 -3.18515,-2.49701z" fill="#808080" stroke="#000000" stroke-width="0.25" stroke-linecap="round"/><path d="M284.56567,185.75837c0.44772,-1.03078 1.46214,-2.91859 1.46214,-2.91859l0.24093,0.66263l-1.42174,4.58215l-1.98601,1.34453c0,0 1.23267,-2.58399 1.70468,-3.67074z" data-paper-data="{&quot;index&quot;:null}" fill="#808080" stroke="#000000" stroke-width="0.25" stroke-linecap="round"/><path d="M222.17452,182.12284l-3.65267,-3.90533l35.2498,-1.45693l-31.38108,6.34951z" fill="none" stroke="#000000" stroke-width="0.25" stroke-linecap="round"/><path d="M275.08712,183.84284l7.34782,-0.90408" fill="none" stroke="#000000" stroke-width="0.25" stroke-linecap="round"/><path d="M221.75683,174.14998l-21.36089,7.87906l-1.49853,4.07454l3.94489,15.28831l3.08588,3.11171l22.92589,-2.47607l40.43256,-7.7472l-44.01944,10.53438c0,0 -2.84131,1.46529 -4.17081,1.96858c-1.31905,0.49934 -3.77512,1.03941 -3.77512,1.03941c0,0 -4.24174,0.36877 -6.38594,0.19044c-2.24961,-0.18711 -6.81065,-1.288 -6.81065,-1.288l-3.04428,-4.0848l-4.05942,-16.91187l1.19145,-5.92704c0,0 3.73029,-2.44478 5.65224,-3.4774c1.93533,-1.0398 5.9199,-2.73998 5.9199,-2.73998c0,0 2.55636,-0.29314 3.77323,-0.33154c1.39793,-0.04414 4.14677,0.08152 4.14677,0.08152l44.35918,-10.43621z" fill="#ffffff" stroke="none" stroke-width="0" stroke-linecap="round"/><path d="M271.43873,168.64332l6.95761,-2.5297" data-paper-data="{&quot;index&quot;:null}" fill="none" stroke="#000000" stroke-width="0.25" stroke-linecap="round"/><path d="M285.07781,173.90381c0,0 -0.11904,0.29071 -0.26584,0.38003c-0.1935,0.11773 -0.55796,0.16483 -0.55796,0.16483c0,0 -0.08997,-0.24591 -0.11124,-0.36275c-0.02385,-0.13098 -0.05617,-0.33469 -0.05617,-0.33469c0,0 0.40194,-0.09195 0.62774,-0.03604c0.17779,0.04403 0.36345,0.18863 0.36345,0.18863z" fill="#000000" stroke="#8a7100" stroke-width="0.25" stroke-linecap="round"/><path d="M223.03127,175.8623l-3.41174,-2.27577l3.38995,-1.15756" fill="none" stroke="#000000" stroke-width="0.5" stroke-linecap="round"/><path d="M230.70112,203.46784l-3.54603,0.50731l2.00701,-3.57645" data-paper-data="{&quot;index&quot;:null}" fill="none" stroke="#000000" stroke-width="0.5" stroke-linecap="round"/><path d="M207.6853,199.626l-3.13998,-13.08143l17.77996,-3.57339l2.42123,10.76033z" fill="#3a4758" stroke="#000000" stroke-width="0.5" stroke-linecap="butt"/><path d="M202.00759,184.89831l2.38096,1.54452" fill="none" stroke="#000000" stroke-width="0.5" stroke-linecap="round"/><path d="M207.55819,199.64785l-1.14038,1.86075" fill="none" stroke="#000000" stroke-width="0.5" stroke-linecap="round"/><path d="M215.39776,179.10616l3.48957,3.4584" fill="none" stroke="#000000" stroke-width="0.5" stroke-linecap="round"/><path d="M212.63195,180.06573l3.36922,3.33915" fill="none" stroke="#000000" stroke-width="0.5" stroke-linecap="round"/><path d="M210.05235,181.10861l2.76749,2.7428" fill="none" stroke="#000000" stroke-width="0.5" stroke-linecap="round"/><path d="M207.28151,181.96284l2.52681,2.50426" fill="none" stroke="#000000" stroke-width="0.5" stroke-linecap="round"/><path d="M206.44479,184.87538l-1.80474,-1.78865" fill="none" stroke="#000000" stroke-width="0.5" stroke-linecap="round"/><path d="M222.1601,195.87155l-1.64572,4.98734" data-paper-data="{&quot;index&quot;:null}" fill="none" stroke="#000000" stroke-width="0.5" stroke-linecap="round"/><path d="M219.04289,196.89553l-1.53953,4.66556" data-paper-data="{&quot;index&quot;:null}" fill="none" stroke="#000000" stroke-width="0.5" stroke-linecap="round"/><path d="M214.75227,201.88947l1.32715,-4.02196" data-paper-data="{&quot;index&quot;:null}" fill="none" stroke="#000000" stroke-width="0.5" stroke-linecap="round"/><path d="M213.20804,198.68507l-1.11478,3.37837" data-paper-data="{&quot;index&quot;:null}" fill="none" stroke="#000000" stroke-width="0.25" stroke-linecap="round"/><path d="M209.07683,202.38935l0.79622,-2.41296" data-paper-data="{&quot;index&quot;:null}" fill="none" stroke="#000000" stroke-width="0.5" stroke-linecap="round"/><path d="M252.57289,164.25983l0.53049,-1.48867l-0.79924,0.05697l-1.56096,-2.88345c0,0 1.25248,-0.23613 1.85137,0.12437c0.7441,0.44791 2.08667,2.18578 2.08667,2.18578l-0.43146,0.34299l-0.47232,1.39109z" fill="#73c5e6" stroke="#000000" stroke-width="0.25" stroke-linecap="round"/><path d="M261.14693,197.12244l1.0523,1.02513l0.54015,0.10978c0,0 -0.40745,2.15794 -0.86716,2.8948c-0.37,0.59307 -1.5932,0.95119 -1.5932,0.95119l0.08205,-3.27784l0.73802,-0.31201l-1.14842,-1.08568z" data-paper-data="{&quot;index&quot;:null}" fill="#73c5e6" stroke="#000000" stroke-width="0.25" stroke-linecap="round"/><path d="M283.6909,188.27146l0.32029,-0.18942l0.52456,-0.74487l0.32667,-0.16282" fill="none" stroke="#ffffff" stroke-width="0.125" stroke-linecap="round"/><path d="M284.27662,187.04651l0.67891,-0.29229" fill="none" stroke="#ffffff" stroke-width="0.125" stroke-linecap="round"/><path d="M284.8446,185.74182l0.52948,-0.20683" fill="none" stroke="#ffffff" stroke-width="0.125" stroke-linecap="round"/><path d="M285.14261,185.09816l0.33164,-0.00535" fill="none" stroke="#ffffff" stroke-width="0.125" stroke-linecap="round"/><path d="M279.6311,163.37028c-0.91387,-0.75408 -3.18515,-2.49701 -3.18515,-2.49701l2.37993,0.29656l3.34673,3.43755l0.0861,0.69979c0,0 -1.7608,-1.22167 -2.62762,-1.93691z" data-paper-data="{&quot;index&quot;:null}" fill="#808080" stroke="#000000" stroke-width="0.25" stroke-linecap="round"/><path d="M279.25276,161.97386l-0.36498,0.00321l-0.80551,-0.4256l-0.37137,-0.0234" data-paper-data="{&quot;index&quot;:null}" fill="none" stroke="#ffffff" stroke-width="0.125" stroke-linecap="round"/><path d="M278.78882,162.35368l0.73763,-0.04772" data-paper-data="{&quot;index&quot;:null}" fill="none" stroke="#ffffff" stroke-width="0.125" stroke-linecap="round"/><path d="M280.4528,163.20235l-0.56567,0.05605" data-paper-data="{&quot;index&quot;:null}" fill="none" stroke="#ffffff" stroke-width="0.125" stroke-linecap="round"/><path d="M280.74279,163.55089l-0.29793,0.14577" data-paper-data="{&quot;index&quot;:null}" fill="none" stroke="#ffffff" stroke-width="0.125" stroke-linecap="round"/><path d="M225.05335,193.57684l30.8441,-8.58662l-31.74628,14.7302l1.17783,-4.6415z" data-paper-data="{&quot;index&quot;:null}" fill="none" stroke="#000000" stroke-width="0.25" stroke-linecap="round"/><path d="M226.78955,170.59029l-0.89612,3.27269" fill="none" stroke="#000000" stroke-width="0.25" stroke-linecap="round"/><path d="M233.5224,200.78012l2.284,2.50936" data-paper-data="{&quot;index&quot;:null}" fill="none" stroke="#000000" stroke-width="0.25" stroke-linecap="round"/><path d="M264.63855,195.95202l-0.94353,-0.87409" fill="none" stroke="#000000" stroke-width="0.25" stroke-linecap="round"/><path d="M256.22133,164.81533l0.40973,-1.19894" data-paper-data="{&quot;index&quot;:null}" fill="none" stroke="#000000" stroke-width="0.25" stroke-linecap="round"/><path d="M253.11212,170.01614l12.614,-6.25411l4.29135,5.55703c0,0 1.79696,5.3322 2.40984,7.88551c0.56252,2.34349 1.12932,6.85891 1.12932,6.85891l-1.46912,7.88075l-13.70302,0.16626c0,0 -1.24145,-7.3684 -2.11466,-11.0277c-0.8841,-3.70491 -3.15771,-11.06664 -3.15771,-11.06664z" fill="#3a485a" stroke="#000000" stroke-width="0.5" stroke-linecap="round"/><path d="M226.56901,164.07524" fill="none" stroke="#000000" stroke-width="0.25" stroke-linecap="round"/><path d="M196.82434,183.97261l4.54128,0.16069" fill="none" stroke="#000000" stroke-width="0.25" stroke-linecap="round"/><path d="M202.14679,204.58317l4.12019,-2.11466" fill="none" stroke="#000000" stroke-width="0.25" stroke-linecap="round"/><path d="M245.8916,190.45175c0,0 -0.70214,-0.14549 -0.84814,-0.64435c-0.75132,-2.56724 -2.47241,-10.725 -2.8204,-12.2073c-0.10812,-0.46056 0.4445,-0.88155 0.4445,-0.88155l5.34298,-1.3549c0,0 0.67374,0.09262 0.79182,0.58452c0.35267,1.46923 2.38498,9.30021 2.91392,12.18222c0.12479,0.68 -0.41325,0.95006 -0.41325,0.95006z" fill="#c2e5f3" stroke="#000000" stroke-width="0.5" stroke-linecap="butt"/><path d="M246.19936,188.31474c0,0 -0.50072,-0.10374 -0.60483,-0.45951c-0.53579,-1.83079 -1.76318,-7.64838 -2.01133,-8.70545c-0.0771,-0.32844 0.31697,-0.62867 0.31697,-0.62867l3.81027,-0.96621c0,0 0.48047,0.06605 0.56467,0.41683c0.2515,1.04777 1.70081,6.6323 2.07802,8.68756c0.089,0.48493 -0.2947,0.67752 -0.2947,0.67752z" fill="#0088bf" stroke="#000000" stroke-width="0.5" stroke-linecap="butt"/><path d="M243.95535,170.7322c3.77078,-0.90511 7.54386,1.34518 8.42742,5.02618c0.88356,3.681 -1.45698,7.39877 -5.22776,8.30388c-3.77078,0.90511 -7.54386,-1.34518 -8.42742,-5.02618c-0.88356,-3.681 1.45698,-7.39877 5.22776,-8.30388z" fill="url(#color-1)" stroke="#000000" stroke-width="0.5" stroke-linecap="butt"/><text transform="translate(213.06165,206.16095) rotate(-5.76756) scale(0.0623,0.0623)" font-size="40" xml:space="preserve" fill="#67c2e5" fill-rule="nonzero" stroke="none" stroke-width="1" stroke-linecap="butt" stroke-linejoin="miter" stroke-miterlimit="10" stroke-dasharray="" stroke-dashoffset="0" font-family="Curly" font-weight="normal" text-anchor="start" style="mix-blend-mode: normal"><tspan x="0" dy="0">113</tspan></text><text transform="translate(205.63001,177.44229) rotate(-21.22754) scale(0.0623,-0.0623)" font-size="40" xml:space="preserve" data-paper-data="{&quot;index&quot;:null}" fill="#67c2e5" fill-rule="nonzero" stroke="none" stroke-width="1" stroke-linecap="butt" stroke-linejoin="miter" stroke-miterlimit="10" stroke-dasharray="" stroke-dashoffset="0" font-family="Curly" font-weight="normal" text-anchor="start" style="mix-blend-mode: normal"><tspan x="0" dy="0">113</tspan></text></g></g></g></svg>