<svg version="1.1" xmlns="http://www.w3.org/2000/svg" xmlns:xlink="http://www.w3.org/1999/xlink" width="74.56725" height="36.10735" viewBox="0,0,74.56725,36.10735"><defs><radialGradient cx="236.9285" cy="173.03318" r="6.20745" gradientUnits="userSpaceOnUse" id="color-1"><stop offset="0" stop-color="#00bfba"/><stop offset="1" stop-color="#2100bf"/></radialGradient></defs><g transform="translate(-202.71638,-161.94632)"><g data-paper-data="{&quot;isPaintingLayer&quot;:true}" fill-rule="nonzero" stroke-linejoin="miter" stroke-miterlimit="10" stroke-dasharray="" stroke-dashoffset="0" style="mix-blend-mode: normal"><path d="M204.08733,187.01517c0,0 -1.23044,-3.18026 -1.11306,-6.89178c0.1184,-3.58337 1.46873,-7.57658 1.46873,-7.57658c0,0 0.5309,-3.94166 0.70045,-4.87629c0.07232,-0.39868 0.2263,-1.08407 0.65136,-1.68161c0.44632,-0.62746 1.30259,-1.29344 1.30259,-1.29344c0,0 4.63876,-0.65447 7.59645,-0.65447c3.08427,0 9.28778,0.78989 9.28778,0.78989l31.89082,0.22003c0,0 5.50579,-0.9516 7.47332,-0.98353c1.69885,-0.02757 6.71875,0.6677 6.71875,0.6677c0,0 2.19107,0.95362 3.01461,1.4239c0.82585,0.69448 1.22391,1.65669 1.22391,1.65669l1.26341,4.46289c0,0 1.46718,2.60692 1.46718,7.74093c0,5.08136 -1.54869,7.50396 -1.54869,7.50396l-1.2597,4.27619c0,0 -0.31485,1.0673 -0.93799,1.53989c-0.72485,0.54975 -3.57153,1.69763 -3.57153,1.69763c0,0 -4.23694,0.91528 -6.15917,0.93317c-1.96911,0.01832 -7.61424,-0.68914 -7.61424,-0.68914l-31.72778,-0.09592c0,0 -6.01935,0.78989 -9.19463,0.78989c-2.88243,0 -8.30286,-0.78989 -8.30286,-0.78989c0,0 -0.83883,-0.57303 -1.04319,-1.14511c-0.1987,-0.55621 -0.52271,-1.21109 -0.59927,-1.63071c-0.15761,-0.86388 -0.98725,-5.39431 -0.98725,-5.39431z" fill="#517fcd" stroke="#000000" stroke-width="0.5" stroke-linecap="round"/><path d="M243.88268,171.96663c0,0 0.75936,-1.50491 2.34079,-2.02874c1.83124,-0.60656 8.00751,-2.02792 8.00751,-2.02792c0,0 2.26689,0.28934 3.18954,3.09135c0.76725,2.33005 1.01284,7.03212 0.99579,8.9061c-0.01651,1.81563 -0.28383,6.98711 -0.96181,9.34037c-0.87391,3.03342 -2.99733,3.08494 -2.99733,3.08494c0,0 -6.52944,-1.79875 -8.1974,-2.36646c-1.83995,-0.62626 -2.37709,-1.70438 -2.37709,-1.70438z" fill="#4c5e73" stroke="#000000" stroke-width="0.5" stroke-linecap="round"/><path d="M209.13029,194.68148l-1.31065,-0.51184c0,0 -0.52607,-0.42235 -1.24609,-1.38121c-0.80076,-1.12522 -1.64571,-3.18539 -1.38891,-3.06417c0.3356,0.15843 1.80469,3.47329 3.01643,3.63264c3.11609,0.4098 8.99886,0.66045 14.97126,0.5865c4.43615,-0.05492 7.98116,0.09329 11.83548,0.0474c8.15999,-0.09718 15.09167,-0.29559 15.09167,-0.29559c0,0 7.40159,-0.95202 10.60217,-2.01226c4.54379,-1.5052 14.00472,-6.56586 14.00472,-6.56586c0,0 -1.66122,4.42633 -2.46713,5.61464c-0.89647,1.32184 -4.21269,2.98766 -4.21269,2.98766c0,0 -2.58934,0.13985 -5.05914,0.22519c-3.25347,0.11243 -12.76685,0.39078 -12.76685,0.39078c0,0 -9.41499,0.15464 -15.10683,0.19666c-2.02458,0.01495 -6.00384,-0.16612 -10.12244,-0.01569c-3.57811,0.13067 -7.08987,0.59566 -9.68789,0.60484c-5.48294,0.0194 -6.1531,-0.43972 -6.1531,-0.43972z" data-paper-data="{&quot;index&quot;:null}" fill="#ffffff" stroke="none" stroke-width="0" stroke-linecap="round"/><path d="M252.43888,193.04632c0,0 -10.75802,0.67959 -14.04705,0.7152c-5.34822,0.05791 -14.98774,-0.40075 -14.98774,-0.40075c0,0 -1.29797,-0.05497 -1.77635,-0.18891c-0.36266,-0.10154 -1.29335,-0.48866 -1.29335,-0.48866l-0.56935,-0.7909c0,0 1.16139,-0.40666 2.60643,-0.88193c1.46379,-0.48142 3.14598,-0.95461 5.22432,-1.22541c2.93172,-0.38201 5.0629,-0.39235 8.04299,-0.23655c2.94168,0.0195 7.75344,1.05482 7.75344,1.05482c0,0 7.24499,1.75562 8.68493,2.15284c1.58572,0.43744 0.36173,0.29024 0.36173,0.29024z" fill="#4c5e73" stroke="#000000" stroke-width="0.5" stroke-linecap="round"/><path d="M251.88848,167.02183c-1.43995,0.39724 -8.68493,2.15284 -8.68493,2.15284c0,0 -4.81174,1.03532 -7.75344,1.05482c-2.9801,0.1558 -5.11126,0.14546 -8.04299,-0.23654c-2.07834,-0.2708 -3.76053,-0.74399 -5.22432,-1.22541c-1.44504,-0.47526 -2.60643,-0.88193 -2.60643,-0.88193l0.56935,-0.7909c0,0 0.93069,-0.38713 1.29335,-0.48866c0.47837,-0.13395 1.77635,-0.18891 1.77635,-0.18891c0,0 9.63953,-0.45867 14.98774,-0.40075c3.28904,0.03562 14.04705,0.7152 14.04705,0.7152c0,0 1.22399,-0.1472 -0.36173,0.29024z" data-paper-data="{&quot;index&quot;:null}" fill="#4c5e73" stroke="#000000" stroke-width="0.5" stroke-linecap="round"/><path d="M209.13029,165.27498c0,0 0.67014,-0.45913 6.1531,-0.43971c2.59803,0.0092 6.10978,0.47418 9.68789,0.60484c4.11859,0.15041 8.09786,-0.03064 10.12244,-0.01569c5.69183,0.04202 15.10683,0.19665 15.10683,0.19665c0,0 9.51338,0.27836 12.76685,0.39078c2.46981,0.08535 5.05914,0.22519 5.05914,0.22519c0,0 3.31622,1.66583 4.21269,2.98766c0.80591,1.18831 2.46713,5.61464 2.46713,5.61464c0,0 -9.46093,-5.06066 -14.00472,-6.56586c-3.20057,-1.06025 -10.60217,-2.01227 -10.60217,-2.01227c0,0 -6.93167,-0.1984 -15.09167,-0.29559c-3.85432,-0.04591 -7.39933,0.1023 -11.83548,0.04739c-5.97241,-0.07394 -11.85516,0.1767 -14.97126,0.5865c-1.21174,0.15936 -2.68083,3.47422 -3.01643,3.63264c-0.2568,0.12124 0.58814,-1.93894 1.38891,-3.06416c0.72003,-0.95888 1.24609,-1.38121 1.24609,-1.38121l1.31065,-0.51184z" fill="#ffffff" stroke="none" stroke-width="0" stroke-linecap="round"/><path d="M221.87318,172.88189l-0.31996,14.30776c0,0 0.06767,0.61823 -0.56008,0.95202c-1.62,0.86139 -5.15506,2.05307 -6.26379,2.35816c-1.45681,0.40089 -1.85494,-0.36216 -1.85494,-0.36216c0,0 -1.63836,-2.36881 -1.97804,-10.37605c0.73961,-8.02726 2.09802,-10.49599 2.09802,-10.49599c0,0 0.34909,-0.63363 1.49938,-0.35864c1.17122,0.28 4.77039,1.72641 6.53701,2.79237c0.69985,0.42228 0.84237,1.18252 0.84237,1.18252z" fill="#4c5e73" stroke="#000000" stroke-width="0.5" stroke-linecap="round"/><path d="M207.5044,192.18733c0,0 -1.31036,-1.3329 -2.13918,-2.88c-0.88667,-1.65509 -1.37701,-3.12326 -1.37701,-3.12326" fill="none" stroke="#000000" stroke-width="0.5" stroke-linecap="round"/><path d="M204.417,172.9769c0,0 0.49034,-1.46818 1.37701,-3.12324c0.82883,-1.5471 2.13918,-2.88 2.13918,-2.88" data-paper-data="{&quot;index&quot;:null}" fill="none" stroke="#000000" stroke-width="0.5" stroke-linecap="round"/><path d="M256.0627,168.56594c0,0 0.50976,-0.8706 0.78864,-1.1616c0.22695,-0.23681 0.88697,-0.64429 0.88697,-0.64429c0,0 0.54258,-0.12678 1.14244,-0.05265c1.74091,0.21512 11.37492,1.08399 11.37492,1.08399c0,0 0.96383,0.31083 1.12637,0.92414c0.61145,2.30705 1.78926,8.1944 1.81434,11.44648c0.0225,2.91885 -1.41056,8.80803 -2.04707,11.37049c-0.24477,0.98537 -0.92264,0.95447 -0.92264,0.95447c0,0 -9.41632,0.65119 -11.15723,0.8663c-0.59986,0.07414 -1.14244,-0.05265 -1.14244,-0.05265c0,0 -0.66003,-0.40746 -0.88697,-0.64429c-0.27888,-0.291 -0.66285,-0.97292 -0.66285,-0.97292" fill="none" stroke="#000000" stroke-width="0.25" stroke-linecap="round"/><path d="M272.40069,192.85962c0,0 -1.12339,0.58636 -1.66947,0.79114c-0.3933,0.14749 -1.16649,0.33197 -1.51346,0.35305c-0.22755,0.01383 -0.12516,-0.11593 -0.12516,-0.11593c0,0 2.15608,-0.83974 3.10486,-2.00292c0.90439,-1.10877 2.58681,-4.69499 2.58681,-4.69499c0,0 -0.75653,2.45621 -1.11133,3.41079c-0.15134,0.40715 -0.37833,1.00888 -0.63632,1.42389c-0.2434,0.39153 -0.63593,0.83498 -0.63593,0.83498z" fill="#ffffff" stroke="#000000" stroke-width="0.25" stroke-linecap="round"/><path d="M272.55791,167.26662c0,0 0.3925,0.44344 0.63593,0.83498c0.258,0.415 0.48499,1.01673 0.63632,1.42389c0.3548,0.95457 1.11133,3.41079 1.11133,3.41079c0,0 -1.68241,-3.58622 -2.58682,-4.69499c-0.94878,-1.16318 -3.10486,-2.00292 -3.10486,-2.00292c0,0 -0.10239,-0.12975 0.12516,-0.11591c0.34697,0.0211 1.12016,0.20557 1.51346,0.35305c0.54607,0.20478 1.66947,0.79114 1.66947,0.79114z" data-paper-data="{&quot;index&quot;:null}" fill="#ffffff" stroke="#000000" stroke-width="0.25" stroke-linecap="round"/><path d="M252.46237,192.87449l-0.37734,1.17921c0,0 0.31868,0.68789 0.10568,0.95533c-0.19598,0.24606 -0.57428,1.19147 -1.12305,1.66776c-0.80449,0.69824 -1.67125,1.11895 -1.67125,1.11895l-0.6918,-0.09435c0,0 -0.45268,-0.27964 -0.30472,-0.64699c0.24574,-0.61004 1.12229,-2.52902 1.12229,-2.52902c0,0 0.31893,-0.5441 0.55058,-0.66401c0.27061,-0.14007 0.9273,-0.12538 0.9273,-0.12538l0.23585,-1.17921z" fill="#517fcd" stroke="#000000" stroke-width="0.5" stroke-linecap="round"/><path d="M250.71183,167.4432l-0.23585,-1.17921c0,0 -0.65668,0.01469 -0.9273,-0.12538c-0.23165,-0.1199 -0.55058,-0.66401 -0.55058,-0.66401c0,0 -0.87655,-1.91898 -1.12229,-2.52902c-0.148,-0.36734 0.30472,-0.64699 0.30472,-0.64699l0.6918,-0.09435c0,0 0.86675,0.42071 1.67125,1.11895c0.54876,0.47627 0.92706,1.42169 1.12305,1.66776c0.21302,0.26744 -0.10569,0.95533 -0.10569,0.95533l0.37734,1.17921z" data-paper-data="{&quot;index&quot;:null}" fill="#517fcd" stroke="#000000" stroke-width="0.5" stroke-linecap="round"/><path d="M276.62026,176.80205c0,0 -2.91282,-0.96476 -4.17271,-1.41831c-1.35382,-0.48737 -4.42243,-2.45997 -4.42243,-2.45997" fill="none" stroke="#000000" stroke-width="0.5" stroke-linecap="round"/><path d="M267.9203,187.0743c0,0 3.06863,-1.9726 4.42243,-2.45997c1.2599,-0.45356 4.17271,-1.41831 4.17271,-1.41831" data-paper-data="{&quot;index&quot;:null}" fill="none" stroke="#000000" stroke-width="0.5" stroke-linecap="round"/><path d="M262.42863,191.36829c0,0 -3.29772,1.13675 -4.98568,1.4304c-1.32497,0.2305 -5.09122,0.70291 -5.09122,0.70291" fill="none" stroke="#000000" stroke-width="0.5" stroke-linecap="round"/><path d="M251.73234,166.49766c0,0 3.76625,0.47241 5.09122,0.7029c1.68796,0.29364 4.98568,1.4304 4.98568,1.4304" data-paper-data="{&quot;index&quot;:null}" fill="none" stroke="#000000" stroke-width="0.5" stroke-linecap="round"/><path d="M206.93828,168.23703h3.1236c0,0 1.14525,0.27539 1.60382,0.49641c0.63825,0.30761 1.12147,0.76142 1.12147,0.76142" fill="none" stroke="#000000" stroke-width="0.25" stroke-linecap="round"/><path d="M212.62994,189.93454c0,0 -0.48321,0.45381 -1.12147,0.76142c-0.45858,0.221 -1.60382,0.49641 -1.60382,0.49641h-3.1236" data-paper-data="{&quot;index&quot;:null}" fill="none" stroke="#000000" stroke-width="0.25" stroke-linecap="round"/><path d="M221.40989,193.0882c0,0 -1.9287,0.41291 -3.86166,0.18198c-1.34797,-0.11405 -3.21061,-0.69145 -3.77861,-1.05446c-1.29232,-0.82593 -1.64609,-3.71635 -1.64609,-3.71635" fill="none" stroke="#000000" stroke-width="0.5" stroke-linecap="round"/><path d="M212.37103,171.10381c0,0 0.33406,-2.7295 1.55443,-3.50944c0.53638,-0.3428 2.29531,-0.88805 3.56823,-0.99575c1.82534,-0.21808 3.64665,0.17184 3.64665,0.17184" data-paper-data="{&quot;index&quot;:null}" fill="none" stroke="#000000" stroke-width="0.5" stroke-linecap="round"/><path d="M222.33615,164.88284l-0.31446,1.6771" fill="none" stroke="#000000" stroke-width="0.25" stroke-linecap="round"/><path d="M222.23133,193.28872l0.52409,1.88674" fill="none" stroke="#000000" stroke-width="0.25" stroke-linecap="round"/><path d="M227.46257,164.89542l-0.66117,0.02419c0,0 -0.77155,-0.44866 -1.22351,-0.41003c-0.68451,-0.04078 -0.58512,-0.0649 -1.00413,-0.03139c-0.54282,0.04341 -1.18301,0.32047 -1.18301,0.32047l-0.76523,-0.11641c0,0 0.63942,-0.34021 1.31861,-0.496c0.65679,-0.15068 1.34697,-0.11743 1.7528,-0.09954c0.78478,0.03459 1.76563,0.80873 1.76563,0.80873z" fill="#5285cc" stroke="#000000" stroke-width="0.25" stroke-linecap="round"/><path d="M240.41246,165.00692l-0.66117,0.02419c0,0 -0.77155,-0.44866 -1.22351,-0.41003c-0.68451,-0.04078 -0.58512,-0.0649 -1.00413,-0.03139c-0.54282,0.04341 -1.183,0.32047 -1.183,0.32047l-0.76524,-0.1164c0,0 0.63942,-0.34021 1.31861,-0.496c0.65679,-0.15068 1.34697,-0.11743 1.7528,-0.09954c0.78478,0.03459 1.76563,0.80873 1.76563,0.80873z" fill="#5285cc" stroke="#000000" stroke-width="0.25" stroke-linecap="round"/><path d="M226.75823,196.02824c-0.40582,0.01788 -1.09601,0.05113 -1.7528,-0.09954c-0.67919,-0.1558 -1.31861,-0.496 -1.31861,-0.496l0.76523,-0.1164c0,0 0.64017,0.27706 1.18301,0.32047c0.419,0.03351 0.31962,0.00936 1.00413,-0.03139c0.45197,0.03863 1.22351,-0.41002 1.22351,-0.41002l0.66117,0.02419c0,0 -0.98085,0.77413 -1.76563,0.80873z" data-paper-data="{&quot;index&quot;:null}" fill="#5281cc" stroke="#000000" stroke-width="0.25" stroke-linecap="round"/><path d="M239.47228,196.03468c-0.40582,0.01788 -1.09601,0.05113 -1.7528,-0.09954c-0.67919,-0.1558 -1.31861,-0.496 -1.31861,-0.496l0.76524,-0.11641c0,0 0.64017,0.27706 1.183,0.32047c0.419,0.03351 0.31962,0.00937 1.00413,-0.03139c0.45197,0.03863 1.22351,-0.41002 1.22351,-0.41002l0.66117,0.02419c0,0 -0.98085,0.77413 -1.76563,0.80873z" data-paper-data="{&quot;index&quot;:null}" fill="#5281cc" stroke="#000000" stroke-width="0.25" stroke-linecap="round"/><path d="M235.27473,193.708l0.35377,1.41505" fill="none" stroke="#000000" stroke-width="0.25" stroke-linecap="round"/><path d="M234.56721,166.23237l0.35377,-1.06129" fill="none" stroke="#000000" stroke-width="0.25" stroke-linecap="round"/><path d="M204.95721,190.35905c0,0 1.19248,2.14701 1.64275,2.77046c0.3277,0.45376 0.45624,0.58634 0.45624,0.58634c0,0 0.32912,0.3036 0.69078,0.51372c0.39364,0.2287 0.82578,0.36843 0.91396,0.4471c0.17147,0.153 0.04617,0.22625 0.04617,0.22625l-1.59587,-0.66824c0,0 -0.34755,-0.27191 -0.60974,-0.59271c-0.21374,-0.26153 -0.37051,-0.54233 -0.52073,-0.84279c-0.35596,-0.71193 -1.02355,-2.44018 -1.02355,-2.44018z" fill="#650000" stroke="#000000" stroke-width="0.25" stroke-linecap="round"/><path d="M206.06652,167.00609c0.15022,-0.30045 0.30697,-0.58128 0.52073,-0.84279c0.26219,-0.32079 0.60974,-0.59271 0.60974,-0.59271l1.59587,-0.66824c0,0 0.12529,0.07325 -0.04617,0.22625c-0.08816,0.07867 -0.52032,0.2184 -0.91396,0.4471c-0.36164,0.21011 -0.69078,0.51372 -0.69078,0.51372c0,0 -0.12854,0.1326 -0.45623,0.58634c-0.45028,0.62346 -1.64276,2.77046 -1.64276,2.77046c0,0 0.6676,-1.72824 1.02355,-2.44018z" data-paper-data="{&quot;index&quot;:null}" fill="#670000" stroke="#000000" stroke-width="0.25" stroke-linecap="round"/><text transform="translate(270.66202,183.62691) rotate(-89.56978) scale(0.05189,0.04582) skewX(-0.10943)" font-size="40" xml:space="preserve" data-paper-data="{&quot;index&quot;:null}" fill="#ffffff" fill-rule="nonzero" stroke="none" stroke-width="1" stroke-linecap="butt" stroke-linejoin="miter" stroke-miterlimit="10" stroke-dasharray="" stroke-dashoffset="0" font-family="Sans Serif" font-weight="normal" text-anchor="start" style="mix-blend-mode: normal"><tspan x="0" dy="0">POLIZIA</tspan></text><path d="M234.5983,186.33957v-12.61756c0,0 0.20718,-0.25922 0.52781,-0.29394c0.92686,-0.10039 2.80176,-0.05982 3.361,-0.05982c0.32169,0 0.57083,0.35377 0.57083,0.35377v12.61756c0,0 -0.16782,0.2948 -0.51187,0.2948c-0.5381,0 -2.38385,0.09059 -3.36603,0.00399c-0.41705,-0.03676 -0.58175,-0.29878 -0.58175,-0.29878z" fill="#0010ca" stroke="#000000" stroke-width="0.5" stroke-linecap="butt"/><path d="M236.165,185.17709v-9.78745c0,0 0.03175,-0.24648 0.25131,-0.31852c0.27233,-0.08936 0.6466,-0.04432 0.79411,-0.04432c0.2127,0 0.42861,0.36283 0.42861,0.36283v9.78745c0,0 -0.19221,0.1527 -0.3886,0.20101c-0.24131,0.05938 -0.50741,0.01668 -0.65681,0.01668c-0.19451,0 -0.42861,-0.2177 -0.42861,-0.2177z" fill="#ffffff" stroke="#000000" stroke-width="0.5" stroke-linecap="butt"/><path d="M235.94048,176.8727h-1.19735" fill="none" stroke="#000000" stroke-width="0.5" stroke-linecap="round"/><path d="M238.73431,176.90901h-1.01594" fill="none" stroke="#000000" stroke-width="0.5" stroke-linecap="round"/><path d="M237.86349,183.73027h1.05222" fill="none" stroke="#000000" stroke-width="0.5" stroke-linecap="round"/><path d="M234.85198,183.73028l1.16107,-0.00001" fill="none" stroke="#000000" stroke-width="0.5" stroke-linecap="round"/><path d="M242.97882,173.03318c0,3.42828 -2.70881,6.20745 -6.05029,6.20745c-3.34148,0 -6.05029,-2.77918 -6.05029,-6.20745c0,-3.42828 2.70881,-6.20745 6.05029,-6.20745c3.34148,0 6.05029,2.77917 6.05029,6.20745z" fill="url(#color-1)" stroke="none" stroke-width="0" stroke-linecap="butt"/></g></g></svg>