<svg version="1.1" xmlns="http://www.w3.org/2000/svg" xmlns:xlink="http://www.w3.org/1999/xlink" width="160.69945" height="98.77213" viewBox="0,0,160.69945,98.77213"><defs><radialGradient cx="233.95203" cy="182.88063" r="8.12482" gradientUnits="userSpaceOnUse" id="color-1"><stop offset="0" stop-color="#00bfba"/><stop offset="1" stop-color="#2100bf"/></radialGradient></defs><g transform="translate(-159.65033,-128.96814)"><g data-paper-data="{&quot;isPaintingLayer&quot;:true}" fill-rule="nonzero" stroke-linejoin="miter" stroke-miterlimit="10" stroke-dasharray="" stroke-dashoffset="0" style="mix-blend-mode: normal"><path d="M159.65033,227.74027v-95.48052h160.69945v95.48052z" fill="#59ad0d" stroke="none" stroke-width="0" stroke-linecap="butt"/><text transform="translate(160.98914,149.86424) scale(0.48037,0.48037)" font-size="40" xml:space="preserve" fill="#ffffff" fill-rule="nonzero" stroke="none" stroke-width="1" stroke-linecap="butt" stroke-linejoin="miter" stroke-miterlimit="10" stroke-dasharray="" stroke-dashoffset="0" font-family="Sans Serif" font-weight="normal" text-anchor="start" style="mix-blend-mode: normal"><tspan x="0" dy="0">Alfa Romeo Guila</tspan></text><g><path d="M194.79693,207.95636c0,0 -2.26572,-3.82081 -2.91425,-8.61442c-0.61963,-4.62918 0.25519,-10.05023 0.25519,-10.05023c0,0 -0.16684,-5.17835 -0.15029,-6.41562c0.00705,-0.52777 0.05727,-1.44149 0.47466,-2.30071c0.43828,-0.90224 1.39492,-1.94228 1.39492,-1.94228c0,0 5.81864,-1.83986 9.61851,-2.47685c3.96248,-0.66425 12.10249,-0.98548 12.10249,-0.98548l41.01878,-6.58553c0,0 6.86855,-2.40832 9.38946,-2.87309c2.17664,-0.40129 8.77564,-0.58917 8.77564,-0.58917c0,0 3.02034,0.75326 4.17965,1.1801c1.21057,0.71436 1.92921,1.86481 1.92921,1.86481l2.58431,5.46156c0,0 2.44639,3.03322 3.55209,9.62911c1.09436,6.52823 -0.37356,9.97418 -0.37356,9.97418l-0.69744,5.76508c0,0 -0.17465,1.43901 -0.87343,2.18037c-0.81285,0.86239 -4.22287,2.95022 -4.22287,2.95022c0,0 -5.24623,2.0884 -7.71195,2.52536c-2.52585,0.44762 -9.93073,0.75449 -9.93073,0.75449l-40.78259,6.70988c0,0 -7.56318,2.31117 -11.64259,2.99502c-3.70317,0.62078 -10.83713,0.77336 -10.83713,0.77336c0,0 -1.20108,-0.55554 -1.58685,-1.24651c-0.37505,-0.67178 -0.93238,-1.44334 -1.12111,-1.96597c-0.38853,-1.07592 -2.43011,-6.71766 -2.43011,-6.71766z" fill="#517fcd" stroke="#000000" stroke-width="0.5" stroke-linecap="round"/><path d="M242.69817,179.99903c0,0 0.65459,-2.10698 2.58264,-3.12537c2.23264,-1.17927 9.89783,-4.35057 9.89783,-4.35057c0,0 2.98887,-0.11704 4.78624,3.30034c1.49463,2.84177 2.82916,8.85837 3.21266,11.28113c0.37157,2.34731 1.14558,9.08087 0.77964,12.26534c-0.47168,4.10485 -3.20161,4.63086 -3.20161,4.63086c0,0 -8.81789,-0.90902 -11.09386,-1.28092c-2.51066,-0.41025 -3.43733,-1.68574 -3.43733,-1.68574z" fill="#4c5e73" stroke="#000000" stroke-width="0.5" stroke-linecap="round"/><path d="M202.75273,216.84115l-1.80265,-0.3771c0,0 -0.77048,-0.43135 -1.90743,-1.51332c-1.27717,-1.27923 -2.81371,-3.7558 -2.45597,-3.65489c0.46751,0.13189 3.08122,4.09303 4.6799,4.03654c4.11115,-0.14531 11.75928,-1.09475 19.45287,-2.48259c5.71461,-1.03085 10.32283,-1.60665 15.28832,-2.49996c10.51245,-1.89122 19.41742,-3.64732 19.41742,-3.64732c0,0 9.34848,-2.8306 13.25057,-4.89182c5.53971,-2.92628 16.65745,-11.50621 16.65745,-11.50621c0,0 -1.18658,6.07329 -1.96977,7.78163c-0.8712,1.9003 -4.79152,4.76828 -4.79152,4.76828c0,0 -3.31223,0.74085 -6.48195,1.38547c-4.17548,0.84917 -16.39578,3.26713 -16.39578,3.26713c0,0 -12.12007,2.23697 -19.45839,3.5229c-2.61023,0.45741 -7.78612,1.08477 -13.07014,2.17019c-4.5906,0.94297 -9.02319,2.30313 -12.37492,2.87719c-7.07357,1.21153 -8.038,0.76387 -8.038,0.76387z" data-paper-data="{&quot;index&quot;:null}" fill="#ffffff" stroke="none" stroke-width="0" stroke-linecap="round"/><path d="M258.30464,205.35863c0,0 -13.74014,3.20524 -17.97814,3.96294c-6.89131,1.23209 -19.43394,2.72595 -19.43394,2.72595c0,0 -1.68741,0.20991 -2.33391,0.14053c-0.49013,-0.0526 -1.77529,-0.35092 -1.77529,-0.35092l-0.9061,-0.89775c0,0 1.4112,-0.77626 3.17372,-1.70247c1.78538,-0.9382 3.85448,-1.91306 6.47875,-2.71237c3.70181,-1.12752 6.45064,-1.60206 10.33127,-2.04582c3.80155,-0.6114 10.23693,-0.31616 10.23693,-0.31616c0,0 9.73224,0.6985 11.67698,0.89967c2.14162,0.22154 0.52975,0.29639 0.52975,0.29639z" fill="#4c5e73" stroke="#000000" stroke-width="0.5" stroke-linecap="round"/><path d="M251.96259,171.88351c-1.77282,0.82437 -10.74525,4.65842 -10.74525,4.65842c0,0 -5.98729,2.37771 -9.78042,3.03944c-3.81321,0.84599 -6.5665,1.29382 -10.43365,1.43512c-2.74147,0.10017 -5.01535,-0.14664 -7.00909,-0.45134c-1.96821,-0.3008 -3.55541,-0.57444 -3.55541,-0.57444l0.56381,-1.14416c0,0 1.11762,-0.70112 1.5638,-0.91067c0.58853,-0.27642 2.25216,-0.62825 2.25216,-0.62825c0,0 12.34413,-2.67802 19.2605,-3.76058c4.25343,-0.66575 18.28768,-2.11647 18.28768,-2.11647c0,0 1.54816,-0.45488 -0.40414,0.45294z" data-paper-data="{&quot;index&quot;:null}" fill="#4c5e73" stroke="#000000" stroke-width="0.5" stroke-linecap="round"/><path d="M196.38933,178.88121c0,0 0.76573,-0.73768 7.84769,-1.89911c3.3557,-0.55032 7.98953,-0.71002 12.63669,-1.31562c5.3491,-0.69708 10.44665,-1.79188 13.06335,-2.21069c7.35651,-1.17744 19.5435,-3.01518 19.5435,-3.01518c0,0 12.34077,-1.69933 16.56491,-2.25823c3.20666,-0.42428 6.57942,-0.80407 6.57942,-0.80407c0,0 4.64127,1.43275 6.08454,2.94507c1.29747,1.35955 4.39972,6.71389 4.39972,6.71389c0,0 -13.30793,-4.48534 -19.49908,-5.44512c-4.36094,-0.67606 -14.12146,-0.30333 -14.12146,-0.30333c0,0 -8.99082,1.24386 -19.54534,2.88419c-4.98535,0.7748 -9.52943,1.73323 -15.26781,2.6223c-7.7256,1.19695 -15.26524,2.7935 -19.19903,3.99681c-1.52971,0.46793 -2.7088,5.06488 -3.10773,5.34202c-0.30527,0.21207 0.33965,-2.63019 1.12984,-4.25598c0.72197,-1.39359 1.30966,-2.05262 1.30966,-2.05262l1.58113,-0.94434z" fill="#ffffff" stroke="none" stroke-width="0" stroke-linecap="round"/><path d="M214.48483,185.94323l2.68311,18.5387c0,0 0.22113,0.78342 -0.51698,1.35013c-1.90481,1.46249 -6.21024,3.76577 -7.57543,4.39953c-1.7938,0.83274 -2.47287,-0.0661 -2.47287,-0.0661c0,0 -2.62751,-2.70328 -4.79871,-12.96609c-0.78232,-10.52219 0.43699,-14.00296 0.43699,-14.00296c0,0 0.31352,-0.89348 1.8579,-0.78742c1.57247,0.10799 6.53154,1.19628 9.04269,2.19001c0.99479,0.39366 1.34329,1.34419 1.34329,1.34419z" fill="#4c5e73" stroke="#000000" stroke-width="0.5" stroke-linecap="round"/><path d="M200.11419,213.97336c0,0 -1.97993,-1.43705 -3.38463,-3.2548c-1.50273,-1.94463 -2.4534,-3.73375 -2.4534,-3.73375" fill="none" stroke="#000000" stroke-width="0.5" stroke-linecap="round"/><path d="M191.97174,189.8433c0,0 0.31526,-2.00133 1.10169,-4.32968c0.73512,-2.17646 2.13819,-4.18061 2.13819,-4.18061" data-paper-data="{&quot;index&quot;:null}" fill="none" stroke="#000000" stroke-width="0.5" stroke-linecap="round"/><path d="M257.6851,172.97346c0,0 0.46964,-1.23413 0.76666,-1.67012c0.24172,-0.35481 1.00554,-1.02362 1.00554,-1.02362c0,0 0.67296,-0.28107 1.46335,-0.31518c2.29383,-0.09903 14.91812,-1.06218 14.91812,-1.06218c0,0 1.31143,0.19268 1.65397,0.9492c1.28854,2.84578 4.08294,10.19072 4.81903,14.3833c0.66067,3.763 0.08517,11.67526 -0.182,15.12079c-0.10273,1.32495 -0.98448,1.43176 -0.98448,1.43176c0,0 -12.01433,2.87823 -14.21506,3.53265c-0.7583,0.2255 -1.48614,0.17926 -1.48614,0.17926c0,0 -0.94019,-0.38316 -1.28438,-0.63975c-0.42297,-0.3153 -1.06619,-1.11248 -1.06619,-1.11248" fill="none" stroke="#000000" stroke-width="0.25" stroke-linecap="round"/><path d="M284.03232,200.79801c0,0 -1.32327,1.00001 -1.98386,1.38252c-0.47577,0.27549 -1.43394,0.68094 -1.87728,0.78326c-0.29075,0.06709 -0.18666,-0.12256 -0.18666,-0.12256c0,0 2.6015,-1.55056 3.57454,-3.25739c0.92752,-1.62698 2.32326,-6.62039 2.32326,-6.62039c0,0 -0.44506,3.33435 -0.6965,4.64336c-0.10725,0.55832 -0.27006,1.3842 -0.51329,1.97574c-0.22948,0.55809 -0.64021,1.21545 -0.64021,1.21545z" fill="#ffffff" stroke="#000000" stroke-width="0.25" stroke-linecap="round"/><path d="M278.6971,167.72675c0,0 0.60264,0.48749 1.00158,0.94023c0.42284,0.47989 0.84608,1.20753 1.12953,1.70035c0.66456,1.15546 2.17265,4.16239 2.17265,4.16239c0,0 -2.94782,-4.26529 -4.35521,-5.50085c-1.47645,-1.29621 -4.44139,-1.91364 -4.44139,-1.91364c0,0 -0.16024,-0.14534 0.13649,-0.17671c0.45246,-0.04785 1.49047,0.02297 2.03008,0.12825c0.74922,0.14618 2.32626,0.66 2.32626,0.66z" data-paper-data="{&quot;index&quot;:null}" fill="#ffffff" stroke="#000000" stroke-width="0.25" stroke-linecap="round"/><path d="M258.29776,205.13173l-0.23193,1.60387c0,0 0.56024,0.81901 0.34314,1.21033c-0.19974,0.36005 -0.48349,1.66231 -1.08881,2.39587c-0.8874,1.07542 -1.91522,1.80606 -1.91522,1.80606l-0.91344,0.02792c0,0 -0.64488,-0.26302 -0.53336,-0.76924c0.18521,-0.84067 0.90147,-3.5075 0.90147,-3.5075c0,0 0.29397,-0.77137 0.56704,-0.97628c0.31901,-0.23938 1.16989,-0.36251 1.16989,-0.36251l0.04927,-1.57325z" fill="#517fcd" stroke="#000000" stroke-width="0.5" stroke-linecap="round"/><path d="M250.53486,172.68208l-0.55962,-1.47118c0,0 -0.84451,0.16107 -1.22415,0.03881c-0.32497,-0.10466 -0.85441,-0.738 -0.85441,-0.738c0,0 -1.54677,-2.28747 -1.996,-3.02178c-0.27053,-0.44217 0.25335,-0.90112 0.25335,-0.90112l0.87261,-0.27148c0,0 1.2099,0.35553 2.39949,1.08277c0.81144,0.49606 1.50436,1.6346 1.81059,1.90983c0.33285,0.29914 0.0703,1.25607 0.0703,1.25607l0.74228,1.44055z" data-paper-data="{&quot;index&quot;:null}" fill="#517fcd" stroke="#000000" stroke-width="0.5" stroke-linecap="round"/><path d="M286.00447,179.15668c0,0 -3.96883,-0.61506 -5.69334,-0.92791c-1.85306,-0.33617 -6.24111,-2.21852 -6.24111,-2.21852" fill="none" stroke="#000000" stroke-width="0.5" stroke-linecap="round"/><path d="M276.99682,194.29943c0,0 3.53433,-3.2104 5.17646,-4.1325c1.52822,-0.85813 5.07951,-2.73381 5.07951,-2.73381" data-paper-data="{&quot;index&quot;:null}" fill="none" stroke="#000000" stroke-width="0.5" stroke-linecap="round"/><path d="M270.83698,201.03078c0,0 -4.01093,2.18101 -6.12633,2.92534c-1.66049,0.58426 -6.42,2.00907 -6.42,2.00907" fill="none" stroke="#000000" stroke-width="0.5" stroke-linecap="round"/><path d="M251.6476,171.24066c0,0 4.96396,-0.20518 6.72421,-0.19436c2.24248,0.01379 6.74539,0.76759 6.74539,0.76759" data-paper-data="{&quot;index&quot;:null}" fill="none" stroke="#000000" stroke-width="0.5" stroke-linecap="round"/><path d="M194.20069,183.17917l4.03216,-0.67593c0,0 1.53798,0.10767 2.17774,0.29374c0.89047,0.25897 1.61244,0.74022 1.61244,0.74022" fill="none" stroke="#000000" stroke-width="0.25" stroke-linecap="round"/><path d="M206.24311,209.95616c0,0 -0.52556,0.69037 -1.2829,1.22558c-0.54414,0.38452 -1.9629,0.98786 -1.9629,0.98786l-4.03216,0.67593" data-paper-data="{&quot;index&quot;:null}" fill="none" stroke="#000000" stroke-width="0.25" stroke-linecap="round"/><path d="M218.25932,212.12719c0,0 -2.40035,0.95037 -4.94552,1.07056c-1.76473,0.14448 -4.2941,-0.19781 -5.10587,-0.5435c-1.84696,-0.78651 -2.92909,-4.44113 -2.92909,-4.44113" fill="none" stroke="#000000" stroke-width="0.5" stroke-linecap="round"/><path d="M201.83402,185.70418c0,0 -0.15942,-3.59572 1.24715,-4.8666c0.61822,-0.55859 2.77078,-1.64305 4.39064,-2.05753c2.30908,-0.6765 4.74453,-0.56729 4.74453,-0.56729" data-paper-data="{&quot;index&quot;:null}" fill="none" stroke="#000000" stroke-width="0.5" stroke-linecap="round"/><path d="M213.3085,177.75029l0.04301,-2.23297" fill="none" stroke="#000000" stroke-width="0.25" stroke-linecap="round"/><path d="M220.44789,214.53042l-1.08481,-2.32213" fill="none" stroke="#000000" stroke-width="0.25" stroke-linecap="round"/><path d="M219.97177,174.42423l-0.84825,0.1743c0,0 -1.09305,-0.4122 -1.66812,-0.26453c-0.89243,0.09549 -0.76937,0.04284 -1.30299,0.17676c-0.69133,0.1735 -1.45776,0.66968 -1.45776,0.66968l-1.013,0.01532c0,0 0.75178,-0.57753 1.59482,-0.92563c0.81522,-0.33663 1.71335,-0.44306 2.2411,-0.50779c1.02053,-0.12517 2.4542,0.66188 2.4542,0.66188z" fill="#5285cc" stroke="#000000" stroke-width="0.25" stroke-linecap="round"/><path d="M236.71252,171.76587l-0.84825,0.1743c0,0 -1.09305,-0.4122 -1.66812,-0.26453c-0.89243,0.09549 -0.76937,0.04284 -1.30299,0.17676c-0.69133,0.1735 -1.45775,0.66968 -1.45775,0.66968l-1.01301,0.01533c0,0 0.75178,-0.57753 1.59482,-0.92563c0.81522,-0.33663 1.71335,-0.44306 2.2411,-0.50779c1.02053,-0.12517 2.4542,0.66188 2.4542,0.66188z" fill="#5285cc" stroke="#000000" stroke-width="0.25" stroke-linecap="round"/><path d="M225.79954,214.76505c-0.52,0.11091 -1.40374,0.30317 -2.28418,0.2508c-0.91046,-0.05415 -1.80948,-0.35495 -1.80948,-0.35495l0.96262,-0.31585c0,0 0.88633,0.21912 1.59646,0.15769c0.54813,-0.0474 0.41461,-0.05707 1.2894,-0.25781c0.59179,-0.04794 1.49067,-0.79404 1.49067,-0.79404l0.85872,-0.11185c0,0 -1.09863,1.21156 -2.10419,1.42603z" data-paper-data="{&quot;index&quot;:null}" fill="#5281cc" stroke="#000000" stroke-width="0.25" stroke-linecap="round"/><path d="M242.21311,212.02211c-0.52,0.11091 -1.40374,0.30317 -2.28418,0.2508c-0.91046,-0.05415 -1.80948,-0.35495 -1.80948,-0.35495l0.96263,-0.31587c0,0 0.88633,0.21912 1.59645,0.15769c0.54813,-0.0474 0.41461,-0.05706 1.2894,-0.25781c0.59179,-0.04794 1.49067,-0.79404 1.49067,-0.79404l0.85872,-0.11185c0,0 -1.09863,1.21156 -2.10419,1.42603z" data-paper-data="{&quot;index&quot;:null}" fill="#5281cc" stroke="#000000" stroke-width="0.25" stroke-linecap="round"/><path d="M237.054,211.67711l-0.76287,-1.7501" fill="none" stroke="#000000" stroke-width="0.25" stroke-linecap="round"/><path d="M229.65923,173.16612l-0.227,1.44654" fill="none" stroke="#000000" stroke-width="0.25" stroke-linecap="round"/><path d="M196.43047,212.16449c0,0 2.00394,2.51345 2.72009,3.22083c0.52121,0.51482 0.71583,0.65817 0.71583,0.65817c0,0 0.49055,0.32069 1.00286,0.51367c0.55762,0.21004 1.1457,0.2969 1.27654,0.37937c0.25445,0.16039 0.10857,0.28206 0.10857,0.28206l-2.20466,-0.51726c0,0 -0.50749,-0.2758 -0.91535,-0.63317c-0.3325,-0.29134 -0.59562,-0.61991 -0.85457,-0.97525c-0.61356,-0.84199 -1.84931,-2.92846 -1.84931,-2.92846z" fill="#650000" stroke="#000000" stroke-width="0.25" stroke-linecap="round"/><path d="M192.80899,181.77881c0.1289,-0.42035 0.27049,-0.81677 0.48982,-1.20061c0.26904,-0.47084 0.65883,-0.89706 0.65883,-0.89706l1.91545,-1.20793c0,0 0.17758,0.06745 -0.01065,0.30205c-0.09679,0.12063 -0.62441,0.39452 -1.08305,0.77492c-0.42136,0.34949 -0.78053,0.81263 -0.78053,0.81263c0,0 -0.13723,0.19899 -0.46205,0.85562c-0.44634,0.90225 -1.52108,3.93179 -1.52108,3.93179c0,0 0.48779,-2.37539 0.79323,-3.37144z" data-paper-data="{&quot;index&quot;:null}" fill="#670000" stroke="#000000" stroke-width="0.25" stroke-linecap="round"/><text transform="translate(279.79003,189.25601) rotate(-99.08606) scale(0.06792,0.05997) skewX(-0.10943)" font-size="40" xml:space="preserve" data-paper-data="{&quot;index&quot;:null}" fill="#ffffff" fill-rule="nonzero" stroke="none" stroke-width="1" stroke-linecap="butt" stroke-linejoin="miter" stroke-miterlimit="10" stroke-dasharray="" stroke-dashoffset="0" font-family="Sans Serif" font-weight="normal" text-anchor="start" style="mix-blend-mode: normal"><tspan x="0" dy="0">POLIZIA</tspan></text><path d="M233.82348,200.56169l-2.73037,-16.28762c0,0 0.21134,-0.37945 0.61773,-0.49366c1.17473,-0.33015 3.60376,-0.68351 4.32567,-0.80452c0.41526,-0.06961 0.81342,0.33313 0.81342,0.33313l2.73037,16.28762c0,0 -0.15283,0.41686 -0.59697,0.49132c-0.69462,0.11644 -3.05763,0.63278 -4.34424,0.73354c-0.54631,0.04279 -0.81562,-0.25981 -0.81562,-0.25981z" fill="#0010ca" stroke="#000000" stroke-width="0.5" stroke-linecap="butt"/><path d="M235.5943,198.72205l-2.11795,-12.63433c0,0 -0.01235,-0.32504 0.25548,-0.46554c0.33221,-0.17428 0.82509,-0.19713 1.0155,-0.22905c0.27456,-0.04603 0.63178,0.37562 0.63178,0.37562l2.11795,12.63433c0,0 -0.21507,0.23869 -0.45813,0.34357c-0.29864,0.12887 -0.65139,0.13134 -0.84425,0.16367c-0.25108,0.04209 -0.60038,-0.18828 -0.60038,-0.18828z" fill="#ffffff" stroke="#000000" stroke-width="0.5" stroke-linecap="butt"/><path d="M231.96185,188.30987l1.54562,-0.2591" fill="none" stroke="#000000" stroke-width="0.5" stroke-linecap="round"/><path d="M237.12179,187.49305l-1.31144,0.21984" fill="none" stroke="#000000" stroke-width="0.5" stroke-linecap="round"/><path d="M238.83207,196.25917l-1.35829,0.2277" fill="none" stroke="#000000" stroke-width="0.5" stroke-linecap="round"/><path d="M235.08508,196.8873l-1.49879,0.25126" fill="none" stroke="#000000" stroke-width="0.5" stroke-linecap="round"/><path d="M241.76218,181.57137c0.74186,4.42546 -2.15346,8.59918 -6.46688,9.32226c-4.31342,0.72308 -8.41154,-2.2783 -9.1534,-6.70376c-0.74186,-4.42546 2.15346,-8.59918 6.46688,-9.32226c4.31342,-0.72308 8.41154,2.27829 9.1534,6.70376z" fill="url(#color-1)" stroke="none" stroke-width="0" stroke-linecap="butt"/></g></g></g></svg>