<svg version="1.1" xmlns="http://www.w3.org/2000/svg" xmlns:xlink="http://www.w3.org/1999/xlink" width="72.02036" height="35.30873" viewBox="0,0,72.02036,35.30873"><g transform="translate(-203.98982,-162.34565)"><g data-paper-data="{&quot;isPaintingLayer&quot;:true}" fill-rule="nonzero" stroke-linejoin="miter" stroke-miterlimit="10" stroke-dasharray="" stroke-dashoffset="0" style="mix-blend-mode: normal"><path d="M205.00916,172.18885c0,0 0.66503,-1.81595 1.00123,-2.46884c0.34122,-0.66262 1.5558,-1.47815 1.5558,-1.47815c0,0 3.09883,-1.10876 4.7106,-1.51802c1.47455,-0.37441 4.58502,-0.84232 4.58502,-0.84232c0,0 2.40507,0.24204 3.46831,0.47464c1.03378,0.22616 2.82525,0.90221 2.82525,0.90221c0,0 28.14474,0.25629 31.96867,0.24977c0.51506,-0.00088 1.99619,-0.42608 2.59822,-0.66918c0.99542,-0.40193 1.76592,-0.48358 3.25013,-0.72237c1.45973,-0.23485 4.53381,0.54102 4.53381,0.54102l6.80715,2.55378l3.02721,5.55988c0,0 0.41962,3.73291 0.41962,5.55988c0,1.84447 -0.41962,5.45498 -0.41962,5.45498l-3.38347,6.06192l-6.57364,3.04498c0,0 -2.82519,0.61492 -4.40732,0.36126c-1.49523,-0.23971 -3.16721,-0.85993 -3.16721,-0.85993c0,0 -1.74547,-0.51664 -2.35215,-0.51678c-3.39898,-0.00074 -32.4866,0.22581 -32.4866,0.22581c0,0 -2.05232,0.72931 -2.9801,0.91126c-0.87723,0.17204 -3.1428,0.26894 -3.1428,0.26894c0,0 -3.12263,-0.2887 -4.58991,-0.74985c-1.58354,-0.49768 -4.70572,-1.55221 -4.70572,-1.55221c0,0 -1.04218,-0.7751 -1.4523,-1.46716c-0.40222,-0.67871 -0.98525,-2.64594 -0.98525,-2.64594l-0.86255,-1.32877l-0.01166,-14.09204z" fill="#bf0000" stroke="#000000" stroke-width="0.5" stroke-linecap="round"/><path d="M224.79828,185.65836l-2.44804,4.66306l-12.63212,-1.38415l-0.69935,-1.39871l-1.48614,-1.13647l-0.08741,-11.80164l1.31129,-1.13645l0.61193,-1.22388l12.82154,-1.36956l2.60828,4.41515z" fill="#191919" stroke="#000000" stroke-width="0.5" stroke-linecap="round"/><path d="M226.62215,170.72028l-0.55449,-0.62443c0,0 16.96813,-1.26219 22.42833,-1.43719c5.44973,-0.17467 10.48889,0.07594 10.48889,0.07594l-9.98644,2.25729c0,0 -4.49909,0.5999 -6.8684,0.7226c-2.66087,0.1378 -8.32387,0.06418 -8.32387,0.06418z" fill="#3a4758" stroke="#000000" stroke-width="0.5" stroke-linecap="round"/><path d="M233.99178,189.49223c0,0 5.66301,-0.07362 8.32387,0.06418c2.36932,0.1227 6.8684,0.7226 6.8684,0.7226l9.98645,2.25729c0,0 -5.03917,0.25062 -10.48889,0.07594c-5.46021,-0.175 -22.51575,-1.3565 -22.51575,-1.3565l0.64192,-0.70512z" data-paper-data="{&quot;index&quot;:null}" fill="#3a4758" stroke="#000000" stroke-width="0.5" stroke-linecap="round"/><path d="M261.53572,169.12527c0,0 3.62785,0.76331 7.95312,2.39045c4.30807,2.45622 5.08988,3.16944 5.08988,3.16944" fill="none" stroke="#000000" stroke-width="0.25" stroke-linecap="round"/><path d="M274.40387,186.06283c0,0 -1.04407,1.1066 -5.35214,3.56283c-4.32527,1.62714 -7.95312,2.39045 -7.95312,2.39045" data-paper-data="{&quot;index&quot;:null}" fill="none" stroke="#000000" stroke-width="0.25" stroke-linecap="round"/><path d="M270.12157,169.0441l1.76088,0.66189l1.92324,3.23454l-0.06245,0.54949c0,0 -1.11932,-1.25412 -1.64949,-1.95833c-0.55896,-0.74244 -1.97218,-2.48759 -1.97218,-2.48759z" fill="#808080" stroke="#000000" stroke-width="0.25" stroke-linecap="round"/><path d="M271.73783,189.50104c0.53018,-0.70421 1.64949,-1.95833 1.64949,-1.95833l0.06245,0.54949l-1.92323,3.23452l-1.76088,0.66189c0,0 1.41322,-1.74514 1.97218,-2.48759z" data-paper-data="{&quot;index&quot;:null}" fill="#808080" stroke="#000000" stroke-width="0.25" stroke-linecap="round"/><path d="M224.81765,175.30605l-2.07093,-3.64731l27.15176,5.3421l-25.09678,-0.90228z" fill="none" stroke="#000000" stroke-width="0.25" stroke-linecap="round"/><path d="M264.85922,186.30479l5.76969,0.65565" fill="none" stroke="#000000" stroke-width="0.25" stroke-linecap="round"/><path d="M264.85922,174.0442l5.76969,-0.65565" data-paper-data="{&quot;index&quot;:null}" fill="none" stroke="#000000" stroke-width="0.25" stroke-linecap="round"/><path d="M274.29869,180.55332c0,0 -0.14401,0.19993 -0.27233,0.24118c-0.16914,0.05437 -0.45573,0.02357 -0.45573,0.02357c0,0 -0.0236,-0.20403 -0.01843,-0.29703c0.00579,-0.10426 0.01843,-0.26555 0.01843,-0.26555c0,0 0.3234,0.00345 0.48538,0.08744c0.12754,0.06613 0.24267,0.21041 0.24267,0.21041z" fill="#000000" stroke="#8a7100" stroke-width="0.25" stroke-linecap="round"/><path d="M226.61723,170.68798l-2.1855,-2.36033l2.79743,-0.26226" fill="none" stroke="#000000" stroke-width="0.5" stroke-linecap="round"/><path d="M227.41319,193.14688l-2.79743,-0.26226l2.1855,-2.36033" data-paper-data="{&quot;index&quot;:null}" fill="none" stroke="#000000" stroke-width="0.5" stroke-linecap="round"/><path d="M210.56235,186.00311v-10.55205l14.21497,0.52962l-0.12326,8.65017z" fill="#3a4758" stroke="#000000" stroke-width="0.5" stroke-linecap="butt"/><path d="M210.46142,175.34476l-1.53319,-1.6139" fill="none" stroke="#000000" stroke-width="0.5" stroke-linecap="round"/><path d="M210.4614,185.99651l-1.21042,1.21042" fill="none" stroke="#000000" stroke-width="0.5" stroke-linecap="round"/><path d="M220.20129,171.76457l2.02835,3.27657" fill="none" stroke="#000000" stroke-width="0.5" stroke-linecap="round"/><path d="M217.91613,171.9901l1.95839,3.16359" fill="none" stroke="#000000" stroke-width="0.5" stroke-linecap="round"/><path d="M215.75775,172.31324l1.60863,2.59859" fill="none" stroke="#000000" stroke-width="0.5" stroke-linecap="round"/><path d="M213.48804,172.4575l1.46873,2.37259" fill="none" stroke="#000000" stroke-width="0.5" stroke-linecap="round"/><path d="M212.31666,174.52571l-1.04903,-1.6946" fill="none" stroke="#000000" stroke-width="0.5" stroke-linecap="round"/><path d="M222.28962,185.78955l-2.16824,3.50256" data-paper-data="{&quot;index&quot;:null}" fill="none" stroke="#000000" stroke-width="0.5" stroke-linecap="round"/><path d="M219.72467,185.99986l-2.02834,3.27658" data-paper-data="{&quot;index&quot;:null}" fill="none" stroke="#000000" stroke-width="0.5" stroke-linecap="round"/><path d="M217.28648,186.19866l-1.74854,2.82458" data-paper-data="{&quot;index&quot;:null}" fill="none" stroke="#000000" stroke-width="0.5" stroke-linecap="round"/><path d="M214.94681,186.29654l-1.46873,2.37259" data-paper-data="{&quot;index&quot;:null}" fill="none" stroke="#000000" stroke-width="0.25" stroke-linecap="round"/><path d="M211.11777,188.36547l1.04903,-1.6946" data-paper-data="{&quot;index&quot;:null}" fill="none" stroke="#000000" stroke-width="0.5" stroke-linecap="round"/><path d="M251.27274,167.24706l0.67714,-1.03829l-0.62001,-0.10286l-0.66267,-2.48498c0,0 0.99849,0.0492 1.38927,0.4338c0.48552,0.47785 1.19134,2.04911 1.19134,2.04911l-0.39186,0.1826l-0.61492,0.97451z" fill="#bf0000" stroke="#000000" stroke-width="0.25" stroke-linecap="round"/><path d="M251.79589,193.88106l0.61492,0.97451l0.39188,0.18262c0,0 -0.70582,1.57126 -1.19134,2.04911c-0.39078,0.3846 -1.38927,0.4338 -1.38927,0.4338l0.66267,-2.48499l0.62001,-0.10286l-0.67714,-1.03829z" data-paper-data="{&quot;index&quot;:null}" fill="#bf0000" stroke="#000000" stroke-width="0.25" stroke-linecap="round"/><path d="M270.61055,191.25763l0.27896,-0.08583l0.53644,-0.47208l0.27896,-0.06438" fill="none" stroke="#ffffff" stroke-width="0.125" stroke-linecap="round"/><path d="M271.28154,190.43059l0.57132,-0.09864" fill="none" stroke="#ffffff" stroke-width="0.125" stroke-linecap="round"/><path d="M272.39528,189.47867l-0.4417,0.06081" fill="none" stroke="#ffffff" stroke-width="0.125" stroke-linecap="round"/><path d="M272.29872,189.10312l0.25392,0.05664" fill="none" stroke="#ffffff" stroke-width="0.125" stroke-linecap="round"/><path d="M272.0729,171.52225c-0.55896,-0.74244 -1.97218,-2.48759 -1.97218,-2.48759l1.76088,0.66189l1.92323,3.23452l-0.06245,0.54949c0,0 -1.11931,-1.25412 -1.64949,-1.95833z" data-paper-data="{&quot;index&quot;:null}" fill="#808080" stroke="#000000" stroke-width="0.25" stroke-linecap="round"/><path d="M272.03998,170.38793l-0.27896,-0.06437l-0.53644,-0.47208l-0.27896,-0.08583" data-paper-data="{&quot;index&quot;:null}" fill="none" stroke="#ffffff" stroke-width="0.125" stroke-linecap="round"/><path d="M271.6166,170.59269l0.57133,0.09864" data-paper-data="{&quot;index&quot;:null}" fill="none" stroke="#ffffff" stroke-width="0.125" stroke-linecap="round"/><path d="M272.73034,171.5446l-0.4417,-0.06081" data-paper-data="{&quot;index&quot;:null}" fill="none" stroke="#ffffff" stroke-width="0.125" stroke-linecap="round"/><path d="M272.88772,171.86352l-0.25392,0.05664" data-paper-data="{&quot;index&quot;:null}" fill="none" stroke="#ffffff" stroke-width="0.125" stroke-linecap="round"/><path d="M224.91641,184.56905l25.09678,-0.90228l-26.9096,5.42282l1.74807,-3.32444z" data-paper-data="{&quot;index&quot;:null}" fill="none" stroke="#000000" stroke-width="0.25" stroke-linecap="round"/><path d="M230.44884,167.35506l-1.28262,2.33203" fill="none" stroke="#000000" stroke-width="0.25" stroke-linecap="round"/><path d="M231.33964,193.94548l-1.28262,-2.33203" data-paper-data="{&quot;index&quot;:null}" fill="none" stroke="#000000" stroke-width="0.25" stroke-linecap="round"/><path d="M254.67322,193.6276l-0.5596,-0.83941" fill="none" stroke="#000000" stroke-width="0.25" stroke-linecap="round"/><path d="M253.95371,168.33868l0.532,-0.83941" data-paper-data="{&quot;index&quot;:null}" fill="none" stroke="#000000" stroke-width="0.25" stroke-linecap="round"/><path d="M250.63019,171.73613l10.76566,-2.46072l2.25567,5.02398c0,0 0.39436,4.39584 0.39436,6.45546c0,1.89036 -0.39436,5.43805 -0.39436,5.43805l-2.56325,5.74169l-10.48173,-2.38185c0,0 0.40211,-5.84716 0.40603,-8.79797c0.00396,-2.98759 -0.38237,-9.01862 -0.38237,-9.01862z" fill="#3a485a" stroke="#000000" stroke-width="0.5" stroke-linecap="round"/><path d="M231.47337,162.34565" fill="none" stroke="#000000" stroke-width="0.25" stroke-linecap="round"/><path d="M205.14442,172.07592l3.43422,0.95395" fill="none" stroke="#000000" stroke-width="0.25" stroke-linecap="round"/><path d="M208.96021,187.91144l-3.52961,0.85855" fill="none" stroke="#000000" stroke-width="0.25" stroke-linecap="round"/></g></g></svg>