<svg version="1.1" xmlns="http://www.w3.org/2000/svg" xmlns:xlink="http://www.w3.org/1999/xlink" width="38.44512" height="38.80953" viewBox="0,0,38.44512,38.80953"><defs><radialGradient cx="28.5904" cy="170.51634" r="2.85188" gradientUnits="userSpaceOnUse" id="color-1"><stop offset="0" stop-color="#00bfba"/><stop offset="1" stop-color="#2100bf"/></radialGradient></defs><g transform="translate(-12.56316,-152.98701)"><g data-paper-data="{&quot;isPaintingLayer&quot;:true}" fill-rule="nonzero" stroke-linejoin="miter" stroke-miterlimit="10" stroke-dasharray="" stroke-dashoffset="0" style="mix-blend-mode: normal"><path d="M15.62419,191.79654c-1.69056,0 -3.06103,-1.37047 -3.06103,-3.06103v-32.68746c0,-1.69056 1.37047,-3.06103 3.06103,-3.06103h32.32305c1.69056,0 3.06103,1.37047 3.06103,3.06103v32.68746c0,1.69056 -1.37047,3.06103 -3.06103,3.06103z" fill="#000000" stroke="none" stroke-width="NaN" stroke-linecap="butt"/><g><path d="M22.50831,185.66134c0,0 -1.42607,-0.63042 -2.58814,-1.86839c-1.1203,-1.19686 -1.9748,-2.92455 -1.9748,-2.92455c0,0 -1.10278,-1.44608 -1.35014,-1.80309c-0.10551,-0.15229 -0.27734,-0.42368 -0.3331,-0.7543c-0.05857,-0.34717 0.00295,-0.83936 0.00295,-0.83936c0,0 1.28821,-1.71142 2.24449,-2.66771c0.99721,-0.99721 3.25833,-2.74756 3.25833,-2.74756l10.38215,-10.23987c0,0 1.47246,-2.08782 2.0983,-2.73429c0.54036,-0.55819 2.3882,-1.95644 2.3882,-1.95644c0,0 1.01675,-0.4001 1.43507,-0.51431c0.49156,-0.04247 0.93137,0.13992 0.93137,0.13992l1.85144,1.03446c0,0 1.31725,0.3685 2.97719,2.02845c1.64292,1.64292 1.92547,2.92693 1.92547,2.92693l0.97529,1.78988c0,0 0.24328,0.44688 0.19461,0.80115c-0.05661,0.41211 -0.60587,1.70364 -0.60587,1.70364c0,0 -1.07396,1.66583 -1.68968,2.29311c-0.63073,0.64259 -2.68466,2.23904 -2.68466,2.23904l-10.28931,10.22729c0,0 -1.6908,2.20158 -2.71744,3.22822c-0.93195,0.93195 -2.93988,2.42911 -2.93988,2.42911c0,0 -0.45648,0.08593 -0.70753,-0.03296c-0.24407,-0.11559 -0.56057,-0.22257 -0.721,-0.33348c-0.33027,-0.22835 -2.0633,-1.4249 -2.0633,-1.4249z" fill="#517fcd" stroke="#000000" stroke-width="0.5" stroke-linecap="round"/><path d="M30.50308,167.91069c0,0 -0.2422,-0.73559 0.10137,-1.41951c0.39786,-0.79196 1.94256,-3.26016 1.94256,-3.26016c0,0 0.83043,-0.64243 2.04045,-0.0319c1.00621,0.5077 2.61353,1.95545 3.21677,2.56978c0.58447,0.59519 2.17766,2.36208 2.72191,3.34682c0.70155,1.26935 0.02846,1.97592 0.02846,1.97592c0,0 -2.70554,1.53684 -3.43182,1.89427c-0.80119,0.39428 -1.32592,0.21854 -1.32592,0.21854z" fill="#4c5e73" stroke="#000000" stroke-width="0.5" stroke-linecap="round"/><path d="M26.59251,186.57978l-0.59206,0.25951c0,0 -0.30811,0.03369 -0.85352,-0.0439c-0.62568,-0.10541 -1.56946,-0.50019 -1.44665,-0.54423c0.1605,-0.05756 1.71463,0.54206 2.16006,0.20018c1.14544,-0.87918 3.13797,-2.70886 5.05417,-4.6731c1.42331,-1.45899 2.62311,-2.5625 3.86033,-3.82954c2.61933,-2.68246 4.80673,-4.99878 4.80673,-4.99878c0,0 2.09524,-2.7138 2.79056,-4.09798c0.98713,-1.96511 2.41662,-6.68266 2.41662,-6.68266c0,0 0.89828,1.97763 1.02252,2.62549c0.13818,0.72065 -0.39797,2.33914 -0.39797,2.33914c0,0 -0.79575,0.88661 -1.57038,1.7167c-1.02041,1.09346 -4.02055,4.27446 -4.02055,4.27446c0,0 -3.00837,3.10884 -4.84379,4.97157c-0.65286,0.66257 -2.0044,1.89647 -3.29352,3.28333c-1.11996,1.20486 -2.10974,2.49675 -2.95076,3.34375c-1.77491,1.78752 -2.14177,1.85607 -2.14177,1.85607z" data-paper-data="{&quot;index&quot;:null}" fill="#ffffff" stroke="none" stroke-width="0" stroke-linecap="round"/><path d="M40.13074,171.97912c0,0 -3.27413,3.71567 -4.33105,4.79574c-1.71863,1.75626 -4.99918,4.7388 -4.99918,4.7388c0,0 -0.43952,0.4038 -0.63844,0.51571c-0.15081,0.08483 -0.57891,0.26141 -0.57891,0.26141l-0.4419,-0.07197c0,0 0.24519,-0.5094 0.56023,-1.13325c0.31914,-0.63193 0.7119,-1.33214 1.2991,-2.09529c0.82832,-1.07651 1.5173,-1.77222 2.53604,-2.68974c0.96198,-0.94932 2.86149,-2.17614 2.86149,-2.17614c0,0 2.92398,-1.7833 3.52082,-2.12205c0.65726,-0.37303 0.2118,-0.02323 0.2118,-0.02323z" fill="#4c5e73" stroke="#000000" stroke-width="0.5" stroke-linecap="round"/><path d="M31.49749,163.70349c-0.33874,0.59683 -2.12205,3.52082 -2.12205,3.52082c0,0 -1.22682,1.89951 -2.17614,2.86149c-0.91752,1.01874 -1.61322,1.70773 -2.68973,2.53604c-0.76315,0.58721 -1.46336,0.97997 -2.09529,1.2991c-0.62384,0.31505 -1.13325,0.56023 -1.13325,0.56023l-0.07197,-0.4419c0,0 0.17658,-0.42811 0.26141,-0.57891c0.11189,-0.19892 0.51571,-0.63844 0.51571,-0.63844c0,0 2.98254,-3.28055 4.7388,-4.99918c1.08006,-1.05692 4.79574,-4.33105 4.79574,-4.33105c0,0 0.34981,-0.44546 -0.02323,0.2118z" data-paper-data="{&quot;index&quot;:null}" fill="#4c5e73" stroke="#000000" stroke-width="0.5" stroke-linecap="round"/><path d="M17.03937,177.02664c0,0 0.06856,-0.36686 1.85607,-2.14177c0.847,-0.84102 2.1389,-1.8308 3.34375,-2.95076c1.38685,-1.28912 2.62076,-2.64066 3.28333,-3.29352c1.86273,-1.83543 4.97157,-4.84379 4.97157,-4.84379c0,0 3.18099,-3.00014 4.27446,-4.02055c0.83008,-0.77462 1.7167,-1.57038 1.7167,-1.57038c0,0 1.61849,-0.53615 2.33914,-0.39797c0.64785,0.12422 2.62549,1.02252 2.62549,1.02252c0,0 -4.71755,1.4295 -6.68266,2.41662c-1.38418,0.69531 -4.09799,2.79055 -4.09799,2.79055c0,0 -2.31631,2.18741 -4.99878,4.80673c-1.26705,1.23722 -2.37055,2.43702 -3.82954,3.86033c-1.96425,1.91621 -3.79392,3.90873 -4.6731,5.05417c-0.34188,0.44543 0.25775,1.99956 0.20018,2.16006c-0.04405,0.12281 -0.43882,-0.82096 -0.54423,-1.44664c-0.0776,-0.54541 -0.0439,-0.85352 -0.0439,-0.85352z" fill="#ffffff" stroke="none" stroke-width="0" stroke-linecap="round"/><path d="M23.6503,175.35814l4.54415,4.75203c0,0 0.22283,0.17886 0.12733,0.49123c-0.24644,0.80612 -1.00773,2.34167 -1.2688,2.80097c-0.34303,0.60351 -0.72026,0.48496 -0.72026,0.48496c0,0 -1.30179,-0.2373 -4.01341,-2.72822c-2.3675,-2.84805 -2.72821,-4.09135 -2.72821,-4.09135c0,0 -0.09244,-0.31925 0.37058,-0.60361c0.47144,-0.28953 2.11058,-0.98888 3.03079,-1.2165c0.36454,-0.09017 0.65782,0.1105 0.65782,0.1105z" fill="#4c5e73" stroke="#000000" stroke-width="0.5" stroke-linecap="round"/><path d="M25.25405,186.29772c0,0 -0.8587,-0.00732 -1.63056,-0.24067c-0.82573,-0.24963 -1.46198,-0.56729 -1.46198,-0.56729" fill="none" stroke="#000000" stroke-width="0.5" stroke-linecap="round"/><path d="M18.01026,181.05991c0,0 -0.31767,-0.63626 -0.56729,-1.46198c-0.23334,-0.77185 -0.24067,-1.63056 -0.24067,-1.63056" data-paper-data="{&quot;index&quot;:null}" fill="none" stroke="#000000" stroke-width="0.5" stroke-linecap="round"/><path d="M33.35518,162.84906c0,0 -0.11722,-0.44843 -0.12116,-0.63356c-0.00321,-0.15066 0.07884,-0.49745 0.07884,-0.49745c0,0 0.13508,-0.21745 0.35403,-0.38825c0.63545,-0.49567 4.04747,-3.34316 4.04747,-3.34316c0,0 0.41409,-0.21214 0.66613,-0.0657c0.94812,0.55084 3.24335,2.08081 4.30798,3.12915c0.95554,0.94092 2.40318,3.31966 3.02885,4.3589c0.2406,0.39963 0.01034,0.60981 0.01034,0.60981c0,0 -2.84749,3.27058 -3.34316,3.90602c-0.17079,0.21896 -0.38825,0.35403 -0.38825,0.35403c0,0 -0.34679,0.08205 -0.49745,0.07884c-0.18514,-0.00394 -0.5314,-0.10073 -0.5314,-0.10073" fill="none" stroke="#000000" stroke-width="0.25" stroke-linecap="round"/><path d="M46.55499,165.43359c0,0 -0.17446,0.55544 -0.28533,0.79937c-0.07985,0.17568 -0.27111,0.4868 -0.37697,0.60637c-0.06943,0.07842 -0.07832,0.00301 -0.07832,0.00301c0,0 0.42763,-0.97324 0.35798,-1.65934c-0.06639,-0.654 -0.68488,-2.3656 -0.68488,-2.3656c0,0 0.55216,1.04371 0.74701,1.46907c0.08311,0.18144 0.20484,0.45065 0.25585,0.66929c0.04812,0.20627 0.06466,0.47784 0.06466,0.47784z" fill="#ffffff" stroke="#000000" stroke-width="0.25" stroke-linecap="round"/><path d="M38.29179,157.06824c0,0 0.27157,0.01654 0.47784,0.06466c0.21863,0.05101 0.48786,0.17274 0.66929,0.25585c0.42537,0.19485 1.46907,0.74701 1.46907,0.74701c0,0 -1.7116,-0.61848 -2.3656,-0.68488c-0.6861,-0.06965 -1.65934,0.35798 -1.65934,0.35798c0,0 -0.07542,-0.00889 0.00301,-0.07832c0.11957,-0.10587 0.43069,-0.29712 0.60637,-0.37697c0.24393,-0.11087 0.79937,-0.28533 0.79937,-0.28533z" data-paper-data="{&quot;index&quot;:null}" fill="#ffffff" stroke="#000000" stroke-width="0.25" stroke-linecap="round"/><path d="M40.08255,171.91568l0.26049,0.50567c0,0 0.327,0.11994 0.34468,0.27602c0.01627,0.14361 0.20051,0.57363 0.17696,0.90663c-0.03452,0.48819 -0.17942,0.90644 -0.17942,0.90644l-0.25539,0.19409c0,0 -0.23791,0.05622 -0.30917,-0.11119c-0.11835,-0.27802 -0.457,-1.18618 -0.457,-1.18618c0,0 -0.07314,-0.28037 -0.03685,-0.39457c0.04241,-0.13342 0.26052,-0.34198 0.26052,-0.34198l-0.30647,-0.4597z" fill="#517fcd" stroke="#000000" stroke-width="0.5" stroke-linecap="round"/><path d="M31.25213,164.22263l-0.4597,-0.30647c0,0 -0.20856,0.21811 -0.34198,0.26052c-0.11421,0.0363 -0.39457,-0.03685 -0.39457,-0.03685c0,0 -0.90817,-0.33865 -1.18618,-0.457c-0.16742,-0.07126 -0.11119,-0.30917 -0.11119,-0.30917l0.19409,-0.25539c0,0 0.41825,-0.1449 0.90644,-0.17942c0.33299,-0.02355 0.76302,0.16069 0.90663,0.17696c0.15608,0.01768 0.27602,0.34469 0.27602,0.34469l0.50567,0.26049z" data-paper-data="{&quot;index&quot;:null}" fill="#517fcd" stroke="#000000" stroke-width="0.5" stroke-linecap="round"/><path d="M42.70923,158.84626c0,0 -1.25968,0.63286 -1.81633,0.8948c-0.59813,0.28148 -2.23585,0.63754 -2.23585,0.63754" fill="none" stroke="#000000" stroke-width="0.5" stroke-linecap="round"/><path d="M43.22001,165.00966c0,0 0.35606,-1.63771 0.63754,-2.23585c0.26195,-0.55664 0.8948,-1.81633 0.8948,-1.81633" data-paper-data="{&quot;index&quot;:null}" fill="none" stroke="#000000" stroke-width="0.5" stroke-linecap="round"/><path d="M42.83093,168.18868c0,0 -0.70202,1.44061 -1.15498,2.08436c-0.35555,0.50532 -1.42561,1.88231 -1.42561,1.88231" fill="none" stroke="#000000" stroke-width="0.5" stroke-linecap="round"/><path d="M31.27648,163.58393c0,0 1.37699,-1.07005 1.88231,-1.42561c0.64375,-0.45296 2.08436,-1.15498 2.08436,-1.15498" data-paper-data="{&quot;index&quot;:null}" fill="none" stroke="#000000" stroke-width="0.5" stroke-linecap="round"/><path d="M17.28952,178.70101l1.01475,-1.01475c0,0 0.46152,-0.28259 0.68229,-0.35976c0.30728,-0.10741 0.61169,-0.11697 0.61169,-0.11697" fill="none" stroke="#000000" stroke-width="0.25" stroke-linecap="round"/><path d="M26.1873,183.90074c0,0 -0.00956,0.3044 -0.11697,0.61169c-0.07718,0.22077 -0.35976,0.68229 -0.35976,0.68229l-1.01475,1.01475" data-paper-data="{&quot;index&quot;:null}" fill="none" stroke="#000000" stroke-width="0.25" stroke-linecap="round"/><path d="M30.06412,182.07296c0,0 -0.49243,0.7607 -1.19539,1.31364c-0.47496,0.40086 -1.26763,0.81839 -1.5701,0.88498c-0.68815,0.15152 -1.74207,-0.67255 -1.74207,-0.67255" fill="none" stroke="#000000" stroke-width="0.5" stroke-linecap="round"/><path d="M19.98575,177.86742c0,0 -0.77819,-0.99525 -0.63511,-1.64508c0.06289,-0.28562 0.45717,-1.03416 0.83571,-1.48268c0.52214,-0.66383 1.24049,-1.12884 1.24049,-1.12884" data-paper-data="{&quot;index&quot;:null}" fill="none" stroke="#000000" stroke-width="0.5" stroke-linecap="round"/><path d="M21.64477,173.25611l-0.44267,-0.64699" fill="none" stroke="#000000" stroke-width="0.25" stroke-linecap="round"/><path d="M30.39611,181.87125l0.7832,0.44268" fill="none" stroke="#000000" stroke-width="0.25" stroke-linecap="round"/><path d="M22.87158,170.94782l-0.20693,0.22265c0,0 -0.3964,0.10489 -0.53068,0.26427c-0.23562,0.20913 -0.21117,0.16901 -0.3364,0.31601c-0.16224,0.19045 -0.28021,0.48843 -0.28021,0.48843l-0.28641,0.21078c0,0 0.0972,-0.31825 0.26724,-0.5895c0.16442,-0.26232 0.39943,-0.47573 0.53708,-0.60176c0.26619,-0.24371 0.83631,-0.31087 0.83631,-0.31087z" fill="#5285cc" stroke="#000000" stroke-width="0.25" stroke-linecap="round"/><path d="M27.11476,166.77707l-0.20693,0.22265c0,0 -0.3964,0.10489 -0.53068,0.26427c-0.23562,0.20913 -0.21117,0.16901 -0.3364,0.31601c-0.16224,0.19045 -0.28021,0.48843 -0.28021,0.48843l-0.28641,0.21078c0,0 0.0972,-0.31825 0.26724,-0.5895c0.16442,-0.26232 0.39943,-0.47573 0.53708,-0.60176c0.26619,-0.24371 0.83631,-0.31087 0.83631,-0.31087z" fill="#5285cc" stroke="#000000" stroke-width="0.25" stroke-linecap="round"/><path d="M32.75672,181.29059c-0.12603,0.13765 -0.33945,0.37267 -0.60176,0.53708c-0.27126,0.17003 -0.5895,0.26724 -0.5895,0.26724l0.21078,-0.28641c0,0 0.29798,-0.11796 0.48843,-0.28021c0.14701,-0.12523 0.10688,-0.10079 0.31601,-0.3364c0.15937,-0.13428 0.26427,-0.53068 0.26427,-0.53068l0.22265,-0.20693c0,0 -0.06715,0.57013 -0.31087,0.83631z" data-paper-data="{&quot;index&quot;:null}" fill="#5281cc" stroke="#000000" stroke-width="0.25" stroke-linecap="round"/><path d="M36.88916,177.16233c-0.12603,0.13765 -0.33945,0.37267 -0.60176,0.53708c-0.27126,0.17003 -0.5895,0.26724 -0.5895,0.26724l0.21078,-0.28641c0,0 0.29798,-0.11796 0.48843,-0.28021c0.14701,-0.12523 0.10688,-0.10078 0.31601,-0.3364c0.15937,-0.13428 0.26427,-0.53068 0.26427,-0.53068l0.22265,-0.20693c0,0 -0.06715,0.57013 -0.31087,0.83631z" data-paper-data="{&quot;index&quot;:null}" fill="#5281cc" stroke="#000000" stroke-width="0.25" stroke-linecap="round"/><path d="M35.3443,178.11489l-0.57462,-0.34478" fill="none" stroke="#000000" stroke-width="0.25" stroke-linecap="round"/><path d="M25.38409,168.6144l0.22985,0.4597" fill="none" stroke="#000000" stroke-width="0.25" stroke-linecap="round"/><path d="M23.83261,186.53126c0,0 1.08488,0.31009 1.4337,0.36635c0.25387,0.04095 0.3387,0.04227 0.3387,0.04227c0,0 0.20555,-0.00829 0.3913,-0.05752c0.20217,-0.05358 0.38796,-0.14857 0.44216,-0.15167c0.10541,-0.006 0.0885,0.0585 0.0885,0.0585l-0.73552,0.30136c0,0 -0.20125,0.02457 -0.39063,0.00553c-0.15439,-0.01552 -0.29655,-0.05583 -0.44296,-0.10463c-0.34692,-0.11565 -1.12524,-0.46021 -1.12524,-0.46021z" fill="#650000" stroke="#000000" stroke-width="0.25" stroke-linecap="round"/><path d="M16.60643,178.58433c-0.04881,-0.14641 -0.08911,-0.28856 -0.10463,-0.44296c-0.01904,-0.18939 0.00553,-0.39063 0.00553,-0.39063l0.30136,-0.73552c0,0 0.0645,-0.0169 0.0585,0.0885c-0.00308,0.0542 -0.09808,0.23998 -0.15167,0.44216c-0.04922,0.18574 -0.05752,0.3913 -0.05752,0.3913c0,0 0.00132,0.08484 0.04227,0.3387c0.05626,0.34882 0.36635,1.4337 0.36635,1.4337c0,0 -0.34457,-0.77832 -0.46021,-1.12524z" data-paper-data="{&quot;index&quot;:null}" fill="#670000" stroke="#000000" stroke-width="0.25" stroke-linecap="round"/><text transform="translate(42.99077,162.99903) rotate(-134.57051) scale(0.02384,0.02105) skewX(-0.10991)" font-size="40" xml:space="preserve" data-paper-data="{&quot;index&quot;:null}" fill="#ffffff" fill-rule="nonzero" stroke="none" stroke-width="1" stroke-linecap="butt" stroke-linejoin="miter" stroke-miterlimit="10" stroke-dasharray="" stroke-dashoffset="0" font-family="Sans Serif" font-weight="normal" text-anchor="start" style="mix-blend-mode: normal"><tspan x="0" dy="0">POLIZIA</tspan></text><path d="M32.15618,175.59612l-4.099,-4.099c0,0 -0.0169,-0.15151 0.07597,-0.26696c0.26849,-0.33371 0.89076,-0.92963 1.07243,-1.11131c0.1045,-0.1045 0.30037,-0.07052 0.30037,-0.07052l4.099,4.099c0,0 0.04126,0.15029 -0.07052,0.26206c-0.17481,0.17481 -0.745,0.80386 -1.09221,1.0948c-0.14743,0.12354 -0.28605,0.09192 -0.28605,0.09192z" fill="#0010ca" stroke="#000000" stroke-width="0.5" stroke-linecap="butt"/><path d="M32.28749,174.7095l-3.1796,-3.1796c0,0 -0.06975,-0.09038 -0.02183,-0.18512c0.05945,-0.1175 0.19566,-0.22446 0.24358,-0.27238c0.0691,-0.0691 0.2571,-0.02137 0.2571,-0.02137l3.1796,3.1796c0,0 -0.01283,0.11204 -0.06095,0.19154c-0.0591,0.09769 -0.15942,0.17026 -0.20795,0.21879c-0.06319,0.06319 -0.20996,0.06851 -0.20996,0.06851z" fill="#ffffff" stroke="#000000" stroke-width="0.5" stroke-linecap="butt"/><path d="M29.51676,172.08464l-0.38898,0.38898" fill="none" stroke="#000000" stroke-width="0.5" stroke-linecap="round"/><path d="M30.43616,171.18882l-0.33004,0.33004" fill="none" stroke="#000000" stroke-width="0.5" stroke-linecap="round"/><path d="M32.36925,173.6877l0.34183,-0.34183" fill="none" stroke="#000000" stroke-width="0.5" stroke-linecap="round"/><path d="M31.76811,174.28886l-0.37719,0.3772" fill="none" stroke="#000000" stroke-width="0.5" stroke-linecap="round"/><path d="M30.55592,168.5508c1.11373,1.11373 1.13658,2.89658 0.05105,3.98211c-1.08553,1.08553 -2.86839,1.06267 -3.98211,-0.05105c-1.11373,-1.11373 -1.13658,-2.89658 -0.05105,-3.98211c1.08553,-1.08553 2.86839,-1.06268 3.98211,0.05105z" fill="url(#color-1)" stroke="none" stroke-width="0" stroke-linecap="butt"/></g></g></g></svg>