<svg version="1.1" xmlns="http://www.w3.org/2000/svg" xmlns:xlink="http://www.w3.org/1999/xlink" width="71.90568" height="35.25232" viewBox="0,0,71.90568,35.25232"><g transform="translate(-204.04716,-162.37385)"><g data-paper-data="{&quot;isPaintingLayer&quot;:true}" fill-rule="nonzero" stroke-linejoin="miter" stroke-miterlimit="10" stroke-dasharray="" stroke-dashoffset="0" style="mix-blend-mode: normal"><path d="M205.06526,172.20126c0,0 0.66396,-1.81303 0.99963,-2.46488c0.34067,-0.66156 1.5533,-1.47579 1.5533,-1.47579c0,0 3.09386,-1.10698 4.70305,-1.51558c1.47218,-0.37381 4.57767,-0.84096 4.57767,-0.84096c0,0 2.40122,0.24166 3.46275,0.47388c1.03213,0.2258 2.82072,0.90076 2.82072,0.90076c0,0 28.09962,0.25588 31.91742,0.24936c0.51423,-0.00088 1.99299,-0.42541 2.59405,-0.66811c0.99382,-0.40129 1.76309,-0.4828 3.24491,-0.72121c1.45739,-0.23447 4.52655,0.54015 4.52655,0.54015l6.79623,2.54968l3.02236,5.55097c0,0 0.41894,3.72692 0.41894,5.55097c0,1.84151 -0.41894,5.44623 -0.41894,5.44623l-3.37805,6.0522l-6.5631,3.0401c0,0 -2.82066,0.61393 -4.40026,0.36068c-1.49283,-0.23933 -3.16212,-0.85855 -3.16212,-0.85855c0,0 -1.74267,-0.51581 -2.34839,-0.51595c-3.39353,-0.00074 -32.43452,0.22545 -32.43452,0.22545c0,0 -2.04903,0.72814 -2.97532,0.9098c-0.87583,0.17177 -3.13776,0.26851 -3.13776,0.26851c0,0 -3.11763,-0.28824 -4.58255,-0.74865c-1.581,-0.49689 -4.69818,-1.54972 -4.69818,-1.54972c0,0 -1.0405,-0.77386 -1.44998,-1.46481c-0.40157,-0.67762 -0.98367,-2.6417 -0.98367,-2.6417l-0.86116,-1.32664l-0.01163,-14.06945z" fill="#f3df00" stroke="#000000" stroke-width="0.5" stroke-linecap="round"/><path d="M224.82265,185.64918l-2.44411,4.65558l-12.61187,-1.38193l-0.69823,-1.39647l-1.48376,-1.13464l-0.08728,-11.78272l1.30919,-1.13463l0.61095,-1.22192l12.80098,-1.36738l2.6041,4.40807z" fill="#191919" stroke="#000000" stroke-width="0.5" stroke-linecap="round"/><path d="M226.6436,170.73505l-0.5536,-0.62343c0,0 16.94092,-1.26016 22.39238,-1.43488c5.44099,-0.1744 10.47208,0.07581 10.47208,0.07581l-9.97043,2.25367c0,0 -4.49187,0.59894 -6.85739,0.72144c-2.6566,0.13758 -8.31053,0.06408 -8.31053,0.06408z" fill="#3a4758" stroke="#000000" stroke-width="0.5" stroke-linecap="round"/><path d="M234.00141,189.47689c0,0 5.65393,-0.0735 8.31053,0.06408c2.36552,0.1225 6.85739,0.72144 6.85739,0.72144l9.97044,2.25367c0,0 -5.03109,0.25021 -10.47208,0.07581c-5.45145,-0.17472 -22.47965,-1.35433 -22.47965,-1.35433l0.64089,-0.70399z" data-paper-data="{&quot;index&quot;:null}" fill="#3a4758" stroke="#000000" stroke-width="0.5" stroke-linecap="round"/><path d="M261.50118,169.1426c0,0 3.62205,0.76209 7.94037,2.38662c4.30117,2.45228 5.08172,3.16436 5.08172,3.16436" fill="none" stroke="#000000" stroke-width="0.25" stroke-linecap="round"/><path d="M274.34872,186.05299c0,0 -1.0424,1.10484 -5.34357,3.55712c-4.31833,1.62453 -7.94037,2.38662 -7.94037,2.38662" data-paper-data="{&quot;index&quot;:null}" fill="none" stroke="#000000" stroke-width="0.25" stroke-linecap="round"/><path d="M270.07327,169.06156l1.75806,0.66083l1.92016,3.22935l-0.06235,0.54862c0,0 -1.11753,-1.25211 -1.64685,-1.95519c-0.55806,-0.74125 -1.96902,-2.4836 -1.96902,-2.4836z" fill="#808080" stroke="#000000" stroke-width="0.25" stroke-linecap="round"/><path d="M271.68694,189.4857c0.52934,-0.70308 1.64685,-1.95519 1.64685,-1.95519l0.06235,0.54862l-1.92014,3.22934l-1.75806,0.66083c0,0 1.41095,-1.74235 1.96902,-2.4836z" data-paper-data="{&quot;index&quot;:null}" fill="#808080" stroke="#000000" stroke-width="0.25" stroke-linecap="round"/><path d="M224.84199,175.31346l-2.06761,-3.64146l27.10822,5.33354l-25.05655,-0.90083z" fill="none" stroke="#000000" stroke-width="0.25" stroke-linecap="round"/><path d="M264.81936,186.29458l5.76045,0.6546" fill="none" stroke="#000000" stroke-width="0.25" stroke-linecap="round"/><path d="M264.81936,174.05363l5.76045,-0.6546" data-paper-data="{&quot;index&quot;:null}" fill="none" stroke="#000000" stroke-width="0.25" stroke-linecap="round"/><path d="M274.2437,180.55232c0,0 -0.14378,0.19961 -0.27189,0.24079c-0.16886,0.05429 -0.455,0.02353 -0.455,0.02353c0,0 -0.02357,-0.2037 -0.01841,-0.29656c0.00578,-0.1041 0.01841,-0.26513 0.01841,-0.26513c0,0 0.32288,0.00345 0.4846,0.08729c0.12733,0.06603 0.24228,0.21007 0.24228,0.21007z" fill="#000000" stroke="#8a7100" stroke-width="0.25" stroke-linecap="round"/><path d="M226.63868,170.70281l-2.18199,-2.35654l2.79295,-0.26184" fill="none" stroke="#000000" stroke-width="0.5" stroke-linecap="round"/><path d="M227.43336,193.12569l-2.79295,-0.26184l2.18199,-2.35654" data-paper-data="{&quot;index&quot;:null}" fill="none" stroke="#000000" stroke-width="0.5" stroke-linecap="round"/><path d="M210.60955,185.99338v-10.53514l14.19219,0.52877l-0.12306,8.6363z" fill="#3a4758" stroke="#000000" stroke-width="0.5" stroke-linecap="butt"/><path d="M210.50877,175.35212l-1.53074,-1.61131" fill="none" stroke="#000000" stroke-width="0.5" stroke-linecap="round"/><path d="M210.50876,185.98679l-1.20848,1.20848" fill="none" stroke="#000000" stroke-width="0.5" stroke-linecap="round"/><path d="M222.25813,175.04899l-2.0251,-3.27131" fill="none" stroke="#000000" stroke-width="0.5" stroke-linecap="round"/><path d="M217.95154,172.00283l1.95525,3.15852" fill="none" stroke="#000000" stroke-width="0.5" stroke-linecap="round"/><path d="M215.79661,172.32546l1.60606,2.59442" fill="none" stroke="#000000" stroke-width="0.5" stroke-linecap="round"/><path d="M214.99692,174.83827l-1.46638,-2.36879" fill="none" stroke="#000000" stroke-width="0.5" stroke-linecap="round"/><path d="M211.3137,172.84249l1.04735,1.69189" fill="none" stroke="#000000" stroke-width="0.5" stroke-linecap="round"/><path d="M220.15326,189.2771l2.16476,-3.49694" data-paper-data="{&quot;index&quot;:null}" fill="none" stroke="#000000" stroke-width="0.5" stroke-linecap="round"/><path d="M219.75718,185.99013l-2.02509,3.27133" data-paper-data="{&quot;index&quot;:null}" fill="none" stroke="#000000" stroke-width="0.5" stroke-linecap="round"/><path d="M217.32289,186.18862l-1.74573,2.82005" data-paper-data="{&quot;index&quot;:null}" fill="none" stroke="#000000" stroke-width="0.5" stroke-linecap="round"/><path d="M214.98697,186.28633l-1.46638,2.36879" data-paper-data="{&quot;index&quot;:null}" fill="none" stroke="#000000" stroke-width="0.25" stroke-linecap="round"/><path d="M212.21142,186.66007l-1.04735,1.69189" data-paper-data="{&quot;index&quot;:null}" fill="none" stroke="#000000" stroke-width="0.5" stroke-linecap="round"/><path d="M251.25466,167.2674l0.67605,-1.03663l-0.61902,-0.10271l-0.66161,-2.48099c0,0 0.99689,0.04912 1.38704,0.4331c0.48475,0.47708 1.18944,2.04582 1.18944,2.04582l-0.39124,0.18232l-0.61393,0.97295z" fill="#f3df00" stroke="#000000" stroke-width="0.25" stroke-linecap="round"/><path d="M251.77697,193.8587l0.61393,0.97295l0.39125,0.18232c0,0 -0.70469,1.56874 -1.18944,2.04582c-0.39015,0.38398 -1.38704,0.4331 -1.38704,0.4331l0.66161,-2.48101l0.61902,-0.10269l-0.67605,-1.03663z" data-paper-data="{&quot;index&quot;:null}" fill="#f3df00" stroke="#000000" stroke-width="0.25" stroke-linecap="round"/><path d="M270.56148,191.23947l0.27851,-0.08569l0.53558,-0.47132l0.27851,-0.06428" fill="none" stroke="#ffffff" stroke-width="0.125" stroke-linecap="round"/><path d="M271.23138,190.41376l0.5704,-0.09848" fill="none" stroke="#ffffff" stroke-width="0.125" stroke-linecap="round"/><path d="M272.34334,189.46337l-0.44099,0.06072" fill="none" stroke="#ffffff" stroke-width="0.125" stroke-linecap="round"/><path d="M272.24694,189.08841l0.25351,0.05654" fill="none" stroke="#ffffff" stroke-width="0.125" stroke-linecap="round"/><path d="M272.02147,171.53573c-0.55806,-0.74125 -1.96902,-2.4836 -1.96902,-2.4836l1.75806,0.66083l1.92014,3.22934l-0.06235,0.54862c0,0 -1.11751,-1.25211 -1.64685,-1.95519z" data-paper-data="{&quot;index&quot;:null}" fill="#808080" stroke="#000000" stroke-width="0.25" stroke-linecap="round"/><path d="M271.98861,170.40324l-0.27851,-0.06426l-0.53558,-0.47132l-0.27851,-0.08569" data-paper-data="{&quot;index&quot;:null}" fill="none" stroke="#ffffff" stroke-width="0.125" stroke-linecap="round"/><path d="M272.13632,170.70615l-0.57041,-0.09848" data-paper-data="{&quot;index&quot;:null}" fill="none" stroke="#ffffff" stroke-width="0.125" stroke-linecap="round"/><path d="M272.67787,171.55805l-0.44099,-0.06072" data-paper-data="{&quot;index&quot;:null}" fill="none" stroke="#ffffff" stroke-width="0.125" stroke-linecap="round"/><path d="M272.83499,171.87646l-0.25351,0.05654" data-paper-data="{&quot;index&quot;:null}" fill="none" stroke="#ffffff" stroke-width="0.125" stroke-linecap="round"/><path d="M224.94059,184.56161l25.05655,-0.90083l-26.86646,5.41412l1.74527,-3.31912z" data-paper-data="{&quot;index&quot;:null}" fill="none" stroke="#000000" stroke-width="0.25" stroke-linecap="round"/><path d="M230.46415,167.37523l-1.28056,2.32829" fill="none" stroke="#000000" stroke-width="0.25" stroke-linecap="round"/><path d="M231.35352,193.92301l-1.28056,-2.32829" data-paper-data="{&quot;index&quot;:null}" fill="none" stroke="#000000" stroke-width="0.25" stroke-linecap="round"/><path d="M254.64969,193.60565l-0.55871,-0.83806" fill="none" stroke="#000000" stroke-width="0.25" stroke-linecap="round"/><path d="M253.93133,168.35727l0.53115,-0.83807" data-paper-data="{&quot;index&quot;:null}" fill="none" stroke="#000000" stroke-width="0.25" stroke-linecap="round"/><path d="M250.61314,171.74926l10.7484,-2.45677l2.25205,5.01592c0,0 0.39372,4.3888 0.39372,6.44511c0,1.88733 -0.39372,5.42933 -0.39372,5.42933l-2.55914,5.73249l-10.46493,-2.37804c0,0 0.40146,-5.83778 0.40538,-8.78386c0.00396,-2.9828 -0.38176,-9.00416 -0.38176,-9.00416z" fill="#3a485a" stroke="#000000" stroke-width="0.5" stroke-linecap="round"/><path d="M231.48704,162.37385" fill="none" stroke="#000000" stroke-width="0.25" stroke-linecap="round"/><path d="M205.2003,172.08851l3.42871,0.95242" fill="none" stroke="#000000" stroke-width="0.25" stroke-linecap="round"/><path d="M205.48603,188.75582l3.52395,-0.85717" fill="none" stroke="#000000" stroke-width="0.25" stroke-linecap="round"/></g></g></svg>