<svg version="1.1" xmlns="http://www.w3.org/2000/svg" xmlns:xlink="http://www.w3.org/1999/xlink" width="72.39017" height="35.22599" viewBox="0,0,72.39017,35.22599"><g transform="translate(-203.80492,-162.38701)"><g data-paper-data="{&quot;isPaintingLayer&quot;:true}" fill-rule="nonzero" stroke="#000000" stroke-linecap="round" stroke-linejoin="miter" stroke-miterlimit="10" stroke-dasharray="" stroke-dashoffset="0" style="mix-blend-mode: normal"><path d="M205.14293,186.80901c0,0 -1.19427,-3.08679 -1.08034,-6.6892c0.11492,-3.47803 1.42556,-7.35388 1.42556,-7.35388c0,0 0.51529,-3.82581 0.67986,-4.73296c0.0702,-0.38696 0.21965,-1.05221 0.63221,-1.63218c0.43321,-0.60901 1.26431,-1.25543 1.26431,-1.25543c0,0 4.5024,-0.63524 7.37316,-0.63524c2.99361,0 9.01477,0.76667 9.01477,0.76667l30.95345,0.21357c0,0 5.34395,-0.92364 7.25366,-0.95462c1.64891,-0.02675 6.52125,0.64807 6.52125,0.64807c0,0 2.12667,0.92558 2.92599,1.38205c0.80158,0.67406 1.18794,1.60798 1.18794,1.60798l1.22627,4.33172c0,0 1.42406,2.53029 1.42406,7.51341c0,4.932 -1.50318,7.2834 -1.50318,7.2834l-1.22267,4.15049c0,0 -0.3056,1.03592 -0.91042,1.49463c-0.70355,0.53359 -3.46655,1.64775 -3.46655,1.64775c0,0 -4.1124,0.88838 -5.97813,0.90574c-1.91124,0.01779 -7.39044,-0.66888 -7.39044,-0.66888l-30.7952,-0.0931c0,0 -5.84241,0.76667 -8.92436,0.76667c-2.7977,0 -8.05881,-0.76667 -8.05881,-0.76667c0,0 -0.81416,-0.55619 -1.01252,-1.11147c-0.19286,-0.53985 -0.50735,-1.17548 -0.58166,-1.58277c-0.15297,-0.83849 -0.95823,-5.23575 -0.95823,-5.23575z" fill="#b0b0b0" stroke-width="0.5"/><path d="M243.86321,172.16557c0,0 0.74056,-1.46766 2.28282,-1.97851c1.7859,-0.59155 7.80923,-1.97771 7.80923,-1.97771c0,0 2.21075,0.28217 3.11057,3.01481c0.74825,2.27236 0.98776,6.85799 0.97112,8.68557c-0.01611,1.77067 -0.27681,6.81409 -0.93799,9.10909c-0.85227,2.9583 -2.92312,3.00855 -2.92312,3.00855c0,0 -6.36775,-1.75421 -7.99441,-2.30786c-1.79439,-0.61074 -2.31823,-1.66217 -2.31823,-1.66217z" fill="#4c5e73" stroke-width="0.5"/><path d="M252.13088,192.72327c0,0 -10.49163,0.66275 -13.69921,0.6975c-5.21578,0.05649 -14.61662,-0.39082 -14.61662,-0.39082c0,0 -1.26583,-0.05361 -1.73235,-0.18424c-0.35369,-0.09903 -1.26132,-0.47656 -1.26132,-0.47656l-0.55526,-0.77132c0,0 1.13263,-0.39659 2.5419,-0.86009c1.42754,-0.4695 3.06808,-0.93098 5.09495,-1.19507c2.85913,-0.37254 4.93753,-0.38263 7.84383,-0.2307c2.86884,0.01902 7.56145,1.02871 7.56145,1.02871c0,0 7.06559,1.71215 8.46988,2.09954c1.54645,0.42661 0.35277,0.28305 0.35277,0.28305z" fill="#4c5e73" stroke-width="0.5"/><path d="M251.59411,167.3432c-1.40429,0.3874 -8.46988,2.09954 -8.46988,2.09954c0,0 -4.69259,1.00969 -7.56145,1.02871c-2.90631,0.15194 -4.9847,0.14186 -7.84383,-0.23068c-2.02687,-0.26409 -3.66742,-0.72557 -5.09495,-1.19507c-1.40926,-0.46349 -2.5419,-0.86009 -2.5419,-0.86009l0.55526,-0.77132c0,0 0.90763,-0.37753 1.26132,-0.47656c0.46652,-0.13063 1.73235,-0.18424 1.73235,-0.18424c0,0 9.40083,-0.44731 14.61662,-0.39082c3.20759,0.03474 13.69922,0.6975 13.69922,0.6975c0,0 1.19369,-0.14356 -0.35277,0.28305z" data-paper-data="{&quot;index&quot;:null}" fill="#4c5e73" stroke-width="0.5"/><path d="M222.32204,173.05815l-0.31203,13.95348c0,0 0.06599,0.60293 -0.54621,0.92844c-1.57989,0.84005 -5.02741,2.00223 -6.10868,2.29978c-1.42073,0.39097 -1.80901,-0.35319 -1.80901,-0.35319c0,0 -1.59779,-2.31014 -1.92906,-10.11912c0.7213,-7.82848 2.04606,-10.23609 2.04606,-10.23609c0,0 0.34045,-0.61794 1.46226,-0.34976c1.14221,0.27306 4.65226,1.68365 6.37515,2.72323c0.68252,0.41183 0.82151,1.15324 0.82151,1.15324z" fill="#4c5e73" stroke-width="0.5"/><path d="M208.30905,191.88554c0,0 -1.27791,-1.2999 -2.08622,-2.80869c-0.86472,-1.6141 -1.34292,-3.04592 -1.34292,-3.04592" fill="none" stroke-width="0.5"/><path d="M205.29812,173.15081c0,0 0.4782,-1.43182 1.34292,-3.04591c0.8083,-1.50879 2.08622,-2.80869 2.08622,-2.80869" data-paper-data="{&quot;index&quot;:null}" fill="none" stroke-width="0.5"/><path d="M255.88986,168.66506c0,0 0.37446,-0.66503 0.64643,-0.94883c0.22133,-0.23095 0.86501,-0.62833 0.86501,-0.62833c0,0 0.52914,-0.12364 1.11415,-0.05135c1.69779,0.2098 11.09326,1.05715 11.09326,1.05715c0,0 0.93996,0.30313 1.09847,0.90125c0.59631,2.24992 1.74496,7.99149 1.7694,11.16304c0.02194,2.84658 -1.37563,8.58993 -1.99638,11.08893c-0.23871,0.96097 -0.8998,0.93085 -0.8998,0.93085c0,0 -9.18315,0.63506 -10.88095,0.84485c-0.585,0.0723 -1.11415,-0.05135 -1.11415,-0.05135c0,0 -0.64369,-0.39738 -0.86501,-0.62833c-0.27197,-0.2838 -0.64643,-0.94883 -0.64643,-0.94883" fill="none" stroke-width="0.25"/><path d="M271.59837,192.5412c0,0 -1.09558,0.57184 -1.62813,0.77155c-0.38355,0.14384 -1.1376,0.32374 -1.47598,0.34431c-0.22191,0.01349 -0.12207,-0.11305 -0.12207,-0.11305c0,0 2.10269,-0.81894 3.02797,-1.95333c0.88199,-1.08132 2.52275,-4.57873 2.52275,-4.57873c0,0 -0.73779,2.39539 -1.08381,3.32632c-0.14759,0.39707 -0.36896,0.98389 -0.62056,1.38862c-0.23738,0.38184 -0.62018,0.8143 -0.62018,0.8143z" fill="#ffffff" stroke-width="0.25"/><path d="M271.75172,167.58193c0,0 0.38279,0.43246 0.62018,0.8143c0.2516,0.40473 0.47299,0.99156 0.62056,1.38862c0.34601,0.93094 1.08381,3.32632 1.08381,3.32632c0,0 -1.64075,-3.49742 -2.52276,-4.57873c-0.92528,-1.13438 -3.02797,-1.95333 -3.02797,-1.95333c0,0 -0.09985,-0.12654 0.12207,-0.11304c0.33838,0.02057 1.09242,0.20048 1.47598,0.34431c0.53255,0.19971 1.62813,0.77155 1.62813,0.77155z" data-paper-data="{&quot;index&quot;:null}" fill="#ffffff" stroke-width="0.25"/><path d="M252.15377,192.55569l-0.36801,1.15001c0,0 0.3108,0.67085 0.10306,0.93167c-0.19113,0.23998 -0.56006,1.16197 -1.09524,1.62645c-0.78457,0.68095 -1.62986,1.09124 -1.62986,1.09124l-0.67467,-0.092c0,0 -0.44149,-0.27271 -0.29718,-0.63097c0.23966,-0.59495 1.09451,-2.4664 1.09451,-2.4664c0,0 0.31104,-0.53062 0.53695,-0.64756c0.26392,-0.1366 0.90433,-0.12228 0.90433,-0.12228l0.23,-1.15001z" fill="#b0b0b0" stroke-width="0.5"/><path d="M250.44658,167.75414l-0.23,-1.15001c0,0 -0.64042,0.01432 -0.90433,-0.12228c-0.2259,-0.11694 -0.53695,-0.64756 -0.53695,-0.64756c0,0 -0.85484,-1.87147 -1.09451,-2.4664c-0.14432,-0.35825 0.29718,-0.63097 0.29718,-0.63097l0.67467,-0.092c0,0 0.84529,0.41029 1.62986,1.09124c0.53517,0.46449 0.9041,1.38648 1.09524,1.62645c0.20773,0.26082 -0.10306,0.93167 -0.10306,0.93167l0.36801,1.15001z" data-paper-data="{&quot;index&quot;:null}" fill="#b0b0b0" stroke-width="0.5"/><path d="M275.71347,176.88124c0,0 -2.84068,-0.94086 -4.06938,-1.3832c-1.32028,-0.47531 -4.31292,-2.39906 -4.31292,-2.39906" fill="none" stroke-width="0.5"/><path d="M267.22893,186.89912c0,0 2.99264,-1.92376 4.31292,-2.39906c1.2287,-0.44233 4.06938,-1.3832 4.06938,-1.3832" data-paper-data="{&quot;index&quot;:null}" fill="none" stroke-width="0.5"/><path d="M261.87325,191.08678c0,0 -3.21606,1.10861 -4.86222,1.39499c-1.29217,0.2248 -4.96516,0.6855 -4.96516,0.6855" fill="none" stroke-width="0.5"/><path d="M251.54404,166.83201c0,0 3.67299,0.46071 4.96516,0.68549c1.64616,0.28637 4.86222,1.39499 4.86222,1.39499" data-paper-data="{&quot;index&quot;:null}" fill="none" stroke-width="0.5"/><path d="M207.75696,168.52831h3.04625c0,0 1.1169,0.26858 1.56411,0.48412c0.62245,0.29999 1.0937,0.74256 1.0937,0.74256" fill="none" stroke-width="0.25"/><path d="M213.30769,189.68853c0,0 -0.47125,0.44257 -1.0937,0.74256c-0.44721,0.21553 -1.56411,0.48412 -1.56411,0.48412h-3.04625" data-paper-data="{&quot;index&quot;:null}" fill="none" stroke-width="0.25"/><path d="M221.87021,192.76411c0,0 -1.88094,0.40268 -3.76604,0.17748c-1.31459,-0.11122 -3.1311,-0.67432 -3.68504,-1.02835c-1.26033,-0.80547 -1.60534,-3.62433 -1.60534,-3.62433" fill="none" stroke-width="0.5"/><path d="M213.05518,171.3241c0,0 0.32579,-2.66191 1.51594,-3.42254c0.5231,-0.33431 2.23847,-0.86606 3.47987,-0.9711c1.78014,-0.21267 3.55635,0.16759 3.55635,0.16759" data-paper-data="{&quot;index&quot;:null}" fill="none" stroke-width="0.5"/><path d="M222.77355,165.25718l-0.30668,1.63557" fill="none" stroke-width="0.25"/><path d="M223.18244,194.79969l-0.51111,-1.84002" fill="none" stroke-width="0.25"/><path d="M227.77302,165.26945l-0.6448,0.02359c0,0 -0.75244,-0.43755 -1.19322,-0.39987c-0.66756,-0.03976 -0.57063,-0.06329 -0.97926,-0.03062c-0.52939,0.04234 -1.15372,0.31253 -1.15372,0.31253l-0.74627,-0.11353c0,0 0.62359,-0.33178 1.28595,-0.48373c0.64053,-0.14694 1.31362,-0.11452 1.70939,-0.09708c0.76535,0.03372 1.72191,0.7887 1.72191,0.7887z" fill="#b0b0b0" stroke-width="0.25"/><path d="M240.40225,165.37817l-0.6448,0.02359c0,0 -0.75244,-0.43755 -1.19322,-0.39987c-0.66756,-0.03976 -0.57063,-0.06329 -0.97926,-0.03062c-0.52939,0.04234 -1.15371,0.31253 -1.15371,0.31253l-0.74629,-0.11352c0,0 0.62359,-0.33178 1.28595,-0.48373c0.64053,-0.14694 1.31362,-0.11452 1.70939,-0.09708c0.76535,0.03372 1.72191,0.7887 1.72191,0.7887z" fill="#b0b0b0" stroke-width="0.25"/><path d="M227.08612,195.63135c-0.39577,0.01744 -1.06887,0.04987 -1.70939,-0.09708c-0.66237,-0.15194 -1.28595,-0.48373 -1.28595,-0.48373l0.74627,-0.11352c0,0 0.62432,0.2702 1.15372,0.31253c0.40862,0.03269 0.3117,0.00913 0.97926,-0.03062c0.44078,0.03768 1.19322,-0.39987 1.19322,-0.39987l0.6448,0.02359c0,0 -0.95656,0.75496 -1.72191,0.7887z" data-paper-data="{&quot;index&quot;:null}" fill="#afafaf" stroke-width="0.25"/><path d="M239.48536,195.63763c-0.39577,0.01744 -1.06887,0.04987 -1.70939,-0.09708c-0.66237,-0.15194 -1.28595,-0.48373 -1.28595,-0.48373l0.74629,-0.11353c0,0 0.62432,0.2702 1.15371,0.31253c0.40862,0.03269 0.3117,0.00914 0.97926,-0.03062c0.44078,0.03768 1.19322,-0.39987 1.19322,-0.39987l0.6448,0.02359c0,0 -0.95656,0.75496 -1.72191,0.7887z" data-paper-data="{&quot;index&quot;:null}" fill="#afafaf" stroke-width="0.25"/><path d="M235.73674,194.74859l-0.345,-1.38002" fill="none" stroke-width="0.25"/><path d="M235.04673,165.53828l-0.345,1.03501" fill="none" stroke-width="0.25"/><path d="M205.82494,190.10254c0,0 1.16295,2.09384 1.60208,2.70187c0.31958,0.44251 0.44494,0.57183 0.44494,0.57183c0,0 0.32098,0.29608 0.67366,0.501c0.38389,0.22304 0.80533,0.35931 0.89131,0.43603c0.16722,0.14921 0.04503,0.22065 0.04503,0.22065l-1.55635,-0.65168c0,0 -0.33895,-0.26519 -0.59464,-0.57803c-0.20844,-0.25504 -0.36132,-0.52891 -0.50783,-0.82192c-0.34715,-0.6943 -0.99821,-2.37975 -0.99821,-2.37975z" fill="#650000" stroke-width="0.25"/><path d="M206.90679,167.32785c0.1465,-0.29301 0.29938,-0.56688 0.50783,-0.82192c0.2557,-0.31285 0.59464,-0.57803 0.59464,-0.57803l1.55635,-0.65168c0,0 0.12219,0.07144 -0.04503,0.22065c-0.08599,0.07672 -0.50744,0.21299 -0.89132,0.43603c-0.35269,0.20492 -0.67366,0.501 -0.67366,0.501c0,0 -0.12535,0.12932 -0.44493,0.57183c-0.43913,0.60802 -1.60208,2.70187 -1.60208,2.70187c0,0 0.65106,-1.68545 0.99821,-2.37975z" data-paper-data="{&quot;index&quot;:null}" fill="#670000" stroke-width="0.25"/></g></g></svg>