<svg version="1.1" xmlns="http://www.w3.org/2000/svg" xmlns:xlink="http://www.w3.org/1999/xlink" width="72.73449" height="39.04375" viewBox="0,0,72.73449,39.04375"><g transform="translate(-203.58459,-160.47812)"><g data-paper-data="{&quot;isPaintingLayer&quot;:true}" fill-rule="nonzero" stroke-width="0.25" stroke-linecap="round" stroke-linejoin="miter" stroke-miterlimit="10" stroke-dasharray="" stroke-dashoffset="0" style="mix-blend-mode: normal"><path d="M207.08329,194.99698c0,0 -1.34468,-1.13639 -1.79069,-3.00268c-0.4429,-1.85333 -1.14925,-4.40993 -1.45828,-6.85878c-0.24211,-1.91849 -0.14446,-3.77084 -0.12475,-5.16711c0.02827,-2.00071 -0.02114,-4.40123 0.40777,-6.58673c0.3559,-1.81342 1.15711,-3.44013 1.55086,-4.91907c0.3338,-1.25373 1.84073,-3.59519 1.84073,-3.59519c0,0 2.08209,-0.49121 3.65376,-0.69267c2.01624,-0.25843 3.74214,-0.2218 5.00132,0.0066c1.57088,0.28494 3.69754,0.71247 3.69754,0.71247c0,0 12.15461,-0.49276 18.12161,-0.49276c5.82347,0 17.26027,0.49276 17.26027,0.49276c0,0 3.22405,-0.45948 6.20001,-0.83894c2.3981,-0.30578 4.76086,-0.12589 6.21549,0.07165c2.26035,0.30695 4.96507,1.26006 4.96507,1.26006c0,0 2.50078,2.01315 3.01044,4.68025c0.50066,2.00831 0.51564,4.28357 0.53036,5.91378c0.02099,2.32336 0.04149,5.26642 0.02927,8.00856c-0.00709,1.5921 -0.37741,4.09363 -0.83519,5.82296c-0.75264,2.84316 -3.01864,5.12321 -3.01864,5.12321c0,0 -2.63852,0.68393 -4.63981,0.91196c-1.42973,0.15214 -4.44174,0.16407 -6.88568,-0.02739c-3.09493,-0.24247 -5.97923,-0.4094 -5.97923,-0.4094c0,0 -11.21302,0.4533 -16.95143,0.43309c-5.91985,-0.02084 -18.04028,-0.55628 -18.04028,-0.55628c0,0 -2.1382,0.22969 -3.67827,0.47623c-1.21694,0.19481 -2.79439,0.25766 -5.11805,0.0047c-1.86328,-0.20283 -3.96422,-0.77133 -3.96422,-0.77133z" fill="#af3d1b" stroke="#000000"/><path d="M274.14856,173.03712c0,0 -0.53177,-0.43159 -0.73685,-0.82464c-0.19123,-0.36651 -0.55428,-1.26103 -0.55428,-1.26103l-1.58908,-4.17134c0,0 0.16066,-0.26738 0.40078,-0.25137c0.25549,0.01704 0.69171,0.05274 0.69171,0.05274c0,0 1.02958,2.01549 1.38411,2.94402c0.34009,0.89072 0.70156,2.51845 0.70156,2.51845z" data-paper-data="{&quot;index&quot;:null}" fill="#455050" stroke="#000000"/><path d="M271.87843,167.40194l0.46242,1.16921" fill="none" stroke="#ffffff"/><path d="M272.86898,169.98473l0.42302,1.12718" fill="none" stroke="#ffffff"/><path d="M272.87423,168.49497l-0.61219,-1.35314" fill="none" stroke="#ffffff"/><path d="M273.90419,171.45346l-0.49922,-1.56858" fill="none" stroke="#ffffff"/><path d="M274.24786,188.36136c0,0 -0.36146,1.62773 -0.70156,2.51845c-0.35454,0.92853 -1.38411,2.94402 -1.38411,2.94402c0,0 -0.43622,0.03571 -0.69171,0.05274c-0.24013,0.01601 -0.40078,-0.25137 -0.40078,-0.25137l1.58908,-4.17134c0,0 0.36307,-0.89451 0.55428,-1.26103c0.20507,-0.39307 0.73685,-0.82464 0.73685,-0.82464z" data-paper-data="{&quot;index&quot;:null}" fill="#455050" stroke="#000000"/><path d="M271.6798,193.00336l0.46243,-1.16921" data-paper-data="{&quot;index&quot;:null}" fill="none" stroke="#ffffff"/><path d="M272.67035,190.42058l0.42302,-1.12718" data-paper-data="{&quot;index&quot;:null}" fill="none" stroke="#ffffff"/><path d="M272.67559,191.91034l-0.61219,1.35314" data-paper-data="{&quot;index&quot;:null}" fill="none" stroke="#ffffff"/><path d="M273.20635,190.52043l0.49922,-1.56859" data-paper-data="{&quot;index&quot;:null}" fill="none" stroke="#ffffff"/><path d="M274.07909,173.04246c0,0 0.29891,1.46888 0.45276,3.12839c0.12797,1.3804 0.1173,2.87359 0.10367,3.93942c-0.0133,1.03953 -0.02983,2.58763 -0.18488,3.93734c-0.20248,1.76243 -0.55364,3.23037 -0.55364,3.23037" fill="none" stroke="#000000"/><path d="M271.15659,192.84718l-11.45244,0.27087c0,0 -0.61279,-0.00232 -0.7686,-0.19232c-0.13827,-0.1686 -0.39145,-0.39456 -0.39145,-0.39456" fill="none" stroke="#000000"/><path d="M258.84145,167.74478c0,0 0.25319,-0.22597 0.39146,-0.39457c0.15581,-0.18999 0.76859,-0.19231 0.76859,-0.19231l11.45244,0.27087" data-paper-data="{&quot;index&quot;:null}" fill="none" stroke="#000000"/><path d="M248.7141,171.02813c0,0 3.88891,-1.07997 5.55578,-1.726c1.48464,-0.57541 3.96215,-1.96294 3.96215,-1.96294c0,0 0.52403,0.20372 0.8782,0.9422c0.46166,0.9626 0.72555,2.49471 1.01686,4.06421c0.46222,2.49023 0.23186,5.40033 0.20587,7.79103c-0.02312,2.12654 -0.11286,5.32544 -0.63443,8.00793c-0.34938,1.79692 -0.61157,3.10226 -0.95803,3.91425c-0.22328,0.52331 -0.54396,0.82391 -0.54396,0.82391c0,0 -2.14625,-1.3907 -3.75718,-1.92101c-1.59148,-0.5239 -5.66438,-1.83 -5.66438,-1.83c0,0 0.4576,-5.67668 0.49617,-8.99196c0.03615,-3.10715 -0.55707,-9.11161 -0.55707,-9.11161z" fill="#203756" stroke="#000000"/><path d="M231.90578,169.35236c0,0 -3.71919,-0.08436 -5.45587,-0.38495c-1.70577,-0.29523 -4.44751,-0.83524 -4.44751,-0.83524c0,0 -0.1011,-0.20216 0.36006,-0.35089c0.99363,-0.32046 3.15048,-0.7546 4.36385,-0.93131c2.04432,-0.37761 5.51998,-0.71835 5.51998,-0.71835c0,0 6.10506,-0.06666 9.66316,-0.10474c4.78375,-0.04566 14.57033,0.64388 14.57033,0.64388c0,0 -0.97583,0.66227 -1.999,1.08204c-1.4241,0.58424 -5.81871,1.74142 -5.81871,1.74142z" fill="#203756" stroke="#000000"/><path d="M248.63724,190.58098c0,0 4.39461,1.15718 5.81871,1.74142c1.02318,0.41977 1.999,1.08204 1.999,1.08204c0,0 -9.78658,0.68955 -14.57033,0.64388c-3.5581,-0.03808 -9.66316,-0.10474 -9.66316,-0.10474c0,0 -3.47565,-0.34073 -5.51998,-0.71835c-1.21337,-0.1767 -3.37024,-0.61086 -4.36385,-0.93131c-0.46116,-0.14872 -0.36006,-0.35089 -0.36006,-0.35089c0,0 2.74174,-0.54001 4.44751,-0.83524c1.73667,-0.30059 5.45587,-0.38495 5.45587,-0.38495z" data-paper-data="{&quot;index&quot;:null}" fill="#203756" stroke="#000000"/><path d="M253.41691,166.51647l-0.24829,-1.48976" fill="none" stroke="#000000"/><path d="M253.37552,193.70466l-0.16553,1.61391" fill="none" stroke="#000000"/><path d="M217.7671,190.35269c0,0 -7.48276,-0.59455 -8.77236,-0.7398c-0.36482,-0.04109 -0.70205,-0.32737 -0.70205,-0.32737c0,0 -0.54083,-2.69255 -0.52673,-4.80119c0.0122,-1.82499 -0.17745,-5.68468 0.00962,-8.86001c0.17534,-2.97589 0.72852,-5.00304 0.72852,-5.00304c0,0 0.28477,-0.29035 0.73967,-0.33281c1.39285,-0.13007 8.65196,-0.54416 8.65196,-0.54416c0,0 -1.07174,6.94953 -1.09312,10.37288c-0.02151,3.44596 0.96447,10.23551 0.96447,10.23551z" fill="#203756" stroke="#000000"/><path d="M217.91088,169.7443c0,0 0.36311,0.00356 0.53968,0.04243c0.17016,0.03746 0.34844,0.41595 0.34844,0.41595c0,0 -0.27166,2.38343 -0.38404,4.77799c-0.10438,2.22409 -0.05035,4.4473 -0.04308,5.04397c0.01034,0.84806 -0.00519,1.84907 0.07926,2.97945c0.24059,3.22063 0.36696,6.48912 0.36696,6.48912c0,0 -0.1991,0.64044 -0.44536,0.68521c-0.19864,0.03611 -0.46187,0.17428 -0.46187,0.17428" fill="none" stroke="#000000"/><path d="M205.51686,169.58804l2.44298,0.08847c0,0 0.35329,0.21162 0.4241,0.29659c0.06691,0.0803 0.19522,0.37125 0.19522,0.37125" fill="none" stroke="#000000"/><path d="M208.3083,189.54184c0,0 -0.1283,0.29095 -0.19521,0.37125c-0.0708,0.08497 -0.4241,0.29659 -0.4241,0.29659l-2.44298,0.08847" data-paper-data="{&quot;index&quot;:null}" fill="none" stroke="#000000"/><path d="M250.97285,163.86794l0.30347,1.50356c0,0 -0.47082,0.09272 -0.69323,0.0844c-0.20631,-0.00773 -0.59652,-0.13268 -0.59652,-0.13268c0,0 -0.11172,-0.68117 -0.26626,-0.97009c-0.16235,-0.3035 -0.68553,-0.80935 -0.68553,-0.80935c0,0 0.60624,0.21426 0.96462,0.25847c0.3495,0.04312 0.97345,0.06569 0.97345,0.06569z" fill="#000000" stroke="#000000"/><path d="M248.61431,163.18912l-0.68759,-2.52115c0,0 0.81003,-0.11839 1.2306,-0.06582c0.39239,0.04906 1.13775,0.52421 1.13775,0.52421c0,0 0.58688,0.9448 0.76537,1.34003c0.17804,0.39421 0.30421,1.2575 0.30421,1.2575c0,0 -0.899,0.19691 -1.36167,0.0928c-0.54304,-0.12219 -1.38866,-0.62759 -1.38866,-0.62759z" fill="#af3d1b" stroke="#000000"/><path d="M250.32544,196.25195c-0.35838,0.04421 -0.96462,0.25847 -0.96462,0.25847c0,0 0.52318,-0.50584 0.68553,-0.80935c0.15454,-0.28893 0.26626,-0.97009 0.26626,-0.97009c0,0 0.39314,-0.12507 0.60013,-0.13282c0.22189,-0.0083 0.68963,0.08454 0.68963,0.08454l-0.30347,1.50356c0,0 -0.62395,0.02257 -0.97345,0.06569z" data-paper-data="{&quot;index&quot;:null}" fill="#000000" stroke="#000000"/><path d="M250.27385,196.18233c0.46267,-0.10411 1.36166,0.0928 1.36166,0.0928c0,0 -0.12617,0.86329 -0.3042,1.2575c-0.17849,0.39523 -0.76537,1.34003 -0.76537,1.34003c0,0 -0.74535,0.47515 -1.13775,0.52421c-0.42056,0.05257 -1.2306,-0.06582 -1.2306,-0.06582l0.68759,-2.52115c0,0 0.84562,-0.5054 1.38867,-0.62759z" data-paper-data="{&quot;index&quot;:null}" fill="#af3d1b" stroke="#000000"/><path d="M273.49319,185.74285l-12.00087,1.48976" fill="none" stroke="#000000"/><path d="M273.41042,174.23857l-11.66981,-1.82083" fill="none" stroke="#000000"/><path d="M273.09932,179.95876l0.32673,-0.00508c0,0 0.1352,0.10625 0.12679,0.16752c-0.00842,0.06127 -0.11703,0.14213 -0.11703,0.14213h-0.33161z" fill="#000000" stroke="#252525"/><path d="M225.14909,195.24487l-0.50932,-1.41019c0,0 0.05819,-0.32901 0.15423,-0.45249c0.07877,-0.10127 0.42194,-0.31785 0.42194,-0.31785" fill="none" stroke="#000000"/><path d="M225.3056,166.97385c0,0 -0.34318,-0.21658 -0.42194,-0.31785c-0.09604,-0.12349 -0.15423,-0.4525 -0.15423,-0.4525l0.50932,-1.41018" data-paper-data="{&quot;index&quot;:null}" fill="none" stroke="#000000"/><path d="M226.73716,165.94981l0.39727,-0.44142l1.66633,-0.14346l0.54073,0.24278" fill="none" stroke="#000000"/><path d="M238.73252,165.9167l-0.36416,-1.30216" fill="none" stroke="#000000"/><path d="M239.90226,165.49735l0.39727,-0.43037h1.20285l0.77246,0.34209" fill="none" stroke="#000000"/><path d="M229.19961,194.46813l-0.54073,0.24278l-1.66633,-0.14346l-0.39727,-0.44142" data-paper-data="{&quot;index&quot;:null}" fill="none" stroke="#000000"/><path d="M238.22648,195.46131l0.36416,-1.30216" data-paper-data="{&quot;index&quot;:null}" fill="none" stroke="#000000"/><path d="M242.13296,194.66678l-0.77246,0.34209h-1.20285l-0.39727,-0.43037" data-paper-data="{&quot;index&quot;:null}" fill="none" stroke="#000000"/><path d="M221.59473,166.68679l-11.77623,1.41882" fill="none" stroke="#000000"/><path d="M222.16226,193.50253l-12.62751,-1.5607" fill="none" stroke="#000000"/></g></g></svg>