<svg version="1.1" xmlns="http://www.w3.org/2000/svg" xmlns:xlink="http://www.w3.org/1999/xlink" width="96.66321" height="46.94555" viewBox="0,0,96.66321,46.94555"><defs><radialGradient cx="235.86168" cy="188.39897" r="8.09773" gradientUnits="userSpaceOnUse" id="color-1"><stop offset="0" stop-color="#00bfba"/><stop offset="1" stop-color="#2100bf"/></radialGradient></defs><g transform="translate(-191.6684,-156.52723)"><g data-paper-data="{&quot;isPaintingLayer&quot;:true}" fill-rule="nonzero" stroke-linejoin="miter" stroke-miterlimit="10" stroke-dasharray="" stroke-dashoffset="0" style="mix-blend-mode: normal"><g><path d="M193.37375,189.10802c0,0 -1.59751,-4.12901 -1.44511,-8.94775c0.15372,-4.65235 1.90688,-9.83684 1.90688,-9.83684c0,0 0.68927,-5.11755 0.90942,-6.331c0.0939,-0.51761 0.29382,-1.40747 0.84567,-2.18327c0.57947,-0.81464 1.69118,-1.67931 1.69118,-1.67931c0,0 6.0226,-0.84972 9.86265,-0.84972c4.00437,0 12.05853,1.02553 12.05853,1.02553l41.40458,0.28568c0,0 7.14828,-1.23549 9.7028,-1.27694c2.20565,-0.03579 8.7231,0.86689 8.7231,0.86689c0,0 2.84473,1.2381 3.91393,1.84868c1.07222,0.90165 1.58904,2.1509 1.58904,2.1509l1.64031,5.79428c0,0 1.90487,3.38462 1.90487,10.05024c0,6.59725 -2.01071,9.74257 -2.01071,9.74257l-1.6355,5.55187c0,0 -0.40878,1.38569 -1.21782,1.99928c-0.9411,0.71375 -4.637,2.20409 -4.637,2.20409c0,0 -5.50091,1.18833 -7.99659,1.21155c-2.55655,0.02379 -9.88574,-0.89473 -9.88574,-0.89473l-41.19291,-0.12453c0,0 -7.81505,1.02553 -11.93759,1.02553c-3.74232,0 -10.77979,-1.02553 -10.77979,-1.02553c0,0 -1.08906,-0.74398 -1.35439,-1.48674c-0.25797,-0.72213 -0.67865,-1.57237 -0.77805,-2.11718c-0.20462,-1.12159 -1.28176,-7.00356 -1.28176,-7.00356z" fill="#031631" stroke="#000000" stroke-width="0.5" stroke-linecap="round"/><path d="M260.89003,199.25101c-11.87685,0.23558 -53.73594,0.63342 -53.73594,0.63342l2.11867,-0.36847l-0.4797,-0.79151c0,0 15.56315,0.17966 24.79034,0.17709c10.84268,-0.00303 38.37125,-0.30244 38.37125,-0.30244c0,0 -4.12816,0.51432 -11.06461,0.65191z" fill="#a50000" stroke="none" stroke-width="0" stroke-linecap="round"/><path d="M271.4491,161.72252c0,0 -27.52857,-0.2994 -38.37125,-0.30244c-9.22719,-0.00257 -24.79034,0.17708 -24.79034,0.17708l0.4797,-0.79151l-2.11867,-0.36847c0,0 41.85911,0.39783 53.73594,0.63341c6.93645,0.13759 11.06461,0.65192 11.06461,0.65192z" data-paper-data="{&quot;index&quot;:null}" fill="#a50000" stroke="none" stroke-width="0" stroke-linecap="round"/><path d="M211.63921,192.33127l0.27566,-24.87799c0,0 12.81788,1.90066 18.24811,1.90066c5.55354,0 17.20615,-2.13824 17.20615,-2.13824l0.35637,25.90903c0,0 -7.6909,-2.46934 -17.46341,-2.53347c-6.29636,-0.04132 -18.62289,1.74 -18.62289,1.74z" fill="#ffffff" stroke="#000000" stroke-width="0.25" stroke-linecap="butt"/><path d="M244.47106,169.44512c0,0 0.9906,-1.96319 3.05359,-2.64653c2.38888,-0.79128 10.44594,-2.64546 10.44594,-2.64546c0,0 2.95719,0.37745 4.16082,4.03273c1.00089,3.0396 1.32127,9.17352 1.29902,11.61817c-0.02155,2.36852 -0.37028,9.11481 -1.25469,12.18469c-1.14003,3.95714 -3.91008,4.02436 -3.91008,4.02436c0,0 -8.51776,-2.3465 -10.69365,-3.08709c-2.40026,-0.81696 -3.10096,-2.22339 -3.10096,-2.22339z" fill="#4c5e73" stroke="#000000" stroke-width="0.5" stroke-linecap="round"/><path d="M256.22674,197.01916c0,0 -14.03403,0.88653 -18.32462,0.933c-6.97684,0.07556 -19.55178,-0.52278 -19.55178,-0.52278c0,0 -1.69323,-0.07171 -2.31727,-0.24644c-0.47311,-0.13247 -1.6872,-0.63747 -1.6872,-0.63747l-0.74273,-1.03175c0,0 1.51506,-0.53049 3.40014,-1.15049c1.90954,-0.62802 4.10399,-1.24531 6.81522,-1.59858c3.82449,-0.49832 6.60464,-0.51182 10.49223,-0.30858c3.83749,0.02544 10.1145,1.37604 10.1145,1.37604c0,0 9.45122,2.29024 11.32966,2.80842c2.0686,0.57065 0.47188,0.37862 0.47188,0.37862z" fill="#4c5e73" stroke="#000000" stroke-width="0.5" stroke-linecap="round"/><path d="M255.50874,163.06975c-1.87844,0.5182 -11.32966,2.80842 -11.32966,2.80842c0,0 -6.277,1.3506 -10.1145,1.37604c-3.8876,0.20324 -6.66774,0.18975 -10.49223,-0.30857c-2.71123,-0.35327 -4.90568,-0.97056 -6.81522,-1.59858c-1.88508,-0.61998 -3.40014,-1.15049 -3.40014,-1.15049l0.74273,-1.03175c0,0 1.21409,-0.50501 1.6872,-0.63747c0.62405,-0.17474 2.31727,-0.24644 2.31727,-0.24644c0,0 12.57494,-0.59834 19.55178,-0.52278c4.29061,0.04647 18.32464,0.933 18.32464,0.933c0,0 1.59672,-0.19203 -0.47188,0.37862z" data-paper-data="{&quot;index&quot;:null}" fill="#4c5e73" stroke="#000000" stroke-width="0.5" stroke-linecap="round"/><path d="M216.35323,170.71431l-0.41738,18.66474c0,0 0.08827,0.8065 -0.73063,1.24193c-2.11332,1.12369 -6.72488,2.67826 -8.17121,3.07627c-1.90043,0.52297 -2.41981,-0.47244 -2.41981,-0.47244c0,0 -2.13727,-3.09014 -2.58038,-13.53574c0.96484,-10.4717 2.7369,-13.69221 2.7369,-13.69221c0,0 0.4554,-0.82659 1.95597,-0.46785c1.52787,0.36525 6.22306,2.25212 8.52766,3.6427c0.91296,0.55087 1.09889,1.54262 1.09889,1.54262z" fill="#4c5e73" stroke="#000000" stroke-width="0.5" stroke-linecap="round"/><path d="M197.60889,195.89859c0,0 -1.70939,-1.7388 -2.7906,-3.75701c-1.15668,-2.15909 -1.79634,-4.07435 -1.79634,-4.07435" fill="none" stroke="#000000" stroke-width="0.5" stroke-linecap="round"/><path d="M193.58134,170.83825c0,0 0.63966,-1.91526 1.79634,-4.07433c1.08122,-2.01822 2.7906,-3.75701 2.7906,-3.75701" data-paper-data="{&quot;index&quot;:null}" fill="none" stroke="#000000" stroke-width="0.5" stroke-linecap="round"/><path d="M260.95408,165.08406c0,0 0.66499,-1.1357 1.02879,-1.51533c0.29606,-0.30893 1.15707,-0.84048 1.15707,-0.84048c0,0 0.7078,-0.16539 1.49033,-0.06868c2.27104,0.28064 14.83879,1.41409 14.83879,1.41409c0,0 1.25732,0.40548 1.46936,1.20555c0.79765,3.00958 2.33413,10.68975 2.36683,14.93214c0.02935,3.8077 -1.84009,11.49023 -2.67044,14.833c-0.3193,1.28543 -1.20362,1.24514 -1.20362,1.24514c0,0 -12.28376,0.84948 -14.5548,1.13011c-0.78253,0.0967 -1.49033,-0.06868 -1.49033,-0.06868c0,0 -0.86102,-0.53155 -1.15707,-0.84048c-0.3638,-0.37962 -0.8647,-1.2692 -0.8647,-1.2692" fill="none" stroke="#000000" stroke-width="0.25" stroke-linecap="round"/><path d="M282.26727,196.77562c0,0 -1.46548,0.76492 -2.17784,1.03205c-0.51305,0.1924 -1.5217,0.43305 -1.97433,0.46057c-0.29684,0.01804 -0.16328,-0.15122 -0.16328,-0.15122c0,0 2.81264,-1.09546 4.05034,-2.61285c1.17979,-1.44641 3.37453,-6.12471 3.37453,-6.12471c0,0 -0.9869,3.20416 -1.44975,4.44942c-0.19742,0.53113 -0.49354,1.3161 -0.83009,1.85748c-0.31753,0.51077 -0.82958,1.08924 -0.82958,1.08924z" fill="#ffffff" stroke="#000000" stroke-width="0.25" stroke-linecap="round"/><path d="M282.47238,163.38909c0,0 0.51203,0.57848 0.82958,1.08924c0.33656,0.54138 0.63269,1.32635 0.83009,1.85748c0.46284,1.24526 1.44975,4.44942 1.44975,4.44942c0,0 -2.19474,-4.6783 -3.37454,-6.12471c-1.23769,-1.51739 -4.05034,-2.61285 -4.05034,-2.61285c0,0 -0.13356,-0.16926 0.16328,-0.15121c0.45263,0.02752 1.46128,0.26817 1.97433,0.46057c0.71236,0.26714 2.17784,1.03205 2.17784,1.03205z" data-paper-data="{&quot;index&quot;:null}" fill="#ffffff" stroke="#000000" stroke-width="0.25" stroke-linecap="round"/><path d="M256.25737,196.795l-0.49226,1.5383c0,0 0.41574,0.89736 0.13786,1.24625c-0.25567,0.321 -0.74915,1.5543 -1.46503,2.17561c-1.04948,0.91086 -2.18017,1.45969 -2.18017,1.45969l-0.90247,-0.12306c0,0 -0.59055,-0.3648 -0.39751,-0.84401c0.32058,-0.79582 1.46406,-3.29915 1.46406,-3.29915c0,0 0.41606,-0.70977 0.71824,-0.8662c0.35302,-0.18273 1.20967,-0.16356 1.20967,-0.16356l0.30766,-1.5383z" fill="#031631" stroke="#000000" stroke-width="0.5" stroke-linecap="round"/><path d="M253.97377,163.61945l-0.30766,-1.5383c0,0 -0.85665,0.01916 -1.20967,-0.16356c-0.30218,-0.15643 -0.71824,-0.8662 -0.71824,-0.8662c0,0 -1.14348,-2.50335 -1.46406,-3.29915c-0.19305,-0.47921 0.39751,-0.84401 0.39751,-0.84401l0.90247,-0.12306c0,0 1.13069,0.54883 2.18017,1.45969c0.71586,0.62131 1.20936,1.85461 1.46503,2.17561c0.27788,0.34889 -0.13787,1.24625 -0.13787,1.24625l0.49226,1.5383z" data-paper-data="{&quot;index&quot;:null}" fill="#031631" stroke="#000000" stroke-width="0.5" stroke-linecap="round"/><path d="M287.77177,175.82823c0,0 -3.79982,-1.25854 -5.44337,-1.85022c-1.76607,-0.63579 -5.76914,-3.20908 -5.76914,-3.20908" fill="none" stroke="#000000" stroke-width="0.5" stroke-linecap="round"/><path d="M276.42252,189.22855c0,0 4.00307,-2.5733 5.76914,-3.20908c1.64356,-0.59168 5.44337,-1.85022 5.44337,-1.85022" data-paper-data="{&quot;index&quot;:null}" fill="none" stroke="#000000" stroke-width="0.5" stroke-linecap="round"/><path d="M269.25854,194.83014c0,0 -4.30193,1.48292 -6.5039,1.86599c-1.72845,0.30069 -6.64159,0.91695 -6.64159,0.91695" fill="none" stroke="#000000" stroke-width="0.5" stroke-linecap="round"/><path d="M255.30504,162.38597c0,0 4.91314,0.61626 6.64159,0.91694c2.20197,0.38306 6.5039,1.86599 6.5039,1.86599" data-paper-data="{&quot;index&quot;:null}" fill="none" stroke="#000000" stroke-width="0.5" stroke-linecap="round"/><path d="M196.87039,164.655h4.07479c0,0 1.49401,0.35926 2.09221,0.64758c0.83262,0.40129 1.46297,0.99329 1.46297,0.99329" fill="none" stroke="#000000" stroke-width="0.25" stroke-linecap="round"/><path d="M204.29526,192.95978c0,0 -0.63036,0.592 -1.46297,0.99329c-0.59821,0.2883 -2.09221,0.64758 -2.09221,0.64758h-4.07479" data-paper-data="{&quot;index&quot;:null}" fill="none" stroke="#000000" stroke-width="0.25" stroke-linecap="round"/><path d="M215.74886,197.07379c0,0 -2.51602,0.53865 -5.03761,0.2374c-1.75845,-0.14877 -4.18829,-0.902 -4.92926,-1.37556c-1.68587,-1.07744 -2.14736,-4.84805 -2.14736,-4.84805" fill="none" stroke="#000000" stroke-width="0.5" stroke-linecap="round"/><path d="M203.9575,168.39477c0,0 0.43579,-3.56068 2.02779,-4.57812c0.69972,-0.44719 2.99427,-1.15848 4.65482,-1.29898c2.38118,-0.28448 4.75712,0.22417 4.75712,0.22417" data-paper-data="{&quot;index&quot;:null}" fill="none" stroke="#000000" stroke-width="0.5" stroke-linecap="round"/><path d="M216.54697,162.4672l0.41022,-2.18781" fill="none" stroke="#000000" stroke-width="0.25" stroke-linecap="round"/><path d="M216.82045,197.33539l0.68368,2.46128" fill="none" stroke="#000000" stroke-width="0.25" stroke-linecap="round"/><path d="M223.64469,160.29582l-0.86251,0.03155c0,0 -1.00649,-0.58528 -1.59609,-0.53489c-0.89295,-0.05319 -0.76331,-0.08467 -1.30989,-0.04096c-0.70814,0.05663 -1.54326,0.41806 -1.54326,0.41806l-0.99825,-0.15186c0,0 0.83413,-0.44381 1.72014,-0.64706c0.8568,-0.19656 1.75715,-0.15319 2.28656,-0.12986c1.02376,0.04512 2.30329,1.05499 2.30329,1.05499z" fill="#031630" stroke="#000000" stroke-width="0.25" stroke-linecap="round"/><path d="M240.53806,160.44126l-0.86251,0.03155c0,0 -1.00649,-0.58528 -1.59609,-0.53489c-0.89295,-0.05319 -0.76331,-0.08467 -1.30989,-0.04096c-0.70814,0.05663 -1.54325,0.41806 -1.54325,0.41806l-0.99826,-0.15185c0,0 0.83413,-0.44381 1.72014,-0.64706c0.8568,-0.19656 1.75715,-0.15319 2.28656,-0.12986c1.02376,0.04512 2.30329,1.05499 2.30329,1.05499z" fill="#031630" stroke="#000000" stroke-width="0.25" stroke-linecap="round"/><path d="M222.72587,200.90914c-0.52941,0.02333 -1.42976,0.0667 -2.28656,-0.12986c-0.88601,-0.20325 -1.72014,-0.64706 -1.72014,-0.64706l0.99825,-0.15185c0,0 0.83511,0.36143 1.54326,0.41806c0.54659,0.04372 0.41694,0.01222 1.30989,-0.04096c0.5896,0.05039 1.59609,-0.53487 1.59609,-0.53487l0.86251,0.03155c0,0 -1.27954,1.00988 -2.30329,1.05499z" data-paper-data="{&quot;index&quot;:null}" fill="#031430" stroke="#000000" stroke-width="0.25" stroke-linecap="round"/><path d="M239.31157,200.91753c-0.52941,0.02333 -1.42976,0.0667 -2.28656,-0.12986c-0.88601,-0.20325 -1.72014,-0.64706 -1.72014,-0.64706l0.99826,-0.15186c0,0 0.83511,0.36143 1.54325,0.41806c0.54659,0.04372 0.41694,0.01223 1.30989,-0.04096c0.5896,0.05039 1.59609,-0.53487 1.59609,-0.53487l0.86251,0.03155c0,0 -1.27954,1.00988 -2.30329,1.05499z" data-paper-data="{&quot;index&quot;:null}" fill="#031430" stroke="#000000" stroke-width="0.25" stroke-linecap="round"/><path d="M234.29727,199.72831l-0.46149,-1.84596" fill="none" stroke="#000000" stroke-width="0.25" stroke-linecap="round"/><path d="M233.37429,160.65541l-0.46149,1.38447" fill="none" stroke="#000000" stroke-width="0.25" stroke-linecap="round"/><path d="M194.28604,193.51357c0,0 1.55562,2.80081 2.143,3.61412c0.42749,0.59193 0.59518,0.76491 0.59518,0.76491c0,0 0.42935,0.39606 0.90113,0.67016c0.5135,0.29834 1.07724,0.48063 1.19226,0.58325c0.22368,0.19959 0.06024,0.29514 0.06024,0.29514l-2.08184,-0.87171c0,0 -0.45339,-0.35472 -0.79541,-0.7732c-0.27883,-0.34116 -0.48332,-0.70748 -0.6793,-1.09943c-0.46436,-0.92873 -1.33525,-3.18325 -1.33525,-3.18325z" fill="#650000" stroke="#000000" stroke-width="0.25" stroke-linecap="round"/><path d="M195.73316,163.04922c0.19597,-0.39195 0.40046,-0.75827 0.6793,-1.09943c0.34203,-0.41848 0.79541,-0.7732 0.79541,-0.7732l2.08184,-0.87171c0,0 0.16344,0.09556 -0.06024,0.29514c-0.11502,0.10262 -0.67877,0.28491 -1.19227,0.58325c-0.47177,0.2741 -0.90113,0.67016 -0.90113,0.67016c0,0 -0.16767,0.17298 -0.59516,0.76491c-0.5874,0.81332 -2.14301,3.61412 -2.14301,3.61412c0,0 0.87089,-2.25452 1.33525,-3.18325z" data-paper-data="{&quot;index&quot;:null}" fill="#670000" stroke="#000000" stroke-width="0.25" stroke-linecap="round"/><text transform="translate(281.13254,185.29962) rotate(-89.33647) scale(0.04304,0.05852) skewX(0.41068)" font-size="40" xml:space="preserve" data-paper-data="{&quot;index&quot;:null}" fill="#ffffff" fill-rule="nonzero" stroke="none" stroke-width="1" stroke-linecap="butt" stroke-linejoin="miter" stroke-miterlimit="10" stroke-dasharray="" stroke-dashoffset="0" font-family="Sans Serif" font-weight="normal" text-anchor="start" style="mix-blend-mode: normal"><tspan x="0" dy="0">CARABINIERI</tspan></text><path d="M232.95339,188.27009v-16.45983c0,0 0.27026,-0.33816 0.68854,-0.38346c1.20911,-0.13095 3.65494,-0.07803 4.38448,-0.07803c0.41965,0 0.74466,0.46149 0.74466,0.46149v16.45983c0,0 -0.21892,0.38458 -0.66775,0.38458c-0.70196,0 -3.10977,0.11817 -4.39104,0.00521c-0.54405,-0.04796 -0.7589,-0.38978 -0.7589,-0.38978z" fill="#0010ca" stroke="#000000" stroke-width="0.5" stroke-linecap="butt"/><path d="M234.99715,186.75361v-12.76791c0,0 0.04142,-0.32153 0.32783,-0.41551c0.35526,-0.11657 0.84351,-0.05782 1.03593,-0.05782c0.27746,0 0.55912,0.47332 0.55912,0.47332v12.76791c0,0 -0.25073,0.19918 -0.50694,0.26223c-0.31479,0.07746 -0.66193,0.02177 -0.85682,0.02177c-0.25373,0 -0.55912,-0.284 -0.55912,-0.284z" fill="#ffffff" stroke="#000000" stroke-width="0.5" stroke-linecap="butt"/><path d="M233.14232,175.9204h1.56197" fill="none" stroke="#000000" stroke-width="0.5" stroke-linecap="round"/><path d="M237.02356,175.96775h1.3253" fill="none" stroke="#000000" stroke-width="0.5" stroke-linecap="round"/><path d="M237.2129,184.86622h1.37265" fill="none" stroke="#000000" stroke-width="0.5" stroke-linecap="round"/><path d="M234.79895,184.86622l-1.51464,0.00001" fill="none" stroke="#000000" stroke-width="0.5" stroke-linecap="round"/><path d="M243.75441,188.39897c0,4.47225 -3.53369,8.09773 -7.89272,8.09773c-4.35903,0 -7.89272,-3.62548 -7.89272,-8.09773c0,-4.47225 3.53369,-8.09773 7.89272,-8.09773c4.35903,0 7.89272,3.62547 7.89272,8.09773z" fill="url(#color-1)" stroke="none" stroke-width="0" stroke-linecap="butt"/><path d="M280.64453,164.36148l4.11671,7.15006l-11.0501,-4.33338l8.88342,2.38336z" fill="#a70000" stroke="#000000" stroke-width="0.25" stroke-linecap="round"/><path d="M282.5727,190.33988l-8.88341,2.38336l11.05012,-4.33337l-4.11672,7.15006z" data-paper-data="{&quot;index&quot;:null}" fill="#a70000" stroke="#000000" stroke-width="0.25" stroke-linecap="round"/></g></g></g></svg>