<svg version="1.1" xmlns="http://www.w3.org/2000/svg" xmlns:xlink="http://www.w3.org/1999/xlink" width="75.7597" height="36.97486" viewBox="0,0,75.7597,36.97486"><defs><radialGradient cx="236.86418" cy="186.85282" r="6.33748" gradientUnits="userSpaceOnUse" id="color-1"><stop offset="0" stop-color="#00bfba"/><stop offset="1" stop-color="#2100bf"/></radialGradient></defs><g transform="translate(-202.12017,-161.51258)"><g data-paper-data="{&quot;isPaintingLayer&quot;:true}" fill-rule="nonzero" stroke-linejoin="miter" stroke-miterlimit="10" stroke-dasharray="" stroke-dashoffset="0" style="mix-blend-mode: normal"><g><path d="M203.50918,187.12836c0,0 -1.25025,-3.23147 -1.13098,-7.00272c0.12031,-3.64105 1.49237,-7.69854 1.49237,-7.69854c0,0 0.53943,-4.00513 0.71174,-4.95479c0.07349,-0.40509 0.22995,-1.10153 0.66184,-1.70868c0.4535,-0.63755 1.32357,-1.31426 1.32357,-1.31426c0,0 4.71343,-0.66502 7.71875,-0.66502c3.13393,0 9.43731,0.80261 9.43731,0.80261l32.40423,0.22357c0,0 5.5944,-0.96693 7.59365,-0.99936c1.7262,-0.028 6.8269,0.67846 6.8269,0.67846c0,0 2.22635,0.96897 3.06314,1.44683c0.83915,0.70566 1.24362,1.68336 1.24362,1.68336l1.28376,4.53475c0,0 1.4908,2.64888 1.4908,7.86556c0,5.16315 -1.57362,7.62478 -1.57362,7.62478l-1.27998,4.34503c0,0 -0.31992,1.08447 -0.9531,1.56468c-0.73651,0.55861 -3.62904,1.72497 -3.62904,1.72497c0,0 -4.30516,0.93002 -6.25831,0.94819c-2.00081,0.01861 -7.73682,-0.70022 -7.73682,-0.70022l-32.23857,-0.09746c0,0 -6.11624,0.80261 -9.34266,0.80261c-2.92883,0 -8.43653,-0.80261 -8.43653,-0.80261c0,0 -0.85234,-0.58225 -1.05999,-1.16357c-0.20191,-0.56516 -0.53112,-1.23058 -0.60892,-1.65696c-0.16014,-0.8778 -1.00314,-5.48115 -1.00314,-5.48115z" fill="#517fcd" stroke="#000000" stroke-width="0.5" stroke-linecap="round"/><path d="M273.19049,193.17308c0,0 -1.15078,0.60066 -1.71016,0.81043c-0.40287,0.15109 -1.19493,0.34005 -1.55034,0.36167c-0.23309,0.01417 -0.12822,-0.11874 -0.12822,-0.11874c0,0 2.20864,-0.8602 3.18053,-2.05176c0.92642,-1.13579 2.64985,-4.80945 2.64985,-4.80945c0,0 -0.77496,2.51608 -1.13842,3.49391c-0.15504,0.41707 -0.38755,1.03347 -0.65183,1.45859c-0.24934,0.40108 -0.65142,0.85534 -0.65142,0.85534z" fill="#ffffff" stroke="#000000" stroke-width="0.25" stroke-linecap="round"/><path d="M273.35153,166.95623c0,0 0.40208,0.45424 0.65142,0.85534c0.26428,0.42512 0.49683,1.04151 0.65183,1.45859c0.36345,0.97784 1.13842,3.49391 1.13842,3.49391c0,0 -1.72343,-3.67365 -2.64986,-4.80945c-0.97191,-1.19154 -3.18053,-2.05176 -3.18053,-2.05176c0,0 -0.10488,-0.13291 0.12822,-0.11873c0.35543,0.0216 1.14747,0.21057 1.55034,0.36167c0.55938,0.20977 1.71016,0.81043 1.71016,0.81043z" data-paper-data="{&quot;index&quot;:null}" fill="#ffffff" stroke="#000000" stroke-width="0.25" stroke-linecap="round"/><path d="M277.51289,176.72409c0,0 -2.98381,-0.98827 -4.2744,-1.45288c-1.3868,-0.49926 -4.53022,-2.51994 -4.53022,-2.51994" fill="none" stroke="#000000" stroke-width="0.5" stroke-linecap="round"/><path d="M268.60089,187.24673c0,0 3.14341,-2.02068 4.53022,-2.51994c1.29061,-0.46462 4.2744,-1.45288 4.2744,-1.45288" data-paper-data="{&quot;index&quot;:null}" fill="none" stroke="#000000" stroke-width="0.5" stroke-linecap="round"/><text transform="translate(271.40942,183.71531) rotate(-89.56789) scale(0.05315,0.04693) skewX(-0.10921)" font-size="40" xml:space="preserve" data-paper-data="{&quot;index&quot;:null}" fill="#ffffff" fill-rule="nonzero" stroke="none" stroke-width="1" stroke-linecap="butt" stroke-linejoin="miter" stroke-miterlimit="10" stroke-dasharray="" stroke-dashoffset="0" font-family="Sans Serif" font-weight="normal" text-anchor="start" style="mix-blend-mode: normal"><tspan x="0" dy="0">POLIZIA</tspan></text><path d="M243.97734,171.77083c0,0 0.77787,-1.54161 2.39783,-2.07819c1.87588,-0.62135 8.20269,-2.07736 8.20269,-2.07736c0,0 2.32214,0.29639 3.2673,3.16671c0.78595,2.38685 1.03753,7.20352 1.02005,9.12319c-0.01694,1.85988 -0.29076,7.15742 -0.98525,9.56804c-0.89522,3.10735 -3.0704,3.16014 -3.0704,3.16014c0,0 -6.6886,-1.84259 -8.39722,-2.42414c-1.8848,-0.64151 -2.43503,-1.74592 -2.43503,-1.74592z" fill="#4c5e73" stroke="#000000" stroke-width="0.5" stroke-linecap="round"/><path d="M208.48365,194.98922l-1.3381,-0.52256c0,0 -0.53709,-0.43119 -1.2722,-1.41016c-0.81753,-1.14879 -1.68019,-3.25211 -1.41801,-3.12835c0.34264,0.16174 1.84249,3.54604 3.07963,3.70876c3.18138,0.41838 9.18736,0.6743 15.28487,0.5988c4.52908,-0.05606 8.14835,0.09524 12.08341,0.04839c8.33092,-0.09921 15.4078,-0.30178 15.4078,-0.30178c0,0 7.55663,-0.97197 10.82426,-2.05441c4.63896,-1.53674 14.29808,-6.7034 14.29808,-6.7034c0,0 -1.69602,4.51904 -2.51882,5.73224c-0.91525,1.34951 -4.30094,3.05023 -4.30094,3.05023c0,0 -2.64357,0.14279 -5.16511,0.22992c-3.32163,0.11478 -13.03429,0.39897 -13.03429,0.39897c0,0 -9.6122,0.15788 -15.42327,0.20078c-2.06699,0.01527 -6.12962,-0.16957 -10.33446,-0.01602c-3.65306,0.1334 -7.23838,0.60814 -9.89082,0.61754c-5.59779,0.01982 -6.282,-0.44893 -6.282,-0.44893z" data-paper-data="{&quot;index&quot;:null}" fill="#ffffff" stroke="none" stroke-width="0" stroke-linecap="round"/><path d="M252.69945,193.3198c0,0 -10.98337,0.69381 -14.3413,0.73018c-5.46024,0.05914 -15.30169,-0.40913 -15.30169,-0.40913c0,0 -1.32515,-0.05612 -1.81355,-0.19288c-0.37026,-0.10368 -1.32045,-0.49891 -1.32045,-0.49891l-0.58128,-0.80747c0,0 1.18572,-0.41517 2.66103,-0.90042c1.49445,-0.49151 3.21188,-0.97461 5.33376,-1.25109c2.99314,-0.39 5.16895,-0.40055 8.21147,-0.2415c3.00329,0.0199 7.91586,1.07693 7.91586,1.07693c0,0 7.39675,1.79239 8.86686,2.19794c1.61893,0.4466 0.36929,0.2963 0.36929,0.2963z" fill="#4c5e73" stroke="#000000" stroke-width="0.5" stroke-linecap="round"/><path d="M252.13753,166.75018c-1.47012,0.40555 -8.86686,2.19794 -8.86686,2.19794c0,0 -4.91253,1.05701 -7.91586,1.07693c-3.04253,0.15906 -5.21833,0.14851 -8.21147,-0.24149c-2.12188,-0.27647 -3.83932,-0.75959 -5.33376,-1.25109c-1.47532,-0.48522 -2.66103,-0.90042 -2.66103,-0.90042l0.58128,-0.80747c0,0 0.95018,-0.39524 1.32045,-0.49891c0.48839,-0.13676 1.81355,-0.19288 1.81355,-0.19288c0,0 9.84147,-0.46826 15.30169,-0.40913c3.35795,0.03637 14.34131,0.73018 14.34131,0.73018c0,0 1.24963,-0.15028 -0.36929,0.2963z" data-paper-data="{&quot;index&quot;:null}" fill="#4c5e73" stroke="#000000" stroke-width="0.5" stroke-linecap="round"/><path d="M208.48365,164.96673c0,0 0.6842,-0.46874 6.282,-0.44892c2.65245,0.00939 6.23777,0.48411 9.89082,0.61754c4.20487,0.15357 8.26749,-0.03128 10.33446,-0.01602c5.81107,0.04289 15.42327,0.20077 15.42327,0.20077c0,0 9.71266,0.28419 13.03429,0.39897c2.52154,0.08712 5.16511,0.22992 5.16511,0.22992c0,0 3.38568,1.70073 4.30094,3.05023c0.82279,1.21319 2.51882,5.73224 2.51882,5.73224c0,0 -9.65912,-5.16665 -14.29808,-6.7034c-3.26761,-1.08247 -10.82426,-2.05442 -10.82426,-2.05442c0,0 -7.07688,-0.20258 -15.4078,-0.30178c-3.93505,-0.04686 -7.55433,0.10445 -12.08341,0.04838c-6.0975,-0.07548 -12.10349,0.18043 -15.28487,0.5988c-1.23711,0.1627 -2.73699,3.54698 -3.07963,3.70876c-0.26217,0.12377 0.60048,-1.97955 1.41801,-3.12834c0.73512,-0.97897 1.2722,-1.41016 1.2722,-1.41016z" fill="#ffffff" stroke="none" stroke-width="0" stroke-linecap="round"/><path d="M221.49347,172.73301l-0.32665,14.60749c0,0 0.06909,0.6312 -0.57182,0.97197c-1.65394,0.87943 -5.26306,2.09607 -6.39499,2.40757c-1.48731,0.40928 -1.89381,-0.36976 -1.89381,-0.36976c0,0 -1.67267,-2.41842 -2.01947,-10.5934c0.75512,-8.1954 2.14197,-10.71586 2.14197,-10.71586c0,0 0.3564,-0.64692 1.5308,-0.36616c1.19573,0.28586 4.87032,1.76256 6.67395,2.85088c0.71451,0.43112 0.86001,1.20729 0.86001,1.20729z" fill="#4c5e73" stroke="#000000" stroke-width="0.5" stroke-linecap="round"/><path d="M206.82369,192.44282c0,0 -1.3378,-1.36082 -2.184,-2.94035c-0.90525,-1.68975 -1.40586,-3.18868 -1.40586,-3.18868" fill="none" stroke="#000000" stroke-width="0.5" stroke-linecap="round"/><path d="M203.67163,172.82999c0,0 0.50061,-1.49893 1.40586,-3.18867c0.84619,-1.57951 2.184,-2.94035 2.184,-2.94035" data-paper-data="{&quot;index&quot;:null}" fill="none" stroke="#000000" stroke-width="0.5" stroke-linecap="round"/><path d="M206.24573,167.99084h3.18902c0,0 1.16926,0.28118 1.63743,0.5068c0.65163,0.31405 1.14495,0.77738 1.14495,0.77738" fill="none" stroke="#000000" stroke-width="0.25" stroke-linecap="round"/><path d="M212.05661,190.14284c0,0 -0.49334,0.46332 -1.14495,0.77738c-0.46818,0.22563 -1.63743,0.5068 -1.63743,0.5068h-3.18902" data-paper-data="{&quot;index&quot;:null}" fill="none" stroke="#000000" stroke-width="0.25" stroke-linecap="round"/><path d="M221.02048,193.36256c0,0 -1.9691,0.42156 -3.94256,0.1858c-1.3762,-0.11643 -3.27785,-0.70593 -3.85776,-1.07655c-1.3194,-0.84323 -1.68059,-3.79422 -1.68059,-3.79422" fill="none" stroke="#000000" stroke-width="0.5" stroke-linecap="round"/><path d="M211.79228,170.91767c0,0 0.34107,-2.78667 1.587,-3.58295c0.54762,-0.34999 2.3434,-0.90664 3.64297,-1.0166c1.86357,-0.22263 3.72304,0.17544 3.72304,0.17544" data-paper-data="{&quot;index&quot;:null}" fill="none" stroke="#000000" stroke-width="0.5" stroke-linecap="round"/><path d="M221.96614,164.56638l-0.32104,1.71222" fill="none" stroke="#000000" stroke-width="0.25" stroke-linecap="round"/><path d="M221.85914,193.56728l0.53506,1.92627" fill="none" stroke="#000000" stroke-width="0.25" stroke-linecap="round"/><path d="M227.19995,164.57924l-0.67502,0.0247c0,0 -0.78771,-0.45807 -1.24914,-0.41861c-0.69885,-0.04164 -0.59738,-0.06627 -1.02515,-0.03205c-0.5542,0.04432 -1.2078,0.32718 -1.2078,0.32718l-0.78126,-0.11886c0,0 0.65281,-0.34733 1.34624,-0.5064c0.67056,-0.15383 1.37517,-0.11988 1.78952,-0.10164c0.80122,0.03531 1.80261,0.82566 1.80261,0.82566z" fill="#5285cc" stroke="#000000" stroke-width="0.25" stroke-linecap="round"/><path d="M240.42111,164.69306l-0.67502,0.0247c0,0 -0.78771,-0.45807 -1.24914,-0.41861c-0.69885,-0.04164 -0.59738,-0.06627 -1.02515,-0.03205c-0.5542,0.04432 -1.20779,0.32718 -1.20779,0.32718l-0.78127,-0.11884c0,0 0.65281,-0.34733 1.34624,-0.5064c0.67056,-0.15383 1.37517,-0.11988 1.78952,-0.10164c0.80122,0.03531 1.80261,0.82566 1.80261,0.82566z" fill="#5285cc" stroke="#000000" stroke-width="0.25" stroke-linecap="round"/><path d="M226.48086,196.3642c-0.41432,0.01826 -1.11896,0.0522 -1.78952,-0.10164c-0.69342,-0.15907 -1.34624,-0.5064 -1.34624,-0.5064l0.78126,-0.11884c0,0 0.65358,0.28286 1.2078,0.32718c0.42778,0.03421 0.32632,0.00957 1.02515,-0.03205c0.46142,0.03944 1.24914,-0.41861 1.24914,-0.41861l0.67502,0.0247c0,0 -1.0014,0.79036 -1.80261,0.82566z" data-paper-data="{&quot;index&quot;:null}" fill="#5281cc" stroke="#000000" stroke-width="0.25" stroke-linecap="round"/><path d="M239.46124,196.37076c-0.41432,0.01826 -1.11896,0.0522 -1.78952,-0.10164c-0.69342,-0.15907 -1.34624,-0.5064 -1.34624,-0.5064l0.78127,-0.11886c0,0 0.65358,0.28286 1.20779,0.32718c0.42778,0.03421 0.32632,0.00958 1.02515,-0.03205c0.46142,0.03944 1.24914,-0.41861 1.24914,-0.41861l0.67502,0.0247c0,0 -1.0014,0.79036 -1.80261,0.82566z" data-paper-data="{&quot;index&quot;:null}" fill="#5281cc" stroke="#000000" stroke-width="0.25" stroke-linecap="round"/><path d="M235.17576,193.99536l0.36117,1.44469" fill="none" stroke="#000000" stroke-width="0.25" stroke-linecap="round"/><path d="M234.81458,164.86066l-0.36117,1.08352" fill="none" stroke="#000000" stroke-width="0.25" stroke-linecap="round"/><path d="M204.22314,190.57625c0,0 1.21745,2.19197 1.67716,2.8285c0.33457,0.46326 0.4658,0.59864 0.4658,0.59864c0,0 0.33601,0.30997 0.70525,0.52449c0.40188,0.2335 0.84307,0.37615 0.93308,0.45646c0.17507,0.15621 0.04714,0.231 0.04714,0.231l-1.62932,-0.68223c0,0 -0.35484,-0.27761 -0.62251,-0.60512c-0.21822,-0.267 -0.37827,-0.55368 -0.53164,-0.86044c-0.36341,-0.72685 -1.04499,-2.4913 -1.04499,-2.4913z" fill="#650000" stroke="#000000" stroke-width="0.25" stroke-linecap="round"/><path d="M205.3557,166.73411c0.15337,-0.30676 0.3134,-0.59344 0.53164,-0.86044c0.26767,-0.32752 0.62251,-0.60512 0.62251,-0.60512l1.62932,-0.68223c0,0 0.12792,0.07479 -0.04714,0.231c-0.09,0.08032 -0.53122,0.22297 -0.9331,0.45646c-0.36921,0.21451 -0.70525,0.52449 -0.70525,0.52449c0,0 -0.13121,0.13537 -0.4658,0.59864c-0.45971,0.63651 -1.67716,2.8285 -1.67716,2.8285c0,0 0.68158,-1.76443 1.04499,-2.4913z" data-paper-data="{&quot;index&quot;:null}" fill="#670000" stroke="#000000" stroke-width="0.25" stroke-linecap="round"/><path d="M234.48517,186.47257v-12.88187c0,0 0.21152,-0.26465 0.53887,-0.3001c0.94628,-0.10248 2.86046,-0.06107 3.4314,-0.06107c0.32844,0 0.58279,0.36117 0.58279,0.36117v12.88187c0,0 -0.17134,0.30098 -0.52258,0.30098c-0.54937,0 -2.43377,0.09248 -3.43654,0.00408c-0.4258,-0.03754 -0.59394,-0.30506 -0.59394,-0.30506z" fill="#0010ca" stroke="#000000" stroke-width="0.5" stroke-linecap="butt"/><path d="M236.08466,185.28572v-9.99247c0,0 0.03242,-0.25164 0.25657,-0.32519c0.27804,-0.09121 0.66014,-0.04526 0.81075,-0.04526c0.21715,0 0.43758,0.37044 0.43758,0.37044v9.99247c0,0 -0.19623,0.15588 -0.39674,0.20522c-0.24635,0.06061 -0.51805,0.01704 -0.67058,0.01704c-0.19858,0 -0.43758,-0.22227 -0.43758,-0.22227z" fill="#ffffff" stroke="#000000" stroke-width="0.5" stroke-linecap="butt"/><path d="M235.85546,176.80741h-1.22244" fill="none" stroke="#000000" stroke-width="0.5" stroke-linecap="round"/><path d="M237.67059,176.84446h1.03722" fill="none" stroke="#000000" stroke-width="0.5" stroke-linecap="round"/><path d="M237.81877,183.80862h1.07428" fill="none" stroke="#000000" stroke-width="0.5" stroke-linecap="round"/><path d="M234.74414,183.80863l1.18541,-0.00001" fill="none" stroke="#000000" stroke-width="0.5" stroke-linecap="round"/><path d="M243.04121,186.85282c0,3.50009 -2.76555,6.33748 -6.17704,6.33748c-3.41148,0 -6.17704,-2.83738 -6.17704,-6.33748c0,-3.50009 2.76555,-6.33748 6.17704,-6.33748c3.41148,0 6.17704,2.83737 6.17704,6.33748z" fill="url(#color-1)" stroke="none" stroke-width="0" stroke-linecap="butt"/><path d="M256.45426,168.28722c0,0 0.52219,-0.8918 0.80787,-1.18991c0.23248,-0.24258 0.9086,-0.65998 0.9086,-0.65998c0,0 0.5558,-0.12987 1.17029,-0.05394c1.78334,0.22036 11.65219,1.11044 11.65219,1.11044c0,0 0.98732,0.3184 1.15382,0.94666c0.62636,2.3633 1.83289,8.39415 1.85856,11.7255c0.02305,2.99001 -1.44494,9.02272 -2.09697,11.64764c-0.25074,1.00939 -0.94515,0.97775 -0.94515,0.97775c0,0 -9.64585,0.66704 -11.42918,0.88742c-0.61449,0.07592 -1.17029,-0.05394 -1.17029,-0.05394c0,0 -0.67611,-0.41741 -0.9086,-0.65998c-0.28567,-0.29812 -0.679,-0.99664 -0.679,-0.99664" fill="none" stroke="#000000" stroke-width="0.25" stroke-linecap="round"/><path d="M250.97294,167.13714l-0.24159,-1.20796c0,0 -0.67269,0.01506 -0.9499,-0.12844c-0.23728,-0.12283 -0.564,-0.68019 -0.564,-0.68019c0,0 -0.89792,-1.96575 -1.14966,-2.59065c-0.15159,-0.37631 0.31215,-0.66275 0.31215,-0.66275l0.70866,-0.09664c0,0 0.88787,0.43098 1.71199,1.14622c0.56214,0.48789 0.94966,1.45635 1.15041,1.7084c0.21822,0.27397 -0.10826,0.97862 -0.10826,0.97862l0.38655,1.20796z" data-paper-data="{&quot;index&quot;:null}" fill="#517fcd" stroke="#000000" stroke-width="0.5" stroke-linecap="round"/><path d="M252.76615,193.18831l-0.38655,1.20796c0,0 0.32646,0.70465 0.10825,0.97862c-0.20076,0.25207 -0.58827,1.22051 -1.15041,1.7084c-0.8241,0.71527 -1.71199,1.14622 -1.71199,1.14622l-0.70866,-0.09664c0,0 -0.46372,-0.28646 -0.31215,-0.66275c0.25174,-0.62492 1.14966,-2.59065 1.14966,-2.59065c0,0 0.32671,-0.55736 0.564,-0.68019c0.27721,-0.14348 0.9499,-0.12844 0.9499,-0.12844l0.24159,-1.20796z" fill="#517fcd" stroke="#000000" stroke-width="0.5" stroke-linecap="round"/><path d="M262.97534,191.64538c0,0 -3.3781,1.16446 -5.10721,1.46527c-1.35726,0.23613 -5.21533,0.72003 -5.21533,0.72003" fill="none" stroke="#000000" stroke-width="0.5" stroke-linecap="round"/><path d="M252.01832,166.16855c0,0 3.85805,0.48392 5.21533,0.72002c1.72911,0.30081 5.10721,1.46527 5.10721,1.46527" data-paper-data="{&quot;index&quot;:null}" fill="none" stroke="#000000" stroke-width="0.5" stroke-linecap="round"/></g></g></g></svg>