<svg version="1.1" xmlns="http://www.w3.org/2000/svg" xmlns:xlink="http://www.w3.org/1999/xlink" width="72.58759" height="38.91471" viewBox="0,0,72.58759,38.91471"><g transform="translate(-203.6434,-160.57566)"><g data-paper-data="{&quot;isPaintingLayer&quot;:true}" fill-rule="nonzero" stroke-width="0.25" stroke-linecap="round" stroke-linejoin="miter" stroke-miterlimit="10" stroke-dasharray="" stroke-dashoffset="0" style="mix-blend-mode: normal"><path d="M207.13662,194.97263c0,0 -1.3425,-1.13455 -1.78779,-2.99781c-0.44219,-1.85032 -1.14738,-4.40277 -1.45591,-6.84764c-0.24171,-1.91537 -0.14422,-3.76472 -0.12454,-5.15872c0.02822,-1.99746 -0.02111,-4.39408 0.40711,-6.57604c0.35531,-1.81048 1.15523,-3.43454 1.54835,-4.91108c0.33325,-1.2517 1.83774,-3.58935 1.83774,-3.58935c0,0 2.07871,-0.49042 3.64782,-0.69155c2.01296,-0.25801 3.73606,-0.22145 4.99321,0.00658c1.56833,0.28448 3.69154,0.71132 3.69154,0.71132c0,0 12.13488,-0.49197 18.09219,-0.49197c5.81401,0 17.23225,0.49197 17.23225,0.49197c0,0 3.21882,-0.45873 6.18994,-0.83757c2.39421,-0.30528 4.75314,-0.12569 6.2054,0.07153c2.25668,0.30645 4.95701,1.25802 4.95701,1.25802c0,0 2.49671,2.00988 3.00554,4.67266c0.49984,2.00505 0.5148,4.27662 0.5295,5.90419c0.02096,2.31959 0.04142,5.25787 0.02922,7.99556c-0.00708,1.58952 -0.3768,4.08698 -0.83384,5.81351c-0.75141,2.83855 -3.01374,5.1149 -3.01374,5.1149c0,0 -2.63424,0.68282 -4.63228,0.91049c-1.42741,0.15189 -4.43453,0.16381 -6.87451,-0.02735c-3.08991,-0.24207 -5.96952,-0.40873 -5.96952,-0.40873c0,0 -11.19482,0.45256 -16.92391,0.43239c-5.91023,-0.0208 -18.01099,-0.55537 -18.01099,-0.55537c0,0 -2.13473,0.22932 -3.67229,0.47545c-1.21496,0.19449 -2.78985,0.25724 -5.10974,0.0047c-1.86025,-0.20251 -3.95779,-0.77008 -3.95779,-0.77008z" fill="#e0e0e0" stroke="#000000"/><path d="M274.093,173.04842c0,0 -0.5309,-0.43089 -0.73565,-0.8233c-0.19091,-0.36592 -0.55338,-1.25898 -0.55338,-1.25898l-1.5865,-4.16457c0,0 0.1604,-0.26695 0.40013,-0.25096c0.25508,0.01701 0.69059,0.05265 0.69059,0.05265c0,0 1.02791,2.01222 1.38186,2.93924c0.33954,0.88927 0.70042,2.51435 0.70042,2.51435z" data-paper-data="{&quot;index&quot;:null}" fill="#455050" stroke="#000000"/><path d="M271.82656,167.42239l0.46167,1.16732" fill="none" stroke="#ffffff"/><path d="M272.81551,170.00098l0.42234,1.12534" fill="none" stroke="#ffffff"/><path d="M272.82075,168.51365l-0.6112,-1.35094" fill="none" stroke="#ffffff"/><path d="M273.84904,171.46733l-0.49841,-1.56603" fill="none" stroke="#ffffff"/><path d="M274.19215,188.34779c0,0 -0.36088,1.62508 -0.70042,2.51435c-0.35396,0.92703 -1.38186,2.93924 -1.38186,2.93924c0,0 -0.43551,0.03565 -0.69059,0.05265c-0.23974,0.01598 -0.40013,-0.25096 -0.40013,-0.25096l1.5865,-4.16457c0,0 0.36247,-0.89306 0.55338,-1.25898c0.20474,-0.39243 0.73565,-0.8233 0.73565,-0.8233z" data-paper-data="{&quot;index&quot;:null}" fill="#455050" stroke="#000000"/><path d="M272.08994,191.81494l-0.46168,1.16732" data-paper-data="{&quot;index&quot;:null}" fill="none" stroke="#ffffff"/><path d="M272.6172,190.40366l0.42234,-1.12534" data-paper-data="{&quot;index&quot;:null}" fill="none" stroke="#ffffff"/><path d="M272.01123,193.24195l0.6112,-1.35094" data-paper-data="{&quot;index&quot;:null}" fill="none" stroke="#ffffff"/><path d="M273.15232,190.50335l0.49841,-1.56605" data-paper-data="{&quot;index&quot;:null}" fill="none" stroke="#ffffff"/><path d="M274.02365,173.05375c0,0 0.29843,1.4665 0.45202,3.12332c0.12776,1.37816 0.11711,2.86892 0.1035,3.93302c-0.01327,1.03784 -0.02977,2.58343 -0.18458,3.93094c-0.20215,1.75957 -0.55274,3.22513 -0.55274,3.22513" fill="none" stroke="#000000"/><path d="M271.1059,192.82632l-11.43385,0.27043c0,0 -0.6118,-0.00232 -0.76735,-0.19201c-0.13805,-0.16833 -0.39082,-0.39392 -0.39082,-0.39392" fill="none" stroke="#000000"/><path d="M258.81076,167.76467c0,0 0.25278,-0.2256 0.39082,-0.39393c0.15556,-0.18969 0.76734,-0.192 0.76734,-0.192l11.43385,0.27043" data-paper-data="{&quot;index&quot;:null}" fill="none" stroke="#000000"/><path d="M248.69984,171.0427c0,0 3.88259,-1.07822 5.54675,-1.7232c1.48223,-0.57448 3.95572,-1.95975 3.95572,-1.95975c0,0 0.52318,0.20339 0.87678,0.94068c0.46091,0.96103 0.72436,2.49066 1.01521,4.0576c0.46148,2.48619 0.23148,5.39155 0.20554,7.77839c-0.02308,2.12308 -0.11268,5.31679 -0.6334,7.99492c-0.34882,1.794 -0.61057,3.09722 -0.95647,3.9079c-0.22291,0.52246 -0.54308,0.82257 -0.54308,0.82257c0,0 -2.14276,-1.38843 -3.75108,-1.91789c-1.58889,-0.52305 -5.65518,-1.82703 -5.65518,-1.82703c0,0 0.45686,-5.66747 0.49536,-8.97736c0.0361,-3.1021 -0.55617,-9.09682 -0.55617,-9.09682z" fill="#203756" stroke="#000000"/><path d="M231.91881,169.36964c0,0 -3.71315,-0.08423 -5.44701,-0.38432c-1.703,-0.29475 -4.44029,-0.83388 -4.44029,-0.83388c0,0 -0.10094,-0.20183 0.35947,-0.35032c0.99201,-0.31993 3.14537,-0.75338 4.35677,-0.9298c2.04101,-0.377 5.51102,-0.71718 5.51102,-0.71718c0,0 6.09515,-0.06656 9.64748,-0.10457c4.77598,-0.04559 14.54667,0.64284 14.54667,0.64284c0,0 -0.97424,0.6612 -1.99576,1.08028c-1.42178,0.5833 -5.80927,1.7386 -5.80927,1.7386z" fill="#203756" stroke="#000000"/><path d="M248.62311,190.5638c0,0 4.38748,1.1553 5.80927,1.7386c1.02152,0.41908 1.99576,1.08028 1.99576,1.08028c0,0 -9.77068,0.68843 -14.54667,0.64284c-3.55232,-0.03801 -9.64748,-0.10457 -9.64748,-0.10457c0,0 -3.47002,-0.34018 -5.51102,-0.71718c-1.2114,-0.17642 -3.36476,-0.60987 -4.35677,-0.9298c-0.46041,-0.14849 -0.35947,-0.35032 -0.35947,-0.35032c0,0 2.73729,-0.53913 4.44029,-0.83388c1.73386,-0.3001 5.44701,-0.38432 5.44701,-0.38432z" data-paper-data="{&quot;index&quot;:null}" fill="#203756" stroke="#000000"/><path d="M253.39501,166.53837l-0.24789,-1.48734" fill="none" stroke="#000000"/><path d="M253.18843,195.2937l0.16526,-1.61129" fill="none" stroke="#000000"/><path d="M217.80309,190.33588c0,0 -7.4706,-0.59358 -8.75811,-0.73859c-0.36422,-0.04102 -0.7009,-0.32684 -0.7009,-0.32684c0,0 -0.53996,-2.68818 -0.52588,-4.79339c0.01217,-1.82203 -0.17716,-5.67545 0.00961,-8.84562c0.17505,-2.97106 0.72734,-4.99492 0.72734,-4.99492c0,0 0.28431,-0.28988 0.73847,-0.33227c1.39059,-0.12985 8.63791,-0.54328 8.63791,-0.54328c0,0 -1.07001,6.93824 -1.09134,10.35605c-0.02147,3.44036 0.96291,10.21889 0.96291,10.21889z" fill="#203756" stroke="#000000"/><path d="M217.94663,169.76095c0,0 0.36251,0.00355 0.5388,0.04236c0.16988,0.0374 0.34788,0.41528 0.34788,0.41528c0,0 -0.27122,2.37957 -0.38342,4.77023c-0.10421,2.22048 -0.05027,4.44007 -0.043,5.03579c0.01033,0.84667 -0.00517,1.84607 0.07913,2.97461c0.2402,3.2154 0.36636,6.47858 0.36636,6.47858c0,0 -0.19878,0.6394 -0.44464,0.6841c-0.19831,0.03605 -0.46111,0.17399 -0.46111,0.17399" fill="none" stroke="#000000"/><path d="M205.57273,169.60494l2.43901,0.08833c0,0 0.35272,0.21127 0.42341,0.2961c0.0668,0.08017 0.1949,0.37064 0.1949,0.37064" fill="none" stroke="#000000"/><path d="M208.35964,189.52635c0,0 -0.12809,0.29048 -0.19489,0.37064c-0.07069,0.08483 -0.42341,0.2961 -0.42341,0.2961l-2.43901,0.08833" data-paper-data="{&quot;index&quot;:null}" fill="none" stroke="#000000"/><path d="M250.95493,163.89413l0.30297,1.50112c0,0 -0.47006,0.09257 -0.6921,0.08426c-0.20598,-0.00772 -0.59555,-0.13246 -0.59555,-0.13246c0,0 -0.11154,-0.68006 -0.26583,-0.96852c-0.16208,-0.30301 -0.68442,-0.80804 -0.68442,-0.80804c0,0 0.60526,0.21391 0.96305,0.25805c0.34893,0.04306 0.97187,0.06559 0.97187,0.06559z" fill="#000000" stroke="#000000"/><path d="M248.60022,163.21641l-0.68647,-2.51706c0,0 0.80872,-0.1182 1.2286,-0.06571c0.39176,0.04897 1.13589,0.52336 1.13589,0.52336c0,0 0.58593,0.94326 0.76412,1.33785c0.17775,0.39357 0.30372,1.25546 0.30372,1.25546c0,0 -0.89754,0.19659 -1.35947,0.09265c-0.54216,-0.12199 -1.3864,-0.62657 -1.3864,-0.62657z" fill="#e0e0e0" stroke="#000000"/><path d="M250.30857,196.22557c-0.35779,0.04414 -0.96305,0.25805 -0.96305,0.25805c0,0 0.52233,-0.50503 0.68442,-0.80804c0.15428,-0.28846 0.26583,-0.96852 0.26583,-0.96852c0,0 0.3925,-0.12486 0.59915,-0.1326c0.22153,-0.00829 0.6885,0.0844 0.6885,0.0844l-0.30297,1.50112c0,0 -0.62294,0.02253 -0.97187,0.06559z" data-paper-data="{&quot;index&quot;:null}" fill="#000000" stroke="#000000"/><path d="M250.25706,196.15606c0.46192,-0.10394 1.35945,0.09265 1.35945,0.09265c0,0 -0.12597,0.86189 -0.3037,1.25546c-0.17821,0.39459 -0.76412,1.33785 -0.76412,1.33785c0,0 -0.74414,0.47438 -1.13589,0.52336c-0.41988,0.05248 -1.2286,-0.06571 -1.2286,-0.06571l0.68647,-2.51706c0,0 0.84425,-0.50458 1.38642,-0.62657z" data-paper-data="{&quot;index&quot;:null}" fill="#e0e0e0" stroke="#000000"/><path d="M261.45731,187.22087l11.98138,-1.48734" fill="none" stroke="#000000"/><path d="M261.7052,172.43005l11.65087,1.81787" fill="none" stroke="#000000"/><path d="M273.04547,179.95883l0.3262,-0.00507c0,0 0.13498,0.10608 0.12658,0.16724c-0.0084,0.06117 -0.11685,0.1419 -0.11685,0.1419h-0.33108z" fill="#000000" stroke="#252525"/><path d="M225.17309,195.22012l-0.50849,-1.4079c0,0 0.05809,-0.32847 0.15398,-0.45176c0.07864,-0.10111 0.42125,-0.31733 0.42125,-0.31733" fill="none" stroke="#000000"/><path d="M225.32935,166.995c0,0 -0.34263,-0.21623 -0.42125,-0.31733c-0.09588,-0.12329 -0.15398,-0.45177 -0.15398,-0.45177l0.50849,-1.40789" data-paper-data="{&quot;index&quot;:null}" fill="none" stroke="#000000"/><path d="M226.75858,165.97262l0.39662,-0.4407l1.66362,-0.14323l0.53984,0.24238" fill="none" stroke="#000000"/><path d="M238.37089,164.63951l0.36357,1.30005" fill="none" stroke="#000000"/><path d="M239.90231,165.52089l0.39662,-0.42968h1.2009l0.77121,0.34153" fill="none" stroke="#000000"/><path d="M229.21703,194.44464l-0.53984,0.24238l-1.66362,-0.14323l-0.39662,-0.4407" data-paper-data="{&quot;index&quot;:null}" fill="none" stroke="#000000"/><path d="M238.22925,195.4362l0.36357,-1.30005" data-paper-data="{&quot;index&quot;:null}" fill="none" stroke="#000000"/><path d="M242.12939,194.64296l-0.77121,0.34153h-1.2009l-0.39662,-0.42968" data-paper-data="{&quot;index&quot;:null}" fill="none" stroke="#000000"/><path d="M209.86739,168.12492l11.7571,-1.41652" fill="none" stroke="#000000"/><path d="M209.58409,191.92244l12.60701,1.55817" fill="none" stroke="#000000"/></g></g></svg>