<svg version="1.1" xmlns="http://www.w3.org/2000/svg" xmlns:xlink="http://www.w3.org/1999/xlink" width="342.34234" height="30.67762" viewBox="0,0,342.34234,30.67762"><g transform="translate(-68.82883,-164.01875)"><g data-paper-data="{&quot;isPaintingLayer&quot;:true}" fill-rule="nonzero" stroke="none" stroke-linecap="butt" stroke-linejoin="miter" stroke-miterlimit="10" stroke-dasharray="" stroke-dashoffset="0" style="mix-blend-mode: normal"><path d="M75.22883,194.69637c-3.53462,0 -6.4,-2.6967 -6.4,-6.02325v-17.34624c0,-3.32655 2.86538,-6.02325 6.4,-6.02325h329.54234c3.53462,0 6.4,2.6967 6.4,6.02325v17.34624c0,3.32655 -2.86538,6.02325 -6.4,6.02325z" fill-opacity="0.89412" fill="#ffde00" stroke-width="0"/><text transform="translate(74.54044,185.76875) scale(0.5,0.5)" font-size="40" xml:space="preserve" fill-opacity="0.89412" fill="#ffffff" fill-rule="nonzero" stroke="none" stroke-width="1" stroke-linecap="butt" stroke-linejoin="miter" stroke-miterlimit="10" stroke-dasharray="" stroke-dashoffset="0" font-family="Sans Serif" font-weight="normal" text-anchor="start" style="mix-blend-mode: normal"><tspan x="0" dy="0">Day 7</tspan></text><text transform="translate(346.24462,185.76875) scale(0.5,0.5)" font-size="40" xml:space="preserve" fill-opacity="0.89412" fill="#ffffff" fill-rule="nonzero" stroke="none" stroke-width="1" stroke-linecap="butt" stroke-linejoin="miter" stroke-miterlimit="10" stroke-dasharray="" stroke-dashoffset="0" font-family="Sans Serif" font-weight="normal" text-anchor="start" style="mix-blend-mode: normal"><tspan x="0" dy="0">1</tspan></text><g stroke-width="0"><path d="M385.87085,171.678l1.73943,-1.73943l1.55871,1.55871l-1.73943,1.73943z" fill="#3ed3f7"/><path d="M376.38254,170.97516l1.73943,-1.73943l1.55871,1.55871l-1.73943,1.73943z" fill="#f74848"/><path d="M374.52961,172.02941l1.73943,-1.73943l1.55871,1.55871l-1.73943,1.73943z" fill="#3ed3f7"/><path d="M378.17158,171.80578l1.73943,-1.73943l1.55871,1.55871l-1.73943,1.73943z" fill="#3ed3f7"/><path d="M379.6092,171.96552l1.73943,-1.73943l1.55871,1.55871l-1.73943,1.73943z" fill="#f74848"/><path d="M382.54834,171.77383l1.73943,-1.73943l1.55871,1.55871l-1.73943,1.73943z" fill="#3ed3f7"/><path d="M381.11072,170.33621l1.73943,-1.73943l1.55871,1.55871l-1.73943,1.73943z" fill="#f74848"/><path d="M378.84247,170.94321l1.73943,-1.73943l1.55871,1.55871l-1.73943,1.73943z" fill="#3ef744"/><path d="M371.84605,171.35852l1.73943,-1.73943l1.55871,1.55871l-1.73943,1.73943z" fill="#3ed3f7"/><path d="M370.05701,171.19879l1.73943,-1.73943l1.55871,1.55871l-1.73943,1.73943z" fill="#3ed3f7"/><path d="M373.21977,171.51826l1.73943,-1.73943l1.55871,1.55871l-1.73943,1.73943z" fill="#3ed3f7"/><path d="M368.14018,170.11259l1.73943,-1.73943l1.55871,1.55871l-1.73943,1.73943z" fill="#f74848"/><path d="M366.35114,169.53754l1.73943,-1.73943l1.55871,1.55871l-1.73943,1.73943z" fill="#3ed3f7"/><path d="M364.78573,170.33621l1.73943,-1.73943l1.55871,1.55871l-1.73943,1.73943z" fill="#f7f13e"/><path d="M366.38308,171.58215l1.73943,-1.73943l1.55871,1.55871l-1.73943,1.73943z" fill="#3ef744"/><path d="M362.8689,171.48631l1.73943,-1.73943l1.55871,1.55871l-1.73943,1.73943z" fill="#f74848"/><path d="M361.68685,170.71958l1.73943,-1.73943l1.55871,1.55871l-1.73943,1.73943z" fill="#3ef744"/><path d="M360.66454,171.03905l1.73943,-1.73943l1.55871,1.55871l-1.73943,1.73943z" fill="#f74848"/><path d="M384.91243,171.55021l1.73943,-1.73943l1.55871,1.55871l-1.73943,1.73943z" fill="#f74848"/><path d="M383.34702,171.10294l1.73943,-1.73943l1.55871,1.55871l-1.73943,1.73943z" fill="#f7f13e"/><path d="M386.73342,171.99746l1.73943,-1.73943l1.55871,1.55871l-1.73943,1.73943z" fill="#f74848"/><path d="M374.36987,171.00711l1.73943,-1.73943l1.55871,1.55871l-1.73943,1.73943z" fill="#f7f13e"/><path d="M371.49463,169.85701l1.73943,-1.73943l1.55871,1.55871l-1.73943,1.73943z" fill="#f74848"/><path d="M373.37951,169.98479l1.73943,-1.73943l1.55871,1.55871l-1.73943,1.73943z" fill="#f74848"/><path d="M374.08235,170.464l1.73943,-1.73943l1.55871,1.55871l-1.73943,1.73943z" fill="#f7f13e"/><path d="M374.17819,170.40011l1.73943,-1.73943l1.55871,1.55871l-1.73943,1.73943z" fill="#f7f13e"/><path d="M369.96116,170.65569l1.73943,-1.73943l1.55871,1.55871l-1.73943,1.73943z" fill="#3ef744"/><path d="M372.42109,169.9209l1.73943,-1.73943l1.55871,1.55871l-1.73943,1.73943z" fill="#3ef744"/><path d="M360.53882,188.99093c-0.35663,0 -0.64573,-0.52595 -0.64573,-1.17474v-15.2796c0,-0.64879 0.2891,-1.17474 0.64573,-1.17474h29.32119c0.35663,0 0.64573,0.52595 0.64573,1.17474v15.2796c0,0.64879 -0.2891,1.17474 -0.64573,1.17474z" fill="#feff72"/><g fill="#ffffff"><path d="M373.46486,185.28269l0.69028,-6.30102h2.10624l0.67258,6.30102z"/><path d="M375.19941,180.84012c-1.59335,0 -2.88502,-1.29167 -2.88502,-2.88502c0,-1.59335 1.29167,-2.88502 2.88502,-2.88502c1.59335,0 2.88502,1.29167 2.88502,2.88502c0,1.59335 -1.29167,2.88502 -2.88502,2.88502z"/></g></g></g></g></svg>