<svg version="1.1" xmlns="http://www.w3.org/2000/svg" xmlns:xlink="http://www.w3.org/1999/xlink" width="72.28062" height="38.75063" viewBox="0,0,72.28062,38.75063"><g transform="translate(-203.79687,-160.65756)"><g data-paper-data="{&quot;isPaintingLayer&quot;:true}" fill-rule="nonzero" stroke-width="0.25" stroke-linecap="round" stroke-linejoin="miter" stroke-miterlimit="10" stroke-dasharray="" stroke-dashoffset="0" style="mix-blend-mode: normal"><path d="M207.27581,194.90909c0,0 -1.3368,-1.12973 -1.7802,-2.98508c-0.44031,-1.84246 -1.14251,-4.38409 -1.44973,-6.81858c-0.24069,-1.90724 -0.14361,-3.74874 -0.12401,-5.13683c0.0281,-1.98899 -0.02102,-4.37544 0.40538,-6.54813c0.35381,-1.8028 1.15033,-3.41997 1.54178,-4.89024c0.33184,-1.24639 1.82994,-3.57412 1.82994,-3.57412c0,0 2.06989,-0.48834 3.63234,-0.68861c2.00442,-0.25692 3.72021,-0.22051 4.97202,0.00656c1.56167,0.28327 3.67588,0.7083 3.67588,0.7083c0,0 12.08339,-0.48988 18.01541,-0.48988c5.78934,0 17.15912,0.48988 17.15912,0.48988c0,0 3.20516,-0.45678 6.16367,-0.83402c2.38405,-0.30399 4.73297,-0.12516 6.17907,0.07123c2.2471,0.30515 4.93597,1.25268 4.93597,1.25268c0,0 2.48612,2.00135 2.99279,4.65283c0.49772,1.99654 0.51261,4.25847 0.52726,5.87913c0.02087,2.30975 0.04124,5.23555 0.0291,7.96163c-0.00705,1.58277 -0.3752,4.06964 -0.8303,5.78884c-0.74822,2.8265 -3.00095,5.09319 -3.00095,5.09319c0,0 -2.62306,0.67992 -4.61262,0.90662c-1.42135,0.15125 -4.41571,0.16311 -6.84533,-0.02723c-3.0768,-0.24104 -5.94419,-0.407 -5.94419,-0.407c0,0 -11.14731,0.45064 -16.85209,0.43055c-5.88515,-0.02072 -17.93456,-0.55302 -17.93456,-0.55302c0,0 -2.12567,0.22834 -3.65671,0.47343c-1.2098,0.19367 -2.77802,0.25615 -5.08806,0.00468c-1.85236,-0.20165 -3.94099,-0.76681 -3.94099,-0.76681z" fill="#e0e0e0" stroke="#000000"/><path d="M273.94805,173.07792c0,0 -0.52865,-0.42906 -0.73253,-0.81981c-0.1901,-0.36436 -0.55103,-1.25364 -0.55103,-1.25364l-1.57977,-4.14689c0,0 0.15972,-0.26581 0.39844,-0.2499c0.254,0.01694 0.68766,0.05243 0.68766,0.05243c0,0 1.02354,2.00368 1.376,2.92677c0.3381,0.8855 0.69745,2.50368 0.69745,2.50368z" data-paper-data="{&quot;index&quot;:null}" fill="#455050" stroke="#000000"/><path d="M271.69123,167.47576l0.45971,1.16236" fill="none" stroke="#ffffff"/><path d="M272.67598,170.04341l0.42055,1.12057" fill="none" stroke="#ffffff"/><path d="M272.6812,168.56239l-0.60861,-1.34521" fill="none" stroke="#ffffff"/><path d="M273.70512,171.50354l-0.4963,-1.55939" fill="none" stroke="#ffffff"/><path d="M274.04678,188.31236c0,0 -0.35935,1.61818 -0.69745,2.50368c-0.35246,0.92309 -1.376,2.92677 -1.376,2.92677c0,0 -0.43366,0.0355 -0.68766,0.05243c-0.23873,0.01592 -0.39844,-0.2499 -0.39844,-0.2499l1.57977,-4.14689c0,0 0.36094,-0.88927 0.55103,-1.25364c0.20387,-0.39077 0.73253,-0.81981 0.73253,-0.81981z" data-paper-data="{&quot;index&quot;:null}" fill="#455050" stroke="#000000"/><path d="M271.95349,191.7648l-0.45972,1.16236" data-paper-data="{&quot;index&quot;:null}" fill="none" stroke="#ffffff"/><path d="M272.47851,190.35951l0.42055,-1.12057" data-paper-data="{&quot;index&quot;:null}" fill="none" stroke="#ffffff"/><path d="M271.87512,193.18576l0.60861,-1.34521" data-paper-data="{&quot;index&quot;:null}" fill="none" stroke="#ffffff"/><path d="M273.01137,190.45877l0.4963,-1.5594" data-paper-data="{&quot;index&quot;:null}" fill="none" stroke="#ffffff"/><path d="M273.87899,173.08323c0,0 0.29716,1.46028 0.4501,3.11006c0.12722,1.37231 0.11661,2.85675 0.10306,3.91633c-0.01322,1.03343 -0.02965,2.57246 -0.1838,3.91426c-0.2013,1.7521 -0.55039,3.21144 -0.55039,3.21144" fill="none" stroke="#000000"/><path d="M270.97362,192.77189l-11.38533,0.26928c0,0 -0.6092,-0.00231 -0.76409,-0.19119c-0.13746,-0.16761 -0.38916,-0.39225 -0.38916,-0.39225" fill="none" stroke="#000000"/><path d="M258.73066,167.81659c0,0 0.25171,-0.22464 0.38917,-0.39226c0.1549,-0.18888 0.76409,-0.19118 0.76409,-0.19118l11.38533,0.26928" data-paper-data="{&quot;index&quot;:null}" fill="none" stroke="#000000"/><path d="M248.66265,171.08071c0,0 3.86612,-1.07364 5.52322,-1.71588c1.47594,-0.57204 3.93894,-1.95144 3.93894,-1.95144c0,0 0.52096,0.20253 0.87306,0.93669c0.45895,0.95696 0.72129,2.48009 1.0109,4.04038c0.45952,2.47564 0.2305,5.36867 0.20467,7.74538c-0.02299,2.11407 -0.11221,5.29423 -0.63071,7.961c-0.34734,1.78639 -0.60798,3.08407 -0.95241,3.89132c-0.22197,0.52025 -0.54077,0.81908 -0.54077,0.81908c0,0 -2.13366,-1.38254 -3.73516,-1.90975c-1.58215,-0.52083 -5.63118,-1.81928 -5.63118,-1.81928c0,0 0.45493,-5.64342 0.49326,-8.93927c0.03594,-3.08894 -0.55381,-9.05822 -0.55381,-9.05822z" fill="#203756" stroke="#000000"/><path d="M231.95283,169.41475c0,0 -3.6974,-0.08387 -5.4239,-0.38269c-1.69577,-0.2935 -4.42145,-0.83034 -4.42145,-0.83034c0,0 -0.10051,-0.20097 0.35795,-0.34883c0.9878,-0.31858 3.13202,-0.75018 4.33828,-0.92585c2.03234,-0.3754 5.48763,-0.71414 5.48763,-0.71414c0,0 6.06929,-0.06627 9.60654,-0.10412c4.75572,-0.0454 14.48494,0.64011 14.48494,0.64011c0,0 -0.97011,0.65839 -1.98729,1.07569c-1.41575,0.58082 -5.78461,1.73122 -5.78461,1.73122z" fill="#203756" stroke="#000000"/><path d="M248.58624,190.51897c0,0 4.36886,1.1504 5.78461,1.73122c1.01718,0.4173 1.98729,1.07569 1.98729,1.07569c0,0 -9.72922,0.68551 -14.48494,0.64011c-3.53725,-0.03785 -9.60654,-0.10412 -9.60654,-0.10412c0,0 -3.45529,-0.33873 -5.48763,-0.71414c-1.20626,-0.17567 -3.35048,-0.60728 -4.33828,-0.92585c-0.45846,-0.14786 -0.35795,-0.34883 -0.35795,-0.34883c0,0 2.72567,-0.53685 4.42145,-0.83034c1.7265,-0.29883 5.4239,-0.38269 5.4239,-0.38269z" data-paper-data="{&quot;index&quot;:null}" fill="#203756" stroke="#000000"/><path d="M253.33789,166.59549l-0.24684,-1.48103" fill="none" stroke="#000000"/><path d="M253.13219,195.2288l0.16456,-1.60445" fill="none" stroke="#000000"/><path d="M217.89701,190.29202c0,0 -7.4389,-0.59106 -8.72094,-0.73546c-0.36268,-0.04085 -0.69793,-0.32545 -0.69793,-0.32545c0,0 -0.53767,-2.67677 -0.52364,-4.77305c0.01212,-1.8143 -0.17641,-5.65137 0.00957,-8.80809c0.17431,-2.95845 0.72426,-4.97373 0.72426,-4.97373c0,0 0.2831,-0.28864 0.73534,-0.33086c1.38469,-0.1293 8.60125,-0.54097 8.60125,-0.54097c0,0 -1.06547,6.9088 -1.08671,10.3121c-0.02138,3.42576 0.95882,10.17553 0.95882,10.17553z" fill="#203756" stroke="#000000"/><path d="M218.03994,169.80439c0,0 0.36097,0.00353 0.53652,0.04218c0.16916,0.03725 0.3464,0.41352 0.3464,0.41352c0,0 -0.27007,2.36947 -0.38179,4.74999c-0.10377,2.21105 -0.05006,4.42123 -0.04282,5.01442c0.01028,0.84308 -0.00515,1.83824 0.07879,2.96198c0.23918,3.20176 0.36481,6.45109 0.36481,6.45109c0,0 -0.19794,0.63669 -0.44275,0.6812c-0.19747,0.0359 -0.45916,0.17325 -0.45916,0.17325" fill="none" stroke="#000000"/><path d="M205.71855,169.64905l2.42866,0.08796c0,0 0.35122,0.21037 0.42161,0.29485c0.06652,0.07983 0.19407,0.36907 0.19407,0.36907" fill="none" stroke="#000000"/><path d="M208.49363,189.48592c0,0 -0.12755,0.28924 -0.19407,0.36907c-0.07039,0.08447 -0.42161,0.29485 -0.42161,0.29485l-2.42866,0.08796" data-paper-data="{&quot;index&quot;:null}" fill="none" stroke="#000000"/><path d="M250.90816,163.96248l0.30169,1.49475c0,0 -0.46807,0.09218 -0.68917,0.08391c-0.20511,-0.00768 -0.59302,-0.1319 -0.59302,-0.1319c0,0 -0.11107,-0.67717 -0.2647,-0.96441c-0.1614,-0.30172 -0.68151,-0.80461 -0.68151,-0.80461c0,0 0.60269,0.213 0.95897,0.25696c0.34745,0.04287 0.96774,0.06531 0.96774,0.06531z" fill="#000000" stroke="#000000"/><path d="M248.56345,163.28763l-0.68355,-2.50638c0,0 0.80529,-0.1177 1.22339,-0.06543c0.39009,0.04876 1.13107,0.52114 1.13107,0.52114c0,0 0.58344,0.93926 0.76088,1.33218c0.17699,0.3919 0.30243,1.25013 0.30243,1.25013c0,0 -0.89374,0.19575 -1.3537,0.09226c-0.53986,-0.12147 -1.38052,-0.62391 -1.38052,-0.62391z" fill="#e0e0e0" stroke="#000000"/><path d="M250.26455,196.15671c-0.35627,0.04395 -0.95897,0.25696 -0.95897,0.25696c0,0 0.52012,-0.50288 0.68151,-0.80461c0.15363,-0.28723 0.2647,-0.96441 0.2647,-0.96441c0,0 0.39084,-0.12433 0.59661,-0.13204c0.22059,-0.00826 0.68558,0.08404 0.68558,0.08404l-0.30169,1.49475c0,0 -0.62029,0.02243 -0.96774,0.06531z" data-paper-data="{&quot;index&quot;:null}" fill="#000000" stroke="#000000"/><path d="M250.21326,196.08749c0.45996,-0.1035 1.35368,0.09226 1.35368,0.09226c0,0 -0.12543,0.85823 -0.30241,1.25013c-0.17745,0.39292 -0.76088,1.33218 -0.76088,1.33218c0,0 -0.74098,0.47237 -1.13107,0.52114c-0.41809,0.05226 -1.22339,-0.06543 -1.22339,-0.06543l0.68355,-2.50638c0,0 0.84066,-0.50244 1.38053,-0.62391z" data-paper-data="{&quot;index&quot;:null}" fill="#e0e0e0" stroke="#000000"/><path d="M261.36598,187.19023l11.93054,-1.48103" fill="none" stroke="#000000"/><path d="M261.61282,172.46218l11.60143,1.81016" fill="none" stroke="#000000"/><path d="M272.90497,179.959l0.32482,-0.00504c0,0 0.13441,0.10563 0.12604,0.16653c-0.00836,0.06091 -0.11635,0.1413 -0.11635,0.1413h-0.32967z" fill="#000000" stroke="#252525"/><path d="M225.23574,195.15553l-0.50633,-1.40192c0,0 0.05785,-0.32708 0.15332,-0.44984c0.07831,-0.10068 0.41947,-0.31599 0.41947,-0.31599" fill="none" stroke="#000000"/><path d="M225.39134,167.05018c0,0 -0.34117,-0.21531 -0.41947,-0.31599c-0.09548,-0.12277 -0.15332,-0.44985 -0.15332,-0.44985l0.50633,-1.40192" data-paper-data="{&quot;index&quot;:null}" fill="none" stroke="#000000"/><path d="M226.8145,166.03214l0.39494,-0.43883l1.65656,-0.14262l0.53755,0.24136" fill="none" stroke="#000000"/><path d="M238.37753,164.70469l0.36203,1.29453" fill="none" stroke="#000000"/><path d="M239.90245,165.58233l0.39494,-0.42785h1.1958l0.76794,0.34008" fill="none" stroke="#000000"/><path d="M229.26252,194.38334l-0.53755,0.24136l-1.65656,-0.14262l-0.39494,-0.43883" data-paper-data="{&quot;index&quot;:null}" fill="none" stroke="#000000"/><path d="M238.23649,195.3707l0.36203,-1.29453" data-paper-data="{&quot;index&quot;:null}" fill="none" stroke="#000000"/><path d="M242.12008,194.58082l-0.76794,0.34008h-1.1958l-0.39494,-0.42785" data-paper-data="{&quot;index&quot;:null}" fill="none" stroke="#000000"/><path d="M209.99499,168.17531l11.70721,-1.41051" fill="none" stroke="#000000"/><path d="M209.71289,191.87184l12.55352,1.55156" fill="none" stroke="#000000"/></g></g></svg>