<svg version="1.1" xmlns="http://www.w3.org/2000/svg" xmlns:xlink="http://www.w3.org/1999/xlink" width="71.81319" height="38.55066" viewBox="0,0,71.81319,38.55066"><g transform="translate(-204.04503,-160.72467)"><g data-paper-data="{&quot;isPaintingLayer&quot;:true}" fill-rule="nonzero" stroke-width="0.25" stroke-linecap="round" stroke-linejoin="miter" stroke-miterlimit="10" stroke-dasharray="" stroke-dashoffset="0" style="mix-blend-mode: normal"><path d="M207.50085,194.80635c0,0 -1.32759,-1.12195 -1.76793,-2.96451c-0.43728,-1.82977 -1.13464,-4.35388 -1.43974,-6.7716c-0.23903,-1.8941 -0.14262,-3.72291 -0.12316,-5.10144c0.02791,-1.97528 -0.02088,-4.34528 0.40259,-6.50301c0.35137,-1.79037 1.1424,-3.39641 1.53115,-4.85655c0.32955,-1.2378 1.81734,-3.54949 1.81734,-3.54949c0,0 2.05563,-0.48497 3.60732,-0.68387c1.99061,-0.25515 3.69457,-0.21898 4.93775,0.00651c1.55091,0.28132 3.65055,0.70342 3.65055,0.70342c0,0 12.00012,-0.4865 17.89128,-0.4865c5.74945,0 17.04089,0.4865 17.04089,0.4865c0,0 3.18307,-0.45364 6.1212,-0.82827c2.36762,-0.30189 4.70035,-0.12429 6.13649,0.07074c2.23162,0.30305 4.90197,1.24405 4.90197,1.24405c0,0 2.46899,1.98756 2.97217,4.62076c0.49429,1.98279 0.50909,4.22913 0.52362,5.83862c0.02073,2.29383 0.04096,5.19948 0.0289,7.90677c-0.007,1.57187 -0.37261,4.0416 -0.82457,5.74895c-0.74307,2.80703 -2.98027,5.0581 -2.98027,5.0581c0,0 -2.60498,0.67524 -4.58083,0.90037c-1.41155,0.1502 -4.38528,0.16199 -6.79816,-0.02704c-3.05559,-0.23939 -5.90323,-0.40419 -5.90323,-0.40419c0,0 -11.0705,0.44754 -16.73598,0.42759c-5.8446,-0.02057 -17.81098,-0.54921 -17.81098,-0.54921c0,0 -2.11102,0.22677 -3.63152,0.47018c-1.20147,0.19233 -2.75887,0.25438 -5.053,0.00464c-1.83959,-0.20026 -3.91384,-0.76153 -3.91384,-0.76153z" fill="#af3d1b" stroke="#000000"/><path d="M273.7137,173.12561c0,0 -0.52501,-0.4261 -0.72748,-0.81416c-0.1888,-0.36185 -0.54723,-1.245 -0.54723,-1.245l-1.56888,-4.11832c0,0 0.15862,-0.26399 0.39569,-0.24818c0.25225,0.01682 0.68292,0.05207 0.68292,0.05207c0,0 1.01649,1.98987 1.36651,2.9066c0.33577,0.8794 0.69264,2.48644 0.69264,2.48644z" data-paper-data="{&quot;index&quot;:null}" fill="#455050" stroke="#000000"/><path d="M271.47243,167.56206l0.45655,1.15435" fill="none" stroke="#ffffff"/><path d="M272.45039,170.11202l0.41764,1.11285" fill="none" stroke="#ffffff"/><path d="M272.45557,168.6412l-0.60441,-1.33594" fill="none" stroke="#ffffff"/><path d="M273.47245,171.56208l-0.49288,-1.54865" fill="none" stroke="#ffffff"/><path d="M273.81174,188.25508c0,0 -0.35687,1.60704 -0.69264,2.48644c-0.35003,0.91672 -1.36651,2.9066 -1.36651,2.9066c0,0 -0.43067,0.03525 -0.68292,0.05207c-0.23708,0.01581 -0.39569,-0.24818 -0.39569,-0.24818l1.56888,-4.11832c0,0 0.35845,-0.88314 0.54723,-1.245c0.20247,-0.38807 0.72748,-0.81416 0.72748,-0.81416z" data-paper-data="{&quot;index&quot;:null}" fill="#455050" stroke="#000000"/><path d="M271.27632,192.83808l0.45655,-1.15435" data-paper-data="{&quot;index&quot;:null}" fill="none" stroke="#ffffff"/><path d="M272.25428,190.28813l0.41764,-1.11285" data-paper-data="{&quot;index&quot;:null}" fill="none" stroke="#ffffff"/><path d="M272.25946,191.75895l-0.60441,1.33594" data-paper-data="{&quot;index&quot;:null}" fill="none" stroke="#ffffff"/><path d="M272.78347,190.3867l0.49288,-1.54865" data-paper-data="{&quot;index&quot;:null}" fill="none" stroke="#ffffff"/><path d="M273.64512,173.13089c0,0 0.29512,1.45022 0.447,3.08863c0.12634,1.36286 0.11581,2.83706 0.10235,3.88935c-0.01313,1.02631 -0.02945,2.55474 -0.18253,3.88729c-0.1999,1.74003 -0.5466,3.18931 -0.5466,3.18931" fill="none" stroke="#000000"/><path d="M270.75976,192.68388l-11.30688,0.26742c0,0 -0.605,-0.00229 -0.75883,-0.18988c-0.13651,-0.16646 -0.38648,-0.38954 -0.38648,-0.38954" fill="none" stroke="#000000"/><path d="M258.60115,167.90054c0,0 0.24997,-0.22309 0.38648,-0.38955c0.15383,-0.18758 0.75882,-0.18987 0.75882,-0.18987l11.30688,0.26742" data-paper-data="{&quot;index&quot;:null}" fill="none" stroke="#000000"/><path d="M248.60252,171.14216c0,0 3.83948,-1.06624 5.48516,-1.70406c1.46577,-0.5681 3.91179,-1.938 3.91179,-1.938c0,0 0.51737,0.20113 0.86704,0.93023c0.45579,0.95036 0.71632,2.463 1.00394,4.01255c0.45635,2.45858 0.22891,5.33169 0.20326,7.69201c-0.02283,2.09951 -0.11143,5.25775 -0.62637,7.90614c-0.34494,1.77409 -0.60379,3.06282 -0.94585,3.8645c-0.22044,0.51666 -0.53705,0.81344 -0.53705,0.81344c0,0 -2.11897,-1.37302 -3.70943,-1.89659c-1.57125,-0.51724 -5.59239,-1.80674 -5.59239,-1.80674c0,0 0.45179,-5.60453 0.48986,-8.87767c0.03569,-3.06766 -0.54999,-8.9958 -0.54999,-8.9958z" fill="#203756" stroke="#000000"/><path d="M232.00784,169.48769c0,0 -3.67192,-0.08329 -5.38653,-0.38005c-1.68409,-0.29148 -4.39098,-0.82463 -4.39098,-0.82463c0,0 -0.09982,-0.19959 0.35548,-0.34643c0.981,-0.31638 3.11044,-0.74501 4.30839,-0.91948c2.01834,-0.37281 5.44982,-0.70921 5.44982,-0.70921c0,0 6.02747,-0.06582 9.54034,-0.10341c4.72295,-0.04508 14.38513,0.6357 14.38513,0.6357c0,0 -0.96342,0.65385 -1.9736,1.06829c-1.406,0.57682 -5.74475,1.71929 -5.74475,1.71929z" fill="#203756" stroke="#000000"/><path d="M248.52664,190.44649c0,0 4.33876,1.14247 5.74475,1.71929c1.01017,0.41443 1.9736,1.06829 1.9736,1.06829c0,0 -9.66219,0.68078 -14.38513,0.6357c-3.51288,-0.0376 -9.54034,-0.10341 -9.54034,-0.10341c0,0 -3.43148,-0.3364 -5.44982,-0.70921c-1.19795,-0.17446 -3.3274,-0.6031 -4.30839,-0.91948c-0.4553,-0.14683 -0.35548,-0.34643 -0.35548,-0.34643c0,0 2.70689,-0.53314 4.39098,-0.82463c1.7146,-0.29677 5.38653,-0.38005 5.38653,-0.38005z" data-paper-data="{&quot;index&quot;:null}" fill="#203756" stroke="#000000"/><path d="M253.24556,166.68784l-0.24514,-1.47083" fill="none" stroke="#000000"/><path d="M253.2047,193.53046l-0.16343,1.5934" fill="none" stroke="#000000"/><path d="M218.04887,190.2211c0,0 -7.38765,-0.58699 -8.66086,-0.73039c-0.36018,-0.04057 -0.69313,-0.32321 -0.69313,-0.32321c0,0 -0.53396,-2.65832 -0.52003,-4.74017c0.01204,-1.80179 -0.1752,-5.61242 0.0095,-8.7474c0.17311,-2.93807 0.71926,-4.93945 0.71926,-4.93945c0,0 0.28115,-0.28666 0.73026,-0.32858c1.37515,-0.12842 8.54199,-0.53725 8.54199,-0.53725c0,0 -1.05812,6.8612 -1.07922,10.24104c-0.02124,3.40217 0.95221,10.10541 0.95221,10.10541z" fill="#203756" stroke="#000000"/><path d="M218.19082,169.87464c0,0 0.35849,0.00351 0.53282,0.04189c0.168,0.03699 0.34401,0.41066 0.34401,0.41066c0,0 -0.26821,2.35314 -0.37916,4.71726c-0.10305,2.19582 -0.04971,4.39077 -0.04253,4.97986c0.01021,0.83728 -0.00512,1.82557 0.07825,2.94158c0.23753,3.1797 0.3623,6.40664 0.3623,6.40664c0,0 -0.19657,0.6323 -0.4397,0.6765c-0.19611,0.03565 -0.45599,0.17206 -0.45599,0.17206" fill="none" stroke="#000000"/><path d="M205.95433,169.72037l2.41193,0.08735c0,0 0.3488,0.20893 0.41871,0.29282c0.06606,0.07927 0.19274,0.36653 0.19274,0.36653" fill="none" stroke="#000000"/><path d="M208.71029,189.42056c0,0 -0.12667,0.28725 -0.19273,0.36653c-0.0699,0.08389 -0.41871,0.29282 -0.41871,0.29282l-2.41193,0.08735" data-paper-data="{&quot;index&quot;:null}" fill="none" stroke="#000000"/><path d="M250.83256,164.07298l0.29961,1.48445c0,0 -0.46484,0.09154 -0.68442,0.08333c-0.20369,-0.00763 -0.58894,-0.13099 -0.58894,-0.13099c0,0 -0.1103,-0.67251 -0.26288,-0.95776c-0.16028,-0.29965 -0.67682,-0.79906 -0.67682,-0.79906c0,0 0.59854,0.21154 0.95236,0.25519c0.34506,0.04257 0.96108,0.06485 0.96108,0.06485z" fill="#000000" stroke="#000000"/><path d="M248.504,163.40279l-0.67885,-2.48911c0,0 0.79974,-0.11688 1.21496,-0.06498c0.3874,0.04843 1.12328,0.51755 1.12328,0.51755c0,0 0.57942,0.93279 0.75564,1.323c0.17578,0.3892 0.30034,1.24151 0.30034,1.24151c0,0 -0.88758,0.19441 -1.34436,0.09162c-0.53614,-0.12064 -1.37101,-0.61961 -1.37101,-0.61961z" fill="#af3d1b" stroke="#000000"/><path d="M250.19338,196.04538c-0.35382,0.04365 -0.95236,0.25519 -0.95236,0.25519c0,0 0.51653,-0.49941 0.67682,-0.79906c0.15257,-0.28525 0.26288,-0.95776 0.26288,-0.95776c0,0 0.38814,-0.12348 0.5925,-0.13113c0.21907,-0.0082 0.68086,0.08347 0.68086,0.08347l-0.29961,1.48445c0,0 -0.61602,0.02228 -0.96108,0.06485z" data-paper-data="{&quot;index&quot;:null}" fill="#000000" stroke="#000000"/><path d="M250.14244,195.97665c0.45679,-0.10278 1.34436,0.09162 1.34436,0.09162c0,0 -0.12457,0.85232 -0.30033,1.24151c-0.17622,0.39021 -0.75564,1.323 -0.75564,1.323c0,0 -0.73587,0.46911 -1.12328,0.51755c-0.41522,0.0519 -1.21496,-0.06498 -1.21496,-0.06498l0.67885,-2.48911c0,0 0.83487,-0.49898 1.37102,-0.61961z" data-paper-data="{&quot;index&quot;:null}" fill="#af3d1b" stroke="#000000"/><path d="M273.06666,185.66986l-11.84834,1.47083" fill="none" stroke="#000000"/><path d="M272.98495,174.3118l-11.52149,-1.79768" fill="none" stroke="#000000"/><path d="M272.6778,179.95928l0.32258,-0.00501c0,0 0.13348,0.1049 0.12517,0.16539c-0.00831,0.06049 -0.11555,0.14033 -0.11555,0.14033h-0.3274z" fill="#000000" stroke="#252525"/><path d="M225.33703,195.0511l-0.50284,-1.39227c0,0 0.05745,-0.32483 0.15227,-0.44674c0.07777,-0.09999 0.41658,-0.31381 0.41658,-0.31381" fill="none" stroke="#000000"/><path d="M225.49155,167.13941c0,0 -0.33882,-0.21383 -0.41658,-0.31381c-0.09482,-0.12192 -0.15227,-0.44675 -0.15227,-0.44675l0.50284,-1.39225" data-paper-data="{&quot;index&quot;:null}" fill="none" stroke="#000000"/><path d="M226.90492,166.12838l0.39222,-0.4358l1.64515,-0.14164l0.53385,0.23969" fill="none" stroke="#000000"/><path d="M238.74781,166.09569l-0.35953,-1.28561" fill="none" stroke="#000000"/><path d="M239.90268,165.68168l0.39222,-0.4249h1.18756l0.76265,0.33774" fill="none" stroke="#000000"/><path d="M229.33607,194.28423l-0.53385,0.23969l-1.64515,-0.14164l-0.39222,-0.4358" data-paper-data="{&quot;index&quot;:null}" fill="none" stroke="#000000"/><path d="M238.2482,195.26478l0.35953,-1.28561" data-paper-data="{&quot;index&quot;:null}" fill="none" stroke="#000000"/><path d="M242.10503,194.48035l-0.76265,0.33774h-1.18756l-0.39222,-0.4249" data-paper-data="{&quot;index&quot;:null}" fill="none" stroke="#000000"/><path d="M221.82785,166.856l-11.62655,1.40079" fill="none" stroke="#000000"/><path d="M222.38816,193.33091l-12.46701,-1.54087" fill="none" stroke="#000000"/></g></g></svg>