<svg version="1.1" xmlns="http://www.w3.org/2000/svg" xmlns:xlink="http://www.w3.org/1999/xlink" width="342.34234" height="31.70454" viewBox="0,0,342.34234,31.70454"><defs><linearGradient x1="382.04585" y1="168.77185" x2="382.04585" y2="189.44399" gradientUnits="userSpaceOnUse" id="color-1"><stop offset="0" stop-color="#ff3db8"/><stop offset="1" stop-color="#99256e"/></linearGradient></defs><g transform="translate(-68.82883,-162.99183)"><g data-paper-data="{&quot;isPaintingLayer&quot;:true}" fill-rule="nonzero" stroke="none" stroke-linecap="butt" stroke-linejoin="miter" stroke-miterlimit="10" stroke-dasharray="" stroke-dashoffset="0" style="mix-blend-mode: normal"><path d="M75.22883,194.69637c-3.53462,0 -6.4,-2.6967 -6.4,-6.02325v-17.34624c0,-3.32655 2.86538,-6.02325 6.4,-6.02325h329.54234c3.53462,0 6.4,2.6967 6.4,6.02325v17.34624c0,3.32655 -2.86538,6.02325 -6.4,6.02325z" fill-opacity="0.89412" fill="#ffde00" stroke-width="0"/><text transform="translate(74.54044,185.76875) scale(0.5,0.5)" font-size="40" xml:space="preserve" fill-opacity="0.89412" fill="#ffffff" fill-rule="nonzero" stroke="none" stroke-width="1" stroke-linecap="butt" stroke-linejoin="miter" stroke-miterlimit="10" stroke-dasharray="" stroke-dashoffset="0" font-family="Sans Serif" font-weight="normal" text-anchor="start" style="mix-blend-mode: normal"><tspan x="0" dy="0">Day 4</tspan></text><text transform="translate(346.24462,185.76875) scale(0.5,0.5)" font-size="40" xml:space="preserve" fill-opacity="0.89412" fill="#ffffff" fill-rule="nonzero" stroke="none" stroke-width="1" stroke-linecap="butt" stroke-linejoin="miter" stroke-miterlimit="10" stroke-dasharray="" stroke-dashoffset="0" font-family="Sans Serif" font-weight="normal" text-anchor="start" style="mix-blend-mode: normal"><tspan x="0" dy="0">80</tspan></text><g><path d="M371.70978,179.10792c0,-5.70845 4.62762,-10.33607 10.33607,-10.33607c5.70845,0 10.33607,4.62762 10.33607,10.33607c0,5.70845 -4.62762,10.33607 -10.33607,10.33607c-5.70845,0 -10.33607,-4.62762 -10.33607,-10.33607z" fill="url(#color-1)" stroke-width="0"/><text transform="translate(375.60159,186.6232) scale(0.54325,0.54325)" font-size="40" xml:space="preserve" fill="#000000" fill-rule="nonzero" stroke="none" stroke-width="1" stroke-linecap="butt" stroke-linejoin="miter" stroke-miterlimit="10" stroke-dasharray="" stroke-dashoffset="0" font-family="Sans Serif" font-weight="normal" text-anchor="start" style="mix-blend-mode: normal"><tspan x="0" dy="0">$</tspan></text></g></g></g></svg>