<svg version="1.1" xmlns="http://www.w3.org/2000/svg" xmlns:xlink="http://www.w3.org/1999/xlink" width="342.34234" height="30.67762" viewBox="0,0,342.34234,30.67762"><g transform="translate(-68.82883,-164.01875)"><g data-paper-data="{&quot;isPaintingLayer&quot;:true}" fill-rule="nonzero" stroke="none" stroke-linecap="butt" stroke-linejoin="miter" stroke-miterlimit="10" stroke-dasharray="" stroke-dashoffset="0" style="mix-blend-mode: normal"><path d="M75.22883,194.69637c-3.53462,0 -6.4,-2.6967 -6.4,-6.02325v-17.34624c0,-3.32655 2.86538,-6.02325 6.4,-6.02325h329.54234c3.53462,0 6.4,2.6967 6.4,6.02325v17.34624c0,3.32655 -2.86538,6.02325 -6.4,6.02325z" fill-opacity="0.89412" fill="#ffde00" stroke-width="0"/><text transform="translate(74.54044,185.76875) scale(0.5,0.5)" font-size="40" xml:space="preserve" fill-opacity="0.89412" fill="#ffffff" fill-rule="nonzero" stroke="none" stroke-width="1" stroke-linecap="butt" stroke-linejoin="miter" stroke-miterlimit="10" stroke-dasharray="" stroke-dashoffset="0" font-family="Sans Serif" font-weight="normal" text-anchor="start" style="mix-blend-mode: normal"><tspan x="0" dy="0">Day 8</tspan></text><text transform="translate(346.24462,185.76875) scale(0.5,0.5)" font-size="40" xml:space="preserve" fill-opacity="0.89412" fill="#ffffff" fill-rule="nonzero" stroke="none" stroke-width="1" stroke-linecap="butt" stroke-linejoin="miter" stroke-miterlimit="10" stroke-dasharray="" stroke-dashoffset="0" font-family="Sans Serif" font-weight="normal" text-anchor="start" style="mix-blend-mode: normal"><tspan x="0" dy="0">1</tspan></text><g stroke-width="0"><path d="M387.42956,173.23671l1.73943,-1.73943l-1.55871,-1.55871l-1.73943,1.73943z" fill="#3ed3f7"/><path d="M377.94125,172.53387l1.73943,-1.73943l-1.55871,-1.55871l-1.73943,1.73943z" fill="#f74848"/><path d="M376.08832,173.58812l1.73943,-1.73943l-1.55871,-1.55871l-1.73943,1.73943z" fill="#3ed3f7"/><path d="M379.73029,173.36449l1.73943,-1.73943l-1.55871,-1.55871l-1.73943,1.73943z" fill="#3ed3f7"/><path d="M381.16791,173.52423l1.73943,-1.73943l-1.55871,-1.55871l-1.73943,1.73943z" fill="#f74848"/><path d="M384.10705,173.33254l1.73943,-1.73943l-1.55871,-1.55871l-1.73943,1.73943z" fill="#3ed3f7"/><path d="M382.66943,171.89492l1.73943,-1.73943l-1.55871,-1.55871l-1.73943,1.73943z" fill="#f74848"/><path d="M380.40118,172.50192l1.73943,-1.73943l-1.55871,-1.55871l-1.73943,1.73943z" fill="#3ef744"/><path d="M373.40476,172.91723l1.73943,-1.73943l-1.55871,-1.55871l-1.73943,1.73943z" fill="#3ed3f7"/><path d="M371.61572,172.7575l1.73943,-1.73943l-1.55871,-1.55871l-1.73943,1.73943z" fill="#3ed3f7"/><path d="M374.77848,173.07697l1.73943,-1.73943l-1.55871,-1.55871l-1.73943,1.73943z" fill="#3ed3f7"/><path d="M369.69889,171.6713l1.73943,-1.73943l-1.55871,-1.55871l-1.73943,1.73943z" fill="#f74848"/><path d="M367.90985,171.09625l1.73943,-1.73943l-1.55871,-1.55871l-1.73943,1.73943z" fill="#3ed3f7"/><path d="M366.34444,171.89492l1.73943,-1.73943l-1.55871,-1.55871l-1.73943,1.73943z" fill="#f7f13e"/><path d="M367.94179,173.14086l1.73943,-1.73943l-1.55871,-1.55871l-1.73943,1.73943z" fill="#3ef744"/><path d="M364.42761,173.04502l1.73943,-1.73943l-1.55871,-1.55871l-1.73943,1.73943z" fill="#f74848"/><path d="M363.24556,172.27829l1.73943,-1.73943l-1.55871,-1.55871l-1.73943,1.73943z" fill="#3ef744"/><path d="M362.22325,172.59776l1.73943,-1.73943l-1.55871,-1.55871l-1.73943,1.73943z" fill="#f74848"/><path d="M386.47114,173.10892l1.73943,-1.73943l-1.55871,-1.55871l-1.73943,1.73943z" fill="#f74848"/><path d="M384.90573,172.66165l1.73943,-1.73943l-1.55871,-1.55871l-1.73943,1.73943z" fill="#f7f13e"/><path d="M388.29213,173.55617l1.73943,-1.73943l-1.55871,-1.55871l-1.73943,1.73943z" fill="#f74848"/><path d="M375.92858,172.56582l1.73943,-1.73943l-1.55871,-1.55871l-1.73943,1.73943z" fill="#f7f13e"/><path d="M373.05334,171.41572l1.73943,-1.73943l-1.55871,-1.55871l-1.73943,1.73943z" fill="#f74848"/><path d="M374.93822,171.5435l1.73943,-1.73943l-1.55871,-1.55871l-1.73943,1.73943z" fill="#f74848"/><path d="M375.64106,172.02271l1.73943,-1.73943l-1.55871,-1.55871l-1.73943,1.73943z" fill="#f7f13e"/><path d="M375.7369,171.95882l1.73943,-1.73943l-1.55871,-1.55871l-1.73943,1.73943z" fill="#f7f13e"/><path d="M371.51987,172.2144l1.73943,-1.73943l-1.55871,-1.55871l-1.73943,1.73943z" fill="#3ef744"/><path d="M373.9798,171.47961l1.73943,-1.73943l-1.55871,-1.55871l-1.73943,1.73943z" fill="#3ef744"/><path d="M389.86001,188.99093c0.35663,0 0.64573,-0.52595 0.64573,-1.17474v-15.2796c0,-0.64879 -0.2891,-1.17474 -0.64573,-1.17474h-29.32119c-0.35663,0 -0.64573,0.52595 -0.64573,1.17474v15.2796c0,0.64879 0.2891,1.17474 0.64573,1.17474z" fill="#feff72"/><g fill="#ffffff"><path d="M376.93396,185.28269l-0.67258,-6.30102h-2.10624l-0.69028,6.30102z"/><path d="M378.08443,177.9551c0,-1.59335 -1.29167,-2.88502 -2.88502,-2.88502c-1.59335,0 -2.88502,1.29167 -2.88502,2.88502c0,1.59335 1.29167,2.88502 2.88502,2.88502c1.59335,0 2.88502,-1.29167 2.88502,-2.88502z"/></g></g></g></g></svg>