<svg version="1.1" xmlns="http://www.w3.org/2000/svg" xmlns:xlink="http://www.w3.org/1999/xlink" width="72.5154" height="34.4836" viewBox="0,0,72.5154,34.4836"><g transform="translate(-203.7423,-162.7582)"><g data-paper-data="{&quot;isPaintingLayer&quot;:true}" fill-rule="nonzero" stroke="#000000" stroke-linecap="round" stroke-linejoin="miter" stroke-miterlimit="10" stroke-dasharray="" stroke-dashoffset="0" style="mix-blend-mode: normal"><path d="M206.71985,186.66338c0,0 -1.16873,-3.02077 -1.05723,-6.54613c0.11246,-3.40364 1.39507,-7.19659 1.39507,-7.19659c0,0 0.50426,-3.74397 0.66533,-4.63173c0.0687,-0.37868 0.21495,-1.0297 0.61869,-1.59727c0.42394,-0.59598 1.23727,-1.22857 1.23727,-1.22857c0,0 4.40611,-0.62165 7.21547,-0.62165c2.92958,0 8.82197,0.75028 8.82197,0.75028l30.29141,0.209c0,0 5.22965,-0.90388 7.09853,-0.9342c1.61365,-0.02618 6.38178,0.63421 6.38178,0.63421c0,0 2.08119,0.90579 2.86341,1.35249c0.78443,0.65965 1.16253,1.57359 1.16253,1.57359l1.20004,4.23907c0,0 1.3936,2.47618 1.3936,7.35272c0,4.82652 -1.47102,7.12762 -1.47102,7.12762l-1.19652,4.06172c0,0 -0.29906,1.01377 -0.89095,1.46266c-0.6885,0.52218 -3.39241,1.61251 -3.39241,1.61251c0,0 -4.02444,0.86938 -5.85027,0.88637c-1.87036,0.0174 -7.23237,-0.65458 -7.23237,-0.65458l-30.13656,-0.09111c0,0 -5.71746,0.75028 -8.73349,0.75028c-2.73786,0 -7.88645,-0.75028 -7.88645,-0.75028c0,0 -0.79675,-0.54429 -0.99087,-1.08769c-0.18873,-0.52831 -0.4965,-1.15033 -0.56922,-1.54892c-0.1497,-0.82056 -0.93774,-5.12377 -0.93774,-5.12377z" fill="#a53939" stroke-width="0.5"/><path d="M244.53695,172.33313c0,0 0.72472,-1.43626 2.23399,-1.93619c1.7477,-0.57889 7.64221,-1.93541 7.64221,-1.93541c0,0 2.16347,0.27614 3.04404,2.95032c0.73225,2.22376 0.96663,6.71131 0.95035,8.4998c-0.01577,1.7328 -0.27089,6.66835 -0.91792,8.91427c-0.83404,2.89502 -2.8606,2.94421 -2.8606,2.94421c0,0 -6.23156,-1.71669 -7.82342,-2.2585c-1.75602,-0.59768 -2.26865,-1.62662 -2.26865,-1.62662z" fill="#4c5e73" stroke-width="0.5"/><path d="M252.70282,192.45113c0,0 -10.26723,0.64858 -13.40621,0.68258c-5.10422,0.05528 -14.304,-0.38246 -14.304,-0.38246c0,0 -1.23876,-0.05246 -1.69531,-0.1803c-0.34613,-0.09691 -1.23435,-0.46637 -1.23435,-0.46637l-0.54338,-0.75482c0,0 1.10841,-0.38811 2.48753,-0.84169c1.39701,-0.45946 3.00246,-0.91107 4.98599,-1.16951c2.79798,-0.36457 4.83193,-0.37445 7.67607,-0.22576c2.80749,0.01861 7.39972,1.00671 7.39972,1.00671c0,0 6.91447,1.67552 8.28873,2.05463c1.51337,0.41749 0.34523,0.27699 0.34523,0.27699z" fill="#4c5e73" stroke-width="0.5"/><path d="M252.17753,167.61389c-1.37426,0.37912 -8.28873,2.05463 -8.28873,2.05463c0,0 -4.59222,0.9881 -7.39972,1.00671c-2.84415,0.14869 -4.87809,0.13882 -7.67607,-0.22575c-1.98352,-0.25845 -3.58898,-0.71005 -4.98599,-1.16951c-1.37912,-0.45357 -2.48753,-0.84169 -2.48753,-0.84169l0.54338,-0.75482c0,0 0.88822,-0.36946 1.23435,-0.46637c0.45655,-0.12784 1.69531,-0.1803 1.69531,-0.1803c0,0 9.19977,-0.43774 14.304,-0.38246c3.13899,0.03399 13.40622,0.68258 13.40622,0.68258c0,0 1.16816,-0.14049 -0.34523,0.27699z" data-paper-data="{&quot;index&quot;:null}" fill="#4c5e73" stroke-width="0.5"/><path d="M223.53153,173.20663l-0.30536,13.65504c0,0 0.06458,0.59003 -0.53453,0.90859c-1.5461,0.82209 -4.91989,1.9594 -5.97802,2.25059c-1.39034,0.3826 -1.77032,-0.34564 -1.77032,-0.34564c0,0 -1.56361,-2.26073 -1.8878,-9.90269c0.70587,-7.66106 2.00231,-10.01716 2.00231,-10.01716c0,0 0.33317,-0.60473 1.43098,-0.34228c1.11778,0.26722 4.55276,1.64764 6.2388,2.66498c0.66792,0.40301 0.80394,1.12858 0.80394,1.12858z" fill="#4c5e73" stroke-width="0.5"/><path d="M209.81826,191.63133c0,0 -1.25058,-1.2721 -2.04159,-2.74862c-0.84622,-1.57957 -1.3142,-2.98077 -1.3142,-2.98077" fill="none" stroke-width="0.5"/><path d="M206.87172,173.2973c0,0 0.46797,-1.4012 1.3142,-2.98076c0.79102,-1.47652 2.04159,-2.74862 2.04159,-2.74862" data-paper-data="{&quot;index&quot;:null}" fill="none" stroke-width="0.5"/><path d="M256.3814,168.90748c0,0 0.36646,-0.65081 0.63261,-0.92854c0.21659,-0.22601 0.84651,-0.61489 0.84651,-0.61489c0,0 0.51783,-0.12099 1.09032,-0.05025c1.66148,0.20531 10.856,1.03455 10.856,1.03455c0,0 0.91985,0.29665 1.07498,0.88198c0.58356,2.2018 1.70764,7.82057 1.73156,10.92428c0.02147,2.7857 -1.3462,8.4062 -1.95369,10.85176c-0.2336,0.94041 -0.88056,0.91094 -0.88056,0.91094c0,0 -8.98674,0.62147 -10.64822,0.82678c-0.5725,0.07075 -1.09032,-0.05025 -1.09032,-0.05025c0,0 -0.62991,-0.38888 -0.84651,-0.61489c-0.26616,-0.27773 -0.63261,-0.92854 -0.63261,-0.92854" fill="none" stroke-width="0.25"/><path d="M271.75395,192.27297c0,0 -1.07214,0.55961 -1.5933,0.75505c-0.37535,0.14076 -1.11327,0.31681 -1.44441,0.33695c-0.21717,0.0132 -0.11945,-0.11063 -0.11945,-0.11063c0,0 2.05772,-0.80143 2.96321,-1.91155c0.86313,-1.05819 2.46879,-4.48081 2.46879,-4.48081c0,0 -0.72201,2.34415 -1.06063,3.25518c-0.14443,0.38857 -0.36107,0.96285 -0.60729,1.35893c-0.23231,0.37368 -0.60692,0.79688 -0.60692,0.79688z" fill="#ffffff" stroke-width="0.25"/><path d="M271.90401,167.84752c0,0 0.3746,0.42321 0.60692,0.79688c0.24622,0.39608 0.46287,0.97035 0.60729,1.35893c0.33862,0.91103 1.06063,3.25518 1.06063,3.25518c0,0 -1.60567,-3.42262 -2.4688,-4.48081c-0.90549,-1.11012 -2.96321,-1.91155 -2.96321,-1.91155c0,0 -0.09771,-0.12383 0.11945,-0.11062c0.33114,0.02013 1.06907,0.19619 1.44441,0.33695c0.52115,0.19544 1.5933,0.75505 1.5933,0.75505z" data-paper-data="{&quot;index&quot;:null}" fill="#ffffff" stroke-width="0.25"/><path d="M252.72522,192.28714l-0.36013,1.12541c0,0 0.30415,0.6565 0.10086,0.91175c-0.18705,0.23484 -0.54807,1.13712 -1.07181,1.59167c-0.76779,0.66638 -1.595,1.06791 -1.595,1.06791l-0.66024,-0.09003c0,0 -0.43204,-0.26688 -0.29081,-0.61747c0.23454,-0.58222 1.0711,-2.41364 1.0711,-2.41364c0,0 0.30438,-0.51927 0.52546,-0.63371c0.25827,-0.13368 0.88499,-0.11966 0.88499,-0.11966l0.22508,-1.12541z" fill="#333333" stroke-width="0.5"/><path d="M251.05455,168.01606l-0.22508,-1.12541c0,0 -0.62672,0.01402 -0.88499,-0.11966c-0.22107,-0.11444 -0.52546,-0.63371 -0.52546,-0.63371c0,0 -0.83657,-1.83144 -1.0711,-2.41364c-0.14123,-0.35059 0.29081,-0.61747 0.29081,-0.61747l0.66024,-0.09003c0,0 0.82721,0.40152 1.595,1.06791c0.52372,0.45455 0.88477,1.35682 1.07181,1.59167c0.20329,0.25525 -0.10086,0.91175 -0.10086,0.91175l0.36013,1.12541z" data-paper-data="{&quot;index&quot;:null}" fill="#333333" stroke-width="0.5"/><path d="M275.78102,176.94794c0,0 -2.77993,-0.92074 -3.98235,-1.35361c-1.29205,-0.46514 -4.22067,-2.34775 -4.22067,-2.34775" fill="none" stroke-width="0.5"/><path d="M267.47797,186.75156c0,0 2.92862,-1.88261 4.22067,-2.34775c1.20242,-0.43287 3.98235,-1.35361 3.98235,-1.35361" data-paper-data="{&quot;index&quot;:null}" fill="none" stroke-width="0.5"/><path d="M262.23682,190.84965c0,0 -3.14727,1.0849 -4.75823,1.36515c-1.26453,0.21999 -4.85896,0.67084 -4.85896,0.67084" fill="none" stroke-width="0.5"/><path d="M252.12854,167.11365c0,0 3.59443,0.45085 4.85896,0.67083c1.61096,0.28025 4.75823,1.36515 4.75823,1.36515" data-paper-data="{&quot;index&quot;:null}" fill="none" stroke-width="0.5"/><path d="M209.27797,168.77367h2.9811c0,0 1.09301,0.26284 1.53066,0.47377c0.60914,0.29358 1.07031,0.72668 1.07031,0.72668" fill="none" stroke-width="0.25"/><path d="M214.70998,189.48131c0,0 -0.46116,0.43311 -1.07031,0.72668c-0.43765,0.21092 -1.53066,0.47377 -1.53066,0.47377h-2.9811" data-paper-data="{&quot;index&quot;:null}" fill="none" stroke-width="0.25"/><path d="M223.08938,192.49111c0,0 -1.84071,0.39408 -3.68549,0.17368c-1.28647,-0.10884 -3.06414,-0.6599 -3.60623,-1.00635c-1.23337,-0.78825 -1.571,-3.54681 -1.571,-3.54681" fill="none" stroke-width="0.5"/><path d="M214.46287,171.50966c0,0 0.31883,-2.60498 1.48352,-3.34933c0.51191,-0.32716 2.1906,-0.84754 3.40544,-0.95033c1.74206,-0.20812 3.48029,0.164 3.48029,0.164" data-paper-data="{&quot;index&quot;:null}" fill="none" stroke-width="0.5"/><path d="M223.97339,165.57249l-0.30012,1.60059" fill="none" stroke-width="0.25"/><path d="M223.87335,192.68249l0.50018,1.80067" fill="none" stroke-width="0.25"/><path d="M228.86593,165.5845l-0.63101,0.02308c0,0 -0.73635,-0.42819 -1.1677,-0.39132c-0.65328,-0.03891 -0.55843,-0.06195 -0.95831,-0.02997c-0.51807,0.04143 -1.12905,0.30585 -1.12905,0.30585l-0.73031,-0.1111c0,0 0.61025,-0.32469 1.25845,-0.47339c0.62683,-0.1438 1.28552,-0.11207 1.67283,-0.09501c0.74898,0.033 1.68508,0.77183 1.68508,0.77183z" fill="#a53939" stroke-width="0.25"/><path d="M241.22504,165.6909l-0.63101,0.02308c0,0 -0.73635,-0.42819 -1.1677,-0.39132c-0.65328,-0.03891 -0.55843,-0.06195 -0.95831,-0.02997c-0.51807,0.04143 -1.12904,0.30585 -1.12904,0.30585l-0.73032,-0.11109c0,0 0.61025,-0.32469 1.25845,-0.47339c0.62683,-0.1438 1.28552,-0.11207 1.67283,-0.09501c0.74898,0.033 1.68508,0.77183 1.68508,0.77183z" fill="#a53939" stroke-width="0.25"/><path d="M228.19373,195.29702c-0.38732,0.01707 -1.046,0.0488 -1.67283,-0.09501c-0.6482,-0.1487 -1.25845,-0.47339 -1.25845,-0.47339l0.73031,-0.11109c0,0 0.61096,0.26442 1.12905,0.30585c0.39988,0.03199 0.30503,0.00894 0.95831,-0.02997c0.43135,0.03687 1.1677,-0.39131 1.1677,-0.39131l0.63101,0.02308c0,0 -0.9361,0.73882 -1.68508,0.77183z" data-paper-data="{&quot;index&quot;:null}" fill="#a53939" stroke-width="0.25"/><path d="M240.32776,195.30316c-0.38732,0.01707 -1.046,0.0488 -1.67283,-0.09501c-0.6482,-0.1487 -1.25845,-0.47339 -1.25845,-0.47339l0.73032,-0.1111c0,0 0.61096,0.26442 1.12904,0.30585c0.39988,0.03199 0.30503,0.00895 0.95831,-0.02997c0.43135,0.03687 1.1677,-0.39131 1.1677,-0.39131l0.63101,0.02308c0,0 -0.9361,0.73882 -1.68508,0.77183z" data-paper-data="{&quot;index&quot;:null}" fill="#a53939" stroke-width="0.25"/><path d="M236.32169,193.08264l0.33763,1.3505" fill="none" stroke-width="0.25"/><path d="M235.98407,165.84759l-0.33763,1.01287" fill="none" stroke-width="0.25"/><path d="M207.38727,189.88646c0,0 1.13809,2.04906 1.56781,2.64408c0.31275,0.43305 0.43543,0.5596 0.43543,0.5596c0,0 0.31411,0.28976 0.65926,0.49028c0.37567,0.21827 0.78811,0.35162 0.87225,0.4267c0.16364,0.14602 0.04407,0.21593 0.04407,0.21593l-1.52307,-0.63774c0,0 -0.3317,-0.25951 -0.58192,-0.56567c-0.20398,-0.24959 -0.3536,-0.51759 -0.49697,-0.80434c-0.33972,-0.67945 -0.97686,-2.32885 -0.97686,-2.32885z" fill="#650000" stroke-width="0.25"/><path d="M208.44598,167.59888c0.14337,-0.28674 0.29298,-0.55475 0.49697,-0.80434c0.25023,-0.30615 0.58192,-0.56567 0.58192,-0.56567l1.52307,-0.63774c0,0 0.11957,0.06991 -0.04407,0.21593c-0.08414,0.07508 -0.49659,0.20843 -0.87226,0.4267c-0.34514,0.20053 -0.65926,0.49028 -0.65926,0.49028c0,0 -0.12267,0.12655 -0.43542,0.5596c-0.42974,0.59502 -1.56782,2.64408 -1.56782,2.64408c0,0 0.63714,-1.6494 0.97686,-2.32885z" data-paper-data="{&quot;index&quot;:null}" fill="#670000" stroke-width="0.25"/><path d="M266.62246,172.1891c0,0 -1.75629,-0.86526 -2.23768,-1.23051c-0.2295,-0.17413 -0.55592,-0.5734 -0.68082,-0.77411c-0.10022,-0.16105 -0.02258,-0.14617 -0.02258,-0.14617c0,0 0.62435,-0.01113 1.00777,0.07417c0.38847,0.08643 0.85792,0.30597 0.85792,0.30597c0,0 0.37971,0.3205 0.63575,0.67599c0.25812,0.35837 0.39274,0.75232 0.43496,0.88929c0.07899,0.25629 0.00469,0.20538 0.00469,0.20538z" fill="#333333" stroke-width="0.5"/><path d="M266.41,187.90768c-0.04221,0.13698 -0.17685,0.53092 -0.43496,0.88929c-0.25604,0.35549 -0.63575,0.67598 -0.63575,0.67598c0,0 -0.46945,0.21954 -0.85792,0.30597c-0.38343,0.0853 -1.00777,0.07417 -1.00777,0.07417c0,0 -0.07763,0.01487 0.02258,-0.14617c0.1249,-0.20073 0.45132,-0.59998 0.68082,-0.77411c0.48138,-0.36526 2.23768,-1.23051 2.23768,-1.23051c0,0 0.07431,-0.05092 -0.00468,0.20539z" data-paper-data="{&quot;index&quot;:null}" fill="#333333" stroke-width="0.5"/><path d="M205.20611,170.84643l2.10025,-1.1054l1.89145,-0.54042c0,0 1.27572,-0.23543 1.66872,-0.10515c0.3568,0.11828 0.33328,0.85436 0.33328,0.85436l-0.84747,0.6878c0,0 -0.72522,0.34017 -1.16683,0.48069c-0.34483,0.10971 -1.09309,0.80894 -1.09309,0.80894c0,0 -1.40879,5.15232 -1.42524,7.75106c-0.01628,2.57178 1.32698,7.76132 1.32698,7.76132c0,0 0.72702,0.81932 1.16178,1.04924c0.41597,0.21999 1.30693,0.47374 1.30693,0.47374c0,0 0.82807,0.3041 0.80902,0.69373c-0.02457,0.5025 -0.51425,0.95209 -0.51425,0.95209l-1.83004,-0.08597l-1.62125,-0.56498l-2.18622,-1.60897c0,0 -1.18178,-5.68246 -1.1259,-8.58231c0.05862,-3.04199 1.21188,-8.91977 1.21188,-8.91977z" fill="#333333" stroke-width="0.5"/></g></g></svg>