<svg version="1.1" xmlns="http://www.w3.org/2000/svg" xmlns:xlink="http://www.w3.org/1999/xlink" width="72.61834" height="35.33615" viewBox="0,0,72.61834,35.33615"><g transform="translate(-203.69083,-162.33192)"><g data-paper-data="{&quot;isPaintingLayer&quot;:true}" fill-rule="nonzero" stroke="#000000" stroke-linecap="round" stroke-linejoin="miter" stroke-miterlimit="10" stroke-dasharray="" stroke-dashoffset="0" style="mix-blend-mode: normal"><path d="M205.03229,186.83063c0,0 -1.19806,-3.09658 -1.08377,-6.71044c0.11529,-3.48907 1.43008,-7.37721 1.43008,-7.37721c0,0 0.51692,-3.83794 0.68203,-4.74798c0.07042,-0.38818 0.22035,-1.05554 0.63421,-1.63736c0.43458,-0.61094 1.26832,-1.25941 1.26832,-1.25941c0,0 4.51669,-0.63725 7.39656,-0.63725c3.00311,0 9.04338,0.7691 9.04338,0.7691l31.05168,0.21425c0,0 5.36091,-0.92657 7.27669,-0.95765c1.65415,-0.02684 6.54195,0.65013 6.54195,0.65013c0,0 2.13343,0.92852 2.93528,1.38644c0.80412,0.6762 1.19172,1.61309 1.19172,1.61309l1.23016,4.34546c0,0 1.42858,2.53832 1.42858,7.53726c0,4.94765 -1.50794,7.30652 -1.50794,7.30652l-1.22656,4.16367c0,0 -0.30657,1.03921 -0.91331,1.49937c-0.70579,0.53528 -3.47755,1.65297 -3.47755,1.65297c0,0 -4.12545,0.8912 -5.9971,0.90861c-1.9173,0.01784 -7.41389,-0.67101 -7.41389,-0.67101l-30.89294,-0.09339c0,0 -5.86096,0.7691 -8.95269,0.7691c-2.80658,0 -8.08439,-0.7691 -8.08439,-0.7691c0,0 -0.81675,-0.55796 -1.01574,-1.11499c-0.19346,-0.54157 -0.50896,-1.17921 -0.5835,-1.58779c-0.15345,-0.84115 -0.96127,-5.25237 -0.96127,-5.25237z" fill="#c51515" stroke-width="0.5"/><path d="M243.87546,172.14071c0,0 0.74292,-1.47232 2.29007,-1.98478c1.79156,-0.59343 7.83401,-1.98398 7.83401,-1.98398c0,0 2.21777,0.28307 3.12045,3.02438c0.75063,2.27957 0.99089,6.87976 0.97421,8.71313c-0.01616,1.77629 -0.27769,6.83572 -0.94097,9.138c-0.85497,2.96769 -2.93239,3.0181 -2.93239,3.0181c0,0 -6.38797,-1.75978 -8.01978,-2.31518c-1.80009,-0.61269 -2.32558,-1.66745 -2.32558,-1.66745z" fill="#4c5e73" stroke-width="0.5"/><path d="M252.16937,192.76366c0,0 -10.52492,0.66486 -13.74269,0.69971c-5.23234,0.05667 -14.66301,-0.39206 -14.66301,-0.39206c0,0 -1.26985,-0.05378 -1.73786,-0.18481c-0.35481,-0.09934 -1.26532,-0.47808 -1.26532,-0.47808l-0.55702,-0.77377c0,0 1.13623,-0.39785 2.54996,-0.86282c1.43207,-0.47099 3.07782,-0.93393 5.11112,-1.19887c2.8682,-0.37372 4.9532,-0.38385 7.86873,-0.23142c2.87795,0.01907 7.58544,1.03197 7.58544,1.03197c0,0 7.08802,1.71758 8.49676,2.1062c1.55136,0.42797 0.35389,0.28395 0.35389,0.28395z" fill="#4c5e73" stroke-width="0.5"/><path d="M251.6309,167.30303c-1.40875,0.38862 -8.49676,2.1062 -8.49676,2.1062c0,0 -4.70748,1.0129 -7.58544,1.03197c-2.91553,0.15242 -5.00052,0.14231 -7.86873,-0.23142c-2.03331,-0.26494 -3.67906,-0.72787 -5.11112,-1.19887c-1.41373,-0.46496 -2.54996,-0.86282 -2.54996,-0.86282l0.55702,-0.77377c0,0 0.91052,-0.37873 1.26532,-0.47808c0.46801,-0.13105 1.73786,-0.18481 1.73786,-0.18481c0,0 9.43067,-0.44873 14.66301,-0.39206c3.21778,0.03485 13.7427,0.69971 13.7427,0.69971c0,0 1.19748,-0.14401 -0.35389,0.28395z" data-paper-data="{&quot;index&quot;:null}" fill="#4c5e73" stroke-width="0.5"/><path d="M222.26592,173.03611l-0.31302,13.99777c0,0 0.0662,0.60484 -0.54794,0.93139c-1.5849,0.84272 -5.04337,2.00858 -6.12807,2.30707c-1.42524,0.39221 -1.81475,-0.35432 -1.81475,-0.35432c0,0 -1.60286,-2.31748 -1.93518,-10.15123c0.72358,-7.85334 2.05256,-10.26857 2.05256,-10.26857c0,0 0.34153,-0.61991 1.4669,-0.35087c1.14584,0.27392 4.66703,1.689 6.39538,2.73187c0.68468,0.41313 0.82412,1.1569 0.82412,1.1569z" fill="#4c5e73" stroke-width="0.5"/><path d="M208.20847,191.92327c0,0 -1.28197,-1.30402 -2.09283,-2.8176c-0.86746,-1.61922 -1.34718,-3.05559 -1.34718,-3.05559" fill="none" stroke-width="0.5"/><path d="M205.18797,173.12907c0,0 0.47972,-1.43636 1.34718,-3.05558c0.81086,-1.51358 2.09283,-2.8176 2.09283,-2.8176" data-paper-data="{&quot;index&quot;:null}" fill="none" stroke-width="0.5"/><path d="M255.94028,168.62909c0,0 0.37565,-0.66714 0.64849,-0.95184c0.22203,-0.23168 0.86776,-0.63032 0.86776,-0.63032c0,0 0.53082,-0.12403 1.11768,-0.05151c1.70318,0.21046 11.12847,1.06051 11.12847,1.06051c0,0 0.94294,0.3041 1.10196,0.90411c0.5982,2.25706 1.7505,8.01685 1.77502,11.19847c0.02201,2.85561 -1.37999,8.61719 -2.00272,11.12412c-0.23946,0.96401 -0.90266,0.9338 -0.90266,0.9338c0,0 -9.2123,0.63707 -10.91548,0.84753c-0.58686,0.07252 -1.11768,-0.05151 -1.11768,-0.05151c0,0 -0.64573,-0.39864 -0.86776,-0.63032c-0.27284,-0.2847 -0.64849,-0.95184 -0.64849,-0.95184" fill="none" stroke-width="0.25"/><path d="M271.69866,192.58101c0,0 -1.09905,0.57365 -1.63329,0.77399c-0.38477,0.14429 -1.14121,0.32477 -1.48066,0.34541c-0.22262,0.01353 -0.12246,-0.11341 -0.12246,-0.11341c0,0 2.10936,-0.82155 3.03758,-1.95952c0.8848,-1.08474 2.53076,-4.59327 2.53076,-4.59327c0,0 -0.74014,2.40298 -1.08725,3.33688c-0.14806,0.39832 -0.37013,0.98702 -0.62254,1.39303c-0.23814,0.38306 -0.62214,0.81688 -0.62214,0.81688z" fill="#ffffff" stroke-width="0.25"/><path d="M271.85248,167.54252c0,0 0.384,0.43383 0.62214,0.81688c0.2524,0.40601 0.47449,0.99471 0.62254,1.39303c0.34711,0.9339 1.08725,3.33688 1.08725,3.33688c0,0 -1.64596,-3.50853 -2.53076,-4.59327c-0.92822,-1.13798 -3.03758,-1.95952 -3.03758,-1.95952c0,0 -0.10017,-0.12694 0.12246,-0.1134c0.33945,0.02063 1.0959,0.20112 1.48066,0.34541c0.53424,0.20034 1.63329,0.77399 1.63329,0.77399z" data-paper-data="{&quot;index&quot;:null}" fill="#ffffff" stroke-width="0.25"/><path d="M252.19234,192.59553l-0.36917,1.15366c0,0 0.31179,0.67298 0.10338,0.93463c-0.19174,0.24074 -0.56183,1.16566 -1.09871,1.63162c-0.78706,0.68311 -1.63503,1.0947 -1.63503,1.0947l-0.67681,-0.09229c0,0 -0.44288,-0.27359 -0.29811,-0.63297c0.24042,-0.59683 1.09798,-2.47423 1.09798,-2.47423c0,0 0.31203,-0.5323 0.53865,-0.64962c0.26475,-0.13704 0.9072,-0.12267 0.9072,-0.12267l0.23073,-1.15366z" fill="#c51515" stroke-width="0.5"/><path d="M250.47973,167.71527l-0.23073,-1.15366c0,0 -0.64245,0.01437 -0.9072,-0.12267c-0.22663,-0.11732 -0.53865,-0.64962 -0.53865,-0.64962c0,0 -0.85756,-1.8774 -1.09798,-2.47423c-0.14478,-0.35939 0.29811,-0.63297 0.29811,-0.63297l0.67681,-0.09229c0,0 0.84797,0.4116 1.63503,1.0947c0.53687,0.46596 0.90697,1.39088 1.09871,1.63162c0.20839,0.26165 -0.10339,0.93463 -0.10339,0.93463l0.36917,1.15366z" data-paper-data="{&quot;index&quot;:null}" fill="#c51515" stroke-width="0.5"/><path d="M275.8268,176.87134c0,0 -2.8497,-0.94386 -4.0823,-1.38759c-1.32447,-0.47682 -4.32661,-2.40668 -4.32661,-2.40668" fill="none" stroke-width="0.5"/><path d="M267.31535,186.92101c0,0 3.00213,-1.92987 4.32661,-2.40668c1.2326,-0.44373 4.0823,-1.38759 4.0823,-1.38759" data-paper-data="{&quot;index&quot;:null}" fill="none" stroke-width="0.5"/><path d="M261.94265,191.12197c0,0 -3.22627,1.11213 -4.87765,1.39941c-1.29626,0.22551 -4.98091,0.68767 -4.98091,0.68767" fill="none" stroke-width="0.5"/><path d="M251.58068,166.79022c0,0 3.68465,0.46217 4.98091,0.68766c1.65139,0.28728 4.87765,1.39941 4.87765,1.39941" data-paper-data="{&quot;index&quot;:null}" fill="none" stroke-width="0.5"/><path d="M207.65462,168.4919h3.05592c0,0 1.12045,0.26943 1.56907,0.48565c0.62442,0.30095 1.09717,0.74493 1.09717,0.74493" fill="none" stroke-width="0.25"/><path d="M213.22296,189.71928c0,0 -0.47274,0.44398 -1.09717,0.74493c-0.44863,0.21622 -1.56907,0.48565 -1.56907,0.48565h-3.05592" data-paper-data="{&quot;index&quot;:null}" fill="none" stroke-width="0.25"/><path d="M221.81267,192.80462c0,0 -1.88691,0.40397 -3.77799,0.17804c-1.31876,-0.11157 -3.14104,-0.67646 -3.69674,-1.03161c-1.26433,-0.80803 -1.61042,-3.63583 -1.61042,-3.63583" fill="none" stroke-width="0.5"/><path d="M212.96966,171.29657c0,0 0.32683,-2.67036 1.52076,-3.4334c0.52476,-0.33538 2.24558,-0.86881 3.49091,-0.97418c1.78579,-0.21334 3.56764,0.16812 3.56764,0.16812" data-paper-data="{&quot;index&quot;:null}" fill="none" stroke-width="0.5"/><path d="M222.41122,166.85115l0.30765,-1.64077" fill="none" stroke-width="0.25"/><path d="M223.12905,194.84666l-0.51273,-1.84586" fill="none" stroke-width="0.25"/><path d="M227.73421,165.22269l-0.64684,0.02367c0,0 -0.75483,-0.43893 -1.197,-0.40115c-0.66967,-0.03989 -0.57244,-0.0635 -0.98236,-0.03072c-0.53107,0.04247 -1.15738,0.31353 -1.15738,0.31353l-0.74864,-0.11389c0,0 0.62556,-0.33284 1.29003,-0.48527c0.64256,-0.14741 1.31779,-0.11489 1.71482,-0.09739c0.76777,0.03383 1.72737,0.7912 1.72737,0.7912z" fill="#c51616" stroke-width="0.25"/><path d="M240.40351,165.33176l-0.64684,0.02367c0,0 -0.75483,-0.43893 -1.197,-0.40115c-0.66967,-0.03989 -0.57244,-0.0635 -0.98236,-0.03072c-0.53107,0.04247 -1.15737,0.31353 -1.15737,0.31353l-0.74865,-0.11388c0,0 0.62556,-0.33284 1.29003,-0.48527c0.64256,-0.14741 1.31779,-0.11489 1.71482,-0.09739c0.76777,0.03383 1.72737,0.7912 1.72737,0.7912z" fill="#c51616" stroke-width="0.25"/><path d="M227.04513,195.68097c-0.39704,0.0175 -1.07226,0.05003 -1.71482,-0.09739c-0.66447,-0.15243 -1.29003,-0.48527 -1.29003,-0.48527l0.74864,-0.11388c0,0 0.6263,0.27106 1.15738,0.31353c0.40992,0.03279 0.31269,0.00917 0.98236,-0.03072c0.44217,0.0378 1.197,-0.40113 1.197,-0.40113l0.64684,0.02367c0,0 -0.9596,0.75736 -1.72737,0.7912z" data-paper-data="{&quot;index&quot;:null}" fill="#c31616" stroke-width="0.25"/><path d="M239.48371,195.68725c-0.39704,0.0175 -1.07226,0.05003 -1.71482,-0.09739c-0.66447,-0.15243 -1.29003,-0.48527 -1.29003,-0.48527l0.74865,-0.11389c0,0 0.6263,0.27106 1.15737,0.31353c0.40992,0.03279 0.31269,0.00917 0.98236,-0.03072c0.44217,0.0378 1.197,-0.40113 1.197,-0.40113l0.64684,0.02367c0,0 -0.9596,0.75736 -1.72737,0.7912z" data-paper-data="{&quot;index&quot;:null}" fill="#c31616" stroke-width="0.25"/><path d="M235.7232,194.79539l-0.3461,-1.38439" fill="none" stroke-width="0.25"/><path d="M235.031,165.49238l-0.3461,1.0383" fill="none" stroke-width="0.25"/><path d="M205.71646,190.13461c0,0 1.16665,2.10049 1.60716,2.71044c0.3206,0.44392 0.44636,0.57365 0.44636,0.57365c0,0 0.32199,0.29703 0.6758,0.50259c0.3851,0.22375 0.80788,0.36045 0.89415,0.43742c0.16775,0.14968 0.04518,0.22135 0.04518,0.22135l-1.56129,-0.65375c0,0 -0.34003,-0.26603 -0.59653,-0.57986c-0.20911,-0.25586 -0.36247,-0.53058 -0.50945,-0.82453c-0.34825,-0.6965 -1.00138,-2.38731 -1.00138,-2.38731z" fill="#650000" stroke-width="0.25"/><path d="M206.80175,167.28762c0.14697,-0.29395 0.30033,-0.56867 0.50945,-0.82453c0.25651,-0.31384 0.59653,-0.57986 0.59653,-0.57986l1.56129,-0.65375c0,0 0.12257,0.07166 -0.04518,0.22135c-0.08625,0.07696 -0.50905,0.21367 -0.89415,0.43742c-0.35381,0.20556 -0.6758,0.50259 -0.6758,0.50259c0,0 -0.12575,0.12973 -0.44635,0.57365c-0.44052,0.60996 -1.60717,2.71044 -1.60717,2.71044c0,0 0.65313,-1.69079 1.00138,-2.38731z" data-paper-data="{&quot;index&quot;:null}" fill="#670000" stroke-width="0.25"/></g></g></svg>