<svg version="1.1" xmlns="http://www.w3.org/2000/svg" xmlns:xlink="http://www.w3.org/1999/xlink" width="72.64642" height="39.01226" viewBox="0,0,72.64642,39.01226"><g transform="translate(-203.614,-160.49386)"><g data-paper-data="{&quot;isPaintingLayer&quot;:true}" fill-rule="nonzero" stroke-width="0.25" stroke-linecap="round" stroke-linejoin="miter" stroke-miterlimit="10" stroke-dasharray="" stroke-dashoffset="0" style="mix-blend-mode: normal"><path d="M207.10996,194.9848c0,0 -1.34359,-1.13547 -1.78924,-3.00024c-0.44255,-1.85182 -1.14831,-4.40635 -1.4571,-6.85321c-0.24191,-1.91693 -0.14434,-3.76778 -0.12464,-5.16292c0.02824,-1.99909 -0.02112,-4.39765 0.40744,-6.58138c0.35561,-1.81195 1.15617,-3.43734 1.54961,-4.91508c0.33353,-1.25272 1.83923,-3.59227 1.83923,-3.59227c0,0 2.0804,-0.49082 3.65079,-0.69211c2.0146,-0.25823 3.7391,-0.22162 4.99727,0.00659c1.5696,0.28471 3.69454,0.71189 3.69454,0.71189c0,0 12.14475,-0.49236 18.1069,-0.49236c5.81874,0 17.24626,0.49236 17.24626,0.49236c0,0 3.22143,-0.4591 6.19498,-0.83825c2.39615,-0.30553 4.75701,-0.12579 6.21044,0.07159c2.25852,0.3067 4.96105,1.25904 4.96105,1.25904c0,0 2.49875,2.01151 3.00799,4.67645c0.50025,2.00668 0.51522,4.2801 0.52994,5.90898c0.02098,2.32148 0.04145,5.26214 0.02924,8.00206c-0.00709,1.59081 -0.3771,4.09031 -0.83452,5.81824c-0.75203,2.84086 -3.01619,5.11906 -3.01619,5.11906c0,0 -2.63638,0.68338 -4.63604,0.91123c-1.42856,0.15201 -4.43813,0.16394 -6.88009,-0.02737c-3.09242,-0.24226 -5.97438,-0.40906 -5.97438,-0.40906c0,0 -11.20392,0.45293 -16.93767,0.43274c-5.91503,-0.02082 -18.02564,-0.55582 -18.02564,-0.55582c0,0 -2.13646,0.2295 -3.67528,0.47584c-1.21595,0.19465 -2.79212,0.25745 -5.1139,0.0047c-1.86176,-0.20268 -3.961,-0.77071 -3.961,-0.77071z" fill="#56c0e0" stroke="#000000"/><path d="M274.12078,173.04277c0,0 -0.53133,-0.43124 -0.73625,-0.82397c-0.19107,-0.36621 -0.55383,-1.26 -0.55383,-1.26l-1.58779,-4.16795c0,0 0.16053,-0.26717 0.40046,-0.25117c0.25528,0.01702 0.69114,0.05269 0.69114,0.05269c0,0 1.02874,2.01385 1.38299,2.94163c0.33981,0.88999 0.70099,2.5164 0.70099,2.5164z" data-paper-data="{&quot;index&quot;:null}" fill="#455050" stroke="#000000"/><path d="M272.31454,168.58043l-0.46205,-1.16826" fill="none" stroke="#ffffff"/><path d="M272.84225,169.99285l0.42268,1.12626" fill="none" stroke="#ffffff"/><path d="M272.2358,167.15226l0.6117,1.35205" fill="none" stroke="#ffffff"/><path d="M273.87662,171.4604l-0.49881,-1.56731" fill="none" stroke="#ffffff"/><path d="M274.22001,188.35458c0,0 -0.36118,1.62641 -0.70099,2.5164c-0.35424,0.92778 -1.38299,2.94163 -1.38299,2.94163c0,0 -0.43586,0.03568 -0.69114,0.05269c-0.23993,0.016 -0.40046,-0.25117 -0.40046,-0.25117l1.58779,-4.16795c0,0 0.36277,-0.89379 0.55383,-1.26c0.20491,-0.39275 0.73625,-0.82397 0.73625,-0.82397z" data-paper-data="{&quot;index&quot;:null}" fill="#455050" stroke="#000000"/><path d="M271.65403,192.99281l0.46205,-1.16826" data-paper-data="{&quot;index&quot;:null}" fill="none" stroke="#ffffff"/><path d="M272.64378,190.41212l0.42268,-1.12626" data-paper-data="{&quot;index&quot;:null}" fill="none" stroke="#ffffff"/><path d="M272.64902,191.90068l-0.6117,1.35205" data-paper-data="{&quot;index&quot;:null}" fill="none" stroke="#ffffff"/><path d="M273.67815,188.94457l-0.49881,1.56732" data-paper-data="{&quot;index&quot;:null}" fill="none" stroke="#ffffff"/><path d="M274.05138,173.04811c0,0 0.29868,1.46769 0.45239,3.12585c0.12787,1.37928 0.11721,2.87125 0.10358,3.93622c-0.01329,1.03869 -0.0298,2.58553 -0.18473,3.93414c-0.20231,1.761 -0.55319,3.22775 -0.55319,3.22775" fill="none" stroke="#000000"/><path d="M271.13125,192.83675l-11.44314,0.27065c0,0 -0.61229,-0.00232 -0.76798,-0.19216c-0.13816,-0.16846 -0.39113,-0.39424 -0.39113,-0.39424" fill="none" stroke="#000000"/><path d="M258.8261,167.75472c0,0 0.25298,-0.22579 0.39114,-0.39425c0.15568,-0.18984 0.76797,-0.19215 0.76797,-0.19215l11.44314,0.27065" data-paper-data="{&quot;index&quot;:null}" fill="none" stroke="#000000"/><path d="M248.70697,171.03541c0,0 3.88575,-1.0791 5.55127,-1.7246c1.48343,-0.57494 3.95894,-1.96135 3.95894,-1.96135c0,0 0.5236,0.20356 0.87749,0.94144c0.46129,0.96182 0.72496,2.49268 1.01604,4.06091c0.46185,2.48821 0.23167,5.39594 0.20571,7.78471c-0.0231,2.12481 -0.11277,5.32112 -0.63392,8.00143c-0.3491,1.79547 -0.61107,3.09974 -0.95725,3.91108c-0.22309,0.52289 -0.54352,0.82324 -0.54352,0.82324c0,0 -2.1445,-1.38956 -3.75414,-1.91945c-1.59018,-0.52347 -5.65978,-1.82852 -5.65978,-1.82852c0,0 0.45723,-5.67207 0.49577,-8.98467c0.03612,-3.10463 -0.55662,-9.10421 -0.55662,-9.10421z" fill="#203756" stroke="#000000"/><path d="M231.9123,169.361c0,0 -3.71617,-0.08429 -5.45144,-0.38463c-1.70438,-0.295 -4.4439,-0.83456 -4.4439,-0.83456c0,0 -0.10102,-0.202 0.35977,-0.3506c0.99282,-0.3202 3.14793,-0.75399 4.36031,-0.93056c2.04266,-0.37731 5.5155,-0.71776 5.5155,-0.71776c0,0 6.1001,-0.06661 9.65532,-0.10466c4.77986,-0.04563 14.5585,0.64337 14.5585,0.64337c0,0 -0.97504,0.66173 -1.99738,1.08116c-1.42294,0.58377 -5.81399,1.74001 -5.81399,1.74001z" fill="#203756" stroke="#000000"/><path d="M248.63018,190.57239c0,0 4.39105,1.15624 5.81399,1.74001c1.02235,0.41943 1.99738,1.08116 1.99738,1.08116c0,0 -9.77863,0.68899 -14.5585,0.64337c-3.55521,-0.03805 -9.65532,-0.10466 -9.65532,-0.10466c0,0 -3.47283,-0.34045 -5.5155,-0.71776c-1.21239,-0.17656 -3.36749,-0.61036 -4.36031,-0.93056c-0.46079,-0.14861 -0.35977,-0.3506 -0.35977,-0.3506c0,0 2.73952,-0.53957 4.4439,-0.83456c1.73527,-0.30034 5.45144,-0.38463 5.45144,-0.38463z" data-paper-data="{&quot;index&quot;:null}" fill="#203756" stroke="#000000"/><path d="M253.40596,166.52742l-0.24809,-1.48856" fill="none" stroke="#000000"/><path d="M253.36461,193.69353l-0.1654,1.6126" fill="none" stroke="#000000"/><path d="M217.7851,190.34428c0,0 -7.47668,-0.59406 -8.76523,-0.7392c-0.36452,-0.04105 -0.70147,-0.32711 -0.70147,-0.32711c0,0 -0.5404,-2.69036 -0.5263,-4.79729c0.01218,-1.82351 -0.17731,-5.68006 0.00962,-8.85282c0.17519,-2.97348 0.72793,-4.99898 0.72793,-4.99898c0,0 0.28454,-0.29011 0.73907,-0.33254c1.39172,-0.12996 8.64494,-0.54372 8.64494,-0.54372c0,0 -1.07088,6.94388 -1.09223,10.36446c-0.02149,3.44317 0.96369,10.2272 0.96369,10.2272z" fill="#203756" stroke="#000000"/><path d="M217.92875,169.75262c0,0 0.36281,0.00355 0.53925,0.0424c0.17003,0.03743 0.34816,0.41562 0.34816,0.41562c0,0 -0.27144,2.3815 -0.38373,4.77411c-0.1043,2.22228 -0.05032,4.44368 -0.04304,5.03988c0.01033,0.84737 -0.00518,1.84757 0.07919,2.97703c0.24039,3.21802 0.36666,6.48385 0.36666,6.48385c0,0 -0.19894,0.63992 -0.445,0.68466c-0.19847,0.03608 -0.46149,0.17413 -0.46149,0.17413" fill="none" stroke="#000000"/><path d="M205.54479,169.59649l2.441,0.0884c0,0 0.353,0.21145 0.42375,0.29634c0.06686,0.08024 0.19506,0.37094 0.19506,0.37094" fill="none" stroke="#000000"/><path d="M208.33397,189.5341c0,0 -0.1282,0.29072 -0.19505,0.37094c-0.07074,0.0849 -0.42375,0.29634 -0.42375,0.29634l-2.441,0.0884" data-paper-data="{&quot;index&quot;:null}" fill="none" stroke="#000000"/><path d="M250.96389,163.88104l0.30322,1.50234c0,0 -0.47044,0.09265 -0.69266,0.08433c-0.20615,-0.00772 -0.59604,-0.13257 -0.59604,-0.13257c0,0 -0.11164,-0.68062 -0.26604,-0.96931c-0.16221,-0.30326 -0.68497,-0.80869 -0.68497,-0.80869c0,0 0.60576,0.21408 0.96384,0.25827c0.34921,0.04309 0.97266,0.06564 0.97266,0.06564z" fill="#000000" stroke="#000000"/><path d="M248.60727,163.20276l-0.68703,-2.5191c0,0 0.80937,-0.11829 1.22961,-0.06577c0.39208,0.04901 1.13682,0.52378 1.13682,0.52378c0,0 0.5864,0.94403 0.76475,1.33894c0.17789,0.39389 0.30396,1.25648 0.30396,1.25648c0,0 -0.89827,0.19675 -1.36057,0.09273c-0.5426,-0.12209 -1.38753,-0.62708 -1.38753,-0.62708z" fill="#56c0e0" stroke="#000000"/><path d="M250.317,196.23876c-0.35809,0.04418 -0.96384,0.25827 -0.96384,0.25827c0,0 0.52276,-0.50543 0.68497,-0.80869c0.15441,-0.28869 0.26604,-0.96931 0.26604,-0.96931c0,0 0.39282,-0.12497 0.59964,-0.13271c0.22171,-0.0083 0.68906,0.08447 0.68906,0.08447l-0.30322,1.50234c0,0 -0.62345,0.02254 -0.97266,0.06564z" data-paper-data="{&quot;index&quot;:null}" fill="#000000" stroke="#000000"/><path d="M250.26545,196.1692c0.4623,-0.10402 1.36056,0.09273 1.36056,0.09273c0,0 -0.12607,0.86259 -0.30395,1.25648c-0.17835,0.39491 -0.76475,1.33894 -0.76475,1.33894c0,0 -0.74474,0.47477 -1.13682,0.52378c-0.42022,0.05252 -1.22961,-0.06577 -1.22961,-0.06577l0.68703,-2.5191c0,0 0.84493,-0.50499 1.38754,-0.62708z" data-paper-data="{&quot;index&quot;:null}" fill="#56c0e0" stroke="#000000"/><path d="M273.46595,185.73819l-11.99113,1.48856" fill="none" stroke="#000000"/><path d="M273.38325,174.24325l-11.66034,-1.81935" fill="none" stroke="#000000"/><path d="M273.0724,179.95879l0.32647,-0.00507c0,0 0.13509,0.10616 0.12669,0.16738c-0.0084,0.06122 -0.11694,0.14202 -0.11694,0.14202h-0.33134z" fill="#000000" stroke="#252525"/><path d="M225.16109,195.2325l-0.5089,-1.40905c0,0 0.05814,-0.32874 0.15411,-0.45212c0.0787,-0.10119 0.4216,-0.31758 0.4216,-0.31758" fill="none" stroke="#000000"/><path d="M225.31748,166.98443c0,0 -0.3429,-0.21641 -0.4216,-0.31758c-0.09596,-0.12339 -0.15411,-0.45213 -0.15411,-0.45213l0.5089,-1.40903" data-paper-data="{&quot;index&quot;:null}" fill="none" stroke="#000000"/><path d="M226.74787,165.96121l0.39695,-0.44106l1.66498,-0.14335l0.54029,0.24259" fill="none" stroke="#000000"/><path d="M238.36963,164.62702l0.36386,1.30111" fill="none" stroke="#000000"/><path d="M239.90228,165.50912l0.39695,-0.43003h1.20188l0.77183,0.34181" fill="none" stroke="#000000"/><path d="M229.20832,194.45638l-0.54029,0.24259l-1.66498,-0.14335l-0.39695,-0.44106" data-paper-data="{&quot;index&quot;:null}" fill="none" stroke="#000000"/><path d="M238.59173,194.14765l-0.36386,1.30111" data-paper-data="{&quot;index&quot;:null}" fill="none" stroke="#000000"/><path d="M242.13118,194.65487l-0.77183,0.34181h-1.20188l-0.39695,-0.43003" data-paper-data="{&quot;index&quot;:null}" fill="none" stroke="#000000"/><path d="M221.60961,166.6976l-11.76666,1.41767" fill="none" stroke="#000000"/><path d="M222.17668,193.49158l-12.61726,-1.55944" fill="none" stroke="#000000"/></g></g></svg>