<svg version="1.1" xmlns="http://www.w3.org/2000/svg" xmlns:xlink="http://www.w3.org/1999/xlink" width="342.34234" height="30.67762" viewBox="0,0,342.34234,30.67762"><g transform="translate(-68.82883,-164.01875)"><g data-paper-data="{&quot;isPaintingLayer&quot;:true}" fill-rule="nonzero" stroke-linejoin="miter" stroke-miterlimit="10" stroke-dasharray="" stroke-dashoffset="0" style="mix-blend-mode: normal"><path d="M75.22883,194.69637c-3.53462,0 -6.4,-2.6967 -6.4,-6.02325v-17.34624c0,-3.32655 2.86538,-6.02325 6.4,-6.02325h329.54234c3.53462,0 6.4,2.6967 6.4,6.02325v17.34624c0,3.32655 -2.86538,6.02325 -6.4,6.02325z" fill-opacity="0.89412" fill="#ffde00" stroke="none" stroke-width="0" stroke-linecap="butt"/><text transform="translate(74.54044,185.76875) scale(0.5,0.5)" font-size="40" xml:space="preserve" fill-opacity="0.89412" fill="#ffffff" fill-rule="nonzero" stroke="none" stroke-width="1" stroke-linecap="butt" stroke-linejoin="miter" stroke-miterlimit="10" stroke-dasharray="" stroke-dashoffset="0" font-family="Sans Serif" font-weight="normal" text-anchor="start" style="mix-blend-mode: normal"><tspan x="0" dy="0">Day 7</tspan></text><text transform="translate(346.24462,185.76875) scale(0.5,0.5)" font-size="40" xml:space="preserve" fill-opacity="0.89412" fill="#ffffff" fill-rule="nonzero" stroke="none" stroke-width="1" stroke-linecap="butt" stroke-linejoin="miter" stroke-miterlimit="10" stroke-dasharray="" stroke-dashoffset="0" font-family="Sans Serif" font-weight="normal" text-anchor="start" style="mix-blend-mode: normal"><tspan x="0" dy="0">Car</tspan></text><g stroke="#000000" stroke-linecap="round"><path d="M379.03077,184.13961c0,0 -0.0529,1.33748 0.46228,2.70102c0.49927,1.31581 1.50816,2.62732 1.50816,2.62732c0,0 0.698,1.39647 0.87973,1.72204c0.07752,0.13888 0.22179,0.37387 0.45558,0.54179c0.24549,0.17632 0.64813,0.31487 0.64813,0.31487c0,0 1.80599,-0.34633 2.90447,-0.72213c1.14549,-0.39189 3.34911,-1.47347 3.34911,-1.47347l11.81627,-4.13377c0,0 2.16575,-0.34614 2.90056,-0.58428c0.63445,-0.20562 2.4105,-1.10167 2.4105,-1.10167c0,0 0.6926,-0.63257 0.9387,-0.91187c0.21848,-0.36286 0.24407,-0.7708 0.24407,-0.7708l-0.09783,-1.81805c0,0 0.21368,-1.15462 -0.43865,-3.0614c-0.64564,-1.88721 -1.52864,-2.59019 -1.52864,-2.59019l-1.01118,-1.42811c0,0 -0.25255,-0.35639 -0.54403,-0.45273c-0.33906,-0.11207 -1.54216,-0.1767 -1.54216,-0.1767c0,0 -1.68989,0.19841 -2.40608,0.43601c-0.73366,0.24339 -2.74036,1.22341 -2.74036,1.22341l-11.77149,4.06695c0,0 -2.33594,0.47146 -3.51524,0.87491c-1.07053,0.36624 -2.98331,1.34832 -2.98331,1.34832c0,0 -0.23872,0.3194 -0.24194,0.55785c-0.00312,0.23182 -0.04026,0.51621 -0.01537,0.68179c0.05123,0.34087 0.31874,2.12889 0.31874,2.12889z" fill="#246291" stroke-width="0.5"/><path d="M395.7639,184.67408c0,0 0.4755,0.46465 1.13252,0.45823c0.7608,-0.00743 3.24707,-0.26553 3.24707,-0.26553c0,0 0.809,-0.39738 0.79559,-1.5608c-0.01115,-0.96746 -0.5198,-2.75349 -0.76541,-3.45063c-0.23796,-0.67543 -0.99794,-2.57115 -1.55137,-3.36277c-0.71338,-1.02041 -1.51236,-0.76855 -1.51236,-0.76855c0,0 -2.20696,1.50483 -2.75692,1.92963c-0.60666,0.4686 -0.66947,0.9395 -0.66947,0.9395z" fill="#4c5e73" stroke-width="0.5"/><path d="M396.23633,175.72545c0,0 -4.10135,1.11984 -5.33326,1.52644c-2.00319,0.66117 -5.54184,2.06298 -5.54184,2.06298c0,0 -0.47735,0.18622 -0.63876,0.29727c-0.12237,0.08419 -0.42026,0.34747 -0.42026,0.34747l-0.11149,0.36783c0,0 0.48532,0.00348 1.08524,-0.00364c0.60771,-0.00722 1.29586,-0.0454 2.10601,-0.20968c1.1428,-0.23173 1.93942,-0.49995 3.03162,-0.93855c1.09527,-0.38283 2.7587,-1.38348 2.7587,-1.38348c0,0 2.47949,-1.58008 2.96612,-1.91215c0.5359,-0.36568 0.09793,-0.15449 0.09793,-0.15449z" fill="#4c5e73" stroke-width="0.5"/><path d="M399.35338,185.50731c-0.58806,0.0356 -3.51582,0.3054 -3.51582,0.3054c0,0 -1.92778,0.22794 -3.02803,0.59622c-1.13198,0.32232 -1.92595,0.59826 -2.97121,1.11509c-0.741,0.36639 -1.30834,0.75773 -1.79313,1.12426c-0.47857,0.36184 -0.86005,0.66186 -0.86005,0.66186l0.31344,0.22246c0,0 0.39673,0.02565 0.54503,0.01724c0.19562,-0.01108 0.687,-0.15628 0.687,-0.15628c0,0 3.65575,-1.05948 5.64416,-1.76388c1.22283,-0.43319 5.15065,-2.06023 5.15065,-2.06023c0,0 0.47555,-0.10133 -0.17204,-0.06213z" data-paper-data="{&quot;index&quot;:null}" fill="#4c5e73" stroke-width="0.5"/><path d="M387.4044,187.15245l-1.94602,-5.2984c0,0 -0.05368,-0.23935 -0.33055,-0.28376c-0.71451,-0.11462 -2.18583,-0.10802 -2.63853,-0.08033c-0.59482,0.03638 -0.64598,0.37196 -0.64598,0.37196c0,0 -0.30897,1.09313 0.58653,4.12457c1.30081,2.90112 2.1229,3.64896 2.1229,3.64896c0,0 0.21116,0.19188 0.60531,-0.05759c0.40131,-0.25401 1.55977,-1.25326 2.08294,-1.87659c0.20725,-0.24693 0.16339,-0.54882 0.16339,-0.54882z" fill="#4c5e73" stroke-width="0.5"/><path d="M379.57772,181.78262c0,0 -0.31882,0.6647 -0.4306,1.34784c-0.11958,0.73083 -0.11513,1.34131 -0.11513,1.34131" fill="none" stroke-width="0.5"/><path d="M380.87812,189.34556c0,0 0.37042,0.48528 0.9126,0.98971c0.5068,0.47152 1.16596,0.80163 1.16596,0.80163" data-paper-data="{&quot;index&quot;:null}" fill="none" stroke-width="0.5"/><path d="M400.8241,184.43916c0,0 0.23034,0.20545 0.37157,0.27845c0.11492,0.0594 0.41325,0.12719 0.41325,0.12719c0,0 0.21866,-0.02196 0.43305,-0.1262c0.62219,-0.30253 4.10641,-1.85671 4.10641,-1.85671c0,0 0.31999,-0.23904 0.30235,-0.48866c-0.06635,-0.93899 -0.37844,-3.28635 -0.78427,-4.50313c-0.36425,-1.09211 -1.65087,-3.10682 -2.21554,-3.9818c-0.21714,-0.33646 -0.46616,-0.23839 -0.46616,-0.23839c0,0 -3.59704,0.95915 -4.27415,1.10112c-0.23331,0.04892 -0.4196,0.1655 -0.4196,0.1655c0,0 -0.19428,0.23632 -0.24874,0.35367c-0.06692,0.1442 -0.12315,0.44769 -0.12315,0.44769" fill="none" stroke-width="0.25"/><path d="M403.70934,173.24666c0,0 -0.49408,-0.07539 -0.724,-0.08209c-0.16559,-0.00483 -0.47768,0.02504 -0.60985,0.06147c-0.08668,0.02389 -0.03191,0.05924 -0.03191,0.05924c0,0 0.9118,0.03811 1.41435,0.35105c0.47904,0.2983 1.56471,1.42179 1.56471,1.42179c0,0 -0.59589,-0.82 -0.85015,-1.13093c-0.10845,-0.13261 -0.26998,-0.32818 -0.41924,-0.45011c-0.14082,-0.11504 -0.34391,-0.23041 -0.34391,-0.23041z" fill="#ffffff" stroke-width="0.25"/><path d="M407.03538,182.77717c0,0 0.08986,-0.21559 0.13071,-0.39277c0.04329,-0.1878 0.05118,-0.44134 0.05568,-0.61259c0.01054,-0.40152 -0.02073,-1.41468 -0.02073,-1.41468c0,0 -0.16999,1.55306 -0.36593,2.08229c-0.20556,0.55519 -0.90294,1.14382 -0.90294,1.14382c0,0 -0.02164,0.06149 0.06151,0.02728c0.12679,-0.05217 0.39177,-0.21972 0.51971,-0.32496c0.17763,-0.14613 0.52199,-0.50837 0.52199,-0.50837z" data-paper-data="{&quot;index&quot;:null}" fill="#ffffff" stroke-width="0.25"/><path d="M396.26703,175.78657l-0.29136,-0.39187c0,0 0.03111,-0.29739 -0.08253,-0.36999c-0.10455,-0.06681 -0.36642,-0.37131 -0.632,-0.47898c-0.38936,-0.15785 -0.76651,-0.2042 -0.76651,-0.2042l-0.24611,0.12353c0,0 -0.13323,0.16215 -0.03111,0.28034c0.16959,0.19628 0.74168,0.80048 0.74168,0.80048c0,0 0.18848,0.16232 0.29023,0.17749c0.11887,0.01772 0.36205,-0.07159 0.36205,-0.07159l0.23855,0.40994z" fill="#246291" stroke-width="0.5"/><path d="M398.86049,185.50029l0.06254,0.47015c0,0 -0.24693,0.07836 -0.33003,0.16517c-0.07114,0.07432 -0.12069,0.31807 -0.12069,0.31807c0,0 -0.08212,0.82801 -0.09594,1.08704c-0.00833,0.15598 0.19631,0.20253 0.19631,0.20253l0.2702,-0.05311c0,0 0.26973,-0.26765 0.48081,-0.63092c0.14398,-0.24779 0.16445,-0.64888 0.20617,-0.76573c0.04535,-0.127 -0.1614,-0.34301 -0.1614,-0.34301l-0.00973,-0.48822z" data-paper-data="{&quot;index&quot;:null}" fill="#246291" stroke-width="0.5"/><path d="M407.33397,178.70019c0,0 -0.96381,0.73189 -1.37607,1.06199c-0.44298,0.35471 -1.33627,1.48259 -1.33627,1.48259" fill="none" stroke-width="0.5"/><path d="M402.77598,175.97758c0,0 1.39695,0.34436 1.96438,0.3534c0.52806,0.00841 1.73821,-0.00344 1.73821,-0.00344" data-paper-data="{&quot;index&quot;:null}" fill="none" stroke-width="0.5"/><path d="M400.17844,175.07629c0,0 -1.37574,-0.0032 -2.04312,0.10272c-0.52387,0.08314 -1.98964,0.38767 -1.98964,0.38767" fill="none" stroke-width="0.5"/><path d="M399.40115,185.70947c0,0 1.34515,-0.65711 1.81016,-0.91228c0.59241,-0.32507 1.6779,-1.17029 1.6779,-1.17029" data-paper-data="{&quot;index&quot;:null}" fill="none" stroke-width="0.5"/><path d="M382.42411,190.79246l1.16564,-0.39878c0,0 0.39222,-0.24898 0.53513,-0.39c0.19891,-0.19628 0.32129,-0.42732 0.32129,-0.42732" fill="none" stroke-width="0.25"/><path d="M381.77804,181.96894c0,0 -0.23826,-0.10766 -0.51571,-0.14097c-0.19934,-0.02393 -0.66188,0.01951 -0.66188,0.01951l-1.16564,0.39878" data-paper-data="{&quot;index&quot;:null}" fill="none" stroke-width="0.25"/><path d="M384.65184,179.67118c0,0 -0.77245,0.09215 -1.4643,0.4251c-0.48847,0.21465 -1.10983,0.66791 -1.27545,0.87589c-0.37682,0.4732 -0.13982,1.59699 -0.13982,1.59699" fill="none" stroke-width="0.5"/><path d="M384.08547,189.02908c0,0 0.47313,0.97592 1.02811,1.11117c0.24393,0.05945 0.96992,0.03836 1.45868,-0.08395c0.709,-0.15166 1.33889,-0.52968 1.33889,-0.52968" data-paper-data="{&quot;index&quot;:null}" fill="none" stroke-width="0.5"/><path d="M388.59837,190.07836l-0.33145,-0.5857" fill="none" stroke-width="0.25"/><path d="M384.88749,178.72049l0.0453,0.77098" fill="none" stroke-width="0.25"/><path d="M390.5098,189.41919l-0.24982,0.07538c0,0 -0.23064,0.26593 -0.40423,0.30921c-0.25023,0.1026 -0.21007,0.09892 -0.3707,0.13991c-0.20811,0.0531 -0.48238,0.03144 -0.48238,0.03144l-0.2707,0.14114c0,0 0.28205,0.04532 0.55539,0.01676c0.26433,-0.02762 0.51764,-0.12814 0.6668,-0.18662c0.28844,-0.1131 0.55564,-0.5272 0.55564,-0.5272z" fill="#246291" stroke-width="0.25"/><path d="M395.3281,187.72432l-0.24982,0.07538c0,0 -0.23064,0.26593 -0.40423,0.30921c-0.25023,0.1026 -0.21007,0.09892 -0.3707,0.13991c-0.20811,0.0531 -0.48238,0.03144 -0.48238,0.03144l-0.2707,0.14113c0,0 0.28205,0.04532 0.55539,0.01676c0.26433,-0.02762 0.51764,-0.12814 0.6668,-0.18662c0.28844,-0.1131 0.55564,-0.5272 0.55564,-0.5272z" fill="#246291" stroke-width="0.25"/><path d="M386.27235,177.89124c-0.15372,0.04514 -0.41553,0.12084 -0.64139,0.26092c-0.23356,0.14485 -0.42874,0.35344 -0.42874,0.35344l0.30042,-0.05425c0,0 0.20352,-0.18512 0.40055,-0.27062c0.15208,-0.066 0.11807,-0.0443 0.37872,-0.11647c0.16373,-0.07212 0.50892,-0.00319 0.50892,-0.00319l0.24364,-0.09343c0,0 -0.46485,-0.16367 -0.76213,-0.07638z" data-paper-data="{&quot;index&quot;:null}" fill="#246291" stroke-width="0.25"/><path d="M391.01605,176.26568c-0.15372,0.04514 -0.41553,0.12084 -0.64139,0.26092c-0.23356,0.14485 -0.42874,0.35344 -0.42874,0.35344l0.30043,-0.05425c0,0 0.20352,-0.18512 0.40055,-0.27062c0.15208,-0.066 0.11807,-0.0443 0.37872,-0.11648c0.16373,-0.07212 0.50892,-0.00319 0.50892,-0.00319l0.24364,-0.09343c0,0 -0.46485,-0.16367 -0.76213,-0.07638z" data-paper-data="{&quot;index&quot;:null}" fill="#246291" stroke-width="0.25"/><path d="M389.69804,177.09659l0.04864,0.57322" fill="none" stroke-width="0.25"/><path d="M392.99036,188.01326l0.26751,0.35088" fill="none" stroke-width="0.25"/><path d="M378.86059,182.79008c0,0 0.1709,-0.95344 0.25933,-1.24358c0.06436,-0.21116 0.0954,-0.27706 0.0954,-0.27706c0,0 0.08406,-0.15532 0.19219,-0.27989c0.11769,-0.1356 0.26112,-0.24291 0.28397,-0.28352c0.04446,-0.07898 -0.01165,-0.09032 -0.01165,-0.09032l-0.51023,0.4531c0,0 -0.09498,0.14584 -0.15186,0.29903c-0.04637,0.12488 -0.06902,0.24968 -0.08673,0.38098c-0.04195,0.31112 -0.07044,1.04128 -0.07044,1.04128z" fill="#650000" stroke-width="0.25"/><path d="M382.25594,191.36311c0.09442,0.09294 0.18877,0.17772 0.30192,0.24802c0.1388,0.08624 0.3032,0.14334 0.3032,0.14334l0.68084,0.04562c0,0 0.0374,-0.04333 -0.04612,-0.07853c-0.04294,-0.0181 -0.22205,-0.01507 -0.39814,-0.05017c-0.16178,-0.03224 -0.32336,-0.10352 -0.32336,-0.10352c0,0 -0.06489,-0.03307 -0.24511,-0.16057c-0.24763,-0.17517 -0.96673,-0.82413 -0.96673,-0.82413c0,0 0.46976,0.5597 0.69349,0.77993z" data-paper-data="{&quot;index&quot;:null}" fill="#670000" stroke-width="0.25"/></g></g></g></svg>