<svg version="1.1" xmlns="http://www.w3.org/2000/svg" xmlns:xlink="http://www.w3.org/1999/xlink" width="73.46502" height="38.07968" viewBox="0,0,73.46502,38.07968"><defs><linearGradient x1="269.37946" y1="190.40877" x2="274.33753" y2="190.40877" gradientUnits="userSpaceOnUse" id="color-1"><stop offset="0" stop-color="#000000"/><stop offset="1" stop-color="#ffffff"/></linearGradient><linearGradient x1="269.63497" y1="168.30097" x2="274.59304" y2="168.30097" gradientUnits="userSpaceOnUse" id="color-2"><stop offset="0" stop-color="#000000"/><stop offset="1" stop-color="#ffffff"/></linearGradient></defs><g transform="translate(-202.99444,-158.33829)"><g data-paper-data="{&quot;isPaintingLayer&quot;:true}" fill-rule="nonzero" stroke-linejoin="miter" stroke-miterlimit="10" stroke-dasharray="" stroke-dashoffset="0" style="mix-blend-mode: normal"><path d="M252.31566,163.81594c0,0 3.07784,-0.57481 4.73553,-0.67043c1.68791,-0.09738 5.30292,0.09129 5.30292,0.09129c0,0 3.12293,0.29746 4.82561,0.58252c2.09219,0.35026 6.80145,1.36404 6.80145,1.36404c0,0 1.12234,2.18794 1.47379,3.27424c0.28198,0.87158 0.6658,2.74239 0.6658,2.74239l0.08848,16.01485l-2.12352,6.45903c0,0 -5.49842,1.41657 -7.71925,1.77587c-1.42702,0.23087 -4.31228,0.17068 -4.31228,0.17068c0,0 -1.706,-0.13193 -3.31331,-0.29142c-0.98593,-0.09783 -1.85194,-0.20604 -2.50824,-0.30055c-1.32832,-0.19129 -3.65844,-0.77314 -3.65844,-0.77314l-21.28257,-0.36024c0,0 -3.66836,0.60336 -5.98675,0.97135c-3.05173,0.4844 -10.86866,1.0953 -10.86866,1.0953c0,0 -3.83625,-0.26579 -5.87234,-0.59302c-2.71867,-0.43693 -4.65044,-1.47362 -4.65044,-1.47362c0,0 -0.70746,-3.48787 -0.66738,-6.23332c0.04677,-3.20258 -0.17312,-11.0495 0.12949,-16.82593c0.20247,-3.86477 0.97395,-6.80269 0.97395,-6.80269c0,0 3.68062,-1.09296 5.21178,-1.43071c1.47505,-0.32538 4.87491,-0.69281 4.87491,-0.69281c0,0 7.81985,0.4067 10.75341,0.91091c2.71166,0.46607 6.23472,1.34532 6.23472,1.34532z" fill="#ff0000" stroke="#000000" stroke-width="0.5" stroke-linecap="round"/><path d="M269.84548,187.7832l4.49205,-0.24502c0,0 -0.44516,1.92024 -0.71333,2.82356c-0.24742,0.83342 -0.83846,2.40356 -0.83846,2.40356l-3.40628,0.51406z" fill="url(#color-1)" stroke="#000000" stroke-width="0.5" stroke-linecap="round"/><path d="M264.47561,188.22249l4.3095,-0.38645l-0.4372,5.60351l-3.9972,0.57966z" fill="none" stroke="#000000" stroke-width="0.5" stroke-linecap="round"/><path d="M269.63497,165.43037l3.40628,0.51406c0,0 0.59105,1.57012 0.83846,2.40356c0.26817,0.90331 0.71334,2.82356 0.71334,2.82356l-4.49205,-0.24502z" data-paper-data="{&quot;index&quot;:null}" fill="url(#color-2)" stroke="#000000" stroke-width="0.5" stroke-linecap="round"/><path d="M264.6062,164.69051l3.99721,0.57966l0.43719,5.60351l-4.30949,-0.38645z" data-paper-data="{&quot;index&quot;:null}" fill="none" stroke="#000000" stroke-width="0.5" stroke-linecap="round"/><path d="M273.56902,179.63249v-0.59645h1.32719v0.59645z" fill="#ffd200" stroke="none" stroke-width="0" stroke-linecap="butt"/><path d="M263.79705,175.49878l-0.61016,-0.02069v-0.96524h0.61016l0.98591,0.53088z" fill="none" stroke="#000000" stroke-width="0.25" stroke-linecap="round"/><path d="M269.92285,169.9211v-11.58281" fill="none" stroke="none" stroke-width="0" stroke-linecap="round"/><path d="M243.2447,171.39386l-0.35098,5.91612" fill="none" stroke="none" stroke-width="0" stroke-linecap="round"/><path d="M252.10728,165.39522c0,0 0.18811,-0.06528 0.06629,0.00344c-0.79575,0.44889 -9.2682,5.18737 -9.2682,5.18737c0,0 -1.06707,0.46558 -1.76843,0.45938c-2.0357,-0.018 -9.55698,0.01252 -9.55698,0.01252l-8.96596,-3.5392l8.49406,-1.06176z" fill="#617298" stroke="#000000" stroke-width="0.5" stroke-linecap="round"/><path d="M251.63318,192.78183c0,0 0.08369,0.14586 -0.15442,0.13771c-1.67805,-0.05748 -20.7279,-0.98037 -20.7279,-0.98037l-7.65031,-1.53366l8.48055,-2.59541c0,0 7.2529,0.08487 9.43519,0.10361c0.81275,0.00697 2.15091,0.25031 2.15091,0.25031l8.466,4.61781z" fill="#617298" stroke="#000000" stroke-width="0.5" stroke-linecap="round"/><path d="M228.05921,186.54155l-10.5448,3.05501c0,0 -3.54885,-1.85719 -5.63618,-4.77981c-1.27309,-1.78254 -1.50008,-4.50813 -1.50731,-5.86099c-0.00763,-1.4289 0.21238,-4.50792 1.57183,-6.40689c2.02242,-2.82505 5.45737,-4.32935 5.45737,-4.32935l10.78169,4.05061z" fill="#617298" stroke="#000000" stroke-width="0.5" stroke-linecap="round"/><path d="M265.38969,175.04373h-0.68256" fill="none" stroke="#000000" stroke-width="0.25" stroke-linecap="round"/><path d="M263.84128,183.9486l-0.61017,-0.02069v-0.96524h0.61017l0.98591,0.53088z" fill="none" stroke="#000000" stroke-width="0.25" stroke-linecap="round"/><path d="M265.43393,183.49356h-0.68256" fill="none" stroke="#000000" stroke-width="0.25" stroke-linecap="round"/><path d="M274.57709,171.96733l-16.21593,-1.2548" fill="none" stroke="#000000" stroke-width="0.25" stroke-linecap="round"/><path d="M274.09447,186.73542l-16.21593,1.2548" data-paper-data="{&quot;index&quot;:null}" fill="none" stroke="#000000" stroke-width="0.25" stroke-linecap="round"/><path d="M210.74382,170.76756v-4.12905" fill="none" stroke="#000000" stroke-width="0.5" stroke-linecap="round"/><path d="M211.80716,194.77051l-2.71337,-1.93079c0,0 -0.23944,-0.65351 -0.2453,-1.5695c-0.03305,-5.17211 0.09473,-22.43951 0.11713,-25.09763c0.0056,-0.66464 0.36411,-1.32941 0.36411,-1.32941l2.47743,-1.68945" fill="none" stroke="#000000" stroke-width="0.5" stroke-linecap="round"/><path d="M231.27114,164.27904v1.88758" fill="none" stroke="#000000" stroke-width="0.5" stroke-linecap="round"/><path d="M230.91722,192.12071v1.76959" fill="none" stroke="#000000" stroke-width="0.5" stroke-linecap="round"/><path d="M249.23774,166.71484l-0.6636,-1.83205l-0.82755,-0.39035l-0.4424,-2.212c0,0 0.02883,-0.12011 0.19648,-0.01951c0.31856,0.19113 1.57312,1.08128 1.57312,1.08128l0.79632,3.00832" fill="#ff0000" stroke="#000000" stroke-width="0.5" stroke-linecap="round"/><path d="M250.10606,192.07837l-0.79632,3.00831c0,0 -1.25456,0.89015 -1.57312,1.08128c-0.16765,0.10059 -0.19648,-0.01951 -0.19648,-0.01951l0.4424,-2.21199l0.82755,-0.39035l0.6636,-1.83205" data-paper-data="{&quot;index&quot;:null}" fill="#ff0000" stroke="#000000" stroke-width="0.5" stroke-linecap="round"/><path d="M220.92784,192.85803l-1.88756,0.26371l-3.30325,1.034h-2.24149v-3.18528h2.12352l3.5392,0.86745l1.76959,0.19431" data-paper-data="{&quot;index&quot;:null}" fill="none" stroke="#000000" stroke-width="0.5" stroke-linecap="round"/><path d="M210.50787,187.75569v4.24704" fill="none" stroke="#000000" stroke-width="0.5" stroke-linecap="round"/><path d="M251.91642,192.8791l-0.30336,-0.15169" fill="none" stroke="#000000" stroke-width="0.5" stroke-linecap="round"/><path d="M220.8895,165.67113l-1.76959,0.19431l-3.5392,0.86745h-2.12352v-3.18528h2.24149l3.30325,1.034l1.88756,0.2637" fill="none" stroke="#000000" stroke-width="0.5" stroke-linecap="round"/><path d="M253.92796,165.67884c0,0 1.49084,1.84489 1.89279,2.66556c0.44338,0.90523 0.65543,2.53706 0.65543,2.53706v16.88195c0,0 -0.49484,1.95506 -0.99355,2.66988c-0.55666,0.79789 -2.19172,1.89568 -2.19172,1.89568l-8.81259,-4.67174l-0.21235,-16.45725z" fill="#617298" stroke="#000000" stroke-width="0.5" stroke-linecap="round"/><path d="M226.73438,165.10727c0,0.69635 -0.80218,1.26084 -1.79172,1.26084c-0.98954,0 -1.79172,-0.5645 -1.79172,-1.26084c0,-0.69635 0.80218,-1.26084 1.79172,-1.26084c0.98954,0 1.79172,0.5645 1.79172,1.26084z" fill="#ff0000" stroke="#000000" stroke-width="0.25" stroke-linecap="butt"/><path d="M227.44223,192.83685c0,0.69635 -0.80218,1.26084 -1.79172,1.26084c-0.98954,0 -1.79172,-0.5645 -1.79172,-1.26084c0,-0.69635 0.80218,-1.26084 1.79172,-1.26084c0.98954,0 1.79172,0.5645 1.79172,1.26084z" fill="#ff0000" stroke="#000000" stroke-width="0.25" stroke-linecap="butt"/><path d="M231.70253,192.86679l1.06176,0.08167" fill="none" stroke="#000000" stroke-width="0.25" stroke-linecap="round"/><path d="M233.33601,165.17942h-0.81674" fill="none" stroke="#000000" stroke-width="0.25" stroke-linecap="round"/></g></g></svg>