<svg version="1.1" xmlns="http://www.w3.org/2000/svg" xmlns:xlink="http://www.w3.org/1999/xlink" width="160.69945" height="95.48052" viewBox="0,0,160.69945,95.48052"><g transform="translate(-159.65033,-132.25975)"><g data-paper-data="{&quot;isPaintingLayer&quot;:true}" fill-rule="nonzero" stroke-linejoin="miter" stroke-miterlimit="10" stroke-dasharray="" stroke-dashoffset="0" style="mix-blend-mode: normal"><path d="M159.65033,227.74027v-95.48052h160.69945v95.48052z" fill="#59ad0d" stroke="none" stroke-width="0" stroke-linecap="butt"/><g><path d="M196.81929,170.37618c0,0 0.82068,-2.24098 1.23558,-3.04669c0.42108,-0.81772 1.91994,-1.82413 1.91994,-1.82413c0,0 3.82413,-1.36827 5.81315,-1.87332c1.81967,-0.46204 5.65818,-1.03946 5.65818,-1.03946c0,0 2.968,0.2987 4.28009,0.58574c1.27575,0.2791 3.48652,1.11337 3.48652,1.11337c0,0 34.73223,0.31628 39.45118,0.30822c0.63561,-0.00109 2.46341,-0.52582 3.20635,-0.82581c1.2284,-0.49601 2.17925,-0.59676 4.01084,-0.89144c1.80139,-0.28982 5.59499,0.66765 5.59499,0.66765l8.40041,3.15151l3.73575,6.86122c0,0 0.51783,4.60662 0.51783,6.86122c0,2.27618 -0.51783,6.73176 -0.51783,6.73176l-4.1754,7.48076l-8.11225,3.75768c0,0 -3.48645,0.75884 -5.43889,0.44582c-1.8452,-0.29582 -3.90851,-1.0612 -3.90851,-1.0612c0,0 -2.15401,-0.63756 -2.9027,-0.63773c-4.19454,-0.00092 -40.09034,0.27866 -40.09034,0.27866c0,0 -2.53268,0.90001 -3.67761,1.12455c-1.08256,0.21231 -3.87839,0.33189 -3.87839,0.33189c0,0 -3.85351,-0.35628 -5.66421,-0.92536c-1.95418,-0.61417 -5.80713,-1.91551 -5.80713,-1.91551c0,0 -1.2861,-0.95652 -1.79223,-1.81056c-0.49636,-0.83757 -1.21585,-3.26524 -1.21585,-3.26524l-1.06443,-1.63978l-0.01438,-17.39039z" fill="#f3df00" stroke="#000000" stroke-width="0.5" stroke-linecap="round"/><path d="M221.2402,186.99833l-3.02102,5.75448l-15.58877,-1.70812l-0.86304,-1.72609l-1.83398,-1.40246l-0.10788,-14.56391l1.61821,-1.40245l0.75516,-1.51034l15.82252,-1.69013l3.21877,5.44855z" fill="#191919" stroke="#000000" stroke-width="0.5" stroke-linecap="round"/><path d="M223.49096,168.56388l-0.68427,-0.77058c0,0 20.93964,-1.55761 27.67786,-1.77357c6.72528,-0.21556 12.9439,0.09371 12.9439,0.09371l-12.32384,2.78563c0,0 -5.55213,0.74031 -8.476,0.89173c-3.28366,0.17005 -10.27214,0.0792 -10.27214,0.0792z" fill="#3a4758" stroke="#000000" stroke-width="0.5" stroke-linecap="round"/><path d="M232.5855,191.72954c0,0 6.98848,-0.09085 10.27214,0.0792c2.92388,0.15141 8.476,0.89173 8.476,0.89173l12.32385,2.78563c0,0 -6.21862,0.30927 -12.9439,0.09371c-6.73821,-0.21596 -27.78573,-1.674 -27.78573,-1.674l0.79216,-0.87016z" data-paper-data="{&quot;index&quot;:null}" fill="#3a4758" stroke="#000000" stroke-width="0.5" stroke-linecap="round"/><path d="M266.5763,166.59556c0,0 4.47699,0.94197 9.81461,2.94995c5.31641,3.03112 6.28121,3.91127 6.28121,3.91127" fill="none" stroke="#000000" stroke-width="0.25" stroke-linecap="round"/><path d="M282.45636,187.49746c0,0 -1.28845,1.36562 -6.60486,4.39674c-5.33763,2.00798 -9.81461,2.94995 -9.81461,2.94995" data-paper-data="{&quot;index&quot;:null}" fill="none" stroke="#000000" stroke-width="0.25" stroke-linecap="round"/><path d="M277.17174,166.49538l2.17303,0.81681l2.37339,3.9916l-0.07707,0.67811c0,0 -1.38131,-1.54766 -2.03557,-2.41669c-0.68979,-0.91622 -2.43378,-3.06983 -2.43378,-3.06983z" fill="#808080" stroke="#000000" stroke-width="0.25" stroke-linecap="round"/><path d="M279.1663,191.74042c0.65428,-0.86903 2.03557,-2.41669 2.03557,-2.41669l0.07707,0.67811l-2.37337,3.99159l-2.17303,0.81681c0,0 1.74399,-2.15361 2.43378,-3.06983z" data-paper-data="{&quot;index&quot;:null}" fill="#808080" stroke="#000000" stroke-width="0.25" stroke-linecap="round"/><path d="M221.2641,174.22298l-2.55565,-4.50099l33.50683,6.59247l-30.97088,-1.11346z" fill="none" stroke="#000000" stroke-width="0.25" stroke-linecap="round"/><path d="M270.6777,187.79607l7.12014,0.80911" fill="none" stroke="#000000" stroke-width="0.25" stroke-linecap="round"/><path d="M270.6777,172.66578l7.12014,-0.80911" data-paper-data="{&quot;index&quot;:null}" fill="none" stroke="#000000" stroke-width="0.25" stroke-linecap="round"/><path d="M282.32655,180.69842c0,0 -0.17772,0.24673 -0.33607,0.29763c-0.20872,0.0671 -0.5624,0.02909 -0.5624,0.02909c0,0 -0.02913,-0.25178 -0.02275,-0.36656c0.00715,-0.12867 0.02275,-0.32771 0.02275,-0.32771c0,0 0.39909,0.00426 0.59898,0.1079c0.15739,0.08161 0.29947,0.25965 0.29947,0.25965z" fill="#000000" stroke="#8a7100" stroke-width="0.25" stroke-linecap="round"/><path d="M223.48488,168.52403l-2.69703,-2.91278l3.45219,-0.32364" fill="none" stroke="#000000" stroke-width="0.5" stroke-linecap="round"/><path d="M224.46714,196.23959l-3.45219,-0.32364l2.69703,-2.91278" data-paper-data="{&quot;index&quot;:null}" fill="none" stroke="#000000" stroke-width="0.5" stroke-linecap="round"/><path d="M203.67224,187.42378v-13.02185l17.5421,0.65358l-0.15211,10.6748z" fill="#3a4758" stroke="#000000" stroke-width="0.5" stroke-linecap="butt"/><path d="M203.54768,174.27076l-1.89205,-1.99164" fill="none" stroke="#000000" stroke-width="0.5" stroke-linecap="round"/><path d="M203.54766,187.41563l-1.49373,1.49373" fill="none" stroke="#000000" stroke-width="0.5" stroke-linecap="round"/><path d="M218.07035,173.89608l-2.5031,-4.04347" fill="none" stroke="#000000" stroke-width="0.5" stroke-linecap="round"/><path d="M215.164,174.03496l-2.41677,-3.90405" fill="none" stroke="#000000" stroke-width="0.5" stroke-linecap="round"/><path d="M210.08366,170.52969l1.98515,3.20681" fill="none" stroke="#000000" stroke-width="0.5" stroke-linecap="round"/><path d="M207.28271,170.70771l1.8125,2.92792" fill="none" stroke="#000000" stroke-width="0.5" stroke-linecap="round"/><path d="M205.83716,173.26l-1.29456,-2.09124" fill="none" stroke="#000000" stroke-width="0.5" stroke-linecap="round"/><path d="M218.14437,187.16023l-2.67573,4.32236" data-paper-data="{&quot;index&quot;:null}" fill="none" stroke="#000000" stroke-width="0.5" stroke-linecap="round"/><path d="M214.97907,187.41976l-2.50309,4.04349" data-paper-data="{&quot;index&quot;:null}" fill="none" stroke="#000000" stroke-width="0.5" stroke-linecap="round"/><path d="M211.9702,187.6651l-2.15779,3.48569" data-paper-data="{&quot;index&quot;:null}" fill="none" stroke="#000000" stroke-width="0.5" stroke-linecap="round"/><path d="M209.08291,187.78588l-1.8125,2.92792" data-paper-data="{&quot;index&quot;:null}" fill="none" stroke="#000000" stroke-width="0.25" stroke-linecap="round"/><path d="M204.35766,190.33907l1.29456,-2.09124" data-paper-data="{&quot;index&quot;:null}" fill="none" stroke="#000000" stroke-width="0.5" stroke-linecap="round"/><path d="M253.9112,164.27773l0.83563,-1.28131l-0.76513,-0.12695l-0.81777,-3.0666c0,0 1.2322,0.06072 1.71444,0.53533c0.59917,0.58969 1.47019,2.52872 1.47019,2.52872l-0.48359,0.22535l-0.75884,1.2026z" fill="#f3df00" stroke="#000000" stroke-width="0.25" stroke-linecap="round"/><path d="M254.55679,197.14562l0.75884,1.2026l0.4836,0.22536c0,0 -0.87103,1.93903 -1.47019,2.52872c-0.48224,0.47462 -1.71444,0.53533 -1.71444,0.53533l0.81777,-3.06662l0.76513,-0.12693l-0.83563,-1.28131z" data-paper-data="{&quot;index&quot;:null}" fill="#f3df00" stroke="#000000" stroke-width="0.25" stroke-linecap="round"/><path d="M277.77518,193.90815l0.34425,-0.10592l0.662,-0.58257l0.34425,-0.07945" fill="none" stroke="#ffffff" stroke-width="0.125" stroke-linecap="round"/><path d="M278.60321,192.88754l0.70504,-0.12173" fill="none" stroke="#ffffff" stroke-width="0.125" stroke-linecap="round"/><path d="M279.97764,191.71282l-0.54508,0.07505" fill="none" stroke="#ffffff" stroke-width="0.125" stroke-linecap="round"/><path d="M279.85848,191.24936l0.31335,0.06989" fill="none" stroke="#ffffff" stroke-width="0.125" stroke-linecap="round"/><path d="M279.57979,169.55356c-0.68979,-0.91622 -2.43378,-3.06983 -2.43378,-3.06983l2.17303,0.81681l2.37337,3.99159l-0.07707,0.67811c0,0 -1.38129,-1.54766 -2.03557,-2.41669z" data-paper-data="{&quot;index&quot;:null}" fill="#808080" stroke="#000000" stroke-width="0.25" stroke-linecap="round"/><path d="M279.53917,168.15375l-0.34425,-0.07943l-0.662,-0.58257l-0.34425,-0.10592" data-paper-data="{&quot;index&quot;:null}" fill="none" stroke="#ffffff" stroke-width="0.125" stroke-linecap="round"/><path d="M279.0167,168.40643l0.70505,0.12173" data-paper-data="{&quot;index&quot;:null}" fill="none" stroke="#ffffff" stroke-width="0.125" stroke-linecap="round"/><path d="M279.84605,169.5061l0.54508,0.07505" data-paper-data="{&quot;index&quot;:null}" fill="none" stroke="#ffffff" stroke-width="0.125" stroke-linecap="round"/><path d="M280.58533,169.97471l-0.31335,0.06989" data-paper-data="{&quot;index&quot;:null}" fill="none" stroke="#ffffff" stroke-width="0.125" stroke-linecap="round"/><path d="M221.38597,185.65406l30.97088,-1.11346l-33.208,6.69207l2.15722,-4.10256z" data-paper-data="{&quot;index&quot;:null}" fill="none" stroke="#000000" stroke-width="0.25" stroke-linecap="round"/><path d="M228.21331,164.41101l-1.58282,2.87786" fill="none" stroke="#000000" stroke-width="0.25" stroke-linecap="round"/><path d="M229.31261,197.22512l-1.58282,-2.87786" data-paper-data="{&quot;index&quot;:null}" fill="none" stroke="#000000" stroke-width="0.25" stroke-linecap="round"/><path d="M258.10759,196.83284l-0.69059,-1.03588" fill="none" stroke="#000000" stroke-width="0.25" stroke-linecap="round"/><path d="M257.21967,165.62485l0.65652,-1.03589" data-paper-data="{&quot;index&quot;:null}" fill="none" stroke="#000000" stroke-width="0.25" stroke-linecap="round"/><path d="M253.11825,169.81749l13.28545,-3.03667l2.78362,6.19988c0,0 0.48665,5.42473 0.48665,7.96641c0,2.33282 -0.48665,6.71086 -0.48665,6.71086l-3.1632,7.08558l-12.93506,-2.93935c0,0 0.49622,-7.21573 0.50106,-10.8572c0.00489,-3.68686 -0.47187,-11.1295 -0.47187,-11.1295z" fill="#3a485a" stroke="#000000" stroke-width="0.5" stroke-linecap="round"/><path d="M229.47764,158.22911" fill="none" stroke="#000000" stroke-width="0.25" stroke-linecap="round"/><path d="M196.9862,170.23682l4.23802,1.17723" fill="none" stroke="#000000" stroke-width="0.25" stroke-linecap="round"/><path d="M197.33937,190.83827l4.35574,-1.0595" fill="none" stroke="#000000" stroke-width="0.25" stroke-linecap="round"/></g></g></g></svg>