<svg version="1.1" xmlns="http://www.w3.org/2000/svg" xmlns:xlink="http://www.w3.org/1999/xlink" width="36.45535" height="39.47396" viewBox="0,0,36.45535,39.47396"><g transform="translate(-221.77233,-160.26302)"><g data-paper-data="{&quot;isPaintingLayer&quot;:true}" stroke="none" stroke-width="1" stroke-linecap="butt" stroke-linejoin="miter" stroke-miterlimit="10" stroke-dasharray="" stroke-dashoffset="0" style="mix-blend-mode: normal"><path d="M222.80654,166.28142h5.34719c0,-0.8564 0.00642,-1.74065 0.01927,-2.65272v-3.36568h23.48587v3.36889c0,0.93776 0,1.81772 0,2.65272h5.53667c0.52678,0.00109 0.96028,0.41482 0.98594,0.94098c0.09074,1.48886 0.04775,2.98284 -0.12846,4.46402c-0.1517,1.39673 -0.57152,2.75107 -1.23644,3.98871c-0.65686,1.17324 -1.63811,2.13219 -2.82614,2.76191c-1.38615,0.69723 -2.91254,1.07058 -4.46402,1.09192c-1.05017,1.74386 -2.45039,2.56922 -4.08827,4.069c-1.98151,1.51263 -3.47166,2.65272 -2.3123,6.14365h1.73101c1.38555,0.00353 2.50788,1.12586 2.51141,2.51141v1.01163h0.24729c0.65534,-0.00296 1.28499,0.25467 1.75028,0.71617v0c0.46563,0.46332 0.72692,1.09341 0.7258,1.75028v1.67963c0,0.31394 -0.2545,0.56844 -0.56844,0.56844h-19.21134c-0.31394,0 -0.56844,-0.2545 -0.56844,-0.56844v-1.67963c-0.00147,-0.65694 0.25987,-1.28717 0.7258,-1.75028v0c0.46233,-0.46514 1.09125,-0.72642 1.74707,-0.7258h0.24729v-1.002c0,-0.66483 0.26598,-1.30203 0.73865,-1.76955v0c0.46926,-0.46969 1.10561,-0.73416 1.76955,-0.73544h1.94618c1.03411,-3.29502 -0.32115,-4.36125 -2.19347,-5.83534c-1.6866,-1.14683 -3.108,-2.64159 -4.16856,-4.38373c-1.60088,-0.00514 -3.17824,-0.38572 -4.60533,-1.11119c-1.18302,-0.62871 -2.15727,-1.58845 -2.80366,-2.76191c-0.65199,-1.23402 -1.06187,-2.58139 -1.20753,-3.96944c-0.16915,-1.45806 -0.20999,-2.92816 -0.12204,-4.39336v-0.02569c0,-0.2629 0.10465,-0.51498 0.29085,-0.70057c0.1862,-0.18559 0.43862,-0.28943 0.70151,-0.28858zM251.54968,169.89759c-0.07019,1.9402 -0.28489,3.87246 -0.6423,5.78074c0.56717,-0.10668 1.11087,-0.31329 1.60576,-0.61019c0.49657,-0.30674 0.90493,-0.73723 1.18505,-1.24928c0.31833,-0.60085 0.52815,-1.25315 0.61982,-1.92691c0.09975,-0.66456 0.1534,-1.33523 0.16058,-2.0072h-2.92891zM228.23723,169.89759h-2.60776c0.0057,0.67359 0.05397,1.34613 0.14452,2.01363c0.0812,0.67061 0.27672,1.32235 0.57807,1.92691c0.26548,0.50928 0.66105,0.93919 1.14651,1.24607c0.46668,0.2851 0.97972,0.48619 1.51584,0.59413c-0.44909,-1.89657 -0.70943,-3.83291 -0.77719,-5.78074z" fill="#f39d00" fill-rule="nonzero"/><path d="M228.22438,168.90523h-3.18262c-0.21816,0 -0.39502,0.17686 -0.39502,0.39502c0,1.98472 0.15415,3.69004 0.85427,5.00034c0.70011,1.3103 1.92049,2.18062 4.02725,2.46324c0.30213,0.63149 0.67723,1.22538 1.11761,1.76955c-3.50698,-0.09956 -5.52061,-1.39701 -6.62216,-3.35925c-1.17542,-2.06501 -1.3649,-4.92327 -1.21717,-7.90356h5.41784zM251.59464,167.27378h5.59769c0.14452,2.98029 -0.0546,5.82892 -1.23323,7.90677c-1.11761,1.96545 -3.13766,3.26291 -6.67034,3.35604c0.47094,-0.53648 0.86937,-1.1325 1.18505,-1.77276c2.10034,-0.28583 3.34641,-1.14973 4.07864,-2.4536c0.73223,-1.30388 0.91207,-3.01883 0.91207,-5.00998c-0.00176,-0.21691 -0.1781,-0.39181 -0.39502,-0.39181h-3.47487z" fill="#f9c809" fill-rule="nonzero"/><path d="M247.41532,193.2443h0.24885c0.65994,-0.00212 1.29362,0.25833 1.76133,0.72392v0c0.46857,0.46624 0.73151,1.10032 0.73039,1.76133v3.4354c0,0.31592 -0.25611,0.57203 -0.57203,0.57203h-19.33262c-0.31592,0 -0.57203,-0.25611 -0.57203,-0.57203v-3.42571c-0.00408,-0.66444 0.25912,-1.30263 0.73039,-1.77103v0c0.46525,-0.46808 1.09814,-0.731 1.7581,-0.73039h15.24763z" fill="#222222" fill-rule="nonzero"/><path d="M246.59751,194.94427c0.36169,0.00382 0.70751,0.14906 0.96346,0.40465c0.25705,0.25496 0.40256,0.60141 0.40465,0.96346v1.69568h-16.08331v-1.69568c0.00124,-0.36159 0.14557,-0.70797 0.40144,-0.96346v0c0.25468,-0.25707 0.60159,-0.40162 0.96346,-0.40144h11.21464z" fill="#ead79e" fill-rule="nonzero"/><path d="M235.29616,183.22221c-0.75751,-0.57173 -1.47732,-1.19177 -2.15493,-1.85626c-1.16633,-1.1744 -2.08289,-2.57273 -2.69447,-4.11075c-0.74507,-1.85305 -1.28461,-4.27454 -1.43555,-7.54708v-8.59725h1.48694c1.6989,12.0657 2.3701,20.77535 9.49005,23.30603v5.7133h-1.92691c1.11761,-3.85383 -0.51384,-5.13844 -2.76512,-6.90799z" fill="#f8b705" fill-rule="nonzero"/><path d="M240.00104,190.13019v-5.71972h-0.02248v-0.04817c-0.2412,-0.0647 -0.47822,-0.14406 -0.70975,-0.23765c-0.62057,-0.275 -1.20957,-0.61634 -1.7567,-1.01805c-1.21303,-0.99411 -2.2293,-2.20646 -2.99635,-3.57443c-2.25128,-4.236 -2.91928,-10.62372 -4.01762,-18.4213h20.34179v8.81884c0,8.42383 -3.35604,10.98662 -5.94132,12.9585c-2.35084,1.7824 -4.13644,3.16014 -2.89037,7.24199h-2.02005z" fill="#fac809" fill-rule="nonzero"/><path d="M240.48598,166.72782l0.89923,2.20632l2.37332,0.17985c0.25287,0.01947 0.46732,0.19331 0.53869,0.43668c0.07137,0.24337 -0.01524,0.5055 -0.21754,0.65845l-1.79524,1.52226l0.56523,2.30587c0.03762,0.15758 0.01103,0.32366 -0.07392,0.46161c-0.08494,0.13796 -0.22126,0.23647 -0.37891,0.27382c-0.16416,0.04039 -0.33774,0.0101 -0.47852,-0.0835l-1.99757,-1.25892l-2.02005,1.24928c-0.1379,0.0855 -0.30417,0.11256 -0.46206,0.0752c-0.15789,-0.03736 -0.2944,-0.13608 -0.37935,-0.27431c-0.0869,-0.13754 -0.1136,-0.3047 -0.07387,-0.46246l0.56202,-2.30587l-1.81772,-1.54153c-0.18716,-0.16139 -0.25919,-0.41933 -0.18273,-0.65433c0.07646,-0.23501 0.28649,-0.40117 0.53278,-0.42153l2.37332,-0.16058l0.90244,-2.19668c0.09584,-0.22732 0.31853,-0.37512 0.56523,-0.37512c0.2467,0 0.4694,0.14779 0.56523,0.37512z" fill="#f39d00" fill-rule="nonzero"/><path d="M239.92075,166.96226l1.04375,2.54353l2.74906,0.20875l-2.10355,1.7824l0.65194,2.67199l-2.3412,-1.4484l-2.3412,1.4484l0.65194,-2.67199l-2.10355,-1.7824l2.74585,-0.20875l1.04696,-2.54353z" fill="#ffffff" fill-rule="nonzero"/><path d="M246.38234,175.5563l-0.02248,0.03212c-0.53574,-0.3692 -1.26711,-0.25178 -1.66036,0.26656l-0.03212,-0.02569c0.1865,-0.2538 0.25867,-0.5739 0.19911,-0.88317c-0.04115,-0.31149 -0.20833,-0.59244 -0.46246,-0.77719c0.29863,0.07287 0.60094,0.12969 0.90565,0.17021c0.31188,-0.0423 0.59278,-0.21061 0.77719,-0.46567l0.03212,0.02248c-0.36649,0.5357 -0.25092,1.26435 0.26334,1.66036zM248.83916,171.43912l-0.02248,0.03212c-0.53453,-0.37163 -1.26705,-0.25545 -1.66036,0.26334l-0.03212,-0.02248c0.3692,-0.53574 0.25179,-1.26711 -0.26656,-1.66036l0.02248,-0.03212c0.53675,0.36957 1.26916,0.25221 1.66357,-0.26656l0.0289,0.02569c-0.3692,0.53574 -0.25179,1.26711 0.26656,1.66036zM248.85843,167.0843l-0.04175,0.05781c-0.97978,-0.67529 -2.31723,-0.46181 -3.0381,0.48494l-0.05781,-0.04175c0.33695,-0.46246 0.46931,-1.04295 0.36611,-1.60576c-0.07477,-0.57151 -0.38286,-1.08654 -0.85105,-1.42271l0.04175,-0.05781c0.97978,0.67529 2.31723,0.46181 3.0381,-0.48494l0.05781,0.04175c-0.33695,0.46246 -0.46931,1.04295 -0.36611,1.60576c0.07551,0.57125 0.38343,1.08602 0.85105,1.42271z" fill="#ffffff" fill-rule="evenodd"/></g></g></svg>