<svg version="1.1" xmlns="http://www.w3.org/2000/svg" xmlns:xlink="http://www.w3.org/1999/xlink" width="342.34234" height="30.67762" viewBox="0,0,342.34234,30.67762"><defs><radialGradient cx="370.69327" cy="178.73599" r="9.96512" gradientUnits="userSpaceOnUse" id="color-1"><stop offset="0" stop-color="#669bff"/><stop offset="1" stop-color="#3f76ff"/></radialGradient></defs><g transform="translate(-68.82883,-164.01875)"><g data-paper-data="{&quot;isPaintingLayer&quot;:true}" fill-rule="nonzero" stroke-linejoin="miter" stroke-miterlimit="10" stroke-dasharray="" stroke-dashoffset="0" style="mix-blend-mode: normal"><path d="M75.22883,194.69637c-3.53462,0 -6.4,-2.6967 -6.4,-6.02325v-17.34624c0,-3.32655 2.86538,-6.02325 6.4,-6.02325h329.54234c3.53462,0 6.4,2.6967 6.4,6.02325v17.34624c0,3.32655 -2.86538,6.02325 -6.4,6.02325z" fill-opacity="0.89412" fill="#ffde00" stroke="none" stroke-width="0" stroke-linecap="butt"/><text transform="translate(74.54044,185.76875) scale(0.5,0.5)" font-size="40" xml:space="preserve" fill-opacity="0.89412" fill="#ffffff" fill-rule="nonzero" stroke="none" stroke-width="1" stroke-linecap="butt" stroke-linejoin="miter" stroke-miterlimit="10" stroke-dasharray="" stroke-dashoffset="0" font-family="Sans Serif" font-weight="normal" text-anchor="start" style="mix-blend-mode: normal"><tspan x="0" dy="0">Day 3</tspan></text><text transform="translate(346.24462,185.76875) scale(0.5,0.5)" font-size="40" xml:space="preserve" fill-opacity="0.89412" fill="#ffffff" fill-rule="nonzero" stroke="none" stroke-width="1" stroke-linecap="butt" stroke-linejoin="miter" stroke-miterlimit="10" stroke-dasharray="" stroke-dashoffset="0" font-family="Sans Serif" font-weight="normal" text-anchor="start" style="mix-blend-mode: normal"><tspan x="0" dy="0">3</tspan></text><g stroke="#000000" stroke-width="0.5"><path d="M360.72815,178.73599c0,-5.50358 4.46154,-9.96512 9.96512,-9.96512c5.50358,0 9.96512,4.46154 9.96512,9.96512c0,5.50358 -4.46154,9.96512 -9.96512,9.96512c-5.50358,0 -9.96512,-4.46154 -9.96512,-9.96512z" fill="url(#color-1)" stroke-linecap="butt"/><path d="M366.89004,169.55416l7.60645,18.36368" fill="none" stroke-linecap="round"/><path d="M379.8751,182.53925l-18.36365,-7.6065" fill="none" stroke-linecap="round"/><path d="M361.51143,182.53922l18.36368,-7.60646" fill="none" stroke-linecap="round"/><path d="M374.49652,169.55416l-7.6065,18.36365" fill="none" stroke-linecap="round"/></g></g></g></svg>