<svg version="1.1" xmlns="http://www.w3.org/2000/svg" xmlns:xlink="http://www.w3.org/1999/xlink" width="160.69945" height="99.20048" viewBox="0,0,160.69945,99.20048"><g transform="translate(-159.65028,-128.53978)"><g data-paper-data="{&quot;isPaintingLayer&quot;:true}" fill-rule="nonzero" stroke-linejoin="miter" stroke-miterlimit="10" stroke-dasharray="" stroke-dashoffset="0" style="mix-blend-mode: normal"><path d="M159.65029,227.74026v-95.48052h160.69945v95.48052z" fill="#59ad0d" stroke="none" stroke-width="0" stroke-linecap="butt"/><text transform="translate(167.32001,150.28978) scale(0.5,0.5)" font-size="40" xml:space="preserve" fill="#ffffff" fill-rule="nonzero" stroke="none" stroke-width="1" stroke-linecap="butt" stroke-linejoin="miter" stroke-miterlimit="10" stroke-dasharray="" stroke-dashoffset="0" font-family="Sans Serif" font-weight="normal" text-anchor="start" style="mix-blend-mode: normal"><tspan x="0" dy="0">Porsche Macan</tspan></text><g stroke-width="0.25" stroke-linecap="round"><path d="M243.92205,226.50576c0,0 -1.85882,-0.57276 -3.12029,-2.27653c-1.2527,-1.69194 -3.07767,-3.98462 -4.45219,-6.33983c-1.07682,-1.84512 -1.77967,-3.77014 -2.36425,-5.19786c-0.83761,-2.04577 -1.92731,-4.46426 -2.43772,-6.87135c-0.42352,-1.99728 -0.31355,-3.99761 -0.55374,-5.67131c-0.20362,-1.41884 0.31414,-4.45123 0.31414,-4.45123c0,0 1.90354,-1.40086 3.41374,-2.28618c1.9374,-1.13574 3.70748,-1.84586 5.08622,-2.15896c1.72003,-0.3906 4.06671,-0.87694 4.06671,-0.87694c0,0 12.14061,-5.76403 18.20549,-8.34785c5.91899,-2.52167 17.75678,-6.97318 17.75678,-6.97318c0,0 3.07797,-1.86308 5.93843,-3.53742c2.30503,-1.34922 4.78444,-2.18951 6.34847,-2.6186c2.43035,-0.66679 5.59215,-0.86924 5.59215,-0.86924c0,0 3.41353,0.96329 5.08645,3.45345c1.37851,1.82445 2.37897,4.13056 3.09985,5.78113c1.0274,2.35239 2.32263,5.33484 3.49761,8.12726c0.6822,1.62129 1.38903,4.3242 1.67257,6.28013c0.46616,3.2157 -0.84971,6.51438 -0.84971,6.51438c0,0 -2.38565,1.83768 -4.32102,2.93605c-1.3873,0.77373 -4.44355,2.09012 -7.01049,2.95379c-3.25069,1.09372 -6.25458,2.17301 -6.25458,2.17301c0,0 -11.20067,5.31618 -17.04195,7.78049c-6.02597,2.54223 -18.57708,7.24639 -18.57708,7.24639c0,0 -2.07381,1.15934 -3.53238,2.0768c-1.15255,0.72496 -2.72865,1.47191 -5.19997,2.221c-1.98167,0.60067 -4.36325,0.9326 -4.36325,0.9326z" fill="#af3d1b" stroke="#000000"/><path d="M302.57836,175.14515c0,0 -0.72737,-0.2084 -1.10602,-0.5191c-0.35307,-0.28972 -1.10942,-1.0417 -1.10942,-1.0417l-3.42142,-3.55166c0,0 0.04751,-0.34133 0.29851,-0.42904c0.26706,-0.09332 0.72589,-0.24592 0.72589,-0.24592c0,0 1.91921,1.60273 2.68163,2.39297c0.73137,0.75807 1.8036,2.25597 1.8036,2.25597z" data-paper-data="{&quot;index&quot;:null}" fill="#455050" stroke="#000000"/><path d="M297.83086,170.40054l0.9763,0.98816" fill="none" stroke="#ffffff"/><path d="M300.87411,173.55925l-0.91805,-0.96249" fill="none" stroke="#ffffff"/><path d="M298.10813,169.97005l1.20817,1.11025" fill="none" stroke="#ffffff"/><path d="M301.64424,173.64133l-1.18663,-1.37814" fill="none" stroke="#ffffff"/><path d="M309.31499,190.67776c0,0 0.33744,1.81095 0.37747,2.86355c0.04172,1.09728 -0.13199,3.59166 -0.13199,3.59166c0,0 -0.4279,0.22518 -0.68022,0.35313c-0.23714,0.12025 -0.51621,-0.08195 -0.51621,-0.08195l-0.19112,-4.92786c0,0 -0.01832,-1.0664 0.01733,-1.52173c0.03823,-0.48831 0.39185,-1.15724 0.39185,-1.15724z" data-paper-data="{&quot;index&quot;:null}" fill="#455050" stroke="#000000"/><path d="M308.6786,195.11929l0.03628,1.38864" data-paper-data="{&quot;index&quot;:null}" fill="none" stroke="#ffffff"/><path d="M308.60329,193.45385l-0.05813,-1.32884" data-paper-data="{&quot;index&quot;:null}" fill="none" stroke="#ffffff"/><path d="M309.25371,194.96578l-0.0363,1.64043" data-paper-data="{&quot;index&quot;:null}" fill="none" stroke="#ffffff"/><path d="M309.01949,191.51275l0.17182,1.81049" data-paper-data="{&quot;index&quot;:null}" fill="none" stroke="#ffffff"/><path d="M302.51008,175.18066c0,0 0.93988,1.36354 1.81484,2.98366c0.72782,1.34763 1.36354,2.86993 1.81121,3.95915c0.43662,1.06234 1.09018,2.643 1.51703,4.08198c0.55737,1.87902 0.8361,3.52309 0.8361,3.52309" fill="none" stroke="#000000"/><path d="M308.11546,196.57574l-11.523,5.23444c0,0 -0.62385,0.26299 -0.86448,0.13735c-0.21354,-0.1115 -0.56872,-0.23153 -0.56872,-0.23153" fill="none" stroke="#000000"/><path d="M284.72849,176.39426c0,0 0.1595,-0.33931 0.22703,-0.57055c0.0761,-0.26058 0.69792,-0.52828 0.69792,-0.52828l11.75759,-4.68381" data-paper-data="{&quot;index&quot;:null}" fill="none" stroke="#000000"/><path d="M275.85677,184.11681c0,0 3.48505,-2.78166 4.89952,-4.16007c1.25983,-1.22772 3.17716,-3.71083 3.17716,-3.71083c0,0 0.62084,-0.01986 1.3006,0.57738c0.88605,0.77848 1.81771,2.22146 2.79342,3.69055c1.54812,2.33093 2.57411,5.38851 3.58292,7.82969c0.89733,2.17143 2.1913,5.46167 2.82275,8.414c0.42299,1.97769 0.72174,3.41796 0.72121,4.3933c-0.00034,0.62858 -0.19612,1.07296 -0.19612,1.07296c0,0 -2.78365,-0.48414 -4.65065,-0.32559c-1.84444,0.15664 -6.54972,0.59276 -6.54972,0.59276c0,0 -1.993,-5.96795 -3.38938,-9.35432c-1.30871,-3.17378 -4.51171,-9.01985 -4.51171,-9.01985z" fill="#203756" stroke="#000000"/><path d="M258.0471,189.69187c0,0 -3.81673,1.52473 -5.71206,1.97124c-1.8616,0.43856 -4.88214,1.07691 -4.88214,1.07691c0,0 -0.1903,-0.1617 0.21402,-0.51255c0.87116,-0.75597 2.8754,-2.1312 4.03216,-2.83622c1.91434,-1.26904 5.29947,-3.12038 5.29947,-3.12038c0,0 6.17634,-2.71136 9.77631,-4.29079c4.84245,-2.11787 15.08814,-5.65478 15.08814,-5.65478c0,0 -0.70506,1.09568 -1.56326,1.96539c-1.19447,1.21049 -5.16008,4.2896 -5.16008,4.2896z" fill="#203756" stroke="#000000"/><path d="M284.2454,204.02368c0,0 4.96778,-0.72679 6.66822,-0.74962c1.22173,-0.01641 2.50034,0.23417 2.50034,0.23417c0,0 -9.64852,4.93863 -14.53051,6.96368c-3.63296,1.50203 -9.86702,4.07787 -9.86702,4.07787c0,0 -3.68022,1.15871 -5.92158,1.66013c-1.30979,0.34581 -3.69003,0.83849 -4.83871,0.94304c-0.53313,0.04852 -0.5179,-0.20073 -0.5179,-0.20073c0,0 2.55288,-1.73609 4.15879,-2.7748c1.63501,-1.05753 5.37868,-2.75376 5.37868,-2.75376z" data-paper-data="{&quot;index&quot;:null}" fill="#203756" stroke="#000000"/><path d="M278.68308,177.49475l-0.89747,-1.40668" fill="none" stroke="#000000"/><path d="M290.41402,205.14683l0.53061,1.71207" fill="none" stroke="#000000"/><path d="M252.77004,217.159c0,0 -7.86294,2.63588 -9.23659,3.04666c-0.38859,0.11621 -0.85532,-0.02875 -0.85532,-0.02875c0,0 -1.71563,-2.50252 -2.61438,-4.65186c-0.77786,-1.86021 -2.64194,-5.70109 -3.82677,-9.00951c-1.11041,-3.10063 -1.42594,-5.40057 -1.42594,-5.40057c0,0 0.16372,-0.41842 0.60768,-0.65857c1.35938,-0.73533 8.55825,-4.29955 8.55825,-4.29955c0,0 1.91995,7.52761 3.38061,11.01638c1.4703,3.51181 5.41247,9.98577 5.41247,9.98577z" fill="#203756" stroke="#000000"/><path d="M243.99234,196.1503c0,0 0.3706,-0.15362 0.56691,-0.19056c0.18918,-0.0356 0.53428,0.27189 0.53428,0.27189c0,0 0.75595,2.54016 1.67862,5.02266c0.85698,2.30577 1.87458,4.54205 2.14036,5.14536c0.37773,0.85748 0.79541,1.88165 1.37072,2.994c1.63913,3.16928 3.18289,6.43666 3.18289,6.43666c0,0 0.07496,0.73716 -0.15596,0.8893c-0.18625,0.12272 -0.39398,0.37713 -0.39398,0.37713" fill="none" stroke="#000000"/><path d="M231.32736,201.35832l2.52137,-0.96794c0,0 0.45072,0.0621 0.55948,0.11781c0.10278,0.05264 0.35918,0.29281 0.35918,0.29281" fill="none" stroke="#000000"/><path d="M242.80497,220.43069c0,0 -0.00441,0.35127 -0.03765,0.46187c-0.03517,0.11702 -0.30263,0.48509 -0.30263,0.48509l-2.44475,1.14778" data-paper-data="{&quot;index&quot;:null}" fill="none" stroke="#000000"/><path d="M275.05207,175.86109l0.95951,1.39682c0,0 -0.4384,0.29812 -0.66805,0.38597c-0.21304,0.08148 -0.66376,0.12345 -0.66376,0.12345c0,0 -0.40852,-0.64397 -0.6907,-0.87071c-0.29643,-0.23818 -1.04724,-0.52578 -1.04724,-0.52578c0,0 0.70896,-0.04474 1.09237,-0.15499c0.3739,-0.1075 1.01787,-0.35476 1.01787,-0.35476z" fill="#000000" stroke="#000000"/><path d="M272.36091,176.19242l-1.79056,-2.26476c0,0 0.77206,-0.47109 1.22229,-0.59977c0.42007,-0.12006 1.38339,0.04014 1.38339,0.04014c0,0 1.00562,0.70617 1.35819,1.0306c0.35165,0.32358 0.85372,1.1464 0.85372,1.1464c0,0 -0.82848,0.58942 -1.34382,0.68396c-0.60486,0.11095 -1.6832,-0.03657 -1.6832,-0.03657z" fill="#af3d1b" stroke="#000000"/><path d="M288.41694,209.05665c-0.3451,0.20013 -0.86852,0.68041 -0.86852,0.68041c0,0 0.31272,-0.74069 0.34631,-1.11947c0.03196,-0.36058 -0.14944,-1.10131 -0.14944,-1.10131c0,0 0.34543,-0.29736 0.55246,-0.39486c0.22193,-0.10452 0.73754,-0.2127 0.73754,-0.2127l0.34263,1.65963c0,0 -0.62441,0.29312 -0.96098,0.48829z" data-paper-data="{&quot;index&quot;:null}" fill="#000000" stroke="#000000"/><path d="M288.33434,209.00823c0.42518,-0.30616 1.42419,-0.4953 1.42419,-0.4953c0,0 0.24558,0.93209 0.23533,1.40985c-0.01028,0.47901 -0.19767,1.69344 -0.19767,1.69344c0,0 -0.55182,0.8057 -0.92941,1.02547c-0.4047,0.23554 -1.27929,0.46598 -1.27929,0.46598l-0.39284,-2.86023c0,0 0.64065,-0.87985 1.13969,-1.2392z" data-paper-data="{&quot;index&quot;:null}" fill="#af3d1b" stroke="#000000"/><path d="M307.41407,188.34309l-11.55263,6.71081" fill="none" stroke="#000000"/><path d="M302.34838,176.68594l-12.64969,3.20255" fill="none" stroke="#000000"/><path d="M304.50913,182.63467l0.3299,-0.14664c0,0 0.18342,0.04945 0.20141,0.11536c0.01798,0.06591 -0.05741,0.19514 -0.05741,0.19514l-0.33705,0.1436z" fill="#000000" stroke="#252525"/><path d="M262.39153,218.93489l-1.12831,-1.21277c0,0 -0.08332,-0.3596 -0.03918,-0.5267c0.0362,-0.13705 0.29123,-0.50577 0.29123,-0.50577" fill="none" stroke="#000000"/><path d="M250.30871,190.13236c0,0 -0.44259,-0.07153 -0.5665,-0.14035c-0.15109,-0.08393 -0.3527,-0.39314 -0.3527,-0.39314l-0.09296,-1.65386" data-paper-data="{&quot;index&quot;:null}" fill="none" stroke="#000000"/><path d="M251.32033,188.47162l0.21264,-0.62068l1.63154,-0.86737l0.65473,0.01262" fill="none" stroke="#000000"/><path d="M262.56411,182.07791l0.934,1.16584" fill="none" stroke="#000000"/><path d="M264.50545,182.311l0.21743,-0.60945l1.22259,-0.52086l0.93327,0.01321" fill="none" stroke="#000000"/><path d="M266.17214,216.39146l-0.44447,0.48091l-1.75579,0.57573l-0.59493,-0.27663" data-paper-data="{&quot;index&quot;:null}" fill="none" stroke="#000000"/><path d="M275.58342,212.01091l0.19373,1.48121" data-paper-data="{&quot;index&quot;:null}" fill="none" stroke="#000000"/><path d="M279.40366,210.99297l-0.637,0.6822l-1.22259,0.52086l-0.59014,-0.2654" data-paper-data="{&quot;index&quot;:null}" fill="none" stroke="#000000"/><path d="M235.05765,197.98889l11.35502,-6.54143" fill="none" stroke="#000000"/><path d="M258.60123,218.45732l-13.51046,3.88165" fill="none" stroke="#000000"/></g><g stroke-width="0.25" stroke-linecap="round"><path d="M180.98569,204.5051c0,0 -1.63953,-0.57331 -2.70816,-2.13587c-1.0612,-1.55172 -2.61297,-3.65866 -3.76067,-5.80631c-0.89913,-1.68252 -1.46189,-3.42382 -1.93574,-4.71739c-0.67896,-1.85356 -1.5704,-4.04816 -1.9453,-6.21318c-0.31107,-1.79642 -0.14599,-3.57773 -0.30431,-5.07928c-0.13421,-1.27291 0.42931,-3.96151 0.42931,-3.96151c0,0 1.74549,-1.18633 3.12275,-1.92579c1.76684,-0.94862 3.37011,-1.52304 4.6109,-1.7563c1.54793,-0.29098 3.65824,-0.64642 3.65824,-0.64642c0,0 11.0265,-4.73712 16.52492,-6.83978c5.36616,-2.05208 16.07849,-5.62813 16.07849,-5.62813c0,0 2.80896,-1.55948 5.41751,-2.95782c2.10203,-1.12682 4.34264,-1.79365 5.75265,-2.1242c2.19101,-0.51366 5.0192,-0.58849 5.0192,-0.58849c0,0 3.01379,0.97383 4.42326,3.2519c1.16904,1.67417 1.9846,3.76549 2.57262,5.2625c0.83806,2.13351 1.89401,4.83823 2.84904,7.36935c0.55449,1.46957 1.09475,3.90516 1.28229,5.66c0.30834,2.88511 -0.97626,5.78461 -0.97626,5.78461c0,0 -2.19032,1.55999 -3.95409,2.47533c-1.26384,0.644 -4.03513,1.71638 -6.35462,2.40115c-2.93733,0.86718 -5.65395,1.72972 -5.65395,1.72972c0,0 -10.17276,4.36896 -15.46766,6.37245c-5.46231,2.06684 -16.81963,5.84446 -16.81963,5.84446c0,0 -1.88935,0.96511 -3.22161,1.73499c-1.05272,0.60834 -2.48416,1.22212 -4.71448,1.80785c-1.78843,0.46967 -3.92472,0.68616 -3.92472,0.68616z" fill="#56c0e0" stroke="#000000"/><path d="M235.04621,160.63716c0,0 -0.64209,-0.21031 -0.96957,-0.50024c-0.30536,-0.27035 -0.95512,-0.96668 -0.95512,-0.96668l-2.93419,-3.28381c0,0 0.05382,-0.303 0.28073,-0.37286c0.24143,-0.07433 0.65597,-0.19515 0.65597,-0.19515c0,0 1.65895,1.49442 2.31283,2.2251c0.62726,0.70093 1.53392,2.07346 1.53392,2.07346z" data-paper-data="{&quot;index&quot;:null}" fill="#455050" stroke="#000000"/><path d="M230.96863,156.24445l0.83812,0.91445" fill="none" stroke="#ffffff"/><path d="M233.57852,159.16495l-0.787,-0.88959" fill="none" stroke="#ffffff"/><path d="M231.23045,155.86959l1.04094,1.03116" fill="none" stroke="#ffffff"/><path d="M234.26298,159.26397l-1.01276,-1.26949" fill="none" stroke="#ffffff"/><path d="M240.5377,174.72303c0,0 0.2405,1.62728 0.24098,2.5679c0.0005,0.98055 -0.238,3.20056 -0.238,3.20056c0,0 -0.38938,0.18662 -0.6188,0.29234c-0.21563,0.09937 -0.45789,-0.0904 -0.45789,-0.0904l-0.00561,-4.40373c0,0 0.01935,-0.95221 0.0664,-1.35732c0.05045,-0.43447 0.38839,-1.01954 0.38839,-1.01954z" data-paper-data="{&quot;index&quot;:null}" fill="#455050" stroke="#000000"/><path d="M239.80706,179.90545l0.01411,-1.24035" data-paper-data="{&quot;index&quot;:null}" fill="none" stroke="#ffffff"/><path d="M239.80231,175.9887l0.00739,1.18772" data-paper-data="{&quot;index&quot;:null}" fill="none" stroke="#ffffff"/><path d="M240.2522,180.00996l0.0873,-1.46261" data-paper-data="{&quot;index&quot;:null}" fill="none" stroke="#ffffff"/><path d="M240.24606,175.45823l0.09273,1.62133" data-paper-data="{&quot;index&quot;:null}" fill="none" stroke="#ffffff"/><path d="M234.98409,160.66657c0,0 0.79306,1.24821 1.51959,2.72319c0.60435,1.22691 1.12069,2.60659 1.48371,3.59353c0.35406,0.96258 0.88435,2.39494 1.21708,3.6933c0.43447,1.69538 0.62816,3.17179 0.62816,3.17179" fill="none" stroke="#000000"/><path d="M239.2699,179.94589l-10.45765,4.28523c0,0 -0.56549,0.2138 -0.77601,0.09362c-0.18683,-0.10664 -0.49974,-0.22564 -0.49974,-0.22564" fill="none" stroke="#000000"/><path d="M219.07622,161.15435c0,0 0.15368,-0.29745 0.22168,-0.50153c0.07662,-0.22998 0.64046,-0.44805 0.64046,-0.44805l10.64855,-3.78603" data-paper-data="{&quot;index&quot;:null}" fill="none" stroke="#000000"/><path d="M210.90115,167.74856c0,0 3.20296,-2.36554 4.51128,-3.54822c1.16529,-1.05338 2.95931,-3.20499 2.95931,-3.20499c0,0 0.55467,0.00306 1.14126,0.55875c0.7646,0.72432 1.54766,2.04314 2.36916,3.38673c1.30343,2.1318 2.11662,4.89455 2.93512,7.10668c0.72804,1.96769 1.77259,4.94701 2.23723,7.60264c0.31125,1.77893 0.52963,3.07415 0.49652,3.94446c-0.02134,0.5609 -0.21092,0.95089 -0.21092,0.95089c0,0 -2.46775,-0.52519 -4.13907,-0.4462c-1.65111,0.07805 -5.86443,0.30973 -5.86443,0.30973c0,0 -1.57869,-5.39215 -2.71139,-8.46068c-1.06159,-2.87589 -3.72409,-8.1998 -3.72409,-8.1998z" fill="#203756" stroke="#000000"/><path d="M194.82224,172.12732c0,0 -3.45686,1.23284 -5.16308,1.56783c-1.67585,0.32903 -4.39258,0.79757 -4.39258,0.79757c0,0 -0.16441,-0.15066 0.20814,-0.45021c0.80267,-0.64543 2.63717,-1.80552 3.69299,-2.39592c1.75072,-1.06834 4.83338,-2.60707 4.83338,-2.60707c0,0 5.60216,-2.21274 8.86742,-3.50163c4.392,-1.72778 13.65304,-4.54099 13.65304,-4.54099c0,0 -0.66582,0.95413 -1.46074,1.70148c-1.10639,1.04019 -4.74813,3.65508 -4.74813,3.65508z" fill="#203756" stroke="#000000"/><path d="M217.72038,185.79305c0,0 4.45728,-0.48227 5.97542,-0.44573c1.09075,0.02625 2.22331,0.29265 2.22331,0.29265c0,0 -8.77507,4.08401 -13.19925,5.72763c-3.29211,1.21872 -8.94124,3.3086 -8.94124,3.3086c0,0 -3.32279,0.91078 -5.33964,1.2832c-1.18036,0.26474 -3.32083,0.62472 -4.34935,0.67956c-0.47735,0.02546 -0.45543,-0.19646 -0.45543,-0.19646c0,0 2.33615,-1.46374 3.80393,-2.33687c1.49438,-0.88895 4.89178,-2.27727 4.89178,-2.27727z" data-paper-data="{&quot;index&quot;:null}" fill="#203756" stroke="#000000"/><path d="M213.64483,161.93401l-0.75376,-1.28528" fill="none" stroke="#000000"/><path d="M223.60348,188.54726l-0.41618,-1.54551" fill="none" stroke="#000000"/><path d="M189.19397,196.46075c0,0 -7.10466,2.08893 -8.34417,2.40951c-0.35064,0.09069 -0.76227,-0.05428 -0.76227,-0.05428c0,0 -1.44717,-2.29053 -2.17722,-4.23855c-0.63185,-1.68598 -2.16669,-5.17574 -3.11324,-8.16764c-0.88709,-2.80399 -1.09166,-4.86688 -1.09166,-4.86688c0,0 0.1601,-0.3679 0.5643,-0.56732c1.23764,-0.61067 7.78079,-3.55022 7.78079,-3.55022c0,0 1.4613,6.78146 2.64793,9.94352c1.19447,3.18294 4.49554,9.09187 4.49554,9.09187z" fill="#203756" stroke="#000000"/><path d="M182.06444,177.42003c0,0 0.33585,-0.12468 0.51225,-0.15108c0.17,-0.02544 0.46766,0.2605 0.46766,0.2605c0,0 0.58954,2.29199 1.32979,4.53812c0.68754,2.08622 1.52074,4.1158 1.73771,4.66306c0.30836,0.77781 0.6468,1.7057 1.12293,2.71755c1.35658,2.88295 2.62479,5.85023 2.62479,5.85023c0,0 0.04221,0.66031 -0.16893,0.78834c-0.17032,0.10327 -0.36419,0.32334 -0.36419,0.32334" fill="none" stroke="#000000"/><path d="M170.58863,181.64346l2.28232,-0.77934c0,0 0.40012,0.0705 0.4953,0.12385c0.08996,0.05042 0.31071,0.2733 0.31071,0.2733" fill="none" stroke="#000000"/><path d="M180.19221,199.04668c0,0 -0.0157,0.31332 -0.04906,0.41088c-0.03531,0.10324 -0.28628,0.42273 -0.28628,0.42273l-2.21997,0.94239" data-paper-data="{&quot;index&quot;:null}" fill="none" stroke="#000000"/><path d="M210.4594,160.3547l0.80946,1.27855c0,0 -0.40118,0.25135 -0.60905,0.32205c-0.19283,0.06558 -0.59643,0.08794 -0.59643,0.08794c0,0 -0.34298,-0.58831 -0.5872,-0.80009c-0.25654,-0.22247 -0.9169,-0.50423 -0.9169,-0.50423c0,0 0.63414,-0.0162 0.97995,-0.10173c0.33725,-0.08342 0.92015,-0.2825 0.92015,-0.2825z" fill="#000000" stroke="#000000"/><path d="M208.04687,160.56029l-1.522,-2.08088c0,0 0.70471,-0.39453 1.11077,-0.49429c0.37886,-0.09307 1.23312,0.08212 1.23312,0.08212c0,0 0.87372,0.6638 1.17747,0.9651c0.30297,0.30052 0.72344,1.05156 0.72344,1.05156c0,0 -0.75902,0.49824 -1.22204,0.56534c-0.54346,0.07876 -1.50076,-0.08897 -1.50076,-0.08897z" fill="#56c0e0" stroke="#000000"/><path d="M221.27435,190.42381c-0.31466,0.16703 -0.79779,0.57809 -0.79779,0.57809c0,0 0.30385,-0.65049 0.3465,-0.98736c0.0406,-0.32069 -0.09649,-0.98774 -0.09649,-0.98774c0,0 0.3182,-0.25378 0.50619,-0.33386c0.20154,-0.08584 0.66525,-0.16511 0.66525,-0.16511l0.25019,1.49242c0,0 -0.567,0.24066 -0.87386,0.40355z" data-paper-data="{&quot;index&quot;:null}" fill="#000000" stroke="#000000"/><path d="M221.20227,190.37783c0.38966,-0.25896 1.28744,-0.39431 1.28744,-0.39431c0,0 0.18794,0.83996 0.16281,1.26595c-0.0252,0.4271 -0.23307,1.50451 -0.23307,1.50451c0,0 -0.51938,0.70048 -0.86368,0.88396c-0.36901,0.19664 -1.15716,0.37299 -1.15716,0.37299l-0.25482,-2.56546c0,0 0.60112,-0.76369 1.05847,-1.06765z" data-paper-data="{&quot;index&quot;:null}" fill="#56c0e0" stroke="#000000"/><path d="M238.91957,172.57608l-10.5335,5.60165" fill="none" stroke="#000000"/><path d="M223.39439,164.43875l11.39503,-2.43438" fill="none" stroke="#000000"/><path d="M236.51843,167.38499l0.29929,-0.11981c0,0 0.16202,0.05027 0.17587,0.10968c0.01383,0.05942 -0.05776,0.17221 -0.05776,0.17221l-0.30557,0.11685z" fill="#000000" stroke="#252525"/><path d="M197.72018,198.36748l-0.96625,-1.11998c0,0 -0.06231,-0.32368 -0.01733,-0.47131c0.0369,-0.12108 0.2768,-0.44157 0.2768,-0.44157" fill="none" stroke="#000000"/><path d="M187.90222,172.26137c0,0 -0.39255,-0.07864 -0.50081,-0.1442c-0.13202,-0.07995 -0.30157,-0.36262 -0.30157,-0.36262l-0.02759,-1.47891" data-paper-data="{&quot;index&quot;:null}" fill="none" stroke="#000000"/><path d="M188.86051,170.8133l0.21053,-0.54674l1.48492,-0.71938l0.58382,0.03318" fill="none" stroke="#000000"/><path d="M199.1078,165.48426l0.79442,1.07158" fill="none" stroke="#000000"/><path d="M200.83233,165.75723l0.21442,-0.53657l1.1084,-0.42386l0.83235,0.04302" fill="none" stroke="#000000"/><path d="M201.1789,196.22441l-0.41271,0.41426l-1.58603,0.45499l-0.52162,-0.26676" data-paper-data="{&quot;index&quot;:null}" fill="none" stroke="#000000"/><path d="M209.7236,192.63046l0.1233,1.32822" data-paper-data="{&quot;index&quot;:null}" fill="none" stroke="#000000"/><path d="M213.16662,191.84999l-0.59126,0.58743l-1.1084,0.42386l-0.51773,-0.25659" data-paper-data="{&quot;index&quot;:null}" fill="none" stroke="#000000"/><path d="M174.0301,178.76163l10.35149,-5.45712" fill="none" stroke="#000000"/><path d="M194.35392,197.81447l-12.18586,3.01155" fill="none" stroke="#000000"/></g></g></g></svg>