<svg version="1.1" xmlns="http://www.w3.org/2000/svg" xmlns:xlink="http://www.w3.org/1999/xlink" width="96.15917" height="47.18079" viewBox="0,0,96.15917,47.18079"><defs><radialGradient cx="244.52625" cy="187.10111" r="7.36625" gradientUnits="userSpaceOnUse" id="color-1"><stop offset="0" stop-color="#00b7ff"/><stop offset="1" stop-color="#004bb3"/></radialGradient></defs><g transform="translate(-191.92041,-156.40962)"><g data-paper-data="{&quot;isPaintingLayer&quot;:true}" fill-rule="nonzero" stroke-linejoin="miter" stroke-miterlimit="10" stroke-dasharray="" stroke-dashoffset="0" style="mix-blend-mode: normal"><path d="M193.1994,169.57499c0,0 0.88948,-2.42884 1.33916,-3.3021c0.45638,-0.88627 2.08089,-1.97705 2.08089,-1.97705c0,0 4.14472,-1.48297 6.30047,-2.03036c1.97222,-0.50078 6.13251,-1.1266 6.13251,-1.1266c0,0 3.21681,0.32374 4.6389,0.63484c1.38269,0.30249 3.7788,1.2067 3.7788,1.2067c0,0 37.64387,0.34279 42.75842,0.33406c0.68889,-0.00118 2.66992,-0.5699 3.47514,-0.89503c1.33138,-0.5376 2.36194,-0.64678 4.34707,-0.96617c1.95241,-0.31411 6.06402,0.72362 6.06402,0.72362l9.10463,3.41571l4.04893,7.43641c0,0 0.56124,4.9928 0.56124,7.43641c0,2.46699 -0.56124,7.2961 -0.56124,7.2961l-4.52543,8.10788l-8.79231,4.07269c0,0 -3.77872,0.82245 -5.89484,0.4832c-1.99989,-0.32062 -4.23617,-1.15016 -4.23617,-1.15016c0,0 -2.33458,-0.69101 -3.14603,-0.69119c-4.54617,-0.001 -43.45116,0.30202 -43.45116,0.30202c0,0 -2.745,0.97546 -3.98591,1.21883c-1.17331,0.23011 -4.20352,0.35971 -4.20352,0.35971c0,0 -4.17655,-0.38615 -6.13905,-1.00293c-2.118,-0.66566 -6.29395,-2.07609 -6.29395,-2.07609c0,0 -1.39392,-1.03671 -1.94247,-1.96234c-0.53797,-0.90779 -1.31777,-3.53897 -1.31777,-3.53897l-1.15367,-1.77724l-0.01559,-18.84824z" fill="#73c5e6" stroke="#000000" stroke-width="0.5" stroke-linecap="round"/><path d="M219.66755,187.59059l-3.27428,6.23689l-16.8956,-1.85131l-0.93539,-1.87079l-1.98772,-1.52003l-0.11692,-15.78482l1.75387,-1.52002l0.81847,-1.63695l17.14894,-1.83181l3.4886,5.90531z" fill="#191919" stroke="#000000" stroke-width="0.5" stroke-linecap="round"/><path d="M222.10699,167.61077l-0.74163,-0.83518c0,0 22.69504,-1.68819 29.99812,-1.92225c7.28907,-0.23363 14.029,0.10157 14.029,0.10157l-13.35696,3.01915c0,0 -6.01757,0.80237 -9.18656,0.96648c-3.55894,0.18431 -11.13327,0.08584 -11.13327,0.08584z" fill="#3a4758" stroke="#000000" stroke-width="0.5" stroke-linecap="round"/><path d="M231.96394,192.71843c0,0 7.57433,-0.09847 11.13327,0.08584c3.16899,0.16411 9.18656,0.96648 9.18656,0.96648l13.35698,3.01915c0,0 -6.73994,0.3352 -14.029,0.10157c-7.30308,-0.23406 -30.11504,-1.81433 -30.11504,-1.81433l0.85857,-0.9431z" data-paper-data="{&quot;index&quot;:null}" fill="#3a4758" stroke="#000000" stroke-width="0.5" stroke-linecap="round"/><path d="M266.40384,163.26295l12.91263,1.96496l4.49135,5.75454l-7.15809,-1.5439l5.05277,0.14035l-1.5439,-1.96496z" fill="#ffffff" stroke="none" stroke-width="0" stroke-linecap="round"/><path d="M268.80423,165.47743c0,0 4.8523,1.02093 10.63739,3.19725c5.76209,3.28522 6.80778,4.23916 6.80778,4.23916" fill="none" stroke="#000000" stroke-width="0.25" stroke-linecap="round"/><path d="M279.45457,193.99837l1.5439,-1.96496l-5.05277,0.14035l7.15809,-1.5439l-4.49135,5.75454l-12.91263,1.96496z" data-paper-data="{&quot;index&quot;:null}" fill="#ffffff" stroke="none" stroke-width="0" stroke-linecap="round"/><path d="M286.01552,188.13157c0,0 -1.39646,1.4801 -7.15855,4.76532c-5.78509,2.17631 -10.63739,3.19725 -10.63739,3.19725" data-paper-data="{&quot;index&quot;:null}" fill="none" stroke="#000000" stroke-width="0.25" stroke-linecap="round"/><path d="M280.28789,165.36886l2.35519,0.88528l2.57235,4.32622l-0.08353,0.73496c0,0 -1.4971,-1.6774 -2.20621,-2.61928c-0.74761,-0.99303 -2.63781,-3.32717 -2.63781,-3.32717z" fill="#808080" stroke="#000000" stroke-width="0.25" stroke-linecap="round"/><path d="M282.44966,192.73021c0.70912,-0.94188 2.20621,-2.61928 2.20621,-2.61928l0.08353,0.73496l-2.57234,4.32621l-2.35519,0.88528c0,0 1.89019,-2.33415 2.63781,-3.32717z" data-paper-data="{&quot;index&quot;:null}" fill="#808080" stroke="#000000" stroke-width="0.25" stroke-linecap="round"/><path d="M219.69345,173.74427l-2.76989,-4.87831l36.31574,7.14512l-33.5672,-1.2068z" fill="none" stroke="#000000" stroke-width="0.25" stroke-linecap="round"/><path d="M273.24945,188.45521l7.71702,0.87693" fill="none" stroke="#000000" stroke-width="0.25" stroke-linecap="round"/><path d="M221.21961,165.50873l-23.71994,2.80709l-2.52639,3.78958l0.28072,16.56186l2.38602,3.92993l23.99344,3.08781l43.14304,1.99736l-47.48455,-0.0324c0,0 -3.25727,0.79903 -4.73675,0.98691c-1.46786,0.1864 -4.10558,0.13593 -4.10558,0.13593c0,0 -4.41738,-0.66246 -6.56106,-1.36941c-2.24905,-0.74172 -6.63229,-2.98159 -6.63229,-2.98159l-2.10532,-4.91242v-18.24612l2.66674,-5.75454c0,0 4.40398,-1.58056 6.61745,-2.16333c2.22887,-0.58683 6.70992,-1.34554 6.70992,-1.34554c0,0 2.67958,0.32692 3.93032,0.58571c1.43687,0.29727 4.21024,1.09855 4.21024,1.09855l47.80709,0.21574z" fill="#ffffff" stroke="none" stroke-width="0" stroke-linecap="round"/><path d="M273.24945,172.05653l7.71702,-0.87693" data-paper-data="{&quot;index&quot;:null}" fill="none" stroke="#000000" stroke-width="0.25" stroke-linecap="round"/><path d="M285.87484,180.76255c0,0 -0.19262,0.26742 -0.36424,0.32259c-0.22622,0.07272 -0.60955,0.03153 -0.60955,0.03153c0,0 -0.03157,-0.27289 -0.02465,-0.39729c0.00775,-0.13945 0.02465,-0.35518 0.02465,-0.35518c0,0 0.43255,0.00462 0.6492,0.11695c0.17059,0.08845 0.32458,0.28142 0.32458,0.28142z" fill="#000000" stroke="#8a7100" stroke-width="0.25" stroke-linecap="round"/><path d="M222.1004,167.56757l-2.92312,-3.15696l3.74159,-0.35077" fill="none" stroke="#000000" stroke-width="0.5" stroke-linecap="round"/><path d="M223.165,197.60656l-3.74159,-0.35077l2.92312,-3.15696" data-paper-data="{&quot;index&quot;:null}" fill="none" stroke="#000000" stroke-width="0.5" stroke-linecap="round"/><path d="M200.62684,188.05171v-14.11348l19.01267,0.70837l-0.16486,11.56969z" fill="#3a4758" stroke="#000000" stroke-width="0.5" stroke-linecap="butt"/><path d="M198.44117,171.63745l2.05067,2.15861" fill="none" stroke="#000000" stroke-width="0.5" stroke-linecap="round"/><path d="M200.49182,188.04288l-1.61895,1.61895" fill="none" stroke="#000000" stroke-width="0.5" stroke-linecap="round"/><path d="M213.51902,169.00752l2.71294,4.38244" fill="none" stroke="#000000" stroke-width="0.5" stroke-linecap="round"/><path d="M210.4626,169.30916l2.61937,4.23133" fill="none" stroke="#000000" stroke-width="0.5" stroke-linecap="round"/><path d="M207.57574,169.74137l2.15156,3.47564" fill="none" stroke="#000000" stroke-width="0.5" stroke-linecap="round"/><path d="M204.53998,169.93431l1.96445,3.17337" fill="none" stroke="#000000" stroke-width="0.5" stroke-linecap="round"/><path d="M202.97325,172.70057l-1.40308,-2.26655" fill="none" stroke="#000000" stroke-width="0.5" stroke-linecap="round"/><path d="M216.31219,187.76606l-2.90004,4.68471" data-paper-data="{&quot;index&quot;:null}" fill="none" stroke="#000000" stroke-width="0.5" stroke-linecap="round"/><path d="M212.88154,188.04736l-2.71293,4.38246" data-paper-data="{&quot;index&quot;:null}" fill="none" stroke="#000000" stroke-width="0.5" stroke-linecap="round"/><path d="M207.28175,192.09116l2.33868,-3.7779" data-paper-data="{&quot;index&quot;:null}" fill="none" stroke="#000000" stroke-width="0.5" stroke-linecap="round"/><path d="M206.4911,188.44417l-1.96445,3.17337" data-paper-data="{&quot;index&quot;:null}" fill="none" stroke="#000000" stroke-width="0.25" stroke-linecap="round"/><path d="M201.36973,191.21139l1.40308,-2.26655" data-paper-data="{&quot;index&quot;:null}" fill="none" stroke="#000000" stroke-width="0.5" stroke-linecap="round"/><path d="M255.0774,162.9653l0.90568,-1.38873l-0.82927,-0.13759l-0.88632,-3.32368c0,0 1.33549,0.06581 1.85816,0.58021c0.64939,0.63912 1.59344,2.74071 1.59344,2.74071l-0.52413,0.24424l-0.82245,1.30342z" fill="#73c5e6" stroke="#000000" stroke-width="0.25" stroke-linecap="round"/><path d="M255.77711,198.58854l0.82245,1.30342l0.52414,0.24425c0,0 -0.94404,2.10158 -1.59344,2.74071c-0.52267,0.5144 -1.85816,0.58021 -1.85816,0.58021l0.88632,-3.32369l0.82927,-0.13757l-0.90568,-1.38873z" data-paper-data="{&quot;index&quot;:null}" fill="#73c5e6" stroke="#000000" stroke-width="0.25" stroke-linecap="round"/><path d="M280.94192,195.07967l0.37311,-0.1148l0.7175,-0.63141l0.37311,-0.08611" fill="none" stroke="#ffffff" stroke-width="0.125" stroke-linecap="round"/><path d="M281.83937,193.9735l0.76414,-0.13193" fill="none" stroke="#ffffff" stroke-width="0.125" stroke-linecap="round"/><path d="M282.73824,192.78164l0.59077,-0.08134" fill="none" stroke="#ffffff" stroke-width="0.125" stroke-linecap="round"/><path d="M283.19986,192.19799l0.33962,0.07575" fill="none" stroke="#ffffff" stroke-width="0.125" stroke-linecap="round"/><path d="M282.89782,168.6834c-0.74761,-0.99303 -2.63781,-3.32717 -2.63781,-3.32717l2.35519,0.88528l2.57234,4.32621l-0.08353,0.73496c0,0 -1.49709,-1.6774 -2.20621,-2.61928z" data-paper-data="{&quot;index&quot;:null}" fill="#808080" stroke="#000000" stroke-width="0.25" stroke-linecap="round"/><path d="M282.85379,167.16625l-0.37311,-0.08609l-0.7175,-0.63141l-0.37311,-0.1148" data-paper-data="{&quot;index&quot;:null}" fill="none" stroke="#ffffff" stroke-width="0.125" stroke-linecap="round"/><path d="M282.28751,167.44011l0.76415,0.13193" data-paper-data="{&quot;index&quot;:null}" fill="none" stroke="#ffffff" stroke-width="0.125" stroke-linecap="round"/><path d="M283.77717,168.7133l-0.59077,-0.08134" data-paper-data="{&quot;index&quot;:null}" fill="none" stroke="#ffffff" stroke-width="0.125" stroke-linecap="round"/><path d="M283.98764,169.13986l-0.33962,0.07575" data-paper-data="{&quot;index&quot;:null}" fill="none" stroke="#ffffff" stroke-width="0.125" stroke-linecap="round"/><path d="M219.82554,186.13363l33.5672,-1.2068l-35.99187,7.25308l2.33806,-4.44648z" data-paper-data="{&quot;index&quot;:null}" fill="none" stroke="#000000" stroke-width="0.25" stroke-linecap="round"/><path d="M227.22522,163.10975l-1.71551,3.11911" fill="none" stroke="#000000" stroke-width="0.25" stroke-linecap="round"/><path d="M226.70117,195.5556l1.71551,3.11911" data-paper-data="{&quot;index&quot;:null}" fill="none" stroke="#000000" stroke-width="0.25" stroke-linecap="round"/><path d="M259.62557,198.24954l-0.74848,-1.12271" fill="none" stroke="#000000" stroke-width="0.25" stroke-linecap="round"/><path d="M258.66322,164.42535l0.71155,-1.12273" data-paper-data="{&quot;index&quot;:null}" fill="none" stroke="#000000" stroke-width="0.25" stroke-linecap="round"/><path d="M254.21797,168.96947l14.39918,-3.29124l3.01698,6.71962c0,0 0.52745,5.87949 0.52745,8.63424c0,2.52838 -0.52745,7.27344 -0.52745,7.27344l-3.42838,7.67958l-14.01942,-3.18576c0,0 0.53782,-7.82063 0.54307,-11.76737c0.0053,-3.99593 -0.51143,-12.0625 -0.51143,-12.0625z" fill="#3a485a" stroke="#000000" stroke-width="0.5" stroke-linecap="round"/><path d="M228.59554,156.40962" fill="none" stroke="#000000" stroke-width="0.25" stroke-linecap="round"/><path d="M193.38031,169.42394l4.5933,1.27592" fill="none" stroke="#000000" stroke-width="0.25" stroke-linecap="round"/><path d="M193.76308,191.75244l4.72088,-1.14832" fill="none" stroke="#000000" stroke-width="0.25" stroke-linecap="round"/><path d="M241.84826,188.04818c0,0 -0.68064,-0.32034 -0.70743,-0.86499c-0.13781,-2.80287 0.104,-11.54618 0.11197,-13.14351c0.00248,-0.4963 0.6693,-0.79045 0.6693,-0.79045l5.78224,-0.07386c0,0 0.66462,0.25946 0.66462,0.79017c0,1.58515 0.15569,10.07132 -0.01042,13.14083c-0.0392,0.72424 -0.65419,0.86798 -0.65419,0.86798z" fill="#c2e5f3" stroke="#000000" stroke-width="0.5" stroke-linecap="butt"/><path d="M242.68548,185.94354c0,0 -0.48539,-0.22844 -0.50448,-0.61686c-0.09827,-1.99882 0.07415,-8.234 0.07985,-9.3731c0.00177,-0.35393 0.47729,-0.56371 0.47729,-0.56371l4.12351,-0.05266c0,0 0.47397,0.18503 0.47397,0.56348c0,1.13043 0.11103,7.18221 -0.00744,9.37118c-0.02795,0.51648 -0.46653,0.61899 -0.46653,0.61899z" fill="#0088bf" stroke="#000000" stroke-width="0.5" stroke-linecap="butt"/><path d="M244.52625,179.91024c4.06828,0 7.36625,3.21946 7.36625,7.19086c0,3.97141 -3.29798,7.19086 -7.36625,7.19086c-4.06828,0 -7.36625,-3.21946 -7.36625,-7.19086c0,-3.97141 3.29798,-7.19086 7.36625,-7.19086z" fill="url(#color-1)" stroke="#000000" stroke-width="0.5" stroke-linecap="butt"/><text transform="translate(204.5112,196.0346) rotate(7.72916) scale(0.06536,0.06536)" font-size="40" xml:space="preserve" fill="#67c2e5" fill-rule="nonzero" stroke="none" stroke-width="1" stroke-linecap="butt" stroke-linejoin="miter" stroke-miterlimit="10" stroke-dasharray="" stroke-dashoffset="0" font-family="Curly" font-weight="normal" text-anchor="start" style="mix-blend-mode: normal"><tspan x="0" dy="0">113</tspan></text><text transform="translate(203.96217,164.91842) rotate(-7.72916) scale(0.06536,-0.06536)" font-size="40" xml:space="preserve" data-paper-data="{&quot;index&quot;:null}" fill="#67c2e5" fill-rule="nonzero" stroke="none" stroke-width="1" stroke-linecap="butt" stroke-linejoin="miter" stroke-miterlimit="10" stroke-dasharray="" stroke-dashoffset="0" font-family="Curly" font-weight="normal" text-anchor="start" style="mix-blend-mode: normal"><tspan x="0" dy="0">113</tspan></text></g></g></svg>