<svg version="1.1" xmlns="http://www.w3.org/2000/svg" xmlns:xlink="http://www.w3.org/1999/xlink" width="160.69945" height="99.39043" viewBox="0,0,160.69945,99.39043"><defs><linearGradient x1="271.38974" y1="186.77343" x2="277.65769" y2="185.17332" gradientUnits="userSpaceOnUse" id="color-1"><stop offset="0" stop-color="#000000"/><stop offset="1" stop-color="#ffffff"/></linearGradient><linearGradient x1="264.57788" y1="158.74245" x2="270.84584" y2="157.14233" gradientUnits="userSpaceOnUse" id="color-2"><stop offset="0" stop-color="#000000"/><stop offset="1" stop-color="#ffffff"/></linearGradient></defs><g transform="translate(-159.65033,-128.34983)"><g data-paper-data="{&quot;isPaintingLayer&quot;:true}" fill-rule="nonzero" stroke-linejoin="miter" stroke-miterlimit="10" stroke-dasharray="" stroke-dashoffset="0" style="mix-blend-mode: normal"><path d="M159.65033,227.74026v-95.48052h160.69945v95.48052z" fill="#59ad0d" stroke="none" stroke-width="0" stroke-linecap="butt"/><text transform="translate(207.99001,150.09983) scale(0.5,0.5)" font-size="40" xml:space="preserve" fill="#ffffff" fill-rule="nonzero" stroke="none" stroke-width="1" stroke-linecap="butt" stroke-linejoin="miter" stroke-miterlimit="10" stroke-dasharray="" stroke-dashoffset="0" font-family="Sans Serif" font-weight="normal" text-anchor="start" style="mix-blend-mode: normal"><tspan x="0" dy="0">Ferrari</tspan></text><g><path d="M241.23548,158.66196c0,0 3.70547,-1.71998 5.77025,-2.37586c2.10242,-0.66785 6.73338,-1.59601 6.73338,-1.59601c0,0 4.04398,-0.63181 6.2885,-0.82096c2.75797,-0.23241 9.03857,-0.47063 9.03857,-0.47063c0,0 2.12497,2.40377 2.91985,3.66363c0.63776,1.01084 1.72676,3.25204 1.72676,3.25204l5.28033,20.21731l-0.60001,8.85079c0,0 -6.49389,3.56532 -9.1855,4.73629c-1.72953,0.7524 -5.39647,1.60747 -5.39647,1.60747c0,0 -2.19929,0.3838 -4.28272,0.70089c-1.27798,0.19452 -2.4077,0.3372 -3.26789,0.42953c-1.74099,0.18687 -4.87449,0.2033 -4.87449,0.2033l-27.02154,6.41312c0,0 -4.44279,1.94665 -7.25492,3.16008c-3.70165,1.59727 -13.3866,4.89232 -13.3866,4.89232c0,0 -4.93554,0.90206 -7.61516,1.1455c-3.57793,0.32503 -6.35464,-0.36211 -6.35464,-0.36211c0,0 -2.02001,-4.18103 -2.85537,-7.66473c-0.97445,-4.06378 -3.78487,-13.91284 -5.26654,-21.31302c-0.99132,-4.95116 -0.96417,-8.91424 -0.96417,-8.91424c0,0 4.30028,-2.56955 6.12697,-3.49069c1.75974,-0.88738 5.93924,-2.44912 5.93924,-2.44912c0,0 10.01706,-2.00955 13.88837,-2.31889c3.57848,-0.28593 8.31606,-0.31139 8.31606,-0.31139z" fill="#ff0000" stroke="#000000" stroke-width="0.5" stroke-linecap="round"/><path d="M271.13151,183.30381l5.59975,-1.75948c0,0 0.05695,2.57122 0.00946,3.79974c-0.04382,1.13346 -0.28427,3.30917 -0.28427,3.30917l-4.14029,1.74918z" fill="url(#color-1)" stroke="#000000" stroke-width="0.5" stroke-linecap="round"/><path d="M264.48473,185.59218l5.32332,-1.87935l1.25572,7.22502l-4.86616,2.02283z" fill="none" stroke="#000000" stroke-width="0.5" stroke-linecap="round"/><path d="M263.65145,155.11345l4.4721,-0.44944c0,0 1.25392,1.79419 1.83568,2.76797c0.63054,1.05541 1.81305,3.33931 1.81305,3.33931l-5.7579,1.13997z" data-paper-data="{&quot;index&quot;:null}" fill="url(#color-2)" stroke="#000000" stroke-width="0.5" stroke-linecap="round"/><path d="M257.05534,155.80106l5.24032,-0.55721l2.36112,6.94283l-5.57274,0.90226z" data-paper-data="{&quot;index&quot;:null}" fill="none" stroke="#000000" stroke-width="0.5" stroke-linecap="round"/><path d="M273.2083,171.79803l-0.19249,-0.75403l1.67783,-0.42833l0.19249,0.75403z" fill="#ffd200" stroke="none" stroke-width="0" stroke-linecap="butt"/><path d="M259.52058,169.72594l-0.77804,0.17077l-0.31151,-1.22026l0.77136,-0.19692l1.41772,0.35295z" fill="none" stroke="#000000" stroke-width="0.25" stroke-linecap="round"/><path d="M261.72656,146.05478l3.73813,14.64292" fill="none" stroke="none" stroke-width="0" stroke-linecap="round"/><path d="M232.21365,171.16939l1.4656,7.59239" fill="none" stroke="none" stroke-width="0" stroke-linecap="round"/><path d="M241.48172,160.72573c0,0 0.21675,-0.14323 0.08491,-0.01704c-0.86112,0.82429 -10.04268,9.54896 -10.04268,9.54896c0,0 -1.19872,0.93296 -2.08738,1.15147c-2.57932,0.63422 -12.07783,3.10015 -12.07783,3.10015l-12.47691,-1.58065l10.39547,-4.08356z" fill="#617298" stroke="#000000" stroke-width="0.5" stroke-linecap="round"/><path d="M249.72086,195.50071c0,0 0.15287,0.15739 -0.15077,0.22393c-2.13994,0.46889 -26.52046,5.45015 -26.52046,5.45015l-10.16643,0.53015l9.88344,-6.01803c0,0 9.19646,-2.23344 11.96134,-2.91404c1.02972,-0.25348 2.79995,-0.37772 2.79995,-0.37772l12.19297,3.10557z" fill="#617298" stroke="#000000" stroke-width="0.5" stroke-linecap="round"/><path d="M217.90487,195.21982l-12.34472,7.26524c0,0 -5.08581,-1.20253 -8.66782,-4.22364c-2.18471,-1.84261 -3.3513,-5.21502 -3.79706,-6.92297c-0.4708,-1.80394 -1.18635,-5.76742 -0.0806,-8.60683c1.645,-4.22411 5.50196,-7.23439 5.50196,-7.23439l14.9374,1.64117z" fill="#617298" stroke="#000000" stroke-width="0.5" stroke-linecap="round"/><path d="M261.38712,168.63668l-0.86289,0.22028" fill="none" stroke="#000000" stroke-width="0.25" stroke-linecap="round"/><path d="M262.30351,180.39387l-0.77805,0.17077l-0.31151,-1.22026l0.77137,-0.19692l1.41772,0.35295z" fill="none" stroke="#000000" stroke-width="0.25" stroke-linecap="round"/><path d="M263.30718,179.5249l0.86289,-0.22028" fill="none" stroke="#000000" stroke-width="0.25" stroke-linecap="round"/><path d="M251.10389,165.42951l20.90503,-3.64706" fill="none" stroke="#000000" stroke-width="0.25" stroke-linecap="round"/><path d="M256.0698,187.42762l20.09511,-6.81969" data-paper-data="{&quot;index&quot;:null}" fill="none" stroke="#000000" stroke-width="0.25" stroke-linecap="round"/><path d="M190.92412,180.86666l-1.33257,-5.21991" fill="none" stroke="#000000" stroke-width="0.5" stroke-linecap="round"/><path d="M200.01487,210.86786l-4.05335,-1.56521c0,0 -0.5136,-0.74889 -0.81663,-1.90499c-1.71098,-6.52788 -7.12215,-28.39845 -7.95169,-31.76606c-0.20742,-0.84204 0.03127,-1.79814 0.03127,-1.79814l2.58672,-2.93534" fill="none" stroke="#000000" stroke-width="0.5" stroke-linecap="round"/><path d="M215.38977,168.42539l-0.60918,-2.38626" fill="none" stroke="#000000" stroke-width="0.5" stroke-linecap="round"/><path d="M223.31851,201.35059l0.5711,2.2371" fill="none" stroke="#000000" stroke-width="0.5" stroke-linecap="round"/><path d="M238.27995,163.32007l-1.43017,-2.10191l-1.17216,-0.2264l-1.27315,-2.65362c0,0 -0.00232,-0.16114 0.24209,-0.08808c0.46441,0.13881 2.33769,0.85925 2.33769,0.85925l1.97758,3.5461" fill="#ff0000" stroke="#000000" stroke-width="0.5" stroke-linecap="round"/><path d="M247.56325,195.10425l-0.03583,4.06009c0,0 -1.29873,1.5302 -1.63977,1.87463c-0.17948,0.18127 -0.25468,0.03874 -0.25468,0.03874l-0.1546,-2.93916l0.92021,-0.76056l0.24766,-2.53023" data-paper-data="{&quot;index&quot;:null}" fill="#ff0000" stroke="#000000" stroke-width="0.5" stroke-linecap="round"/><path d="M210.92797,205.50658l-2.30113,0.94255l-3.84225,2.37324l-2.83367,0.7234l-1.02799,-4.02681l2.68453,-0.68532l4.75419,-0.04559l2.29981,-0.32545" data-paper-data="{&quot;index&quot;:null}" fill="none" stroke="#000000" stroke-width="0.5" stroke-linecap="round"/><path d="M196.10843,202.41909l1.37065,5.36908" fill="none" stroke="#000000" stroke-width="0.5" stroke-linecap="round"/><path d="M250.11032,195.53226l-0.43245,-0.09386" fill="none" stroke="#000000" stroke-width="0.5" stroke-linecap="round"/><path d="M202.10546,171.14945l-2.17439,0.81675l-4.19428,2.23883l-2.68453,0.68532l-1.02799,-4.02681l2.83367,-0.7234l4.50966,0.24112l2.47134,-0.2758" fill="none" stroke="#000000" stroke-width="0.5" stroke-linecap="round"/><path d="M243.87495,160.4967c0,0 2.48011,1.85116 3.25311,2.75892c0.85266,1.0013 1.64737,2.99581 1.64737,2.99581l5.44832,21.34205c0,0 0.00538,2.63127 -0.39439,3.69589c-0.44622,1.18834 -2.15896,3.10385 -2.15896,3.10385l-12.64853,-3.06189l-5.57971,-20.73661z" fill="#617298" stroke="#000000" stroke-width="0.5" stroke-linecap="round"/><path d="M209.31254,168.55032c0.22473,0.88032 -0.6072,1.85283 -1.85817,2.17218c-1.25097,0.31935 -2.44726,-0.13539 -2.67199,-1.0157c-0.22473,-0.88032 0.6072,-1.85283 1.85817,-2.17218c1.25097,-0.31935 2.44726,0.13539 2.67199,1.0157z" fill="#ff0000" stroke="#000000" stroke-width="0.25" stroke-linecap="butt"/><path d="M219.15657,203.37742c0.22473,0.88032 -0.6072,1.85283 -1.85817,2.17218c-1.25097,0.31935 -2.44726,-0.13539 -2.67199,-1.0157c-0.22473,-0.88032 0.6072,-1.85283 1.85817,-2.17218c1.25097,-0.31935 2.44726,0.13539 2.67199,1.0157z" fill="#ff0000" stroke="#000000" stroke-width="0.25" stroke-linecap="butt"/><path d="M224.55208,202.04034l1.36863,-0.23941" fill="none" stroke="#000000" stroke-width="0.25" stroke-linecap="round"/><path d="M217.68156,166.51098l-1.03252,0.26359" fill="none" stroke="#000000" stroke-width="0.25" stroke-linecap="round"/></g></g></g></svg>