<svg version="1.1" xmlns="http://www.w3.org/2000/svg" xmlns:xlink="http://www.w3.org/1999/xlink" width="72.27071" height="38.8111" viewBox="0,0,72.27071,38.8111"><g transform="translate(-203.80184,-160.59444)"><g data-paper-data="{&quot;isPaintingLayer&quot;:true}" fill-rule="nonzero" stroke-width="0.25" stroke-linecap="round" stroke-linejoin="miter" stroke-miterlimit="10" stroke-dasharray="" stroke-dashoffset="0" style="mix-blend-mode: normal"><path d="M207.28031,194.90703c0,0 -1.33662,-1.12958 -1.77996,-2.98467c-0.44025,-1.84221 -1.14235,-4.38348 -1.44953,-6.81765c-0.24066,-1.90698 -0.14359,-3.74822 -0.12399,-5.13613c0.02809,-1.98871 -0.02102,-4.37483 0.40532,-6.54723c0.35376,-1.80254 1.15017,-3.4195 1.54157,-4.88957c0.3318,-1.24622 1.82969,-3.57363 1.82969,-3.57363c0,0 2.06961,-0.48827 3.63184,-0.68852c2.00414,-0.25689 3.71969,-0.22047 4.97134,0.00655c1.56146,0.28324 3.67537,0.7082 3.67537,0.7082c0,0 12.08172,-0.48981 18.01293,-0.48981c5.78855,0 17.15676,0.48981 17.15676,0.48981c0,0 3.20471,-0.45672 6.16283,-0.8339c2.38372,-0.30395 4.73232,-0.12514 6.17821,0.07122c2.2468,0.30511 4.9353,1.2525 4.9353,1.2525c0,0 2.48578,2.00108 2.99238,4.65218c0.49766,1.99626 0.51255,4.25789 0.52719,5.87832c0.02087,2.30943 0.04124,5.23483 0.02909,7.96053c-0.00705,1.58255 -0.37515,4.06908 -0.83019,5.78804c-0.74812,2.82611 -3.00053,5.09249 -3.00053,5.09249c0,0 -2.6227,0.67983 -4.61198,0.9065c-1.42115,0.15123 -4.4151,0.16309 -6.84439,-0.02722c-3.07637,-0.24101 -5.94337,-0.40694 -5.94337,-0.40694c0,0 -11.14577,0.45058 -16.84977,0.43049c-5.88434,-0.02071 -17.93209,-0.55294 -17.93209,-0.55294c0,0 -2.12537,0.22831 -3.65621,0.47337c-1.20964,0.19364 -2.77763,0.25612 -5.08736,0.00468c-1.8521,-0.20162 -3.94045,-0.76671 -3.94045,-0.76671z" fill="#1b2e14" stroke="#000000"/><path d="M273.94337,173.07887c0,0 -0.52857,-0.429 -0.73243,-0.8197c-0.19008,-0.36431 -0.55096,-1.25346 -0.55096,-1.25346l-1.57955,-4.14632c0,0 0.15969,-0.26578 0.39838,-0.24986c0.25396,0.01693 0.68756,0.05242 0.68756,0.05242c0,0 1.0234,2.0034 1.37581,2.92637c0.33805,0.88537 0.69735,2.50334 0.69735,2.50334z" data-paper-data="{&quot;index&quot;:null}" fill="#455050" stroke="#000000"/><path d="M272.14651,168.63969l-0.45965,-1.1622" fill="none" stroke="#ffffff"/><path d="M272.67148,170.04478l0.42049,1.12042" fill="none" stroke="#ffffff"/><path d="M272.06817,167.21893l0.60852,1.34503" fill="none" stroke="#ffffff"/><path d="M273.70048,171.50471l-0.49622,-1.55918" fill="none" stroke="#ffffff"/><path d="M274.04209,188.31122c0,0 -0.3593,1.61797 -0.69735,2.50334c-0.35241,0.92297 -1.37581,2.92637 -1.37581,2.92637c0,0 -0.4336,0.03549 -0.68756,0.05242c-0.23869,0.01591 -0.39838,-0.24986 -0.39838,-0.24986l1.57955,-4.14632c0,0 0.36089,-0.88915 0.55096,-1.25346c0.20384,-0.39071 0.73243,-0.8197 0.73243,-0.8197z" data-paper-data="{&quot;index&quot;:null}" fill="#455050" stroke="#000000"/><path d="M271.48942,192.92538l0.45966,-1.1622" data-paper-data="{&quot;index&quot;:null}" fill="none" stroke="#ffffff"/><path d="M272.47404,190.35808l0.42049,-1.12042" data-paper-data="{&quot;index&quot;:null}" fill="none" stroke="#ffffff"/><path d="M272.47925,191.83892l-0.60852,1.34503" data-paper-data="{&quot;index&quot;:null}" fill="none" stroke="#ffffff"/><path d="M273.50305,188.89815l-0.49622,1.55919" data-paper-data="{&quot;index&quot;:null}" fill="none" stroke="#ffffff"/><path d="M273.87433,173.08418c0,0 0.29713,1.46008 0.45004,3.10963c0.1272,1.37212 0.1166,2.85635 0.10305,3.9158c-0.01322,1.0333 -0.02964,2.57211 -0.18377,3.91372c-0.20126,1.75186 -0.55031,3.211 -0.55031,3.211" fill="none" stroke="#000000"/><path d="M270.96936,192.77013l-11.38376,0.26925c0,0 -0.60911,-0.00231 -0.76399,-0.19117c-0.13744,-0.16759 -0.3891,-0.39219 -0.3891,-0.39219" fill="none" stroke="#000000"/><path d="M258.72807,167.81827c0,0 0.25167,-0.22461 0.38911,-0.3922c0.15487,-0.18885 0.76398,-0.19116 0.76398,-0.19116l11.38376,0.26925" data-paper-data="{&quot;index&quot;:null}" fill="none" stroke="#000000"/><path d="M248.66145,171.08193c0,0 3.86559,-1.0735 5.52246,-1.71565c1.47574,-0.57196 3.9384,-1.95117 3.9384,-1.95117c0,0 0.52089,0.2025 0.87294,0.93656c0.45889,0.95683 0.7212,2.47975 1.01076,4.03983c0.45945,2.47529 0.23046,5.36794 0.20464,7.74431c-0.02298,2.11379 -0.11218,5.2935 -0.63063,7.9599c-0.34729,1.78615 -0.6079,3.08365 -0.95228,3.89078c-0.22194,0.52018 -0.5407,0.81896 -0.5407,0.81896c0,0 -2.13337,-1.38235 -3.73465,-1.90949c-1.58193,-0.52076 -5.63041,-1.81903 -5.63041,-1.81903c0,0 0.45486,-5.64264 0.4932,-8.93804c0.03594,-3.08852 -0.55373,-9.05697 -0.55373,-9.05697z" fill="#203756" stroke="#000000"/><path d="M231.95394,169.41621c0,0 -3.69689,-0.08385 -5.42315,-0.38264c-1.69554,-0.29346 -4.42084,-0.83023 -4.42084,-0.83023c0,0 -0.1005,-0.20095 0.3579,-0.34878c0.98767,-0.31854 3.13159,-0.75008 4.33768,-0.92573c2.03206,-0.37535 5.48687,-0.71403 5.48687,-0.71403c0,0 6.06845,-0.06626 9.60522,-0.10411c4.75506,-0.04539 14.48295,0.64003 14.48295,0.64003c0,0 -0.96998,0.6583 -1.98702,1.07555c-1.41555,0.58074 -5.78382,1.73098 -5.78382,1.73098z" fill="#203756" stroke="#000000"/><path d="M248.58506,190.51752c0,0 4.36826,1.15024 5.78382,1.73098c1.01704,0.41725 1.98702,1.07555 1.98702,1.07555c0,0 -9.72788,0.68541 -14.48295,0.64003c-3.53676,-0.03785 -9.60522,-0.10411 -9.60522,-0.10411c0,0 -3.45481,-0.33868 -5.48687,-0.71403c-1.20609,-0.17564 -3.35002,-0.6072 -4.33768,-0.92573c-0.4584,-0.14784 -0.3579,-0.34878 -0.3579,-0.34878c0,0 2.7253,-0.53677 4.42084,-0.83023c1.72626,-0.29878 5.42315,-0.38264 5.42315,-0.38264z" data-paper-data="{&quot;index&quot;:null}" fill="#203756" stroke="#000000"/><path d="M253.33606,166.59733l-0.2468,-1.48083" fill="none" stroke="#000000"/><path d="M253.29492,193.62246l-0.16454,1.60423" fill="none" stroke="#000000"/><path d="M217.90005,190.2906c0,0 -7.43788,-0.59098 -8.71974,-0.73536c-0.36263,-0.04084 -0.69783,-0.32541 -0.69783,-0.32541c0,0 -0.53759,-2.6764 -0.52357,-4.7724c0.01212,-1.81405 -0.17639,-5.65059 0.00957,-8.80688c0.17428,-2.95805 0.72416,-4.97304 0.72416,-4.97304c0,0 0.28307,-0.28861 0.73523,-0.33082c1.3845,-0.12929 8.60007,-0.54089 8.60007,-0.54089c0,0 -1.06532,6.90785 -1.08656,10.31068c-0.02138,3.4253 0.95869,10.17413 0.95869,10.17413z" fill="#203756" stroke="#000000"/><path d="M218.04296,169.8058c0,0 0.36093,0.00353 0.53645,0.04218c0.16914,0.03724 0.34636,0.41346 0.34636,0.41346c0,0 -0.27003,2.36914 -0.38174,4.74934c-0.10376,2.21075 -0.05005,4.42062 -0.04282,5.01372c0.01027,0.84297 -0.00516,1.83798 0.07878,2.96158c0.23915,3.20132 0.36476,6.45021 0.36476,6.45021c0,0 -0.19791,0.6366 -0.44269,0.6811c-0.19744,0.0359 -0.4591,0.17322 -0.4591,0.17322" fill="none" stroke="#000000"/><path d="M205.72327,169.65048l2.42834,0.08794c0,0 0.35117,0.21035 0.42155,0.29481c0.06651,0.07982 0.19405,0.36902 0.19405,0.36902" fill="none" stroke="#000000"/><path d="M208.49797,189.48462c0,0 -0.12753,0.28921 -0.19404,0.36902c-0.07038,0.08446 -0.42155,0.29481 -0.42155,0.29481l-2.42834,0.08794" data-paper-data="{&quot;index&quot;:null}" fill="none" stroke="#000000"/><path d="M250.90666,163.96469l0.30164,1.49454c0,0 -0.468,0.09217 -0.68907,0.08389c-0.20508,-0.00768 -0.59295,-0.13188 -0.59295,-0.13188c0,0 -0.11106,-0.67708 -0.26466,-0.96428c-0.16137,-0.30169 -0.68142,-0.80449 -0.68142,-0.80449c0,0 0.60261,0.21297 0.95884,0.25693c0.3474,0.04286 0.96761,0.0653 0.96761,0.0653z" fill="#000000" stroke="#000000"/><path d="M248.56226,163.28993l-0.68346,-2.50603c0,0 0.80517,-0.11768 1.22323,-0.06543c0.39004,0.04876 1.13092,0.52106 1.13092,0.52106c0,0 0.58336,0.93913 0.76078,1.33199c0.17697,0.39185 0.30238,1.24995 0.30238,1.24995c0,0 -0.89361,0.19573 -1.3535,0.09225c-0.53978,-0.12146 -1.38033,-0.62383 -1.38033,-0.62383z" fill="#1b2e14" stroke="#000000"/><path d="M250.26313,196.15449c-0.35623,0.04395 -0.95884,0.25693 -0.95884,0.25693c0,0 0.52005,-0.50281 0.68142,-0.80449c0.15361,-0.28719 0.26466,-0.96428 0.26466,-0.96428c0,0 0.39078,-0.12432 0.59652,-0.13202c0.22056,-0.00825 0.68548,0.08403 0.68548,0.08403l-0.30164,1.49454c0,0 -0.62021,0.02243 -0.96761,0.0653z" data-paper-data="{&quot;index&quot;:null}" fill="#000000" stroke="#000000"/><path d="M250.21184,196.08529c0.4599,-0.10348 1.3535,0.09225 1.3535,0.09225c0,0 -0.12542,0.85811 -0.30237,1.24995c-0.17742,0.39286 -0.76078,1.33199 -0.76078,1.33199c0,0 -0.74088,0.4723 -1.13092,0.52106c-0.41804,0.05225 -1.22323,-0.06543 -1.22323,-0.06543l0.68346,-2.50603c0,0 0.84054,-0.50236 1.38034,-0.62383z" data-paper-data="{&quot;index&quot;:null}" fill="#1b2e14" stroke="#000000"/><path d="M273.29194,185.70841l-11.9289,1.48083" fill="none" stroke="#000000"/><path d="M273.20967,174.27312l-11.59983,-1.80991" fill="none" stroke="#000000"/><path d="M272.90043,179.959l0.32478,-0.00504c0,0 0.13439,0.10561 0.12603,0.16651c-0.00836,0.0609 -0.11633,0.14128 -0.11633,0.14128h-0.32962z" fill="#000000" stroke="#252525"/><path d="M225.23776,195.15345l-0.50626,-1.40174c0,0 0.05784,-0.32704 0.15331,-0.44978c0.07829,-0.10067 0.41941,-0.31594 0.41941,-0.31594" fill="none" stroke="#000000"/><path d="M225.39334,167.05197c0,0 -0.34112,-0.21529 -0.41941,-0.31594c-0.09546,-0.12275 -0.15331,-0.44978 -0.15331,-0.44978l0.50626,-1.40172" data-paper-data="{&quot;index&quot;:null}" fill="none" stroke="#000000"/><path d="M226.81631,166.03406l0.39489,-0.43877l1.65634,-0.14261l0.53748,0.24133" fill="none" stroke="#000000"/><path d="M238.37776,164.7068l0.36197,1.29436" fill="none" stroke="#000000"/><path d="M239.90246,165.58432l0.39489,-0.42779h1.19564l0.76783,0.34004" fill="none" stroke="#000000"/><path d="M229.26399,194.38136l-0.53748,0.24133l-1.65634,-0.14261l-0.39489,-0.43877" data-paper-data="{&quot;index&quot;:null}" fill="none" stroke="#000000"/><path d="M238.59871,194.07422l-0.36197,1.29436" data-paper-data="{&quot;index&quot;:null}" fill="none" stroke="#000000"/><path d="M242.11979,194.57882l-0.76783,0.34004h-1.19564l-0.39489,-0.42779" data-paper-data="{&quot;index&quot;:null}" fill="none" stroke="#000000"/><path d="M221.70471,166.76663l-11.7056,1.41031" fill="none" stroke="#000000"/><path d="M222.26884,193.42156l-12.55178,-1.55134" fill="none" stroke="#000000"/></g></g></svg>