<svg version="1.1" xmlns="http://www.w3.org/2000/svg" xmlns:xlink="http://www.w3.org/1999/xlink" width="72.56945" height="34.50909" viewBox="0,0,72.56945,34.50909"><g transform="translate(-203.71528,-162.74545)"><g data-paper-data="{&quot;isPaintingLayer&quot;:true}" fill-rule="nonzero" stroke="#000000" stroke-linecap="round" stroke-linejoin="miter" stroke-miterlimit="10" stroke-dasharray="" stroke-dashoffset="0" style="mix-blend-mode: normal"><path d="M206.69487,186.66838c0,0 -1.16961,-3.02304 -1.05802,-6.55105c0.11254,-3.40619 1.39611,-7.20199 1.39611,-7.20199c0,0 0.50464,-3.74678 0.66583,-4.6352c0.06875,-0.37896 0.21511,-1.03048 0.61915,-1.59847c0.42426,-0.59643 1.2382,-1.22949 1.2382,-1.22949c0,0 4.40942,-0.62212 7.22088,-0.62212c2.93178,0 8.82859,0.75084 8.82859,0.75084l30.31415,0.20916c0,0 5.23358,-0.90456 7.10385,-0.9349c1.61486,-0.0262 6.38657,0.63468 6.38657,0.63468c0,0 2.08275,0.90647 2.86556,1.3535c0.78502,0.66014 1.16341,1.57477 1.16341,1.57477l1.20094,4.24225c0,0 1.39464,2.47804 1.39464,7.35824c0,4.83014 -1.47213,7.13297 -1.47213,7.13297l-1.19742,4.06477c0,0 -0.29929,1.01453 -0.89162,1.46376c-0.68902,0.52257 -3.39495,1.61372 -3.39495,1.61372c0,0 -4.02746,0.87003 -5.85466,0.88703c-1.87176,0.01742 -7.2378,-0.65507 -7.2378,-0.65507l-30.15917,-0.09117c0,0 -5.72175,0.75084 -8.74004,0.75084c-2.73992,0 -7.89237,-0.75084 -7.89237,-0.75084c0,0 -0.79734,-0.5447 -0.99161,-1.08851c-0.18887,-0.5287 -0.49687,-1.1512 -0.56964,-1.55009c-0.14981,-0.82117 -0.93844,-5.12762 -0.93844,-5.12762z" fill="#a53939" stroke-width="0.5"/><path d="M244.54035,172.32738c0,0 0.72526,-1.43734 2.23567,-1.93765c1.74901,-0.57933 7.64794,-1.93686 7.64794,-1.93686c0,0 2.1651,0.27635 3.04632,2.95254c0.7328,2.22543 0.96736,6.71634 0.95107,8.50618c-0.01578,1.7341 -0.2711,6.67336 -0.91861,8.92096c-0.83467,2.8972 -2.86275,2.94642 -2.86275,2.94642c0,0 -6.23624,-1.71798 -7.82929,-2.2602c-1.75734,-0.59813 -2.27035,-1.62784 -2.27035,-1.62784z" fill="#4c5e73" stroke-width="0.5"/><path d="M252.71235,192.46048c0,0 -10.27494,0.64907 -13.41628,0.68309c-5.10805,0.05532 -14.31474,-0.38275 -14.31474,-0.38275c0,0 -1.23969,-0.0525 -1.69658,-0.18043c-0.34639,-0.09698 -1.23528,-0.46672 -1.23528,-0.46672l-0.54378,-0.75539c0,0 1.10924,-0.3884 2.4894,-0.84232c1.39806,-0.4598 3.00472,-0.91175 4.98973,-1.17039c2.80008,-0.36484 4.83555,-0.37473 7.68183,-0.22593c2.80959,0.01863 7.40527,1.00746 7.40527,1.00746c0,0 6.91966,1.67678 8.29495,2.05617c1.51451,0.4178 0.34548,0.2772 0.34548,0.2772z" fill="#4c5e73" stroke-width="0.5"/><path d="M252.18667,167.60459c-1.37529,0.3794 -8.29495,2.05617 -8.29495,2.05617c0,0 -4.59567,0.98884 -7.40527,1.00746c-2.84628,0.14881 -4.88175,0.13893 -7.68183,-0.22592c-1.98501,-0.25864 -3.59167,-0.71059 -4.98973,-1.17039c-1.38015,-0.45392 -2.4894,-0.84232 -2.4894,-0.84232l0.54378,-0.75539c0,0 0.88889,-0.36974 1.23528,-0.46672c0.45689,-0.12794 1.69658,-0.18043 1.69658,-0.18043c0,0 9.20667,-0.43807 14.31474,-0.38275c3.14135,0.03402 13.41628,0.68309 13.41628,0.68309c0,0 1.16903,-0.1406 -0.34548,0.2772z" data-paper-data="{&quot;index&quot;:null}" fill="#4c5e73" stroke-width="0.5"/><path d="M223.51917,173.20153l-0.30559,13.66529c0,0 0.06463,0.59047 -0.53493,0.90927c-1.54726,0.8227 -4.92358,1.96087 -5.98251,2.25228c-1.39139,0.38289 -1.77165,-0.3459 -1.77165,-0.3459c0,0 -1.56479,-2.26243 -1.88922,-9.91012c0.7064,-7.6668 2.00381,-10.02468 2.00381,-10.02468c0,0 0.33342,-0.60518 1.43205,-0.34253c1.11862,0.26742 4.55618,1.64888 6.24348,2.66698c0.66842,0.40332 0.80454,1.12943 0.80454,1.12943z" fill="#4c5e73" stroke-width="0.5"/><path d="M209.79561,191.64006c0,0 -1.25152,-1.27305 -2.04313,-2.75068c-0.84685,-1.58076 -1.31519,-2.98301 -1.31519,-2.98301" fill="none" stroke-width="0.5"/><path d="M206.84685,173.29227c0,0 0.46832,-1.40225 1.31519,-2.983c0.79161,-1.47763 2.04313,-2.75068 2.04313,-2.75068" data-paper-data="{&quot;index&quot;:null}" fill="none" stroke-width="0.5"/><path d="M256.3937,168.89915c0,0 0.36673,-0.6513 0.63309,-0.92924c0.21676,-0.22618 0.84714,-0.61536 0.84714,-0.61536c0,0 0.51821,-0.12108 1.09114,-0.05028c1.66273,0.20547 10.86414,1.03532 10.86414,1.03532c0,0 0.92054,0.29688 1.07579,0.88264c0.584,2.20345 1.70892,7.82644 1.73286,10.93248c0.02149,2.78779 -1.34721,8.41251 -1.95515,10.8599c-0.23378,0.94112 -0.88122,0.91162 -0.88122,0.91162c0,0 -8.99349,0.62194 -10.65622,0.8274c-0.57293,0.0708 -1.09114,-0.05028 -1.09114,-0.05028c0,0 -0.63039,-0.38917 -0.84714,-0.61536c-0.26636,-0.27794 -0.63309,-0.92924 -0.63309,-0.92924" fill="none" stroke-width="0.25"/><path d="M271.77779,192.28218c0,0 -1.07295,0.56003 -1.59449,0.75561c-0.37563,0.14086 -1.1141,0.31705 -1.44549,0.3372c-0.21733,0.01321 -0.11954,-0.11071 -0.11954,-0.11071c0,0 2.05926,-0.80204 2.96543,-1.91298c0.86378,-1.05898 2.47064,-4.48417 2.47064,-4.48417c0,0 -0.72255,2.34591 -1.06143,3.25762c-0.14454,0.38887 -0.36134,0.96357 -0.60774,1.35995c-0.23248,0.37396 -0.60737,0.79748 -0.60737,0.79748z" fill="#ffffff" stroke-width="0.25"/><path d="M271.92795,167.8384c0,0 0.37488,0.42353 0.60737,0.79748c0.24641,0.39637 0.46322,0.97108 0.60774,1.35995c0.33887,0.91171 1.06143,3.25762 1.06143,3.25762c0,0 -1.60687,-3.42519 -2.47066,-4.48417c-0.90617,-1.11095 -2.96543,-1.91298 -2.96543,-1.91298c0,0 -0.09779,-0.12392 0.11954,-0.1107c0.33139,0.02014 1.06987,0.19634 1.44549,0.3372c0.52154,0.19558 1.59449,0.75561 1.59449,0.75561z" data-paper-data="{&quot;index&quot;:null}" fill="#ffffff" stroke-width="0.25"/><path d="M252.73478,192.29636l-0.3604,1.12626c0,0 0.30438,0.657 0.10093,0.91243c-0.18719,0.23502 -0.54848,1.13797 -1.07262,1.59286c-0.76837,0.66688 -1.5962,1.06871 -1.5962,1.06871l-0.66074,-0.0901c0,0 -0.43237,-0.26708 -0.29103,-0.61794c0.23471,-0.58266 1.0719,-2.41545 1.0719,-2.41545c0,0 0.30461,-0.51966 0.52586,-0.63418c0.25846,-0.13378 0.88566,-0.11975 0.88566,-0.11975l0.22525,-1.12626z" fill="#333333" stroke-width="0.5"/><path d="M251.06285,168.00706l-0.22525,-1.12626c0,0 -0.62719,0.01403 -0.88566,-0.11975c-0.22124,-0.11453 -0.52586,-0.63418 -0.52586,-0.63418c0,0 -0.83719,-1.83281 -1.0719,-2.41545c-0.14134,-0.35085 0.29103,-0.61794 0.29103,-0.61794l0.66074,-0.0901c0,0 0.82783,0.40182 1.5962,1.06871c0.52412,0.45489 0.88543,1.35784 1.07262,1.59286c0.20344,0.25544 -0.10094,0.91243 -0.10094,0.91243l0.3604,1.12626z" data-paper-data="{&quot;index&quot;:null}" fill="#333333" stroke-width="0.5"/><path d="M275.80787,176.94565c0,0 -2.78202,-0.92143 -3.98534,-1.35463c-1.29302,-0.46549 -4.22384,-2.34951 -4.22384,-2.34951" fill="none" stroke-width="0.5"/><path d="M267.49859,186.75662c0,0 2.93082,-1.88402 4.22384,-2.34951c1.20332,-0.43319 3.98534,-1.35463 3.98534,-1.35463" data-paper-data="{&quot;index&quot;:null}" fill="none" stroke-width="0.5"/><path d="M262.25351,190.85779c0,0 -3.14963,1.08571 -4.7618,1.36617c-1.26547,0.22015 -4.86261,0.67134 -4.86261,0.67134" fill="none" stroke-width="0.5"/><path d="M252.13764,167.10398c0,0 3.59713,0.45119 4.86261,0.67133c1.61217,0.28046 4.7618,1.36617 4.7618,1.36617" data-paper-data="{&quot;index&quot;:null}" fill="none" stroke-width="0.5"/><path d="M209.25491,168.76524h2.98334c0,0 1.09383,0.26303 1.53181,0.47412c0.6096,0.2938 1.07111,0.72723 1.07111,0.72723" fill="none" stroke-width="0.25"/><path d="M214.691,189.48843c0,0 -0.46151,0.43343 -1.07111,0.72723c-0.43798,0.21108 -1.53181,0.47412 -1.53181,0.47412h-2.98334" data-paper-data="{&quot;index&quot;:null}" fill="none" stroke-width="0.25"/><path d="M223.07669,192.50048c0,0 -1.84209,0.39437 -3.68826,0.17381c-1.28744,-0.10892 -3.06643,-0.66039 -3.60894,-1.00711c-1.2343,-0.78884 -1.57218,-3.54948 -1.57218,-3.54948" fill="none" stroke-width="0.5"/><path d="M214.44371,171.50329c0,0 0.31907,-2.60693 1.48463,-3.35185c0.5123,-0.32741 2.19225,-0.84818 3.408,-0.95104c1.74337,-0.20827 3.4829,0.16413 3.4829,0.16413" data-paper-data="{&quot;index&quot;:null}" fill="none" stroke-width="0.5"/><path d="M223.96136,165.56166l-0.30034,1.60179" fill="none" stroke-width="0.25"/><path d="M223.86124,192.69201l0.50055,1.80202" fill="none" stroke-width="0.25"/><path d="M228.85758,165.57369l-0.63148,0.0231c0,0 -0.7369,-0.42851 -1.16857,-0.39162c-0.65377,-0.03894 -0.55885,-0.06199 -0.95903,-0.02999c-0.51846,0.04146 -1.12989,0.30608 -1.12989,0.30608l-0.73086,-0.11118c0,0 0.6107,-0.32493 1.25939,-0.47374c0.6273,-0.14391 1.28649,-0.11216 1.67409,-0.09508c0.74954,0.03303 1.68634,0.77241 1.68634,0.77241z" fill="#a53939" stroke-width="0.25"/><path d="M241.22596,165.68016l-0.63148,0.0231c0,0 -0.7369,-0.42851 -1.16857,-0.39162c-0.65377,-0.03894 -0.55885,-0.06199 -0.95903,-0.02999c-0.51846,0.04146 -1.12989,0.30608 -1.12989,0.30608l-0.73087,-0.11117c0,0 0.6107,-0.32493 1.25939,-0.47374c0.6273,-0.14391 1.28649,-0.11216 1.67409,-0.09508c0.74954,0.03303 1.68634,0.77241 1.68634,0.77241z" fill="#a53939" stroke-width="0.25"/><path d="M228.18487,195.3085c-0.38761,0.01709 -1.04679,0.04883 -1.67409,-0.09508c-0.64869,-0.14881 -1.25939,-0.47374 -1.25939,-0.47374l0.73086,-0.11117c0,0 0.61142,0.26461 1.12989,0.30608c0.40018,0.03201 0.30526,0.00895 0.95903,-0.02999c0.43168,0.0369 1.16857,-0.39161 1.16857,-0.39161l0.63148,0.0231c0,0 -0.9368,0.73937 -1.68634,0.77241z" data-paper-data="{&quot;index&quot;:null}" fill="#a53939" stroke-width="0.25"/><path d="M240.328,195.31465c-0.38761,0.01709 -1.04679,0.04883 -1.67409,-0.09508c-0.64869,-0.14881 -1.25939,-0.47374 -1.25939,-0.47374l0.73087,-0.11118c0,0 0.61142,0.26461 1.12989,0.30608c0.40018,0.03201 0.30526,0.00896 0.95903,-0.02999c0.43168,0.0369 1.16857,-0.39161 1.16857,-0.39161l0.63148,0.0231c0,0 -0.9368,0.73937 -1.68634,0.77241z" data-paper-data="{&quot;index&quot;:null}" fill="#a53939" stroke-width="0.25"/><path d="M236.31893,193.09246l0.33788,1.35151" fill="none" stroke-width="0.25"/><path d="M235.98106,165.83697l-0.33788,1.01363" fill="none" stroke-width="0.25"/><path d="M207.36279,189.89388c0,0 1.13894,2.05059 1.56899,2.64606c0.31298,0.43338 0.43576,0.56002 0.43576,0.56002c0,0 0.31434,0.28997 0.65975,0.49065c0.37596,0.21843 0.7887,0.35189 0.87291,0.42702c0.16376,0.14613 0.04411,0.21609 0.04411,0.21609l-1.52421,-0.63822c0,0 -0.33195,-0.2597 -0.58236,-0.5661c-0.20414,-0.24978 -0.35386,-0.51798 -0.49735,-0.80494c-0.33998,-0.67996 -0.9776,-2.3306 -0.9776,-2.3306z" fill="#650000" stroke-width="0.25"/><path d="M208.4223,167.58957c0.14348,-0.28696 0.2932,-0.55516 0.49735,-0.80494c0.25041,-0.30638 0.58236,-0.5661 0.58236,-0.5661l1.52421,-0.63822c0,0 0.11966,0.06996 -0.04411,0.21609c-0.08421,0.07514 -0.49696,0.20859 -0.87291,0.42702c-0.3454,0.20068 -0.65975,0.49065 -0.65975,0.49065c0,0 -0.12276,0.12665 -0.43575,0.56002c-0.43006,0.59546 -1.569,2.64606 -1.569,2.64606c0,0 0.63762,-1.65064 0.9776,-2.3306z" data-paper-data="{&quot;index&quot;:null}" fill="#670000" stroke-width="0.25"/><path d="M266.64244,172.18323c0,0 -1.75761,-0.86591 -2.23936,-1.23144c-0.22967,-0.17426 -0.55634,-0.57383 -0.68133,-0.77469c-0.10029,-0.16117 -0.02259,-0.14628 -0.02259,-0.14628c0,0 0.62481,-0.01114 1.00853,0.07423c0.38876,0.08649 0.85856,0.3062 0.85856,0.3062c0,0 0.38,0.32074 0.63622,0.67649c0.25831,0.35864 0.39304,0.75288 0.43529,0.88996c0.07905,0.25649 0.00469,0.20553 0.00469,0.20553z" fill="#333333" stroke-width="0.5"/><path d="M266.42982,187.91361c-0.04224,0.13708 -0.17698,0.53132 -0.43529,0.88996c-0.25623,0.35576 -0.63622,0.67649 -0.63622,0.67649c0,0 -0.4698,0.21971 -0.85856,0.3062c-0.38371,0.08536 -1.00853,0.07423 -1.00853,0.07423c0,0 -0.07769,0.01489 0.02259,-0.14628c0.12499,-0.20088 0.45166,-0.60043 0.68133,-0.77469c0.48174,-0.36553 2.23936,-1.23144 2.23936,-1.23144c0,0 0.07436,-0.05096 -0.00468,0.20554z" data-paper-data="{&quot;index&quot;:null}" fill="#333333" stroke-width="0.5"/><path d="M205.18,170.83956l2.10183,-1.10623l1.89287,-0.54082c0,0 1.27667,-0.23561 1.66998,-0.10523c0.35706,0.11837 0.33353,0.85501 0.33353,0.85501l-0.8481,0.68832c0,0 -0.72576,0.34043 -1.1677,0.48105c-0.34509,0.10979 -1.09391,0.80954 -1.09391,0.80954c0,0 -1.40984,5.15618 -1.42631,7.75687c-0.0163,2.57371 1.32798,7.76715 1.32798,7.76715c0,0 0.72756,0.81994 1.16265,1.05002c0.41628,0.22015 1.30791,0.4741 1.30791,0.4741c0,0 0.82869,0.30433 0.80962,0.69425c-0.02459,0.50288 -0.51463,0.9528 -0.51463,0.9528l-1.83142,-0.08604l-1.62247,-0.5654l-2.18786,-1.61018c0,0 -1.18267,-5.68672 -1.12675,-8.58875c0.05866,-3.04428 1.21279,-8.92647 1.21279,-8.92647z" fill="#333333" stroke-width="0.5"/></g></g></svg>