<svg version="1.1" xmlns="http://www.w3.org/2000/svg" xmlns:xlink="http://www.w3.org/1999/xlink" width="96.71313" height="46.96965" viewBox="0,0,96.71313,46.96965"><defs><radialGradient cx="235.9911" cy="170.90694" r="8.10194" gradientUnits="userSpaceOnUse" id="color-1"><stop offset="0" stop-color="#00bfba"/><stop offset="1" stop-color="#2100bf"/></radialGradient></defs><g transform="translate(-191.64343,-156.51518)"><g data-paper-data="{&quot;isPaintingLayer&quot;:true}" fill-rule="nonzero" stroke-linejoin="miter" stroke-miterlimit="10" stroke-dasharray="" stroke-dashoffset="0" style="mix-blend-mode: normal"><path d="M193.34954,189.11275c0,0 -1.59834,-4.13116 -1.44586,-8.95239c0.1538,-4.65477 1.90787,-9.84195 1.90787,-9.84195c0,0 0.68963,-5.12021 0.90989,-6.33429c0.09395,-0.51788 0.29397,-1.4082 0.84611,-2.1844c0.57977,-0.81506 1.69206,-1.68018 1.69206,-1.68018c0,0 6.02573,-0.85016 9.86777,-0.85016c4.00645,0 12.06479,1.02606 12.06479,1.02606l41.42608,0.28583c0,0 7.15199,-1.23613 9.70783,-1.2776c2.2068,-0.03581 8.72762,0.86734 8.72762,0.86734c0,0 2.8462,1.23874 3.91596,1.84964c1.07278,0.90212 1.58987,2.15202 1.58987,2.15202l1.64116,5.79729c0,0 1.90586,3.38638 1.90586,10.05546c0,6.60067 -2.01175,9.74763 -2.01175,9.74763l-1.63635,5.55475c0,0 -0.40899,1.38641 -1.21845,2.00031c-0.94158,0.71412 -4.6394,2.20524 -4.6394,2.20524c0,0 -5.50376,1.18895 -8.00074,1.21218c-2.55787,0.0238 -9.89088,-0.89519 -9.89088,-0.89519l-41.2143,-0.12459c0,0 -7.81911,1.02606 -11.94379,1.02606c-3.74426,0 -10.78539,-1.02606 -10.78539,-1.02606c0,0 -1.08962,-0.74437 -1.3551,-1.48751c-0.2581,-0.7225 -0.679,-1.57318 -0.77845,-2.11828c-0.20473,-1.12218 -1.28243,-7.00719 -1.28243,-7.00719z" fill="#031631" stroke="#000000" stroke-width="0.5" stroke-linecap="round"/><path d="M260.90088,199.261c-11.88301,0.2357 -53.76384,0.63375 -53.76384,0.63375l2.11977,-0.36866l-0.47995,-0.79192c0,0 15.57123,0.17975 24.80321,0.17718c10.84831,-0.00303 38.39117,-0.3026 38.39117,-0.3026c0,0 -4.13031,0.51459 -11.07036,0.65225z" fill="#a50000" stroke="none" stroke-width="0" stroke-linecap="round"/><path d="M271.46544,161.71303c0,0 -27.54286,-0.29956 -38.39117,-0.3026c-9.23198,-0.00257 -24.80321,0.17717 -24.80321,0.17717l0.47995,-0.79192l-2.11977,-0.36866c0,0 41.88084,0.39804 53.76384,0.63374c6.94005,0.13766 11.07036,0.65226 11.07036,0.65226z" data-paper-data="{&quot;index&quot;:null}" fill="#a50000" stroke="none" stroke-width="0" stroke-linecap="round"/><path d="M211.62449,192.33767l0.27581,-24.8909c0,0 12.82454,1.90165 18.25759,1.90165c5.55642,0 17.21509,-2.13935 17.21509,-2.13935l0.35655,25.92248c0,0 -7.69489,-2.47063 -17.47247,-2.53479c-6.29963,-0.04135 -18.63256,1.74091 -18.63256,1.74091z" fill="#ffffff" stroke="#000000" stroke-width="0.25" stroke-linecap="butt"/><path d="M244.47338,169.43964c0,0 0.99112,-1.96421 3.05518,-2.64791c2.39012,-0.79169 10.45137,-2.64683 10.45137,-2.64683c0,0 2.95873,0.37765 4.16298,4.03482c1.00141,3.04118 1.32195,9.17829 1.29969,11.6242c-0.02156,2.36975 -0.37047,9.11954 -1.25534,12.19102c-1.14062,3.95919 -3.91211,4.02645 -3.91211,4.02645c0,0 -8.52219,-2.34772 -10.6992,-3.08869c-2.4015,-0.81739 -3.10257,-2.22454 -3.10257,-2.22454z" fill="#4c5e73" stroke="#000000" stroke-width="0.5" stroke-linecap="round"/><path d="M256.23517,197.028c0,0 -14.04131,0.88699 -18.33414,0.93348c-6.98046,0.0756 -19.56193,-0.52305 -19.56193,-0.52305c0,0 -1.69411,-0.07175 -2.31848,-0.24656c-0.47335,-0.13254 -1.68807,-0.6378 -1.68807,-0.6378l-0.74311,-1.03228c0,0 1.51584,-0.53077 3.40191,-1.15109c1.91053,-0.62835 4.10612,-1.24596 6.81876,-1.59941c3.82648,-0.49858 6.60807,-0.51209 10.49768,-0.30874c3.83948,0.02545 10.11975,1.37676 10.11975,1.37676c0,0 9.45612,2.29143 11.33554,2.80988c2.06967,0.57094 0.47212,0.37882 0.47212,0.37882z" fill="#4c5e73" stroke="#000000" stroke-width="0.5" stroke-linecap="round"/><path d="M255.51679,163.06096c-1.87941,0.51847 -11.33554,2.80988 -11.33554,2.80988c0,0 -6.28026,1.35131 -10.11975,1.37676c-3.88962,0.20335 -6.6712,0.18985 -10.49768,-0.30873c-2.71263,-0.35345 -4.90823,-0.97106 -6.81876,-1.59941c-1.88606,-0.62031 -3.40191,-1.15109 -3.40191,-1.15109l0.74311,-1.03228c0,0 1.21472,-0.50527 1.68807,-0.6378c0.62437,-0.17483 2.31848,-0.24656 2.31848,-0.24656c0,0 12.58147,-0.59865 19.56193,-0.52305c4.29284,0.04649 18.33415,0.93348 18.33415,0.93348c0,0 1.59755,-0.19213 -0.47212,0.37882z" data-paper-data="{&quot;index&quot;:null}" fill="#4c5e73" stroke="#000000" stroke-width="0.5" stroke-linecap="round"/><path d="M216.34095,170.70949l-0.4176,18.67443c0,0 0.08832,0.80692 -0.73101,1.24257c-2.11442,1.12427 -6.72837,2.67965 -8.17546,3.07787c-1.90142,0.52324 -2.42107,-0.47269 -2.42107,-0.47269c0,0 -2.13838,-3.09175 -2.58172,-13.54277c0.96534,-10.47714 2.73832,-13.69931 2.73832,-13.69931c0,0 0.45564,-0.82701 1.95698,-0.4681c1.52866,0.36544 6.22629,2.25329 8.53208,3.64459c0.91344,0.55116 1.09946,1.54342 1.09946,1.54342z" fill="#4c5e73" stroke="#000000" stroke-width="0.5" stroke-linecap="round"/><path d="M197.5869,195.90685c0,0 -1.71027,-1.7397 -2.79205,-3.75896c-1.15728,-2.16021 -1.79728,-4.07646 -1.79728,-4.07646" fill="none" stroke="#000000" stroke-width="0.5" stroke-linecap="round"/><path d="M193.55725,170.83349c0,0 0.64,-1.91625 1.79728,-4.07645c1.08178,-2.01926 2.79205,-3.75896 2.79205,-3.75896" data-paper-data="{&quot;index&quot;:null}" fill="none" stroke="#000000" stroke-width="0.5" stroke-linecap="round"/><path d="M260.96497,165.07632c0,0 0.66533,-1.13629 1.02933,-1.51611c0.29621,-0.30909 1.15767,-0.84092 1.15767,-0.84092c0,0 0.70817,-0.16547 1.49111,-0.06872c2.27222,0.28078 14.8465,1.41483 14.8465,1.41483c0,0 1.25797,0.40569 1.47012,1.20617c0.79807,3.01115 2.33535,10.6953 2.36806,14.93989c0.02937,3.80968 -1.84105,11.4962 -2.67183,14.8407c-0.31947,1.2861 -1.20424,1.24579 -1.20424,1.24579c0,0 -12.29014,0.84992 -14.56236,1.1307c-0.78293,0.09675 -1.49111,-0.06872 -1.49111,-0.06872c0,0 -0.86147,-0.53183 -1.15767,-0.84092c-0.36399,-0.37981 -0.86515,-1.26986 -0.86515,-1.26986" fill="none" stroke="#000000" stroke-width="0.25" stroke-linecap="round"/><path d="M282.28922,196.78433c0,0 -1.46625,0.76531 -2.17897,1.03259c-0.51332,0.1925 -1.52249,0.43328 -1.97536,0.46081c-0.297,0.01805 -0.16337,-0.1513 -0.16337,-0.1513c0,0 2.8141,-1.09602 4.05244,-2.61421c1.1804,-1.44716 3.37628,-6.12789 3.37628,-6.12789c0,0 -0.98741,3.20582 -1.4505,4.45173c-0.19752,0.53141 -0.49379,1.31678 -0.83052,1.85845c-0.3177,0.51103 -0.83001,1.08981 -0.83001,1.08981z" fill="#ffffff" stroke="#000000" stroke-width="0.25" stroke-linecap="round"/><path d="M282.49444,163.38046c0,0 0.5123,0.57878 0.83001,1.08981c0.33673,0.54166 0.63301,1.32704 0.83052,1.85845c0.46308,1.24591 1.4505,4.45173 1.4505,4.45173c0,0 -2.19588,-4.68073 -3.37629,-6.12789c-1.23834,-1.51818 -4.05244,-2.61421 -4.05244,-2.61421c0,0 -0.13363,-0.16935 0.16337,-0.15129c0.45286,0.02753 1.46203,0.26831 1.97536,0.46081c0.71273,0.26727 2.17897,1.03259 2.17897,1.03259z" data-paper-data="{&quot;index&quot;:null}" fill="#ffffff" stroke="#000000" stroke-width="0.25" stroke-linecap="round"/><path d="M256.26581,196.80372l-0.49251,1.5391c0,0 0.41595,0.89783 0.13793,1.24689c-0.2558,0.32117 -0.74954,1.55511 -1.46579,2.17674c-1.05002,0.91133 -2.1813,1.46045 -2.1813,1.46045l-0.90293,-0.12313c0,0 -0.59085,-0.36499 -0.39772,-0.84445c0.32075,-0.79623 1.46482,-3.30087 1.46482,-3.30087c0,0 0.41627,-0.71014 0.71861,-0.86665c0.35321,-0.18282 1.2103,-0.16365 1.2103,-0.16365l0.30782,-1.5391z" fill="#031631" stroke="#000000" stroke-width="0.5" stroke-linecap="round"/><path d="M253.98103,163.61095l-0.30782,-1.5391c0,0 -0.85709,0.01917 -1.2103,-0.16365c-0.30234,-0.15651 -0.71861,-0.86665 -0.71861,-0.86665c0,0 -1.14407,-2.50465 -1.46482,-3.30087c-0.19315,-0.47946 0.39772,-0.84445 0.39772,-0.84445l0.90293,-0.12313c0,0 1.13128,0.54911 2.1813,1.46045c0.71624,0.62164 1.20999,1.85558 1.46579,2.17674c0.27802,0.34907 -0.13794,1.24689 -0.13794,1.24689l0.49251,1.5391z" data-paper-data="{&quot;index&quot;:null}" fill="#031631" stroke="#000000" stroke-width="0.5" stroke-linecap="round"/><path d="M287.79657,175.82606c0,0 -3.80179,-1.25919 -5.4462,-1.85118c-1.76699,-0.63612 -5.77213,-3.21075 -5.77213,-3.21075" fill="none" stroke="#000000" stroke-width="0.5" stroke-linecap="round"/><path d="M276.44144,189.23334c0,0 4.00515,-2.57463 5.77213,-3.21075c1.64441,-0.59199 5.4462,-1.85118 5.4462,-1.85118" data-paper-data="{&quot;index&quot;:null}" fill="none" stroke="#000000" stroke-width="0.5" stroke-linecap="round"/><path d="M269.27374,194.83784c0,0 -4.30416,1.48369 -6.50728,1.86695c-1.72935,0.30085 -6.64504,0.91743 -6.64504,0.91743" fill="none" stroke="#000000" stroke-width="0.5" stroke-linecap="round"/><path d="M255.313,162.37682c0,0 4.91569,0.61658 6.64504,0.91741c2.20312,0.38326 6.50728,1.86695 6.50728,1.86695" data-paper-data="{&quot;index&quot;:null}" fill="none" stroke="#000000" stroke-width="0.5" stroke-linecap="round"/><path d="M196.848,164.64703h4.07691c0,0 1.49479,0.35945 2.0933,0.64791c0.83305,0.4015 1.46373,0.9938 1.46373,0.9938" fill="none" stroke="#000000" stroke-width="0.25" stroke-linecap="round"/><path d="M204.27673,192.96651c0,0 -0.63069,0.59231 -1.46373,0.9938c-0.59853,0.28845 -2.0933,0.64791 -2.0933,0.64791h-4.07691" data-paper-data="{&quot;index&quot;:null}" fill="none" stroke="#000000" stroke-width="0.25" stroke-linecap="round"/><path d="M215.73627,197.08266c0,0 -2.51733,0.53893 -5.04022,0.23753c-1.75936,-0.14885 -4.19047,-0.90247 -4.93182,-1.37628c-1.68674,-1.078 -2.14847,-4.85057 -2.14847,-4.85057" fill="none" stroke="#000000" stroke-width="0.5" stroke-linecap="round"/><path d="M203.9388,168.38875c0,0 0.43602,-3.56253 2.02884,-4.5805c0.70008,-0.44742 2.99583,-1.15908 4.65723,-1.29965c2.38242,-0.28462 4.75959,0.22429 4.75959,0.22429" data-paper-data="{&quot;index&quot;:null}" fill="none" stroke="#000000" stroke-width="0.5" stroke-linecap="round"/><path d="M216.53479,162.4581l0.41044,-2.18895" fill="none" stroke="#000000" stroke-width="0.25" stroke-linecap="round"/><path d="M217.49247,199.80695l-0.68404,-2.46256" fill="none" stroke="#000000" stroke-width="0.25" stroke-linecap="round"/><path d="M223.63621,160.28559l-0.86296,0.03157c0,0 -1.00702,-0.58558 -1.59692,-0.53516c-0.89342,-0.05322 -0.7637,-0.08471 -1.31058,-0.04098c-0.7085,0.05666 -1.54406,0.41828 -1.54406,0.41828l-0.99877,-0.15194c0,0 0.83456,-0.44404 1.72103,-0.6474c0.85724,-0.19666 1.75806,-0.15327 2.28774,-0.12992c1.02429,0.04514 2.30449,1.05554 2.30449,1.05554z" fill="#031630" stroke="#000000" stroke-width="0.25" stroke-linecap="round"/><path d="M240.53834,160.4311l-0.86296,0.03157c0,0 -1.00702,-0.58558 -1.59692,-0.53516c-0.89342,-0.05322 -0.7637,-0.08471 -1.31058,-0.04098c-0.7085,0.05666 -1.54405,0.41828 -1.54405,0.41828l-0.99878,-0.15193c0,0 0.83456,-0.44404 1.72103,-0.6474c0.85724,-0.19666 1.75806,-0.15327 2.28774,-0.12992c1.02429,0.04514 2.30449,1.05554 2.30449,1.05554z" fill="#031630" stroke="#000000" stroke-width="0.25" stroke-linecap="round"/><path d="M222.71691,200.91999c-0.52968,0.02335 -1.4305,0.06674 -2.28774,-0.12992c-0.88647,-0.20336 -1.72103,-0.6474 -1.72103,-0.6474l0.99877,-0.15193c0,0 0.83555,0.36161 1.54406,0.41828c0.54687,0.04375 0.41716,0.01223 1.31058,-0.04098c0.58991,0.05042 1.59692,-0.53515 1.59692,-0.53515l0.86296,0.03157c0,0 -1.2802,1.0104 -2.30449,1.05554z" data-paper-data="{&quot;index&quot;:null}" fill="#031430" stroke="#000000" stroke-width="0.25" stroke-linecap="round"/><path d="M239.31122,200.92839c-0.52968,0.02335 -1.4305,0.06674 -2.28774,-0.12992c-0.88647,-0.20336 -1.72103,-0.6474 -1.72103,-0.6474l0.99878,-0.15194c0,0 0.83555,0.36161 1.54405,0.41828c0.54687,0.04375 0.41716,0.01224 1.31058,-0.04098c0.58991,0.05042 1.59692,-0.53515 1.59692,-0.53515l0.86296,0.03157c0,0 -1.2802,1.0104 -2.30449,1.05554z" data-paper-data="{&quot;index&quot;:null}" fill="#031430" stroke="#000000" stroke-width="0.25" stroke-linecap="round"/><path d="M234.29432,199.73855l-0.46173,-1.84692" fill="none" stroke="#000000" stroke-width="0.25" stroke-linecap="round"/><path d="M232.90913,162.03056l0.46173,-1.38519" fill="none" stroke="#000000" stroke-width="0.25" stroke-linecap="round"/><path d="M194.26232,193.52059c0,0 1.55642,2.80226 2.14412,3.616c0.42771,0.59223 0.59548,0.7653 0.59548,0.7653c0,0 0.42957,0.39626 0.90159,0.67051c0.51376,0.2985 1.0778,0.48088 1.19288,0.58355c0.2238,0.19969 0.06027,0.2953 0.06027,0.2953l-2.08292,-0.87217c0,0 -0.45363,-0.3549 -0.79583,-0.7736c-0.27897,-0.34134 -0.48357,-0.70785 -0.67965,-1.1c-0.4646,-0.92921 -1.33594,-3.1849 -1.33594,-3.1849z" fill="#650000" stroke="#000000" stroke-width="0.25" stroke-linecap="round"/><path d="M195.71019,163.04042c0.19607,-0.39215 0.40067,-0.75867 0.67965,-1.1c0.34221,-0.4187 0.79583,-0.7736 0.79583,-0.7736l2.08292,-0.87217c0,0 0.16353,0.09561 -0.06027,0.2953c-0.11508,0.10268 -0.67913,0.28505 -1.19289,0.58355c-0.47201,0.27424 -0.90159,0.67051 -0.90159,0.67051c0,0 -0.16776,0.17307 -0.59547,0.7653c-0.5877,0.81374 -2.14413,3.616 -2.14413,3.616c0,0 0.87134,-2.25569 1.33594,-3.1849z" data-paper-data="{&quot;index&quot;:null}" fill="#670000" stroke="#000000" stroke-width="0.25" stroke-linecap="round"/><text transform="translate(281.15391,185.30237) rotate(-89.33647) scale(0.04306,0.05855) skewX(0.41068)" font-size="40" xml:space="preserve" data-paper-data="{&quot;index&quot;:null}" fill="#ffffff" fill-rule="nonzero" stroke="none" stroke-width="1" stroke-linecap="butt" stroke-linejoin="miter" stroke-miterlimit="10" stroke-dasharray="" stroke-dashoffset="0" font-family="Sans Serif" font-weight="normal" text-anchor="start" style="mix-blend-mode: normal"><tspan x="0" dy="0">CARABINIERI</tspan></text><path d="M232.94973,188.27438v-16.46838c0,0 0.2704,-0.33833 0.6889,-0.38365c1.20973,-0.13102 3.65684,-0.07808 4.38676,-0.07808c0.41987,0 0.74505,0.46173 0.74505,0.46173v16.46838c0,0 -0.21903,0.38478 -0.66809,0.38478c-0.70232,0 -3.11138,0.11823 -4.39332,0.00521c-0.54434,-0.04798 -0.75929,-0.38998 -0.75929,-0.38998z" fill="#0010ca" stroke="#000000" stroke-width="0.5" stroke-linecap="butt"/><path d="M234.99457,186.75711v-12.77454c0,0 0.04144,-0.3217 0.328,-0.41573c0.35545,-0.11663 0.84394,-0.05785 1.03647,-0.05785c0.2776,0 0.55941,0.47356 0.55941,0.47356v12.77454c0,0 -0.25086,0.19928 -0.5072,0.26236c-0.31495,0.0775 -0.66227,0.02178 -0.85727,0.02178c-0.25387,0 -0.55941,-0.28414 -0.55941,-0.28414z" fill="#ffffff" stroke="#000000" stroke-width="0.5" stroke-linecap="butt"/><path d="M233.13876,175.91829h1.56278" fill="none" stroke="#000000" stroke-width="0.5" stroke-linecap="round"/><path d="M238.34801,175.96565h-1.32599" fill="none" stroke="#000000" stroke-width="0.5" stroke-linecap="round"/><path d="M237.21146,184.86875h1.37336" fill="none" stroke="#000000" stroke-width="0.5" stroke-linecap="round"/><path d="M234.79625,184.86875l-1.51542,0.00001" fill="none" stroke="#000000" stroke-width="0.5" stroke-linecap="round"/><path d="M243.88793,170.90694c0,4.47457 -3.53552,8.10194 -7.89682,8.10194c-4.36129,0 -7.89682,-3.62736 -7.89682,-8.10194c0,-4.47457 3.53552,-8.10194 7.89682,-8.10194c4.36129,0 7.89682,3.62735 7.89682,8.10194z" fill="url(#color-1)" stroke="none" stroke-width="0" stroke-linecap="butt"/><path d="M280.66564,164.35336l4.11884,7.15378l-11.05584,-4.33563l8.88804,2.3846z" fill="#a70000" stroke="#000000" stroke-width="0.25" stroke-linecap="round"/><path d="M282.59481,190.34525l-8.88802,2.3846l11.05585,-4.33562l-4.11886,7.15378z" data-paper-data="{&quot;index&quot;:null}" fill="#a70000" stroke="#000000" stroke-width="0.25" stroke-linecap="round"/></g></g></svg>