<svg version="1.1" xmlns="http://www.w3.org/2000/svg" xmlns:xlink="http://www.w3.org/1999/xlink" width="160.69945" height="97.90295" viewBox="0,0,160.69945,97.90295"><g transform="translate(-159.65033,-129.83731)"><g data-paper-data="{&quot;isPaintingLayer&quot;:true}" fill-rule="nonzero" stroke-linejoin="miter" stroke-miterlimit="10" stroke-dasharray="" stroke-dashoffset="0" style="mix-blend-mode: normal"><path d="M159.65033,227.74026v-95.48052h160.69945v95.48052z" fill="#59ad0d" stroke="none" stroke-width="0" stroke-linecap="butt"/><text transform="translate(161.55898,150.58246) scale(0.4769,0.4769)" font-size="40" xml:space="preserve" fill="#ffffff" fill-rule="nonzero" stroke="none" stroke-width="1" stroke-linecap="butt" stroke-linejoin="miter" stroke-miterlimit="10" stroke-dasharray="" stroke-dashoffset="0" font-family="Sans Serif" font-weight="normal" text-anchor="start" style="mix-blend-mode: normal"><tspan x="0" dy="0">Alfa Romeo Gulia</tspan></text><g stroke="#000000" stroke-linecap="round"><path d="M192.13973,181.25943c0,0 -1.50557,-2.41924 -1.98736,-5.48459c-0.461,-2.96029 0.02554,-6.44897 0.02554,-6.44897c0,0 -0.17816,-3.3187 -0.18455,-4.11243c-0.00273,-0.33857 0.01692,-0.92525 0.27279,-1.48202c0.26868,-0.58465 0.86791,-1.2648 0.86791,-1.2648c0,0 3.70635,-1.25991 6.13454,-1.72065c2.5321,-0.48045 7.74807,-0.79833 7.74807,-0.79833l26.21584,-4.78717c0,0 4.37187,-1.63891 5.98221,-1.97162c1.39042,-0.28727 5.61993,-0.49845 5.61993,-0.49845c0,0 1.94737,0.44158 2.69672,0.69939c0.78618,0.4415 1.26288,1.16943 1.26288,1.16943l1.73244,3.46711c0,0 1.61061,1.91166 2.41037,6.12657c0.79155,4.17167 -0.1025,6.40182 -0.1025,6.40182l-0.36806,3.70687c0,0 -0.09223,0.92527 -0.53019,1.41033c-0.50945,0.56424 -2.66768,1.95008 -2.66768,1.95008c0,0 -3.33584,1.41144 -4.91116,1.72556c-1.61374,0.32178 -6.35846,0.62035 -6.35846,0.62035l-26.06266,4.86368c0,0 -4.81868,1.58614 -7.42551,2.08078c-2.3664,0.44901 -6.93948,0.64491 -6.93948,0.64491c0,0 -0.77792,-0.33978 -1.03481,-0.77762c-0.24976,-0.42568 -0.61779,-0.91284 -0.74601,-1.24541c-0.26396,-0.68467 -1.65081,-4.2748 -1.65081,-4.2748z" fill="#c51515" stroke-width="0.5"/><path d="M222.5406,162.65912c0,0 0.39085,-1.36025 1.61336,-2.03987c1.41564,-0.78698 6.28792,-2.92614 6.28792,-2.92614c0,0 1.91522,-0.11614 3.11489,2.05081c0.9976,1.80196 1.93614,5.64221 2.21539,7.19071c0.27055,1.50028 0.85948,5.80804 0.66856,7.85535c-0.24609,2.63902 -1.98963,3.01388 -1.98963,3.01388c0,0 -5.66762,-0.46179 -7.13236,-0.66902c-1.61578,-0.22861 -2.22761,-1.03387 -2.22761,-1.03387z" fill="#4c5e73" stroke-width="0.5"/><path d="M232.83306,178.72068c0,0 -8.76783,2.24442 -11.47536,2.7886c-4.40263,0.88488 -12.426,2.0153 -12.426,2.0153c0,0 -1.07929,0.15781 -1.49486,0.12221c-0.31505,-0.027 -1.14336,-0.20066 -1.14336,-0.20066l-0.59345,-0.5633c0,0 0.89438,-0.51723 2.01199,-1.13545c1.13212,-0.62623 2.44569,-1.27986 4.1177,-1.82855c2.35857,-0.77398 4.11494,-1.11609 6.59758,-1.45401c2.42963,-0.44435 6.56085,-0.34344 6.56085,-0.34344c0,0 6.25113,0.31422 7.50109,0.4165c1.37651,0.11265 0.34381,0.1828 0.34381,0.1828z" fill="#4c5e73" stroke-width="0.5"/><path d="M228.30572,157.33943c-1.12563,0.55305 -6.82717,3.13522 -6.82717,3.13522c0,0 -3.80711,1.60716 -6.23065,2.08368c-2.43388,0.59496 -4.19347,0.92 -6.67163,1.06376c-1.75679,0.10191 -3.21849,-0.02512 -4.5013,-0.19313c-1.26639,-0.16586 -2.28807,-0.31954 -2.28807,-0.31954l0.34586,-0.74153c0,0 0.70712,-0.465 0.99039,-0.60553c0.37364,-0.18537 1.43573,-0.43386 1.43573,-0.43386c0,0 7.87978,-1.88712 12.30055,-2.67644c2.71868,-0.48541 11.69925,-1.60867 11.69925,-1.60867c0,0 0.98663,-0.313 -0.25296,0.29603z" data-paper-data="{&quot;index&quot;:null}" fill="#4c5e73" stroke-width="0.5"/><path d="M204.46353,166.87131l1.97551,11.85245c0,0 0.15259,0.49939 -0.313,0.87298c-1.2015,0.96411 -3.93103,2.50042 -4.79785,2.92563c-1.13896,0.55871 -1.58681,-0.00841 -1.58681,-0.00841c0,0 -1.72223,-1.69757 -3.25572,-8.24952c-0.64632,-6.73739 0.08781,-8.98644 0.08781,-8.98644c0,0 0.18879,-0.57732 1.1807,-0.53052c1.00995,0.04764 4.20527,0.67744 5.82939,1.28024c0.64339,0.2388 0.87995,0.8436 0.87995,0.8436z" fill="#4c5e73" stroke-width="0.5"/><path d="M195.63251,185.0452c0,0 -1.28953,-0.8944 -2.21537,-2.04087c-0.99046,-1.22648 -1.62474,-2.36082 -1.62474,-2.36082" fill="none" stroke-width="0.5"/><path d="M190.07894,169.68191c0,0 0.17468,-1.28783 0.64704,-2.79187c0.44154,-1.40592 1.31382,-2.71051 1.31382,-2.71051" data-paper-data="{&quot;index&quot;:null}" fill="none" stroke-width="0.5"/><path d="M232.15137,157.76807c0,0 0.21,-0.6226 0.3945,-0.90631c0.15014,-0.23087 0.63082,-0.67029 0.63082,-0.67029c0,0 0.42773,-0.18951 0.93414,-0.22225c1.46973,-0.09503 9.55275,-0.88621 9.55275,-0.88621c0,0 0.8437,0.10555 1.07377,0.58602c0.86548,1.80736 2.75854,6.47944 3.28822,9.15813c0.47542,2.40422 0.21507,7.48645 0.09108,9.69983c-0.04768,0.85113 -0.61169,0.93176 -0.61169,0.93176c0,0 -7.66553,2.01099 -9.06791,2.46093c-0.48321,0.15504 -0.95063,0.13538 -0.95063,0.13538c0,0 -0.60823,-0.23281 -0.8325,-0.39264c-0.27559,-0.1964 -0.69906,-0.69881 -0.69906,-0.69881" fill="none" stroke-width="0.25"/><path d="M249.27017,175.44227c0,0 -0.8349,0.65951 -1.2533,0.9139c-0.30134,0.18322 -0.91027,0.45641 -1.19318,0.52812c-0.18554,0.04702 -0.12139,-0.07603 -0.12139,-0.07603c0,0 1.64709,-1.03016 2.24767,-2.13816c0.57248,-1.05617 1.39898,-4.27775 1.39898,-4.27775c0,0 -0.23961,2.14451 -0.38287,2.98747c-0.06111,0.35954 -0.15417,0.89143 -0.30203,1.27415c-0.1395,0.36108 -0.39388,0.7883 -0.39388,0.7883z" fill="#ffffff" stroke-width="0.25"/><path d="M245.39408,154.30619c0,0 0.39318,0.30436 0.65526,0.58923c0.27777,0.30195 0.55921,0.76279 0.74776,1.07495c0.44208,0.73189 1.45058,2.63958 1.45058,2.63958c0,0 -1.94912,-2.69492 -2.8687,-3.46798c-0.9647,-0.811 -2.87466,-1.16622 -2.87466,-1.16622c0,0 -0.10477,-0.091 0.08511,-0.11521c0.28951,-0.03691 0.95619,-0.00575 1.3037,0.05435c0.4825,0.08345 1.50095,0.3913 1.50095,0.3913z" data-paper-data="{&quot;index&quot;:null}" fill="#ffffff" stroke-width="0.25"/><path d="M232.82554,178.57525l-0.1267,1.03178c0,0 0.37055,0.51755 0.2367,0.7715c-0.12315,0.23366 -0.28723,1.07272 -0.66535,1.55149c-0.55434,0.70189 -1.20346,1.18459 -1.20346,1.18459l-0.58543,0.03047c0,0 -0.41719,-0.15982 -0.35262,-0.486c0.10723,-0.54169 0.52994,-2.26183 0.52994,-2.26183c0,0 0.17793,-0.49873 0.35024,-0.63391c0.2013,-0.1579 0.74529,-0.24857 0.74529,-0.24857l0.00998,-1.00963z" fill="#c51515" stroke-width="0.5"/><path d="M227.40105,157.87118l-0.37911,-0.93581c0,0 -0.53939,0.1149 -0.78454,0.04171c-0.20985,-0.06266 -0.5581,-0.46155 -0.5581,-0.46155c0,0 -1.02342,-1.44575 -1.32162,-1.91051c-0.17957,-0.27986 0.15009,-0.58139 0.15009,-0.58139l0.5559,-0.18609c0,0 0.78082,0.21138 1.55373,0.66143c0.52721,0.30699 0.98724,1.02763 1.18742,1.19994c0.21757,0.18727 0.06235,0.80459 0.06235,0.80459l0.49584,0.91366z" data-paper-data="{&quot;index&quot;:null}" fill="#c51515" stroke-width="0.5"/><path d="M250.23754,161.53606c0,0 -2.55376,-0.33991 -3.66403,-0.51685c-1.19303,-0.19014 -4.03306,-1.33702 -4.03306,-1.33702" fill="none" stroke-width="0.5"/><path d="M244.66882,171.37126c0,0 2.22253,-2.10748 3.263,-2.72141c0.96829,-0.57134 3.22004,-1.82307 3.22004,-1.82307" data-paper-data="{&quot;index&quot;:null}" fill="none" stroke-width="0.5"/><path d="M240.81087,175.77289c0,0 -2.54234,1.45386 -3.88876,1.96028c-1.05688,0.39752 -4.08969,1.37669 -4.08969,1.37669" fill="none" stroke-width="0.5"/><path d="M228.18133,156.91508c0,0 3.18069,-0.19981 4.30972,-0.21706c1.43834,-0.02198 4.33653,0.39957 4.33653,0.39957" data-paper-data="{&quot;index&quot;:null}" fill="none" stroke-width="0.5"/><path d="M191.41684,165.3774l2.57663,-0.4889c0,0 0.98782,0.04792 1.40068,0.15846c0.57464,0.15385 1.04427,0.45256 1.04427,0.45256" fill="none" stroke-width="0.25"/><path d="M199.50793,182.38464c0,0 -0.32757,0.44998 -0.80592,0.80362c-0.34368,0.25408 -1.24528,0.66051 -1.24528,0.66051l-2.57663,0.4889" data-paper-data="{&quot;index&quot;:null}" fill="none" stroke-width="0.25"/><path d="M207.24404,183.61185c0,0 -1.52634,0.64249 -3.15697,0.75454c-1.12978,0.11691 -2.75662,-0.06784 -3.28199,-0.27839c-1.19531,-0.47903 -1.93953,-2.80795 -1.93953,-2.80795" fill="none" stroke-width="0.5"/><path d="M196.34698,166.89186c0,0 -0.15165,-2.30383 0.73295,-3.13821c0.3888,-0.36673 1.75439,-1.09181 2.78755,-1.37989c1.47157,-0.46558 3.03499,-0.42902 3.03499,-0.42902" data-paper-data="{&quot;index&quot;:null}" fill="none" stroke-width="0.5"/><path d="M203.59343,160.20049l0.0031,1.43265" fill="none" stroke-width="0.25"/><path d="M207.95303,183.64869l0.72763,1.47432" fill="none" stroke-width="0.25"/><path d="M207.82414,159.40849l-0.54161,0.12344c0,0 -0.70666,-0.24933 -1.07344,-0.14673c-0.57103,0.0735 -0.49282,0.03804 -0.8332,0.13126c-0.44099,0.12077 -0.9257,0.44952 -0.9257,0.44952l-0.64945,0.02374c0,0 0.4742,-0.38072 1.01007,-0.61555c0.5182,-0.22709 1.09273,-0.30769 1.43029,-0.35646c0.65277,-0.09431 1.58303,0.39075 1.58303,0.39075z" fill="#c51616" stroke-width="0.25"/><path d="M218.52386,157.47355l-0.54161,0.12344c0,0 -0.70666,-0.24933 -1.07344,-0.14673c-0.57103,0.0735 -0.49282,0.03804 -0.8332,0.13126c-0.44099,0.12077 -0.92569,0.44952 -0.92569,0.44952l-0.64945,0.02375c0,0 0.4742,-0.38072 1.01007,-0.61555c0.5182,-0.22709 1.09273,-0.30769 1.43029,-0.35646c0.65277,-0.09431 1.58303,0.39075 1.58303,0.39075z" fill="#c51616" stroke-width="0.25"/><path d="M212.11603,185.19995c-0.33197,0.07827 -0.89608,0.21373 -1.46145,0.19223c-0.58465,-0.02222 -1.16534,-0.20277 -1.16534,-0.20277l0.61301,-0.21579c0,0 0.57144,0.12835 1.02602,0.07919c0.35087,-0.03793 0.26511,-0.0423 0.82337,-0.18306c0.37887,-0.03887 0.94509,-0.52972 0.94509,-0.52972l0.54918,-0.08353c0,0 -0.68793,0.7921 -1.32987,0.94346z" data-paper-data="{&quot;index&quot;:null}" fill="#c31616" stroke-width="0.25"/><path d="M222.60474,183.21526c-0.33197,0.07827 -0.89608,0.21373 -1.46145,0.19223c-0.58465,-0.02222 -1.16534,-0.20277 -1.16534,-0.20277l0.61301,-0.2158c0,0 0.57144,0.12835 1.02601,0.07919c0.35087,-0.03793 0.26511,-0.04229 0.82337,-0.18306c0.37887,-0.03887 0.94509,-0.52972 0.94509,-0.52972l0.54918,-0.08353c0,0 -0.68793,0.7921 -1.32987,0.94346z" data-paper-data="{&quot;index&quot;:null}" fill="#c31616" stroke-width="0.25"/><path d="M219.29134,183.06491l-0.5133,-1.11189" fill="none" stroke-width="0.25"/><path d="M214.01966,158.4685l-0.12571,0.93082" fill="none" stroke-width="0.25"/><path d="M193.24519,183.93576c0,0 1.31972,1.5844 1.78873,2.02822c0.34134,0.323 0.46812,0.41227 0.46812,0.41227c0,0 0.31901,0.19893 0.65022,0.31565c0.3605,0.12704 0.73884,0.17467 0.82389,0.22576c0.16539,0.09937 0.0735,0.17941 0.0735,0.17941l-1.42101,-0.30143c0,0 -0.32926,-0.1699 -0.59574,-0.39348c-0.21725,-0.18227 -0.39051,-0.38937 -0.56146,-0.61371c-0.40506,-0.53155 -1.22626,-1.85268 -1.22626,-1.85268z" fill="#650000" stroke-width="0.25"/><path d="M190.50507,164.49845c0.07689,-0.27136 0.16225,-0.52753 0.29763,-0.77671c0.16607,-0.30565 0.4102,-0.58435 0.4102,-0.58435l1.21183,-0.801c0,0 0.11481,0.04081 -0.00268,0.19386c-0.06041,0.07869 -0.39503,0.2616 -0.68394,0.51186c-0.26543,0.22993 -0.4894,0.53188 -0.4894,0.53188c0,0 -0.08527,0.1295 -0.28457,0.55508c-0.27385,0.58477 -0.92147,2.54246 -0.92147,2.54246c0,0 0.28019,-1.5301 0.46239,-2.17309z" data-paper-data="{&quot;index&quot;:null}" fill="#670000" stroke-width="0.25"/></g><g stroke="#000000" stroke-linecap="round"><path d="M169.01223,208.32477c0,0 -0.58143,-3.07787 0.14319,-6.41098c0.70418,-3.21718 2.58949,-6.59927 2.58949,-6.59927c0,0 1.13651,-3.47209 1.44545,-4.2881c0.13178,-0.34808 0.3851,-0.94155 0.86865,-1.41047c0.50775,-0.4924 1.39223,-0.95129 1.39223,-0.95129c0,0 4.29935,0.18193 6.97109,0.67488c2.78607,0.51405 8.25817,2.26149 8.25817,2.26149l28.77089,5.51393c0,0 5.13208,0.05803 6.91472,0.35713c1.5392,0.25825 5.95788,1.72294 5.95788,1.72294c0,0 1.8203,1.2266 2.48583,1.78867c0.63026,0.76498 0.82947,1.70049 0.82947,1.70049l0.39744,4.24198c0,0 0.89084,2.59941 0.03517,7.23707c-0.8469,4.59009 -2.64963,6.52035 -2.64963,6.52035l-1.85061,3.6528c0,0 -0.4623,0.91163 -1.10396,1.23468c-0.7464,0.37579 -3.50917,0.93826 -3.50917,0.93826c0,0 -3.97985,0.12063 -5.71922,-0.18358c-1.78179,-0.31163 -6.76323,-1.89156 -6.76323,-1.89156l-28.6443,-5.37463c0,0 -5.56903,-0.2897 -8.43732,-0.81892c-2.60374,-0.48041 -7.36847,-2.09734 -7.36847,-2.09734c0,0 -0.66221,-0.65743 -0.75147,-1.20828c-0.08679,-0.53554 -0.27033,-1.1811 -0.26955,-1.57293c0.00161,-0.80663 0.00726,-5.03732 0.00726,-5.03732z" fill="#a53939" stroke-width="0.5"/><path d="M207.49132,201.33218c0,0 0.94124,-1.23874 2.4643,-1.44935c1.76366,-0.24387 7.60745,-0.49964 7.60745,-0.49964c0,0 2.00904,0.64223 2.37724,3.33993c0.30618,2.24331 -0.25834,6.55216 -0.58764,8.25019c-0.31905,1.64515 -1.4277,6.29416 -2.43712,8.31653c-1.30117,2.60686 -3.23709,2.29804 -3.23709,2.29804c0,0 -5.62508,-2.72603 -7.04389,-3.52062c-1.56512,-0.87653 -1.8721,-1.94502 -1.8721,-1.94502z" fill="#4c5e73" stroke-width="0.5"/><path d="M211.72712,221.89753c0,0 -9.87809,-1.18475 -12.86927,-1.70321c-4.86389,-0.84305 -13.5362,-2.87361 -13.5362,-2.87361c0,0 -1.16887,-0.26725 -1.58062,-0.46893c-0.31217,-0.15289 -1.09205,-0.66011 -1.09205,-0.66011l-0.38431,-0.81319c0,0 1.12221,-0.17461 2.51337,-0.36398c1.40919,-0.19182 3.01525,-0.3396 4.94695,-0.23734c2.72489,0.14424 4.66093,0.49174 7.33966,1.1322c2.66669,0.51032 6.86059,2.2558 6.86059,2.2558c0,0 6.28176,2.80671 7.52218,3.40839c1.36599,0.66258 0.27971,0.324 0.27971,0.324z" fill="#4c5e73" stroke-width="0.5"/><path d="M215.5857,198.18479c-1.37346,0.11941 -8.24322,0.49958 -8.24322,0.49958c0,0 -4.54065,0.13391 -7.21388,-0.34102c-2.73092,-0.35765 -4.66349,-0.72392 -7.26044,-1.56159c-1.84101,-0.59383 -3.28858,-1.30502 -4.53653,-1.9871c-1.23197,-0.67335 -2.21799,-1.23694 -2.21799,-1.23694l0.6492,-0.6225c0,0 0.90954,-0.19551 1.25572,-0.22694c0.45662,-0.04147 1.6439,0.12601 1.6439,0.12601c0,0 8.82592,1.19796 13.67042,2.14616c2.97926,0.58312 12.62974,3.0015 12.62974,3.0015c0,0 1.13559,0.07136 -0.37692,0.20285z" data-paper-data="{&quot;index&quot;:null}" fill="#4c5e73" stroke-width="0.5"/><path d="M187.3616,198.47711l-2.68641,12.93255c0,0 -0.04211,0.57246 -0.66777,0.77029c-1.61461,0.51053 -5.0227,1.00013 -6.08009,1.09139c-1.38937,0.1199 -1.62295,-0.63934 -1.62295,-0.63934c0,0 -1.09033,-2.42435 -0.05772,-9.74884c2.01556,-7.16191 3.66191,-9.17512 3.66191,-9.17512c0,0 0.42296,-0.51664 1.42094,-0.07442c1.01614,0.45026 4.04064,2.3658 5.46556,3.62914c0.56449,0.50047 0.56653,1.21436 0.56653,1.21436z" fill="#4c5e73" stroke-width="0.5"/><path d="M171.08715,213.59303c0,0 -0.9661,-1.42922 -1.45929,-2.97221c-0.5276,-1.65068 -0.72679,-3.06536 -0.72679,-3.06536" fill="none" stroke-width="0.5"/><path d="M171.50198,195.64008c0,0 0.69091,-1.25044 1.77285,-2.60415c1.01135,-1.26539 2.42388,-2.25574 2.42388,-2.25574" data-paper-data="{&quot;index&quot;:null}" fill="none" stroke-width="0.5"/><path d="M219.35666,200.15265c0,0 0.4627,-0.55463 0.76455,-0.77205c0.24564,-0.17694 0.91294,-0.43624 0.91294,-0.43624c0,0 0.51369,-0.0242 1.04573,0.14353c1.54406,0.48679 10.14268,2.88874 10.14268,2.88874c0,0 0.82274,0.44353 0.86756,1.0274c0.16863,2.19634 0.25173,7.73711 -0.27012,10.69298c-0.46838,2.65301 -2.75528,7.7582 -3.76211,9.97737c-0.38717,0.85335 -0.99726,0.7118 -0.99726,0.7118c0,0 -8.65557,-0.98586 -10.27169,-1.08214c-0.55687,-0.03317 -1.02809,-0.2391 -1.02809,-0.2391c0,0 -0.53082,-0.48036 -0.69715,-0.73331c-0.20439,-0.31082 -0.43869,-0.99406 -0.43869,-0.99406" fill="none" stroke-width="0.25"/><path d="M229.87628,225.07094c0,0 -1.11782,0.34407 -1.64773,0.43849c-0.38166,0.068 -1.11433,0.10595 -1.43278,0.067c-0.20884,-0.02555 -0.09419,-0.12617 -0.09419,-0.12617c0,0 2.09754,-0.40111 3.15347,-1.29796c1.00653,-0.8549 3.13409,-3.82812 3.13409,-3.82812c0,0 -1.09796,2.10263 -1.57985,2.90962c-0.20554,0.3442 -0.51233,0.85233 -0.81599,1.1858c-0.2865,0.31461 -0.71701,0.65135 -0.71701,0.65135z" fill="#ffffff" stroke-width="0.25"/><path d="M234.30486,201.86833c0,0 0.28199,0.46821 0.43736,0.86434c0.16466,0.41988 0.26993,1.00404 0.33909,1.39892c0.16217,0.92581 0.43749,3.28183 0.43749,3.28183c0,0 -0.92645,-3.5367 -1.56163,-4.69451c-0.66634,-1.21462 -2.48264,-2.33785 -2.48264,-2.33785c0,0 -0.0712,-0.13491 0.13301,-0.08424c0.31139,0.07725 0.98227,0.37417 1.31453,0.57389c0.46133,0.27731 1.38276,0.99763 1.38276,0.99763z" data-paper-data="{&quot;index&quot;:null}" fill="#ffffff" stroke-width="0.25"/><path d="M211.77721,221.7455l-0.53996,1.00709c0,0 0.17405,0.67771 -0.06407,0.88478c-0.21909,0.19052 -0.72075,0.98525 -1.2986,1.32563c-0.84711,0.49902 -1.70426,0.73572 -1.70426,0.73572l-0.6121,-0.20148c0,0 -0.36405,-0.32962 -0.16822,-0.63825c0.32521,-0.51255 1.44214,-2.10747 1.44214,-2.10747c0,0 0.38059,-0.44042 0.61092,-0.51046c0.26907,-0.08182 0.86264,0.04149 0.86264,0.04149l0.41153,-1.03079z" fill="#333333" stroke-width="0.5"/><path d="M214.44716,198.37021l-0.01658,-1.10978c0,0 -0.59848,-0.09664 -0.82064,-0.26909c-0.19016,-0.14763 -0.38853,-0.69487 -0.38853,-0.69487c0,0 -0.47423,-1.88851 -0.59511,-2.48335c-0.0728,-0.3582 0.38491,-0.5362 0.38491,-0.5362l0.6437,0.03023c0,0 0.71623,0.527 1.32949,1.29546c0.41831,0.52418 0.60335,1.44561 0.74002,1.70177c0.14855,0.27841 -0.25591,0.84939 -0.25591,0.84939l0.14502,1.13347z" data-paper-data="{&quot;index&quot;:null}" fill="#333333" stroke-width="0.5"/><path d="M236.39513,211.20325c0,0 -2.48219,-1.36343 -3.54975,-1.98607c-1.14714,-0.66906 -3.60197,-2.97333 -3.60197,-2.97333" fill="none" stroke-width="0.5"/><path d="M226.77859,219.06971c0,0 3.1155,-1.27651 4.42587,-1.49215c1.21947,-0.20068 4.02478,-0.58853 4.02478,-0.58853" data-paper-data="{&quot;index&quot;:null}" fill="none" stroke-width="0.5"/><path d="M221.0751,222.0474c0,0 -3.18347,0.47951 -4.76468,0.46336c-1.24118,-0.01267 -4.73865,-0.21461 -4.73865,-0.21461" fill="none" stroke-width="0.5"/><path d="M215.62688,197.70045c0,0 3.33925,1.05947 4.50323,1.49056c1.48287,0.54919 4.28561,2.13319 4.28561,2.13319" data-paper-data="{&quot;index&quot;:null}" fill="none" stroke-width="0.5"/><path d="M174.58411,191.76027l2.83507,0.52309c0,0 0.99335,0.44175 1.37255,0.71914c0.52779,0.38608 0.89037,0.87889 0.89037,0.87889" fill="none" stroke-width="0.25"/><path d="M176.11651,212.40667c0,0 -0.51457,0.33097 -1.14539,0.50328c-0.45322,0.1238 -1.53881,0.18198 -1.53881,0.18198l-2.83507,-0.52309" data-paper-data="{&quot;index&quot;:null}" fill="none" stroke-width="0.25"/><path d="M183.55731,216.73934c0,0 -1.81969,0.05179 -3.53543,-0.48151c-1.20436,-0.32924 -2.79825,-1.16523 -3.25299,-1.58983c-1.03464,-0.96606 -0.87169,-3.64873 -0.87169,-3.64873" fill="none" stroke-width="0.5"/><path d="M179.03494,195.27202c0,0 0.7603,-2.42143 1.99855,-2.92495c0.54424,-0.22131 2.23201,-0.42164 3.40538,-0.30623c1.69324,0.10775 3.28103,0.76665 3.28103,0.76665" data-paper-data="{&quot;index&quot;:null}" fill="none" stroke-width="0.5"/><path d="M188.55509,192.76399l0.56627,-1.46952" fill="none" stroke-width="0.25"/><path d="M184.42901,218.85913l-0.15972,-1.80022" fill="none" stroke-width="0.25"/><path d="M193.77213,192.16438l-0.60415,-0.08877c0,0 -0.62514,-0.53642 -1.04183,-0.57705c-0.61445,-0.15163 -0.5202,-0.1569 -0.90611,-0.19665c-0.49996,-0.0515 -1.1274,0.09275 -1.1274,0.09275l-0.67504,-0.2338c0,0 0.63732,-0.2017 1.27987,-0.22938c0.62135,-0.02677 1.24222,0.11899 1.60756,0.20318c0.7065,0.16281 1.4671,1.0297 1.4671,1.0297z" fill="#a53939" stroke-width="0.25"/><path d="M205.50715,194.43419l-0.60415,-0.08877c0,0 -0.62514,-0.53642 -1.04183,-0.57705c-0.61445,-0.15163 -0.5202,-0.1569 -0.90611,-0.19665c-0.49996,-0.0515 -1.1274,0.09276 -1.1274,0.09276l-0.67505,-0.23379c0,0 0.63732,-0.2017 1.27987,-0.22938c0.62135,-0.02677 1.24222,0.11899 1.60756,0.20318c0.7065,0.16281 1.4671,1.0297 1.4671,1.0297z" fill="#a53939" stroke-width="0.25"/><path d="M187.91927,220.30346c-0.37134,-0.05172 -1.00333,-0.13713 -1.57422,-0.38388c-0.59036,-0.25516 -1.11374,-0.67102 -1.11374,-0.67102l0.71403,0.0225c0,0 0.53464,0.35867 1.02007,0.48898c0.37468,0.10059 0.28852,0.06203 0.91663,0.13966c0.40375,0.11075 1.17916,-0.16725 1.17916,-0.16725l0.59605,0.13268c0,0 -1.01988,0.53837 -1.73797,0.43835z" data-paper-data="{&quot;index&quot;:null}" fill="#a53939" stroke-width="0.25"/><path d="M199.45783,222.43842c-0.37134,-0.05172 -1.00333,-0.13713 -1.57422,-0.38388c-0.59036,-0.25516 -1.11374,-0.67102 -1.11374,-0.67102l0.71404,0.02249c0,0 0.53464,0.35867 1.02006,0.48898c0.37468,0.10059 0.28852,0.06204 0.91663,0.13966c0.40375,0.11075 1.17916,-0.16725 1.17916,-0.16725l0.59605,0.13268c0,0 -1.01988,0.53837 -1.73797,0.43835z" data-paper-data="{&quot;index&quot;:null}" fill="#a53939" stroke-width="0.25"/><path d="M196.03763,219.62374l0.08412,1.34359" fill="none" stroke-width="0.25"/><path d="M200.49542,193.66358l-0.49881,0.90401" fill="none" stroke-width="0.25"/><path d="M169.08141,211.50708c0,0 0.72279,2.14838 1.02706,2.78966c0.22144,0.46672 0.31591,0.60859 0.31591,0.60859c0,0 0.24788,0.33068 0.54094,0.58195c0.31897,0.2735 0.6878,0.47269 0.75465,0.55885c0.13,0.16758 0.00403,0.21308 0.00403,0.21308l-1.33656,-0.87375c0,0 -0.26991,-0.305 -0.45416,-0.64007c-0.1502,-0.27316 -0.24545,-0.55428 -0.33149,-0.85214c-0.20386,-0.70578 -0.52037,-2.38618 -0.52037,-2.38618z" fill="#650000" stroke-width="0.25"/><path d="M173.99901,190.49704c0.18666,-0.24754 0.37597,-0.47616 0.61376,-0.67773c0.29169,-0.24725 0.65267,-0.43585 0.65267,-0.43585l1.56036,-0.33925c0,0 0.10145,0.08746 -0.0798,0.19761c-0.0932,0.05664 -0.50883,0.11109 -0.9044,0.25275c-0.36342,0.13014 -0.71299,0.35059 -0.71299,0.35059c0,0 -0.13886,0.09883 -0.51228,0.45579c-0.5131,0.49046 -1.95497,2.23946 -1.95497,2.23946c0,0 0.89535,-1.45681 1.33765,-2.04336z" data-paper-data="{&quot;index&quot;:null}" fill="#670000" stroke-width="0.25"/><path d="M228.52023,205.07049c0,0 -1.51843,-1.13105 -1.91215,-1.56288c-0.18771,-0.20587 -0.42808,-0.64286 -0.51164,-0.85565c-0.06705,-0.17074 0.00418,-0.14297 0.00418,-0.14297c0,0 0.59571,0.09897 0.94539,0.24737c0.35428,0.15036 0.7622,0.44152 0.7622,0.44152c0,0 0.30487,0.37142 0.48599,0.75443c0.18259,0.38611 0.24149,0.78438 0.25761,0.92205c0.03015,0.2576 -0.03158,0.19614 -0.03158,0.19614z" fill="#333333" stroke-width="0.5"/><path d="M225.56007,219.9818c-0.06417,0.12286 -0.26134,0.47388 -0.5697,0.76941c-0.30587,0.29315 -0.72322,0.53131 -0.72322,0.53131c0,0 -0.48497,0.12642 -0.86958,0.14044c-0.37961,0.01384 -0.97142,-0.10629 -0.97142,-0.10629c0,0 -0.07644,0.00052 0.04712,-0.13505c0.154,-0.16898 0.53449,-0.4914 0.7833,-0.61673c0.52189,-0.2629 2.34398,-0.7776 2.34398,-0.7776c0,0 0.0796,-0.03539 -0.04049,0.1945z" data-paper-data="{&quot;index&quot;:null}" fill="#333333" stroke-width="0.5"/><path d="M170.34801,193.01701l2.19133,-0.68272l1.89362,-0.18206c0,0 1.25454,-0.00005 1.60543,0.19281c0.31856,0.1751 0.16704,0.87099 0.16704,0.87099l-0.92664,0.5054c0,0 -0.74938,0.19626 -1.19401,0.2524c-0.34719,0.04383 -1.18149,0.57751 -1.18149,0.57751c0,0 -2.24384,4.65273 -2.71548,7.12128c-0.46675,2.44294 -0.09988,7.61397 -0.09988,7.61397c0,0 0.54764,0.90675 0.92076,1.20169c0.35699,0.2822 1.15978,0.67986 1.15978,0.67986c0,0 0.73415,0.4345 0.64766,0.8017c-0.11154,0.47357 -0.65612,0.81521 -0.65612,0.81521l-1.72531,-0.40288l-1.44269,-0.82178l-1.7968,-1.91376c0,0 -0.12681,-5.61146 0.43517,-8.35946c0.58952,-2.88269 2.71764,-8.27018 2.71764,-8.27018z" fill="#333333" stroke-width="0.5"/></g><g stroke="#000000" stroke-linecap="round"><path d="M249.35037,208.96442c0,0 -2.10976,-2.20931 -3.28655,-5.32085c-1.13196,-3.00584 -1.38519,-6.77368 -1.38519,-6.77368c0,0 -0.91361,-3.44392 -1.09409,-4.27551c-0.07699,-0.35472 -0.18482,-0.97473 -0.0382,-1.61509c0.15396,-0.6724 0.63393,-1.51741 0.63393,-1.51741c0,0 3.6139,-2.13376 6.06136,-3.14895c2.55221,-1.05863 7.95668,-2.53427 7.95668,-2.53427l26.46494,-10.76398c0,0 4.22937,-2.67723 5.84655,-3.37897c1.39632,-0.60592 5.78889,-1.7536 5.78889,-1.7536c0,0 2.14042,0.03705 2.9833,0.14354c0.92175,0.29121 1.58142,0.95079 1.58142,0.95079l2.57728,3.25937c0,0 2.10887,1.65361 3.87105,5.90199c1.74411,4.20479 1.29409,6.74104 1.29409,6.74104l0.42535,3.97089c0,0 0.10579,0.99125 -0.24764,1.5962c-0.41112,0.7037 -2.37272,2.63066 -2.37272,2.63066c0,0 -3.19187,2.21165 -4.77637,2.88624c-1.62314,0.69103 -6.53727,2.04322 -6.53727,2.04322l-26.28743,10.81074c0,0 -4.70984,2.71968 -7.33737,3.80955c-2.38518,0.98935 -7.14168,2.19621 -7.14168,2.19621c0,0 -0.8908,-0.18627 -1.25628,-0.58952c-0.35533,-0.39205 -0.84823,-0.82274 -1.05561,-1.14371c-0.42693,-0.66076 -2.66846,-4.12489 -2.66846,-4.12489z" fill="#246291" stroke-width="0.5"/><path d="M277.18306,182.78747c0,0 0.11236,-1.51314 1.24656,-2.49405c1.31338,-1.13587 5.9584,-4.44768 5.9584,-4.44768c0,0 1.98457,-0.54122 3.71805,1.47029c1.4415,1.6727 3.26731,5.49749 3.89941,7.06148c0.61242,1.51528 2.17367,5.90726 2.42157,8.09768c0.31954,2.82349 -1.42819,3.59864 -1.42819,3.59864c0,0 -6.04918,0.75627 -7.63178,0.85949c-1.74579,0.11385 -2.5642,-0.59729 -2.5642,-0.59729z" fill="#4c5e73" stroke-width="0.5"/><path d="M291.50149,197.39028c0,0 -8.71029,4.27519 -11.43263,5.43911c-4.42674,1.89262 -12.59963,4.83568 -12.59963,4.83568c0,0 -1.09814,0.40193 -1.54208,0.45555c-0.33656,0.04065 -1.24387,0.03975 -1.24387,0.03975l-0.74614,-0.46123c0,0 0.82538,-0.73865 1.86294,-1.63216c1.05103,-0.90509 2.28648,-1.87867 3.9211,-2.82059c2.30582,-1.32869 4.07419,-2.07227 6.60569,-2.97049c2.45257,-0.9983 6.81031,-1.79692 6.81031,-1.79692c0,0 6.62924,-1.03891 7.96347,-1.20524c1.46929,-0.18317 0.40085,0.11657 0.40085,0.11657z" fill="#4c5e73" stroke-width="0.5"/><path d="M282.06871,175.94227c-1.06024,0.82688 -6.47855,4.78516 -6.47855,4.78516c0,0 -3.64362,2.52026 -6.08274,3.55098c-2.42405,1.15729 -4.19955,1.88368 -6.76885,2.57714c-1.82141,0.49161 -3.38325,0.67832 -4.76633,0.78287c-1.36537,0.10321 -2.47125,0.16562 -2.47125,0.16562l0.20062,-0.85394c0,0 0.6403,-0.64283 0.90682,-0.85234c0.35155,-0.27635 1.41178,-0.76968 1.41178,-0.76968c0,0 7.85652,-3.70577 12.32322,-5.50207c2.74693,-1.10468 11.92595,-4.2498 11.92595,-4.2498c0,0 0.96691,-0.54452 -0.20066,0.36607z" data-paper-data="{&quot;index&quot;:null}" fill="#4c5e73" stroke-width="0.5"/><path d="M259.13374,191.16605l4.66835,12.0064c0,0 0.26947,0.49069 -0.13735,0.98471c-1.04987,1.27488 -3.57809,3.48485 -4.3947,4.12089c-1.07299,0.83574 -1.66717,0.33861 -1.66717,0.33861c0,0 -2.17913,-1.40449 -5.22304,-7.9449c-2.15345,-6.92926 -1.87541,-9.45034 -1.87541,-9.45034c0,0 0.07172,-0.64722 1.12296,-0.81529c1.07035,-0.17112 4.56169,-0.20978 6.39816,0.06725c0.72751,0.10974 1.10821,0.69268 1.10821,0.69268z" fill="#4c5e73" stroke-width="0.5"/><path d="M253.84487,212.17279c0,0 -1.54917,-0.65633 -2.77184,-1.6568c-1.30801,-1.07031 -2.22204,-2.12191 -2.22204,-2.12191" fill="none" stroke-width="0.5"/><path d="M244.65272,197.26521c0,0 -0.09864,-1.3898 0.06778,-3.07169c0.15556,-1.57216 0.78537,-3.13229 0.78537,-3.13229" data-paper-data="{&quot;index&quot;:null}" fill="none" stroke-width="0.5"/><path d="M286.19852,175.55011c0,0 0.08407,-0.69939 0.21558,-1.03753c0.10702,-0.27517 0.51527,-0.84158 0.51527,-0.84158c0,0 0.4074,-0.29253 0.93171,-0.43777c1.52165,-0.42153 9.83142,-3.02163 9.83142,-3.02163c0,0 0.90856,-0.07396 1.25521,0.37991c1.30403,1.7073 4.31371,6.19609 5.4561,8.89136c1.02535,2.4191 1.86486,7.80982 2.21936,10.15986c0.13632,0.90369 -0.43796,1.11179 -0.43796,1.11179c0,0 -7.60454,3.78886 -8.97781,4.56811c-0.47319,0.26851 -0.96803,0.35022 -0.96803,0.35022c0,0 -0.6893,-0.11116 -0.95966,-0.22979c-0.33223,-0.14577 -0.88666,-0.58033 -0.88666,-0.58033" fill="none" stroke-width="0.25"/><path d="M308.03417,190.35076c0,0 -0.73181,0.87495 -1.11522,1.23354c-0.27613,0.25826 -0.85538,0.6783 -1.13659,0.81549c-0.18443,0.08997 -0.14405,-0.05322 -0.14405,-0.05322c0,0 1.50305,-1.44177 1.89075,-2.7361c0.36956,-1.23377 0.5316,-4.79573 0.5316,-4.79573c0,0 0.21807,2.3031 0.25229,3.21913c0.01459,0.39071 0.03338,0.9693 -0.038,1.40332c-0.06735,0.40948 -0.24077,0.91355 -0.24077,0.91355z" fill="#ffffff" stroke-width="0.25"/><path d="M299.33855,169.01746c0,0 0.47928,0.23333 0.81669,0.47492c0.35763,0.25608 0.75389,0.67809 1.02012,0.96442c0.62421,0.67131 2.10029,2.4526 2.10029,2.4526c0,0 -2.63562,-2.40152 -3.76996,-3.01149c-1.19,-0.63991 -3.27226,-0.59453 -3.27226,-0.59453c0,0 -0.12987,-0.07257 0.06409,-0.13954c0.29576,-0.10212 1.00224,-0.2154 1.38011,-0.22841c0.52465,-0.01806 1.6609,0.08203 1.6609,0.08203z" data-paper-data="{&quot;index&quot;:null}" fill="#ffffff" stroke-width="0.25"/><path d="M291.46176,197.23931l0.09294,1.11058c0,0 0.5022,0.46203 0.41733,0.75786c-0.07809,0.27218 -0.06657,1.1887 -0.35858,1.77394c-0.42809,0.85799 -1.00364,1.50671 -1.00364,1.50671l-0.60772,0.16014c0,0 -0.47283,-0.07638 -0.47649,-0.43284c-0.00607,-0.59197 0.06093,-2.48978 0.06093,-2.48978c0,0 0.07753,-0.56237 0.22878,-0.74196c0.1767,-0.20979 0.72775,-0.42405 0.72775,-0.42405l-0.21059,-1.06178z" fill="#246291" stroke-width="0.5"/><path d="M281.23572,176.69842l-0.60277,-0.89911c0,0 -0.54093,0.23868 -0.81423,0.21555c-0.23395,-0.01981 -0.68677,-0.36219 -0.68677,-0.36219c0,0 -1.39061,-1.29322 -1.80532,-1.71568c-0.24973,-0.25439 0.03023,-0.64302 0.03023,-0.64302l0.54265,-0.31702c0,0 0.86574,0.05088 1.77543,0.35397c0.62052,0.20674 1.2611,0.86233 1.50891,0.99933c0.26934,0.1489 0.2416,0.83075 0.2416,0.83075l0.72042,0.85031z" data-paper-data="{&quot;index&quot;:null}" fill="#246291" stroke-width="0.5"/><path d="M306.00466,175.54462c0,0 -2.75455,0.20241 -3.9585,0.25981c-1.2937,0.06167 -4.52537,-0.52015 -4.52537,-0.52015" fill="none" stroke-width="0.5"/><path d="M302.31378,187.08576c0,0 1.87108,-2.69839 2.82861,-3.5705c0.89111,-0.81162 2.98022,-2.6183 2.98022,-2.6183" data-paper-data="{&quot;index&quot;:null}" fill="none" stroke-width="0.5"/><path d="M299.22867,192.54989c0,0 -2.34982,2.08244 -3.65199,2.90872c-1.02214,0.6486 -3.99063,2.34025 -3.99063,2.34025" fill="none" stroke-width="0.5"/><path d="M281.84527,175.52415c0,0 3.29433,-0.90611 4.47546,-1.17141c1.50471,-0.33799 4.6386,-0.53013 4.6386,-0.53013" data-paper-data="{&quot;index&quot;:null}" fill="none" stroke-width="0.5"/><path d="M245.11436,192.45477l2.59709,-1.07725c0,0 1.04719,-0.16599 1.50468,-0.14038c0.63676,0.03564 1.19503,0.24631 1.19503,0.24631" fill="none" stroke-width="0.25"/><path d="M257.32954,208.53206c0,0 -0.24526,0.54396 -0.66984,1.01984c-0.30506,0.3419 -1.16229,0.96585 -1.16229,0.96585l-2.59709,1.07725" data-paper-data="{&quot;index&quot;:null}" fill="none" stroke-width="0.25"/><path d="M265.71715,208.12617c0,0 -1.4612,1.00847 -3.14798,1.48309c-1.16009,0.37006 -2.90789,0.53236 -3.50535,0.42642c-1.35934,-0.24102 -2.6503,-2.52223 -2.6503,-2.52223" fill="none" stroke-width="0.5"/><path d="M250.62005,192.96472c0,0 -0.66357,-2.38462 0.08211,-3.45397c0.32775,-0.47 1.60215,-1.52995 2.62336,-2.0585c1.44245,-0.81082 3.09124,-1.11475 3.09124,-1.11475" data-paper-data="{&quot;index&quot;:null}" fill="none" stroke-width="0.5"/><path d="M256.76001,184.35564l0.31693,1.50286" fill="none" stroke-width="0.25"/><path d="M267.55574,209.39757l-1.08643,-1.38797" fill="none" stroke-width="0.25"/><path d="M261.02666,182.59814l-0.54138,0.24813c0,0 -0.79622,-0.10695 -1.15868,0.08104c-0.58319,0.20217 -0.50888,0.14783 -0.8457,0.32019c-0.43636,0.2233 -0.87309,0.67444 -0.87309,0.67444l-0.67639,0.16712c0,0 0.41431,-0.50338 0.92528,-0.86716c0.49412,-0.35179 1.07943,-0.56217 1.42302,-0.68726c0.66443,-0.2419 1.74692,0.06348 1.74692,0.06348z" fill="#246291" stroke-width="0.25"/><path d="M271.83219,178.22476l-0.54138,0.24813c0,0 -0.79622,-0.10695 -1.15868,0.08104c-0.58319,0.20217 -0.50888,0.14783 -0.8457,0.32019c-0.43636,0.2233 -0.87307,0.67444 -0.87307,0.67444l-0.67639,0.16713c0,0 0.41431,-0.50338 0.92528,-0.86716c0.49412,-0.35179 1.07943,-0.56217 1.42302,-0.68726c0.66443,-0.2419 1.74692,0.06348 1.74692,0.06348z" fill="#246291" stroke-width="0.25"/><path d="M271.17793,208.72614c-0.33125,0.15483 -0.89364,0.42049 -1.49168,0.52173c-0.61844,0.10469 -1.2674,0.04234 -1.2674,0.04234l0.5961,-0.36069c0,0 0.62781,0.00958 1.09413,-0.14154c0.35993,-0.11664 0.26897,-0.10244 0.82404,-0.3724c0.38911,-0.12375 0.87587,-0.76286 0.87587,-0.76286l0.55807,-0.20791c0,0 -0.54854,0.98192 -1.18911,1.28132z" data-paper-data="{&quot;index&quot;:null}" fill="#246291" stroke-width="0.25"/><path d="M281.75113,204.34676c-0.33125,0.15483 -0.89364,0.42049 -1.49168,0.52173c-0.61844,0.10469 -1.2674,0.04234 -1.2674,0.04234l0.5961,-0.3607c0,0 0.62781,0.00958 1.09412,-0.14153c0.35993,-0.11664 0.26897,-0.10243 0.82404,-0.3724c0.38911,-0.12375 0.87587,-0.76286 0.87587,-0.76286l0.55807,-0.20791c0,0 -0.54854,0.98192 -1.18911,1.28132z" data-paper-data="{&quot;index&quot;:null}" fill="#246291" stroke-width="0.25"/><path d="M277.45871,203.8599l0.78215,1.05453" fill="none" stroke-width="0.25"/><path d="M267.39482,181.25954l-0.07188,-1.0044" fill="none" stroke-width="0.25"/><path d="M251.09651,211.53114c0,0 1.73192,1.37385 2.32131,1.73694c0.42895,0.26425 0.58155,0.33017 0.58155,0.33017c0,0 0.37835,0.13892 0.7515,0.1889c0.40615,0.0544 0.81365,0.02154 0.91408,0.05654c0.19533,0.06807 0.11642,0.17219 0.11642,0.17219l-1.55732,-0.00522c0,0 -0.38275,-0.10622 -0.71137,-0.28252c-0.2679,-0.14373 -0.49509,-0.32315 -0.72361,-0.52114c-0.54149,-0.46917 -1.69258,-1.67586 -1.69258,-1.67586z" fill="#650000" stroke-width="0.25"/><path d="M243.96503,191.73196c0.02128,-0.30162 0.05478,-0.58916 0.1423,-0.88032c0.10736,-0.35714 0.30255,-0.70309 0.30255,-0.70309l1.09642,-1.10596c0,0 0.12944,0.0177 0.03964,0.20404c-0.04617,0.09582 -0.3573,0.36103 -0.6057,0.68694c-0.22822,0.29942 -0.39717,0.66536 -0.39717,0.66536c0,0 -0.06114,0.15458 -0.17711,0.64486c-0.15936,0.67366 -0.4104,2.87002 -0.4104,2.87002c0,0 -0.04096,-1.66716 0.00948,-2.38186z" data-paper-data="{&quot;index&quot;:null}" fill="#670000" stroke-width="0.25"/></g></g></g></svg>