<svg version="1.1" xmlns="http://www.w3.org/2000/svg" xmlns:xlink="http://www.w3.org/1999/xlink" width="482.85714" height="361.02129" viewBox="0,0,482.85714,361.02129"><g transform="translate(1.42857,0.51065)"><g data-paper-data="{&quot;isPaintingLayer&quot;:true}" fill-rule="nonzero" stroke-linecap="butt" stroke-linejoin="miter" stroke-miterlimit="10" stroke-dasharray="" stroke-dashoffset="0" style="mix-blend-mode: normal"><path d="M-1.42857,360.51065v-361.02129h482.85714v361.02129z" fill="#000000" stroke="#ff0000" stroke-width="0"/><text transform="translate(183.63002,42.6265) scale(0.5,0.5)" font-size="40" xml:space="preserve" fill="#ffffff" fill-rule="nonzero" stroke="none" stroke-width="1" stroke-linecap="butt" stroke-linejoin="miter" stroke-miterlimit="10" stroke-dasharray="" stroke-dashoffset="0" font-family="Sans Serif" font-weight="normal" text-anchor="start" style="mix-blend-mode: normal"><tspan x="0" dy="0">Welcome to</tspan></text><text transform="translate(95.43005,67.05185) scale(0.5,0.5)" font-size="40" xml:space="preserve" fill="#ffffff" fill-rule="nonzero" stroke="none" stroke-width="1" stroke-linecap="butt" stroke-linejoin="miter" stroke-miterlimit="10" stroke-dasharray="" stroke-dashoffset="0" font-family="Sans Serif" font-weight="normal" text-anchor="start" style="mix-blend-mode: normal"><tspan x="0" dy="0">Räuber und Gerdam Autospiel</tspan></text><path d="M325.51553,305.64135h115.99171v-18l30,30l-30,30v-18h-115.99171z" fill="#000000" stroke="#ffffff" stroke-width="3.5"/><text transform="translate(328.65103,324.03382) scale(0.5,0.5)" font-size="40" xml:space="preserve" fill="#ffffff" fill-rule="nonzero" stroke="none" stroke-width="1" stroke-linecap="butt" stroke-linejoin="miter" stroke-miterlimit="10" stroke-dasharray="" stroke-dashoffset="0" font-family="Sans Serif" font-weight="normal" text-anchor="start" style="mix-blend-mode: normal"><tspan x="0" dy="0">Next</tspan></text><g data-paper-data="{&quot;isHelperItem&quot;:true}" fill="#000000" stroke="#000000"><path d="" stroke-width="0"/><g data-paper-data="{&quot;isSelectionBound&quot;:true,&quot;isHelperItem&quot;:true}" stroke-width="0.68213"><path d=""/><path d=""/><path d=""/></g></g><text transform="translate(240,129.97947) scale(0.5,0.5)" font-size="40" xml:space="preserve" fill="#ffffff" fill-rule="nonzero" stroke="none" stroke-width="1" stroke-linecap="butt" stroke-linejoin="miter" stroke-miterlimit="10" stroke-dasharray="" stroke-dashoffset="0" font-family="Sans Serif" font-weight="normal" text-anchor="middle" style="mix-blend-mode: normal"><tspan x="0" dy="0">In the Tab</tspan></text><text transform="translate(240,221.1597) scale(0.5,0.5)" font-size="40" xml:space="preserve" fill="#ffffff" fill-rule="nonzero" stroke="none" stroke-width="1" stroke-linecap="butt" stroke-linejoin="miter" stroke-miterlimit="10" stroke-dasharray="" stroke-dashoffset="0" font-family="Sans Serif" font-weight="normal" text-anchor="middle" style="mix-blend-mode: normal"><tspan x="0" dy="0">you can change controll settings and</tspan><tspan x="0" dy="48px">buy cars and...</tspan></text><g stroke-width="0"><path d="M226.65432,183.47161c-5.60808,0 -10.15432,-4.54624 -10.15432,-10.15432v-26.69136c0,-5.60808 4.54624,-10.15432 10.15432,-10.15432h26.69136c5.60808,0 10.15432,4.54624 10.15432,10.15432v26.69136c0,5.60808 -4.54624,10.15432 -10.15432,10.15432z" fill="#47ed2b" stroke="#ffffff"/><path d="M237.75352,146.92356c-0.6276,0 -1.13636,-0.50198 -1.13636,-1.12121v-4.24881c0,-0.61923 0.50876,-1.12121 1.13636,-1.12121h4.30622c0.6276,0 1.13636,0.50198 1.13636,1.12121v4.24881c0,0.61923 -0.50877,1.12121 -1.13636,1.12121z" fill="#929292" stroke="none"/><path d="M237.75352,178.50251c-0.6276,0 -1.13636,-0.50198 -1.13636,-1.12121v-4.24881c0,-0.61923 0.50876,-1.12121 1.13636,-1.12121h4.30622c0.6276,0 1.13636,0.50198 1.13636,1.12121v4.24881c0,0.61923 -0.50877,1.12121 -1.13636,1.12121z" fill="#929292" stroke="none"/><path d="M252.54386,157.22094c0,-0.6276 0.50198,-1.13636 1.12121,-1.13636h4.24881c0.61923,0 1.12121,0.50877 1.12121,1.13636v4.30622c0,0.6276 -0.50198,1.13637 -1.12121,1.13637h-4.24881c-0.61923,0 -1.12121,-0.50877 -1.12121,-1.13637z" fill="#929292" stroke="none"/><path d="M220.77947,157.03549c0,-0.62759 0.50198,-1.13636 1.12121,-1.13636h4.24881c0.61923,0 1.12121,0.50876 1.12121,1.13636v4.30622c0,0.6276 -0.50198,1.13637 -1.12121,1.13637h-4.2488c-0.61923,0 -1.12121,-0.50877 -1.12121,-1.13636z" fill="#929292" stroke="none"/><path d="M247.28135,149.00907c-0.44378,-0.44378 -0.44857,-1.15848 -0.01071,-1.59634l3.00436,-3.00436c0.43786,-0.43786 1.15257,-0.43306 1.59634,0.01071l3.04496,3.04496c0.44378,0.44378 0.44858,1.15848 0.01072,1.59635l-3.00436,3.00436c-0.43786,0.43786 -1.15257,0.43306 -1.59635,-0.01072z" fill="#929292" stroke="none"/><path d="M224.95166,171.33876c-0.44378,-0.44378 -0.44857,-1.15848 -0.01071,-1.59634l3.00436,-3.00436c0.43786,-0.43786 1.15257,-0.43306 1.59634,0.01071l3.04496,3.04496c0.44378,0.44378 0.44858,1.15848 0.01072,1.59635l-3.00436,3.00436c-0.43786,0.43786 -1.15257,0.43306 -1.59635,-0.01072z" fill="#929292" stroke="none"/><path d="M230.24613,169.93432c-5.58381,-5.58381 -5.58381,-14.63696 0,-20.22077c5.58381,-5.58381 14.63696,-5.58381 20.22077,0c5.58381,5.58381 5.58381,14.63696 0,20.22077c-5.58381,5.58381 -14.63696,5.58381 -20.22077,0z" fill="#929292" stroke="#ffffff"/><path d="M229.54165,152.18607c-0.44378,0.44378 -1.15848,0.44857 -1.59634,0.01071l-3.00436,-3.00436c-0.43786,-0.43786 -0.43306,-1.15257 0.01071,-1.59634l3.04496,-3.04496c0.44378,-0.44378 1.15848,-0.44858 1.59635,-0.01072l3.00436,3.00436c0.43786,0.43786 0.43306,1.15257 -0.01072,1.59635z" fill="#929292" stroke="none"/><path d="M251.87134,174.51576c-0.44378,0.44378 -1.15848,0.44857 -1.59634,0.01071l-3.00436,-3.00436c-0.43786,-0.43786 -0.43306,-1.15257 0.01071,-1.59634l3.04496,-3.04496c0.44378,-0.44378 1.15848,-0.44858 1.59635,-0.01072l3.00436,3.00436c0.43786,0.43786 0.43306,1.15257 -0.01072,1.59635z" fill="#929292" stroke="none"/><path d="M232.53385,159.84568c0,-4.02102 3.25968,-7.2807 7.2807,-7.2807c4.02102,0 7.2807,3.25968 7.2807,7.2807c0,4.02102 -3.25968,7.2807 -7.2807,7.2807c-4.02102,0 -7.2807,-3.25968 -7.2807,-7.2807z" fill="#ffffff" stroke="none"/></g></g></g></svg>