<svg version="1.1" xmlns="http://www.w3.org/2000/svg" xmlns:xlink="http://www.w3.org/1999/xlink" width="72.50437" height="35.28112" viewBox="0,0,72.50437,35.28112"><g transform="translate(-203.74783,-162.35943)"><g data-paper-data="{&quot;isPaintingLayer&quot;:true}" fill-rule="nonzero" stroke="#000000" stroke-linecap="round" stroke-linejoin="miter" stroke-miterlimit="10" stroke-dasharray="" stroke-dashoffset="0" style="mix-blend-mode: normal"><path d="M205.08756,186.81983c0,0 -1.19617,-3.09169 -1.08205,-6.69983c0.1151,-3.48355 1.42781,-7.36555 1.42781,-7.36555c0,0 0.51611,-3.83188 0.68095,-4.74047c0.07031,-0.38757 0.22,-1.05387 0.63321,-1.63477c0.43389,-0.60998 1.26631,-1.25742 1.26631,-1.25742c0,0 4.50956,-0.63625 7.38487,-0.63625c2.99837,0 9.0291,0.76789 9.0291,0.76789l31.0026,0.21391c0,0 5.35244,-0.9251 7.26519,-0.95613c1.65153,-0.0268 6.53162,0.6491 6.53162,0.6491c0,0 2.13005,0.92706 2.93065,1.38424c0.80285,0.67513 1.18983,1.61053 1.18983,1.61053l1.22822,4.33859c0,0 1.42632,2.53431 1.42632,7.52535c0,4.93984 -1.50556,7.29497 -1.50556,7.29497l-1.22461,4.15709c0,0 -0.30609,1.03757 -0.91187,1.497c-0.70466,0.53443 -3.47205,1.65036 -3.47205,1.65036c0,0 -4.11892,0.88979 -5.98762,0.90718c-1.91427,0.01781 -7.40217,-0.66995 -7.40217,-0.66995l-30.84412,-0.09324c0,0 -5.85169,0.76789 -8.93854,0.76789c-2.80214,0 -8.07161,-0.76789 -8.07161,-0.76789c0,0 -0.81546,-0.55707 -1.01413,-1.11323c-0.19316,-0.54071 -0.50816,-1.17735 -0.58258,-1.58529c-0.15321,-0.83982 -0.95975,-5.24407 -0.95975,-5.24407z" fill="#246291" stroke-width="0.5"/><path d="M243.86936,172.15312c0,0 0.74174,-1.46998 2.28644,-1.98165c1.78873,-0.59249 7.82164,-1.98085 7.82164,-1.98085c0,0 2.21427,0.28262 3.11551,3.01959c0.74944,2.27597 0.98933,6.86888 0.97267,8.69936c-0.01614,1.77348 -0.27725,6.82492 -0.93948,9.12356c-0.85362,2.963 -2.92776,3.01333 -2.92776,3.01333c0,0 -6.37786,-1.75699 -8.00711,-2.31153c-1.79724,-0.61172 -2.32191,-1.66481 -2.32191,-1.66481z" fill="#4c5e73" stroke-width="0.5"/><path d="M252.15014,192.74348c0,0 -10.5083,0.66381 -13.72097,0.69861c-5.22406,0.05658 -14.63984,-0.39144 -14.63984,-0.39144c0,0 -1.26784,-0.0537 -1.73511,-0.18453c-0.35425,-0.09919 -1.26333,-0.47732 -1.26333,-0.47732l-0.55613,-0.77254c0,0 1.13443,-0.39722 2.54593,-0.86145c1.42981,-0.47024 3.07296,-0.93245 5.10305,-1.19697c2.86367,-0.37313 4.94537,-0.38324 7.85629,-0.23106c2.87341,0.01905 7.57346,1.03034 7.57346,1.03034c0,0 7.07681,1.71486 8.48333,2.10287c1.54891,0.42728 0.35333,0.2835 0.35333,0.2835z" fill="#4c5e73" stroke-width="0.5"/><path d="M251.61253,167.32309c-1.40652,0.38801 -8.48333,2.10287 -8.48333,2.10287c0,0 -4.70004,1.0113 -7.57346,1.03034c-2.91092,0.15218 -4.99262,0.14208 -7.85629,-0.23105c-2.03009,-0.26451 -3.67324,-0.72673 -5.10305,-1.19697c-1.4115,-0.46423 -2.54593,-0.86145 -2.54593,-0.86145l0.55613,-0.77254c0,0 0.90908,-0.37813 1.26333,-0.47732c0.46727,-0.13084 1.73511,-0.18453 1.73511,-0.18453c0,0 9.41577,-0.44802 14.63984,-0.39144c3.21269,0.0348 13.72098,0.69861 13.72098,0.69861c0,0 1.19558,-0.14379 -0.35333,0.2835z" data-paper-data="{&quot;index&quot;:null}" fill="#4c5e73" stroke-width="0.5"/><path d="M222.29396,173.04713l-0.31252,13.97564c0,0 0.06609,0.60389 -0.54708,0.92992c-1.58239,0.84138 -5.03541,2.0054 -6.11838,2.30343c-1.42299,0.39159 -1.81188,-0.35375 -1.81188,-0.35375c0,0 -1.60032,-2.31382 -1.93212,-10.13519c0.72244,-7.84092 2.04932,-10.25234 2.04932,-10.25234c0,0 0.34099,-0.61893 1.46457,-0.35032c1.14402,0.2735 4.65966,1.68633 6.38528,2.72755c0.6836,0.41248 0.82282,1.15507 0.82282,1.15507z" fill="#4c5e73" stroke-width="0.5"/><path d="M208.25872,191.90442c0,0 -1.27994,-1.30197 -2.08952,-2.81314c-0.86609,-1.61666 -1.34505,-3.05076 -1.34505,-3.05076" fill="none" stroke-width="0.5"/><path d="M205.24299,173.13993c0,0 0.47896,-1.43409 1.34505,-3.05075c0.80958,-1.51119 2.08952,-2.81314 2.08952,-2.81314" data-paper-data="{&quot;index&quot;:null}" fill="none" stroke-width="0.5"/><path d="M255.9151,168.64705c0,0 0.37506,-0.66609 0.64746,-0.95034c0.22168,-0.23132 0.86638,-0.62933 0.86638,-0.62933c0,0 0.52998,-0.12384 1.11592,-0.05143c1.70049,0.21013 11.11088,1.05883 11.11088,1.05883c0,0 0.94145,0.30362 1.10022,0.90268c0.59726,2.2535 1.74774,8.00419 1.77222,11.18077c0.02198,2.85111 -1.37781,8.60357 -1.99955,11.10654c-0.23909,0.9625 -0.90123,0.93232 -0.90123,0.93232c0,0 -9.19774,0.63607 -10.89823,0.8462c-0.58594,0.07241 -1.11592,-0.05143 -1.11592,-0.05143c0,0 -0.64471,-0.39801 -0.86638,-0.62933c-0.27241,-0.28425 -0.64746,-0.95034 -0.64746,-0.95034" fill="none" stroke-width="0.25"/><path d="M271.64857,192.56111c0,0 -1.09731,0.57275 -1.63071,0.77278c-0.38416,0.14406 -1.13941,0.32426 -1.47833,0.34486c-0.22227,0.0135 -0.12226,-0.11323 -0.12226,-0.11323c0,0 2.10603,-0.82025 3.03278,-1.95643c0.88339,-1.08303 2.52676,-4.58601 2.52676,-4.58601c0,0 -0.73897,2.39919 -1.08553,3.33161c-0.14783,0.3977 -0.36955,0.98546 -0.62155,1.39083c-0.23776,0.38245 -0.62116,0.81559 -0.62116,0.81559z" fill="#ffffff" stroke-width="0.25"/><path d="M271.80215,167.5622c0,0 0.3834,0.43315 0.62116,0.81559c0.252,0.40537 0.47373,0.99313 0.62155,1.39083c0.34657,0.93242 1.08553,3.33161 1.08553,3.33161c0,0 -1.64336,-3.50298 -2.52677,-4.58601c-0.92675,-1.13619 -3.03278,-1.95643 -3.03278,-1.95643c0,0 -0.10001,-0.12674 0.12226,-0.11322c0.33892,0.0206 1.09416,0.20079 1.47833,0.34486c0.53339,0.20003 1.63071,0.77278 1.63071,0.77278z" data-paper-data="{&quot;index&quot;:null}" fill="#ffffff" stroke-width="0.25"/><path d="M252.17308,192.57563l-0.36859,1.15184c0,0 0.31129,0.67192 0.10322,0.93315c-0.19143,0.24036 -0.56095,1.16382 -1.09697,1.62904c-0.78582,0.68202 -1.63245,1.09297 -1.63245,1.09297l-0.67574,-0.09215c0,0 -0.44218,-0.27315 -0.29765,-0.63197c0.24004,-0.59589 1.09625,-2.47032 1.09625,-2.47032c0,0 0.31153,-0.53146 0.5378,-0.64858c0.26434,-0.13682 0.90576,-0.12247 0.90576,-0.12247l0.23036,-1.15184z" fill="#246291" stroke-width="0.5"/><path d="M250.46318,167.73469l-0.23036,-1.15184c0,0 -0.64144,0.01434 -0.90576,-0.12247c-0.22627,-0.11712 -0.5378,-0.64858 -0.5378,-0.64858c0,0 -0.8562,-1.87443 -1.09625,-2.47032c-0.14455,-0.35882 0.29765,-0.63197 0.29765,-0.63197l0.67574,-0.09215c0,0 0.84662,0.41095 1.63245,1.09297c0.53602,0.46522 0.90554,1.38868 1.09697,1.62904c0.20807,0.26123 -0.10323,0.93315 -0.10323,0.93315l0.36859,1.15184z" data-paper-data="{&quot;index&quot;:null}" fill="#246291" stroke-width="0.5"/><path d="M275.7702,176.87629c0,0 -2.84519,-0.94236 -4.07585,-1.38539c-1.32239,-0.47606 -4.31977,-2.40287 -4.31977,-2.40287" fill="none" stroke-width="0.5"/><path d="M267.27218,186.91008c0,0 2.99739,-1.92681 4.31977,-2.40287c1.23065,-0.44303 4.07585,-1.38539 4.07585,-1.38539" data-paper-data="{&quot;index&quot;:null}" fill="none" stroke-width="0.5"/><path d="M261.90799,191.10439c0,0 -3.22116,1.11037 -4.86994,1.39719c-1.29421,0.22515 -4.97304,0.68659 -4.97304,0.68659" fill="none" stroke-width="0.5"/><path d="M251.56238,166.81109c0,0 3.67882,0.46143 4.97304,0.68658c1.64878,0.28682 4.86994,1.39719 4.86994,1.39719" data-paper-data="{&quot;index&quot;:null}" fill="none" stroke-width="0.5"/><path d="M207.70575,168.51009h3.05109c0,0 1.11867,0.26901 1.56659,0.48489c0.62344,0.30047 1.09544,0.74375 1.09544,0.74375" fill="none" stroke-width="0.25"/><path d="M213.26529,189.70393c0,0 -0.472,0.44327 -1.09544,0.74375c-0.44793,0.21587 -1.56659,0.48489 -1.56659,0.48489h-3.05109" data-paper-data="{&quot;index&quot;:null}" fill="none" stroke-width="0.25"/><path d="M221.84142,192.78438c0,0 -1.88393,0.40333 -3.77202,0.17776c-1.31668,-0.1114 -3.13608,-0.67539 -3.6909,-1.02998c-1.26233,-0.80676 -1.60788,-3.63009 -1.60788,-3.63009" fill="none" stroke-width="0.5"/><path d="M213.01239,171.31032c0,0 0.32631,-2.66613 1.51835,-3.42797c0.52393,-0.33484 2.24203,-0.86744 3.48539,-0.97264c1.78296,-0.21301 3.562,0.16786 3.562,0.16786" data-paper-data="{&quot;index&quot;:null}" fill="none" stroke-width="0.5"/><path d="M222.74619,165.23375l-0.30716,1.63817" fill="none" stroke-width="0.25"/><path d="M223.15573,194.8232l-0.51192,-1.84294" fill="none" stroke-width="0.25"/><path d="M227.75361,165.24605l-0.64582,0.02363c0,0 -0.75363,-0.43824 -1.19511,-0.40051c-0.66862,-0.03983 -0.57155,-0.0634 -0.98082,-0.03067c-0.53023,0.0424 -1.15555,0.31303 -1.15555,0.31303l-0.74746,-0.11371c0,0 0.62457,-0.33231 1.28799,-0.4845c0.64155,-0.14718 1.31571,-0.1147 1.71211,-0.09723c0.76657,0.03378 1.72465,0.78995 1.72465,0.78995z" fill="#246291" stroke-width="0.25"/><path d="M240.40289,165.35495l-0.64582,0.02363c0,0 -0.75363,-0.43824 -1.19511,-0.40051c-0.66862,-0.03983 -0.57155,-0.0634 -0.98082,-0.03067c-0.53023,0.0424 -1.15554,0.31303 -1.15554,0.31303l-0.74747,-0.1137c0,0 0.62457,-0.33231 1.28799,-0.4845c0.64155,-0.14718 1.31571,-0.1147 1.71211,-0.09723c0.76657,0.03378 1.72465,0.78995 1.72465,0.78995z" fill="#246291" stroke-width="0.25"/><path d="M227.06561,195.65618c-0.3964,0.01747 -1.07057,0.04994 -1.71211,-0.09723c-0.66342,-0.15219 -1.28799,-0.4845 -1.28799,-0.4845l0.74746,-0.1137c0,0 0.62531,0.27063 1.15555,0.31303c0.40927,0.03274 0.31219,0.00915 0.98082,-0.03067c0.44147,0.03774 1.19511,-0.4005 1.19511,-0.4005l0.64582,0.02363c0,0 -0.95808,0.75617 -1.72465,0.78995z" data-paper-data="{&quot;index&quot;:null}" fill="#246291" stroke-width="0.25"/><path d="M239.48453,195.66246c-0.3964,0.01747 -1.07057,0.04994 -1.71211,-0.09723c-0.66342,-0.15219 -1.28799,-0.4845 -1.28799,-0.4845l0.74747,-0.11371c0,0 0.62531,0.27063 1.15554,0.31303c0.40927,0.03274 0.31219,0.00916 0.98082,-0.03067c0.44147,0.03774 1.19511,-0.4005 1.19511,-0.4005l0.64582,0.02363c0,0 -0.95808,0.75617 -1.72465,0.78995z" data-paper-data="{&quot;index&quot;:null}" fill="#246291" stroke-width="0.25"/><path d="M235.38441,193.38981l0.34555,1.3822" fill="none" stroke-width="0.25"/><path d="M235.03887,165.51531l-0.34555,1.03665" fill="none" stroke-width="0.25"/><path d="M205.77065,190.11858c0,0 1.1648,2.09717 1.60462,2.70616c0.32009,0.44322 0.44565,0.57274 0.44565,0.57274c0,0 0.32148,0.29656 0.67474,0.50179c0.38449,0.22339 0.80661,0.35988 0.89273,0.43672c0.16749,0.14944 0.0451,0.221 0.0451,0.221l-1.55882,-0.65271c0,0 -0.33949,-0.2656 -0.59558,-0.57895c-0.20877,-0.25545 -0.3619,-0.52975 -0.50864,-0.82323c-0.3477,-0.69541 -0.9998,-2.38353 -0.9998,-2.38353z" fill="#650000" stroke-width="0.25"/><path d="M206.85423,167.30772c0.14674,-0.29348 0.29986,-0.56777 0.50864,-0.82323c0.25611,-0.31335 0.59558,-0.57895 0.59558,-0.57895l1.55882,-0.65271c0,0 0.12238,0.07155 -0.0451,0.221c-0.08612,0.07684 -0.50825,0.21333 -0.89274,0.43672c-0.35325,0.20524 -0.67474,0.50179 -0.67474,0.50179c0,0 -0.12555,0.12952 -0.44564,0.57274c-0.43983,0.60899 -1.60463,2.70616 -1.60463,2.70616c0,0 0.6521,-1.68812 0.9998,-2.38353z" data-paper-data="{&quot;index&quot;:null}" fill="#670000" stroke-width="0.25"/></g></g></svg>