<svg version="1.1" xmlns="http://www.w3.org/2000/svg" xmlns:xlink="http://www.w3.org/1999/xlink" width="72.54146" height="35.29903" viewBox="0,0,72.54146,35.29903"><g transform="translate(-203.72928,-162.35048)"><g data-paper-data="{&quot;isPaintingLayer&quot;:true}" fill-rule="nonzero" stroke="#000000" stroke-linecap="round" stroke-linejoin="miter" stroke-miterlimit="10" stroke-dasharray="" stroke-dashoffset="0" style="mix-blend-mode: normal"><path d="M205.06957,186.82335c0,0 -1.19679,-3.09328 -1.08261,-6.70328c0.11516,-3.48535 1.42855,-7.36935 1.42855,-7.36935c0,0 0.51637,-3.83386 0.6813,-4.74292c0.07035,-0.38777 0.22012,-1.05442 0.63354,-1.63561c0.43411,-0.61029 1.26697,-1.25807 1.26697,-1.25807c0,0 4.51188,-0.63658 7.38868,-0.63658c2.99991,0 9.03375,0.76829 9.03375,0.76829l31.01858,0.21402c0,0 5.35519,-0.92558 7.26893,-0.95663c1.65238,-0.02681 6.53498,0.64944 6.53498,0.64944c0,0 2.13115,0.92753 2.93216,1.38495c0.80326,0.67548 1.19045,1.61136 1.19045,1.61136l1.22885,4.34083c0,0 1.42706,2.53562 1.42706,7.52923c0,4.94238 -1.50634,7.29873 -1.50634,7.29873l-1.22524,4.15923c0,0 -0.30624,1.0381 -0.91234,1.49777c-0.70503,0.53471 -3.47384,1.65121 -3.47384,1.65121c0,0 -4.12105,0.89025 -5.99071,0.90765c-1.91526,0.01782 -7.40599,-0.67029 -7.40599,-0.67029l-30.86001,-0.09329c0,0 -5.85471,0.76829 -8.94315,0.76829c-2.80359,0 -8.07577,-0.76829 -8.07577,-0.76829c0,0 -0.81588,-0.55736 -1.01466,-1.1138c-0.19326,-0.54099 -0.50842,-1.17795 -0.58288,-1.58611c-0.15329,-0.84025 -0.96025,-5.24677 -0.96025,-5.24677z" fill="#246291" stroke-width="0.5"/><path d="M243.87135,172.14908c0,0 0.74212,-1.47074 2.28762,-1.98267c1.78965,-0.59279 7.82567,-1.98187 7.82567,-1.98187c0,0 2.21541,0.28277 3.11711,3.02115c0.74983,2.27714 0.98984,6.87242 0.97317,8.70384c-0.01615,1.77439 -0.27739,6.82843 -0.93996,9.12826c-0.85406,2.96452 -2.92927,3.01488 -2.92927,3.01488c0,0 -6.38115,-1.7579 -8.01124,-2.31272c-1.79817,-0.61204 -2.3231,-1.66567 -2.3231,-1.66567z" fill="#4c5e73" stroke-width="0.5"/><path d="M252.1564,192.75004c0,0 -10.51371,0.66415 -13.72804,0.69897c-5.22675,0.05661 -14.64738,-0.39165 -14.64738,-0.39165c0,0 -1.26849,-0.05372 -1.73601,-0.18462c-0.35443,-0.09924 -1.26398,-0.47757 -1.26398,-0.47757l-0.55642,-0.77294c0,0 1.13502,-0.39742 2.54724,-0.8619c1.43055,-0.47049 3.07454,-0.93293 5.10568,-1.19759c2.86515,-0.37333 4.94792,-0.38344 7.86034,-0.23118c2.87489,0.01906 7.57736,1.03088 7.57736,1.03088c0,0 7.08045,1.71575 8.4877,2.10395c1.5497,0.4275 0.35351,0.28365 0.35351,0.28365z" fill="#4c5e73" stroke-width="0.5"/><path d="M251.61851,167.31656c-1.40725,0.38821 -8.4877,2.10395 -8.4877,2.10395c0,0 -4.70246,1.01182 -7.57736,1.03088c-2.91242,0.15226 -4.99519,0.14216 -7.86034,-0.23117c-2.03114,-0.26465 -3.67513,-0.7271 -5.10568,-1.19759c-1.41223,-0.46447 -2.54724,-0.8619 -2.54724,-0.8619l0.55642,-0.77294c0,0 0.90954,-0.37833 1.26398,-0.47757c0.46751,-0.13091 1.73601,-0.18462 1.73601,-0.18462c0,0 9.42062,-0.44825 14.64738,-0.39165c3.21435,0.03481 13.72805,0.69897 13.72805,0.69897c0,0 1.1962,-0.14386 -0.35351,0.28365z" data-paper-data="{&quot;index&quot;:null}" fill="#4c5e73" stroke-width="0.5"/><path d="M222.28484,173.04355l-0.31269,13.98284c0,0 0.06613,0.6042 -0.54736,0.9304c-1.58321,0.84182 -5.038,2.00644 -6.12153,2.30461c-1.42373,0.39179 -1.81282,-0.35393 -1.81282,-0.35393c0,0 -1.60115,-2.31501 -1.93311,-10.14041c0.72281,-7.84496 2.05037,-10.25763 2.05037,-10.25763c0,0 0.34116,-0.61924 1.46533,-0.3505c1.14461,0.27364 4.66206,1.6872 6.38857,2.72896c0.68395,0.41269 0.82325,1.15567 0.82325,1.15567z" fill="#4c5e73" stroke-width="0.5"/><path d="M208.24237,191.91055c0,0 -1.2806,-1.30264 -2.0906,-2.81459c-0.86654,-1.6175 -1.34574,-3.05233 -1.34574,-3.05233" fill="none" stroke-width="0.5"/><path d="M205.22509,173.13639c0,0 0.47921,-1.43483 1.34574,-3.05232c0.81,-1.51196 2.0906,-2.81459 2.0906,-2.81459" data-paper-data="{&quot;index&quot;:null}" fill="none" stroke-width="0.5"/><path d="M255.92329,168.6412c0,0 0.37525,-0.66643 0.6478,-0.95083c0.2218,-0.23144 0.86683,-0.62965 0.86683,-0.62965c0,0 0.53025,-0.1239 1.1165,-0.05145c1.70137,0.21024 11.11661,1.05938 11.11661,1.05938c0,0 0.94193,0.30377 1.10079,0.90314c0.59757,2.25466 1.74864,8.00831 1.77313,11.18653c0.02199,2.85258 -1.37852,8.608 -2.00058,11.11226c-0.23921,0.96299 -0.9017,0.9328 -0.9017,0.9328c0,0 -9.20248,0.63639 -10.90384,0.84663c-0.58624,0.07245 -1.1165,-0.05145 -1.1165,-0.05145c0,0 -0.64504,-0.39822 -0.86683,-0.62965c-0.27255,-0.28439 -0.6478,-0.95083 -0.6478,-0.95083" fill="none" stroke-width="0.25"/><path d="M271.66487,192.56758c0,0 -1.09788,0.57304 -1.63155,0.77317c-0.38436,0.14414 -1.14,0.32443 -1.47909,0.34503c-0.22239,0.01351 -0.12232,-0.11329 -0.12232,-0.11329c0,0 2.10712,-0.82067 3.03434,-1.95744c0.88385,-1.08359 2.52806,-4.58837 2.52806,-4.58837c0,0 -0.73935,2.40043 -1.08609,3.33332c-0.1479,0.3979 -0.36974,0.98597 -0.62187,1.39155c-0.23788,0.38264 -0.62148,0.81601 -0.62148,0.81601z" fill="#ffffff" stroke-width="0.25"/><path d="M271.81853,167.5558c0,0 0.3836,0.43337 0.62148,0.81601c0.25213,0.40558 0.47398,0.99365 0.62187,1.39155c0.34675,0.9329 1.08609,3.33332 1.08609,3.33332c0,0 -1.6442,-3.50478 -2.52807,-4.58837c-0.92723,-1.13677 -3.03434,-1.95744 -3.03434,-1.95744c0,0 -0.10006,-0.1268 0.12232,-0.11328c0.33909,0.02062 1.09472,0.2009 1.47909,0.34503c0.53366,0.20013 1.63155,0.77317 1.63155,0.77317z" data-paper-data="{&quot;index&quot;:null}" fill="#ffffff" stroke-width="0.25"/><path d="M252.17935,192.58211l-0.36878,1.15243c0,0 0.31145,0.67227 0.10328,0.93363c-0.19153,0.24048 -0.56124,1.16442 -1.09754,1.62988c-0.78623,0.68237 -1.63329,1.09354 -1.63329,1.09354l-0.67609,-0.0922c0,0 -0.44241,-0.27329 -0.2978,-0.6323c0.24016,-0.5962 1.09681,-2.47159 1.09681,-2.47159c0,0 0.31169,-0.53173 0.53808,-0.64892c0.26447,-0.13689 0.90623,-0.12253 0.90623,-0.12253l0.23048,-1.15243z" fill="#246291" stroke-width="0.5"/><path d="M250.46857,167.72837l-0.23048,-1.15243c0,0 -0.64177,0.01435 -0.90623,-0.12253c-0.22639,-0.11719 -0.53808,-0.64892 -0.53808,-0.64892c0,0 -0.85665,-1.8754 -1.09681,-2.47159c-0.14463,-0.35901 0.2978,-0.6323 0.2978,-0.6323l0.67609,-0.0922c0,0 0.84706,0.41116 1.63329,1.09354c0.5363,0.46546 0.90601,1.3894 1.09754,1.62988c0.20818,0.26137 -0.10329,0.93363 -0.10329,0.93363l0.36878,1.15243z" data-paper-data="{&quot;index&quot;:null}" fill="#246291" stroke-width="0.5"/><path d="M275.78862,176.87468c0,0 -2.84666,-0.94285 -4.07795,-1.38611c-1.32307,-0.4763 -4.322,-2.40411 -4.322,-2.40411" fill="none" stroke-width="0.5"/><path d="M267.28623,186.91364c0,0 2.99893,-1.92781 4.322,-2.40411c1.23129,-0.44326 4.07795,-1.38611 4.07795,-1.38611" data-paper-data="{&quot;index&quot;:null}" fill="none" stroke-width="0.5"/><path d="M261.91928,191.11011c0,0 -3.22282,1.11094 -4.87245,1.39791c-1.29488,0.22527 -4.9756,0.68694 -4.9756,0.68694" fill="none" stroke-width="0.5"/><path d="M251.56834,166.8043c0,0 3.68072,0.46167 4.9756,0.68693c1.64963,0.28697 4.87245,1.39791 4.87245,1.39791" data-paper-data="{&quot;index&quot;:null}" fill="none" stroke-width="0.5"/><path d="M207.68911,168.50417h3.05266c0,0 1.11925,0.26914 1.5674,0.48514c0.62376,0.30063 1.096,0.74413 1.096,0.74413" fill="none" stroke-width="0.25"/><path d="M213.25152,189.70892c0,0 -0.47224,0.4435 -1.096,0.74413c-0.44816,0.21599 -1.5674,0.48514 -1.5674,0.48514h-3.05266" data-paper-data="{&quot;index&quot;:null}" fill="none" stroke-width="0.25"/><path d="M221.83207,192.79096c0,0 -1.8849,0.40353 -3.77397,0.17785c-1.31736,-0.11146 -3.1377,-0.67574 -3.6928,-1.03051c-1.26298,-0.80717 -1.60871,-3.63196 -1.60871,-3.63196" fill="none" stroke-width="0.5"/><path d="M212.99848,171.30584c0,0 0.32648,-2.66751 1.51913,-3.42974c0.5242,-0.33501 2.24318,-0.86789 3.48719,-0.97314c1.78388,-0.21312 3.56383,0.16794 3.56383,0.16794" data-paper-data="{&quot;index&quot;:null}" fill="none" stroke-width="0.5"/><path d="M222.7373,165.22615l-0.30732,1.63902" fill="none" stroke-width="0.25"/><path d="M223.14705,194.83083l-0.51219,-1.84389" fill="none" stroke-width="0.25"/><path d="M227.7473,165.23845l-0.64615,0.02364c0,0 -0.75402,-0.43847 -1.19572,-0.40071c-0.66896,-0.03985 -0.57184,-0.06343 -0.98132,-0.03068c-0.53051,0.04243 -1.15615,0.31319 -1.15615,0.31319l-0.74785,-0.11377c0,0 0.62489,-0.33248 1.28866,-0.48475c0.64188,-0.14726 1.31638,-0.11476 1.71299,-0.09728c0.76696,0.0338 1.72553,0.79036 1.72553,0.79036z" fill="#246291" stroke-width="0.25"/><path d="M240.40309,165.34741l-0.64615,0.02364c0,0 -0.75402,-0.43847 -1.19572,-0.40071c-0.66896,-0.03985 -0.57184,-0.06343 -0.98132,-0.03068c-0.53051,0.04243 -1.15613,0.31319 -1.15613,0.31319l-0.74786,-0.11376c0,0 0.62489,-0.33248 1.28866,-0.48475c0.64188,-0.14726 1.31638,-0.11476 1.71299,-0.09728c0.76696,0.0338 1.72553,0.79036 1.72553,0.79036z" fill="#246291" stroke-width="0.25"/><path d="M227.05895,195.66424c-0.39661,0.01748 -1.07112,0.04997 -1.71299,-0.09728c-0.66376,-0.15227 -1.28866,-0.48475 -1.28866,-0.48475l0.74785,-0.11376c0,0 0.62563,0.27077 1.15615,0.31319c0.40948,0.03275 0.31235,0.00916 0.98132,-0.03068c0.4417,0.03776 1.19572,-0.40071 1.19572,-0.40071l0.64615,0.02364c0,0 -0.95857,0.75656 -1.72553,0.79036z" data-paper-data="{&quot;index&quot;:null}" fill="#246291" stroke-width="0.25"/><path d="M239.48426,195.67053c-0.39661,0.01748 -1.07112,0.04997 -1.71299,-0.09728c-0.66376,-0.15227 -1.28866,-0.48475 -1.28866,-0.48475l0.74786,-0.11377c0,0 0.62563,0.27077 1.15613,0.31319c0.40948,0.03275 0.31235,0.00916 0.98132,-0.03068c0.4417,0.03776 1.19572,-0.40071 1.19572,-0.40071l0.64615,0.02364c0,0 -0.95857,0.75656 -1.72553,0.79036z" data-paper-data="{&quot;index&quot;:null}" fill="#246291" stroke-width="0.25"/><path d="M235.38203,193.39671l0.34573,1.38292" fill="none" stroke-width="0.25"/><path d="M235.03631,165.50785l-0.34573,1.03719" fill="none" stroke-width="0.25"/><path d="M205.75301,190.1238c0,0 1.1654,2.09825 1.60545,2.70755c0.32026,0.44345 0.44588,0.57304 0.44588,0.57304c0,0 0.32165,0.29671 0.67509,0.50205c0.38469,0.22351 0.80703,0.36006 0.89319,0.43695c0.16757,0.14952 0.04513,0.22111 0.04513,0.22111l-1.55963,-0.65305c0,0 -0.33966,-0.26574 -0.59589,-0.57925c-0.20888,-0.25558 -0.36209,-0.53002 -0.5089,-0.82365c-0.34788,-0.69577 -1.00031,-2.38476 -1.00031,-2.38476z" fill="#650000" stroke-width="0.25"/><path d="M206.83715,167.30118c0.14681,-0.29363 0.30001,-0.56807 0.5089,-0.82365c0.25624,-0.31351 0.59589,-0.57925 0.59589,-0.57925l1.55963,-0.65305c0,0 0.12245,0.07159 -0.04513,0.22111c-0.08616,0.07688 -0.50851,0.21344 -0.8932,0.43695c-0.35343,0.20534 -0.67509,0.50205 -0.67509,0.50205c0,0 -0.12561,0.12959 -0.44587,0.57304c-0.44005,0.6093 -1.60546,2.70755 -1.60546,2.70755c0,0 0.65243,-1.68899 1.00031,-2.38476z" data-paper-data="{&quot;index&quot;:null}" fill="#670000" stroke-width="0.25"/></g></g></svg>