<svg version="1.1" xmlns="http://www.w3.org/2000/svg" xmlns:xlink="http://www.w3.org/1999/xlink" width="72.60987" height="35.33206" viewBox="0,0,72.60987,35.33206"><g transform="translate(-203.69506,-162.33396)"><g data-paper-data="{&quot;isPaintingLayer&quot;:true}" fill-rule="nonzero" stroke="#000000" stroke-linecap="round" stroke-linejoin="miter" stroke-miterlimit="10" stroke-dasharray="" stroke-dashoffset="0" style="mix-blend-mode: normal"><path d="M205.03639,186.82983c0,0 -1.19792,-3.09622 -1.08364,-6.70965c0.11527,-3.48866 1.42991,-7.37635 1.42991,-7.37635c0,0 0.51686,-3.83749 0.68195,-4.74743c0.07041,-0.38814 0.22032,-1.05542 0.63414,-1.63717c0.43453,-0.61087 1.26817,-1.25927 1.26817,-1.25927c0,0 4.51616,-0.63718 7.3957,-0.63718c3.00275,0 9.04232,0.76901 9.04232,0.76901l31.04804,0.21422c0,0 5.36028,-0.92646 7.27583,-0.95754c1.65395,-0.02683 6.54118,0.65006 6.54118,0.65006c0,0 2.13318,0.92841 2.93494,1.38627c0.80402,0.67612 1.19158,1.6129 1.19158,1.6129l1.23002,4.34495c0,0 1.42841,2.53802 1.42841,7.53638c0,4.94707 -1.50777,7.30566 -1.50777,7.30566l-1.22641,4.16318c0,0 -0.30653,1.03909 -0.9132,1.49919c-0.7057,0.53522 -3.47714,1.65278 -3.47714,1.65278c0,0 -4.12496,0.89109 -5.9964,0.90851c-1.91708,0.01784 -7.41302,-0.67093 -7.41302,-0.67093l-30.88932,-0.09338c0,0 -5.86027,0.76901 -8.95164,0.76901c-2.80625,0 -8.08344,-0.76901 -8.08344,-0.76901c0,0 -0.81665,-0.5579 -1.01562,-1.11486c-0.19344,-0.5415 -0.5089,-1.17907 -0.58344,-1.58761c-0.15343,-0.84105 -0.96116,-5.25175 -0.96116,-5.25175z" fill="#c51515" stroke-width="0.5"/><path d="M243.87501,172.14163c0,0 0.74283,-1.47214 2.2898,-1.98455c1.79135,-0.59336 7.83309,-1.98375 7.83309,-1.98375c0,0 2.21751,0.28304 3.12008,3.02402c0.75054,2.27931 0.99078,6.87895 0.97409,8.71211c-0.01616,1.77608 -0.27766,6.83492 -0.94086,9.13693c-0.85487,2.96734 -2.93205,3.01774 -2.93205,3.01774c0,0 -6.38722,-1.75957 -8.01884,-2.31491c-1.79988,-0.61261 -2.32531,-1.66725 -2.32531,-1.66725z" fill="#4c5e73" stroke-width="0.5"/><path d="M252.16794,192.76216c0,0 -10.52369,0.66478 -13.74108,0.69963c-5.23172,0.05666 -14.66129,-0.39202 -14.66129,-0.39202c0,0 -1.2697,-0.05378 -1.73765,-0.18479c-0.35477,-0.09933 -1.26518,-0.47802 -1.26518,-0.47802l-0.55695,-0.77368c0,0 1.1361,-0.3978 2.54966,-0.86272c1.4319,-0.47093 3.07746,-0.93382 5.11052,-1.19873c2.86787,-0.37368 4.95262,-0.3838 7.86781,-0.2314c2.87761,0.01907 7.58455,1.03185 7.58455,1.03185c0,0 7.08719,1.71738 8.49576,2.10595c1.55118,0.42792 0.35385,0.28391 0.35385,0.28391z" fill="#4c5e73" stroke-width="0.5"/><path d="M251.62954,167.30452c-1.40858,0.38858 -8.49576,2.10595 -8.49576,2.10595c0,0 -4.70693,1.01278 -7.58455,1.03185c-2.91519,0.15241 -4.99993,0.14229 -7.86781,-0.23139c-2.03307,-0.26491 -3.67863,-0.72779 -5.11052,-1.19873c-1.41357,-0.46491 -2.54966,-0.86272 -2.54966,-0.86272l0.55695,-0.77368c0,0 0.91041,-0.37869 1.26518,-0.47802c0.46795,-0.13103 1.73765,-0.18479 1.73765,-0.18479c0,0 9.42957,-0.44867 14.66129,-0.39202c3.2174,0.03485 13.74109,0.69963 13.74109,0.69963c0,0 1.19734,-0.14399 -0.35385,0.28391z" data-paper-data="{&quot;index&quot;:null}" fill="#4c5e73" stroke-width="0.5"/><path d="M222.268,173.03693l-0.31298,13.99612c0,0 0.0662,0.60477 -0.54788,0.93128c-1.58471,0.84262 -5.04278,2.00835 -6.12735,2.3068c-1.42508,0.39216 -1.81454,-0.35427 -1.81454,-0.35427c0,0 -1.60267,-2.31721 -1.93496,-10.15004c0.7235,-7.85242 2.05232,-10.26737 2.05232,-10.26737c0,0 0.34149,-0.61983 1.46673,-0.35083c1.1457,0.27389 4.66648,1.6888 6.39463,2.73155c0.6846,0.41308 0.82402,1.15676 0.82402,1.15676z" fill="#4c5e73" stroke-width="0.5"/><path d="M208.2122,191.92187c0,0 -1.28182,-1.30387 -2.09259,-2.81727c-0.86736,-1.61903 -1.34702,-3.05523 -1.34702,-3.05523" fill="none" stroke-width="0.5"/><path d="M205.19205,173.12988c0,0 0.47966,-1.43619 1.34702,-3.05522c0.81077,-1.5134 2.09259,-2.81727 2.09259,-2.81727" data-paper-data="{&quot;index&quot;:null}" fill="none" stroke-width="0.5"/><path d="M255.93841,168.63043c0,0 0.37561,-0.66706 0.64841,-0.95173c0.222,-0.23166 0.86766,-0.63025 0.86766,-0.63025c0,0 0.53076,-0.12402 1.11755,-0.05151c1.70298,0.21044 11.12716,1.06039 11.12716,1.06039c0,0 0.94283,0.30406 1.10183,0.90401c0.59813,2.2568 1.7503,8.01591 1.77481,11.19716c0.02201,2.85528 -1.37983,8.61618 -2.00249,11.12281c-0.23944,0.9639 -0.90255,0.9337 -0.90255,0.9337c0,0 -9.21122,0.63699 -10.9142,0.84743c-0.58679,0.07251 -1.11755,-0.05151 -1.11755,-0.05151c0,0 -0.64565,-0.39859 -0.86766,-0.63025c-0.2728,-0.28466 -0.64841,-0.95173 -0.64841,-0.95173" fill="none" stroke-width="0.25"/><path d="M271.69494,192.57953c0,0 -1.09892,0.57359 -1.6331,0.7739c-0.38472,0.14428 -1.14108,0.32473 -1.48049,0.34537c-0.22259,0.01353 -0.12244,-0.1134 -0.12244,-0.1134c0,0 2.10911,-0.82145 3.03722,-1.95929c0.88469,-1.08462 2.53046,-4.59273 2.53046,-4.59273c0,0 -0.74005,2.4027 -1.08712,3.33649c-0.14804,0.39828 -0.37009,0.9869 -0.62246,1.39287c-0.23811,0.38301 -0.62207,0.81679 -0.62207,0.81679z" fill="#ffffff" stroke-width="0.25"/><path d="M271.84874,167.54398c0,0 0.38395,0.43378 0.62207,0.81679c0.25237,0.40596 0.47443,0.99459 0.62246,1.39287c0.34707,0.93379 1.08712,3.33649 1.08712,3.33649c0,0 -1.64577,-3.50812 -2.53047,-4.59273c-0.92811,-1.13785 -3.03722,-1.95929 -3.03722,-1.95929c0,0 -0.10016,-0.12692 0.12244,-0.11339c0.33941,0.02063 1.09577,0.20109 1.48049,0.34537c0.53417,0.20032 1.6331,0.7739 1.6331,0.7739z" data-paper-data="{&quot;index&quot;:null}" fill="#ffffff" stroke-width="0.25"/><path d="M252.19091,192.59405l-0.36913,1.15352c0,0 0.31175,0.6729 0.10337,0.93452c-0.19172,0.24071 -0.56177,1.16552 -1.09858,1.63143c-0.78697,0.68303 -1.63484,1.09457 -1.63484,1.09457l-0.67673,-0.09228c0,0 -0.44283,-0.27356 -0.29808,-0.6329c0.2404,-0.59676 1.09785,-2.47394 1.09785,-2.47394c0,0 0.31199,-0.53224 0.53859,-0.64954c0.26472,-0.13702 0.9071,-0.12265 0.9071,-0.12265l0.2307,-1.15352z" fill="#c51515" stroke-width="0.5"/><path d="M250.4785,167.71671l-0.2307,-1.15352c0,0 -0.64238,0.01436 -0.9071,-0.12265c-0.2266,-0.1173 -0.53859,-0.64954 -0.53859,-0.64954c0,0 -0.85746,-1.87718 -1.09785,-2.47394c-0.14476,-0.35935 0.29808,-0.6329 0.29808,-0.6329l0.67673,-0.09228c0,0 0.84787,0.41155 1.63484,1.09457c0.5368,0.46591 0.90686,1.39071 1.09858,1.63143c0.20837,0.26162 -0.10338,0.93452 -0.10338,0.93452l0.36913,1.15352z" data-paper-data="{&quot;index&quot;:null}" fill="#c51515" stroke-width="0.5"/><path d="M275.8226,176.87171c0,0 -2.84937,-0.94374 -4.08182,-1.38743c-1.32432,-0.47676 -4.3261,-2.4064 -4.3261,-2.4064" fill="none" stroke-width="0.5"/><path d="M267.31215,186.9202c0,0 3.00178,-1.92964 4.3261,-2.4064c1.23246,-0.44368 4.08182,-1.38743 4.08182,-1.38743" data-paper-data="{&quot;index&quot;:null}" fill="none" stroke-width="0.5"/><path d="M261.94008,191.12067c0,0 -3.22589,1.112 -4.87708,1.39925c-1.29611,0.22548 -4.98033,0.68759 -4.98033,0.68759" fill="none" stroke-width="0.5"/><path d="M251.57932,166.79177c0,0 3.68422,0.46211 4.98033,0.68758c1.65119,0.28724 4.87708,1.39925 4.87708,1.39925" data-paper-data="{&quot;index&quot;:null}" fill="none" stroke-width="0.5"/><path d="M207.65841,168.49325h3.05556c0,0 1.12031,0.2694 1.56889,0.4856c0.62435,0.30092 1.09704,0.74484 1.09704,0.74484" fill="none" stroke-width="0.25"/><path d="M213.2261,189.71814c0,0 -0.47269,0.44392 -1.09704,0.74484c-0.44858,0.21619 -1.56889,0.4856 -1.56889,0.4856h-3.05556" data-paper-data="{&quot;index&quot;:null}" fill="none" stroke-width="0.25"/><path d="M221.8148,192.80311c0,0 -1.88669,0.40392 -3.77755,0.17802c-1.31861,-0.11156 -3.14067,-0.67638 -3.6963,-1.03149c-1.26418,-0.80794 -1.61024,-3.63541 -1.61024,-3.63541" fill="none" stroke-width="0.5"/><path d="M212.97283,171.29759c0,0 0.32679,-2.67005 1.52058,-3.433c0.5247,-0.33534 2.24532,-0.86871 3.4905,-0.97407c1.78558,-0.21332 3.56722,0.1681 3.56722,0.1681" data-paper-data="{&quot;index&quot;:null}" fill="none" stroke-width="0.5"/><path d="M222.41329,166.85269l0.30761,-1.64058" fill="none" stroke-width="0.25"/><path d="M223.13103,194.84492l-0.51267,-1.84564" fill="none" stroke-width="0.25"/><path d="M227.73565,165.22443l-0.64677,0.02366c0,0 -0.75474,-0.43888 -1.19686,-0.4011c-0.6696,-0.03989 -0.57238,-0.06349 -0.98225,-0.03072c-0.53101,0.04247 -1.15725,0.31349 -1.15725,0.31349l-0.74855,-0.11388c0,0 0.62548,-0.3328 1.28988,-0.48521c0.64249,-0.14739 1.31763,-0.11487 1.71462,-0.09738c0.76768,0.03383 1.72717,0.7911 1.72717,0.7911z" fill="#c51616" stroke-width="0.25"/><path d="M240.40347,165.33348l-0.64677,0.02366c0,0 -0.75474,-0.43888 -1.19686,-0.4011c-0.6696,-0.03989 -0.57238,-0.06349 -0.98225,-0.03072c-0.53101,0.04247 -1.15724,0.31349 -1.15724,0.31349l-0.74856,-0.11387c0,0 0.62548,-0.3328 1.28988,-0.48521c0.64249,-0.14739 1.31763,-0.11487 1.71462,-0.09738c0.76768,0.03383 1.72717,0.7911 1.72717,0.7911z" fill="#c51616" stroke-width="0.25"/><path d="M227.04665,195.67913c-0.39699,0.01749 -1.07213,0.05002 -1.71462,-0.09738c-0.6644,-0.15242 -1.28988,-0.48521 -1.28988,-0.48521l0.74855,-0.11387c0,0 0.62623,0.27103 1.15725,0.31349c0.40987,0.03278 0.31265,0.00916 0.98225,-0.03072c0.44212,0.03779 1.19686,-0.40108 1.19686,-0.40108l0.64677,0.02366c0,0 -0.95949,0.75728 -1.72717,0.7911z" data-paper-data="{&quot;index&quot;:null}" fill="#c31616" stroke-width="0.25"/><path d="M239.48377,195.68541c-0.39699,0.01749 -1.07213,0.05002 -1.71462,-0.09738c-0.6644,-0.15242 -1.28988,-0.48521 -1.28988,-0.48521l0.74856,-0.11388c0,0 0.62623,0.27103 1.15724,0.31349c0.40987,0.03278 0.31265,0.00917 0.98225,-0.03072c0.44212,0.03779 1.19686,-0.40108 1.19686,-0.40108l0.64677,0.02366c0,0 -0.95949,0.75728 -1.72717,0.7911z" data-paper-data="{&quot;index&quot;:null}" fill="#c31616" stroke-width="0.25"/><path d="M235.7237,194.79366l-0.34606,-1.38423" fill="none" stroke-width="0.25"/><path d="M235.03158,165.49409l-0.34606,1.03818" fill="none" stroke-width="0.25"/><path d="M205.72048,190.13342c0,0 1.16651,2.10024 1.60697,2.71013c0.32056,0.44387 0.4463,0.57358 0.4463,0.57358c0,0 0.32196,0.29699 0.67572,0.50253c0.38506,0.22372 0.80779,0.36041 0.89404,0.43736c0.16773,0.14966 0.04517,0.22132 0.04517,0.22132l-1.56111,-0.65367c0,0 -0.33999,-0.26599 -0.59646,-0.5798c-0.20909,-0.25583 -0.36243,-0.53052 -0.50939,-0.82443c-0.34821,-0.69642 -1.00126,-2.38703 -1.00126,-2.38703z" fill="#650000" stroke-width="0.25"/><path d="M206.80564,167.28911c0.14695,-0.29391 0.3003,-0.5686 0.50939,-0.82443c0.25648,-0.3138 0.59646,-0.5798 0.59646,-0.5798l1.56111,-0.65367c0,0 0.12256,0.07165 -0.04517,0.22132c-0.08624,0.07695 -0.50899,0.21364 -0.89405,0.43736c-0.35377,0.20554 -0.67572,0.50253 -0.67572,0.50253c0,0 -0.12573,0.12971 -0.44629,0.57358c-0.44047,0.60989 -1.60698,2.71013 -1.60698,2.71013c0,0 0.65305,-1.6906 1.00126,-2.38703z" data-paper-data="{&quot;index&quot;:null}" fill="#670000" stroke-width="0.25"/></g></g></svg>