<svg version="1.1" xmlns="http://www.w3.org/2000/svg" xmlns:xlink="http://www.w3.org/1999/xlink" width="482.85714" height="361.02129" viewBox="0,0,482.85714,361.02129"><g transform="translate(1.42857,0.5106)"><g data-paper-data="{&quot;isPaintingLayer&quot;:true}" fill-rule="nonzero" stroke-linecap="butt" stroke-linejoin="miter" stroke-miterlimit="10" stroke-dasharray="" stroke-dashoffset="0" style="mix-blend-mode: normal"><path d="M-1.42857,360.5107v-361.02129h482.85714v361.02129z" fill="#000000" stroke="#ff0000" stroke-width="0"/><text transform="translate(183.63002,42.62649) scale(0.5,0.5)" font-size="40" xml:space="preserve" fill="#ffffff" fill-rule="nonzero" stroke="none" stroke-width="1" stroke-linecap="butt" stroke-linejoin="miter" stroke-miterlimit="10" stroke-dasharray="" stroke-dashoffset="0" font-family="Sans Serif" font-weight="normal" text-anchor="start" style="mix-blend-mode: normal"><tspan x="0" dy="0">Welcome to</tspan></text><text transform="translate(95.43005,67.05184) scale(0.5,0.5)" font-size="40" xml:space="preserve" fill="#ffffff" fill-rule="nonzero" stroke="none" stroke-width="1" stroke-linecap="butt" stroke-linejoin="miter" stroke-miterlimit="10" stroke-dasharray="" stroke-dashoffset="0" font-family="Sans Serif" font-weight="normal" text-anchor="start" style="mix-blend-mode: normal"><tspan x="0" dy="0">Räuber und Gerdam Autospiel</tspan></text><path d="M325.51553,305.64135h115.99171v-18l30,30l-30,30v-18h-115.99171z" fill="#000000" stroke="#ffffff" stroke-width="3.5"/><text transform="translate(328.65103,324.0338) scale(0.5,0.5)" font-size="40" xml:space="preserve" fill="#ffffff" fill-rule="nonzero" stroke="none" stroke-width="1" stroke-linecap="butt" stroke-linejoin="miter" stroke-miterlimit="10" stroke-dasharray="" stroke-dashoffset="0" font-family="Sans Serif" font-weight="normal" text-anchor="start" style="mix-blend-mode: normal"><tspan x="0" dy="0">Next</tspan></text><g data-paper-data="{&quot;isHelperItem&quot;:true}" fill="#000000" stroke="#000000"><path d="" stroke-width="0"/><g data-paper-data="{&quot;isSelectionBound&quot;:true,&quot;isHelperItem&quot;:true}" stroke-width="0.68213"><path d=""/><path d=""/><path d=""/></g></g><text transform="translate(240,129.97946) scale(0.5,0.5)" font-size="40" xml:space="preserve" fill="#ffffff" fill-rule="nonzero" stroke="none" stroke-width="1" stroke-linecap="butt" stroke-linejoin="miter" stroke-miterlimit="10" stroke-dasharray="" stroke-dashoffset="0" font-family="Sans Serif" font-weight="normal" text-anchor="middle" style="mix-blend-mode: normal"><tspan x="0" dy="0">In the Tab</tspan></text><text transform="translate(240,232.89339) scale(0.5,0.5)" font-size="40" xml:space="preserve" fill="#ffffff" fill-rule="nonzero" stroke="none" stroke-width="1" stroke-linecap="butt" stroke-linejoin="miter" stroke-miterlimit="10" stroke-dasharray="" stroke-dashoffset="0" font-family="Sans Serif" font-weight="normal" text-anchor="middle" style="mix-blend-mode: normal"><tspan x="0" dy="0">you can open your chests.</tspan><tspan x="0" dy="48px">You get a chest if you buy a car</tspan></text><g stroke="none" stroke-width="0"><path d="M209.70157,177.38851c-0.73702,0 -1.3345,-1.08695 -1.3345,-2.42778v-31.5777c0,-1.34082 0.59748,-2.42778 1.3345,-2.42778h60.59686c0.73703,0 1.3345,1.08696 1.3345,2.42778v31.5777c0,1.34082 -0.59747,2.42778 -1.3345,2.42778z" fill="#feff72"/><g fill="#ffffff"><path d="M236.41528,169.72485l1.38999,-13.02205h4.35287l1.42658,13.02205z"/><path d="M234.03766,154.58123c0,-3.29291 2.66943,-5.96234 5.96234,-5.96234c3.29291,0 5.96234,2.66943 5.96234,5.96234c0,3.29291 -2.66943,5.96235 -5.96234,5.96235c-3.29291,0 -5.96234,-2.66944 -5.96234,-5.96235z"/></g></g></g></g></svg>