<svg version="1.1" xmlns="http://www.w3.org/2000/svg" xmlns:xlink="http://www.w3.org/1999/xlink" width="74.47476" height="36.23248" viewBox="0,0,74.47476,36.23248"><defs><radialGradient cx="236.91771" cy="186.73563" r="6.22928" gradientUnits="userSpaceOnUse" id="color-1"><stop offset="0" stop-color="#00bfba"/><stop offset="1" stop-color="#2100bf"/></radialGradient></defs><g transform="translate(-202.76263,-161.88377)"><g data-paper-data="{&quot;isPaintingLayer&quot;:true}" fill-rule="nonzero" stroke-linejoin="miter" stroke-miterlimit="10" stroke-dasharray="" stroke-dashoffset="0" style="mix-blend-mode: normal"><path d="M204.13218,187.00647c0,0 -1.2289,-3.17629 -1.11167,-6.88317c0.11825,-3.57888 1.46689,-7.56711 1.46689,-7.56711c0,0 0.53023,-3.93674 0.69958,-4.8702c0.07223,-0.39817 0.22602,-1.08272 0.65055,-1.67951c0.44576,-0.62667 1.30096,-1.29183 1.30096,-1.29183c0,0 4.63296,-0.65366 7.58697,-0.65366c3.08041,0 9.27617,0.7889 9.27617,0.7889l31.85099,0.21976c0,0 5.4989,-0.95042 7.464,-0.9823c1.69672,-0.02753 6.71035,0.66686 6.71035,0.66686c0,0 2.18834,0.95242 3.01084,1.42212c0.82482,0.69361 1.22239,1.65461 1.22239,1.65461l1.26183,4.45733c0,0 1.46535,2.60366 1.46535,7.73127c0,5.07501 -1.54677,7.4946 -1.54677,7.4946l-1.25813,4.27085c0,0 -0.31446,1.06596 -0.93682,1.53796c-0.72395,0.54906 -3.56707,1.69552 -3.56707,1.69552c0,0 -4.23164,0.91414 -6.15147,0.932c-1.96665,0.0183 -7.60473,-0.68828 -7.60473,-0.68828l-31.68817,-0.0958c0,0 -6.01183,0.7889 -9.18314,0.7889c-2.87882,0 -8.29249,-0.7889 -8.29249,-0.7889c0,0 -0.83777,-0.57232 -1.04189,-1.14369c-0.19844,-0.55551 -0.52206,-1.20956 -0.59852,-1.62867c-0.1574,-0.8628 -0.98601,-5.38757 -0.98601,-5.38757z" fill="#517fcd" stroke="#000000" stroke-width="0.5" stroke-linecap="round"/><path d="M243.89633,171.9384c0,0 0.76204,-1.51021 2.34901,-2.03588c1.83768,-0.6087 8.03567,-2.03506 8.03567,-2.03506c0,0 2.27486,0.29036 3.20077,3.10222c0.76995,2.33825 1.0164,7.05685 0.99928,8.93742c-0.01658,1.82201 -0.28484,7.01168 -0.96519,9.37323c-0.87698,3.04408 -3.00788,3.09579 -3.00788,3.09579c0,0 -6.55239,-1.80508 -8.22622,-2.37478c-1.84643,-0.62846 -2.38545,-1.71037 -2.38545,-1.71037z" fill="#4c5e73" stroke="#000000" stroke-width="0.5" stroke-linecap="round"/><path d="M209.02173,194.73312l-1.31527,-0.51364c0,0 -0.52792,-0.42383 -1.25048,-1.38607c-0.80358,-1.12918 -1.6515,-3.19659 -1.3938,-3.07494c0.33678,0.15898 1.81104,3.4855 3.02704,3.64543c3.12706,0.41124 9.03051,0.66278 15.02391,0.58858c4.45175,-0.05511 8.00923,0.09361 11.8771,0.04756c8.18869,-0.09752 15.14474,-0.29663 15.14474,-0.29663c0,0 7.42763,-0.95537 10.63945,-2.01934c4.55976,-1.5105 14.05397,-6.58894 14.05397,-6.58894c0,0 -1.66706,4.44189 -2.4758,5.63438c-0.89962,1.32648 -4.22751,2.99817 -4.22751,2.99817c0,0 -2.59844,0.14034 -5.07693,0.22599c-3.26492,0.11283 -12.81175,0.39215 -12.81175,0.39215c0,0 -9.4481,0.15518 -15.15995,0.19735c-2.0317,0.015 -6.02496,-0.16669 -10.15803,-0.01574c-3.5907,0.13113 -7.11479,0.59776 -9.72196,0.60698c-5.50222,0.01948 -6.17473,-0.44127 -6.17473,-0.44127z" data-paper-data="{&quot;index&quot;:null}" fill="#ffffff" stroke="none" stroke-width="0" stroke-linecap="round"/><path d="M252.48263,193.09221c0,0 -10.79586,0.68197 -14.09645,0.71772c-5.36702,0.05812 -15.04046,-0.40215 -15.04046,-0.40215c0,0 -1.30254,-0.05517 -1.78259,-0.18957c-0.36395,-0.1019 -1.2979,-0.49038 -1.2979,-0.49038l-0.57135,-0.79369c0,0 1.16547,-0.40809 2.6156,-0.88503c1.46893,-0.48311 3.15705,-0.95797 5.24269,-1.22973c2.94203,-0.38334 5.0807,-0.39372 8.07128,-0.23738c2.95203,0.01957 7.78071,1.05854 7.78071,1.05854c0,0 7.27047,1.76179 8.71548,2.16041c1.5913,0.43898 0.36299,0.29125 0.36299,0.29125z" fill="#4c5e73" stroke="#000000" stroke-width="0.5" stroke-linecap="round"/><path d="M251.93029,166.9762c-1.44502,0.39863 -8.71548,2.16041 -8.71548,2.16041c0,0 -4.82866,1.03897 -7.78071,1.05854c-2.99058,0.15634 -5.12925,0.14597 -8.07128,-0.23737c-2.08565,-0.27176 -3.77376,-0.74662 -5.24269,-1.22973c-1.45012,-0.47693 -2.6156,-0.88503 -2.6156,-0.88503l0.57135,-0.79369c0,0 0.93395,-0.38848 1.2979,-0.49038c0.48005,-0.13442 1.78259,-0.18957 1.78259,-0.18957c0,0 9.67344,-0.46028 15.04046,-0.40215c3.30061,0.03575 14.09645,0.71772 14.09645,0.71772c0,0 1.2283,-0.14772 -0.36299,0.29125z" data-paper-data="{&quot;index&quot;:null}" fill="#4c5e73" stroke="#000000" stroke-width="0.5" stroke-linecap="round"/><path d="M209.02173,165.22321c0,0 0.67251,-0.46073 6.17473,-0.44126c2.60717,0.00923 6.13126,0.47584 9.72196,0.60698c4.13307,0.15094 8.12634,-0.03075 10.15803,-0.01574c5.71185,0.04216 15.15995,0.19735 15.15995,0.19735c0,0 9.54684,0.27933 12.81175,0.39215c2.47849,0.08565 5.07693,0.22599 5.07693,0.22599c0,0 3.32788,1.67169 4.22751,2.99817c0.80874,1.19249 2.4758,5.63438 2.4758,5.63438c0,0 -9.4942,-5.07844 -14.05397,-6.58894c-3.21182,-1.06398 -10.63945,-2.01935 -10.63945,-2.01935c0,0 -6.95606,-0.19911 -15.14474,-0.29663c-3.86787,-0.04606 -7.42534,0.10266 -11.8771,0.04755c-5.99341,-0.0742 -11.89686,0.17734 -15.02391,0.58858c-1.216,0.15992 -2.69026,3.48643 -3.02704,3.64543c-0.25771,0.12166 0.59022,-1.94575 1.3938,-3.07493c0.72256,-0.96224 1.25048,-1.38607 1.25048,-1.38607z" fill="#ffffff" stroke="none" stroke-width="0" stroke-linecap="round"/><path d="M221.80943,172.85687l-0.32108,14.35809c0,0 0.06791,0.62041 -0.56205,0.95537c-1.6257,0.86441 -5.1732,2.06028 -6.28581,2.36646c-1.46193,0.4023 -1.86147,-0.36343 -1.86147,-0.36343c0,0 -1.64412,-2.37713 -1.98499,-10.41254c0.74221,-8.05549 2.10539,-10.5329 2.10539,-10.5329c0,0 0.35032,-0.63586 1.50466,-0.35991c1.17533,0.28097 4.78717,1.73248 6.56001,2.80219c0.70231,0.42376 0.84533,1.18668 0.84533,1.18668z" fill="#4c5e73" stroke="#000000" stroke-width="0.5" stroke-linecap="round"/><path d="M207.39011,192.23019c0,0 -1.31497,-1.33759 -2.14671,-2.89013c-0.88979,-1.66091 -1.38186,-3.13424 -1.38186,-3.13424" fill="none" stroke="#000000" stroke-width="0.5" stroke-linecap="round"/><path d="M204.29186,172.95221c0,0 0.49207,-1.47334 1.38186,-3.13423c0.83174,-1.55254 2.14671,-2.89013 2.14671,-2.89013" data-paper-data="{&quot;index&quot;:null}" fill="none" stroke="#000000" stroke-width="0.5" stroke-linecap="round"/><path d="M256.11919,168.52573c0,0 0.51155,-0.87365 0.79141,-1.16568c0.22774,-0.23764 0.8901,-0.64655 0.8901,-0.64655c0,0 0.54449,-0.12722 1.14645,-0.05284c1.74702,0.21588 11.41493,1.08781 11.41493,1.08781c0,0 0.96721,0.31192 1.13032,0.92738c0.6136,2.31516 1.79556,8.22323 1.82071,11.48673c0.02258,2.92912 -1.41552,8.839 -2.05428,11.41047c-0.24562,0.98883 -0.9259,0.95784 -0.9259,0.95784c0,0 -9.44944,0.65347 -11.19646,0.86935c-0.60197,0.07439 -1.14645,-0.05284 -1.14645,-0.05284c0,0 -0.66235,-0.4089 -0.8901,-0.64655c-0.27986,-0.29203 -0.66518,-0.97635 -0.66518,-0.97635" fill="none" stroke="#000000" stroke-width="0.25" stroke-linecap="round"/><path d="M272.51463,192.90486c0,0 -1.12734,0.58842 -1.67533,0.79392c-0.39468,0.14801 -1.17059,0.33313 -1.51878,0.3543c-0.22835,0.01388 -0.12561,-0.11633 -0.12561,-0.11633c0,0 2.16367,-0.84269 3.11577,-2.00997c0.90757,-1.11267 2.5959,-4.71151 2.5959,-4.71151c0,0 -0.75919,2.46484 -1.11524,3.42278c-0.15187,0.40858 -0.37966,1.01243 -0.63856,1.42889c-0.24426,0.39291 -0.63816,0.83792 -0.63816,0.83792z" fill="#ffffff" stroke="#000000" stroke-width="0.25" stroke-linecap="round"/><path d="M272.67242,167.22184c0,0 0.39389,0.445 0.63816,0.83792c0.2589,0.41647 0.4867,1.02031 0.63856,1.42889c0.35605,0.95793 1.11524,3.42278 1.11524,3.42278c0,0 -1.68833,-3.59884 -2.59591,-4.71151c-0.95211,-1.16728 -3.11577,-2.00997 -3.11577,-2.00997c0,0 -0.10274,-0.1302 0.12561,-0.11632c0.34819,0.02117 1.12411,0.20629 1.51878,0.3543c0.54799,0.2055 1.67533,0.79392 1.67533,0.79392z" data-paper-data="{&quot;index&quot;:null}" fill="#ffffff" stroke="#000000" stroke-width="0.25" stroke-linecap="round"/><path d="M252.50619,192.91977l-0.37868,1.18336c0,0 0.31981,0.6903 0.10605,0.95869c-0.19667,0.24693 -0.57629,1.19566 -1.12699,1.67362c-0.80733,0.70069 -1.67712,1.12288 -1.67712,1.12288l-0.69424,-0.09467c0,0 -0.45429,-0.28063 -0.30579,-0.64926c0.24661,-0.61219 1.12624,-2.53791 1.12624,-2.53791c0,0 0.32006,-0.546 0.55251,-0.66634c0.27157,-0.14056 0.93055,-0.12582 0.93055,-0.12582l0.23668,-1.18336z" fill="#517fcd" stroke="#000000" stroke-width="0.5" stroke-linecap="round"/><path d="M250.7495,167.39906l-0.23668,-1.18336c0,0 -0.65899,0.01474 -0.93055,-0.12582c-0.23246,-0.12033 -0.55251,-0.66634 -0.55251,-0.66634c0,0 -0.87963,-1.92573 -1.12624,-2.53791c-0.14851,-0.36864 0.30579,-0.64926 0.30579,-0.64926l0.69424,-0.09467c0,0 0.8698,0.42219 1.67712,1.12288c0.55069,0.47796 0.93032,1.42669 1.12699,1.67362c0.21376,0.26839 -0.10605,0.95869 -0.10605,0.95869l0.37868,1.18336z" data-paper-data="{&quot;index&quot;:null}" fill="#517fcd" stroke="#000000" stroke-width="0.5" stroke-linecap="round"/><path d="M276.74904,176.79081c0,0 -2.92305,-0.96815 -4.18738,-1.4233c-1.35857,-0.48909 -4.43798,-2.46863 -4.43798,-2.46863" fill="none" stroke="#000000" stroke-width="0.5" stroke-linecap="round"/><path d="M268.01849,187.09918c0,0 3.07941,-1.97954 4.43798,-2.46863c1.26433,-0.45516 4.18738,-1.4233 4.18738,-1.4233" data-paper-data="{&quot;index&quot;:null}" fill="none" stroke="#000000" stroke-width="0.5" stroke-linecap="round"/><path d="M262.5075,191.40827c0,0 -3.30932,1.14076 -5.00321,1.43543c-1.32963,0.23131 -5.10913,0.70537 -5.10913,0.70537" fill="none" stroke="#000000" stroke-width="0.5" stroke-linecap="round"/><path d="M251.7736,166.45019c0,0 3.77949,0.47406 5.10913,0.70537c1.6939,0.29468 5.00321,1.43543 5.00321,1.43543" data-paper-data="{&quot;index&quot;:null}" fill="none" stroke="#000000" stroke-width="0.5" stroke-linecap="round"/><path d="M206.82201,168.19568h3.13458c0,0 1.14929,0.27637 1.60946,0.49816c0.6405,0.30869 1.12541,0.7641 1.12541,0.7641" fill="none" stroke="#000000" stroke-width="0.25" stroke-linecap="round"/><path d="M212.53369,189.96948c0,0 -0.48492,0.4554 -1.12541,0.7641c-0.46018,0.22178 -1.60946,0.49816 -1.60946,0.49816h-3.13458" data-paper-data="{&quot;index&quot;:null}" fill="none" stroke="#000000" stroke-width="0.25" stroke-linecap="round"/><path d="M221.34451,193.13424c0,0 -1.93548,0.41437 -3.87524,0.18262c-1.35271,-0.11444 -3.22189,-0.69387 -3.79189,-1.05817c-1.29688,-0.82884 -1.65188,-3.72943 -1.65188,-3.72943" fill="none" stroke="#000000" stroke-width="0.5" stroke-linecap="round"/><path d="M212.27386,171.07253c0,0 0.33524,-2.7391 1.5599,-3.52178c0.53826,-0.34401 2.30338,-0.89117 3.58078,-0.99925c1.83175,-0.21883 3.65947,0.17245 3.65947,0.17245" data-paper-data="{&quot;index&quot;:null}" fill="none" stroke="#000000" stroke-width="0.5" stroke-linecap="round"/><path d="M221.95846,166.51268l0.31557,-1.683" fill="none" stroke="#000000" stroke-width="0.25" stroke-linecap="round"/><path d="M222.16884,193.33547l0.52593,1.89337" fill="none" stroke="#000000" stroke-width="0.25" stroke-linecap="round"/><path d="M227.41848,164.84232l-0.6635,0.02427c0,0 -0.77426,-0.45024 -1.22782,-0.41147c-0.68691,-0.04092 -0.58718,-0.06513 -1.00765,-0.0315c-0.54474,0.04356 -1.18717,0.3216 -1.18717,0.3216l-0.76792,-0.11682c0,0 0.64166,-0.34141 1.32324,-0.49776c0.6591,-0.1512 1.35171,-0.11784 1.75897,-0.09989c0.78754,0.03471 1.77184,0.81157 1.77184,0.81157z" fill="#5285cc" stroke="#000000" stroke-width="0.25" stroke-linecap="round"/><path d="M240.41391,164.95419l-0.6635,0.02427c0,0 -0.77426,-0.45024 -1.22782,-0.41147c-0.68691,-0.04092 -0.58718,-0.06513 -1.00765,-0.0315c-0.54474,0.04356 -1.18716,0.3216 -1.18716,0.3216l-0.76793,-0.11681c0,0 0.64166,-0.34141 1.32324,-0.49776c0.6591,-0.1512 1.35171,-0.11784 1.75897,-0.09989c0.78754,0.03471 1.77184,0.81157 1.77184,0.81157z" fill="#5285cc" stroke="#000000" stroke-width="0.25" stroke-linecap="round"/><path d="M226.71167,196.08462c-0.40725,0.01795 -1.09986,0.05131 -1.75897,-0.09989c-0.68158,-0.15635 -1.32324,-0.49776 -1.32324,-0.49776l0.76792,-0.11681c0,0 0.64242,0.27803 1.18717,0.3216c0.42047,0.03363 0.32074,0.0094 1.00765,-0.0315c0.45356,0.03876 1.22782,-0.41146 1.22782,-0.41146l0.6635,0.02427c0,0 -0.9843,0.77686 -1.77184,0.81157z" data-paper-data="{&quot;index&quot;:null}" fill="#5281cc" stroke="#000000" stroke-width="0.25" stroke-linecap="round"/><path d="M239.47043,196.09108c-0.40725,0.01795 -1.09986,0.05131 -1.75897,-0.09989c-0.68158,-0.15635 -1.32324,-0.49776 -1.32324,-0.49776l0.76793,-0.11682c0,0 0.64242,0.27803 1.18716,0.3216c0.42047,0.03363 0.32074,0.00941 1.00765,-0.0315c0.45356,0.03876 1.22782,-0.41146 1.22782,-0.41146l0.6635,0.02427c0,0 -0.9843,0.77686 -1.77184,0.81157z" data-paper-data="{&quot;index&quot;:null}" fill="#5281cc" stroke="#000000" stroke-width="0.25" stroke-linecap="round"/><path d="M235.61311,195.17625l-0.35501,-1.42003" fill="none" stroke="#000000" stroke-width="0.25" stroke-linecap="round"/><path d="M234.9031,165.11895l-0.35501,1.06502" fill="none" stroke="#000000" stroke-width="0.25" stroke-linecap="round"/><path d="M204.83396,190.39549c0,0 1.19668,2.15455 1.64853,2.78021c0.32885,0.45535 0.45785,0.58841 0.45785,0.58841c0,0 0.33028,0.30467 0.6932,0.51553c0.39502,0.22951 0.82868,0.36973 0.91716,0.44867c0.17207,0.15353 0.04634,0.22705 0.04634,0.22705l-1.60148,-0.67057c0,0 -0.34878,-0.27287 -0.61188,-0.59479c-0.21449,-0.26244 -0.3718,-0.54424 -0.52256,-0.84575c-0.35721,-0.71444 -1.02716,-2.44876 -1.02716,-2.44876z" fill="#650000" stroke="#000000" stroke-width="0.25" stroke-linecap="round"/><path d="M205.94718,166.9604c0.15075,-0.30151 0.30806,-0.58331 0.52256,-0.84575c0.26311,-0.32192 0.61188,-0.59479 0.61188,-0.59479l1.60148,-0.67057c0,0 0.12573,0.07351 -0.04634,0.22705c-0.08847,0.07895 -0.52216,0.21917 -0.91717,0.44867c-0.36291,0.21085 -0.6932,0.51553 -0.6932,0.51553c0,0 -0.12899,0.13307 -0.45784,0.58841c-0.45186,0.62565 -1.64854,2.78021 -1.64854,2.78021c0,0 0.66994,-1.73432 1.02716,-2.44876z" data-paper-data="{&quot;index&quot;:null}" fill="#670000" stroke="#000000" stroke-width="0.25" stroke-linecap="round"/><text transform="translate(270.76985,183.63968) rotate(-89.56569) scale(0.05208,0.04598) skewX(-0.10625)" font-size="40" xml:space="preserve" data-paper-data="{&quot;index&quot;:null}" fill="#ffffff" fill-rule="nonzero" stroke="none" stroke-width="1" stroke-linecap="butt" stroke-linejoin="miter" stroke-miterlimit="10" stroke-dasharray="" stroke-dashoffset="0" font-family="Sans Serif" font-weight="normal" text-anchor="start" style="mix-blend-mode: normal"><tspan x="0" dy="0">POLIZIA</tspan></text><path d="M234.57931,186.36187v-12.66193c0,0 0.2079,-0.26013 0.52967,-0.29498c0.93012,-0.10074 2.81161,-0.06003 3.37282,-0.06003c0.32282,0 0.57284,0.35501 0.57284,0.35501v12.66193c0,0 -0.1684,0.29584 -0.51367,0.29584c-0.53999,0 -2.39223,0.0909 -3.37787,0.004c-0.41852,-0.03689 -0.58379,-0.29985 -0.58379,-0.29985z" fill="#0010ca" stroke="#000000" stroke-width="0.5" stroke-linecap="butt"/><path d="M236.15151,185.1953v-9.82188c0,0 0.03187,-0.24734 0.25219,-0.31964c0.27329,-0.08967 0.64888,-0.04448 0.7969,-0.04448c0.21344,0 0.4301,0.36411 0.4301,0.36411v9.82188c0,0 -0.19288,0.15322 -0.38997,0.20172c-0.24216,0.05959 -0.5092,0.01675 -0.65912,0.01675c-0.19519,0 -0.4301,-0.21847 -0.4301,-0.21847z" fill="#ffffff" stroke="#000000" stroke-width="0.5" stroke-linecap="butt"/><path d="M234.72465,176.86172h1.20156" fill="none" stroke="#000000" stroke-width="0.5" stroke-linecap="round"/><path d="M237.71035,176.89814h1.01951" fill="none" stroke="#000000" stroke-width="0.5" stroke-linecap="round"/><path d="M238.91191,183.7434h-1.05592" fill="none" stroke="#000000" stroke-width="0.5" stroke-linecap="round"/><path d="M234.83388,183.74342l1.16516,-0.00001" fill="none" stroke="#000000" stroke-width="0.5" stroke-linecap="round"/><path d="M242.98929,186.73563c0,3.44033 -2.71834,6.22928 -6.07157,6.22928c-3.35324,0 -6.07157,-2.78895 -6.07157,-6.22928c0,-3.44033 2.71834,-6.22928 6.07157,-6.22928c3.35324,0 6.07157,2.78894 6.07157,6.22928z" fill="url(#color-1)" stroke="none" stroke-width="0" stroke-linecap="butt"/></g></g></svg>