<svg version="1.1" xmlns="http://www.w3.org/2000/svg" xmlns:xlink="http://www.w3.org/1999/xlink" width="160.69945" height="95.48052" viewBox="0,0,160.69945,95.48052"><defs><radialGradient cx="244.7025" cy="174.64767" r="7.3676" gradientUnits="userSpaceOnUse" id="color-1"><stop offset="0" stop-color="#00b7ff"/><stop offset="1" stop-color="#004bb3"/></radialGradient></defs><g transform="translate(-159.65028,-132.25974)"><g data-paper-data="{&quot;isPaintingLayer&quot;:true}" fill-rule="nonzero" stroke-linejoin="miter" stroke-miterlimit="10" stroke-dasharray="" stroke-dashoffset="0" style="mix-blend-mode: normal"><path d="M159.65029,227.74026v-95.48052h160.69945v95.48052z" fill="#59ad0d" stroke="none" stroke-width="0" stroke-linecap="butt"/><path d="M193.1908,169.57308c0,0 0.88964,-2.42929 1.3394,-3.30271c0.45647,-0.88643 2.08127,-1.97741 2.08127,-1.97741c0,0 4.14548,-1.48325 6.30163,-2.03074c1.97258,-0.50087 6.13364,-1.12681 6.13364,-1.12681c0,0 3.2174,0.3238 4.63975,0.63496c1.38295,0.30255 3.7795,1.20693 3.7795,1.20693c0,0 37.65079,0.34285 42.76628,0.33412c0.68902,-0.00118 2.67041,-0.57 3.47578,-0.8952c1.33163,-0.53769 2.36238,-0.6469 4.34787,-0.96635c1.95277,-0.31417 6.06514,0.72375 6.06514,0.72375l9.1063,3.41634l4.04967,7.43777c0,0 0.56134,4.99372 0.56134,7.43777c0,2.46745 -0.56134,7.29744 -0.56134,7.29744l-4.52626,8.10938l-8.79393,4.07344c0,0 -3.77941,0.8226 -5.89592,0.48329c-2.00026,-0.32068 -4.23695,-1.15037 -4.23695,-1.15037c0,0 -2.33501,-0.69114 -3.14661,-0.69132c-4.547,-0.001 -43.45914,0.30207 -43.45914,0.30207c0,0 -2.74551,0.97564 -3.98665,1.21905c-1.17353,0.23015 -4.20429,0.35978 -4.20429,0.35978c0,0 -4.17732,-0.38622 -6.14018,-1.00312c-2.11839,-0.66578 -6.29511,-2.07647 -6.29511,-2.07647c0,0 -1.39418,-1.0369 -1.94283,-1.9627c-0.53807,-0.90796 -1.31802,-3.53962 -1.31802,-3.53962l-1.15388,-1.77757l-0.01559,-18.85171z" fill="#73c5e6" stroke="#000000" stroke-width="0.5" stroke-linecap="round"/><path d="M219.66381,187.592l-3.27488,6.23803l-16.8987,-1.85165l-0.93556,-1.87113l-1.98809,-1.52031l-0.11694,-15.78772l1.75419,-1.52029l0.81862,-1.63725l17.15209,-1.83215l3.48924,5.90639z" fill="#191919" stroke="#000000" stroke-width="0.5" stroke-linecap="round"/><path d="M222.1037,167.6085l-0.74177,-0.83533c0,0 22.69921,-1.6885 30.00364,-1.92261c7.29041,-0.23367 14.03158,0.10159 14.03158,0.10159l-13.35942,3.01971c0,0 -6.01867,0.80252 -9.18824,0.96666c-3.55959,0.18434 -11.13531,0.08586 -11.13531,0.08586z" fill="#3a4758" stroke="#000000" stroke-width="0.5" stroke-linecap="round"/><path d="M231.96246,192.72078c0,0 7.57572,-0.09849 11.13531,0.08586c3.16957,0.16414 9.18824,0.96666 9.18824,0.96666l13.35943,3.01971c0,0 -6.74118,0.33526 -14.03158,0.10159c-7.30443,-0.23411 -30.12058,-1.81466 -30.12058,-1.81466l0.85873,-0.94328z" data-paper-data="{&quot;index&quot;:null}" fill="#3a4758" stroke="#000000" stroke-width="0.5" stroke-linecap="round"/><path d="M266.4087,163.25989l12.915,1.96533l4.49218,5.7556l-7.1594,-1.54418l5.0537,0.14038l-1.54418,-1.96533z" fill="#ffffff" stroke="none" stroke-width="0" stroke-linecap="round"/><path d="M268.80952,165.47477c0,0 4.85319,1.02112 10.63934,3.19784c5.76315,3.28583 6.80903,4.23994 6.80903,4.23994" fill="none" stroke="#000000" stroke-width="0.25" stroke-linecap="round"/><path d="M279.46182,194.00096l1.54418,-1.96533l-5.0537,0.14038l7.1594,-1.54418l-4.49218,5.7556l-12.915,1.96533z" data-paper-data="{&quot;index&quot;:null}" fill="#ffffff" stroke="none" stroke-width="0" stroke-linecap="round"/><path d="M286.02398,188.13308c0,0 -1.39672,1.48037 -7.15987,4.76619c-5.78615,2.17671 -10.63934,3.19784 -10.63934,3.19784" data-paper-data="{&quot;index&quot;:null}" fill="none" stroke="#000000" stroke-width="0.25" stroke-linecap="round"/><path d="M280.2953,165.36618l2.35563,0.88545l2.57282,4.32702l-0.08354,0.73509c0,0 -1.49738,-1.67771 -2.20662,-2.61977c-0.74775,-0.99321 -2.63829,-3.32779 -2.63829,-3.32779z" fill="#808080" stroke="#000000" stroke-width="0.25" stroke-linecap="round"/><path d="M282.45746,192.73257c0.70925,-0.94206 2.20662,-2.61977 2.20662,-2.61977l0.08354,0.73509l-2.57281,4.327l-2.35563,0.88545c0,0 1.89054,-2.33458 2.63829,-3.32779z" data-paper-data="{&quot;index&quot;:null}" fill="#808080" stroke="#000000" stroke-width="0.25" stroke-linecap="round"/><path d="M219.68972,173.74313l-2.7704,-4.87921l36.32242,7.14644l-33.57337,-1.20702z" fill="none" stroke="#000000" stroke-width="0.25" stroke-linecap="round"/><path d="M273.25556,188.45677l7.71844,0.8771" fill="none" stroke="#000000" stroke-width="0.25" stroke-linecap="round"/><path d="M221.21616,165.50608l-23.7243,2.8076l-2.52685,3.79027l0.28077,16.5649l2.38646,3.93065l23.99785,3.08837l43.15097,1.99773l-47.49328,-0.0324c0,0 -3.25787,0.79918 -4.73762,0.98709c-1.46813,0.18644 -4.10634,0.13596 -4.10634,0.13596c0,0 -4.41819,-0.66258 -6.56226,-1.36966c-2.24946,-0.74185 -6.63351,-2.98214 -6.63351,-2.98214l-2.1057,-4.91332v-18.24947l2.66723,-5.7556c0,0 4.40479,-1.58085 6.61866,-2.16373c2.22928,-0.58694 6.71116,-1.34579 6.71116,-1.34579c0,0 2.68007,0.32698 3.93105,0.58582c1.43713,0.29733 4.21101,1.09876 4.21101,1.09876l47.81588,0.21578z" fill="#ffffff" stroke="none" stroke-width="0" stroke-linecap="round"/><path d="M273.25556,172.05508l7.71844,-0.8771" data-paper-data="{&quot;index&quot;:null}" fill="none" stroke="#000000" stroke-width="0.25" stroke-linecap="round"/><path d="M285.88327,180.76271c0,0 -0.19265,0.26747 -0.36431,0.32264c-0.22626,0.07274 -0.60966,0.03153 -0.60966,0.03153c0,0 -0.03158,-0.27294 -0.02466,-0.39736c0.00775,-0.13948 0.02466,-0.35524 0.02466,-0.35524c0,0 0.43263,0.00462 0.64932,0.11697c0.17062,0.08847 0.32464,0.28147 0.32464,0.28147z" fill="#000000" stroke="#8a7100" stroke-width="0.25" stroke-linecap="round"/><path d="M222.09711,167.56529l-2.92366,-3.15754l3.74228,-0.35084" fill="none" stroke="#000000" stroke-width="0.5" stroke-linecap="round"/><path d="M223.16191,197.60981l-3.74228,-0.35084l2.92366,-3.15754" data-paper-data="{&quot;index&quot;:null}" fill="none" stroke="#000000" stroke-width="0.5" stroke-linecap="round"/><path d="M200.61961,188.0532v-14.11608l19.01617,0.7085l-0.16489,11.57181z" fill="#3a4758" stroke="#000000" stroke-width="0.5" stroke-linecap="butt"/><path d="M198.43353,171.63593l2.05104,2.159" fill="none" stroke="#000000" stroke-width="0.5" stroke-linecap="round"/><path d="M198.86531,189.66362l1.61925,-1.61925" fill="none" stroke="#000000" stroke-width="0.5" stroke-linecap="round"/><path d="M213.51415,169.00551l2.71344,4.38325" fill="none" stroke="#000000" stroke-width="0.5" stroke-linecap="round"/><path d="M213.07702,173.53931l-2.61985,-4.23211" fill="none" stroke="#000000" stroke-width="0.5" stroke-linecap="round"/><path d="M209.72174,173.21576l-2.15196,-3.47627" fill="none" stroke="#000000" stroke-width="0.5" stroke-linecap="round"/><path d="M204.53346,169.93247l1.96481,3.17395" fill="none" stroke="#000000" stroke-width="0.5" stroke-linecap="round"/><path d="M202.96645,172.69924l-1.40334,-2.26696" fill="none" stroke="#000000" stroke-width="0.5" stroke-linecap="round"/><path d="M213.40725,192.45307l2.90058,-4.68557" data-paper-data="{&quot;index&quot;:null}" fill="none" stroke="#000000" stroke-width="0.5" stroke-linecap="round"/><path d="M210.16312,192.43211l2.71343,-4.38326" data-paper-data="{&quot;index&quot;:null}" fill="none" stroke="#000000" stroke-width="0.5" stroke-linecap="round"/><path d="M209.61485,188.3148l-2.33911,3.7786" data-paper-data="{&quot;index&quot;:null}" fill="none" stroke="#000000" stroke-width="0.5" stroke-linecap="round"/><path d="M206.48494,188.44573l-1.96481,3.17395" data-paper-data="{&quot;index&quot;:null}" fill="none" stroke="#000000" stroke-width="0.25" stroke-linecap="round"/><path d="M202.76597,188.9465l-1.40334,2.26696" data-paper-data="{&quot;index&quot;:null}" fill="none" stroke="#000000" stroke-width="0.5" stroke-linecap="round"/><path d="M255.08017,162.96218l0.90585,-1.38898l-0.82942,-0.13761l-0.88648,-3.32429c0,0 1.33574,0.06582 1.8585,0.58031c0.64951,0.63924 1.59373,2.74121 1.59373,2.74121l-0.52422,0.24428l-0.8226,1.30366z" fill="#73c5e6" stroke="#000000" stroke-width="0.25" stroke-linecap="round"/><path d="M255.78001,198.59197l0.8226,1.30366l0.52424,0.2443c0,0 -0.94422,2.10197 -1.59373,2.74121c-0.52276,0.5145 -1.8585,0.58031 -1.8585,0.58031l0.88648,-3.32431l0.82942,-0.1376l-0.90585,-1.38898z" data-paper-data="{&quot;index&quot;:null}" fill="#73c5e6" stroke="#000000" stroke-width="0.25" stroke-linecap="round"/><path d="M280.94944,195.08245l0.37318,-0.11482l0.71763,-0.63152l0.37318,-0.08612" fill="none" stroke="#ffffff" stroke-width="0.125" stroke-linecap="round"/><path d="M281.84706,193.97608l0.76428,-0.13196" fill="none" stroke="#ffffff" stroke-width="0.125" stroke-linecap="round"/><path d="M283.33698,192.70265l-0.59088,0.08135" fill="none" stroke="#ffffff" stroke-width="0.125" stroke-linecap="round"/><path d="M283.2078,192.20025l0.33968,0.07577" fill="none" stroke="#ffffff" stroke-width="0.125" stroke-linecap="round"/><path d="M282.9057,168.68134c-0.74775,-0.99321 -2.63829,-3.32779 -2.63829,-3.32779l2.35563,0.88545l2.57281,4.327l-0.08354,0.73509c0,0 -1.49736,-1.67771 -2.20662,-2.61977z" data-paper-data="{&quot;index&quot;:null}" fill="#808080" stroke="#000000" stroke-width="0.25" stroke-linecap="round"/><path d="M282.86167,167.16391l-0.37318,-0.08611l-0.71763,-0.63152l-0.37318,-0.11482" data-paper-data="{&quot;index&quot;:null}" fill="none" stroke="#ffffff" stroke-width="0.125" stroke-linecap="round"/><path d="M282.29529,167.43781l0.76429,0.13196" data-paper-data="{&quot;index&quot;:null}" fill="none" stroke="#ffffff" stroke-width="0.125" stroke-linecap="round"/><path d="M283.78521,168.71124l-0.59088,-0.08135" data-paper-data="{&quot;index&quot;:null}" fill="none" stroke="#ffffff" stroke-width="0.125" stroke-linecap="round"/><path d="M283.65605,169.21365l0.33968,-0.07577" data-paper-data="{&quot;index&quot;:null}" fill="none" stroke="#ffffff" stroke-width="0.125" stroke-linecap="round"/><path d="M219.82183,186.13477l33.57337,-1.20702l-35.99848,7.25441l2.33849,-4.4473z" data-paper-data="{&quot;index&quot;:null}" fill="none" stroke="#000000" stroke-width="0.25" stroke-linecap="round"/><path d="M225.50706,166.22634l1.71582,-3.11968" fill="none" stroke="#000000" stroke-width="0.25" stroke-linecap="round"/><path d="M226.69872,195.55847l1.71582,3.11968" data-paper-data="{&quot;index&quot;:null}" fill="none" stroke="#000000" stroke-width="0.25" stroke-linecap="round"/><path d="M259.62918,198.25291l-0.74862,-1.12292" fill="none" stroke="#000000" stroke-width="0.25" stroke-linecap="round"/><path d="M258.66665,164.4225l0.71168,-1.12294" data-paper-data="{&quot;index&quot;:null}" fill="none" stroke="#000000" stroke-width="0.25" stroke-linecap="round"/><path d="M254.22059,168.96745l14.40183,-3.29185l3.01753,6.72086c0,0 0.52755,5.88057 0.52755,8.63583c0,2.52884 -0.52755,7.27477 -0.52755,7.27477l-3.42901,7.68099l-14.022,-3.18634c0,0 0.53792,-7.82207 0.54317,-11.76953c0.0053,-3.99667 -0.51152,-12.06471 -0.51152,-12.06471z" fill="#3a485a" stroke="#000000" stroke-width="0.5" stroke-linecap="round"/><path d="M228.59345,156.40529" fill="none" stroke="#000000" stroke-width="0.25" stroke-linecap="round"/><path d="M193.37174,169.42201l4.59414,1.27615" fill="none" stroke="#000000" stroke-width="0.25" stroke-linecap="round"/><path d="M193.75459,191.75461l4.72175,-1.14853" fill="none" stroke="#000000" stroke-width="0.25" stroke-linecap="round"/><path d="M241.8486,188.04968c0,0 -0.68077,-0.3204 -0.70756,-0.86515c-0.13784,-2.80338 0.10402,-11.54831 0.11199,-13.14593c0.00248,-0.49639 0.66943,-0.79059 0.66943,-0.79059l5.7833,-0.07387c0,0 0.66474,0.25951 0.66474,0.79031c0,1.58544 0.15572,10.07317 -0.01043,13.14325c-0.03921,0.72437 -0.65431,0.86814 -0.65431,0.86814z" fill="#c2e5f3" stroke="#000000" stroke-width="0.5" stroke-linecap="butt"/><path d="M242.68598,185.94465c0,0 -0.48548,-0.22848 -0.50458,-0.61697c-0.09829,-1.99919 0.07417,-8.23551 0.07986,-9.37482c0.00177,-0.354 0.47738,-0.56381 0.47738,-0.56381l4.12427,-0.05267c0,0 0.47405,0.18506 0.47405,0.56359c0,1.13064 0.11105,7.18353 -0.00744,9.3729c-0.02795,0.51657 -0.46661,0.6191 -0.46661,0.6191z" fill="#0088bf" stroke="#000000" stroke-width="0.5" stroke-linecap="butt"/><path d="M244.7025,167.45548c4.06902,0 7.3676,3.22005 7.3676,7.19219c0,3.97214 -3.29858,7.19219 -7.3676,7.19219c-4.06902,0 -7.3676,-3.22005 -7.3676,-7.19219c0,-3.97214 3.29858,-7.19219 7.3676,-7.19219z" fill="url(#color-1)" stroke="#000000" stroke-width="0.5" stroke-linecap="butt"/><text transform="translate(204.50468,196.03756) rotate(7.72916) scale(0.06537,0.06537)" font-size="40" xml:space="preserve" fill="#67c2e5" fill-rule="nonzero" stroke="none" stroke-width="1" stroke-linecap="butt" stroke-linejoin="miter" stroke-miterlimit="10" stroke-dasharray="" stroke-dashoffset="0" font-family="Curly" font-weight="normal" text-anchor="start" style="mix-blend-mode: normal"><tspan x="0" dy="0">113</tspan></text><text transform="translate(203.95555,164.91566) rotate(-7.72916) scale(0.06537,-0.06537)" font-size="40" xml:space="preserve" data-paper-data="{&quot;index&quot;:null}" fill="#67c2e5" fill-rule="nonzero" stroke="none" stroke-width="1" stroke-linecap="butt" stroke-linejoin="miter" stroke-miterlimit="10" stroke-dasharray="" stroke-dashoffset="0" font-family="Curly" font-weight="normal" text-anchor="start" style="mix-blend-mode: normal"><tspan x="0" dy="0">113</tspan></text></g></g></svg>