<svg version="1.1" xmlns="http://www.w3.org/2000/svg" xmlns:xlink="http://www.w3.org/1999/xlink" width="342.34234" height="31.25816" viewBox="0,0,342.34234,31.25816"><defs><linearGradient x1="393.33826" y1="168.79285" x2="393.33826" y2="187.94216" gradientUnits="userSpaceOnUse" id="color-1"><stop offset="0" stop-color="#ffef3e"/><stop offset="1" stop-color="#9a9125"/></linearGradient></defs><g transform="translate(-68.82883,-163.43821)"><g data-paper-data="{&quot;isPaintingLayer&quot;:true}" fill-rule="nonzero" stroke="none" stroke-linecap="butt" stroke-linejoin="miter" stroke-miterlimit="10" stroke-dasharray="" stroke-dashoffset="0" style="mix-blend-mode: normal"><path d="M75.22883,194.69637c-3.53462,0 -6.4,-2.6967 -6.4,-6.02325v-17.34624c0,-3.32655 2.86538,-6.02325 6.4,-6.02325h329.54234c3.53462,0 6.4,2.6967 6.4,6.02325v17.34624c0,3.32655 -2.86538,6.02325 -6.4,6.02325z" fill-opacity="0.89412" fill="#ffde00" stroke-width="0"/><text transform="translate(74.54044,185.76875) scale(0.5,0.5)" font-size="40" xml:space="preserve" fill-opacity="0.89412" fill="#ffffff" fill-rule="nonzero" stroke="none" stroke-width="1" stroke-linecap="butt" stroke-linejoin="miter" stroke-miterlimit="10" stroke-dasharray="" stroke-dashoffset="0" font-family="Sans Serif" font-weight="normal" text-anchor="start" style="mix-blend-mode: normal"><tspan x="0" dy="0">Day 2</tspan></text><text transform="translate(346.24462,185.76875) scale(0.5,0.5)" font-size="40" xml:space="preserve" fill-opacity="0.89412" fill="#ffffff" fill-rule="nonzero" stroke="none" stroke-width="1" stroke-linecap="butt" stroke-linejoin="miter" stroke-miterlimit="10" stroke-dasharray="" stroke-dashoffset="0" font-family="Sans Serif" font-weight="normal" text-anchor="start" style="mix-blend-mode: normal"><tspan x="0" dy="0">200</tspan></text><g><path d="M383.7636,178.36751c0,-5.28793 4.28672,-9.57465 9.57465,-9.57465c5.28793,0 9.57465,4.28672 9.57465,9.57465c0,5.28793 -4.28672,9.57465 -9.57465,9.57465c-5.28793,0 -9.57465,-4.28672 -9.57465,-9.57465z" fill="url(#color-1)" stroke-width="0"/><text transform="translate(387.48408,185.32915) scale(0.50324,0.50324)" font-size="40" xml:space="preserve" fill="#000000" fill-rule="nonzero" stroke="none" stroke-width="1" stroke-linecap="butt" stroke-linejoin="miter" stroke-miterlimit="10" stroke-dasharray="" stroke-dashoffset="0" font-family="Sans Serif" font-weight="normal" text-anchor="start" style="mix-blend-mode: normal"><tspan x="0" dy="0">$</tspan></text></g></g></g></svg>