<svg version="1.1" xmlns="http://www.w3.org/2000/svg" xmlns:xlink="http://www.w3.org/1999/xlink" width="36.30779" height="40.45799" viewBox="0,0,36.30779,40.45799"><g transform="translate(-221.38453,-157.23431)"><g data-paper-data="{&quot;isPaintingLayer&quot;:true}" fill-rule="nonzero" stroke-linejoin="miter" stroke-miterlimit="10" stroke-dasharray="" stroke-dashoffset="0" style="mix-blend-mode: normal"><path d="M222.30771,197.69231v-35.38462h35.38462v35.38462z" fill="#2fc4ff" stroke="none" stroke-width="0" stroke-linecap="butt"/><text transform="translate(221.62725,178.35052) scale(0.48543,0.48543)" font-size="40" xml:space="preserve" fill="#ffb566" fill-rule="nonzero" stroke="none" stroke-width="1" stroke-linecap="butt" stroke-linejoin="miter" stroke-miterlimit="10" stroke-dasharray="" stroke-dashoffset="0" font-family="Sans Serif" font-weight="normal" text-anchor="start" style="mix-blend-mode: normal"><tspan x="0" dy="0">1</tspan></text><g stroke="#000000" stroke-linecap="round"><path d="M224.44196,186.14063c0,0 -0.29708,-1.98565 -0.35397,-2.3642c-0.02764,-0.18388 0.0136,-0.49971 0.01707,-0.75715c0.00358,-0.26481 0.26868,-0.61951 0.26868,-0.61951c0,0 2.1242,-1.09063 3.31306,-1.49735c1.30965,-0.44804 3.90379,-0.97162 3.90379,-0.97162l13.07262,-4.51648c0,0 2.2285,-1.08834 3.04326,-1.35864c0.79535,-0.26386 2.67203,-0.4842 2.67203,-0.4842c0,0 1.33608,0.07177 1.71262,0.19623c0.3237,0.10699 0.60416,0.50277 0.60416,0.50277l1.12295,1.58596c0,0 0.9806,0.78068 1.6976,2.87649c0.72443,2.11754 0.48713,3.39978 0.48713,3.39978l0.10864,2.019c0,0 -0.02842,0.45303 -0.27105,0.856c-0.2733,0.31017 -1.04246,1.01266 -1.04246,1.01266c0,0 -1.97236,0.99509 -2.67694,1.22344c-0.81603,0.26446 -3.22117,0.64886 -3.22117,0.64886l-13.12235,4.59068c0,0 -2.44719,1.20113 -3.71929,1.63634c-1.2199,0.41734 -3.22551,0.80195 -3.22551,0.80195c0,0 -0.44714,-0.15386 -0.71977,-0.34967c-0.25963,-0.18648 -0.41985,-0.44744 -0.50594,-0.60168c-0.20182,-0.36156 -0.97697,-1.91238 -0.97697,-1.91238c0,0 -1.1204,-1.45647 -1.67486,-2.91772c-0.57212,-1.51426 -0.51338,-2.99957 -0.51338,-2.99957z" fill="#246291" stroke-width="0.5"/><path d="M240.71433,179.98112c0,0 0.06975,-0.52295 0.74347,-1.04334c0.61075,-0.47175 3.06165,-2.14292 3.06165,-2.14292c0,0 0.88729,-0.2797 1.67952,0.8535c0.6146,0.87912 1.45858,2.98438 1.72285,3.73446c0.27276,0.7742 0.83763,2.75764 0.85001,3.83204c0.01489,1.29202 -0.88353,1.73332 -0.88353,1.73332c0,0 -2.76108,0.28663 -3.60598,0.29488c-0.72964,0.00713 -1.2577,-0.50888 -1.2577,-0.50888z" fill="#4c5e73" stroke-width="0.5"/><path d="M243.54928,176.79643c0,0 0.48638,-0.23453 -0.10875,0.17157c-0.54042,0.36877 -3.29397,2.1235 -3.29397,2.1235c0,0 -1.84729,1.11125 -3.06363,1.5364c-1.21292,0.48708 -2.0976,0.78495 -3.36671,1.04229c-0.8997,0.18244 -1.66391,0.22484 -2.33879,0.23286c-0.66623,0.00791 -1.20519,0.00404 -1.20519,0.00404l0.12381,-0.40849c0,0 0.33082,-0.29238 0.46671,-0.38588c0.17925,-0.12332 0.70936,-0.33013 0.70936,-0.33013c0,0 3.92978,-1.55676 6.15439,-2.29101c1.36808,-0.45154 5.92276,-1.69516 5.92276,-1.69516z" fill="#4c5e73" stroke-width="0.5"/><path d="M247.01085,187.65951c0.71917,-0.04353 0.19106,0.069 0.19106,0.069c0,0 -4.36197,1.80688 -5.71996,2.28795c-2.20819,0.78226 -6.26802,1.95885 -6.26802,1.95885c0,0 -0.54569,0.16125 -0.76294,0.17355c-0.16469,0.00934 -0.60527,-0.01915 -0.60527,-0.01915l-0.34809,-0.24705c0,0 0.42365,-0.33318 0.95511,-0.73502c0.53837,-0.40704 1.16842,-0.84164 1.99133,-1.24853c1.16079,-0.57396 2.04252,-0.8804 3.29962,-1.23834c1.22186,-0.40899 3.36272,-0.66212 3.36272,-0.66212c0,0 3.25137,-0.29962 3.90443,-0.33916z" data-paper-data="{&quot;index&quot;:null}" fill="#4c5e73" stroke-width="0.5"/><path d="M233.74112,189.48648c0,0 0.04871,0.33526 -0.18145,0.60948c-0.581,0.69223 -1.8675,1.80193 -2.31317,2.08401c-0.43772,0.27704 -0.67222,0.06396 -0.67222,0.06396c0,0 -0.91296,-0.8305 -2.35755,-4.05229c-0.99448,-3.36651 -0.65136,-4.58047 -0.65136,-4.58047c0,0 0.05681,-0.37267 0.71738,-0.41307c0.50274,-0.03075 2.13669,-0.03808 2.93017,0.08921c0.30747,0.04932 0.36709,0.31512 0.36709,0.31512l2.16112,5.88404z" fill="#4c5e73" stroke-width="0.5"/><path d="M224.4433,186.5095c0,0 -0.00494,-0.67796 0.12786,-1.48957c0.12414,-0.75865 0.4782,-1.49682 0.4782,-1.49682" fill="none" stroke-width="0.5"/><path d="M228.80179,193.91134c0,0 -0.73202,-0.3666 -1.29484,-0.89024c-0.60211,-0.56019 -1.01347,-1.0991 -1.01347,-1.0991" data-paper-data="{&quot;index&quot;:null}" fill="none" stroke-width="0.5"/><path d="M245.41806,176.78804c0,0 0.06245,-0.33704 0.13676,-0.49717c0.06048,-0.13032 0.27623,-0.39276 0.27623,-0.39276c0,0 0.20688,-0.12947 0.46598,-0.18379c0.75195,-0.15766 4.74658,-1.22283 4.74658,-1.22283c0,0 0.27654,-0.10891 0.51769,0.26474c0.62708,0.97169 2.05592,3.20909 2.46043,4.42192c0.45069,1.35127 0.79727,3.95809 0.87096,5.00087c0.01959,0.27721 -0.33577,0.54267 -0.33577,0.54267c0,0 -3.86934,1.72597 -4.5603,2.06194c-0.23809,0.11576 -0.48092,0.14015 -0.48092,0.14015c0,0 -0.33131,-0.07528 -0.45893,-0.14125c-0.15684,-0.08107 -0.41264,-0.30923 -0.41264,-0.30923" fill="none" stroke-width="0.25"/><path d="M251.84829,174.04367c0,0 0.22554,0.12812 0.38192,0.25588c0.16576,0.13541 0.34514,0.35259 0.46558,0.49986c0.28236,0.3453 0.94412,1.25593 0.94412,1.25593c0,0 -1.20567,-1.24767 -1.73766,-1.57894c-0.5581,-0.34753 -1.57068,-0.38985 -1.57068,-0.38985c0,0 -0.06082,-0.03926 0.03544,-0.06579c0.14678,-0.04046 0.49337,-0.07363 0.67726,-0.06826c0.25533,0.00744 0.80403,0.09116 0.80403,0.09116z" fill="#ffffff" stroke-width="0.25"/><path d="M255.54196,184.62762c0,0 -0.38242,0.40228 -0.57969,0.56456c-0.14208,0.11687 -0.43635,0.30294 -0.57715,0.36088c-0.09234,0.03799 -0.06831,-0.0303 -0.06831,-0.0303c0,0 0.77446,-0.65369 1.00274,-1.27025c0.2176,-0.58773 0.40638,-2.31245 0.40638,-2.31245c0,0 0.03473,1.12515 0.02302,1.57105c-0.005,0.19018 -0.01376,0.47174 -0.06183,0.6803c-0.04537,0.19676 -0.14516,0.43618 -0.14516,0.43618z" data-paper-data="{&quot;index&quot;:null}" fill="#ffffff" stroke-width="0.25"/><path d="M243.12015,177.16987l-0.26492,-0.45525c0,0 -0.27006,0.09918 -0.40207,0.0795c-0.113,-0.01685 -0.32231,-0.19711 -0.32231,-0.19711c0,0 -0.63532,-0.67098 -0.82366,-0.88896c-0.11341,-0.13125 0.03455,-0.31133 0.03455,-0.31133l0.27331,-0.13718c0,0 0.41884,0.05147 0.85123,0.22677c0.29494,0.11957 0.58575,0.45773 0.70186,0.53192c0.1262,0.08062 0.09165,0.41089 0.09165,0.41089l0.32356,0.43518z" fill="#246291" stroke-width="0.5"/><path d="M247.0168,187.60947l0.01081,0.54218c0,0 0.2296,0.23989 0.17924,0.38092c-0.04633,0.12977 -0.06906,0.57519 -0.22896,0.85037c-0.23441,0.40342 -0.53395,0.70066 -0.53395,0.70066l-0.30007,0.05898c0,0 -0.22726,-0.0517 -0.21801,-0.22492c0.01535,-0.28766 0.10654,-1.20719 0.10654,-1.20719c0,0 0.05503,-0.27069 0.13403,-0.35323c0.09229,-0.09641 0.36651,-0.18343 0.36651,-0.18343l-0.06945,-0.52212z" data-paper-data="{&quot;index&quot;:null}" fill="#246291" stroke-width="0.5"/><path d="M252.86142,182.92581c0,0 0.99203,-1.25255 1.48397,-1.64646c0.45783,-0.36659 1.52817,-1.17937 1.52817,-1.17937" fill="none" stroke-width="0.5"/><path d="M254.92361,177.46507c0,0 -1.34391,0.01316 -1.93034,0.00382c-0.63015,-0.01004 -2.18151,-0.39246 -2.18151,-0.39246" data-paper-data="{&quot;index&quot;:null}" fill="none" stroke-width="0.5"/><path d="M243.4486,176.62011c0,0 1.62778,-0.33819 2.20956,-0.43052c0.74115,-0.11763 2.26895,-0.11407 2.26895,-0.11407" fill="none" stroke-width="0.5"/><path d="M250.93751,185.57125c0,0 -1.20547,0.93864 -1.86336,1.29964c-0.51641,0.28337 -2.01024,1.01312 -2.01024,1.01312" data-paper-data="{&quot;index&quot;:null}" fill="none" stroke-width="0.5"/><path d="M230.45592,192.17831c0,0 -0.13591,0.25658 -0.3568,0.47455c-0.15871,0.15661 -0.59428,0.43311 -0.59428,0.43311l-1.29448,0.44286" fill="none" stroke-width="0.25"/><path d="M224.89064,184.038l1.29448,-0.44286c0,0 0.51367,-0.04824 0.73504,-0.02167c0.30812,0.03699 0.57271,0.15655 0.57271,0.15655" data-paper-data="{&quot;index&quot;:null}" fill="none" stroke-width="0.25"/><path d="M227.48647,184.39659c0,0 -0.2632,-1.248 0.15527,-1.77351c0.18393,-0.23097 0.87397,-0.73433 1.41643,-0.9727c0.76832,-0.36975 1.62615,-0.47209 1.62615,-0.47209" fill="none" stroke-width="0.5"/><path d="M234.30389,192.12308c0,0 -0.69951,0.4198 -1.48688,0.58823c-0.54278,0.13583 -1.34902,0.15925 -1.61991,0.09323c-0.61632,-0.1502 -1.14175,-1.23399 -1.14175,-1.23399" data-paper-data="{&quot;index&quot;:null}" fill="none" stroke-width="0.5"/><path d="M235.06707,192.7358l-0.36809,-0.65044" fill="none" stroke-width="0.25"/><path d="M230.94602,180.12252l0.05031,0.8562" fill="none" stroke-width="0.25"/><path d="M237.18977,192.00379c0,0 -0.29673,0.45987 -0.61706,0.58547c-0.16565,0.06494 -0.44696,0.17657 -0.7405,0.20725c-0.30355,0.03172 -0.61678,-0.01861 -0.61678,-0.01861l0.30062,-0.15674c0,0 0.30459,0.02405 0.5357,-0.03492c0.17838,-0.04552 0.13379,-0.04143 0.41167,-0.15537c0.19278,-0.04806 0.44891,-0.34339 0.44891,-0.34339l0.27743,-0.08371z" fill="#246291" stroke-width="0.25"/><path d="M242.54065,190.12157c0,0 -0.29673,0.45987 -0.61706,0.58547c-0.16565,0.06494 -0.44696,0.17657 -0.7405,0.20725c-0.30355,0.03172 -0.61678,-0.01861 -0.61678,-0.01861l0.30062,-0.15673c0,0 0.30459,0.02405 0.5357,-0.03492c0.17838,-0.04552 0.13379,-0.04143 0.41167,-0.15537c0.19278,-0.04806 0.44891,-0.34339 0.44891,-0.34339l0.27743,-0.08371z" fill="#246291" stroke-width="0.25"/><path d="M232.48394,179.20163c0.33014,-0.09694 0.84637,0.08482 0.84637,0.08482l-0.27057,0.10376c0,0 -0.38334,-0.07655 -0.56517,0.00354c-0.28946,0.08015 -0.25169,0.05605 -0.42058,0.12934c-0.21881,0.09495 -0.44482,0.30053 -0.44482,0.30053l-0.33363,0.06025c0,0 0.21675,-0.23165 0.47613,-0.39251c0.25082,-0.15556 0.54157,-0.23963 0.71228,-0.28976z" data-paper-data="{&quot;index&quot;:null}" fill="#246291" stroke-width="0.25"/><path d="M237.75198,177.39639c0.33014,-0.09694 0.84637,0.08482 0.84637,0.08482l-0.27057,0.10376c0,0 -0.38334,-0.07655 -0.56517,0.00354c-0.28946,0.08016 -0.25169,0.05606 -0.42058,0.12935c-0.21881,0.09495 -0.44482,0.30053 -0.44482,0.30053l-0.33364,0.06025c0,0 0.21675,-0.23165 0.47613,-0.39251c0.25082,-0.15556 0.54157,-0.23963 0.71228,-0.28976z" data-paper-data="{&quot;index&quot;:null}" fill="#246291" stroke-width="0.25"/><path d="M236.28829,178.31913l0.05402,0.63658" fill="none" stroke-width="0.25"/><path d="M239.94452,190.44244l0.29708,0.38966" fill="none" stroke-width="0.25"/><path d="M224.25293,184.64195c0,0 0.03164,-0.81087 0.07823,-1.15637c0.01967,-0.14581 0.04482,-0.28441 0.09632,-0.42309c0.06317,-0.17012 0.16865,-0.33208 0.16865,-0.33208l0.56663,-0.50318c0,0 0.06231,0.01259 0.01294,0.1003c-0.02538,0.0451 -0.18466,0.16427 -0.31536,0.31486c-0.12008,0.13834 -0.21343,0.31083 -0.21343,0.31083c0,0 -0.03447,0.07318 -0.10594,0.30768c-0.0982,0.32221 -0.28799,1.38104 -0.28799,1.38104z" fill="#650000" stroke-width="0.25"/><path d="M228.02359,194.16255c-0.24846,-0.24457 -0.77014,-0.86614 -0.77014,-0.86614c0,0 0.79858,0.72069 1.07358,0.91522c0.20014,0.14159 0.2722,0.17832 0.2722,0.17832c0,0 0.17944,0.07916 0.3591,0.11496c0.19555,0.03898 0.39446,0.03561 0.44215,0.05572c0.09275,0.03909 0.05122,0.08721 0.05122,0.08721l-0.75609,-0.05066c0,0 -0.18257,-0.06341 -0.33671,-0.15918c-0.12566,-0.07807 -0.23044,-0.17222 -0.33529,-0.27543z" data-paper-data="{&quot;index&quot;:null}" fill="#670000" stroke-width="0.25"/></g></g></g></svg>